%TF.GenerationSoftware,KiCad,Pcbnew,9.0.0*%
%TF.CreationDate,2025-06-08T14:19:54-07:00*%
%TF.ProjectId,PROVES_Cosmic_Watch,50524f56-4553-45f4-936f-736d69635f57,rev?*%
%TF.SameCoordinates,Original*%
%TF.FileFunction,Legend,Top*%
%TF.FilePolarity,Positive*%
%FSLAX46Y46*%
G04 Gerber Fmt 4.6, Leading zero omitted, Abs format (unit mm)*
G04 Created by KiCad (PCBNEW 9.0.0) date 2025-06-08 14:19:54*
%MOMM*%
%LPD*%
G01*
G04 APERTURE LIST*
G04 Aperture macros list*
%AMFreePoly0*
4,1,29,1.435355,3.535355,1.450000,3.500000,1.450000,1.450000,3.500000,1.450000,3.535355,1.435355,3.550000,1.400000,3.550000,-1.400000,3.535355,-1.435355,3.500000,-1.450000,1.450000,-1.450000,1.450000,-3.500000,1.435355,-3.535355,1.400000,-3.550000,-1.400000,-3.550000,-1.435355,-3.535355,-1.450000,-3.500000,-1.450000,-1.450000,-3.500000,-1.450000,-3.535355,-1.435355,-3.550000,-1.400000,
-3.550000,1.400000,-3.535355,1.435355,-3.500000,1.450000,-1.450000,1.450000,-1.450000,3.500000,-1.435355,3.535355,-1.400000,3.550000,1.400000,3.550000,1.435355,3.535355,1.435355,3.535355,$1*%
G04 Aperture macros list end*
%ADD10C,0.100000*%
%ADD11C,0.200000*%
%ADD12C,0.150000*%
%ADD13C,0.120000*%
%ADD14C,0.250000*%
%ADD15C,0.400000*%
%ADD16C,0.000000*%
%ADD17O,1.800000X1.400000*%
%ADD18C,2.000000*%
%ADD19C,2.700000*%
%ADD20C,5.000000*%
%ADD21R,0.800000X2.000000*%
%ADD22R,2.000000X0.800000*%
%ADD23FreePoly0,180.000000*%
%ADD24R,1.520000X1.520000*%
%ADD25C,1.520000*%
%ADD26C,2.050000*%
%ADD27C,2.250000*%
G04 APERTURE END LIST*
D10*
X107825000Y-74050000D02*
X157825000Y-74050000D01*
X157825000Y-124050000D01*
X107825000Y-124050000D01*
X107825000Y-74050000D01*
X100325000Y-66550000D02*
X165325000Y-66550000D01*
X165325000Y-131550000D01*
X100325000Y-131550000D01*
X100325000Y-66550000D01*
D11*
X126991905Y-57372219D02*
X126991905Y-56372219D01*
X126991905Y-56372219D02*
X127372857Y-56372219D01*
X127372857Y-56372219D02*
X127468095Y-56419838D01*
X127468095Y-56419838D02*
X127515714Y-56467457D01*
X127515714Y-56467457D02*
X127563333Y-56562695D01*
X127563333Y-56562695D02*
X127563333Y-56705552D01*
X127563333Y-56705552D02*
X127515714Y-56800790D01*
X127515714Y-56800790D02*
X127468095Y-56848409D01*
X127468095Y-56848409D02*
X127372857Y-56896028D01*
X127372857Y-56896028D02*
X126991905Y-56896028D01*
X127991905Y-57372219D02*
X127991905Y-56372219D01*
X127991905Y-56372219D02*
X128372857Y-56372219D01*
X128372857Y-56372219D02*
X128468095Y-56419838D01*
X128468095Y-56419838D02*
X128515714Y-56467457D01*
X128515714Y-56467457D02*
X128563333Y-56562695D01*
X128563333Y-56562695D02*
X128563333Y-56705552D01*
X128563333Y-56705552D02*
X128515714Y-56800790D01*
X128515714Y-56800790D02*
X128468095Y-56848409D01*
X128468095Y-56848409D02*
X128372857Y-56896028D01*
X128372857Y-56896028D02*
X127991905Y-56896028D01*
X128944286Y-57324600D02*
X129087143Y-57372219D01*
X129087143Y-57372219D02*
X129325238Y-57372219D01*
X129325238Y-57372219D02*
X129420476Y-57324600D01*
X129420476Y-57324600D02*
X129468095Y-57276980D01*
X129468095Y-57276980D02*
X129515714Y-57181742D01*
X129515714Y-57181742D02*
X129515714Y-57086504D01*
X129515714Y-57086504D02*
X129468095Y-56991266D01*
X129468095Y-56991266D02*
X129420476Y-56943647D01*
X129420476Y-56943647D02*
X129325238Y-56896028D01*
X129325238Y-56896028D02*
X129134762Y-56848409D01*
X129134762Y-56848409D02*
X129039524Y-56800790D01*
X129039524Y-56800790D02*
X128991905Y-56753171D01*
X128991905Y-56753171D02*
X128944286Y-56657933D01*
X128944286Y-56657933D02*
X128944286Y-56562695D01*
X128944286Y-56562695D02*
X128991905Y-56467457D01*
X128991905Y-56467457D02*
X129039524Y-56419838D01*
X129039524Y-56419838D02*
X129134762Y-56372219D01*
X129134762Y-56372219D02*
X129372857Y-56372219D01*
X129372857Y-56372219D02*
X129515714Y-56419838D01*
X114741101Y-144231980D02*
X114693482Y-144279600D01*
X114693482Y-144279600D02*
X114550625Y-144327219D01*
X114550625Y-144327219D02*
X114455387Y-144327219D01*
X114455387Y-144327219D02*
X114312530Y-144279600D01*
X114312530Y-144279600D02*
X114217292Y-144184361D01*
X114217292Y-144184361D02*
X114169673Y-144089123D01*
X114169673Y-144089123D02*
X114122054Y-143898647D01*
X114122054Y-143898647D02*
X114122054Y-143755790D01*
X114122054Y-143755790D02*
X114169673Y-143565314D01*
X114169673Y-143565314D02*
X114217292Y-143470076D01*
X114217292Y-143470076D02*
X114312530Y-143374838D01*
X114312530Y-143374838D02*
X114455387Y-143327219D01*
X114455387Y-143327219D02*
X114550625Y-143327219D01*
X114550625Y-143327219D02*
X114693482Y-143374838D01*
X114693482Y-143374838D02*
X114741101Y-143422457D01*
X115122054Y-144041504D02*
X115598244Y-144041504D01*
X115026816Y-144327219D02*
X115360149Y-143327219D01*
X115360149Y-143327219D02*
X115693482Y-144327219D01*
X116026816Y-144327219D02*
X116026816Y-143327219D01*
X116026816Y-143327219D02*
X116264911Y-143327219D01*
X116264911Y-143327219D02*
X116407768Y-143374838D01*
X116407768Y-143374838D02*
X116503006Y-143470076D01*
X116503006Y-143470076D02*
X116550625Y-143565314D01*
X116550625Y-143565314D02*
X116598244Y-143755790D01*
X116598244Y-143755790D02*
X116598244Y-143898647D01*
X116598244Y-143898647D02*
X116550625Y-144089123D01*
X116550625Y-144089123D02*
X116503006Y-144184361D01*
X116503006Y-144184361D02*
X116407768Y-144279600D01*
X116407768Y-144279600D02*
X116264911Y-144327219D01*
X116264911Y-144327219D02*
X116026816Y-144327219D01*
X117026816Y-143803409D02*
X117360149Y-143803409D01*
X117503006Y-144327219D02*
X117026816Y-144327219D01*
X117026816Y-144327219D02*
X117026816Y-143327219D01*
X117026816Y-143327219D02*
X117503006Y-143327219D01*
X117931578Y-144327219D02*
X117931578Y-143327219D01*
X117931578Y-143327219D02*
X118503006Y-144327219D01*
X118503006Y-144327219D02*
X118503006Y-143327219D01*
X119550625Y-144231980D02*
X119503006Y-144279600D01*
X119503006Y-144279600D02*
X119360149Y-144327219D01*
X119360149Y-144327219D02*
X119264911Y-144327219D01*
X119264911Y-144327219D02*
X119122054Y-144279600D01*
X119122054Y-144279600D02*
X119026816Y-144184361D01*
X119026816Y-144184361D02*
X118979197Y-144089123D01*
X118979197Y-144089123D02*
X118931578Y-143898647D01*
X118931578Y-143898647D02*
X118931578Y-143755790D01*
X118931578Y-143755790D02*
X118979197Y-143565314D01*
X118979197Y-143565314D02*
X119026816Y-143470076D01*
X119026816Y-143470076D02*
X119122054Y-143374838D01*
X119122054Y-143374838D02*
X119264911Y-143327219D01*
X119264911Y-143327219D02*
X119360149Y-143327219D01*
X119360149Y-143327219D02*
X119503006Y-143374838D01*
X119503006Y-143374838D02*
X119550625Y-143422457D01*
X119979197Y-143803409D02*
X120312530Y-143803409D01*
X120455387Y-144327219D02*
X119979197Y-144327219D01*
X119979197Y-144327219D02*
X119979197Y-143327219D01*
X119979197Y-143327219D02*
X120455387Y-143327219D01*
X122217292Y-144231980D02*
X122169673Y-144279600D01*
X122169673Y-144279600D02*
X122026816Y-144327219D01*
X122026816Y-144327219D02*
X121931578Y-144327219D01*
X121931578Y-144327219D02*
X121788721Y-144279600D01*
X121788721Y-144279600D02*
X121693483Y-144184361D01*
X121693483Y-144184361D02*
X121645864Y-144089123D01*
X121645864Y-144089123D02*
X121598245Y-143898647D01*
X121598245Y-143898647D02*
X121598245Y-143755790D01*
X121598245Y-143755790D02*
X121645864Y-143565314D01*
X121645864Y-143565314D02*
X121693483Y-143470076D01*
X121693483Y-143470076D02*
X121788721Y-143374838D01*
X121788721Y-143374838D02*
X121931578Y-143327219D01*
X121931578Y-143327219D02*
X122026816Y-143327219D01*
X122026816Y-143327219D02*
X122169673Y-143374838D01*
X122169673Y-143374838D02*
X122217292Y-143422457D01*
X122550626Y-143660552D02*
X122788721Y-144327219D01*
X123026816Y-143660552D02*
X122788721Y-144327219D01*
X122788721Y-144327219D02*
X122693483Y-144565314D01*
X122693483Y-144565314D02*
X122645864Y-144612933D01*
X122645864Y-144612933D02*
X122550626Y-144660552D01*
X123836340Y-143660552D02*
X123836340Y-144470076D01*
X123836340Y-144470076D02*
X123788721Y-144565314D01*
X123788721Y-144565314D02*
X123741102Y-144612933D01*
X123741102Y-144612933D02*
X123645864Y-144660552D01*
X123645864Y-144660552D02*
X123503007Y-144660552D01*
X123503007Y-144660552D02*
X123407769Y-144612933D01*
X123836340Y-144279600D02*
X123741102Y-144327219D01*
X123741102Y-144327219D02*
X123550626Y-144327219D01*
X123550626Y-144327219D02*
X123455388Y-144279600D01*
X123455388Y-144279600D02*
X123407769Y-144231980D01*
X123407769Y-144231980D02*
X123360150Y-144136742D01*
X123360150Y-144136742D02*
X123360150Y-143851028D01*
X123360150Y-143851028D02*
X123407769Y-143755790D01*
X123407769Y-143755790D02*
X123455388Y-143708171D01*
X123455388Y-143708171D02*
X123550626Y-143660552D01*
X123550626Y-143660552D02*
X123741102Y-143660552D01*
X123741102Y-143660552D02*
X123836340Y-143708171D01*
X124312531Y-143660552D02*
X124312531Y-144327219D01*
X124312531Y-143755790D02*
X124360150Y-143708171D01*
X124360150Y-143708171D02*
X124455388Y-143660552D01*
X124455388Y-143660552D02*
X124598245Y-143660552D01*
X124598245Y-143660552D02*
X124693483Y-143708171D01*
X124693483Y-143708171D02*
X124741102Y-143803409D01*
X124741102Y-143803409D02*
X124741102Y-144327219D01*
X125598245Y-144279600D02*
X125503007Y-144327219D01*
X125503007Y-144327219D02*
X125312531Y-144327219D01*
X125312531Y-144327219D02*
X125217293Y-144279600D01*
X125217293Y-144279600D02*
X125169674Y-144184361D01*
X125169674Y-144184361D02*
X125169674Y-143803409D01*
X125169674Y-143803409D02*
X125217293Y-143708171D01*
X125217293Y-143708171D02*
X125312531Y-143660552D01*
X125312531Y-143660552D02*
X125503007Y-143660552D01*
X125503007Y-143660552D02*
X125598245Y-143708171D01*
X125598245Y-143708171D02*
X125645864Y-143803409D01*
X125645864Y-143803409D02*
X125645864Y-143898647D01*
X125645864Y-143898647D02*
X125169674Y-143993885D01*
X125931579Y-143660552D02*
X126312531Y-143660552D01*
X126074436Y-143327219D02*
X126074436Y-144184361D01*
X126074436Y-144184361D02*
X126122055Y-144279600D01*
X126122055Y-144279600D02*
X126217293Y-144327219D01*
X126217293Y-144327219D02*
X126312531Y-144327219D01*
X127979198Y-144231980D02*
X127931579Y-144279600D01*
X127931579Y-144279600D02*
X127788722Y-144327219D01*
X127788722Y-144327219D02*
X127693484Y-144327219D01*
X127693484Y-144327219D02*
X127550627Y-144279600D01*
X127550627Y-144279600D02*
X127455389Y-144184361D01*
X127455389Y-144184361D02*
X127407770Y-144089123D01*
X127407770Y-144089123D02*
X127360151Y-143898647D01*
X127360151Y-143898647D02*
X127360151Y-143755790D01*
X127360151Y-143755790D02*
X127407770Y-143565314D01*
X127407770Y-143565314D02*
X127455389Y-143470076D01*
X127455389Y-143470076D02*
X127550627Y-143374838D01*
X127550627Y-143374838D02*
X127693484Y-143327219D01*
X127693484Y-143327219D02*
X127788722Y-143327219D01*
X127788722Y-143327219D02*
X127931579Y-143374838D01*
X127931579Y-143374838D02*
X127979198Y-143422457D01*
X128550627Y-144327219D02*
X128455389Y-144279600D01*
X128455389Y-144279600D02*
X128407770Y-144231980D01*
X128407770Y-144231980D02*
X128360151Y-144136742D01*
X128360151Y-144136742D02*
X128360151Y-143851028D01*
X128360151Y-143851028D02*
X128407770Y-143755790D01*
X128407770Y-143755790D02*
X128455389Y-143708171D01*
X128455389Y-143708171D02*
X128550627Y-143660552D01*
X128550627Y-143660552D02*
X128693484Y-143660552D01*
X128693484Y-143660552D02*
X128788722Y-143708171D01*
X128788722Y-143708171D02*
X128836341Y-143755790D01*
X128836341Y-143755790D02*
X128883960Y-143851028D01*
X128883960Y-143851028D02*
X128883960Y-144136742D01*
X128883960Y-144136742D02*
X128836341Y-144231980D01*
X128836341Y-144231980D02*
X128788722Y-144279600D01*
X128788722Y-144279600D02*
X128693484Y-144327219D01*
X128693484Y-144327219D02*
X128550627Y-144327219D01*
X129264913Y-144279600D02*
X129360151Y-144327219D01*
X129360151Y-144327219D02*
X129550627Y-144327219D01*
X129550627Y-144327219D02*
X129645865Y-144279600D01*
X129645865Y-144279600D02*
X129693484Y-144184361D01*
X129693484Y-144184361D02*
X129693484Y-144136742D01*
X129693484Y-144136742D02*
X129645865Y-144041504D01*
X129645865Y-144041504D02*
X129550627Y-143993885D01*
X129550627Y-143993885D02*
X129407770Y-143993885D01*
X129407770Y-143993885D02*
X129312532Y-143946266D01*
X129312532Y-143946266D02*
X129264913Y-143851028D01*
X129264913Y-143851028D02*
X129264913Y-143803409D01*
X129264913Y-143803409D02*
X129312532Y-143708171D01*
X129312532Y-143708171D02*
X129407770Y-143660552D01*
X129407770Y-143660552D02*
X129550627Y-143660552D01*
X129550627Y-143660552D02*
X129645865Y-143708171D01*
X130122056Y-144327219D02*
X130122056Y-143660552D01*
X130122056Y-143755790D02*
X130169675Y-143708171D01*
X130169675Y-143708171D02*
X130264913Y-143660552D01*
X130264913Y-143660552D02*
X130407770Y-143660552D01*
X130407770Y-143660552D02*
X130503008Y-143708171D01*
X130503008Y-143708171D02*
X130550627Y-143803409D01*
X130550627Y-143803409D02*
X130550627Y-144327219D01*
X130550627Y-143803409D02*
X130598246Y-143708171D01*
X130598246Y-143708171D02*
X130693484Y-143660552D01*
X130693484Y-143660552D02*
X130836341Y-143660552D01*
X130836341Y-143660552D02*
X130931580Y-143708171D01*
X130931580Y-143708171D02*
X130979199Y-143803409D01*
X130979199Y-143803409D02*
X130979199Y-144327219D01*
X131455389Y-144327219D02*
X131455389Y-143660552D01*
X131455389Y-143327219D02*
X131407770Y-143374838D01*
X131407770Y-143374838D02*
X131455389Y-143422457D01*
X131455389Y-143422457D02*
X131503008Y-143374838D01*
X131503008Y-143374838D02*
X131455389Y-143327219D01*
X131455389Y-143327219D02*
X131455389Y-143422457D01*
X132360150Y-144279600D02*
X132264912Y-144327219D01*
X132264912Y-144327219D02*
X132074436Y-144327219D01*
X132074436Y-144327219D02*
X131979198Y-144279600D01*
X131979198Y-144279600D02*
X131931579Y-144231980D01*
X131931579Y-144231980D02*
X131883960Y-144136742D01*
X131883960Y-144136742D02*
X131883960Y-143851028D01*
X131883960Y-143851028D02*
X131931579Y-143755790D01*
X131931579Y-143755790D02*
X131979198Y-143708171D01*
X131979198Y-143708171D02*
X132074436Y-143660552D01*
X132074436Y-143660552D02*
X132264912Y-143660552D01*
X132264912Y-143660552D02*
X132360150Y-143708171D01*
X133455389Y-143327219D02*
X133693484Y-144327219D01*
X133693484Y-144327219D02*
X133883960Y-143612933D01*
X133883960Y-143612933D02*
X134074436Y-144327219D01*
X134074436Y-144327219D02*
X134312532Y-143327219D01*
X135122055Y-144327219D02*
X135122055Y-143803409D01*
X135122055Y-143803409D02*
X135074436Y-143708171D01*
X135074436Y-143708171D02*
X134979198Y-143660552D01*
X134979198Y-143660552D02*
X134788722Y-143660552D01*
X134788722Y-143660552D02*
X134693484Y-143708171D01*
X135122055Y-144279600D02*
X135026817Y-144327219D01*
X135026817Y-144327219D02*
X134788722Y-144327219D01*
X134788722Y-144327219D02*
X134693484Y-144279600D01*
X134693484Y-144279600D02*
X134645865Y-144184361D01*
X134645865Y-144184361D02*
X134645865Y-144089123D01*
X134645865Y-144089123D02*
X134693484Y-143993885D01*
X134693484Y-143993885D02*
X134788722Y-143946266D01*
X134788722Y-143946266D02*
X135026817Y-143946266D01*
X135026817Y-143946266D02*
X135122055Y-143898647D01*
X135455389Y-143660552D02*
X135836341Y-143660552D01*
X135598246Y-143327219D02*
X135598246Y-144184361D01*
X135598246Y-144184361D02*
X135645865Y-144279600D01*
X135645865Y-144279600D02*
X135741103Y-144327219D01*
X135741103Y-144327219D02*
X135836341Y-144327219D01*
X136598246Y-144279600D02*
X136503008Y-144327219D01*
X136503008Y-144327219D02*
X136312532Y-144327219D01*
X136312532Y-144327219D02*
X136217294Y-144279600D01*
X136217294Y-144279600D02*
X136169675Y-144231980D01*
X136169675Y-144231980D02*
X136122056Y-144136742D01*
X136122056Y-144136742D02*
X136122056Y-143851028D01*
X136122056Y-143851028D02*
X136169675Y-143755790D01*
X136169675Y-143755790D02*
X136217294Y-143708171D01*
X136217294Y-143708171D02*
X136312532Y-143660552D01*
X136312532Y-143660552D02*
X136503008Y-143660552D01*
X136503008Y-143660552D02*
X136598246Y-143708171D01*
X137026818Y-144327219D02*
X137026818Y-143327219D01*
X137455389Y-144327219D02*
X137455389Y-143803409D01*
X137455389Y-143803409D02*
X137407770Y-143708171D01*
X137407770Y-143708171D02*
X137312532Y-143660552D01*
X137312532Y-143660552D02*
X137169675Y-143660552D01*
X137169675Y-143660552D02*
X137074437Y-143708171D01*
X137074437Y-143708171D02*
X137026818Y-143755790D01*
X138693485Y-144327219D02*
X138693485Y-143327219D01*
X138693485Y-143708171D02*
X138788723Y-143660552D01*
X138788723Y-143660552D02*
X138979199Y-143660552D01*
X138979199Y-143660552D02*
X139074437Y-143708171D01*
X139074437Y-143708171D02*
X139122056Y-143755790D01*
X139122056Y-143755790D02*
X139169675Y-143851028D01*
X139169675Y-143851028D02*
X139169675Y-144136742D01*
X139169675Y-144136742D02*
X139122056Y-144231980D01*
X139122056Y-144231980D02*
X139074437Y-144279600D01*
X139074437Y-144279600D02*
X138979199Y-144327219D01*
X138979199Y-144327219D02*
X138788723Y-144327219D01*
X138788723Y-144327219D02*
X138693485Y-144279600D01*
X139503009Y-143660552D02*
X139741104Y-144327219D01*
X139979199Y-143660552D02*
X139741104Y-144327219D01*
X139741104Y-144327219D02*
X139645866Y-144565314D01*
X139645866Y-144565314D02*
X139598247Y-144612933D01*
X139598247Y-144612933D02*
X139503009Y-144660552D01*
X141122057Y-144327219D02*
X141122057Y-143327219D01*
X141122057Y-143327219D02*
X141503009Y-143327219D01*
X141503009Y-143327219D02*
X141598247Y-143374838D01*
X141598247Y-143374838D02*
X141645866Y-143422457D01*
X141645866Y-143422457D02*
X141693485Y-143517695D01*
X141693485Y-143517695D02*
X141693485Y-143660552D01*
X141693485Y-143660552D02*
X141645866Y-143755790D01*
X141645866Y-143755790D02*
X141598247Y-143803409D01*
X141598247Y-143803409D02*
X141503009Y-143851028D01*
X141503009Y-143851028D02*
X141122057Y-143851028D01*
X142122057Y-144327219D02*
X142122057Y-143660552D01*
X142122057Y-143851028D02*
X142169676Y-143755790D01*
X142169676Y-143755790D02*
X142217295Y-143708171D01*
X142217295Y-143708171D02*
X142312533Y-143660552D01*
X142312533Y-143660552D02*
X142407771Y-143660552D01*
X143169676Y-144327219D02*
X143169676Y-143803409D01*
X143169676Y-143803409D02*
X143122057Y-143708171D01*
X143122057Y-143708171D02*
X143026819Y-143660552D01*
X143026819Y-143660552D02*
X142836343Y-143660552D01*
X142836343Y-143660552D02*
X142741105Y-143708171D01*
X143169676Y-144279600D02*
X143074438Y-144327219D01*
X143074438Y-144327219D02*
X142836343Y-144327219D01*
X142836343Y-144327219D02*
X142741105Y-144279600D01*
X142741105Y-144279600D02*
X142693486Y-144184361D01*
X142693486Y-144184361D02*
X142693486Y-144089123D01*
X142693486Y-144089123D02*
X142741105Y-143993885D01*
X142741105Y-143993885D02*
X142836343Y-143946266D01*
X142836343Y-143946266D02*
X143074438Y-143946266D01*
X143074438Y-143946266D02*
X143169676Y-143898647D01*
X144074438Y-143660552D02*
X144074438Y-144470076D01*
X144074438Y-144470076D02*
X144026819Y-144565314D01*
X144026819Y-144565314D02*
X143979200Y-144612933D01*
X143979200Y-144612933D02*
X143883962Y-144660552D01*
X143883962Y-144660552D02*
X143741105Y-144660552D01*
X143741105Y-144660552D02*
X143645867Y-144612933D01*
X144074438Y-144279600D02*
X143979200Y-144327219D01*
X143979200Y-144327219D02*
X143788724Y-144327219D01*
X143788724Y-144327219D02*
X143693486Y-144279600D01*
X143693486Y-144279600D02*
X143645867Y-144231980D01*
X143645867Y-144231980D02*
X143598248Y-144136742D01*
X143598248Y-144136742D02*
X143598248Y-143851028D01*
X143598248Y-143851028D02*
X143645867Y-143755790D01*
X143645867Y-143755790D02*
X143693486Y-143708171D01*
X143693486Y-143708171D02*
X143788724Y-143660552D01*
X143788724Y-143660552D02*
X143979200Y-143660552D01*
X143979200Y-143660552D02*
X144074438Y-143708171D01*
X144979200Y-143660552D02*
X144979200Y-144327219D01*
X144550629Y-143660552D02*
X144550629Y-144184361D01*
X144550629Y-144184361D02*
X144598248Y-144279600D01*
X144598248Y-144279600D02*
X144693486Y-144327219D01*
X144693486Y-144327219D02*
X144836343Y-144327219D01*
X144836343Y-144327219D02*
X144931581Y-144279600D01*
X144931581Y-144279600D02*
X144979200Y-144231980D01*
X145455391Y-143660552D02*
X145455391Y-144327219D01*
X145455391Y-143755790D02*
X145503010Y-143708171D01*
X145503010Y-143708171D02*
X145598248Y-143660552D01*
X145598248Y-143660552D02*
X145741105Y-143660552D01*
X145741105Y-143660552D02*
X145836343Y-143708171D01*
X145836343Y-143708171D02*
X145883962Y-143803409D01*
X145883962Y-143803409D02*
X145883962Y-144327219D01*
X147455391Y-143803409D02*
X147598248Y-143851028D01*
X147598248Y-143851028D02*
X147645867Y-143898647D01*
X147645867Y-143898647D02*
X147693486Y-143993885D01*
X147693486Y-143993885D02*
X147693486Y-144136742D01*
X147693486Y-144136742D02*
X147645867Y-144231980D01*
X147645867Y-144231980D02*
X147598248Y-144279600D01*
X147598248Y-144279600D02*
X147503010Y-144327219D01*
X147503010Y-144327219D02*
X147122058Y-144327219D01*
X147122058Y-144327219D02*
X147122058Y-143327219D01*
X147122058Y-143327219D02*
X147455391Y-143327219D01*
X147455391Y-143327219D02*
X147550629Y-143374838D01*
X147550629Y-143374838D02*
X147598248Y-143422457D01*
X147598248Y-143422457D02*
X147645867Y-143517695D01*
X147645867Y-143517695D02*
X147645867Y-143612933D01*
X147645867Y-143612933D02*
X147598248Y-143708171D01*
X147598248Y-143708171D02*
X147550629Y-143755790D01*
X147550629Y-143755790D02*
X147455391Y-143803409D01*
X147455391Y-143803409D02*
X147122058Y-143803409D01*
X148503010Y-144279600D02*
X148407772Y-144327219D01*
X148407772Y-144327219D02*
X148217296Y-144327219D01*
X148217296Y-144327219D02*
X148122058Y-144279600D01*
X148122058Y-144279600D02*
X148074439Y-144184361D01*
X148074439Y-144184361D02*
X148074439Y-143803409D01*
X148074439Y-143803409D02*
X148122058Y-143708171D01*
X148122058Y-143708171D02*
X148217296Y-143660552D01*
X148217296Y-143660552D02*
X148407772Y-143660552D01*
X148407772Y-143660552D02*
X148503010Y-143708171D01*
X148503010Y-143708171D02*
X148550629Y-143803409D01*
X148550629Y-143803409D02*
X148550629Y-143898647D01*
X148550629Y-143898647D02*
X148074439Y-143993885D01*
X148836344Y-143660552D02*
X149217296Y-143660552D01*
X148979201Y-143327219D02*
X148979201Y-144184361D01*
X148979201Y-144184361D02*
X149026820Y-144279600D01*
X149026820Y-144279600D02*
X149122058Y-144327219D01*
X149122058Y-144327219D02*
X149217296Y-144327219D01*
X149550630Y-144327219D02*
X149550630Y-143327219D01*
X149979201Y-144327219D02*
X149979201Y-143803409D01*
X149979201Y-143803409D02*
X149931582Y-143708171D01*
X149931582Y-143708171D02*
X149836344Y-143660552D01*
X149836344Y-143660552D02*
X149693487Y-143660552D01*
X149693487Y-143660552D02*
X149598249Y-143708171D01*
X149598249Y-143708171D02*
X149550630Y-143755790D01*
X150883963Y-144327219D02*
X150883963Y-143803409D01*
X150883963Y-143803409D02*
X150836344Y-143708171D01*
X150836344Y-143708171D02*
X150741106Y-143660552D01*
X150741106Y-143660552D02*
X150550630Y-143660552D01*
X150550630Y-143660552D02*
X150455392Y-143708171D01*
X150883963Y-144279600D02*
X150788725Y-144327219D01*
X150788725Y-144327219D02*
X150550630Y-144327219D01*
X150550630Y-144327219D02*
X150455392Y-144279600D01*
X150455392Y-144279600D02*
X150407773Y-144184361D01*
X150407773Y-144184361D02*
X150407773Y-144089123D01*
X150407773Y-144089123D02*
X150455392Y-143993885D01*
X150455392Y-143993885D02*
X150550630Y-143946266D01*
X150550630Y-143946266D02*
X150788725Y-143946266D01*
X150788725Y-143946266D02*
X150883963Y-143898647D01*
X151360154Y-143660552D02*
X151360154Y-144660552D01*
X151360154Y-143708171D02*
X151455392Y-143660552D01*
X151455392Y-143660552D02*
X151645868Y-143660552D01*
X151645868Y-143660552D02*
X151741106Y-143708171D01*
X151741106Y-143708171D02*
X151788725Y-143755790D01*
X151788725Y-143755790D02*
X151836344Y-143851028D01*
X151836344Y-143851028D02*
X151836344Y-144136742D01*
X151836344Y-144136742D02*
X151788725Y-144231980D01*
X151788725Y-144231980D02*
X151741106Y-144279600D01*
X151741106Y-144279600D02*
X151645868Y-144327219D01*
X151645868Y-144327219D02*
X151455392Y-144327219D01*
X151455392Y-144327219D02*
X151360154Y-144279600D01*
X152693487Y-143660552D02*
X152693487Y-144327219D01*
X152264916Y-143660552D02*
X152264916Y-144184361D01*
X152264916Y-144184361D02*
X152312535Y-144279600D01*
X152312535Y-144279600D02*
X152407773Y-144327219D01*
X152407773Y-144327219D02*
X152550630Y-144327219D01*
X152550630Y-144327219D02*
X152645868Y-144279600D01*
X152645868Y-144279600D02*
X152693487Y-144231980D01*
X153598249Y-144327219D02*
X153598249Y-143327219D01*
X153598249Y-144279600D02*
X153503011Y-144327219D01*
X153503011Y-144327219D02*
X153312535Y-144327219D01*
X153312535Y-144327219D02*
X153217297Y-144279600D01*
X153217297Y-144279600D02*
X153169678Y-144231980D01*
X153169678Y-144231980D02*
X153122059Y-144136742D01*
X153122059Y-144136742D02*
X153122059Y-143851028D01*
X153122059Y-143851028D02*
X153169678Y-143755790D01*
X153169678Y-143755790D02*
X153217297Y-143708171D01*
X153217297Y-143708171D02*
X153312535Y-143660552D01*
X153312535Y-143660552D02*
X153503011Y-143660552D01*
X153503011Y-143660552D02*
X153598249Y-143708171D01*
X154074440Y-144327219D02*
X154074440Y-143660552D01*
X154074440Y-143327219D02*
X154026821Y-143374838D01*
X154026821Y-143374838D02*
X154074440Y-143422457D01*
X154074440Y-143422457D02*
X154122059Y-143374838D01*
X154122059Y-143374838D02*
X154074440Y-143327219D01*
X154074440Y-143327219D02*
X154074440Y-143422457D01*
X132322054Y-61031504D02*
X132798244Y-61031504D01*
X132226816Y-61317219D02*
X132560149Y-60317219D01*
X132560149Y-60317219D02*
X132893482Y-61317219D01*
X133226816Y-61317219D02*
X133226816Y-60650552D01*
X133226816Y-60745790D02*
X133274435Y-60698171D01*
X133274435Y-60698171D02*
X133369673Y-60650552D01*
X133369673Y-60650552D02*
X133512530Y-60650552D01*
X133512530Y-60650552D02*
X133607768Y-60698171D01*
X133607768Y-60698171D02*
X133655387Y-60793409D01*
X133655387Y-60793409D02*
X133655387Y-61317219D01*
X133655387Y-60793409D02*
X133703006Y-60698171D01*
X133703006Y-60698171D02*
X133798244Y-60650552D01*
X133798244Y-60650552D02*
X133941101Y-60650552D01*
X133941101Y-60650552D02*
X134036340Y-60698171D01*
X134036340Y-60698171D02*
X134083959Y-60793409D01*
X134083959Y-60793409D02*
X134083959Y-61317219D01*
X134560149Y-60650552D02*
X134560149Y-61650552D01*
X134560149Y-60698171D02*
X134655387Y-60650552D01*
X134655387Y-60650552D02*
X134845863Y-60650552D01*
X134845863Y-60650552D02*
X134941101Y-60698171D01*
X134941101Y-60698171D02*
X134988720Y-60745790D01*
X134988720Y-60745790D02*
X135036339Y-60841028D01*
X135036339Y-60841028D02*
X135036339Y-61126742D01*
X135036339Y-61126742D02*
X134988720Y-61221980D01*
X134988720Y-61221980D02*
X134941101Y-61269600D01*
X134941101Y-61269600D02*
X134845863Y-61317219D01*
X134845863Y-61317219D02*
X134655387Y-61317219D01*
X134655387Y-61317219D02*
X134560149Y-61269600D01*
X136179197Y-61269600D02*
X136322054Y-61317219D01*
X136322054Y-61317219D02*
X136560149Y-61317219D01*
X136560149Y-61317219D02*
X136655387Y-61269600D01*
X136655387Y-61269600D02*
X136703006Y-61221980D01*
X136703006Y-61221980D02*
X136750625Y-61126742D01*
X136750625Y-61126742D02*
X136750625Y-61031504D01*
X136750625Y-61031504D02*
X136703006Y-60936266D01*
X136703006Y-60936266D02*
X136655387Y-60888647D01*
X136655387Y-60888647D02*
X136560149Y-60841028D01*
X136560149Y-60841028D02*
X136369673Y-60793409D01*
X136369673Y-60793409D02*
X136274435Y-60745790D01*
X136274435Y-60745790D02*
X136226816Y-60698171D01*
X136226816Y-60698171D02*
X136179197Y-60602933D01*
X136179197Y-60602933D02*
X136179197Y-60507695D01*
X136179197Y-60507695D02*
X136226816Y-60412457D01*
X136226816Y-60412457D02*
X136274435Y-60364838D01*
X136274435Y-60364838D02*
X136369673Y-60317219D01*
X136369673Y-60317219D02*
X136607768Y-60317219D01*
X136607768Y-60317219D02*
X136750625Y-60364838D01*
X137179197Y-61317219D02*
X137179197Y-60650552D01*
X137179197Y-60317219D02*
X137131578Y-60364838D01*
X137131578Y-60364838D02*
X137179197Y-60412457D01*
X137179197Y-60412457D02*
X137226816Y-60364838D01*
X137226816Y-60364838D02*
X137179197Y-60317219D01*
X137179197Y-60317219D02*
X137179197Y-60412457D01*
X138083958Y-60650552D02*
X138083958Y-61460076D01*
X138083958Y-61460076D02*
X138036339Y-61555314D01*
X138036339Y-61555314D02*
X137988720Y-61602933D01*
X137988720Y-61602933D02*
X137893482Y-61650552D01*
X137893482Y-61650552D02*
X137750625Y-61650552D01*
X137750625Y-61650552D02*
X137655387Y-61602933D01*
X138083958Y-61269600D02*
X137988720Y-61317219D01*
X137988720Y-61317219D02*
X137798244Y-61317219D01*
X137798244Y-61317219D02*
X137703006Y-61269600D01*
X137703006Y-61269600D02*
X137655387Y-61221980D01*
X137655387Y-61221980D02*
X137607768Y-61126742D01*
X137607768Y-61126742D02*
X137607768Y-60841028D01*
X137607768Y-60841028D02*
X137655387Y-60745790D01*
X137655387Y-60745790D02*
X137703006Y-60698171D01*
X137703006Y-60698171D02*
X137798244Y-60650552D01*
X137798244Y-60650552D02*
X137988720Y-60650552D01*
X137988720Y-60650552D02*
X138083958Y-60698171D01*
X138560149Y-60650552D02*
X138560149Y-61317219D01*
X138560149Y-60745790D02*
X138607768Y-60698171D01*
X138607768Y-60698171D02*
X138703006Y-60650552D01*
X138703006Y-60650552D02*
X138845863Y-60650552D01*
X138845863Y-60650552D02*
X138941101Y-60698171D01*
X138941101Y-60698171D02*
X138988720Y-60793409D01*
X138988720Y-60793409D02*
X138988720Y-61317219D01*
X139893482Y-61317219D02*
X139893482Y-60793409D01*
X139893482Y-60793409D02*
X139845863Y-60698171D01*
X139845863Y-60698171D02*
X139750625Y-60650552D01*
X139750625Y-60650552D02*
X139560149Y-60650552D01*
X139560149Y-60650552D02*
X139464911Y-60698171D01*
X139893482Y-61269600D02*
X139798244Y-61317219D01*
X139798244Y-61317219D02*
X139560149Y-61317219D01*
X139560149Y-61317219D02*
X139464911Y-61269600D01*
X139464911Y-61269600D02*
X139417292Y-61174361D01*
X139417292Y-61174361D02*
X139417292Y-61079123D01*
X139417292Y-61079123D02*
X139464911Y-60983885D01*
X139464911Y-60983885D02*
X139560149Y-60936266D01*
X139560149Y-60936266D02*
X139798244Y-60936266D01*
X139798244Y-60936266D02*
X139893482Y-60888647D01*
X140512530Y-61317219D02*
X140417292Y-61269600D01*
X140417292Y-61269600D02*
X140369673Y-61174361D01*
X140369673Y-61174361D02*
X140369673Y-60317219D01*
X170009523Y-94642219D02*
X169533333Y-94642219D01*
X169533333Y-94642219D02*
X169485714Y-95118409D01*
X169485714Y-95118409D02*
X169533333Y-95070790D01*
X169533333Y-95070790D02*
X169628571Y-95023171D01*
X169628571Y-95023171D02*
X169866666Y-95023171D01*
X169866666Y-95023171D02*
X169961904Y-95070790D01*
X169961904Y-95070790D02*
X170009523Y-95118409D01*
X170009523Y-95118409D02*
X170057142Y-95213647D01*
X170057142Y-95213647D02*
X170057142Y-95451742D01*
X170057142Y-95451742D02*
X170009523Y-95546980D01*
X170009523Y-95546980D02*
X169961904Y-95594600D01*
X169961904Y-95594600D02*
X169866666Y-95642219D01*
X169866666Y-95642219D02*
X169628571Y-95642219D01*
X169628571Y-95642219D02*
X169533333Y-95594600D01*
X169533333Y-95594600D02*
X169485714Y-95546980D01*
X170342857Y-94642219D02*
X170676190Y-95642219D01*
X170676190Y-95642219D02*
X171009523Y-94642219D01*
X95663095Y-101327219D02*
X96234523Y-101327219D01*
X95948809Y-102327219D02*
X95948809Y-101327219D01*
X96567857Y-102327219D02*
X96567857Y-101327219D01*
X96567857Y-101327219D02*
X96948809Y-101327219D01*
X96948809Y-101327219D02*
X97044047Y-101374838D01*
X97044047Y-101374838D02*
X97091666Y-101422457D01*
X97091666Y-101422457D02*
X97139285Y-101517695D01*
X97139285Y-101517695D02*
X97139285Y-101660552D01*
X97139285Y-101660552D02*
X97091666Y-101755790D01*
X97091666Y-101755790D02*
X97044047Y-101803409D01*
X97044047Y-101803409D02*
X96948809Y-101851028D01*
X96948809Y-101851028D02*
X96567857Y-101851028D01*
X98044047Y-101327219D02*
X97567857Y-101327219D01*
X97567857Y-101327219D02*
X97520238Y-101803409D01*
X97520238Y-101803409D02*
X97567857Y-101755790D01*
X97567857Y-101755790D02*
X97663095Y-101708171D01*
X97663095Y-101708171D02*
X97901190Y-101708171D01*
X97901190Y-101708171D02*
X97996428Y-101755790D01*
X97996428Y-101755790D02*
X98044047Y-101803409D01*
X98044047Y-101803409D02*
X98091666Y-101898647D01*
X98091666Y-101898647D02*
X98091666Y-102136742D01*
X98091666Y-102136742D02*
X98044047Y-102231980D01*
X98044047Y-102231980D02*
X97996428Y-102279600D01*
X97996428Y-102279600D02*
X97901190Y-102327219D01*
X97901190Y-102327219D02*
X97663095Y-102327219D01*
X97663095Y-102327219D02*
X97567857Y-102279600D01*
X97567857Y-102279600D02*
X97520238Y-102231980D01*
X93996429Y-106662219D02*
X94329762Y-107662219D01*
X94329762Y-107662219D02*
X94663095Y-106662219D01*
X94996429Y-107281266D02*
X95758334Y-107281266D01*
X95377381Y-107662219D02*
X95377381Y-106900314D01*
X97329762Y-107138409D02*
X97472619Y-107186028D01*
X97472619Y-107186028D02*
X97520238Y-107233647D01*
X97520238Y-107233647D02*
X97567857Y-107328885D01*
X97567857Y-107328885D02*
X97567857Y-107471742D01*
X97567857Y-107471742D02*
X97520238Y-107566980D01*
X97520238Y-107566980D02*
X97472619Y-107614600D01*
X97472619Y-107614600D02*
X97377381Y-107662219D01*
X97377381Y-107662219D02*
X96996429Y-107662219D01*
X96996429Y-107662219D02*
X96996429Y-106662219D01*
X96996429Y-106662219D02*
X97329762Y-106662219D01*
X97329762Y-106662219D02*
X97425000Y-106709838D01*
X97425000Y-106709838D02*
X97472619Y-106757457D01*
X97472619Y-106757457D02*
X97520238Y-106852695D01*
X97520238Y-106852695D02*
X97520238Y-106947933D01*
X97520238Y-106947933D02*
X97472619Y-107043171D01*
X97472619Y-107043171D02*
X97425000Y-107090790D01*
X97425000Y-107090790D02*
X97329762Y-107138409D01*
X97329762Y-107138409D02*
X96996429Y-107138409D01*
X97996429Y-107662219D02*
X97996429Y-106995552D01*
X97996429Y-106662219D02*
X97948810Y-106709838D01*
X97948810Y-106709838D02*
X97996429Y-106757457D01*
X97996429Y-106757457D02*
X98044048Y-106709838D01*
X98044048Y-106709838D02*
X97996429Y-106662219D01*
X97996429Y-106662219D02*
X97996429Y-106757457D01*
X98901190Y-107662219D02*
X98901190Y-107138409D01*
X98901190Y-107138409D02*
X98853571Y-107043171D01*
X98853571Y-107043171D02*
X98758333Y-106995552D01*
X98758333Y-106995552D02*
X98567857Y-106995552D01*
X98567857Y-106995552D02*
X98472619Y-107043171D01*
X98901190Y-107614600D02*
X98805952Y-107662219D01*
X98805952Y-107662219D02*
X98567857Y-107662219D01*
X98567857Y-107662219D02*
X98472619Y-107614600D01*
X98472619Y-107614600D02*
X98425000Y-107519361D01*
X98425000Y-107519361D02*
X98425000Y-107424123D01*
X98425000Y-107424123D02*
X98472619Y-107328885D01*
X98472619Y-107328885D02*
X98567857Y-107281266D01*
X98567857Y-107281266D02*
X98805952Y-107281266D01*
X98805952Y-107281266D02*
X98901190Y-107233647D01*
X99329762Y-107614600D02*
X99425000Y-107662219D01*
X99425000Y-107662219D02*
X99615476Y-107662219D01*
X99615476Y-107662219D02*
X99710714Y-107614600D01*
X99710714Y-107614600D02*
X99758333Y-107519361D01*
X99758333Y-107519361D02*
X99758333Y-107471742D01*
X99758333Y-107471742D02*
X99710714Y-107376504D01*
X99710714Y-107376504D02*
X99615476Y-107328885D01*
X99615476Y-107328885D02*
X99472619Y-107328885D01*
X99472619Y-107328885D02*
X99377381Y-107281266D01*
X99377381Y-107281266D02*
X99329762Y-107186028D01*
X99329762Y-107186028D02*
X99329762Y-107138409D01*
X99329762Y-107138409D02*
X99377381Y-107043171D01*
X99377381Y-107043171D02*
X99472619Y-106995552D01*
X99472619Y-106995552D02*
X99615476Y-106995552D01*
X99615476Y-106995552D02*
X99710714Y-107043171D01*
D12*
X103148095Y-75864819D02*
X103148095Y-74864819D01*
X103148095Y-75341009D02*
X103719523Y-75341009D01*
X103719523Y-75864819D02*
X103719523Y-74864819D01*
X104719523Y-75864819D02*
X104148095Y-75864819D01*
X104433809Y-75864819D02*
X104433809Y-74864819D01*
X104433809Y-74864819D02*
X104338571Y-75007676D01*
X104338571Y-75007676D02*
X104243333Y-75102914D01*
X104243333Y-75102914D02*
X104148095Y-75150533D01*
X160688095Y-124594819D02*
X160688095Y-123594819D01*
X160688095Y-124071009D02*
X161259523Y-124071009D01*
X161259523Y-124594819D02*
X161259523Y-123594819D01*
X162164285Y-123928152D02*
X162164285Y-124594819D01*
X161926190Y-123547200D02*
X161688095Y-124261485D01*
X161688095Y-124261485D02*
X162307142Y-124261485D01*
D11*
X126938095Y-61572219D02*
X127509523Y-61572219D01*
X127223809Y-62572219D02*
X127223809Y-61572219D01*
X127842857Y-62572219D02*
X127842857Y-61572219D01*
X127842857Y-61572219D02*
X128223809Y-61572219D01*
X128223809Y-61572219D02*
X128319047Y-61619838D01*
X128319047Y-61619838D02*
X128366666Y-61667457D01*
X128366666Y-61667457D02*
X128414285Y-61762695D01*
X128414285Y-61762695D02*
X128414285Y-61905552D01*
X128414285Y-61905552D02*
X128366666Y-62000790D01*
X128366666Y-62000790D02*
X128319047Y-62048409D01*
X128319047Y-62048409D02*
X128223809Y-62096028D01*
X128223809Y-62096028D02*
X127842857Y-62096028D01*
X128795238Y-61667457D02*
X128842857Y-61619838D01*
X128842857Y-61619838D02*
X128938095Y-61572219D01*
X128938095Y-61572219D02*
X129176190Y-61572219D01*
X129176190Y-61572219D02*
X129271428Y-61619838D01*
X129271428Y-61619838D02*
X129319047Y-61667457D01*
X129319047Y-61667457D02*
X129366666Y-61762695D01*
X129366666Y-61762695D02*
X129366666Y-61857933D01*
X129366666Y-61857933D02*
X129319047Y-62000790D01*
X129319047Y-62000790D02*
X128747619Y-62572219D01*
X128747619Y-62572219D02*
X129366666Y-62572219D01*
X135513095Y-132902219D02*
X136084523Y-132902219D01*
X135798809Y-133902219D02*
X135798809Y-132902219D01*
X136417857Y-133902219D02*
X136417857Y-132902219D01*
X136417857Y-132902219D02*
X136798809Y-132902219D01*
X136798809Y-132902219D02*
X136894047Y-132949838D01*
X136894047Y-132949838D02*
X136941666Y-132997457D01*
X136941666Y-132997457D02*
X136989285Y-133092695D01*
X136989285Y-133092695D02*
X136989285Y-133235552D01*
X136989285Y-133235552D02*
X136941666Y-133330790D01*
X136941666Y-133330790D02*
X136894047Y-133378409D01*
X136894047Y-133378409D02*
X136798809Y-133426028D01*
X136798809Y-133426028D02*
X136417857Y-133426028D01*
X137560714Y-133330790D02*
X137465476Y-133283171D01*
X137465476Y-133283171D02*
X137417857Y-133235552D01*
X137417857Y-133235552D02*
X137370238Y-133140314D01*
X137370238Y-133140314D02*
X137370238Y-133092695D01*
X137370238Y-133092695D02*
X137417857Y-132997457D01*
X137417857Y-132997457D02*
X137465476Y-132949838D01*
X137465476Y-132949838D02*
X137560714Y-132902219D01*
X137560714Y-132902219D02*
X137751190Y-132902219D01*
X137751190Y-132902219D02*
X137846428Y-132949838D01*
X137846428Y-132949838D02*
X137894047Y-132997457D01*
X137894047Y-132997457D02*
X137941666Y-133092695D01*
X137941666Y-133092695D02*
X137941666Y-133140314D01*
X137941666Y-133140314D02*
X137894047Y-133235552D01*
X137894047Y-133235552D02*
X137846428Y-133283171D01*
X137846428Y-133283171D02*
X137751190Y-133330790D01*
X137751190Y-133330790D02*
X137560714Y-133330790D01*
X137560714Y-133330790D02*
X137465476Y-133378409D01*
X137465476Y-133378409D02*
X137417857Y-133426028D01*
X137417857Y-133426028D02*
X137370238Y-133521266D01*
X137370238Y-133521266D02*
X137370238Y-133711742D01*
X137370238Y-133711742D02*
X137417857Y-133806980D01*
X137417857Y-133806980D02*
X137465476Y-133854600D01*
X137465476Y-133854600D02*
X137560714Y-133902219D01*
X137560714Y-133902219D02*
X137751190Y-133902219D01*
X137751190Y-133902219D02*
X137846428Y-133854600D01*
X137846428Y-133854600D02*
X137894047Y-133806980D01*
X137894047Y-133806980D02*
X137941666Y-133711742D01*
X137941666Y-133711742D02*
X137941666Y-133521266D01*
X137941666Y-133521266D02*
X137894047Y-133426028D01*
X137894047Y-133426028D02*
X137846428Y-133378409D01*
X137846428Y-133378409D02*
X137751190Y-133330790D01*
X134179762Y-138822219D02*
X134513095Y-139822219D01*
X134513095Y-139822219D02*
X134846428Y-138822219D01*
X135179762Y-139441266D02*
X135941667Y-139441266D01*
X135560714Y-139822219D02*
X135560714Y-139060314D01*
X137370238Y-138822219D02*
X137560714Y-138822219D01*
X137560714Y-138822219D02*
X137655952Y-138869838D01*
X137655952Y-138869838D02*
X137751190Y-138965076D01*
X137751190Y-138965076D02*
X137798809Y-139155552D01*
X137798809Y-139155552D02*
X137798809Y-139488885D01*
X137798809Y-139488885D02*
X137751190Y-139679361D01*
X137751190Y-139679361D02*
X137655952Y-139774600D01*
X137655952Y-139774600D02*
X137560714Y-139822219D01*
X137560714Y-139822219D02*
X137370238Y-139822219D01*
X137370238Y-139822219D02*
X137275000Y-139774600D01*
X137275000Y-139774600D02*
X137179762Y-139679361D01*
X137179762Y-139679361D02*
X137132143Y-139488885D01*
X137132143Y-139488885D02*
X137132143Y-139155552D01*
X137132143Y-139155552D02*
X137179762Y-138965076D01*
X137179762Y-138965076D02*
X137275000Y-138869838D01*
X137275000Y-138869838D02*
X137370238Y-138822219D01*
X138655952Y-139155552D02*
X138655952Y-139822219D01*
X138227381Y-139155552D02*
X138227381Y-139679361D01*
X138227381Y-139679361D02*
X138275000Y-139774600D01*
X138275000Y-139774600D02*
X138370238Y-139822219D01*
X138370238Y-139822219D02*
X138513095Y-139822219D01*
X138513095Y-139822219D02*
X138608333Y-139774600D01*
X138608333Y-139774600D02*
X138655952Y-139726980D01*
X138989286Y-139155552D02*
X139370238Y-139155552D01*
X139132143Y-138822219D02*
X139132143Y-139679361D01*
X139132143Y-139679361D02*
X139179762Y-139774600D01*
X139179762Y-139774600D02*
X139275000Y-139822219D01*
X139275000Y-139822219D02*
X139370238Y-139822219D01*
D12*
X132033095Y-104014819D02*
X132033095Y-104824342D01*
X132033095Y-104824342D02*
X132080714Y-104919580D01*
X132080714Y-104919580D02*
X132128333Y-104967200D01*
X132128333Y-104967200D02*
X132223571Y-105014819D01*
X132223571Y-105014819D02*
X132414047Y-105014819D01*
X132414047Y-105014819D02*
X132509285Y-104967200D01*
X132509285Y-104967200D02*
X132556904Y-104919580D01*
X132556904Y-104919580D02*
X132604523Y-104824342D01*
X132604523Y-104824342D02*
X132604523Y-104014819D01*
X133509285Y-104348152D02*
X133509285Y-105014819D01*
X133271190Y-103967200D02*
X133033095Y-104681485D01*
X133033095Y-104681485D02*
X133652142Y-104681485D01*
D11*
X169098095Y-80672219D02*
X169669523Y-80672219D01*
X169383809Y-81672219D02*
X169383809Y-80672219D01*
X170002857Y-81672219D02*
X170002857Y-80672219D01*
X170002857Y-80672219D02*
X170383809Y-80672219D01*
X170383809Y-80672219D02*
X170479047Y-80719838D01*
X170479047Y-80719838D02*
X170526666Y-80767457D01*
X170526666Y-80767457D02*
X170574285Y-80862695D01*
X170574285Y-80862695D02*
X170574285Y-81005552D01*
X170574285Y-81005552D02*
X170526666Y-81100790D01*
X170526666Y-81100790D02*
X170479047Y-81148409D01*
X170479047Y-81148409D02*
X170383809Y-81196028D01*
X170383809Y-81196028D02*
X170002857Y-81196028D01*
X170907619Y-80672219D02*
X171526666Y-80672219D01*
X171526666Y-80672219D02*
X171193333Y-81053171D01*
X171193333Y-81053171D02*
X171336190Y-81053171D01*
X171336190Y-81053171D02*
X171431428Y-81100790D01*
X171431428Y-81100790D02*
X171479047Y-81148409D01*
X171479047Y-81148409D02*
X171526666Y-81243647D01*
X171526666Y-81243647D02*
X171526666Y-81481742D01*
X171526666Y-81481742D02*
X171479047Y-81576980D01*
X171479047Y-81576980D02*
X171431428Y-81624600D01*
X171431428Y-81624600D02*
X171336190Y-81672219D01*
X171336190Y-81672219D02*
X171050476Y-81672219D01*
X171050476Y-81672219D02*
X170955238Y-81624600D01*
X170955238Y-81624600D02*
X170907619Y-81576980D01*
X169618095Y-86499838D02*
X169522857Y-86452219D01*
X169522857Y-86452219D02*
X169380000Y-86452219D01*
X169380000Y-86452219D02*
X169237143Y-86499838D01*
X169237143Y-86499838D02*
X169141905Y-86595076D01*
X169141905Y-86595076D02*
X169094286Y-86690314D01*
X169094286Y-86690314D02*
X169046667Y-86880790D01*
X169046667Y-86880790D02*
X169046667Y-87023647D01*
X169046667Y-87023647D02*
X169094286Y-87214123D01*
X169094286Y-87214123D02*
X169141905Y-87309361D01*
X169141905Y-87309361D02*
X169237143Y-87404600D01*
X169237143Y-87404600D02*
X169380000Y-87452219D01*
X169380000Y-87452219D02*
X169475238Y-87452219D01*
X169475238Y-87452219D02*
X169618095Y-87404600D01*
X169618095Y-87404600D02*
X169665714Y-87356980D01*
X169665714Y-87356980D02*
X169665714Y-87023647D01*
X169665714Y-87023647D02*
X169475238Y-87023647D01*
X170094286Y-87452219D02*
X170094286Y-86452219D01*
X170094286Y-86452219D02*
X170665714Y-87452219D01*
X170665714Y-87452219D02*
X170665714Y-86452219D01*
X171141905Y-87452219D02*
X171141905Y-86452219D01*
X171141905Y-86452219D02*
X171380000Y-86452219D01*
X171380000Y-86452219D02*
X171522857Y-86499838D01*
X171522857Y-86499838D02*
X171618095Y-86595076D01*
X171618095Y-86595076D02*
X171665714Y-86690314D01*
X171665714Y-86690314D02*
X171713333Y-86880790D01*
X171713333Y-86880790D02*
X171713333Y-87023647D01*
X171713333Y-87023647D02*
X171665714Y-87214123D01*
X171665714Y-87214123D02*
X171618095Y-87309361D01*
X171618095Y-87309361D02*
X171522857Y-87404600D01*
X171522857Y-87404600D02*
X171380000Y-87452219D01*
X171380000Y-87452219D02*
X171141905Y-87452219D01*
D12*
X103168095Y-124584819D02*
X103168095Y-123584819D01*
X103168095Y-124061009D02*
X103739523Y-124061009D01*
X103739523Y-124584819D02*
X103739523Y-123584819D01*
X104120476Y-123584819D02*
X104739523Y-123584819D01*
X104739523Y-123584819D02*
X104406190Y-123965771D01*
X104406190Y-123965771D02*
X104549047Y-123965771D01*
X104549047Y-123965771D02*
X104644285Y-124013390D01*
X104644285Y-124013390D02*
X104691904Y-124061009D01*
X104691904Y-124061009D02*
X104739523Y-124156247D01*
X104739523Y-124156247D02*
X104739523Y-124394342D01*
X104739523Y-124394342D02*
X104691904Y-124489580D01*
X104691904Y-124489580D02*
X104644285Y-124537200D01*
X104644285Y-124537200D02*
X104549047Y-124584819D01*
X104549047Y-124584819D02*
X104263333Y-124584819D01*
X104263333Y-124584819D02*
X104168095Y-124537200D01*
X104168095Y-124537200D02*
X104120476Y-124489580D01*
D11*
X121988095Y-132827219D02*
X122559523Y-132827219D01*
X122273809Y-133827219D02*
X122273809Y-132827219D01*
X122892857Y-133827219D02*
X122892857Y-132827219D01*
X122892857Y-132827219D02*
X123273809Y-132827219D01*
X123273809Y-132827219D02*
X123369047Y-132874838D01*
X123369047Y-132874838D02*
X123416666Y-132922457D01*
X123416666Y-132922457D02*
X123464285Y-133017695D01*
X123464285Y-133017695D02*
X123464285Y-133160552D01*
X123464285Y-133160552D02*
X123416666Y-133255790D01*
X123416666Y-133255790D02*
X123369047Y-133303409D01*
X123369047Y-133303409D02*
X123273809Y-133351028D01*
X123273809Y-133351028D02*
X122892857Y-133351028D01*
X123797619Y-132827219D02*
X124464285Y-132827219D01*
X124464285Y-132827219D02*
X124035714Y-133827219D01*
X120535714Y-139762219D02*
X120535714Y-138762219D01*
X120535714Y-138762219D02*
X120916666Y-138762219D01*
X120916666Y-138762219D02*
X121011904Y-138809838D01*
X121011904Y-138809838D02*
X121059523Y-138857457D01*
X121059523Y-138857457D02*
X121107142Y-138952695D01*
X121107142Y-138952695D02*
X121107142Y-139095552D01*
X121107142Y-139095552D02*
X121059523Y-139190790D01*
X121059523Y-139190790D02*
X121011904Y-139238409D01*
X121011904Y-139238409D02*
X120916666Y-139286028D01*
X120916666Y-139286028D02*
X120535714Y-139286028D01*
X121678571Y-139762219D02*
X121583333Y-139714600D01*
X121583333Y-139714600D02*
X121535714Y-139666980D01*
X121535714Y-139666980D02*
X121488095Y-139571742D01*
X121488095Y-139571742D02*
X121488095Y-139286028D01*
X121488095Y-139286028D02*
X121535714Y-139190790D01*
X121535714Y-139190790D02*
X121583333Y-139143171D01*
X121583333Y-139143171D02*
X121678571Y-139095552D01*
X121678571Y-139095552D02*
X121821428Y-139095552D01*
X121821428Y-139095552D02*
X121916666Y-139143171D01*
X121916666Y-139143171D02*
X121964285Y-139190790D01*
X121964285Y-139190790D02*
X122011904Y-139286028D01*
X122011904Y-139286028D02*
X122011904Y-139571742D01*
X122011904Y-139571742D02*
X121964285Y-139666980D01*
X121964285Y-139666980D02*
X121916666Y-139714600D01*
X121916666Y-139714600D02*
X121821428Y-139762219D01*
X121821428Y-139762219D02*
X121678571Y-139762219D01*
X122392857Y-139714600D02*
X122488095Y-139762219D01*
X122488095Y-139762219D02*
X122678571Y-139762219D01*
X122678571Y-139762219D02*
X122773809Y-139714600D01*
X122773809Y-139714600D02*
X122821428Y-139619361D01*
X122821428Y-139619361D02*
X122821428Y-139571742D01*
X122821428Y-139571742D02*
X122773809Y-139476504D01*
X122773809Y-139476504D02*
X122678571Y-139428885D01*
X122678571Y-139428885D02*
X122535714Y-139428885D01*
X122535714Y-139428885D02*
X122440476Y-139381266D01*
X122440476Y-139381266D02*
X122392857Y-139286028D01*
X122392857Y-139286028D02*
X122392857Y-139238409D01*
X122392857Y-139238409D02*
X122440476Y-139143171D01*
X122440476Y-139143171D02*
X122535714Y-139095552D01*
X122535714Y-139095552D02*
X122678571Y-139095552D01*
X122678571Y-139095552D02*
X122773809Y-139143171D01*
X123107143Y-139095552D02*
X123488095Y-139095552D01*
X123250000Y-138762219D02*
X123250000Y-139619361D01*
X123250000Y-139619361D02*
X123297619Y-139714600D01*
X123297619Y-139714600D02*
X123392857Y-139762219D01*
X123392857Y-139762219D02*
X123488095Y-139762219D01*
X124916667Y-139238409D02*
X124583334Y-139238409D01*
X124583334Y-139762219D02*
X124583334Y-138762219D01*
X124583334Y-138762219D02*
X125059524Y-138762219D01*
X125773810Y-139238409D02*
X125916667Y-139286028D01*
X125916667Y-139286028D02*
X125964286Y-139333647D01*
X125964286Y-139333647D02*
X126011905Y-139428885D01*
X126011905Y-139428885D02*
X126011905Y-139571742D01*
X126011905Y-139571742D02*
X125964286Y-139666980D01*
X125964286Y-139666980D02*
X125916667Y-139714600D01*
X125916667Y-139714600D02*
X125821429Y-139762219D01*
X125821429Y-139762219D02*
X125440477Y-139762219D01*
X125440477Y-139762219D02*
X125440477Y-138762219D01*
X125440477Y-138762219D02*
X125773810Y-138762219D01*
X125773810Y-138762219D02*
X125869048Y-138809838D01*
X125869048Y-138809838D02*
X125916667Y-138857457D01*
X125916667Y-138857457D02*
X125964286Y-138952695D01*
X125964286Y-138952695D02*
X125964286Y-139047933D01*
X125964286Y-139047933D02*
X125916667Y-139143171D01*
X125916667Y-139143171D02*
X125869048Y-139190790D01*
X125869048Y-139190790D02*
X125773810Y-139238409D01*
X125773810Y-139238409D02*
X125440477Y-139238409D01*
X134828095Y-58492219D02*
X135399523Y-58492219D01*
X135113809Y-59492219D02*
X135113809Y-58492219D01*
X135732857Y-59492219D02*
X135732857Y-58492219D01*
X135732857Y-58492219D02*
X136113809Y-58492219D01*
X136113809Y-58492219D02*
X136209047Y-58539838D01*
X136209047Y-58539838D02*
X136256666Y-58587457D01*
X136256666Y-58587457D02*
X136304285Y-58682695D01*
X136304285Y-58682695D02*
X136304285Y-58825552D01*
X136304285Y-58825552D02*
X136256666Y-58920790D01*
X136256666Y-58920790D02*
X136209047Y-58968409D01*
X136209047Y-58968409D02*
X136113809Y-59016028D01*
X136113809Y-59016028D02*
X135732857Y-59016028D01*
X137256666Y-59492219D02*
X136685238Y-59492219D01*
X136970952Y-59492219D02*
X136970952Y-58492219D01*
X136970952Y-58492219D02*
X136875714Y-58635076D01*
X136875714Y-58635076D02*
X136780476Y-58730314D01*
X136780476Y-58730314D02*
X136685238Y-58777933D01*
X168828095Y-89012219D02*
X169399523Y-89012219D01*
X169113809Y-90012219D02*
X169113809Y-89012219D01*
X169732857Y-90012219D02*
X169732857Y-89012219D01*
X169732857Y-89012219D02*
X170113809Y-89012219D01*
X170113809Y-89012219D02*
X170209047Y-89059838D01*
X170209047Y-89059838D02*
X170256666Y-89107457D01*
X170256666Y-89107457D02*
X170304285Y-89202695D01*
X170304285Y-89202695D02*
X170304285Y-89345552D01*
X170304285Y-89345552D02*
X170256666Y-89440790D01*
X170256666Y-89440790D02*
X170209047Y-89488409D01*
X170209047Y-89488409D02*
X170113809Y-89536028D01*
X170113809Y-89536028D02*
X169732857Y-89536028D01*
X171161428Y-89012219D02*
X170970952Y-89012219D01*
X170970952Y-89012219D02*
X170875714Y-89059838D01*
X170875714Y-89059838D02*
X170828095Y-89107457D01*
X170828095Y-89107457D02*
X170732857Y-89250314D01*
X170732857Y-89250314D02*
X170685238Y-89440790D01*
X170685238Y-89440790D02*
X170685238Y-89821742D01*
X170685238Y-89821742D02*
X170732857Y-89916980D01*
X170732857Y-89916980D02*
X170780476Y-89964600D01*
X170780476Y-89964600D02*
X170875714Y-90012219D01*
X170875714Y-90012219D02*
X171066190Y-90012219D01*
X171066190Y-90012219D02*
X171161428Y-89964600D01*
X171161428Y-89964600D02*
X171209047Y-89916980D01*
X171209047Y-89916980D02*
X171256666Y-89821742D01*
X171256666Y-89821742D02*
X171256666Y-89583647D01*
X171256666Y-89583647D02*
X171209047Y-89488409D01*
X171209047Y-89488409D02*
X171161428Y-89440790D01*
X171161428Y-89440790D02*
X171066190Y-89393171D01*
X171066190Y-89393171D02*
X170875714Y-89393171D01*
X170875714Y-89393171D02*
X170780476Y-89440790D01*
X170780476Y-89440790D02*
X170732857Y-89488409D01*
X170732857Y-89488409D02*
X170685238Y-89583647D01*
D12*
X160668095Y-76354819D02*
X160668095Y-75354819D01*
X160668095Y-75831009D02*
X161239523Y-75831009D01*
X161239523Y-76354819D02*
X161239523Y-75354819D01*
X161668095Y-75450057D02*
X161715714Y-75402438D01*
X161715714Y-75402438D02*
X161810952Y-75354819D01*
X161810952Y-75354819D02*
X162049047Y-75354819D01*
X162049047Y-75354819D02*
X162144285Y-75402438D01*
X162144285Y-75402438D02*
X162191904Y-75450057D01*
X162191904Y-75450057D02*
X162239523Y-75545295D01*
X162239523Y-75545295D02*
X162239523Y-75640533D01*
X162239523Y-75640533D02*
X162191904Y-75783390D01*
X162191904Y-75783390D02*
X161620476Y-76354819D01*
X161620476Y-76354819D02*
X162239523Y-76354819D01*
D11*
X95563095Y-91102219D02*
X96134523Y-91102219D01*
X95848809Y-92102219D02*
X95848809Y-91102219D01*
X96467857Y-92102219D02*
X96467857Y-91102219D01*
X96467857Y-91102219D02*
X96848809Y-91102219D01*
X96848809Y-91102219D02*
X96944047Y-91149838D01*
X96944047Y-91149838D02*
X96991666Y-91197457D01*
X96991666Y-91197457D02*
X97039285Y-91292695D01*
X97039285Y-91292695D02*
X97039285Y-91435552D01*
X97039285Y-91435552D02*
X96991666Y-91530790D01*
X96991666Y-91530790D02*
X96944047Y-91578409D01*
X96944047Y-91578409D02*
X96848809Y-91626028D01*
X96848809Y-91626028D02*
X96467857Y-91626028D01*
X97896428Y-91435552D02*
X97896428Y-92102219D01*
X97658333Y-91054600D02*
X97420238Y-91768885D01*
X97420238Y-91768885D02*
X98039285Y-91768885D01*
X95229762Y-97914600D02*
X95372619Y-97962219D01*
X95372619Y-97962219D02*
X95610714Y-97962219D01*
X95610714Y-97962219D02*
X95705952Y-97914600D01*
X95705952Y-97914600D02*
X95753571Y-97866980D01*
X95753571Y-97866980D02*
X95801190Y-97771742D01*
X95801190Y-97771742D02*
X95801190Y-97676504D01*
X95801190Y-97676504D02*
X95753571Y-97581266D01*
X95753571Y-97581266D02*
X95705952Y-97533647D01*
X95705952Y-97533647D02*
X95610714Y-97486028D01*
X95610714Y-97486028D02*
X95420238Y-97438409D01*
X95420238Y-97438409D02*
X95325000Y-97390790D01*
X95325000Y-97390790D02*
X95277381Y-97343171D01*
X95277381Y-97343171D02*
X95229762Y-97247933D01*
X95229762Y-97247933D02*
X95229762Y-97152695D01*
X95229762Y-97152695D02*
X95277381Y-97057457D01*
X95277381Y-97057457D02*
X95325000Y-97009838D01*
X95325000Y-97009838D02*
X95420238Y-96962219D01*
X95420238Y-96962219D02*
X95658333Y-96962219D01*
X95658333Y-96962219D02*
X95801190Y-97009838D01*
X96229762Y-97962219D02*
X96229762Y-97295552D01*
X96229762Y-96962219D02*
X96182143Y-97009838D01*
X96182143Y-97009838D02*
X96229762Y-97057457D01*
X96229762Y-97057457D02*
X96277381Y-97009838D01*
X96277381Y-97009838D02*
X96229762Y-96962219D01*
X96229762Y-96962219D02*
X96229762Y-97057457D01*
X96705952Y-97962219D02*
X96705952Y-96962219D01*
X96705952Y-96962219D02*
X97086904Y-96962219D01*
X97086904Y-96962219D02*
X97182142Y-97009838D01*
X97182142Y-97009838D02*
X97229761Y-97057457D01*
X97229761Y-97057457D02*
X97277380Y-97152695D01*
X97277380Y-97152695D02*
X97277380Y-97295552D01*
X97277380Y-97295552D02*
X97229761Y-97390790D01*
X97229761Y-97390790D02*
X97182142Y-97438409D01*
X97182142Y-97438409D02*
X97086904Y-97486028D01*
X97086904Y-97486028D02*
X96705952Y-97486028D01*
X97705952Y-97962219D02*
X97705952Y-96962219D01*
X97705952Y-96962219D02*
X98039285Y-97676504D01*
X98039285Y-97676504D02*
X98372618Y-96962219D01*
X98372618Y-96962219D02*
X98372618Y-97962219D01*
D13*
%TO.C,TP5*%
X98325000Y-104375000D02*
G75*
G02*
X95525000Y-104375000I-1400000J0D01*
G01*
X95525000Y-104375000D02*
G75*
G02*
X98325000Y-104375000I1400000J0D01*
G01*
%TO.C,TP2*%
X129600000Y-59620000D02*
G75*
G02*
X126800000Y-59620000I-1400000J0D01*
G01*
X126800000Y-59620000D02*
G75*
G02*
X129600000Y-59620000I1400000J0D01*
G01*
%TO.C,TP8*%
X138175000Y-135950000D02*
G75*
G02*
X135375000Y-135950000I-1400000J0D01*
G01*
X135375000Y-135950000D02*
G75*
G02*
X138175000Y-135950000I1400000J0D01*
G01*
D14*
%TO.C,U4*%
X129275000Y-95550000D02*
X131195000Y-95550000D01*
X129275000Y-95570000D02*
X129275000Y-95550000D01*
X129275000Y-97420000D02*
X129275000Y-96830000D01*
X129275000Y-102550000D02*
X129275000Y-100670000D01*
X129345000Y-102550000D02*
X129275000Y-102550000D01*
X131195000Y-102550000D02*
X130605000Y-102550000D01*
X134455000Y-95550000D02*
X135045000Y-95550000D01*
X136305000Y-95550000D02*
X136325000Y-95550000D01*
X136325000Y-95550000D02*
X136325000Y-97420000D01*
X136325000Y-100680000D02*
X136325000Y-101270000D01*
X136325000Y-102530000D02*
X136325000Y-102550000D01*
X136325000Y-102550000D02*
X134455000Y-102550000D01*
X136325000Y-102550000D02*
X136325000Y-102530000D01*
D15*
X134925000Y-96400000D02*
G75*
G02*
X134525000Y-96400000I-200000J0D01*
G01*
X134525000Y-96400000D02*
G75*
G02*
X134925000Y-96400000I200000J0D01*
G01*
D13*
%TO.C,TP3*%
X171760000Y-83720000D02*
G75*
G02*
X168960000Y-83720000I-1400000J0D01*
G01*
X168960000Y-83720000D02*
G75*
G02*
X171760000Y-83720000I1400000J0D01*
G01*
%TO.C,TP7*%
X124649999Y-135875000D02*
G75*
G02*
X121850001Y-135875000I-1399999J0D01*
G01*
X121850001Y-135875000D02*
G75*
G02*
X124649999Y-135875000I1399999J0D01*
G01*
%TO.C,TP1*%
X137400000Y-63750000D02*
G75*
G02*
X134600000Y-63750000I-1400000J0D01*
G01*
X134600000Y-63750000D02*
G75*
G02*
X137400000Y-63750000I1400000J0D01*
G01*
%TO.C,TP6*%
X171490000Y-92060000D02*
G75*
G02*
X168690000Y-92060000I-1400000J0D01*
G01*
X168690000Y-92060000D02*
G75*
G02*
X171490000Y-92060000I1400000J0D01*
G01*
%TO.C,TP4*%
X98225000Y-94150000D02*
G75*
G02*
X95425000Y-94150000I-1400000J0D01*
G01*
X95425000Y-94150000D02*
G75*
G02*
X98225000Y-94150000I1400000J0D01*
G01*
D16*
%TO.C,G\u002A\u002A\u002A*%
G36*
X102844359Y-136971431D02*
G01*
X102819309Y-136996481D01*
X102794260Y-136971431D01*
X102819309Y-136946382D01*
X102844359Y-136971431D01*
G37*
G36*
X104998599Y-138123699D02*
G01*
X104973550Y-138148749D01*
X104948501Y-138123699D01*
X104973550Y-138098650D01*
X104998599Y-138123699D01*
G37*
G36*
X106574458Y-135733417D02*
G01*
X106595654Y-135806950D01*
X106603214Y-135952758D01*
X106598482Y-136144048D01*
X106582805Y-136354024D01*
X106557527Y-136555891D01*
X106524959Y-136719187D01*
X106430737Y-137002874D01*
X106304981Y-137272307D01*
X106164114Y-137495611D01*
X106069153Y-137603833D01*
X105950473Y-137715327D01*
X105950473Y-137550164D01*
X105941696Y-137442908D01*
X105910493Y-137421317D01*
X105887850Y-137435449D01*
X105796788Y-137480910D01*
X105664454Y-137520272D01*
X105662015Y-137520797D01*
X105513055Y-137589597D01*
X105373658Y-137738410D01*
X105353127Y-137767432D01*
X105252117Y-137904564D01*
X105160276Y-138013461D01*
X105126397Y-138046434D01*
X105109567Y-138044753D01*
X105143045Y-137975917D01*
X105219583Y-137854787D01*
X105220731Y-137853080D01*
X105400755Y-137525747D01*
X105488569Y-137211684D01*
X105499306Y-137057817D01*
X105494800Y-136948036D01*
X105462720Y-136920590D01*
X105376030Y-136957617D01*
X105360083Y-136965850D01*
X105213020Y-137024786D01*
X105042596Y-137071261D01*
X105028401Y-137074042D01*
X104836222Y-137110095D01*
X105071667Y-136821032D01*
X105207578Y-136641596D01*
X105332067Y-136455900D01*
X105413332Y-136313337D01*
X105486199Y-136179824D01*
X105554780Y-136115336D01*
X105650827Y-136095404D01*
X105697438Y-136094426D01*
X105985432Y-136060466D01*
X106239272Y-135966763D01*
X106407689Y-135845591D01*
X106501767Y-135763810D01*
X106565428Y-135730809D01*
X106574458Y-135733417D01*
G37*
G36*
X101760706Y-132783233D02*
G01*
X102030264Y-132907220D01*
X102261005Y-133094459D01*
X102430241Y-133328250D01*
X102494419Y-133489577D01*
X102540771Y-133840610D01*
X102495387Y-134227135D01*
X102358862Y-134645732D01*
X102253185Y-134872719D01*
X102178789Y-135000678D01*
X102060890Y-135176255D01*
X101894606Y-135406141D01*
X101675058Y-135697025D01*
X101397364Y-136055596D01*
X101292897Y-136188946D01*
X101050772Y-136533418D01*
X100881375Y-136854488D01*
X100788014Y-137143398D01*
X100773994Y-137391393D01*
X100798285Y-137498795D01*
X100838375Y-137590791D01*
X100876811Y-137610692D01*
X100922277Y-137551393D01*
X100983457Y-137405785D01*
X101014152Y-137322122D01*
X101226343Y-136875183D01*
X101526545Y-136456489D01*
X101904374Y-136075362D01*
X102349445Y-135741122D01*
X102851376Y-135463091D01*
X103277012Y-135290783D01*
X103560746Y-135208132D01*
X103913398Y-135128347D01*
X104303726Y-135057132D01*
X104700490Y-135000193D01*
X105069113Y-134963476D01*
X105565465Y-134927551D01*
X105536395Y-135273160D01*
X105444069Y-135786688D01*
X105257731Y-136286799D01*
X105025139Y-136695889D01*
X104894515Y-136883349D01*
X104786007Y-137011256D01*
X104669996Y-137105862D01*
X104516860Y-137193420D01*
X104397416Y-137252254D01*
X104070588Y-137441227D01*
X103817872Y-137654673D01*
X103807725Y-137665567D01*
X103694365Y-137786085D01*
X103610405Y-137870173D01*
X103576275Y-137898256D01*
X103558431Y-137853352D01*
X103529046Y-137736103D01*
X103497300Y-137585779D01*
X103433305Y-137320045D01*
X103354124Y-137125762D01*
X103245381Y-136974186D01*
X103142906Y-136877201D01*
X103001980Y-136787489D01*
X102867372Y-136748688D01*
X102766065Y-136765287D01*
X102730607Y-136808611D01*
X102691322Y-136835374D01*
X102609849Y-136783386D01*
X102601185Y-136775797D01*
X102528936Y-136714483D01*
X102501556Y-136709713D01*
X102514986Y-136774507D01*
X102560138Y-136907444D01*
X102662147Y-137084159D01*
X102793490Y-137208036D01*
X102876979Y-137269965D01*
X102936747Y-137336700D01*
X102983708Y-137430860D01*
X103028775Y-137575062D01*
X103082862Y-137791925D01*
X103090288Y-137823108D01*
X103177493Y-138109312D01*
X103287499Y-138345650D01*
X103410138Y-138512940D01*
X103488066Y-138573575D01*
X103530794Y-138601129D01*
X103532954Y-138620392D01*
X103482858Y-138632602D01*
X103368815Y-138638994D01*
X103179136Y-138640803D01*
X102902130Y-138639265D01*
X102869408Y-138638977D01*
X102584182Y-138635278D01*
X102315574Y-138629741D01*
X102088552Y-138623024D01*
X101928085Y-138615783D01*
X101892485Y-138613265D01*
X101528625Y-138574682D01*
X101193483Y-138524008D01*
X100905579Y-138464959D01*
X100683431Y-138401253D01*
X100559265Y-138345678D01*
X100317023Y-138139505D01*
X100141023Y-137870415D01*
X100038523Y-137556489D01*
X100016786Y-137215808D01*
X100037506Y-137046260D01*
X100121800Y-136752943D01*
X100268238Y-136418588D01*
X100463607Y-136068198D01*
X100694696Y-135726773D01*
X100818326Y-135568670D01*
X100976624Y-135374577D01*
X101128517Y-135185321D01*
X101251259Y-135029367D01*
X101297132Y-134969395D01*
X101383575Y-134849957D01*
X101414468Y-134781380D01*
X101394964Y-134734808D01*
X101346342Y-134693853D01*
X101278837Y-134626984D01*
X101290167Y-134561882D01*
X101321553Y-134516599D01*
X101376854Y-134452242D01*
X101421420Y-134456067D01*
X101490430Y-134533086D01*
X101497327Y-134541648D01*
X101598887Y-134676900D01*
X101695029Y-134817191D01*
X101760772Y-134903473D01*
X101788441Y-134907099D01*
X101777170Y-134838444D01*
X101726091Y-134707885D01*
X101707509Y-134667856D01*
X101659363Y-134553553D01*
X101648659Y-134461285D01*
X101675423Y-134346403D01*
X101707757Y-134252842D01*
X101774704Y-133989771D01*
X101775709Y-133771501D01*
X101714136Y-133608729D01*
X101593350Y-133512147D01*
X101467601Y-133489577D01*
X101351541Y-133523814D01*
X101303977Y-133614849D01*
X101326195Y-133745168D01*
X101419480Y-133897255D01*
X101436220Y-133916945D01*
X101555300Y-134079649D01*
X101591656Y-134199241D01*
X101545241Y-134271087D01*
X101440025Y-134291155D01*
X101317156Y-134267652D01*
X101259320Y-134216007D01*
X101191901Y-134149355D01*
X101152930Y-134140859D01*
X101106319Y-134151641D01*
X101129181Y-134198643D01*
X101164228Y-134239038D01*
X101217291Y-134344813D01*
X101222228Y-134463402D01*
X101184018Y-134557872D01*
X101116672Y-134591747D01*
X101029345Y-134553688D01*
X100911136Y-134455813D01*
X100785374Y-134322571D01*
X100675385Y-134178410D01*
X100609381Y-134060061D01*
X100538381Y-133773605D01*
X100555954Y-133493455D01*
X100651617Y-133235604D01*
X100814889Y-133016048D01*
X101035288Y-132850778D01*
X101302332Y-132755790D01*
X101475018Y-132739198D01*
X101760706Y-132783233D01*
G37*
%TD*%
%LPC*%
%TO.C,G\u002A\u002A\u002A*%
G36*
X145705790Y-56359035D02*
G01*
X145694649Y-56370175D01*
X145683509Y-56359035D01*
X145694649Y-56347895D01*
X145705790Y-56359035D01*
G37*
G36*
X145728070Y-56225351D02*
G01*
X145716930Y-56236490D01*
X145705790Y-56225351D01*
X145716930Y-56214211D01*
X145728070Y-56225351D01*
G37*
G36*
X146998070Y-62218860D02*
G01*
X146986930Y-62230000D01*
X146975791Y-62218860D01*
X146986930Y-62207719D01*
X146998070Y-62218860D01*
G37*
G36*
X148067544Y-57718158D02*
G01*
X148056404Y-57729298D01*
X148045263Y-57718158D01*
X148056404Y-57707018D01*
X148067544Y-57718158D01*
G37*
G36*
X152033508Y-62931842D02*
G01*
X152022369Y-62942982D01*
X152011227Y-62931842D01*
X152022369Y-62920702D01*
X152033508Y-62931842D01*
G37*
G36*
X154551228Y-62976403D02*
G01*
X154540088Y-62987544D01*
X154528948Y-62976403D01*
X154540088Y-62965263D01*
X154551228Y-62976403D01*
G37*
G36*
X154595790Y-62107456D02*
G01*
X154584649Y-62118596D01*
X154573509Y-62107456D01*
X154584649Y-62096316D01*
X154595790Y-62107456D01*
G37*
G36*
X154796316Y-62931842D02*
G01*
X154785176Y-62942982D01*
X154774035Y-62931842D01*
X154785176Y-62920702D01*
X154796316Y-62931842D01*
G37*
G36*
X155108246Y-62998684D02*
G01*
X155097105Y-63009825D01*
X155085965Y-62998684D01*
X155097105Y-62987544D01*
X155108246Y-62998684D01*
G37*
G36*
X155999474Y-60302719D02*
G01*
X155988334Y-60313860D01*
X155977193Y-60302719D01*
X155988334Y-60291579D01*
X155999474Y-60302719D01*
G37*
G36*
X158249825Y-56737807D02*
G01*
X158238684Y-56748947D01*
X158227544Y-56737807D01*
X158238684Y-56726667D01*
X158249825Y-56737807D01*
G37*
G36*
X158428070Y-58787632D02*
G01*
X158416930Y-58798772D01*
X158405791Y-58787632D01*
X158416930Y-58776491D01*
X158428070Y-58787632D01*
G37*
G36*
X159742632Y-57562193D02*
G01*
X159731491Y-57573333D01*
X159720351Y-57562193D01*
X159731491Y-57551053D01*
X159742632Y-57562193D01*
G37*
G36*
X167117543Y-58653947D02*
G01*
X167106404Y-58665088D01*
X167095263Y-58653947D01*
X167106404Y-58642807D01*
X167117543Y-58653947D01*
G37*
G36*
X149396959Y-62148304D02*
G01*
X149393901Y-62161550D01*
X149382105Y-62163158D01*
X149363766Y-62155006D01*
X149367252Y-62148304D01*
X149393694Y-62145638D01*
X149396959Y-62148304D01*
G37*
G36*
X149552924Y-62727601D02*
G01*
X149555591Y-62754044D01*
X149552924Y-62757310D01*
X149539678Y-62754251D01*
X149538070Y-62742456D01*
X149546223Y-62724117D01*
X149552924Y-62727601D01*
G37*
G36*
X150020819Y-63039532D02*
G01*
X150023484Y-63065974D01*
X150020819Y-63069240D01*
X150007572Y-63066181D01*
X150005965Y-63054386D01*
X150014117Y-63036046D01*
X150020819Y-63039532D01*
G37*
G36*
X150087563Y-60820746D02*
G01*
X150090506Y-60866362D01*
X150087563Y-60876447D01*
X150079431Y-60879246D01*
X150076325Y-60848596D01*
X150079827Y-60816966D01*
X150087563Y-60820746D01*
G37*
G36*
X154500632Y-63152328D02*
G01*
X154493988Y-63162455D01*
X154471389Y-63164030D01*
X154447615Y-63158589D01*
X154457928Y-63150569D01*
X154492750Y-63147913D01*
X154500632Y-63152328D01*
G37*
G36*
X155078538Y-59964795D02*
G01*
X155075480Y-59978041D01*
X155063684Y-59979649D01*
X155045345Y-59971497D01*
X155048831Y-59964795D01*
X155075273Y-59962129D01*
X155078538Y-59964795D01*
G37*
G36*
X155412749Y-60610937D02*
G01*
X155409690Y-60624181D01*
X155397895Y-60625789D01*
X155379555Y-60617637D01*
X155383041Y-60610936D01*
X155409483Y-60608269D01*
X155412749Y-60610937D01*
G37*
G36*
X155479591Y-61413041D02*
G01*
X155482257Y-61439483D01*
X155479591Y-61442749D01*
X155466345Y-61439690D01*
X155464737Y-61427895D01*
X155472889Y-61409555D01*
X155479591Y-61413041D01*
G37*
G36*
X156104843Y-60255837D02*
G01*
X156098198Y-60265964D01*
X156075600Y-60267539D01*
X156051825Y-60262098D01*
X156062138Y-60254078D01*
X156096960Y-60251422D01*
X156104843Y-60255837D01*
G37*
G36*
X159267310Y-59407778D02*
G01*
X159264252Y-59421024D01*
X159252456Y-59422632D01*
X159234117Y-59414479D01*
X159237603Y-59407778D01*
X159264044Y-59405111D01*
X159267310Y-59407778D01*
G37*
G36*
X167154679Y-57692164D02*
G01*
X167151620Y-57705410D01*
X167139824Y-57707018D01*
X167121485Y-57698865D01*
X167124971Y-57692165D01*
X167151413Y-57689497D01*
X167154679Y-57692164D01*
G37*
G36*
X145677939Y-56468322D02*
G01*
X145720039Y-56507826D01*
X145726117Y-56525032D01*
X145720383Y-56526140D01*
X145702187Y-56511115D01*
X145670252Y-56476009D01*
X145627807Y-56425877D01*
X145677939Y-56468322D01*
G37*
G36*
X148711675Y-62836219D02*
G01*
X148708944Y-62856940D01*
X148696673Y-62873712D01*
X148682111Y-62856850D01*
X148673936Y-62824049D01*
X148678032Y-62815243D01*
X148700058Y-62811584D01*
X148711675Y-62836219D01*
G37*
G36*
X153965128Y-57941664D02*
G01*
X153952414Y-57958047D01*
X153933680Y-57972127D01*
X153938355Y-57949801D01*
X153939941Y-57945575D01*
X153957592Y-57918290D01*
X153967627Y-57918095D01*
X153965128Y-57941664D01*
G37*
G36*
X154974925Y-62798382D02*
G01*
X154987778Y-62825084D01*
X154984750Y-62833119D01*
X154963242Y-62852874D01*
X154952717Y-62830373D01*
X154952281Y-62819124D01*
X154963243Y-62796176D01*
X154974925Y-62798382D01*
G37*
G36*
X158732835Y-59702988D02*
G01*
X158728945Y-59729712D01*
X158699615Y-59751736D01*
X158676888Y-59742039D01*
X158673158Y-59725278D01*
X158691097Y-59694586D01*
X158708436Y-59690000D01*
X158732835Y-59702988D01*
G37*
G36*
X166133751Y-58919188D02*
G01*
X166157670Y-58941622D01*
X166152763Y-58954520D01*
X166149648Y-58954737D01*
X166130803Y-58938911D01*
X166123925Y-58929014D01*
X166121299Y-58913767D01*
X166133751Y-58919188D01*
G37*
G36*
X147748624Y-59793515D02*
G01*
X147744474Y-59801403D01*
X147723481Y-59822682D01*
X147719563Y-59823683D01*
X147718043Y-59809292D01*
X147722193Y-59801403D01*
X147743185Y-59780125D01*
X147747103Y-59779123D01*
X147748624Y-59793515D01*
G37*
G36*
X148014627Y-56223541D02*
G01*
X148022983Y-56236491D01*
X148004321Y-56254594D01*
X147978421Y-56258772D01*
X147942216Y-56249440D01*
X147933860Y-56236491D01*
X147952521Y-56218388D01*
X147978421Y-56214211D01*
X148014627Y-56223541D01*
G37*
G36*
X148106236Y-57631524D02*
G01*
X148089825Y-57662456D01*
X148072521Y-57683336D01*
X148067961Y-57663268D01*
X148067885Y-57658201D01*
X148079239Y-57617915D01*
X148089825Y-57606754D01*
X148109507Y-57604956D01*
X148106236Y-57631524D01*
G37*
G36*
X148780526Y-62954123D02*
G01*
X148801781Y-62974144D01*
X148802807Y-62977718D01*
X148785569Y-62987288D01*
X148780526Y-62987544D01*
X148759102Y-62970415D01*
X148758246Y-62963948D01*
X148771896Y-62950641D01*
X148780526Y-62954123D01*
G37*
G36*
X148904178Y-62198855D02*
G01*
X148891930Y-62218860D01*
X148858381Y-62246945D01*
X148841912Y-62252281D01*
X148835121Y-62238864D01*
X148847369Y-62218860D01*
X148880917Y-62190775D01*
X148897386Y-62185439D01*
X148904178Y-62198855D01*
G37*
G36*
X149194504Y-62329603D02*
G01*
X149192719Y-62341403D01*
X149173662Y-62362636D01*
X149170439Y-62363684D01*
X149152725Y-62348144D01*
X149148158Y-62341403D01*
X149153449Y-62322527D01*
X149170439Y-62319123D01*
X149194504Y-62329603D01*
G37*
G36*
X149686739Y-57943828D02*
G01*
X149689765Y-57950434D01*
X149679009Y-57970750D01*
X149660614Y-57974386D01*
X149632884Y-57963081D01*
X149631464Y-57950434D01*
X149654466Y-57927415D01*
X149660614Y-57926482D01*
X149686739Y-57943828D01*
G37*
G36*
X149715853Y-61471819D02*
G01*
X149733026Y-61489167D01*
X149721433Y-61510295D01*
X149671755Y-61517018D01*
X149620681Y-61509662D01*
X149610483Y-61489167D01*
X149637338Y-61467418D01*
X149671755Y-61461316D01*
X149715853Y-61471819D01*
G37*
G36*
X150867254Y-57520141D02*
G01*
X150863772Y-57528772D01*
X150843750Y-57550027D01*
X150840176Y-57551053D01*
X150830606Y-57533814D01*
X150830351Y-57528772D01*
X150847479Y-57507347D01*
X150853947Y-57506491D01*
X150867254Y-57520141D01*
G37*
G36*
X150963388Y-63093622D02*
G01*
X150964035Y-63098947D01*
X150947080Y-63120581D01*
X150941755Y-63121228D01*
X150920121Y-63104273D01*
X150919474Y-63098947D01*
X150936429Y-63077314D01*
X150941755Y-63076667D01*
X150963388Y-63093622D01*
G37*
G36*
X151339804Y-61287871D02*
G01*
X151342807Y-61302721D01*
X151329734Y-61341216D01*
X151320526Y-61349912D01*
X151301249Y-61345111D01*
X151298246Y-61330261D01*
X151311319Y-61291766D01*
X151320526Y-61283070D01*
X151339804Y-61287871D01*
G37*
G36*
X151602879Y-57587337D02*
G01*
X151605905Y-57593943D01*
X151595150Y-57614259D01*
X151576756Y-57617895D01*
X151549025Y-57606589D01*
X151547604Y-57593943D01*
X151570606Y-57570923D01*
X151576755Y-57569991D01*
X151602879Y-57587337D01*
G37*
G36*
X153213739Y-61244323D02*
G01*
X153214386Y-61249648D01*
X153197431Y-61271282D01*
X153192105Y-61271929D01*
X153170472Y-61254975D01*
X153169825Y-61249649D01*
X153186780Y-61228016D01*
X153192105Y-61227368D01*
X153213739Y-61244323D01*
G37*
G36*
X154303891Y-57660384D02*
G01*
X154306141Y-57671963D01*
X154287398Y-57700888D01*
X154259722Y-57707018D01*
X154225765Y-57696373D01*
X154222577Y-57679167D01*
X154246552Y-57651423D01*
X154280243Y-57644594D01*
X154303891Y-57660384D01*
G37*
G36*
X154844289Y-60707990D02*
G01*
X154863158Y-60726053D01*
X154881771Y-60758806D01*
X154880648Y-60771691D01*
X154859747Y-60766396D01*
X154840876Y-60748333D01*
X154822265Y-60715580D01*
X154823387Y-60702695D01*
X154844289Y-60707990D01*
G37*
G36*
X154856153Y-62705743D02*
G01*
X154852312Y-62728695D01*
X154832389Y-62754127D01*
X154805122Y-62777299D01*
X154796682Y-62767192D01*
X154796316Y-62756504D01*
X154809038Y-62720383D01*
X154836009Y-62700622D01*
X154856153Y-62705743D01*
G37*
G36*
X156954097Y-57296766D02*
G01*
X156945003Y-57323414D01*
X156919068Y-57344735D01*
X156917145Y-57345425D01*
X156900369Y-57338464D01*
X156904211Y-57318967D01*
X156926979Y-57288321D01*
X156939504Y-57283684D01*
X156954097Y-57296766D01*
G37*
G36*
X157180351Y-59570625D02*
G01*
X157167614Y-59603328D01*
X157145701Y-59635610D01*
X157122666Y-59663001D01*
X157122627Y-59655511D01*
X157137579Y-59623158D01*
X157164167Y-59571123D01*
X157177352Y-59556634D01*
X157180351Y-59570625D01*
G37*
G36*
X157377107Y-59145013D02*
G01*
X157380877Y-59155263D01*
X157362831Y-59175030D01*
X157347456Y-59177544D01*
X157317806Y-59165513D01*
X157314035Y-59155263D01*
X157332081Y-59135496D01*
X157347456Y-59132982D01*
X157377107Y-59145013D01*
G37*
G36*
X158179987Y-58935061D02*
G01*
X158172758Y-58953253D01*
X158140373Y-58976022D01*
X158107472Y-58958417D01*
X158104903Y-58954579D01*
X158109869Y-58929235D01*
X158126830Y-58918406D01*
X158167216Y-58914006D01*
X158179987Y-58935061D01*
G37*
G36*
X158775122Y-58559098D02*
G01*
X158779568Y-58586698D01*
X158754793Y-58612159D01*
X158722770Y-58620526D01*
X158698405Y-58617327D01*
X158706535Y-58600488D01*
X158723555Y-58582861D01*
X158757299Y-58559039D01*
X158775122Y-58559098D01*
G37*
G36*
X158936756Y-58476592D02*
G01*
X158940526Y-58486842D01*
X158922480Y-58506609D01*
X158907105Y-58509123D01*
X158877455Y-58497092D01*
X158873684Y-58486842D01*
X158891731Y-58467075D01*
X158907105Y-58464561D01*
X158936756Y-58476592D01*
G37*
G36*
X159809218Y-57590572D02*
G01*
X159809474Y-57595614D01*
X159792346Y-57617039D01*
X159785878Y-57617895D01*
X159772571Y-57604245D01*
X159776053Y-57595614D01*
X159796074Y-57574359D01*
X159799648Y-57573333D01*
X159809218Y-57590572D01*
G37*
G36*
X160319791Y-57092977D02*
G01*
X160343897Y-57120661D01*
X160328382Y-57142231D01*
X160283735Y-57150000D01*
X160242964Y-57147417D01*
X160240963Y-57134029D01*
X160259315Y-57113943D01*
X160296825Y-57091440D01*
X160319791Y-57092977D01*
G37*
G36*
X161811022Y-60420846D02*
G01*
X161814737Y-60436403D01*
X161798122Y-60464430D01*
X161762989Y-60468316D01*
X161741074Y-60455576D01*
X161735892Y-60428314D01*
X161761386Y-60406685D01*
X161782631Y-60402982D01*
X161811022Y-60420846D01*
G37*
G36*
X162110966Y-59461108D02*
G01*
X162115526Y-59467193D01*
X162110475Y-59486267D01*
X162094561Y-59489474D01*
X162064076Y-59477841D01*
X162059825Y-59467193D01*
X162075816Y-59445550D01*
X162080790Y-59444912D01*
X162110966Y-59461108D01*
G37*
G36*
X162696609Y-56224691D02*
G01*
X162694825Y-56236491D01*
X162675767Y-56257723D01*
X162672544Y-56258772D01*
X162654830Y-56243232D01*
X162650263Y-56236491D01*
X162655554Y-56217615D01*
X162672544Y-56214211D01*
X162696609Y-56224691D01*
G37*
G36*
X164821984Y-56275727D02*
G01*
X164822632Y-56281053D01*
X164805677Y-56302686D01*
X164800351Y-56303333D01*
X164778718Y-56286378D01*
X164778070Y-56281053D01*
X164795025Y-56259418D01*
X164800351Y-56258772D01*
X164821984Y-56275727D01*
G37*
G36*
X166687490Y-59895232D02*
G01*
X166694211Y-59914122D01*
X166680192Y-59933738D01*
X166652003Y-59926765D01*
X166637593Y-59911325D01*
X166631576Y-59881319D01*
X166634795Y-59875672D01*
X166660855Y-59873993D01*
X166687490Y-59895232D01*
G37*
G36*
X146682259Y-56610817D02*
G01*
X146686141Y-56626403D01*
X146683137Y-56655093D01*
X146680570Y-56658065D01*
X146658063Y-56649436D01*
X146647149Y-56645068D01*
X146621097Y-56621410D01*
X146629892Y-56598547D01*
X146652718Y-56592982D01*
X146682259Y-56610817D01*
G37*
G36*
X149315269Y-62163240D02*
G01*
X149333852Y-62182344D01*
X149322768Y-62208104D01*
X149298553Y-62234218D01*
X149263188Y-62263829D01*
X149250154Y-62258033D01*
X149249987Y-62251662D01*
X149262003Y-62189030D01*
X149287560Y-62159024D01*
X149315269Y-62163240D01*
G37*
G36*
X149578321Y-62231513D02*
G01*
X149596794Y-62241003D01*
X149636141Y-62263461D01*
X149637667Y-62272775D01*
X149613211Y-62274424D01*
X149561491Y-62259667D01*
X149538071Y-62241140D01*
X149520073Y-62214325D01*
X149532389Y-62211119D01*
X149578321Y-62231513D01*
G37*
G36*
X151230816Y-56463930D02*
G01*
X151231062Y-56476009D01*
X151222942Y-56515128D01*
X151209123Y-56526140D01*
X151187726Y-56513345D01*
X151187183Y-56509429D01*
X151198316Y-56478187D01*
X151209123Y-56459298D01*
X151225376Y-56441800D01*
X151230816Y-56463930D01*
G37*
G36*
X155129721Y-56489495D02*
G01*
X155130185Y-56508115D01*
X155122963Y-56557450D01*
X155108246Y-56581842D01*
X155090132Y-56575847D01*
X155086306Y-56555306D01*
X155098462Y-56501026D01*
X155108246Y-56481579D01*
X155123774Y-56466243D01*
X155129721Y-56489495D01*
G37*
G36*
X163786817Y-60325481D02*
G01*
X163797719Y-60347281D01*
X163780005Y-60372589D01*
X163741476Y-60381058D01*
X163704052Y-60368472D01*
X163701170Y-60365848D01*
X163686762Y-60334918D01*
X163712454Y-60316718D01*
X163742018Y-60313861D01*
X163786817Y-60325481D01*
G37*
G36*
X149738580Y-62144194D02*
G01*
X149738597Y-62146561D01*
X149722763Y-62188087D01*
X149705176Y-62207719D01*
X149678726Y-62223589D01*
X149671772Y-62204403D01*
X149671755Y-62202035D01*
X149687588Y-62160509D01*
X149705176Y-62140877D01*
X149731625Y-62125008D01*
X149738580Y-62144194D01*
G37*
G36*
X155965990Y-56458082D02*
G01*
X156000918Y-56482988D01*
X156037664Y-56517465D01*
X156062570Y-56549443D01*
X156066316Y-56560709D01*
X156052437Y-56571909D01*
X156018964Y-56557244D01*
X155978832Y-56522766D01*
X155950697Y-56482555D01*
X155946538Y-56454823D01*
X155965990Y-56458082D01*
G37*
G36*
X145723077Y-58652375D02*
G01*
X145719695Y-58677870D01*
X145678762Y-58714476D01*
X145673152Y-58718227D01*
X145623700Y-58747533D01*
X145600415Y-58750140D01*
X145594394Y-58726843D01*
X145594386Y-58725245D01*
X145613721Y-58678481D01*
X145659933Y-58647506D01*
X145687965Y-58642807D01*
X145723077Y-58652375D01*
G37*
G36*
X149052523Y-56539564D02*
G01*
X149048410Y-56547458D01*
X149030311Y-56603792D01*
X149025614Y-56647219D01*
X149017243Y-56689772D01*
X149000548Y-56704386D01*
X148985328Y-56685039D01*
X148989408Y-56634759D01*
X148999171Y-56581004D01*
X149003332Y-56548294D01*
X149003334Y-56548020D01*
X149021016Y-56526227D01*
X149037270Y-56517885D01*
X149059481Y-56514869D01*
X149052523Y-56539564D01*
G37*
G36*
X156306952Y-56330146D02*
G01*
X156306891Y-56349491D01*
X156286802Y-56392275D01*
X156261272Y-56438002D01*
X156221864Y-56498398D01*
X156193144Y-56525165D01*
X156178724Y-56515458D01*
X156177719Y-56503860D01*
X156192101Y-56473122D01*
X156222281Y-56437017D01*
X156255330Y-56392906D01*
X156266841Y-56359035D01*
X156278873Y-56329385D01*
X156289123Y-56325614D01*
X156306952Y-56330146D01*
G37*
G36*
X149582632Y-62962724D02*
G01*
X149564431Y-62984002D01*
X149519249Y-63012194D01*
X149504649Y-63019472D01*
X149454685Y-63048143D01*
X149428031Y-63073111D01*
X149426667Y-63077712D01*
X149409680Y-63098338D01*
X149404386Y-63098947D01*
X149386435Y-63080238D01*
X149382105Y-63053249D01*
X149402187Y-63009688D01*
X149459372Y-62975267D01*
X149532051Y-62948953D01*
X149571548Y-62945604D01*
X149582632Y-62962724D01*
G37*
G36*
X166683930Y-59370523D02*
G01*
X166696160Y-59400065D01*
X166707989Y-59462050D01*
X166720687Y-59561797D01*
X166724367Y-59595307D01*
X166725666Y-59658799D01*
X166714470Y-59689183D01*
X166693421Y-59681856D01*
X166682896Y-59667437D01*
X166670987Y-59628704D01*
X166662489Y-59565764D01*
X166658038Y-59493458D01*
X166658273Y-59426628D01*
X166663833Y-59380113D01*
X166670028Y-59368105D01*
X166683930Y-59370523D01*
G37*
G36*
X154392699Y-58326937D02*
G01*
X154563676Y-58330905D01*
X154704399Y-58344261D01*
X154828652Y-58369564D01*
X154950217Y-58409373D01*
X155041403Y-58447378D01*
X155132982Y-58491908D01*
X155185705Y-58529270D01*
X155203421Y-58565041D01*
X155189973Y-58604800D01*
X155168951Y-58632420D01*
X155129326Y-58671668D01*
X155097559Y-58679367D01*
X155069289Y-58668087D01*
X155018870Y-58652882D01*
X154946469Y-58643870D01*
X154913353Y-58642807D01*
X154838673Y-58647853D01*
X154788067Y-58667869D01*
X154747326Y-58704079D01*
X154681537Y-58787081D01*
X154637974Y-58876867D01*
X154612163Y-58985987D01*
X154600117Y-59116791D01*
X154600120Y-59279887D01*
X154619883Y-59410477D01*
X154661563Y-59516995D01*
X154725096Y-59605429D01*
X154774350Y-59655353D01*
X154817447Y-59680470D01*
X154873897Y-59689171D01*
X154921755Y-59690000D01*
X154998165Y-59685210D01*
X155061293Y-59672967D01*
X155084458Y-59663490D01*
X155135240Y-59652593D01*
X155178560Y-59681328D01*
X155204248Y-59736183D01*
X155194100Y-59780936D01*
X155144428Y-59827916D01*
X155060050Y-59874887D01*
X154945778Y-59919616D01*
X154806429Y-59959869D01*
X154651491Y-59992590D01*
X154525658Y-60012163D01*
X154423768Y-60019751D01*
X154326809Y-60015227D01*
X154215767Y-59998459D01*
X154168177Y-59989300D01*
X154007508Y-59944426D01*
X153858245Y-59878511D01*
X153730030Y-59797092D01*
X153632504Y-59705704D01*
X153602167Y-59664343D01*
X153524088Y-59515774D01*
X153478968Y-59363953D01*
X153463165Y-59194568D01*
X153464118Y-59121842D01*
X153486108Y-58929150D01*
X153538553Y-58767108D01*
X153624325Y-58631372D01*
X153746297Y-58517596D01*
X153907341Y-58421431D01*
X153935945Y-58407841D01*
X154010393Y-58374221D01*
X154069416Y-58351482D01*
X154124970Y-58337500D01*
X154189014Y-58330161D01*
X154273504Y-58327345D01*
X154390397Y-58326935D01*
X154392699Y-58326937D01*
G37*
G36*
X162901648Y-60477994D02*
G01*
X163021692Y-60499082D01*
X163143753Y-60529774D01*
X163259918Y-60567265D01*
X163362274Y-60608754D01*
X163442910Y-60651440D01*
X163493912Y-60692517D01*
X163508070Y-60723113D01*
X163490471Y-60766589D01*
X163447543Y-60801946D01*
X163394087Y-60822857D01*
X163344912Y-60822996D01*
X163318684Y-60804035D01*
X163282340Y-60783086D01*
X163221510Y-60780626D01*
X163151267Y-60794632D01*
X163086687Y-60823078D01*
X163065901Y-60837976D01*
X162988106Y-60922522D01*
X162935791Y-61027075D01*
X162906503Y-61158618D01*
X162897773Y-61316491D01*
X162907139Y-61479580D01*
X162936967Y-61609168D01*
X162989856Y-61712570D01*
X163068226Y-61796962D01*
X163117277Y-61830198D01*
X163170635Y-61844936D01*
X163240035Y-61841978D01*
X163337210Y-61822133D01*
X163358456Y-61816855D01*
X163422623Y-61818915D01*
X163476900Y-61850704D01*
X163506323Y-61902019D01*
X163508069Y-61918869D01*
X163487755Y-61953112D01*
X163432389Y-61993656D01*
X163350344Y-62036783D01*
X163249991Y-62078777D01*
X163139699Y-62115920D01*
X163027841Y-62144497D01*
X162979630Y-62153505D01*
X162853707Y-62171942D01*
X162753173Y-62180291D01*
X162660016Y-62178538D01*
X162556217Y-62166667D01*
X162472018Y-62153093D01*
X162325439Y-62115161D01*
X162179583Y-62054894D01*
X162049785Y-61979652D01*
X161962911Y-61908794D01*
X161910526Y-61845507D01*
X161855676Y-61762544D01*
X161822804Y-61702588D01*
X161790108Y-61628653D01*
X161769561Y-61558667D01*
X161757760Y-61476555D01*
X161751308Y-61366241D01*
X161751234Y-61364251D01*
X161750676Y-61246838D01*
X161757074Y-61139446D01*
X161769396Y-61058395D01*
X161770926Y-61052321D01*
X161836779Y-60882584D01*
X161936372Y-60741932D01*
X162069674Y-60630389D01*
X162236651Y-60547971D01*
X162437267Y-60494698D01*
X162671491Y-60470588D01*
X162791534Y-60469312D01*
X162901648Y-60477994D01*
G37*
G36*
X157525243Y-59813255D02*
G01*
X157685841Y-59816650D01*
X157834931Y-59825567D01*
X157965429Y-59839142D01*
X158070247Y-59856516D01*
X158142300Y-59876827D01*
X158168485Y-59891442D01*
X158180312Y-59927230D01*
X158161345Y-59973080D01*
X158119071Y-60016242D01*
X158083239Y-60036570D01*
X158032141Y-60067044D01*
X157976003Y-60113411D01*
X157926951Y-60163915D01*
X157897106Y-60206797D01*
X157893164Y-60220876D01*
X157889751Y-60249169D01*
X157881017Y-60308036D01*
X157870280Y-60375865D01*
X157861467Y-60435662D01*
X157852439Y-60509184D01*
X157842744Y-60601302D01*
X157831936Y-60716892D01*
X157819565Y-60860824D01*
X157805182Y-61037972D01*
X157788338Y-61253210D01*
X157782608Y-61327632D01*
X157770401Y-61451291D01*
X157754449Y-61561710D01*
X157736661Y-61647122D01*
X157724823Y-61684123D01*
X157637458Y-61841726D01*
X157520335Y-61966746D01*
X157372505Y-62059935D01*
X157193017Y-62122044D01*
X157162184Y-62128962D01*
X157081769Y-62144869D01*
X157014365Y-62154558D01*
X156948796Y-62158029D01*
X156873888Y-62155284D01*
X156778468Y-62146327D01*
X156651363Y-62131158D01*
X156634474Y-62129048D01*
X156534985Y-62115954D01*
X156448518Y-62103406D01*
X156387066Y-62093206D01*
X156367105Y-62088938D01*
X156310529Y-62074840D01*
X156261272Y-62063812D01*
X156218620Y-62047724D01*
X156202054Y-62013845D01*
X156200000Y-61975972D01*
X156202736Y-61933540D01*
X156217635Y-61906278D01*
X156254738Y-61885054D01*
X156324082Y-61860735D01*
X156328114Y-61859423D01*
X156405106Y-61830646D01*
X156452789Y-61799831D01*
X156485560Y-61756269D01*
X156497425Y-61733478D01*
X156518694Y-61675501D01*
X156540089Y-61587299D01*
X156561938Y-61466573D01*
X156584569Y-61311026D01*
X156608309Y-61118359D01*
X156633485Y-60886274D01*
X156660429Y-60612474D01*
X156666495Y-60547807D01*
X156678023Y-60442285D01*
X156691729Y-60344160D01*
X156705433Y-60268109D01*
X156711880Y-60242010D01*
X156774318Y-60109092D01*
X156876625Y-59994448D01*
X157017357Y-59899649D01*
X157035068Y-59890526D01*
X157190574Y-59812544D01*
X157525243Y-59813255D01*
G37*
G36*
X156357607Y-58322670D02*
G01*
X156447854Y-58325229D01*
X156514788Y-58331233D01*
X156569031Y-58342465D01*
X156621209Y-58360705D01*
X156681941Y-58387734D01*
X156712457Y-58402089D01*
X156874676Y-58497225D01*
X156998890Y-58612864D01*
X157086883Y-58751891D01*
X157140441Y-58917197D01*
X157161352Y-59111667D01*
X157161664Y-59128293D01*
X157146954Y-59339428D01*
X157097555Y-59524194D01*
X157014275Y-59681377D01*
X156897927Y-59809766D01*
X156749320Y-59908147D01*
X156601440Y-59966330D01*
X156515623Y-59983160D01*
X156399436Y-59994279D01*
X156266735Y-59999442D01*
X156131375Y-59998404D01*
X156007211Y-59990920D01*
X155916360Y-59978445D01*
X155759243Y-59930313D01*
X155598754Y-59850171D01*
X155517445Y-59796875D01*
X155441697Y-59729927D01*
X155376472Y-59641484D01*
X155335324Y-59567456D01*
X155300872Y-59498269D01*
X155278100Y-59443001D01*
X155264590Y-59389170D01*
X155257924Y-59324296D01*
X155255684Y-59235898D01*
X155255532Y-59182741D01*
X156436479Y-59182741D01*
X156439944Y-59291163D01*
X156447118Y-59387641D01*
X156457681Y-59460231D01*
X156467249Y-59491082D01*
X156531950Y-59584964D01*
X156606755Y-59635505D01*
X156692032Y-59642855D01*
X156775623Y-59613918D01*
X156844724Y-59553182D01*
X156894450Y-59452728D01*
X156924639Y-59313049D01*
X156935131Y-59134634D01*
X156935139Y-59130214D01*
X156925647Y-58982709D01*
X156898270Y-58859651D01*
X156854999Y-58767873D01*
X156817559Y-58726855D01*
X156759237Y-58700130D01*
X156682687Y-58688001D01*
X156675446Y-58687864D01*
X156606027Y-58694519D01*
X156556689Y-58722335D01*
X156525938Y-58754865D01*
X156482428Y-58823342D01*
X156452938Y-58899200D01*
X156451545Y-58905261D01*
X156441960Y-58977845D01*
X156437046Y-59074320D01*
X156436479Y-59182741D01*
X155255532Y-59182741D01*
X155255454Y-59155263D01*
X155256295Y-59041088D01*
X155260126Y-58959809D01*
X155268824Y-58899774D01*
X155284267Y-58849331D01*
X155308332Y-58796829D01*
X155315467Y-58782884D01*
X155408020Y-58634377D01*
X155518523Y-58518355D01*
X155655669Y-58427394D01*
X155810088Y-58360452D01*
X155868918Y-58343042D01*
X155937412Y-58331393D01*
X156025181Y-58324626D01*
X156141835Y-58321862D01*
X156233421Y-58321777D01*
X156357607Y-58322670D01*
G37*
G36*
X160926403Y-60506167D02*
G01*
X161027917Y-60508870D01*
X161103853Y-60514580D01*
X161163700Y-60524321D01*
X161216945Y-60539120D01*
X161265115Y-60556843D01*
X161403191Y-60626059D01*
X161507292Y-60714328D01*
X161586609Y-60829625D01*
X161592519Y-60840961D01*
X161610150Y-60877180D01*
X161623672Y-60912248D01*
X161633734Y-60952682D01*
X161640989Y-61004998D01*
X161646085Y-61075712D01*
X161649678Y-61171342D01*
X161652415Y-61298404D01*
X161654950Y-61463412D01*
X161654988Y-61466112D01*
X161662345Y-61983365D01*
X161549394Y-62096316D01*
X160985794Y-62093875D01*
X160826227Y-62092481D01*
X160676641Y-62089860D01*
X160544337Y-62086242D01*
X160436616Y-62081858D01*
X160360781Y-62076940D01*
X160329589Y-62073112D01*
X160176056Y-62023688D01*
X160051107Y-61944549D01*
X159957838Y-61840399D01*
X159899343Y-61715939D01*
X159878719Y-61575877D01*
X159884019Y-61536545D01*
X160127249Y-61536545D01*
X160128854Y-61634275D01*
X160150734Y-61722330D01*
X160203104Y-61796949D01*
X160283776Y-61856489D01*
X160376743Y-61890565D01*
X160416623Y-61894805D01*
X160477895Y-61895789D01*
X160477895Y-61572719D01*
X160477603Y-61446803D01*
X160476094Y-61358708D01*
X160472420Y-61301698D01*
X160465635Y-61269034D01*
X160454789Y-61253979D01*
X160438935Y-61249793D01*
X160432446Y-61249649D01*
X160371685Y-61263061D01*
X160296009Y-61297051D01*
X160223501Y-61342251D01*
X160179427Y-61380737D01*
X160144582Y-61446364D01*
X160127249Y-61536545D01*
X159884019Y-61536545D01*
X159899062Y-61424913D01*
X159900204Y-61420748D01*
X159951375Y-61313223D01*
X160037210Y-61215864D01*
X160147877Y-61136258D01*
X160273553Y-61081995D01*
X160362956Y-61063399D01*
X160425009Y-61053914D01*
X160466200Y-61043033D01*
X160472931Y-61039233D01*
X160481474Y-61007307D01*
X160482063Y-60948972D01*
X160476154Y-60881378D01*
X160465201Y-60821673D01*
X160451610Y-60788070D01*
X160407814Y-60765653D01*
X160339173Y-60760768D01*
X160261402Y-60772484D01*
X160190213Y-60799873D01*
X160183215Y-60803952D01*
X160125611Y-60833333D01*
X160078230Y-60848104D01*
X160072536Y-60848513D01*
X160034830Y-60831416D01*
X159994588Y-60791896D01*
X159968329Y-60747815D01*
X159965439Y-60732686D01*
X159984375Y-60710361D01*
X160034332Y-60676746D01*
X160105036Y-60637298D01*
X160186212Y-60597468D01*
X160267587Y-60562711D01*
X160321930Y-60543452D01*
X160387529Y-60527032D01*
X160466676Y-60515759D01*
X160568084Y-60508923D01*
X160700462Y-60505818D01*
X160789824Y-60505444D01*
X160926403Y-60506167D01*
G37*
G36*
X159052672Y-60474541D02*
G01*
X159130026Y-60484287D01*
X159210605Y-60502966D01*
X159286704Y-60525146D01*
X159455015Y-60592746D01*
X159589213Y-60684562D01*
X159695394Y-60805597D01*
X159756598Y-60910962D01*
X159784102Y-60970156D01*
X159802133Y-61022501D01*
X159812645Y-61080014D01*
X159817593Y-61154710D01*
X159818930Y-61258606D01*
X159818924Y-61294211D01*
X159813318Y-61454080D01*
X159794777Y-61580889D01*
X159759902Y-61685108D01*
X159705294Y-61777206D01*
X159635459Y-61859441D01*
X159569056Y-61916434D01*
X159482822Y-61973504D01*
X159390036Y-62023532D01*
X159303981Y-62059395D01*
X159237939Y-62073975D01*
X159235194Y-62074017D01*
X159198550Y-62083356D01*
X159172206Y-62114830D01*
X159154783Y-62173681D01*
X159144902Y-62265146D01*
X159141182Y-62394464D01*
X159141053Y-62431406D01*
X159141053Y-62674469D01*
X159075317Y-62708463D01*
X159041626Y-62721176D01*
X158992865Y-62730322D01*
X158922555Y-62736339D01*
X158824214Y-62739667D01*
X158691361Y-62740745D01*
X158601852Y-62740541D01*
X158467119Y-62738916D01*
X158344019Y-62735583D01*
X158241030Y-62730915D01*
X158166627Y-62725287D01*
X158131427Y-62719805D01*
X158098589Y-62710102D01*
X158071972Y-62699755D01*
X158050922Y-62684352D01*
X158034787Y-62659476D01*
X158022917Y-62620714D01*
X158014658Y-62563649D01*
X158009360Y-62483867D01*
X158006371Y-62376953D01*
X158005039Y-62238492D01*
X158004711Y-62064068D01*
X158004737Y-61861623D01*
X158004835Y-61652969D01*
X158005311Y-61483794D01*
X158006443Y-61349013D01*
X158008504Y-61243540D01*
X158011772Y-61162295D01*
X158016521Y-61100193D01*
X158023027Y-61052151D01*
X158031565Y-61013084D01*
X158042113Y-60978878D01*
X159150780Y-60978878D01*
X159150970Y-61123878D01*
X159152386Y-61298050D01*
X159154068Y-61454935D01*
X159155755Y-61596523D01*
X159157362Y-61716906D01*
X159158807Y-61810178D01*
X159160004Y-61870434D01*
X159160839Y-61891721D01*
X159182128Y-61891981D01*
X159231295Y-61876672D01*
X159296289Y-61850010D01*
X159341579Y-61828459D01*
X159439246Y-61762904D01*
X159510172Y-61675619D01*
X159556666Y-61561504D01*
X159581036Y-61415461D01*
X159586178Y-61287925D01*
X159581955Y-61147318D01*
X159566157Y-61039275D01*
X159535168Y-60952514D01*
X159485372Y-60875754D01*
X159436572Y-60821094D01*
X159364145Y-60760364D01*
X159286613Y-60716892D01*
X159216549Y-60696522D01*
X159176242Y-60700010D01*
X159167028Y-60711346D01*
X159160055Y-60740387D01*
X159155143Y-60791646D01*
X159152111Y-60869638D01*
X159150780Y-60978878D01*
X158042113Y-60978878D01*
X158042412Y-60977909D01*
X158054416Y-60945272D01*
X158131212Y-60801990D01*
X158241447Y-60675698D01*
X158374783Y-60576813D01*
X158461492Y-60535004D01*
X158542038Y-60508395D01*
X158628968Y-60490722D01*
X158735913Y-60479832D01*
X158844107Y-60474590D01*
X158962661Y-60471913D01*
X159052672Y-60474541D01*
G37*
G36*
X146528470Y-57680751D02*
G01*
X146717959Y-57684973D01*
X146719562Y-57685014D01*
X146891653Y-57689841D01*
X147025828Y-57694653D01*
X147128726Y-57700089D01*
X147206988Y-57706784D01*
X147267257Y-57715377D01*
X147316169Y-57726503D01*
X147360366Y-57740801D01*
X147380430Y-57748417D01*
X147546362Y-57834894D01*
X147679030Y-57949536D01*
X147776933Y-58089256D01*
X147838577Y-58250971D01*
X147862462Y-58431594D01*
X147847093Y-58628041D01*
X147835473Y-58685799D01*
X147810865Y-58779669D01*
X147782166Y-58868343D01*
X147756082Y-58931540D01*
X147718656Y-58989056D01*
X147666430Y-59050734D01*
X147610046Y-59105962D01*
X147560147Y-59144133D01*
X147531641Y-59155263D01*
X147534730Y-59168971D01*
X147564223Y-59204795D01*
X147610398Y-59251707D01*
X147664968Y-59306120D01*
X147695072Y-59348236D01*
X147707972Y-59395351D01*
X147710933Y-59464764D01*
X147710970Y-59491225D01*
X147695698Y-59626266D01*
X147648282Y-59733051D01*
X147566051Y-59814905D01*
X147446339Y-59875153D01*
X147387983Y-59893773D01*
X147347224Y-59899469D01*
X147270221Y-59905166D01*
X147164587Y-59910676D01*
X147037939Y-59915814D01*
X146897890Y-59920394D01*
X146752054Y-59924230D01*
X146608047Y-59927134D01*
X146473483Y-59928921D01*
X146355975Y-59929406D01*
X146263141Y-59928400D01*
X146202593Y-59925719D01*
X146184825Y-59923199D01*
X146147772Y-59913854D01*
X146101915Y-59903352D01*
X146075200Y-59896677D01*
X146052937Y-59886928D01*
X146034749Y-59870318D01*
X146020262Y-59843060D01*
X146009098Y-59801366D01*
X146000883Y-59741449D01*
X145998875Y-59712281D01*
X147196924Y-59712281D01*
X147264251Y-59712281D01*
X147338831Y-59692663D01*
X147399545Y-59651009D01*
X147459269Y-59572801D01*
X147480310Y-59509172D01*
X147484427Y-59455180D01*
X147469411Y-59417567D01*
X147426739Y-59378096D01*
X147414721Y-59368820D01*
X147350791Y-59329995D01*
X147287924Y-59306801D01*
X147273037Y-59304560D01*
X147209737Y-59300089D01*
X147203331Y-59506184D01*
X147196924Y-59712281D01*
X145998875Y-59712281D01*
X145995240Y-59659522D01*
X145991793Y-59551797D01*
X145990166Y-59414487D01*
X145989984Y-59243804D01*
X145990871Y-59035961D01*
X145992171Y-58830655D01*
X147199333Y-58830655D01*
X147201307Y-58935751D01*
X147205454Y-59010487D01*
X147211771Y-59048489D01*
X147213450Y-59051287D01*
X147250344Y-59065296D01*
X147306886Y-59048679D01*
X147376285Y-59008163D01*
X147441920Y-58951552D01*
X147498350Y-58870611D01*
X147531772Y-58805135D01*
X147564325Y-58730941D01*
X147584480Y-58667842D01*
X147595131Y-58600422D01*
X147599183Y-58513264D01*
X147599649Y-58444141D01*
X147598635Y-58341384D01*
X147593829Y-58270322D01*
X147582591Y-58218101D01*
X147562277Y-58171869D01*
X147533957Y-58124612D01*
X147474297Y-58051754D01*
X147398875Y-57988661D01*
X147321169Y-57944870D01*
X147258640Y-57929825D01*
X147245267Y-57939517D01*
X147234728Y-57972361D01*
X147226182Y-58034005D01*
X147218782Y-58130095D01*
X147213191Y-58234137D01*
X147206459Y-58396939D01*
X147201907Y-58554877D01*
X147199532Y-58701572D01*
X147199333Y-58830655D01*
X145992171Y-58830655D01*
X145992368Y-58799591D01*
X145994480Y-58556781D01*
X145997368Y-58341056D01*
X146000948Y-58155272D01*
X146005144Y-58002288D01*
X146009876Y-57884963D01*
X146015061Y-57806157D01*
X146020622Y-57768728D01*
X146021272Y-57767222D01*
X146041429Y-57738262D01*
X146070573Y-57715834D01*
X146113772Y-57699336D01*
X146176093Y-57688176D01*
X146262605Y-57681757D01*
X146378375Y-57679480D01*
X146528470Y-57680751D01*
G37*
G36*
X150649618Y-56809944D02*
G01*
X150900307Y-56812135D01*
X151147027Y-56815640D01*
X151383718Y-56820432D01*
X151604315Y-56826481D01*
X151802757Y-56833759D01*
X151972980Y-56842237D01*
X152044649Y-56846849D01*
X152196113Y-56857888D01*
X152334016Y-56868577D01*
X152451719Y-56878351D01*
X152542583Y-56886642D01*
X152599971Y-56892886D01*
X152616228Y-56895592D01*
X152652150Y-56901649D01*
X152722198Y-56909904D01*
X152816061Y-56919244D01*
X152917018Y-56928038D01*
X153045518Y-56939020D01*
X153180967Y-56951453D01*
X153304135Y-56963532D01*
X153370351Y-56970547D01*
X153485496Y-56983221D01*
X153619596Y-56997830D01*
X153747294Y-57011610D01*
X153771404Y-57014192D01*
X153965262Y-57035068D01*
X154119304Y-57052043D01*
X154238052Y-57065672D01*
X154326027Y-57076506D01*
X154387750Y-57085102D01*
X154427746Y-57092011D01*
X154448447Y-57097102D01*
X154491349Y-57105936D01*
X154569060Y-57117543D01*
X154672004Y-57130715D01*
X154790607Y-57144242D01*
X154915295Y-57156914D01*
X154941141Y-57159333D01*
X155007249Y-57166688D01*
X155098850Y-57178463D01*
X155197400Y-57192262D01*
X155208509Y-57193895D01*
X155317036Y-57209647D01*
X155430621Y-57225669D01*
X155524779Y-57238509D01*
X155525245Y-57238571D01*
X155621598Y-57252964D01*
X155719406Y-57270125D01*
X155770333Y-57280455D01*
X155855719Y-57297634D01*
X155977200Y-57319673D01*
X156126747Y-57345210D01*
X156296328Y-57372880D01*
X156477916Y-57401317D01*
X156511930Y-57406515D01*
X156683512Y-57434249D01*
X156835252Y-57461973D01*
X156958655Y-57488038D01*
X157037108Y-57508308D01*
X157103890Y-57523265D01*
X157158070Y-57528772D01*
X157218103Y-57535608D01*
X157279032Y-57550301D01*
X157332850Y-57564577D01*
X157415095Y-57583395D01*
X157510361Y-57603279D01*
X157536842Y-57608481D01*
X157638725Y-57628402D01*
X157737468Y-57648052D01*
X157814693Y-57663769D01*
X157826491Y-57666234D01*
X157916930Y-57684960D01*
X158011298Y-57704062D01*
X158027018Y-57707187D01*
X158117119Y-57725931D01*
X158211257Y-57746801D01*
X158227544Y-57750581D01*
X158317632Y-57770733D01*
X158411760Y-57790353D01*
X158428070Y-57793562D01*
X158481818Y-57804957D01*
X158562309Y-57823592D01*
X158672506Y-57850195D01*
X158815371Y-57885495D01*
X158993867Y-57930221D01*
X159210955Y-57985102D01*
X159341579Y-58018277D01*
X159514152Y-58061650D01*
X159645272Y-58093446D01*
X159736420Y-58114019D01*
X159753772Y-58117580D01*
X159796064Y-58127975D01*
X159866865Y-58147297D01*
X159951998Y-58171661D01*
X159965439Y-58175601D01*
X160051019Y-58200264D01*
X160165584Y-58232558D01*
X160295076Y-58268557D01*
X160425445Y-58304332D01*
X160444474Y-58309508D01*
X160576673Y-58346003D01*
X160712908Y-58384594D01*
X160838041Y-58420937D01*
X160936944Y-58450688D01*
X160945790Y-58453439D01*
X161140595Y-58514033D01*
X161328557Y-58571841D01*
X161529702Y-58633006D01*
X161636491Y-58665263D01*
X161726615Y-58693513D01*
X161847521Y-58732957D01*
X161988010Y-58779857D01*
X162136877Y-58830476D01*
X162271491Y-58877080D01*
X162413034Y-58926454D01*
X162551515Y-58974571D01*
X162677177Y-59018053D01*
X162780261Y-59053524D01*
X162850790Y-59077532D01*
X162937668Y-59108045D01*
X163044346Y-59147483D01*
X163163329Y-59192854D01*
X163287125Y-59241164D01*
X163408241Y-59289421D01*
X163519182Y-59334634D01*
X163612455Y-59373809D01*
X163680567Y-59403955D01*
X163716024Y-59422079D01*
X163718623Y-59424082D01*
X163757824Y-59443865D01*
X163767564Y-59444912D01*
X163802903Y-59454558D01*
X163871921Y-59481572D01*
X163968603Y-59523070D01*
X164086935Y-59576167D01*
X164220903Y-59637980D01*
X164364493Y-59705619D01*
X164511690Y-59776204D01*
X164656481Y-59846849D01*
X164792850Y-59914668D01*
X164914783Y-59976780D01*
X165016267Y-60030296D01*
X165091288Y-60072333D01*
X165133830Y-60100006D01*
X165134561Y-60100600D01*
X165172746Y-60127229D01*
X165233063Y-60164669D01*
X165270655Y-60186632D01*
X165389726Y-60261607D01*
X165524510Y-60357743D01*
X165661012Y-60464167D01*
X165785235Y-60570007D01*
X165876243Y-60657099D01*
X165994882Y-60799719D01*
X166083811Y-60947349D01*
X166138045Y-61091100D01*
X166148409Y-61142124D01*
X166145139Y-61264640D01*
X166102357Y-61390875D01*
X166023890Y-61514181D01*
X165913565Y-61627912D01*
X165833649Y-61688805D01*
X165580933Y-61841959D01*
X165303774Y-61973689D01*
X164993545Y-62088035D01*
X164956316Y-62099951D01*
X164868671Y-62126806D01*
X164798211Y-62144944D01*
X164732721Y-62155700D01*
X164659987Y-62160409D01*
X164567795Y-62160408D01*
X164443929Y-62157031D01*
X164436450Y-62156789D01*
X164308694Y-62153501D01*
X164219109Y-62153543D01*
X164161399Y-62157314D01*
X164129268Y-62165218D01*
X164116566Y-62177271D01*
X164090834Y-62205882D01*
X164060072Y-62193843D01*
X164053948Y-62185439D01*
X164050582Y-62148058D01*
X164053802Y-62141113D01*
X164042571Y-62121375D01*
X163999659Y-62092228D01*
X163945313Y-62065064D01*
X163788512Y-61972404D01*
X163659702Y-61847429D01*
X163564300Y-61695439D01*
X163561606Y-61689636D01*
X163533474Y-61624700D01*
X163515068Y-61568205D01*
X163504378Y-61507626D01*
X163499390Y-61430435D01*
X163498095Y-61324108D01*
X163498108Y-61294211D01*
X163498881Y-61182373D01*
X163500927Y-61135240D01*
X164688948Y-61135240D01*
X164695181Y-61188378D01*
X164718734Y-61222317D01*
X164766884Y-61240472D01*
X164846908Y-61246259D01*
X164922597Y-61244895D01*
X165011368Y-61240924D01*
X165065063Y-61234771D01*
X165093157Y-61223326D01*
X165105125Y-61203482D01*
X165108862Y-61183786D01*
X165105153Y-61104607D01*
X165080215Y-61012962D01*
X165041112Y-60930809D01*
X165017156Y-60898728D01*
X164953157Y-60855500D01*
X164883697Y-60850067D01*
X164815718Y-60877424D01*
X164756167Y-60932567D01*
X164711988Y-61010493D01*
X164690124Y-61106195D01*
X164688948Y-61135240D01*
X163500927Y-61135240D01*
X163502325Y-61103031D01*
X163510753Y-61044115D01*
X163526475Y-60993563D01*
X163551803Y-60939307D01*
X163574233Y-60896860D01*
X163674875Y-60748505D01*
X163801032Y-60632886D01*
X163954754Y-60548988D01*
X164138089Y-60495793D01*
X164353084Y-60472285D01*
X164432719Y-60470871D01*
X164653068Y-60481404D01*
X164837307Y-60512683D01*
X164989369Y-60565909D01*
X165113190Y-60642282D01*
X165172274Y-60696249D01*
X165256090Y-60808978D01*
X165325091Y-60950975D01*
X165373319Y-61107840D01*
X165392461Y-61228661D01*
X165399004Y-61315028D01*
X165397331Y-61378127D01*
X165381719Y-61421611D01*
X165346447Y-61449131D01*
X165285792Y-61464339D01*
X165194031Y-61470886D01*
X165065443Y-61472425D01*
X165010426Y-61472456D01*
X164879157Y-61472674D01*
X164787039Y-61475189D01*
X164728664Y-61482795D01*
X164698625Y-61498285D01*
X164691514Y-61524451D01*
X164701922Y-61564086D01*
X164724444Y-61619984D01*
X164724505Y-61620130D01*
X164790000Y-61737803D01*
X164875895Y-61817286D01*
X164986602Y-61861487D01*
X165108910Y-61873509D01*
X165179707Y-61870355D01*
X165243957Y-61858157D01*
X165315350Y-61832805D01*
X165407576Y-61790193D01*
X165439693Y-61774262D01*
X165621355Y-61674603D01*
X165761959Y-61577004D01*
X165864696Y-61478267D01*
X165932758Y-61375202D01*
X165969338Y-61264615D01*
X165973262Y-61240557D01*
X165967283Y-61122685D01*
X165919231Y-60996474D01*
X165830459Y-60863581D01*
X165702318Y-60725660D01*
X165536161Y-60584371D01*
X165333340Y-60441368D01*
X165306789Y-60424291D01*
X165170933Y-60342588D01*
X165002898Y-60249238D01*
X164811989Y-60148869D01*
X164607510Y-60046107D01*
X164398766Y-59945580D01*
X164195060Y-59851913D01*
X164005699Y-59769735D01*
X163920263Y-59734783D01*
X163686730Y-59644203D01*
X163424728Y-59547154D01*
X163142686Y-59446454D01*
X162849038Y-59344916D01*
X162552213Y-59245359D01*
X162260644Y-59150598D01*
X161982759Y-59063450D01*
X161726992Y-58986729D01*
X161501774Y-58923253D01*
X161447105Y-58908701D01*
X161341296Y-58880497D01*
X161220778Y-58847694D01*
X161124035Y-58820858D01*
X160954142Y-58774085D01*
X160760881Y-58722435D01*
X160564272Y-58671185D01*
X160384336Y-58625611D01*
X160366491Y-58621188D01*
X160263859Y-58595551D01*
X160158399Y-58568784D01*
X160076842Y-58547698D01*
X159992545Y-58526709D01*
X159886719Y-58501942D01*
X159781497Y-58478569D01*
X159776053Y-58477402D01*
X159666699Y-58453651D01*
X159550879Y-58427919D01*
X159453546Y-58405749D01*
X159452983Y-58405618D01*
X159361186Y-58384274D01*
X159272274Y-58363599D01*
X159219036Y-58351217D01*
X159149615Y-58335961D01*
X159047581Y-58314673D01*
X158922336Y-58289205D01*
X158783286Y-58261410D01*
X158639836Y-58233140D01*
X158501391Y-58206247D01*
X158377356Y-58182583D01*
X158277137Y-58164000D01*
X158210138Y-58152350D01*
X158205264Y-58151581D01*
X158107966Y-58135807D01*
X158000807Y-58117450D01*
X157954605Y-58109184D01*
X157659714Y-58055479D01*
X157453290Y-58018094D01*
X157360059Y-58002189D01*
X157250078Y-57984739D01*
X157169211Y-57972718D01*
X157066849Y-57957739D01*
X156960819Y-57941630D01*
X156890702Y-57930551D01*
X156809061Y-57918273D01*
X156703301Y-57903719D01*
X156593581Y-57889641D01*
X156571266Y-57886923D01*
X156481086Y-57875026D01*
X156407758Y-57863416D01*
X156362600Y-57853968D01*
X156354704Y-57851062D01*
X156324744Y-57842757D01*
X156262299Y-57831330D01*
X156179136Y-57818858D01*
X156150542Y-57815046D01*
X156042125Y-57800725D01*
X155930225Y-57785459D01*
X155837833Y-57772391D01*
X155832369Y-57771592D01*
X155659782Y-57747258D01*
X155459031Y-57720533D01*
X155241622Y-57692823D01*
X155019065Y-57665531D01*
X154802868Y-57640060D01*
X154604540Y-57617814D01*
X154435590Y-57600197D01*
X154395263Y-57596299D01*
X154278828Y-57585226D01*
X154139661Y-57571887D01*
X153999382Y-57558359D01*
X153927369Y-57551375D01*
X153742827Y-57533726D01*
X153579898Y-57518959D01*
X153429639Y-57506475D01*
X153283108Y-57495679D01*
X153131362Y-57485970D01*
X152965457Y-57476752D01*
X152776451Y-57467427D01*
X152555401Y-57457398D01*
X152456842Y-57453091D01*
X152032133Y-57436495D01*
X151644916Y-57425327D01*
X151288457Y-57419536D01*
X150956026Y-57419072D01*
X150640889Y-57423883D01*
X150336315Y-57433919D01*
X150273334Y-57436674D01*
X150046210Y-57447792D01*
X149854044Y-57459239D01*
X149687238Y-57472035D01*
X149536195Y-57487202D01*
X149391317Y-57505760D01*
X149243005Y-57528731D01*
X149081662Y-57557135D01*
X149003334Y-57571756D01*
X148901191Y-57595190D01*
X148799654Y-57625505D01*
X148707851Y-57659114D01*
X148634905Y-57692433D01*
X148589940Y-57721874D01*
X148580000Y-57738125D01*
X148598285Y-57776783D01*
X148648774Y-57832852D01*
X148724915Y-57901745D01*
X148820159Y-57978874D01*
X148927955Y-58059654D01*
X149041753Y-58139499D01*
X149155003Y-58213818D01*
X149261155Y-58278028D01*
X149353657Y-58327542D01*
X149425960Y-58357773D01*
X149471513Y-58364133D01*
X149473298Y-58363641D01*
X149508196Y-58343604D01*
X149515790Y-58329376D01*
X149534271Y-58311943D01*
X149556183Y-58308596D01*
X149600731Y-58325291D01*
X149650349Y-58366037D01*
X149691942Y-58416826D01*
X149712412Y-58463647D01*
X149712341Y-58475629D01*
X149722825Y-58519153D01*
X149740309Y-58537041D01*
X149770599Y-58543650D01*
X149815322Y-58527567D01*
X149883441Y-58485412D01*
X149891083Y-58480184D01*
X150053785Y-58386865D01*
X150226755Y-58326656D01*
X150422359Y-58295505D01*
X150464071Y-58292479D01*
X150694478Y-58293922D01*
X150903024Y-58326402D01*
X151086488Y-58388563D01*
X151241651Y-58479049D01*
X151365291Y-58596504D01*
X151435494Y-58701655D01*
X151485267Y-58823622D01*
X151520841Y-58967884D01*
X151538328Y-59113995D01*
X151535651Y-59227979D01*
X151532831Y-59319663D01*
X151551793Y-59375384D01*
X151594250Y-59398968D01*
X151612904Y-59400351D01*
X151627116Y-59398022D01*
X151637690Y-59387226D01*
X151645161Y-59362250D01*
X151650065Y-59317377D01*
X151652936Y-59246896D01*
X151654310Y-59145092D01*
X151654721Y-59006252D01*
X151654737Y-58953630D01*
X151655797Y-58779111D01*
X151659589Y-58643790D01*
X151667033Y-58542338D01*
X151679048Y-58469431D01*
X151696554Y-58419743D01*
X151720470Y-58387946D01*
X151751716Y-58368713D01*
X151755998Y-58366998D01*
X151794236Y-58361159D01*
X151868252Y-58356971D01*
X151969299Y-58354367D01*
X152088627Y-58353271D01*
X152217489Y-58353617D01*
X152347135Y-58355332D01*
X152468815Y-58358347D01*
X152573783Y-58362590D01*
X152653288Y-58367992D01*
X152698582Y-58374479D01*
X152699027Y-58374606D01*
X152764438Y-58384294D01*
X152827935Y-58368286D01*
X152854844Y-58355859D01*
X152953734Y-58327738D01*
X153062838Y-58329219D01*
X153162965Y-58359034D01*
X153195940Y-58378422D01*
X153231090Y-58406513D01*
X153259355Y-58439050D01*
X153281415Y-58480862D01*
X153297946Y-58536771D01*
X153309629Y-58611604D01*
X153317141Y-58710186D01*
X153321161Y-58837343D01*
X153322367Y-58997900D01*
X153321437Y-59196682D01*
X153320823Y-59266667D01*
X153314649Y-59923947D01*
X153215194Y-59931031D01*
X153172133Y-59933571D01*
X153137780Y-59931421D01*
X153111153Y-59920128D01*
X153091265Y-59895238D01*
X153077135Y-59852297D01*
X153067779Y-59786854D01*
X153062214Y-59694454D01*
X153059455Y-59570645D01*
X153058518Y-59410972D01*
X153058421Y-59221300D01*
X153058252Y-59035090D01*
X153057538Y-58888364D01*
X153055966Y-58776044D01*
X153053227Y-58693052D01*
X153049008Y-58634312D01*
X153042999Y-58594745D01*
X153034887Y-58569274D01*
X153024362Y-58552822D01*
X153016976Y-58545364D01*
X152963155Y-58523261D01*
X152901318Y-58534331D01*
X152848852Y-58575135D01*
X152845839Y-58579214D01*
X152839871Y-58609563D01*
X152834657Y-58679577D01*
X152830353Y-58784364D01*
X152827118Y-58919031D01*
X152825107Y-59078685D01*
X152824474Y-59244386D01*
X152824474Y-59879386D01*
X152924737Y-59908752D01*
X152993717Y-59931669D01*
X153085868Y-59965848D01*
X153183534Y-60004686D01*
X153203246Y-60012881D01*
X153304471Y-60053760D01*
X153428156Y-60101401D01*
X153554552Y-60148274D01*
X153615439Y-60170071D01*
X153742706Y-60214994D01*
X153888674Y-60266644D01*
X154030071Y-60316784D01*
X154092255Y-60338880D01*
X154191257Y-60373192D01*
X154276454Y-60401047D01*
X154338186Y-60419398D01*
X154365732Y-60425263D01*
X154399339Y-60413312D01*
X154455548Y-60382280D01*
X154509704Y-60347281D01*
X154623071Y-60269298D01*
X155222148Y-60269298D01*
X155401439Y-60269441D01*
X155541516Y-60270124D01*
X155647730Y-60271720D01*
X155725429Y-60274608D01*
X155779961Y-60279165D01*
X155816677Y-60285767D01*
X155840923Y-60294790D01*
X155858050Y-60306611D01*
X155866616Y-60314686D01*
X155880178Y-60329812D01*
X155890583Y-60348302D01*
X155898107Y-60375522D01*
X155903028Y-60416839D01*
X155905622Y-60477620D01*
X155906166Y-60563232D01*
X155904936Y-60679039D01*
X155902210Y-60830412D01*
X155899669Y-60955256D01*
X155895976Y-61115162D01*
X155891878Y-61261488D01*
X155887605Y-61387997D01*
X155883390Y-61488451D01*
X155879466Y-61556612D01*
X155876171Y-61585931D01*
X155852284Y-61616860D01*
X155802339Y-61659487D01*
X155756453Y-61691764D01*
X155647897Y-61762105D01*
X155048820Y-61762105D01*
X154854282Y-61762033D01*
X154699710Y-61760905D01*
X154580507Y-61757357D01*
X154492077Y-61750028D01*
X154429824Y-61737550D01*
X154389154Y-61718559D01*
X154365470Y-61691690D01*
X154354176Y-61655581D01*
X154352142Y-61628422D01*
X154350677Y-61608865D01*
X154350391Y-61554745D01*
X154350079Y-61416754D01*
X154133154Y-61331286D01*
X154016503Y-61284887D01*
X153879607Y-61229770D01*
X153743350Y-61174368D01*
X153671171Y-61144738D01*
X153564976Y-61101631D01*
X153464774Y-61062187D01*
X153382883Y-61031186D01*
X153336961Y-61015071D01*
X153284016Y-60996013D01*
X153200386Y-60963492D01*
X153096344Y-60921596D01*
X152982161Y-60874422D01*
X152947018Y-60859664D01*
X152822369Y-60807432D01*
X152695710Y-60754912D01*
X152580627Y-60707704D01*
X152490702Y-60671406D01*
X152479123Y-60666814D01*
X152388537Y-60629232D01*
X152304436Y-60591284D01*
X152243423Y-60560503D01*
X152238332Y-60557585D01*
X152184369Y-60529414D01*
X152145035Y-60514911D01*
X152140362Y-60514385D01*
X152111422Y-60505733D01*
X152048433Y-60481656D01*
X151957998Y-60444979D01*
X151846720Y-60398528D01*
X151721204Y-60345127D01*
X151588054Y-60287600D01*
X151453873Y-60228772D01*
X151325265Y-60171467D01*
X151208835Y-60118509D01*
X151142281Y-60087505D01*
X150908334Y-59977150D01*
X150693576Y-59992235D01*
X150464757Y-59991699D01*
X150249426Y-59958473D01*
X150105515Y-59911007D01*
X151120000Y-59911007D01*
X151139889Y-59927416D01*
X151196582Y-59958632D01*
X151285613Y-60002645D01*
X151402519Y-60057448D01*
X151542836Y-60121031D01*
X151702100Y-60191387D01*
X151875847Y-60266506D01*
X152059612Y-60344379D01*
X152248933Y-60422997D01*
X152345439Y-60462428D01*
X152474553Y-60515361D01*
X152591703Y-60564293D01*
X152689761Y-60606174D01*
X152761599Y-60637955D01*
X152800090Y-60656587D01*
X152802193Y-60657835D01*
X152849160Y-60681116D01*
X152918663Y-60708985D01*
X152958158Y-60722881D01*
X153007067Y-60740696D01*
X153090918Y-60772945D01*
X153203429Y-60817138D01*
X153338318Y-60870788D01*
X153489304Y-60931404D01*
X153650104Y-60996503D01*
X153693421Y-61014131D01*
X153850053Y-61077783D01*
X153993375Y-61135722D01*
X154118189Y-61185870D01*
X154219295Y-61226148D01*
X154291491Y-61254481D01*
X154329578Y-61268787D01*
X154333991Y-61270110D01*
X154339723Y-61249744D01*
X154344607Y-61192352D01*
X154348276Y-61105470D01*
X154348663Y-61085272D01*
X154484386Y-61085272D01*
X154484386Y-61628421D01*
X155038676Y-61628422D01*
X155217571Y-61627960D01*
X155356655Y-61626411D01*
X155460672Y-61623522D01*
X155534363Y-61619043D01*
X155582472Y-61612723D01*
X155609741Y-61604313D01*
X155618384Y-61597793D01*
X155627253Y-61569413D01*
X155633603Y-61507099D01*
X155637521Y-61408377D01*
X155639090Y-61270773D01*
X155638396Y-61091812D01*
X155637822Y-61035206D01*
X155631842Y-60503246D01*
X155088733Y-60497273D01*
X154896078Y-60495976D01*
X154745457Y-60496859D01*
X154634387Y-60500006D01*
X154560390Y-60505500D01*
X154520987Y-60513427D01*
X154515005Y-60516712D01*
X154505048Y-60533397D01*
X154497385Y-60568072D01*
X154491759Y-60625520D01*
X154487913Y-60710525D01*
X154485587Y-60827872D01*
X154484525Y-60982347D01*
X154484386Y-61085272D01*
X154348663Y-61085272D01*
X154350362Y-60996632D01*
X154350702Y-60927622D01*
X154350702Y-60583313D01*
X154256009Y-60541477D01*
X154181552Y-60511477D01*
X154111358Y-60487689D01*
X154094474Y-60483055D01*
X154045753Y-60468246D01*
X153967739Y-60441556D01*
X153872667Y-60407257D01*
X153804825Y-60381883D01*
X153695144Y-60340772D01*
X153560392Y-60291049D01*
X153417516Y-60238932D01*
X153283467Y-60190637D01*
X153281228Y-60189838D01*
X153157703Y-60144705D01*
X153035046Y-60098147D01*
X152926351Y-60055241D01*
X152844710Y-60021066D01*
X152835614Y-60017010D01*
X152777227Y-59991488D01*
X152727758Y-59973782D01*
X152677286Y-59962602D01*
X152615891Y-59956664D01*
X152533653Y-59954676D01*
X152420651Y-59955352D01*
X152366103Y-59956060D01*
X152167390Y-59957013D01*
X152008756Y-59952832D01*
X151885859Y-59941936D01*
X151794359Y-59922751D01*
X151729916Y-59893699D01*
X151688186Y-59853202D01*
X151664832Y-59799684D01*
X151655511Y-59731565D01*
X151654737Y-59697559D01*
X151652414Y-59626145D01*
X151640803Y-59583487D01*
X151612944Y-59553843D01*
X151582325Y-59533791D01*
X151532467Y-59505209D01*
X151500492Y-59490211D01*
X151497305Y-59489557D01*
X151480250Y-59507273D01*
X151450944Y-59552466D01*
X151432855Y-59584167D01*
X151331919Y-59729950D01*
X151209993Y-59838008D01*
X151192412Y-59849343D01*
X151145758Y-59882207D01*
X151121139Y-59907326D01*
X151120000Y-59911007D01*
X150105515Y-59911007D01*
X150054746Y-59894262D01*
X149887879Y-59800770D01*
X149887134Y-59800239D01*
X149821294Y-59749237D01*
X149772063Y-59698551D01*
X149729276Y-59635099D01*
X149682772Y-59545797D01*
X149671888Y-59523174D01*
X149582751Y-59336415D01*
X149382552Y-59223558D01*
X149375297Y-59219519D01*
X150785152Y-59219519D01*
X150788553Y-59271125D01*
X150800440Y-59343434D01*
X150818757Y-59422632D01*
X150845266Y-59498234D01*
X150878307Y-59560050D01*
X150898943Y-59584167D01*
X150965803Y-59614457D01*
X151049763Y-59621308D01*
X151129818Y-59604379D01*
X151159731Y-59588384D01*
X151198497Y-59550998D01*
X151235339Y-59499974D01*
X151261984Y-59449326D01*
X151270163Y-59413068D01*
X151267149Y-59406389D01*
X151244306Y-59394458D01*
X151190667Y-59369722D01*
X151116406Y-59336600D01*
X151031693Y-59299510D01*
X150946699Y-59262869D01*
X150871598Y-59231097D01*
X150816557Y-59208612D01*
X150791750Y-59199830D01*
X150791604Y-59199824D01*
X150785152Y-59219519D01*
X149375297Y-59219519D01*
X149298272Y-59176639D01*
X149229127Y-59139259D01*
X149183803Y-59116046D01*
X149170825Y-59110702D01*
X149166763Y-59131688D01*
X149163286Y-59189467D01*
X149160674Y-59276273D01*
X149159208Y-59384340D01*
X149158994Y-59439342D01*
X149157983Y-59559890D01*
X149155409Y-59667887D01*
X149151622Y-59753880D01*
X149146968Y-59808410D01*
X149145022Y-59819006D01*
X149131809Y-59853209D01*
X149109274Y-59879580D01*
X149072201Y-59899029D01*
X149015370Y-59912465D01*
X148933564Y-59920798D01*
X148821563Y-59924938D01*
X148674151Y-59925793D01*
X148537777Y-59924831D01*
X148379154Y-59922948D01*
X148259211Y-59920572D01*
X148172069Y-59917170D01*
X148111846Y-59912206D01*
X148072661Y-59905146D01*
X148048634Y-59895454D01*
X148033885Y-59882597D01*
X148030892Y-59878734D01*
X148022123Y-59857959D01*
X148015123Y-59819396D01*
X148009724Y-59758853D01*
X148005756Y-59672136D01*
X148003051Y-59555055D01*
X148001440Y-59403417D01*
X148000755Y-59213028D01*
X148000702Y-59128506D01*
X148000797Y-58954202D01*
X149177498Y-58954202D01*
X149194736Y-58975382D01*
X149209430Y-58977453D01*
X149240981Y-58988520D01*
X149298684Y-59017341D01*
X149370912Y-59058044D01*
X149382105Y-59064706D01*
X149475619Y-59118559D01*
X149537816Y-59146953D01*
X149574085Y-59149688D01*
X149589816Y-59126570D01*
X149590398Y-59077403D01*
X149588387Y-59057217D01*
X149587859Y-59003470D01*
X150788764Y-59003470D01*
X150810999Y-59044091D01*
X150865446Y-59080162D01*
X150936184Y-59113530D01*
X151021120Y-59151611D01*
X151099176Y-59186705D01*
X151153421Y-59211198D01*
X151220619Y-59238896D01*
X151263147Y-59244672D01*
X151285968Y-59223104D01*
X151294044Y-59168765D01*
X151292340Y-59076230D01*
X151291613Y-59060151D01*
X151274540Y-58906064D01*
X151238844Y-58791293D01*
X151183500Y-58714215D01*
X151107482Y-58673204D01*
X151042018Y-58665088D01*
X150958427Y-58679222D01*
X150893740Y-58725008D01*
X150842279Y-58807520D01*
X150819964Y-58863478D01*
X150793499Y-58947024D01*
X150788764Y-59003470D01*
X149587859Y-59003470D01*
X149587633Y-58980626D01*
X149606604Y-58902217D01*
X149635686Y-58831717D01*
X149666144Y-58762815D01*
X149687258Y-58710524D01*
X149694035Y-58688252D01*
X149676046Y-58668610D01*
X149634554Y-58645139D01*
X149595068Y-58631873D01*
X149559518Y-58637380D01*
X149512513Y-58665943D01*
X149484160Y-58686975D01*
X149408963Y-58741543D01*
X149323295Y-58800302D01*
X149287412Y-58823814D01*
X149227878Y-58870453D01*
X149189893Y-58916571D01*
X149177498Y-58954202D01*
X148000797Y-58954202D01*
X148000809Y-58931873D01*
X148001321Y-58774990D01*
X148002526Y-58653050D01*
X148004709Y-58561239D01*
X148008159Y-58494748D01*
X148013162Y-58448767D01*
X148020005Y-58418486D01*
X148028974Y-58399093D01*
X148040358Y-58385779D01*
X148045263Y-58381409D01*
X148072916Y-58353158D01*
X149099526Y-58353158D01*
X149103416Y-58368641D01*
X149124614Y-58402677D01*
X149147019Y-58458856D01*
X149158603Y-58538409D01*
X149159297Y-58563164D01*
X149159298Y-58674131D01*
X149247498Y-58588006D01*
X149294125Y-58538020D01*
X149321732Y-58499569D01*
X149325271Y-58485009D01*
X149302277Y-58466693D01*
X149254463Y-58436127D01*
X149196153Y-58401677D01*
X149141662Y-58371704D01*
X149105310Y-58354572D01*
X149099526Y-58353158D01*
X148072916Y-58353158D01*
X148078661Y-58347289D01*
X148089825Y-58326993D01*
X148077960Y-58302113D01*
X148046565Y-58251067D01*
X148001943Y-58184002D01*
X147992574Y-58170410D01*
X147892915Y-57998091D01*
X147835071Y-57830636D01*
X147825775Y-57737973D01*
X147981375Y-57737973D01*
X147996356Y-57844320D01*
X148037005Y-57953507D01*
X148106469Y-58074418D01*
X148189481Y-58191665D01*
X148293328Y-58329813D01*
X148665042Y-58336492D01*
X148788613Y-58338990D01*
X148895471Y-58341680D01*
X148978169Y-58344332D01*
X149029254Y-58346713D01*
X149042325Y-58348164D01*
X149047819Y-58336954D01*
X149047895Y-58333838D01*
X149030735Y-58311633D01*
X148986894Y-58276158D01*
X148953202Y-58252998D01*
X148761821Y-58121898D01*
X148608802Y-58002380D01*
X148494898Y-57895217D01*
X148420859Y-57801179D01*
X148387442Y-57721037D01*
X148388409Y-57674452D01*
X148420028Y-57631913D01*
X148491148Y-57586869D01*
X148596884Y-57540766D01*
X148732351Y-57495055D01*
X148892665Y-57451183D01*
X149072941Y-57410601D01*
X149268295Y-57374756D01*
X149473841Y-57345099D01*
X149515790Y-57340032D01*
X149652676Y-57327335D01*
X149828244Y-57316278D01*
X150036644Y-57306906D01*
X150272024Y-57299266D01*
X150528534Y-57293404D01*
X150800323Y-57289369D01*
X151081538Y-57287204D01*
X151366331Y-57286958D01*
X151648850Y-57288677D01*
X151923244Y-57292407D01*
X152183662Y-57298195D01*
X152424255Y-57306087D01*
X152623948Y-57315296D01*
X152806748Y-57325465D01*
X152988108Y-57336048D01*
X153159591Y-57346513D01*
X153312756Y-57356333D01*
X153439166Y-57364978D01*
X153530383Y-57371920D01*
X153537456Y-57372518D01*
X153699863Y-57387187D01*
X153893996Y-57405914D01*
X154107340Y-57427404D01*
X154327382Y-57450364D01*
X154541609Y-57473498D01*
X154737507Y-57495513D01*
X154824167Y-57505636D01*
X154947196Y-57520201D01*
X155085379Y-57536508D01*
X155209623Y-57551123D01*
X155214079Y-57551646D01*
X155330863Y-57565351D01*
X155456909Y-57580148D01*
X155566766Y-57593049D01*
X155576141Y-57594151D01*
X155680048Y-57607476D01*
X155786564Y-57622910D01*
X155865790Y-57635929D01*
X155946817Y-57649278D01*
X156052365Y-57664917D01*
X156162697Y-57679952D01*
X156188860Y-57683296D01*
X156292256Y-57697389D01*
X156390953Y-57712700D01*
X156467802Y-57726516D01*
X156484399Y-57730046D01*
X156568170Y-57744215D01*
X156652057Y-57751368D01*
X156664890Y-57751578D01*
X156741164Y-57757189D01*
X156810830Y-57770819D01*
X156814965Y-57772080D01*
X156878023Y-57787845D01*
X156951884Y-57800364D01*
X157023870Y-57808345D01*
X157081305Y-57810497D01*
X157111512Y-57805528D01*
X157113369Y-57802478D01*
X157093308Y-57790554D01*
X157038247Y-57767934D01*
X156955736Y-57737172D01*
X156853320Y-57700820D01*
X156738546Y-57661432D01*
X156618963Y-57621562D01*
X156502118Y-57583761D01*
X156395557Y-57550585D01*
X156306828Y-57524586D01*
X156244562Y-57508556D01*
X156068204Y-57473308D01*
X155931229Y-57454481D01*
X155921490Y-57453639D01*
X155861563Y-57445236D01*
X155821228Y-57434607D01*
X155778218Y-57423011D01*
X155714067Y-57411482D01*
X155698684Y-57409332D01*
X155626870Y-57398950D01*
X155534906Y-57384421D01*
X155468545Y-57373306D01*
X155362518Y-57355942D01*
X155235851Y-57336967D01*
X155084732Y-57315880D01*
X154905346Y-57292179D01*
X154693882Y-57265363D01*
X154446527Y-57234931D01*
X154159464Y-57200381D01*
X154094474Y-57192637D01*
X153910264Y-57170877D01*
X153760400Y-57153578D01*
X153635010Y-57139670D01*
X153524224Y-57128082D01*
X153418171Y-57117743D01*
X153325790Y-57109265D01*
X153225414Y-57099369D01*
X153139668Y-57089278D01*
X153079542Y-57080374D01*
X153058421Y-57075532D01*
X153025268Y-57069454D01*
X152956389Y-57061254D01*
X152860516Y-57051830D01*
X152746379Y-57042078D01*
X152690790Y-57037777D01*
X152305100Y-57009989D01*
X151955080Y-56987349D01*
X151632154Y-56969685D01*
X151327749Y-56956829D01*
X151033291Y-56948609D01*
X150740205Y-56944856D01*
X150439918Y-56945399D01*
X150123856Y-56950069D01*
X149783444Y-56958695D01*
X149410109Y-56971107D01*
X149382105Y-56972129D01*
X149264802Y-56981927D01*
X149119254Y-57002327D01*
X148959757Y-57030668D01*
X148800607Y-57064278D01*
X148656101Y-57100497D01*
X148591141Y-57119586D01*
X148446102Y-57170634D01*
X148331577Y-57225637D01*
X148233724Y-57292843D01*
X148138705Y-57380498D01*
X148119223Y-57400785D01*
X148053754Y-57475310D01*
X148014762Y-57536106D01*
X147994010Y-57597386D01*
X147988914Y-57625585D01*
X147981375Y-57737973D01*
X147825775Y-57737973D01*
X147818987Y-57670316D01*
X147844611Y-57519406D01*
X147911885Y-57380177D01*
X148014405Y-57260727D01*
X148172485Y-57141792D01*
X148371106Y-57040404D01*
X148609780Y-56956730D01*
X148888017Y-56890926D01*
X149205330Y-56843161D01*
X149292982Y-56833833D01*
X149401686Y-56826017D01*
X149548861Y-56819717D01*
X149728446Y-56814903D01*
X149934376Y-56811548D01*
X150160590Y-56809622D01*
X150401025Y-56809096D01*
X150649618Y-56809944D01*
G37*
%TD*%
D17*
%TO.C,J1*%
X172670000Y-111410000D03*
X172670000Y-103510000D03*
%TD*%
D18*
%TO.C,TP5*%
X96925000Y-104375000D03*
%TD*%
D19*
%TO.C,H1*%
X103910000Y-70360000D03*
%TD*%
D20*
%TO.C,*%
X173330000Y-142780000D03*
%TD*%
D19*
%TO.C,H4*%
X161450000Y-127840000D03*
%TD*%
D20*
%TO.C,*%
X93330000Y-142780000D03*
%TD*%
D18*
%TO.C,TP2*%
X128200000Y-59620000D03*
%TD*%
%TO.C,TP8*%
X136775000Y-135950000D03*
%TD*%
D21*
%TO.C,U4*%
X135675000Y-96360000D03*
D22*
X130135000Y-96200000D03*
D21*
X129975000Y-101740000D03*
D22*
X135515000Y-101900000D03*
D23*
X132825000Y-99050000D03*
%TD*%
D18*
%TO.C,TP3*%
X170360000Y-83720000D03*
%TD*%
D19*
%TO.C,H3*%
X103930000Y-127830000D03*
%TD*%
D18*
%TO.C,TP7*%
X123250000Y-135875000D03*
%TD*%
%TO.C,TP1*%
X136000000Y-63750000D03*
%TD*%
%TO.C,TP6*%
X170090000Y-92060000D03*
%TD*%
D19*
%TO.C,H2*%
X161460000Y-70320000D03*
%TD*%
D18*
%TO.C,TP4*%
X96825000Y-94150000D03*
%TD*%
D24*
%TO.C,J2*%
X171960000Y-127420000D03*
D25*
X171960000Y-129420000D03*
X169960000Y-127420000D03*
X169960000Y-129420000D03*
%TD*%
D26*
%TO.C,J3*%
X116900000Y-59550000D03*
D27*
X114360000Y-57010000D03*
X114360000Y-62090000D03*
X119440000Y-57010000D03*
X119440000Y-62090000D03*
%TD*%
%LPD*%
M02*
