%TF.GenerationSoftware,KiCad,Pcbnew,9.0.0*%
%TF.CreationDate,2025-06-18T13:40:49-07:00*%
%TF.ProjectId,PROVES_Cosmic_Watch,50524f56-4553-45f4-936f-736d69635f57,rev?*%
%TF.SameCoordinates,Original*%
%TF.FileFunction,Legend,Top*%
%TF.FilePolarity,Positive*%
%FSLAX46Y46*%
G04 Gerber Fmt 4.6, Leading zero omitted, Abs format (unit mm)*
G04 Created by KiCad (PCBNEW 9.0.0) date 2025-06-18 13:40:49*
%MOMM*%
%LPD*%
G01*
G04 APERTURE LIST*
G04 Aperture macros list*
%AMFreePoly0*
4,1,29,1.435355,3.535355,1.450000,3.500000,1.450000,1.450000,3.500000,1.450000,3.535355,1.435355,3.550000,1.400000,3.550000,-1.400000,3.535355,-1.435355,3.500000,-1.450000,1.450000,-1.450000,1.450000,-3.500000,1.435355,-3.535355,1.400000,-3.550000,-1.400000,-3.550000,-1.435355,-3.535355,-1.450000,-3.500000,-1.450000,-1.450000,-3.500000,-1.450000,-3.535355,-1.435355,-3.550000,-1.400000,
-3.550000,1.400000,-3.535355,1.435355,-3.500000,1.450000,-1.450000,1.450000,-1.450000,3.500000,-1.435355,3.535355,-1.400000,3.550000,1.400000,3.550000,1.435355,3.535355,1.435355,3.535355,$1*%
G04 Aperture macros list end*
%ADD10C,0.100000*%
%ADD11C,0.200000*%
%ADD12C,0.150000*%
%ADD13C,0.120000*%
%ADD14C,0.250000*%
%ADD15C,0.400000*%
%ADD16C,0.000000*%
%ADD17C,2.000000*%
%ADD18C,2.700000*%
%ADD19C,5.000000*%
%ADD20R,1.520000X1.520000*%
%ADD21C,1.520000*%
%ADD22R,0.800000X2.000000*%
%ADD23R,2.000000X0.800000*%
%ADD24FreePoly0,180.000000*%
%ADD25C,2.050000*%
%ADD26C,2.250000*%
%ADD27O,1.800000X1.400000*%
G04 APERTURE END LIST*
D10*
X107825000Y-74050000D02*
X157825000Y-74050000D01*
X157825000Y-124050000D01*
X107825000Y-124050000D01*
X107825000Y-74050000D01*
X100325000Y-66550000D02*
X165325000Y-66550000D01*
X165325000Y-131550000D01*
X100325000Y-131550000D01*
X100325000Y-66550000D01*
D11*
X126991905Y-57372219D02*
X126991905Y-56372219D01*
X126991905Y-56372219D02*
X127372857Y-56372219D01*
X127372857Y-56372219D02*
X127468095Y-56419838D01*
X127468095Y-56419838D02*
X127515714Y-56467457D01*
X127515714Y-56467457D02*
X127563333Y-56562695D01*
X127563333Y-56562695D02*
X127563333Y-56705552D01*
X127563333Y-56705552D02*
X127515714Y-56800790D01*
X127515714Y-56800790D02*
X127468095Y-56848409D01*
X127468095Y-56848409D02*
X127372857Y-56896028D01*
X127372857Y-56896028D02*
X126991905Y-56896028D01*
X127991905Y-57372219D02*
X127991905Y-56372219D01*
X127991905Y-56372219D02*
X128372857Y-56372219D01*
X128372857Y-56372219D02*
X128468095Y-56419838D01*
X128468095Y-56419838D02*
X128515714Y-56467457D01*
X128515714Y-56467457D02*
X128563333Y-56562695D01*
X128563333Y-56562695D02*
X128563333Y-56705552D01*
X128563333Y-56705552D02*
X128515714Y-56800790D01*
X128515714Y-56800790D02*
X128468095Y-56848409D01*
X128468095Y-56848409D02*
X128372857Y-56896028D01*
X128372857Y-56896028D02*
X127991905Y-56896028D01*
X128944286Y-57324600D02*
X129087143Y-57372219D01*
X129087143Y-57372219D02*
X129325238Y-57372219D01*
X129325238Y-57372219D02*
X129420476Y-57324600D01*
X129420476Y-57324600D02*
X129468095Y-57276980D01*
X129468095Y-57276980D02*
X129515714Y-57181742D01*
X129515714Y-57181742D02*
X129515714Y-57086504D01*
X129515714Y-57086504D02*
X129468095Y-56991266D01*
X129468095Y-56991266D02*
X129420476Y-56943647D01*
X129420476Y-56943647D02*
X129325238Y-56896028D01*
X129325238Y-56896028D02*
X129134762Y-56848409D01*
X129134762Y-56848409D02*
X129039524Y-56800790D01*
X129039524Y-56800790D02*
X128991905Y-56753171D01*
X128991905Y-56753171D02*
X128944286Y-56657933D01*
X128944286Y-56657933D02*
X128944286Y-56562695D01*
X128944286Y-56562695D02*
X128991905Y-56467457D01*
X128991905Y-56467457D02*
X129039524Y-56419838D01*
X129039524Y-56419838D02*
X129134762Y-56372219D01*
X129134762Y-56372219D02*
X129372857Y-56372219D01*
X129372857Y-56372219D02*
X129515714Y-56419838D01*
X159253482Y-60624838D02*
X159158244Y-60577219D01*
X159158244Y-60577219D02*
X159015387Y-60577219D01*
X159015387Y-60577219D02*
X158872530Y-60624838D01*
X158872530Y-60624838D02*
X158777292Y-60720076D01*
X158777292Y-60720076D02*
X158729673Y-60815314D01*
X158729673Y-60815314D02*
X158682054Y-61005790D01*
X158682054Y-61005790D02*
X158682054Y-61148647D01*
X158682054Y-61148647D02*
X158729673Y-61339123D01*
X158729673Y-61339123D02*
X158777292Y-61434361D01*
X158777292Y-61434361D02*
X158872530Y-61529600D01*
X158872530Y-61529600D02*
X159015387Y-61577219D01*
X159015387Y-61577219D02*
X159110625Y-61577219D01*
X159110625Y-61577219D02*
X159253482Y-61529600D01*
X159253482Y-61529600D02*
X159301101Y-61481980D01*
X159301101Y-61481980D02*
X159301101Y-61148647D01*
X159301101Y-61148647D02*
X159110625Y-61148647D01*
X159729673Y-61577219D02*
X159729673Y-60577219D01*
X159729673Y-60577219D02*
X160301101Y-61577219D01*
X160301101Y-61577219D02*
X160301101Y-60577219D01*
X160777292Y-61577219D02*
X160777292Y-60577219D01*
X160777292Y-60577219D02*
X161015387Y-60577219D01*
X161015387Y-60577219D02*
X161158244Y-60624838D01*
X161158244Y-60624838D02*
X161253482Y-60720076D01*
X161253482Y-60720076D02*
X161301101Y-60815314D01*
X161301101Y-60815314D02*
X161348720Y-61005790D01*
X161348720Y-61005790D02*
X161348720Y-61148647D01*
X161348720Y-61148647D02*
X161301101Y-61339123D01*
X161301101Y-61339123D02*
X161253482Y-61434361D01*
X161253482Y-61434361D02*
X161158244Y-61529600D01*
X161158244Y-61529600D02*
X161015387Y-61577219D01*
X161015387Y-61577219D02*
X160777292Y-61577219D01*
X114741101Y-144231980D02*
X114693482Y-144279600D01*
X114693482Y-144279600D02*
X114550625Y-144327219D01*
X114550625Y-144327219D02*
X114455387Y-144327219D01*
X114455387Y-144327219D02*
X114312530Y-144279600D01*
X114312530Y-144279600D02*
X114217292Y-144184361D01*
X114217292Y-144184361D02*
X114169673Y-144089123D01*
X114169673Y-144089123D02*
X114122054Y-143898647D01*
X114122054Y-143898647D02*
X114122054Y-143755790D01*
X114122054Y-143755790D02*
X114169673Y-143565314D01*
X114169673Y-143565314D02*
X114217292Y-143470076D01*
X114217292Y-143470076D02*
X114312530Y-143374838D01*
X114312530Y-143374838D02*
X114455387Y-143327219D01*
X114455387Y-143327219D02*
X114550625Y-143327219D01*
X114550625Y-143327219D02*
X114693482Y-143374838D01*
X114693482Y-143374838D02*
X114741101Y-143422457D01*
X115122054Y-144041504D02*
X115598244Y-144041504D01*
X115026816Y-144327219D02*
X115360149Y-143327219D01*
X115360149Y-143327219D02*
X115693482Y-144327219D01*
X116026816Y-144327219D02*
X116026816Y-143327219D01*
X116026816Y-143327219D02*
X116264911Y-143327219D01*
X116264911Y-143327219D02*
X116407768Y-143374838D01*
X116407768Y-143374838D02*
X116503006Y-143470076D01*
X116503006Y-143470076D02*
X116550625Y-143565314D01*
X116550625Y-143565314D02*
X116598244Y-143755790D01*
X116598244Y-143755790D02*
X116598244Y-143898647D01*
X116598244Y-143898647D02*
X116550625Y-144089123D01*
X116550625Y-144089123D02*
X116503006Y-144184361D01*
X116503006Y-144184361D02*
X116407768Y-144279600D01*
X116407768Y-144279600D02*
X116264911Y-144327219D01*
X116264911Y-144327219D02*
X116026816Y-144327219D01*
X117026816Y-143803409D02*
X117360149Y-143803409D01*
X117503006Y-144327219D02*
X117026816Y-144327219D01*
X117026816Y-144327219D02*
X117026816Y-143327219D01*
X117026816Y-143327219D02*
X117503006Y-143327219D01*
X117931578Y-144327219D02*
X117931578Y-143327219D01*
X117931578Y-143327219D02*
X118503006Y-144327219D01*
X118503006Y-144327219D02*
X118503006Y-143327219D01*
X119550625Y-144231980D02*
X119503006Y-144279600D01*
X119503006Y-144279600D02*
X119360149Y-144327219D01*
X119360149Y-144327219D02*
X119264911Y-144327219D01*
X119264911Y-144327219D02*
X119122054Y-144279600D01*
X119122054Y-144279600D02*
X119026816Y-144184361D01*
X119026816Y-144184361D02*
X118979197Y-144089123D01*
X118979197Y-144089123D02*
X118931578Y-143898647D01*
X118931578Y-143898647D02*
X118931578Y-143755790D01*
X118931578Y-143755790D02*
X118979197Y-143565314D01*
X118979197Y-143565314D02*
X119026816Y-143470076D01*
X119026816Y-143470076D02*
X119122054Y-143374838D01*
X119122054Y-143374838D02*
X119264911Y-143327219D01*
X119264911Y-143327219D02*
X119360149Y-143327219D01*
X119360149Y-143327219D02*
X119503006Y-143374838D01*
X119503006Y-143374838D02*
X119550625Y-143422457D01*
X119979197Y-143803409D02*
X120312530Y-143803409D01*
X120455387Y-144327219D02*
X119979197Y-144327219D01*
X119979197Y-144327219D02*
X119979197Y-143327219D01*
X119979197Y-143327219D02*
X120455387Y-143327219D01*
X122217292Y-144231980D02*
X122169673Y-144279600D01*
X122169673Y-144279600D02*
X122026816Y-144327219D01*
X122026816Y-144327219D02*
X121931578Y-144327219D01*
X121931578Y-144327219D02*
X121788721Y-144279600D01*
X121788721Y-144279600D02*
X121693483Y-144184361D01*
X121693483Y-144184361D02*
X121645864Y-144089123D01*
X121645864Y-144089123D02*
X121598245Y-143898647D01*
X121598245Y-143898647D02*
X121598245Y-143755790D01*
X121598245Y-143755790D02*
X121645864Y-143565314D01*
X121645864Y-143565314D02*
X121693483Y-143470076D01*
X121693483Y-143470076D02*
X121788721Y-143374838D01*
X121788721Y-143374838D02*
X121931578Y-143327219D01*
X121931578Y-143327219D02*
X122026816Y-143327219D01*
X122026816Y-143327219D02*
X122169673Y-143374838D01*
X122169673Y-143374838D02*
X122217292Y-143422457D01*
X122550626Y-143660552D02*
X122788721Y-144327219D01*
X123026816Y-143660552D02*
X122788721Y-144327219D01*
X122788721Y-144327219D02*
X122693483Y-144565314D01*
X122693483Y-144565314D02*
X122645864Y-144612933D01*
X122645864Y-144612933D02*
X122550626Y-144660552D01*
X123836340Y-143660552D02*
X123836340Y-144470076D01*
X123836340Y-144470076D02*
X123788721Y-144565314D01*
X123788721Y-144565314D02*
X123741102Y-144612933D01*
X123741102Y-144612933D02*
X123645864Y-144660552D01*
X123645864Y-144660552D02*
X123503007Y-144660552D01*
X123503007Y-144660552D02*
X123407769Y-144612933D01*
X123836340Y-144279600D02*
X123741102Y-144327219D01*
X123741102Y-144327219D02*
X123550626Y-144327219D01*
X123550626Y-144327219D02*
X123455388Y-144279600D01*
X123455388Y-144279600D02*
X123407769Y-144231980D01*
X123407769Y-144231980D02*
X123360150Y-144136742D01*
X123360150Y-144136742D02*
X123360150Y-143851028D01*
X123360150Y-143851028D02*
X123407769Y-143755790D01*
X123407769Y-143755790D02*
X123455388Y-143708171D01*
X123455388Y-143708171D02*
X123550626Y-143660552D01*
X123550626Y-143660552D02*
X123741102Y-143660552D01*
X123741102Y-143660552D02*
X123836340Y-143708171D01*
X124312531Y-143660552D02*
X124312531Y-144327219D01*
X124312531Y-143755790D02*
X124360150Y-143708171D01*
X124360150Y-143708171D02*
X124455388Y-143660552D01*
X124455388Y-143660552D02*
X124598245Y-143660552D01*
X124598245Y-143660552D02*
X124693483Y-143708171D01*
X124693483Y-143708171D02*
X124741102Y-143803409D01*
X124741102Y-143803409D02*
X124741102Y-144327219D01*
X125598245Y-144279600D02*
X125503007Y-144327219D01*
X125503007Y-144327219D02*
X125312531Y-144327219D01*
X125312531Y-144327219D02*
X125217293Y-144279600D01*
X125217293Y-144279600D02*
X125169674Y-144184361D01*
X125169674Y-144184361D02*
X125169674Y-143803409D01*
X125169674Y-143803409D02*
X125217293Y-143708171D01*
X125217293Y-143708171D02*
X125312531Y-143660552D01*
X125312531Y-143660552D02*
X125503007Y-143660552D01*
X125503007Y-143660552D02*
X125598245Y-143708171D01*
X125598245Y-143708171D02*
X125645864Y-143803409D01*
X125645864Y-143803409D02*
X125645864Y-143898647D01*
X125645864Y-143898647D02*
X125169674Y-143993885D01*
X125931579Y-143660552D02*
X126312531Y-143660552D01*
X126074436Y-143327219D02*
X126074436Y-144184361D01*
X126074436Y-144184361D02*
X126122055Y-144279600D01*
X126122055Y-144279600D02*
X126217293Y-144327219D01*
X126217293Y-144327219D02*
X126312531Y-144327219D01*
X127979198Y-144231980D02*
X127931579Y-144279600D01*
X127931579Y-144279600D02*
X127788722Y-144327219D01*
X127788722Y-144327219D02*
X127693484Y-144327219D01*
X127693484Y-144327219D02*
X127550627Y-144279600D01*
X127550627Y-144279600D02*
X127455389Y-144184361D01*
X127455389Y-144184361D02*
X127407770Y-144089123D01*
X127407770Y-144089123D02*
X127360151Y-143898647D01*
X127360151Y-143898647D02*
X127360151Y-143755790D01*
X127360151Y-143755790D02*
X127407770Y-143565314D01*
X127407770Y-143565314D02*
X127455389Y-143470076D01*
X127455389Y-143470076D02*
X127550627Y-143374838D01*
X127550627Y-143374838D02*
X127693484Y-143327219D01*
X127693484Y-143327219D02*
X127788722Y-143327219D01*
X127788722Y-143327219D02*
X127931579Y-143374838D01*
X127931579Y-143374838D02*
X127979198Y-143422457D01*
X128550627Y-144327219D02*
X128455389Y-144279600D01*
X128455389Y-144279600D02*
X128407770Y-144231980D01*
X128407770Y-144231980D02*
X128360151Y-144136742D01*
X128360151Y-144136742D02*
X128360151Y-143851028D01*
X128360151Y-143851028D02*
X128407770Y-143755790D01*
X128407770Y-143755790D02*
X128455389Y-143708171D01*
X128455389Y-143708171D02*
X128550627Y-143660552D01*
X128550627Y-143660552D02*
X128693484Y-143660552D01*
X128693484Y-143660552D02*
X128788722Y-143708171D01*
X128788722Y-143708171D02*
X128836341Y-143755790D01*
X128836341Y-143755790D02*
X128883960Y-143851028D01*
X128883960Y-143851028D02*
X128883960Y-144136742D01*
X128883960Y-144136742D02*
X128836341Y-144231980D01*
X128836341Y-144231980D02*
X128788722Y-144279600D01*
X128788722Y-144279600D02*
X128693484Y-144327219D01*
X128693484Y-144327219D02*
X128550627Y-144327219D01*
X129264913Y-144279600D02*
X129360151Y-144327219D01*
X129360151Y-144327219D02*
X129550627Y-144327219D01*
X129550627Y-144327219D02*
X129645865Y-144279600D01*
X129645865Y-144279600D02*
X129693484Y-144184361D01*
X129693484Y-144184361D02*
X129693484Y-144136742D01*
X129693484Y-144136742D02*
X129645865Y-144041504D01*
X129645865Y-144041504D02*
X129550627Y-143993885D01*
X129550627Y-143993885D02*
X129407770Y-143993885D01*
X129407770Y-143993885D02*
X129312532Y-143946266D01*
X129312532Y-143946266D02*
X129264913Y-143851028D01*
X129264913Y-143851028D02*
X129264913Y-143803409D01*
X129264913Y-143803409D02*
X129312532Y-143708171D01*
X129312532Y-143708171D02*
X129407770Y-143660552D01*
X129407770Y-143660552D02*
X129550627Y-143660552D01*
X129550627Y-143660552D02*
X129645865Y-143708171D01*
X130122056Y-144327219D02*
X130122056Y-143660552D01*
X130122056Y-143755790D02*
X130169675Y-143708171D01*
X130169675Y-143708171D02*
X130264913Y-143660552D01*
X130264913Y-143660552D02*
X130407770Y-143660552D01*
X130407770Y-143660552D02*
X130503008Y-143708171D01*
X130503008Y-143708171D02*
X130550627Y-143803409D01*
X130550627Y-143803409D02*
X130550627Y-144327219D01*
X130550627Y-143803409D02*
X130598246Y-143708171D01*
X130598246Y-143708171D02*
X130693484Y-143660552D01*
X130693484Y-143660552D02*
X130836341Y-143660552D01*
X130836341Y-143660552D02*
X130931580Y-143708171D01*
X130931580Y-143708171D02*
X130979199Y-143803409D01*
X130979199Y-143803409D02*
X130979199Y-144327219D01*
X131455389Y-144327219D02*
X131455389Y-143660552D01*
X131455389Y-143327219D02*
X131407770Y-143374838D01*
X131407770Y-143374838D02*
X131455389Y-143422457D01*
X131455389Y-143422457D02*
X131503008Y-143374838D01*
X131503008Y-143374838D02*
X131455389Y-143327219D01*
X131455389Y-143327219D02*
X131455389Y-143422457D01*
X132360150Y-144279600D02*
X132264912Y-144327219D01*
X132264912Y-144327219D02*
X132074436Y-144327219D01*
X132074436Y-144327219D02*
X131979198Y-144279600D01*
X131979198Y-144279600D02*
X131931579Y-144231980D01*
X131931579Y-144231980D02*
X131883960Y-144136742D01*
X131883960Y-144136742D02*
X131883960Y-143851028D01*
X131883960Y-143851028D02*
X131931579Y-143755790D01*
X131931579Y-143755790D02*
X131979198Y-143708171D01*
X131979198Y-143708171D02*
X132074436Y-143660552D01*
X132074436Y-143660552D02*
X132264912Y-143660552D01*
X132264912Y-143660552D02*
X132360150Y-143708171D01*
X133455389Y-143327219D02*
X133693484Y-144327219D01*
X133693484Y-144327219D02*
X133883960Y-143612933D01*
X133883960Y-143612933D02*
X134074436Y-144327219D01*
X134074436Y-144327219D02*
X134312532Y-143327219D01*
X135122055Y-144327219D02*
X135122055Y-143803409D01*
X135122055Y-143803409D02*
X135074436Y-143708171D01*
X135074436Y-143708171D02*
X134979198Y-143660552D01*
X134979198Y-143660552D02*
X134788722Y-143660552D01*
X134788722Y-143660552D02*
X134693484Y-143708171D01*
X135122055Y-144279600D02*
X135026817Y-144327219D01*
X135026817Y-144327219D02*
X134788722Y-144327219D01*
X134788722Y-144327219D02*
X134693484Y-144279600D01*
X134693484Y-144279600D02*
X134645865Y-144184361D01*
X134645865Y-144184361D02*
X134645865Y-144089123D01*
X134645865Y-144089123D02*
X134693484Y-143993885D01*
X134693484Y-143993885D02*
X134788722Y-143946266D01*
X134788722Y-143946266D02*
X135026817Y-143946266D01*
X135026817Y-143946266D02*
X135122055Y-143898647D01*
X135455389Y-143660552D02*
X135836341Y-143660552D01*
X135598246Y-143327219D02*
X135598246Y-144184361D01*
X135598246Y-144184361D02*
X135645865Y-144279600D01*
X135645865Y-144279600D02*
X135741103Y-144327219D01*
X135741103Y-144327219D02*
X135836341Y-144327219D01*
X136598246Y-144279600D02*
X136503008Y-144327219D01*
X136503008Y-144327219D02*
X136312532Y-144327219D01*
X136312532Y-144327219D02*
X136217294Y-144279600D01*
X136217294Y-144279600D02*
X136169675Y-144231980D01*
X136169675Y-144231980D02*
X136122056Y-144136742D01*
X136122056Y-144136742D02*
X136122056Y-143851028D01*
X136122056Y-143851028D02*
X136169675Y-143755790D01*
X136169675Y-143755790D02*
X136217294Y-143708171D01*
X136217294Y-143708171D02*
X136312532Y-143660552D01*
X136312532Y-143660552D02*
X136503008Y-143660552D01*
X136503008Y-143660552D02*
X136598246Y-143708171D01*
X137026818Y-144327219D02*
X137026818Y-143327219D01*
X137455389Y-144327219D02*
X137455389Y-143803409D01*
X137455389Y-143803409D02*
X137407770Y-143708171D01*
X137407770Y-143708171D02*
X137312532Y-143660552D01*
X137312532Y-143660552D02*
X137169675Y-143660552D01*
X137169675Y-143660552D02*
X137074437Y-143708171D01*
X137074437Y-143708171D02*
X137026818Y-143755790D01*
X138693485Y-144327219D02*
X138693485Y-143327219D01*
X138693485Y-143708171D02*
X138788723Y-143660552D01*
X138788723Y-143660552D02*
X138979199Y-143660552D01*
X138979199Y-143660552D02*
X139074437Y-143708171D01*
X139074437Y-143708171D02*
X139122056Y-143755790D01*
X139122056Y-143755790D02*
X139169675Y-143851028D01*
X139169675Y-143851028D02*
X139169675Y-144136742D01*
X139169675Y-144136742D02*
X139122056Y-144231980D01*
X139122056Y-144231980D02*
X139074437Y-144279600D01*
X139074437Y-144279600D02*
X138979199Y-144327219D01*
X138979199Y-144327219D02*
X138788723Y-144327219D01*
X138788723Y-144327219D02*
X138693485Y-144279600D01*
X139503009Y-143660552D02*
X139741104Y-144327219D01*
X139979199Y-143660552D02*
X139741104Y-144327219D01*
X139741104Y-144327219D02*
X139645866Y-144565314D01*
X139645866Y-144565314D02*
X139598247Y-144612933D01*
X139598247Y-144612933D02*
X139503009Y-144660552D01*
X141122057Y-144327219D02*
X141122057Y-143327219D01*
X141122057Y-143327219D02*
X141503009Y-143327219D01*
X141503009Y-143327219D02*
X141598247Y-143374838D01*
X141598247Y-143374838D02*
X141645866Y-143422457D01*
X141645866Y-143422457D02*
X141693485Y-143517695D01*
X141693485Y-143517695D02*
X141693485Y-143660552D01*
X141693485Y-143660552D02*
X141645866Y-143755790D01*
X141645866Y-143755790D02*
X141598247Y-143803409D01*
X141598247Y-143803409D02*
X141503009Y-143851028D01*
X141503009Y-143851028D02*
X141122057Y-143851028D01*
X142122057Y-144327219D02*
X142122057Y-143660552D01*
X142122057Y-143851028D02*
X142169676Y-143755790D01*
X142169676Y-143755790D02*
X142217295Y-143708171D01*
X142217295Y-143708171D02*
X142312533Y-143660552D01*
X142312533Y-143660552D02*
X142407771Y-143660552D01*
X143169676Y-144327219D02*
X143169676Y-143803409D01*
X143169676Y-143803409D02*
X143122057Y-143708171D01*
X143122057Y-143708171D02*
X143026819Y-143660552D01*
X143026819Y-143660552D02*
X142836343Y-143660552D01*
X142836343Y-143660552D02*
X142741105Y-143708171D01*
X143169676Y-144279600D02*
X143074438Y-144327219D01*
X143074438Y-144327219D02*
X142836343Y-144327219D01*
X142836343Y-144327219D02*
X142741105Y-144279600D01*
X142741105Y-144279600D02*
X142693486Y-144184361D01*
X142693486Y-144184361D02*
X142693486Y-144089123D01*
X142693486Y-144089123D02*
X142741105Y-143993885D01*
X142741105Y-143993885D02*
X142836343Y-143946266D01*
X142836343Y-143946266D02*
X143074438Y-143946266D01*
X143074438Y-143946266D02*
X143169676Y-143898647D01*
X144074438Y-143660552D02*
X144074438Y-144470076D01*
X144074438Y-144470076D02*
X144026819Y-144565314D01*
X144026819Y-144565314D02*
X143979200Y-144612933D01*
X143979200Y-144612933D02*
X143883962Y-144660552D01*
X143883962Y-144660552D02*
X143741105Y-144660552D01*
X143741105Y-144660552D02*
X143645867Y-144612933D01*
X144074438Y-144279600D02*
X143979200Y-144327219D01*
X143979200Y-144327219D02*
X143788724Y-144327219D01*
X143788724Y-144327219D02*
X143693486Y-144279600D01*
X143693486Y-144279600D02*
X143645867Y-144231980D01*
X143645867Y-144231980D02*
X143598248Y-144136742D01*
X143598248Y-144136742D02*
X143598248Y-143851028D01*
X143598248Y-143851028D02*
X143645867Y-143755790D01*
X143645867Y-143755790D02*
X143693486Y-143708171D01*
X143693486Y-143708171D02*
X143788724Y-143660552D01*
X143788724Y-143660552D02*
X143979200Y-143660552D01*
X143979200Y-143660552D02*
X144074438Y-143708171D01*
X144979200Y-143660552D02*
X144979200Y-144327219D01*
X144550629Y-143660552D02*
X144550629Y-144184361D01*
X144550629Y-144184361D02*
X144598248Y-144279600D01*
X144598248Y-144279600D02*
X144693486Y-144327219D01*
X144693486Y-144327219D02*
X144836343Y-144327219D01*
X144836343Y-144327219D02*
X144931581Y-144279600D01*
X144931581Y-144279600D02*
X144979200Y-144231980D01*
X145455391Y-143660552D02*
X145455391Y-144327219D01*
X145455391Y-143755790D02*
X145503010Y-143708171D01*
X145503010Y-143708171D02*
X145598248Y-143660552D01*
X145598248Y-143660552D02*
X145741105Y-143660552D01*
X145741105Y-143660552D02*
X145836343Y-143708171D01*
X145836343Y-143708171D02*
X145883962Y-143803409D01*
X145883962Y-143803409D02*
X145883962Y-144327219D01*
X147455391Y-143803409D02*
X147598248Y-143851028D01*
X147598248Y-143851028D02*
X147645867Y-143898647D01*
X147645867Y-143898647D02*
X147693486Y-143993885D01*
X147693486Y-143993885D02*
X147693486Y-144136742D01*
X147693486Y-144136742D02*
X147645867Y-144231980D01*
X147645867Y-144231980D02*
X147598248Y-144279600D01*
X147598248Y-144279600D02*
X147503010Y-144327219D01*
X147503010Y-144327219D02*
X147122058Y-144327219D01*
X147122058Y-144327219D02*
X147122058Y-143327219D01*
X147122058Y-143327219D02*
X147455391Y-143327219D01*
X147455391Y-143327219D02*
X147550629Y-143374838D01*
X147550629Y-143374838D02*
X147598248Y-143422457D01*
X147598248Y-143422457D02*
X147645867Y-143517695D01*
X147645867Y-143517695D02*
X147645867Y-143612933D01*
X147645867Y-143612933D02*
X147598248Y-143708171D01*
X147598248Y-143708171D02*
X147550629Y-143755790D01*
X147550629Y-143755790D02*
X147455391Y-143803409D01*
X147455391Y-143803409D02*
X147122058Y-143803409D01*
X148503010Y-144279600D02*
X148407772Y-144327219D01*
X148407772Y-144327219D02*
X148217296Y-144327219D01*
X148217296Y-144327219D02*
X148122058Y-144279600D01*
X148122058Y-144279600D02*
X148074439Y-144184361D01*
X148074439Y-144184361D02*
X148074439Y-143803409D01*
X148074439Y-143803409D02*
X148122058Y-143708171D01*
X148122058Y-143708171D02*
X148217296Y-143660552D01*
X148217296Y-143660552D02*
X148407772Y-143660552D01*
X148407772Y-143660552D02*
X148503010Y-143708171D01*
X148503010Y-143708171D02*
X148550629Y-143803409D01*
X148550629Y-143803409D02*
X148550629Y-143898647D01*
X148550629Y-143898647D02*
X148074439Y-143993885D01*
X148836344Y-143660552D02*
X149217296Y-143660552D01*
X148979201Y-143327219D02*
X148979201Y-144184361D01*
X148979201Y-144184361D02*
X149026820Y-144279600D01*
X149026820Y-144279600D02*
X149122058Y-144327219D01*
X149122058Y-144327219D02*
X149217296Y-144327219D01*
X149550630Y-144327219D02*
X149550630Y-143327219D01*
X149979201Y-144327219D02*
X149979201Y-143803409D01*
X149979201Y-143803409D02*
X149931582Y-143708171D01*
X149931582Y-143708171D02*
X149836344Y-143660552D01*
X149836344Y-143660552D02*
X149693487Y-143660552D01*
X149693487Y-143660552D02*
X149598249Y-143708171D01*
X149598249Y-143708171D02*
X149550630Y-143755790D01*
X150883963Y-144327219D02*
X150883963Y-143803409D01*
X150883963Y-143803409D02*
X150836344Y-143708171D01*
X150836344Y-143708171D02*
X150741106Y-143660552D01*
X150741106Y-143660552D02*
X150550630Y-143660552D01*
X150550630Y-143660552D02*
X150455392Y-143708171D01*
X150883963Y-144279600D02*
X150788725Y-144327219D01*
X150788725Y-144327219D02*
X150550630Y-144327219D01*
X150550630Y-144327219D02*
X150455392Y-144279600D01*
X150455392Y-144279600D02*
X150407773Y-144184361D01*
X150407773Y-144184361D02*
X150407773Y-144089123D01*
X150407773Y-144089123D02*
X150455392Y-143993885D01*
X150455392Y-143993885D02*
X150550630Y-143946266D01*
X150550630Y-143946266D02*
X150788725Y-143946266D01*
X150788725Y-143946266D02*
X150883963Y-143898647D01*
X151360154Y-143660552D02*
X151360154Y-144660552D01*
X151360154Y-143708171D02*
X151455392Y-143660552D01*
X151455392Y-143660552D02*
X151645868Y-143660552D01*
X151645868Y-143660552D02*
X151741106Y-143708171D01*
X151741106Y-143708171D02*
X151788725Y-143755790D01*
X151788725Y-143755790D02*
X151836344Y-143851028D01*
X151836344Y-143851028D02*
X151836344Y-144136742D01*
X151836344Y-144136742D02*
X151788725Y-144231980D01*
X151788725Y-144231980D02*
X151741106Y-144279600D01*
X151741106Y-144279600D02*
X151645868Y-144327219D01*
X151645868Y-144327219D02*
X151455392Y-144327219D01*
X151455392Y-144327219D02*
X151360154Y-144279600D01*
X152693487Y-143660552D02*
X152693487Y-144327219D01*
X152264916Y-143660552D02*
X152264916Y-144184361D01*
X152264916Y-144184361D02*
X152312535Y-144279600D01*
X152312535Y-144279600D02*
X152407773Y-144327219D01*
X152407773Y-144327219D02*
X152550630Y-144327219D01*
X152550630Y-144327219D02*
X152645868Y-144279600D01*
X152645868Y-144279600D02*
X152693487Y-144231980D01*
X153598249Y-144327219D02*
X153598249Y-143327219D01*
X153598249Y-144279600D02*
X153503011Y-144327219D01*
X153503011Y-144327219D02*
X153312535Y-144327219D01*
X153312535Y-144327219D02*
X153217297Y-144279600D01*
X153217297Y-144279600D02*
X153169678Y-144231980D01*
X153169678Y-144231980D02*
X153122059Y-144136742D01*
X153122059Y-144136742D02*
X153122059Y-143851028D01*
X153122059Y-143851028D02*
X153169678Y-143755790D01*
X153169678Y-143755790D02*
X153217297Y-143708171D01*
X153217297Y-143708171D02*
X153312535Y-143660552D01*
X153312535Y-143660552D02*
X153503011Y-143660552D01*
X153503011Y-143660552D02*
X153598249Y-143708171D01*
X154074440Y-144327219D02*
X154074440Y-143660552D01*
X154074440Y-143327219D02*
X154026821Y-143374838D01*
X154026821Y-143374838D02*
X154074440Y-143422457D01*
X154074440Y-143422457D02*
X154122059Y-143374838D01*
X154122059Y-143374838D02*
X154074440Y-143327219D01*
X154074440Y-143327219D02*
X154074440Y-143422457D01*
X132322054Y-61031504D02*
X132798244Y-61031504D01*
X132226816Y-61317219D02*
X132560149Y-60317219D01*
X132560149Y-60317219D02*
X132893482Y-61317219D01*
X133226816Y-61317219D02*
X133226816Y-60650552D01*
X133226816Y-60745790D02*
X133274435Y-60698171D01*
X133274435Y-60698171D02*
X133369673Y-60650552D01*
X133369673Y-60650552D02*
X133512530Y-60650552D01*
X133512530Y-60650552D02*
X133607768Y-60698171D01*
X133607768Y-60698171D02*
X133655387Y-60793409D01*
X133655387Y-60793409D02*
X133655387Y-61317219D01*
X133655387Y-60793409D02*
X133703006Y-60698171D01*
X133703006Y-60698171D02*
X133798244Y-60650552D01*
X133798244Y-60650552D02*
X133941101Y-60650552D01*
X133941101Y-60650552D02*
X134036340Y-60698171D01*
X134036340Y-60698171D02*
X134083959Y-60793409D01*
X134083959Y-60793409D02*
X134083959Y-61317219D01*
X134560149Y-60650552D02*
X134560149Y-61650552D01*
X134560149Y-60698171D02*
X134655387Y-60650552D01*
X134655387Y-60650552D02*
X134845863Y-60650552D01*
X134845863Y-60650552D02*
X134941101Y-60698171D01*
X134941101Y-60698171D02*
X134988720Y-60745790D01*
X134988720Y-60745790D02*
X135036339Y-60841028D01*
X135036339Y-60841028D02*
X135036339Y-61126742D01*
X135036339Y-61126742D02*
X134988720Y-61221980D01*
X134988720Y-61221980D02*
X134941101Y-61269600D01*
X134941101Y-61269600D02*
X134845863Y-61317219D01*
X134845863Y-61317219D02*
X134655387Y-61317219D01*
X134655387Y-61317219D02*
X134560149Y-61269600D01*
X136179197Y-61269600D02*
X136322054Y-61317219D01*
X136322054Y-61317219D02*
X136560149Y-61317219D01*
X136560149Y-61317219D02*
X136655387Y-61269600D01*
X136655387Y-61269600D02*
X136703006Y-61221980D01*
X136703006Y-61221980D02*
X136750625Y-61126742D01*
X136750625Y-61126742D02*
X136750625Y-61031504D01*
X136750625Y-61031504D02*
X136703006Y-60936266D01*
X136703006Y-60936266D02*
X136655387Y-60888647D01*
X136655387Y-60888647D02*
X136560149Y-60841028D01*
X136560149Y-60841028D02*
X136369673Y-60793409D01*
X136369673Y-60793409D02*
X136274435Y-60745790D01*
X136274435Y-60745790D02*
X136226816Y-60698171D01*
X136226816Y-60698171D02*
X136179197Y-60602933D01*
X136179197Y-60602933D02*
X136179197Y-60507695D01*
X136179197Y-60507695D02*
X136226816Y-60412457D01*
X136226816Y-60412457D02*
X136274435Y-60364838D01*
X136274435Y-60364838D02*
X136369673Y-60317219D01*
X136369673Y-60317219D02*
X136607768Y-60317219D01*
X136607768Y-60317219D02*
X136750625Y-60364838D01*
X137179197Y-61317219D02*
X137179197Y-60650552D01*
X137179197Y-60317219D02*
X137131578Y-60364838D01*
X137131578Y-60364838D02*
X137179197Y-60412457D01*
X137179197Y-60412457D02*
X137226816Y-60364838D01*
X137226816Y-60364838D02*
X137179197Y-60317219D01*
X137179197Y-60317219D02*
X137179197Y-60412457D01*
X138083958Y-60650552D02*
X138083958Y-61460076D01*
X138083958Y-61460076D02*
X138036339Y-61555314D01*
X138036339Y-61555314D02*
X137988720Y-61602933D01*
X137988720Y-61602933D02*
X137893482Y-61650552D01*
X137893482Y-61650552D02*
X137750625Y-61650552D01*
X137750625Y-61650552D02*
X137655387Y-61602933D01*
X138083958Y-61269600D02*
X137988720Y-61317219D01*
X137988720Y-61317219D02*
X137798244Y-61317219D01*
X137798244Y-61317219D02*
X137703006Y-61269600D01*
X137703006Y-61269600D02*
X137655387Y-61221980D01*
X137655387Y-61221980D02*
X137607768Y-61126742D01*
X137607768Y-61126742D02*
X137607768Y-60841028D01*
X137607768Y-60841028D02*
X137655387Y-60745790D01*
X137655387Y-60745790D02*
X137703006Y-60698171D01*
X137703006Y-60698171D02*
X137798244Y-60650552D01*
X137798244Y-60650552D02*
X137988720Y-60650552D01*
X137988720Y-60650552D02*
X138083958Y-60698171D01*
X138560149Y-60650552D02*
X138560149Y-61317219D01*
X138560149Y-60745790D02*
X138607768Y-60698171D01*
X138607768Y-60698171D02*
X138703006Y-60650552D01*
X138703006Y-60650552D02*
X138845863Y-60650552D01*
X138845863Y-60650552D02*
X138941101Y-60698171D01*
X138941101Y-60698171D02*
X138988720Y-60793409D01*
X138988720Y-60793409D02*
X138988720Y-61317219D01*
X139893482Y-61317219D02*
X139893482Y-60793409D01*
X139893482Y-60793409D02*
X139845863Y-60698171D01*
X139845863Y-60698171D02*
X139750625Y-60650552D01*
X139750625Y-60650552D02*
X139560149Y-60650552D01*
X139560149Y-60650552D02*
X139464911Y-60698171D01*
X139893482Y-61269600D02*
X139798244Y-61317219D01*
X139798244Y-61317219D02*
X139560149Y-61317219D01*
X139560149Y-61317219D02*
X139464911Y-61269600D01*
X139464911Y-61269600D02*
X139417292Y-61174361D01*
X139417292Y-61174361D02*
X139417292Y-61079123D01*
X139417292Y-61079123D02*
X139464911Y-60983885D01*
X139464911Y-60983885D02*
X139560149Y-60936266D01*
X139560149Y-60936266D02*
X139798244Y-60936266D01*
X139798244Y-60936266D02*
X139893482Y-60888647D01*
X140512530Y-61317219D02*
X140417292Y-61269600D01*
X140417292Y-61269600D02*
X140369673Y-61174361D01*
X140369673Y-61174361D02*
X140369673Y-60317219D01*
X170009523Y-94642219D02*
X169533333Y-94642219D01*
X169533333Y-94642219D02*
X169485714Y-95118409D01*
X169485714Y-95118409D02*
X169533333Y-95070790D01*
X169533333Y-95070790D02*
X169628571Y-95023171D01*
X169628571Y-95023171D02*
X169866666Y-95023171D01*
X169866666Y-95023171D02*
X169961904Y-95070790D01*
X169961904Y-95070790D02*
X170009523Y-95118409D01*
X170009523Y-95118409D02*
X170057142Y-95213647D01*
X170057142Y-95213647D02*
X170057142Y-95451742D01*
X170057142Y-95451742D02*
X170009523Y-95546980D01*
X170009523Y-95546980D02*
X169961904Y-95594600D01*
X169961904Y-95594600D02*
X169866666Y-95642219D01*
X169866666Y-95642219D02*
X169628571Y-95642219D01*
X169628571Y-95642219D02*
X169533333Y-95594600D01*
X169533333Y-95594600D02*
X169485714Y-95546980D01*
X170342857Y-94642219D02*
X170676190Y-95642219D01*
X170676190Y-95642219D02*
X171009523Y-94642219D01*
X148895863Y-60597219D02*
X148419673Y-60597219D01*
X148419673Y-60597219D02*
X148372054Y-61073409D01*
X148372054Y-61073409D02*
X148419673Y-61025790D01*
X148419673Y-61025790D02*
X148514911Y-60978171D01*
X148514911Y-60978171D02*
X148753006Y-60978171D01*
X148753006Y-60978171D02*
X148848244Y-61025790D01*
X148848244Y-61025790D02*
X148895863Y-61073409D01*
X148895863Y-61073409D02*
X148943482Y-61168647D01*
X148943482Y-61168647D02*
X148943482Y-61406742D01*
X148943482Y-61406742D02*
X148895863Y-61501980D01*
X148895863Y-61501980D02*
X148848244Y-61549600D01*
X148848244Y-61549600D02*
X148753006Y-61597219D01*
X148753006Y-61597219D02*
X148514911Y-61597219D01*
X148514911Y-61597219D02*
X148419673Y-61549600D01*
X148419673Y-61549600D02*
X148372054Y-61501980D01*
X149229197Y-60597219D02*
X149562530Y-61597219D01*
X149562530Y-61597219D02*
X149895863Y-60597219D01*
X95663095Y-101327219D02*
X96234523Y-101327219D01*
X95948809Y-102327219D02*
X95948809Y-101327219D01*
X96567857Y-102327219D02*
X96567857Y-101327219D01*
X96567857Y-101327219D02*
X96948809Y-101327219D01*
X96948809Y-101327219D02*
X97044047Y-101374838D01*
X97044047Y-101374838D02*
X97091666Y-101422457D01*
X97091666Y-101422457D02*
X97139285Y-101517695D01*
X97139285Y-101517695D02*
X97139285Y-101660552D01*
X97139285Y-101660552D02*
X97091666Y-101755790D01*
X97091666Y-101755790D02*
X97044047Y-101803409D01*
X97044047Y-101803409D02*
X96948809Y-101851028D01*
X96948809Y-101851028D02*
X96567857Y-101851028D01*
X98044047Y-101327219D02*
X97567857Y-101327219D01*
X97567857Y-101327219D02*
X97520238Y-101803409D01*
X97520238Y-101803409D02*
X97567857Y-101755790D01*
X97567857Y-101755790D02*
X97663095Y-101708171D01*
X97663095Y-101708171D02*
X97901190Y-101708171D01*
X97901190Y-101708171D02*
X97996428Y-101755790D01*
X97996428Y-101755790D02*
X98044047Y-101803409D01*
X98044047Y-101803409D02*
X98091666Y-101898647D01*
X98091666Y-101898647D02*
X98091666Y-102136742D01*
X98091666Y-102136742D02*
X98044047Y-102231980D01*
X98044047Y-102231980D02*
X97996428Y-102279600D01*
X97996428Y-102279600D02*
X97901190Y-102327219D01*
X97901190Y-102327219D02*
X97663095Y-102327219D01*
X97663095Y-102327219D02*
X97567857Y-102279600D01*
X97567857Y-102279600D02*
X97520238Y-102231980D01*
X93996429Y-106662219D02*
X94329762Y-107662219D01*
X94329762Y-107662219D02*
X94663095Y-106662219D01*
X94996429Y-107281266D02*
X95758334Y-107281266D01*
X95377381Y-107662219D02*
X95377381Y-106900314D01*
X97329762Y-107138409D02*
X97472619Y-107186028D01*
X97472619Y-107186028D02*
X97520238Y-107233647D01*
X97520238Y-107233647D02*
X97567857Y-107328885D01*
X97567857Y-107328885D02*
X97567857Y-107471742D01*
X97567857Y-107471742D02*
X97520238Y-107566980D01*
X97520238Y-107566980D02*
X97472619Y-107614600D01*
X97472619Y-107614600D02*
X97377381Y-107662219D01*
X97377381Y-107662219D02*
X96996429Y-107662219D01*
X96996429Y-107662219D02*
X96996429Y-106662219D01*
X96996429Y-106662219D02*
X97329762Y-106662219D01*
X97329762Y-106662219D02*
X97425000Y-106709838D01*
X97425000Y-106709838D02*
X97472619Y-106757457D01*
X97472619Y-106757457D02*
X97520238Y-106852695D01*
X97520238Y-106852695D02*
X97520238Y-106947933D01*
X97520238Y-106947933D02*
X97472619Y-107043171D01*
X97472619Y-107043171D02*
X97425000Y-107090790D01*
X97425000Y-107090790D02*
X97329762Y-107138409D01*
X97329762Y-107138409D02*
X96996429Y-107138409D01*
X97996429Y-107662219D02*
X97996429Y-106995552D01*
X97996429Y-106662219D02*
X97948810Y-106709838D01*
X97948810Y-106709838D02*
X97996429Y-106757457D01*
X97996429Y-106757457D02*
X98044048Y-106709838D01*
X98044048Y-106709838D02*
X97996429Y-106662219D01*
X97996429Y-106662219D02*
X97996429Y-106757457D01*
X98901190Y-107662219D02*
X98901190Y-107138409D01*
X98901190Y-107138409D02*
X98853571Y-107043171D01*
X98853571Y-107043171D02*
X98758333Y-106995552D01*
X98758333Y-106995552D02*
X98567857Y-106995552D01*
X98567857Y-106995552D02*
X98472619Y-107043171D01*
X98901190Y-107614600D02*
X98805952Y-107662219D01*
X98805952Y-107662219D02*
X98567857Y-107662219D01*
X98567857Y-107662219D02*
X98472619Y-107614600D01*
X98472619Y-107614600D02*
X98425000Y-107519361D01*
X98425000Y-107519361D02*
X98425000Y-107424123D01*
X98425000Y-107424123D02*
X98472619Y-107328885D01*
X98472619Y-107328885D02*
X98567857Y-107281266D01*
X98567857Y-107281266D02*
X98805952Y-107281266D01*
X98805952Y-107281266D02*
X98901190Y-107233647D01*
X99329762Y-107614600D02*
X99425000Y-107662219D01*
X99425000Y-107662219D02*
X99615476Y-107662219D01*
X99615476Y-107662219D02*
X99710714Y-107614600D01*
X99710714Y-107614600D02*
X99758333Y-107519361D01*
X99758333Y-107519361D02*
X99758333Y-107471742D01*
X99758333Y-107471742D02*
X99710714Y-107376504D01*
X99710714Y-107376504D02*
X99615476Y-107328885D01*
X99615476Y-107328885D02*
X99472619Y-107328885D01*
X99472619Y-107328885D02*
X99377381Y-107281266D01*
X99377381Y-107281266D02*
X99329762Y-107186028D01*
X99329762Y-107186028D02*
X99329762Y-107138409D01*
X99329762Y-107138409D02*
X99377381Y-107043171D01*
X99377381Y-107043171D02*
X99472619Y-106995552D01*
X99472619Y-106995552D02*
X99615476Y-106995552D01*
X99615476Y-106995552D02*
X99710714Y-107043171D01*
D12*
X103148095Y-75864819D02*
X103148095Y-74864819D01*
X103148095Y-75341009D02*
X103719523Y-75341009D01*
X103719523Y-75864819D02*
X103719523Y-74864819D01*
X104719523Y-75864819D02*
X104148095Y-75864819D01*
X104433809Y-75864819D02*
X104433809Y-74864819D01*
X104433809Y-74864819D02*
X104338571Y-75007676D01*
X104338571Y-75007676D02*
X104243333Y-75102914D01*
X104243333Y-75102914D02*
X104148095Y-75150533D01*
X160688095Y-124594819D02*
X160688095Y-123594819D01*
X160688095Y-124071009D02*
X161259523Y-124071009D01*
X161259523Y-124594819D02*
X161259523Y-123594819D01*
X162164285Y-123928152D02*
X162164285Y-124594819D01*
X161926190Y-123547200D02*
X161688095Y-124261485D01*
X161688095Y-124261485D02*
X162307142Y-124261485D01*
D11*
X126938095Y-61572219D02*
X127509523Y-61572219D01*
X127223809Y-62572219D02*
X127223809Y-61572219D01*
X127842857Y-62572219D02*
X127842857Y-61572219D01*
X127842857Y-61572219D02*
X128223809Y-61572219D01*
X128223809Y-61572219D02*
X128319047Y-61619838D01*
X128319047Y-61619838D02*
X128366666Y-61667457D01*
X128366666Y-61667457D02*
X128414285Y-61762695D01*
X128414285Y-61762695D02*
X128414285Y-61905552D01*
X128414285Y-61905552D02*
X128366666Y-62000790D01*
X128366666Y-62000790D02*
X128319047Y-62048409D01*
X128319047Y-62048409D02*
X128223809Y-62096028D01*
X128223809Y-62096028D02*
X127842857Y-62096028D01*
X128795238Y-61667457D02*
X128842857Y-61619838D01*
X128842857Y-61619838D02*
X128938095Y-61572219D01*
X128938095Y-61572219D02*
X129176190Y-61572219D01*
X129176190Y-61572219D02*
X129271428Y-61619838D01*
X129271428Y-61619838D02*
X129319047Y-61667457D01*
X129319047Y-61667457D02*
X129366666Y-61762695D01*
X129366666Y-61762695D02*
X129366666Y-61857933D01*
X129366666Y-61857933D02*
X129319047Y-62000790D01*
X129319047Y-62000790D02*
X128747619Y-62572219D01*
X128747619Y-62572219D02*
X129366666Y-62572219D01*
X135513095Y-132902219D02*
X136084523Y-132902219D01*
X135798809Y-133902219D02*
X135798809Y-132902219D01*
X136417857Y-133902219D02*
X136417857Y-132902219D01*
X136417857Y-132902219D02*
X136798809Y-132902219D01*
X136798809Y-132902219D02*
X136894047Y-132949838D01*
X136894047Y-132949838D02*
X136941666Y-132997457D01*
X136941666Y-132997457D02*
X136989285Y-133092695D01*
X136989285Y-133092695D02*
X136989285Y-133235552D01*
X136989285Y-133235552D02*
X136941666Y-133330790D01*
X136941666Y-133330790D02*
X136894047Y-133378409D01*
X136894047Y-133378409D02*
X136798809Y-133426028D01*
X136798809Y-133426028D02*
X136417857Y-133426028D01*
X137560714Y-133330790D02*
X137465476Y-133283171D01*
X137465476Y-133283171D02*
X137417857Y-133235552D01*
X137417857Y-133235552D02*
X137370238Y-133140314D01*
X137370238Y-133140314D02*
X137370238Y-133092695D01*
X137370238Y-133092695D02*
X137417857Y-132997457D01*
X137417857Y-132997457D02*
X137465476Y-132949838D01*
X137465476Y-132949838D02*
X137560714Y-132902219D01*
X137560714Y-132902219D02*
X137751190Y-132902219D01*
X137751190Y-132902219D02*
X137846428Y-132949838D01*
X137846428Y-132949838D02*
X137894047Y-132997457D01*
X137894047Y-132997457D02*
X137941666Y-133092695D01*
X137941666Y-133092695D02*
X137941666Y-133140314D01*
X137941666Y-133140314D02*
X137894047Y-133235552D01*
X137894047Y-133235552D02*
X137846428Y-133283171D01*
X137846428Y-133283171D02*
X137751190Y-133330790D01*
X137751190Y-133330790D02*
X137560714Y-133330790D01*
X137560714Y-133330790D02*
X137465476Y-133378409D01*
X137465476Y-133378409D02*
X137417857Y-133426028D01*
X137417857Y-133426028D02*
X137370238Y-133521266D01*
X137370238Y-133521266D02*
X137370238Y-133711742D01*
X137370238Y-133711742D02*
X137417857Y-133806980D01*
X137417857Y-133806980D02*
X137465476Y-133854600D01*
X137465476Y-133854600D02*
X137560714Y-133902219D01*
X137560714Y-133902219D02*
X137751190Y-133902219D01*
X137751190Y-133902219D02*
X137846428Y-133854600D01*
X137846428Y-133854600D02*
X137894047Y-133806980D01*
X137894047Y-133806980D02*
X137941666Y-133711742D01*
X137941666Y-133711742D02*
X137941666Y-133521266D01*
X137941666Y-133521266D02*
X137894047Y-133426028D01*
X137894047Y-133426028D02*
X137846428Y-133378409D01*
X137846428Y-133378409D02*
X137751190Y-133330790D01*
X134179762Y-138822219D02*
X134513095Y-139822219D01*
X134513095Y-139822219D02*
X134846428Y-138822219D01*
X135179762Y-139441266D02*
X135941667Y-139441266D01*
X135560714Y-139822219D02*
X135560714Y-139060314D01*
X137370238Y-138822219D02*
X137560714Y-138822219D01*
X137560714Y-138822219D02*
X137655952Y-138869838D01*
X137655952Y-138869838D02*
X137751190Y-138965076D01*
X137751190Y-138965076D02*
X137798809Y-139155552D01*
X137798809Y-139155552D02*
X137798809Y-139488885D01*
X137798809Y-139488885D02*
X137751190Y-139679361D01*
X137751190Y-139679361D02*
X137655952Y-139774600D01*
X137655952Y-139774600D02*
X137560714Y-139822219D01*
X137560714Y-139822219D02*
X137370238Y-139822219D01*
X137370238Y-139822219D02*
X137275000Y-139774600D01*
X137275000Y-139774600D02*
X137179762Y-139679361D01*
X137179762Y-139679361D02*
X137132143Y-139488885D01*
X137132143Y-139488885D02*
X137132143Y-139155552D01*
X137132143Y-139155552D02*
X137179762Y-138965076D01*
X137179762Y-138965076D02*
X137275000Y-138869838D01*
X137275000Y-138869838D02*
X137370238Y-138822219D01*
X138655952Y-139155552D02*
X138655952Y-139822219D01*
X138227381Y-139155552D02*
X138227381Y-139679361D01*
X138227381Y-139679361D02*
X138275000Y-139774600D01*
X138275000Y-139774600D02*
X138370238Y-139822219D01*
X138370238Y-139822219D02*
X138513095Y-139822219D01*
X138513095Y-139822219D02*
X138608333Y-139774600D01*
X138608333Y-139774600D02*
X138655952Y-139726980D01*
X138989286Y-139155552D02*
X139370238Y-139155552D01*
X139132143Y-138822219D02*
X139132143Y-139679361D01*
X139132143Y-139679361D02*
X139179762Y-139774600D01*
X139179762Y-139774600D02*
X139275000Y-139822219D01*
X139275000Y-139822219D02*
X139370238Y-139822219D01*
D12*
X154046666Y-55444819D02*
X154046666Y-56159104D01*
X154046666Y-56159104D02*
X153999047Y-56301961D01*
X153999047Y-56301961D02*
X153903809Y-56397200D01*
X153903809Y-56397200D02*
X153760952Y-56444819D01*
X153760952Y-56444819D02*
X153665714Y-56444819D01*
X154475238Y-55540057D02*
X154522857Y-55492438D01*
X154522857Y-55492438D02*
X154618095Y-55444819D01*
X154618095Y-55444819D02*
X154856190Y-55444819D01*
X154856190Y-55444819D02*
X154951428Y-55492438D01*
X154951428Y-55492438D02*
X154999047Y-55540057D01*
X154999047Y-55540057D02*
X155046666Y-55635295D01*
X155046666Y-55635295D02*
X155046666Y-55730533D01*
X155046666Y-55730533D02*
X154999047Y-55873390D01*
X154999047Y-55873390D02*
X154427619Y-56444819D01*
X154427619Y-56444819D02*
X155046666Y-56444819D01*
X132033095Y-104014819D02*
X132033095Y-104824342D01*
X132033095Y-104824342D02*
X132080714Y-104919580D01*
X132080714Y-104919580D02*
X132128333Y-104967200D01*
X132128333Y-104967200D02*
X132223571Y-105014819D01*
X132223571Y-105014819D02*
X132414047Y-105014819D01*
X132414047Y-105014819D02*
X132509285Y-104967200D01*
X132509285Y-104967200D02*
X132556904Y-104919580D01*
X132556904Y-104919580D02*
X132604523Y-104824342D01*
X132604523Y-104824342D02*
X132604523Y-104014819D01*
X133509285Y-104348152D02*
X133509285Y-105014819D01*
X133271190Y-103967200D02*
X133033095Y-104681485D01*
X133033095Y-104681485D02*
X133652142Y-104681485D01*
D11*
X169098095Y-80672219D02*
X169669523Y-80672219D01*
X169383809Y-81672219D02*
X169383809Y-80672219D01*
X170002857Y-81672219D02*
X170002857Y-80672219D01*
X170002857Y-80672219D02*
X170383809Y-80672219D01*
X170383809Y-80672219D02*
X170479047Y-80719838D01*
X170479047Y-80719838D02*
X170526666Y-80767457D01*
X170526666Y-80767457D02*
X170574285Y-80862695D01*
X170574285Y-80862695D02*
X170574285Y-81005552D01*
X170574285Y-81005552D02*
X170526666Y-81100790D01*
X170526666Y-81100790D02*
X170479047Y-81148409D01*
X170479047Y-81148409D02*
X170383809Y-81196028D01*
X170383809Y-81196028D02*
X170002857Y-81196028D01*
X170907619Y-80672219D02*
X171526666Y-80672219D01*
X171526666Y-80672219D02*
X171193333Y-81053171D01*
X171193333Y-81053171D02*
X171336190Y-81053171D01*
X171336190Y-81053171D02*
X171431428Y-81100790D01*
X171431428Y-81100790D02*
X171479047Y-81148409D01*
X171479047Y-81148409D02*
X171526666Y-81243647D01*
X171526666Y-81243647D02*
X171526666Y-81481742D01*
X171526666Y-81481742D02*
X171479047Y-81576980D01*
X171479047Y-81576980D02*
X171431428Y-81624600D01*
X171431428Y-81624600D02*
X171336190Y-81672219D01*
X171336190Y-81672219D02*
X171050476Y-81672219D01*
X171050476Y-81672219D02*
X170955238Y-81624600D01*
X170955238Y-81624600D02*
X170907619Y-81576980D01*
X169618095Y-86499838D02*
X169522857Y-86452219D01*
X169522857Y-86452219D02*
X169380000Y-86452219D01*
X169380000Y-86452219D02*
X169237143Y-86499838D01*
X169237143Y-86499838D02*
X169141905Y-86595076D01*
X169141905Y-86595076D02*
X169094286Y-86690314D01*
X169094286Y-86690314D02*
X169046667Y-86880790D01*
X169046667Y-86880790D02*
X169046667Y-87023647D01*
X169046667Y-87023647D02*
X169094286Y-87214123D01*
X169094286Y-87214123D02*
X169141905Y-87309361D01*
X169141905Y-87309361D02*
X169237143Y-87404600D01*
X169237143Y-87404600D02*
X169380000Y-87452219D01*
X169380000Y-87452219D02*
X169475238Y-87452219D01*
X169475238Y-87452219D02*
X169618095Y-87404600D01*
X169618095Y-87404600D02*
X169665714Y-87356980D01*
X169665714Y-87356980D02*
X169665714Y-87023647D01*
X169665714Y-87023647D02*
X169475238Y-87023647D01*
X170094286Y-87452219D02*
X170094286Y-86452219D01*
X170094286Y-86452219D02*
X170665714Y-87452219D01*
X170665714Y-87452219D02*
X170665714Y-86452219D01*
X171141905Y-87452219D02*
X171141905Y-86452219D01*
X171141905Y-86452219D02*
X171380000Y-86452219D01*
X171380000Y-86452219D02*
X171522857Y-86499838D01*
X171522857Y-86499838D02*
X171618095Y-86595076D01*
X171618095Y-86595076D02*
X171665714Y-86690314D01*
X171665714Y-86690314D02*
X171713333Y-86880790D01*
X171713333Y-86880790D02*
X171713333Y-87023647D01*
X171713333Y-87023647D02*
X171665714Y-87214123D01*
X171665714Y-87214123D02*
X171618095Y-87309361D01*
X171618095Y-87309361D02*
X171522857Y-87404600D01*
X171522857Y-87404600D02*
X171380000Y-87452219D01*
X171380000Y-87452219D02*
X171141905Y-87452219D01*
D12*
X103168095Y-124584819D02*
X103168095Y-123584819D01*
X103168095Y-124061009D02*
X103739523Y-124061009D01*
X103739523Y-124584819D02*
X103739523Y-123584819D01*
X104120476Y-123584819D02*
X104739523Y-123584819D01*
X104739523Y-123584819D02*
X104406190Y-123965771D01*
X104406190Y-123965771D02*
X104549047Y-123965771D01*
X104549047Y-123965771D02*
X104644285Y-124013390D01*
X104644285Y-124013390D02*
X104691904Y-124061009D01*
X104691904Y-124061009D02*
X104739523Y-124156247D01*
X104739523Y-124156247D02*
X104739523Y-124394342D01*
X104739523Y-124394342D02*
X104691904Y-124489580D01*
X104691904Y-124489580D02*
X104644285Y-124537200D01*
X104644285Y-124537200D02*
X104549047Y-124584819D01*
X104549047Y-124584819D02*
X104263333Y-124584819D01*
X104263333Y-124584819D02*
X104168095Y-124537200D01*
X104168095Y-124537200D02*
X104120476Y-124489580D01*
D11*
X121988095Y-132827219D02*
X122559523Y-132827219D01*
X122273809Y-133827219D02*
X122273809Y-132827219D01*
X122892857Y-133827219D02*
X122892857Y-132827219D01*
X122892857Y-132827219D02*
X123273809Y-132827219D01*
X123273809Y-132827219D02*
X123369047Y-132874838D01*
X123369047Y-132874838D02*
X123416666Y-132922457D01*
X123416666Y-132922457D02*
X123464285Y-133017695D01*
X123464285Y-133017695D02*
X123464285Y-133160552D01*
X123464285Y-133160552D02*
X123416666Y-133255790D01*
X123416666Y-133255790D02*
X123369047Y-133303409D01*
X123369047Y-133303409D02*
X123273809Y-133351028D01*
X123273809Y-133351028D02*
X122892857Y-133351028D01*
X123797619Y-132827219D02*
X124464285Y-132827219D01*
X124464285Y-132827219D02*
X124035714Y-133827219D01*
X120535714Y-139762219D02*
X120535714Y-138762219D01*
X120535714Y-138762219D02*
X120916666Y-138762219D01*
X120916666Y-138762219D02*
X121011904Y-138809838D01*
X121011904Y-138809838D02*
X121059523Y-138857457D01*
X121059523Y-138857457D02*
X121107142Y-138952695D01*
X121107142Y-138952695D02*
X121107142Y-139095552D01*
X121107142Y-139095552D02*
X121059523Y-139190790D01*
X121059523Y-139190790D02*
X121011904Y-139238409D01*
X121011904Y-139238409D02*
X120916666Y-139286028D01*
X120916666Y-139286028D02*
X120535714Y-139286028D01*
X121678571Y-139762219D02*
X121583333Y-139714600D01*
X121583333Y-139714600D02*
X121535714Y-139666980D01*
X121535714Y-139666980D02*
X121488095Y-139571742D01*
X121488095Y-139571742D02*
X121488095Y-139286028D01*
X121488095Y-139286028D02*
X121535714Y-139190790D01*
X121535714Y-139190790D02*
X121583333Y-139143171D01*
X121583333Y-139143171D02*
X121678571Y-139095552D01*
X121678571Y-139095552D02*
X121821428Y-139095552D01*
X121821428Y-139095552D02*
X121916666Y-139143171D01*
X121916666Y-139143171D02*
X121964285Y-139190790D01*
X121964285Y-139190790D02*
X122011904Y-139286028D01*
X122011904Y-139286028D02*
X122011904Y-139571742D01*
X122011904Y-139571742D02*
X121964285Y-139666980D01*
X121964285Y-139666980D02*
X121916666Y-139714600D01*
X121916666Y-139714600D02*
X121821428Y-139762219D01*
X121821428Y-139762219D02*
X121678571Y-139762219D01*
X122392857Y-139714600D02*
X122488095Y-139762219D01*
X122488095Y-139762219D02*
X122678571Y-139762219D01*
X122678571Y-139762219D02*
X122773809Y-139714600D01*
X122773809Y-139714600D02*
X122821428Y-139619361D01*
X122821428Y-139619361D02*
X122821428Y-139571742D01*
X122821428Y-139571742D02*
X122773809Y-139476504D01*
X122773809Y-139476504D02*
X122678571Y-139428885D01*
X122678571Y-139428885D02*
X122535714Y-139428885D01*
X122535714Y-139428885D02*
X122440476Y-139381266D01*
X122440476Y-139381266D02*
X122392857Y-139286028D01*
X122392857Y-139286028D02*
X122392857Y-139238409D01*
X122392857Y-139238409D02*
X122440476Y-139143171D01*
X122440476Y-139143171D02*
X122535714Y-139095552D01*
X122535714Y-139095552D02*
X122678571Y-139095552D01*
X122678571Y-139095552D02*
X122773809Y-139143171D01*
X123107143Y-139095552D02*
X123488095Y-139095552D01*
X123250000Y-138762219D02*
X123250000Y-139619361D01*
X123250000Y-139619361D02*
X123297619Y-139714600D01*
X123297619Y-139714600D02*
X123392857Y-139762219D01*
X123392857Y-139762219D02*
X123488095Y-139762219D01*
X124916667Y-139238409D02*
X124583334Y-139238409D01*
X124583334Y-139762219D02*
X124583334Y-138762219D01*
X124583334Y-138762219D02*
X125059524Y-138762219D01*
X125773810Y-139238409D02*
X125916667Y-139286028D01*
X125916667Y-139286028D02*
X125964286Y-139333647D01*
X125964286Y-139333647D02*
X126011905Y-139428885D01*
X126011905Y-139428885D02*
X126011905Y-139571742D01*
X126011905Y-139571742D02*
X125964286Y-139666980D01*
X125964286Y-139666980D02*
X125916667Y-139714600D01*
X125916667Y-139714600D02*
X125821429Y-139762219D01*
X125821429Y-139762219D02*
X125440477Y-139762219D01*
X125440477Y-139762219D02*
X125440477Y-138762219D01*
X125440477Y-138762219D02*
X125773810Y-138762219D01*
X125773810Y-138762219D02*
X125869048Y-138809838D01*
X125869048Y-138809838D02*
X125916667Y-138857457D01*
X125916667Y-138857457D02*
X125964286Y-138952695D01*
X125964286Y-138952695D02*
X125964286Y-139047933D01*
X125964286Y-139047933D02*
X125916667Y-139143171D01*
X125916667Y-139143171D02*
X125869048Y-139190790D01*
X125869048Y-139190790D02*
X125773810Y-139238409D01*
X125773810Y-139238409D02*
X125440477Y-139238409D01*
X134828095Y-58492219D02*
X135399523Y-58492219D01*
X135113809Y-59492219D02*
X135113809Y-58492219D01*
X135732857Y-59492219D02*
X135732857Y-58492219D01*
X135732857Y-58492219D02*
X136113809Y-58492219D01*
X136113809Y-58492219D02*
X136209047Y-58539838D01*
X136209047Y-58539838D02*
X136256666Y-58587457D01*
X136256666Y-58587457D02*
X136304285Y-58682695D01*
X136304285Y-58682695D02*
X136304285Y-58825552D01*
X136304285Y-58825552D02*
X136256666Y-58920790D01*
X136256666Y-58920790D02*
X136209047Y-58968409D01*
X136209047Y-58968409D02*
X136113809Y-59016028D01*
X136113809Y-59016028D02*
X135732857Y-59016028D01*
X137256666Y-59492219D02*
X136685238Y-59492219D01*
X136970952Y-59492219D02*
X136970952Y-58492219D01*
X136970952Y-58492219D02*
X136875714Y-58635076D01*
X136875714Y-58635076D02*
X136780476Y-58730314D01*
X136780476Y-58730314D02*
X136685238Y-58777933D01*
X168828095Y-89012219D02*
X169399523Y-89012219D01*
X169113809Y-90012219D02*
X169113809Y-89012219D01*
X169732857Y-90012219D02*
X169732857Y-89012219D01*
X169732857Y-89012219D02*
X170113809Y-89012219D01*
X170113809Y-89012219D02*
X170209047Y-89059838D01*
X170209047Y-89059838D02*
X170256666Y-89107457D01*
X170256666Y-89107457D02*
X170304285Y-89202695D01*
X170304285Y-89202695D02*
X170304285Y-89345552D01*
X170304285Y-89345552D02*
X170256666Y-89440790D01*
X170256666Y-89440790D02*
X170209047Y-89488409D01*
X170209047Y-89488409D02*
X170113809Y-89536028D01*
X170113809Y-89536028D02*
X169732857Y-89536028D01*
X171161428Y-89012219D02*
X170970952Y-89012219D01*
X170970952Y-89012219D02*
X170875714Y-89059838D01*
X170875714Y-89059838D02*
X170828095Y-89107457D01*
X170828095Y-89107457D02*
X170732857Y-89250314D01*
X170732857Y-89250314D02*
X170685238Y-89440790D01*
X170685238Y-89440790D02*
X170685238Y-89821742D01*
X170685238Y-89821742D02*
X170732857Y-89916980D01*
X170732857Y-89916980D02*
X170780476Y-89964600D01*
X170780476Y-89964600D02*
X170875714Y-90012219D01*
X170875714Y-90012219D02*
X171066190Y-90012219D01*
X171066190Y-90012219D02*
X171161428Y-89964600D01*
X171161428Y-89964600D02*
X171209047Y-89916980D01*
X171209047Y-89916980D02*
X171256666Y-89821742D01*
X171256666Y-89821742D02*
X171256666Y-89583647D01*
X171256666Y-89583647D02*
X171209047Y-89488409D01*
X171209047Y-89488409D02*
X171161428Y-89440790D01*
X171161428Y-89440790D02*
X171066190Y-89393171D01*
X171066190Y-89393171D02*
X170875714Y-89393171D01*
X170875714Y-89393171D02*
X170780476Y-89440790D01*
X170780476Y-89440790D02*
X170732857Y-89488409D01*
X170732857Y-89488409D02*
X170685238Y-89583647D01*
D12*
X160668095Y-76354819D02*
X160668095Y-75354819D01*
X160668095Y-75831009D02*
X161239523Y-75831009D01*
X161239523Y-76354819D02*
X161239523Y-75354819D01*
X161668095Y-75450057D02*
X161715714Y-75402438D01*
X161715714Y-75402438D02*
X161810952Y-75354819D01*
X161810952Y-75354819D02*
X162049047Y-75354819D01*
X162049047Y-75354819D02*
X162144285Y-75402438D01*
X162144285Y-75402438D02*
X162191904Y-75450057D01*
X162191904Y-75450057D02*
X162239523Y-75545295D01*
X162239523Y-75545295D02*
X162239523Y-75640533D01*
X162239523Y-75640533D02*
X162191904Y-75783390D01*
X162191904Y-75783390D02*
X161620476Y-76354819D01*
X161620476Y-76354819D02*
X162239523Y-76354819D01*
X116566666Y-63754819D02*
X116566666Y-64469104D01*
X116566666Y-64469104D02*
X116519047Y-64611961D01*
X116519047Y-64611961D02*
X116423809Y-64707200D01*
X116423809Y-64707200D02*
X116280952Y-64754819D01*
X116280952Y-64754819D02*
X116185714Y-64754819D01*
X116947619Y-63754819D02*
X117566666Y-63754819D01*
X117566666Y-63754819D02*
X117233333Y-64135771D01*
X117233333Y-64135771D02*
X117376190Y-64135771D01*
X117376190Y-64135771D02*
X117471428Y-64183390D01*
X117471428Y-64183390D02*
X117519047Y-64231009D01*
X117519047Y-64231009D02*
X117566666Y-64326247D01*
X117566666Y-64326247D02*
X117566666Y-64564342D01*
X117566666Y-64564342D02*
X117519047Y-64659580D01*
X117519047Y-64659580D02*
X117471428Y-64707200D01*
X117471428Y-64707200D02*
X117376190Y-64754819D01*
X117376190Y-64754819D02*
X117090476Y-64754819D01*
X117090476Y-64754819D02*
X116995238Y-64707200D01*
X116995238Y-64707200D02*
X116947619Y-64659580D01*
D11*
X95563095Y-91102219D02*
X96134523Y-91102219D01*
X95848809Y-92102219D02*
X95848809Y-91102219D01*
X96467857Y-92102219D02*
X96467857Y-91102219D01*
X96467857Y-91102219D02*
X96848809Y-91102219D01*
X96848809Y-91102219D02*
X96944047Y-91149838D01*
X96944047Y-91149838D02*
X96991666Y-91197457D01*
X96991666Y-91197457D02*
X97039285Y-91292695D01*
X97039285Y-91292695D02*
X97039285Y-91435552D01*
X97039285Y-91435552D02*
X96991666Y-91530790D01*
X96991666Y-91530790D02*
X96944047Y-91578409D01*
X96944047Y-91578409D02*
X96848809Y-91626028D01*
X96848809Y-91626028D02*
X96467857Y-91626028D01*
X97896428Y-91435552D02*
X97896428Y-92102219D01*
X97658333Y-91054600D02*
X97420238Y-91768885D01*
X97420238Y-91768885D02*
X98039285Y-91768885D01*
X95229762Y-97914600D02*
X95372619Y-97962219D01*
X95372619Y-97962219D02*
X95610714Y-97962219D01*
X95610714Y-97962219D02*
X95705952Y-97914600D01*
X95705952Y-97914600D02*
X95753571Y-97866980D01*
X95753571Y-97866980D02*
X95801190Y-97771742D01*
X95801190Y-97771742D02*
X95801190Y-97676504D01*
X95801190Y-97676504D02*
X95753571Y-97581266D01*
X95753571Y-97581266D02*
X95705952Y-97533647D01*
X95705952Y-97533647D02*
X95610714Y-97486028D01*
X95610714Y-97486028D02*
X95420238Y-97438409D01*
X95420238Y-97438409D02*
X95325000Y-97390790D01*
X95325000Y-97390790D02*
X95277381Y-97343171D01*
X95277381Y-97343171D02*
X95229762Y-97247933D01*
X95229762Y-97247933D02*
X95229762Y-97152695D01*
X95229762Y-97152695D02*
X95277381Y-97057457D01*
X95277381Y-97057457D02*
X95325000Y-97009838D01*
X95325000Y-97009838D02*
X95420238Y-96962219D01*
X95420238Y-96962219D02*
X95658333Y-96962219D01*
X95658333Y-96962219D02*
X95801190Y-97009838D01*
X96229762Y-97962219D02*
X96229762Y-97295552D01*
X96229762Y-96962219D02*
X96182143Y-97009838D01*
X96182143Y-97009838D02*
X96229762Y-97057457D01*
X96229762Y-97057457D02*
X96277381Y-97009838D01*
X96277381Y-97009838D02*
X96229762Y-96962219D01*
X96229762Y-96962219D02*
X96229762Y-97057457D01*
X96705952Y-97962219D02*
X96705952Y-96962219D01*
X96705952Y-96962219D02*
X97086904Y-96962219D01*
X97086904Y-96962219D02*
X97182142Y-97009838D01*
X97182142Y-97009838D02*
X97229761Y-97057457D01*
X97229761Y-97057457D02*
X97277380Y-97152695D01*
X97277380Y-97152695D02*
X97277380Y-97295552D01*
X97277380Y-97295552D02*
X97229761Y-97390790D01*
X97229761Y-97390790D02*
X97182142Y-97438409D01*
X97182142Y-97438409D02*
X97086904Y-97486028D01*
X97086904Y-97486028D02*
X96705952Y-97486028D01*
X97705952Y-97962219D02*
X97705952Y-96962219D01*
X97705952Y-96962219D02*
X98039285Y-97676504D01*
X98039285Y-97676504D02*
X98372618Y-96962219D01*
X98372618Y-96962219D02*
X98372618Y-97962219D01*
D13*
%TO.C,TP5*%
X98325000Y-104375000D02*
G75*
G02*
X95525000Y-104375000I-1400000J0D01*
G01*
X95525000Y-104375000D02*
G75*
G02*
X98325000Y-104375000I1400000J0D01*
G01*
%TO.C,TP2*%
X129600000Y-59620000D02*
G75*
G02*
X126800000Y-59620000I-1400000J0D01*
G01*
X126800000Y-59620000D02*
G75*
G02*
X129600000Y-59620000I1400000J0D01*
G01*
%TO.C,TP8*%
X138175000Y-135950000D02*
G75*
G02*
X135375000Y-135950000I-1400000J0D01*
G01*
X135375000Y-135950000D02*
G75*
G02*
X138175000Y-135950000I1400000J0D01*
G01*
D14*
%TO.C,J2*%
X151380000Y-58490000D02*
X151380000Y-63490000D01*
X151380000Y-58490000D02*
X157380000Y-58490000D01*
X151440000Y-60160000D02*
X151950000Y-60160000D01*
X151450000Y-61130000D02*
X151940000Y-61130000D01*
X153980000Y-63480000D02*
X153980000Y-63060000D01*
X154010000Y-58920000D02*
X154010000Y-58500000D01*
X154770000Y-58960000D02*
X154770000Y-58560000D01*
X154830000Y-63460000D02*
X154830000Y-63060000D01*
X156870000Y-60140000D02*
X157380000Y-60140000D01*
X156880000Y-61110000D02*
X157370000Y-61110000D01*
X157380000Y-58490000D02*
X157380000Y-63490000D01*
X157380000Y-63490000D02*
X151380000Y-63490000D01*
%TO.C,U4*%
X129275000Y-95550000D02*
X131195000Y-95550000D01*
X129275000Y-95570000D02*
X129275000Y-95550000D01*
X129275000Y-97420000D02*
X129275000Y-96830000D01*
X129275000Y-102550000D02*
X129275000Y-100670000D01*
X129345000Y-102550000D02*
X129275000Y-102550000D01*
X131195000Y-102550000D02*
X130605000Y-102550000D01*
X134455000Y-95550000D02*
X135045000Y-95550000D01*
X136305000Y-95550000D02*
X136325000Y-95550000D01*
X136325000Y-95550000D02*
X136325000Y-97420000D01*
X136325000Y-100680000D02*
X136325000Y-101270000D01*
X136325000Y-102530000D02*
X136325000Y-102550000D01*
X136325000Y-102550000D02*
X134455000Y-102550000D01*
X136325000Y-102550000D02*
X136325000Y-102530000D01*
D15*
X134925000Y-96400000D02*
G75*
G02*
X134525000Y-96400000I-200000J0D01*
G01*
X134525000Y-96400000D02*
G75*
G02*
X134925000Y-96400000I200000J0D01*
G01*
D13*
%TO.C,TP3*%
X171760000Y-83720000D02*
G75*
G02*
X168960000Y-83720000I-1400000J0D01*
G01*
X168960000Y-83720000D02*
G75*
G02*
X171760000Y-83720000I1400000J0D01*
G01*
%TO.C,TP7*%
X124649999Y-135875000D02*
G75*
G02*
X121850001Y-135875000I-1399999J0D01*
G01*
X121850001Y-135875000D02*
G75*
G02*
X124649999Y-135875000I1399999J0D01*
G01*
%TO.C,TP1*%
X137400000Y-63750000D02*
G75*
G02*
X134600000Y-63750000I-1400000J0D01*
G01*
X134600000Y-63750000D02*
G75*
G02*
X137400000Y-63750000I1400000J0D01*
G01*
%TO.C,TP6*%
X171490000Y-92060000D02*
G75*
G02*
X168690000Y-92060000I-1400000J0D01*
G01*
X168690000Y-92060000D02*
G75*
G02*
X171490000Y-92060000I1400000J0D01*
G01*
%TO.C,J3*%
X113545000Y-61000000D02*
X113545000Y-58100000D01*
X118350000Y-56195000D02*
X115450000Y-56195000D01*
X118350000Y-62905000D02*
X115450000Y-62905000D01*
X120255000Y-61000000D02*
X120255000Y-58100000D01*
%TO.C,TP4*%
X98225000Y-94150000D02*
G75*
G02*
X95425000Y-94150000I-1400000J0D01*
G01*
X95425000Y-94150000D02*
G75*
G02*
X98225000Y-94150000I1400000J0D01*
G01*
D16*
%TO.C,G\u002A\u002A\u002A*%
G36*
X104159112Y-140787514D02*
G01*
X104134062Y-140812564D01*
X104109013Y-140787514D01*
X104134062Y-140762465D01*
X104159112Y-140787514D01*
G37*
G36*
X106313352Y-141939782D02*
G01*
X106288303Y-141964832D01*
X106263254Y-141939782D01*
X106288303Y-141914733D01*
X106313352Y-141939782D01*
G37*
G36*
X107889211Y-139549500D02*
G01*
X107910407Y-139623033D01*
X107917967Y-139768841D01*
X107913235Y-139960131D01*
X107897558Y-140170107D01*
X107872280Y-140371974D01*
X107839712Y-140535270D01*
X107745490Y-140818957D01*
X107619734Y-141088390D01*
X107478867Y-141311694D01*
X107383906Y-141419916D01*
X107265226Y-141531410D01*
X107265226Y-141366247D01*
X107256449Y-141258991D01*
X107225246Y-141237400D01*
X107202603Y-141251532D01*
X107111541Y-141296993D01*
X106979207Y-141336355D01*
X106976768Y-141336880D01*
X106827808Y-141405680D01*
X106688411Y-141554493D01*
X106667880Y-141583515D01*
X106566870Y-141720647D01*
X106475029Y-141829544D01*
X106441150Y-141862517D01*
X106424320Y-141860836D01*
X106457798Y-141792000D01*
X106534336Y-141670870D01*
X106535484Y-141669163D01*
X106715508Y-141341830D01*
X106803322Y-141027767D01*
X106814059Y-140873900D01*
X106809553Y-140764119D01*
X106777473Y-140736673D01*
X106690783Y-140773700D01*
X106674836Y-140781933D01*
X106527773Y-140840869D01*
X106357349Y-140887344D01*
X106343154Y-140890125D01*
X106150975Y-140926178D01*
X106386420Y-140637115D01*
X106522331Y-140457679D01*
X106646820Y-140271983D01*
X106728085Y-140129420D01*
X106800952Y-139995907D01*
X106869533Y-139931419D01*
X106965580Y-139911487D01*
X107012191Y-139910509D01*
X107300185Y-139876549D01*
X107554025Y-139782846D01*
X107722442Y-139661674D01*
X107816520Y-139579893D01*
X107880181Y-139546892D01*
X107889211Y-139549500D01*
G37*
G36*
X103075459Y-136599316D02*
G01*
X103345017Y-136723303D01*
X103575758Y-136910542D01*
X103744994Y-137144333D01*
X103809172Y-137305660D01*
X103855524Y-137656693D01*
X103810140Y-138043218D01*
X103673615Y-138461815D01*
X103567938Y-138688802D01*
X103493542Y-138816761D01*
X103375643Y-138992338D01*
X103209359Y-139222224D01*
X102989811Y-139513108D01*
X102712117Y-139871679D01*
X102607650Y-140005029D01*
X102365525Y-140349501D01*
X102196128Y-140670571D01*
X102102767Y-140959481D01*
X102088747Y-141207476D01*
X102113038Y-141314878D01*
X102153128Y-141406874D01*
X102191564Y-141426775D01*
X102237030Y-141367476D01*
X102298210Y-141221868D01*
X102328905Y-141138205D01*
X102541096Y-140691266D01*
X102841298Y-140272572D01*
X103219127Y-139891445D01*
X103664198Y-139557205D01*
X104166129Y-139279174D01*
X104591765Y-139106866D01*
X104875499Y-139024215D01*
X105228151Y-138944430D01*
X105618479Y-138873215D01*
X106015243Y-138816276D01*
X106383866Y-138779559D01*
X106880218Y-138743634D01*
X106851148Y-139089243D01*
X106758822Y-139602771D01*
X106572484Y-140102882D01*
X106339892Y-140511972D01*
X106209268Y-140699432D01*
X106100760Y-140827339D01*
X105984749Y-140921945D01*
X105831613Y-141009503D01*
X105712169Y-141068337D01*
X105385341Y-141257310D01*
X105132625Y-141470756D01*
X105122478Y-141481650D01*
X105009118Y-141602168D01*
X104925158Y-141686256D01*
X104891028Y-141714339D01*
X104873184Y-141669435D01*
X104843799Y-141552186D01*
X104812053Y-141401862D01*
X104748058Y-141136128D01*
X104668877Y-140941845D01*
X104560134Y-140790269D01*
X104457659Y-140693284D01*
X104316733Y-140603572D01*
X104182125Y-140564771D01*
X104080818Y-140581370D01*
X104045360Y-140624694D01*
X104006075Y-140651457D01*
X103924602Y-140599469D01*
X103915938Y-140591880D01*
X103843689Y-140530566D01*
X103816309Y-140525796D01*
X103829739Y-140590590D01*
X103874891Y-140723527D01*
X103976900Y-140900242D01*
X104108243Y-141024119D01*
X104191732Y-141086048D01*
X104251500Y-141152783D01*
X104298461Y-141246943D01*
X104343528Y-141391145D01*
X104397615Y-141608008D01*
X104405041Y-141639191D01*
X104492246Y-141925395D01*
X104602252Y-142161733D01*
X104724891Y-142329023D01*
X104802819Y-142389658D01*
X104845547Y-142417212D01*
X104847707Y-142436475D01*
X104797611Y-142448685D01*
X104683568Y-142455077D01*
X104493889Y-142456886D01*
X104216883Y-142455348D01*
X104184161Y-142455060D01*
X103898935Y-142451361D01*
X103630327Y-142445824D01*
X103403305Y-142439107D01*
X103242838Y-142431866D01*
X103207238Y-142429348D01*
X102843378Y-142390765D01*
X102508236Y-142340091D01*
X102220332Y-142281042D01*
X101998184Y-142217336D01*
X101874018Y-142161761D01*
X101631776Y-141955588D01*
X101455776Y-141686498D01*
X101353276Y-141372572D01*
X101331539Y-141031891D01*
X101352259Y-140862343D01*
X101436553Y-140569026D01*
X101582991Y-140234671D01*
X101778360Y-139884281D01*
X102009449Y-139542856D01*
X102133079Y-139384753D01*
X102291377Y-139190660D01*
X102443270Y-139001404D01*
X102566012Y-138845450D01*
X102611885Y-138785478D01*
X102698328Y-138666040D01*
X102729221Y-138597463D01*
X102709717Y-138550891D01*
X102661095Y-138509936D01*
X102593590Y-138443067D01*
X102604920Y-138377965D01*
X102636306Y-138332682D01*
X102691607Y-138268325D01*
X102736173Y-138272150D01*
X102805183Y-138349169D01*
X102812080Y-138357731D01*
X102913640Y-138492983D01*
X103009782Y-138633274D01*
X103075525Y-138719556D01*
X103103194Y-138723182D01*
X103091923Y-138654527D01*
X103040844Y-138523968D01*
X103022262Y-138483939D01*
X102974116Y-138369636D01*
X102963412Y-138277368D01*
X102990176Y-138162486D01*
X103022510Y-138068925D01*
X103089457Y-137805854D01*
X103090462Y-137587584D01*
X103028889Y-137424812D01*
X102908103Y-137328230D01*
X102782354Y-137305660D01*
X102666294Y-137339897D01*
X102618730Y-137430932D01*
X102640948Y-137561251D01*
X102734233Y-137713338D01*
X102750973Y-137733028D01*
X102870053Y-137895732D01*
X102906409Y-138015324D01*
X102859994Y-138087170D01*
X102754778Y-138107238D01*
X102631909Y-138083735D01*
X102574073Y-138032090D01*
X102506654Y-137965438D01*
X102467683Y-137956942D01*
X102421072Y-137967724D01*
X102443934Y-138014726D01*
X102478981Y-138055121D01*
X102532044Y-138160896D01*
X102536981Y-138279485D01*
X102498771Y-138373955D01*
X102431425Y-138407830D01*
X102344098Y-138369771D01*
X102225889Y-138271896D01*
X102100127Y-138138654D01*
X101990138Y-137994493D01*
X101924134Y-137876144D01*
X101853134Y-137589688D01*
X101870707Y-137309538D01*
X101966370Y-137051687D01*
X102129642Y-136832131D01*
X102350041Y-136666861D01*
X102617085Y-136571873D01*
X102789771Y-136555281D01*
X103075459Y-136599316D01*
G37*
%TD*%
%LPC*%
D12*
X99351978Y-57095459D02*
G75*
G02*
X93967162Y-57095459I-2692408J0D01*
G01*
X93967162Y-57095459D02*
G75*
G02*
X99351978Y-57095459I2692408J0D01*
G01*
X95566967Y-57120757D02*
G75*
G02*
X90152173Y-57120757I-2707397J0D01*
G01*
X90152173Y-57120757D02*
G75*
G02*
X95566967Y-57120757I2707397J0D01*
G01*
X92859570Y-59817504D02*
X96659570Y-59824011D01*
X96709570Y-54417504D02*
X92909570Y-54424011D01*
D10*
X106620298Y-127830000D02*
G75*
G02*
X101259702Y-127830000I-2680298J0D01*
G01*
X101259702Y-127830000D02*
G75*
G02*
X106620298Y-127830000I2680298J0D01*
G01*
D12*
X169540000Y-59790000D02*
X173340000Y-59796507D01*
D17*
%TO.C,TP5*%
X96925000Y-104375000D03*
%TD*%
D18*
%TO.C,H1*%
X103910000Y-70360000D03*
%TD*%
D19*
%TO.C,*%
X173330000Y-142780000D03*
%TD*%
D18*
%TO.C,H4*%
X161450000Y-127840000D03*
%TD*%
D19*
%TO.C,*%
X93330000Y-142780000D03*
%TD*%
D17*
%TO.C,TP2*%
X128200000Y-59620000D03*
%TD*%
%TO.C,TP8*%
X136775000Y-135950000D03*
%TD*%
D20*
%TO.C,J2*%
X155380000Y-61990000D03*
D21*
X155380000Y-59990000D03*
X153380000Y-61990000D03*
X153380000Y-59990000D03*
%TD*%
D22*
%TO.C,U4*%
X135675000Y-96360000D03*
D23*
X130135000Y-96200000D03*
D22*
X129975000Y-101740000D03*
D23*
X135515000Y-101900000D03*
D24*
X132825000Y-99050000D03*
%TD*%
D17*
%TO.C,TP3*%
X170360000Y-83720000D03*
%TD*%
D18*
%TO.C,H3*%
X103930000Y-127830000D03*
%TD*%
D17*
%TO.C,TP7*%
X123250000Y-135875000D03*
%TD*%
%TO.C,TP1*%
X136000000Y-63750000D03*
%TD*%
%TO.C,TP6*%
X170090000Y-92060000D03*
%TD*%
D18*
%TO.C,H2*%
X161460000Y-70320000D03*
%TD*%
D25*
%TO.C,J3*%
X116900000Y-59550000D03*
D26*
X119440000Y-62090000D03*
X119440000Y-57010000D03*
X114360000Y-62090000D03*
X114360000Y-57010000D03*
%TD*%
D17*
%TO.C,TP4*%
X96825000Y-94150000D03*
%TD*%
D27*
%TO.C,J1*%
X172670000Y-111410000D03*
X172670000Y-103510000D03*
%TD*%
G36*
X169552944Y-54327557D02*
G01*
X173448200Y-54318889D01*
X173457690Y-54319226D01*
X174105054Y-54366673D01*
X174144306Y-54376028D01*
X174713296Y-54613108D01*
X174736282Y-54625632D01*
X175197961Y-54943464D01*
X175219746Y-54962491D01*
X175701264Y-55492162D01*
X175716521Y-55512842D01*
X175894669Y-55814467D01*
X175908290Y-55847483D01*
X176150142Y-56798283D01*
X176154022Y-56827840D01*
X176159531Y-57289477D01*
X176151698Y-57334738D01*
X175814372Y-58245638D01*
X175805613Y-58264394D01*
X175618372Y-58592067D01*
X175600181Y-58616485D01*
X175177068Y-59060417D01*
X175161460Y-59074286D01*
X174778417Y-59361568D01*
X174760299Y-59372892D01*
X174465840Y-59523849D01*
X174440824Y-59533471D01*
X173719796Y-59725746D01*
X173687330Y-59730000D01*
X169365207Y-59730000D01*
X169342667Y-59727968D01*
X168824322Y-59633723D01*
X168785646Y-59619885D01*
X168314118Y-59357784D01*
X168302098Y-59350184D01*
X167962346Y-59107504D01*
X167953739Y-59100774D01*
X167754960Y-58930954D01*
X167752786Y-58929054D01*
X167447545Y-58655941D01*
X167422163Y-58624555D01*
X167235768Y-58298364D01*
X167229534Y-58285901D01*
X167061001Y-57896538D01*
X167051607Y-57862115D01*
X167003823Y-57479843D01*
X166954104Y-57090044D01*
X168055637Y-57090044D01*
X168055637Y-57090052D01*
X168091220Y-57337544D01*
X168165458Y-57576299D01*
X168276492Y-57800335D01*
X168276496Y-57800342D01*
X168421518Y-58004001D01*
X168421527Y-58004012D01*
X168596909Y-58182205D01*
X168798259Y-58330460D01*
X168798262Y-58330462D01*
X169020496Y-58445037D01*
X169020500Y-58445039D01*
X169258046Y-58523062D01*
X169504941Y-58562573D01*
X169630042Y-58565023D01*
X173479959Y-58615022D01*
X173605705Y-58612687D01*
X173605708Y-58612686D01*
X173854091Y-58573351D01*
X174093269Y-58495643D01*
X174093271Y-58495642D01*
X174317348Y-58381474D01*
X174520809Y-58233655D01*
X174520810Y-58233654D01*
X174698628Y-58055840D01*
X174698633Y-58055834D01*
X174846456Y-57852378D01*
X174846456Y-57852377D01*
X174960624Y-57628314D01*
X174960627Y-57628306D01*
X175038341Y-57389135D01*
X175077684Y-57140738D01*
X175077684Y-56889261D01*
X175038341Y-56640864D01*
X174960627Y-56401693D01*
X174960624Y-56401685D01*
X174846456Y-56177622D01*
X174846456Y-56177621D01*
X174698633Y-55974165D01*
X174698628Y-55974159D01*
X174520810Y-55796345D01*
X174520809Y-55796344D01*
X174317348Y-55648525D01*
X174093271Y-55534357D01*
X174093269Y-55534356D01*
X173854091Y-55456648D01*
X173605704Y-55417313D01*
X173479967Y-55415022D01*
X169680729Y-55415814D01*
X169679126Y-55415804D01*
X169554917Y-55414249D01*
X169554901Y-55414250D01*
X169306887Y-55445906D01*
X169066975Y-55516353D01*
X168841212Y-55623821D01*
X168635267Y-55765607D01*
X168454309Y-55938154D01*
X168454302Y-55938161D01*
X168302889Y-56137118D01*
X168302884Y-56137126D01*
X168184799Y-56357525D01*
X168103023Y-56593800D01*
X168059603Y-56840049D01*
X168055637Y-57090044D01*
X166954104Y-57090044D01*
X166948381Y-57045175D01*
X166948196Y-57014808D01*
X167015627Y-56429677D01*
X167019647Y-56409487D01*
X167114659Y-56076945D01*
X167119876Y-56062214D01*
X167298729Y-55642013D01*
X167311311Y-55619289D01*
X167634066Y-55156438D01*
X167663516Y-55126457D01*
X168003847Y-54879996D01*
X168286253Y-54644658D01*
X168325467Y-54622467D01*
X169073428Y-54361916D01*
X169094163Y-54356617D01*
X169366195Y-54311278D01*
X169401084Y-54310364D01*
X169552944Y-54327557D01*
G37*
G36*
X103929770Y-67399455D02*
G01*
X104738356Y-67524593D01*
X104766176Y-67532299D01*
X105281379Y-67742196D01*
X105302926Y-67753557D01*
X105813024Y-68090415D01*
X105831055Y-68104909D01*
X106153604Y-68417971D01*
X106169848Y-68437325D01*
X106533533Y-68973282D01*
X106548076Y-69002264D01*
X106709938Y-69468807D01*
X106714380Y-69485133D01*
X106860104Y-70213751D01*
X106862495Y-70240135D01*
X106853001Y-70809761D01*
X106847837Y-70843163D01*
X106656529Y-71484045D01*
X106646282Y-71508479D01*
X106340087Y-72063456D01*
X106322325Y-72087991D01*
X105813082Y-72635668D01*
X105789961Y-72655126D01*
X105156796Y-73067642D01*
X105126704Y-73081910D01*
X104495992Y-73282591D01*
X104468837Y-73287988D01*
X103790235Y-73345335D01*
X103755475Y-73343367D01*
X103183172Y-73228907D01*
X103162770Y-73222970D01*
X102440986Y-72943880D01*
X102407513Y-72924463D01*
X101793043Y-72425206D01*
X101774408Y-72406430D01*
X101392548Y-71929105D01*
X101376267Y-71902460D01*
X101079039Y-71240888D01*
X101070035Y-71211620D01*
X100955186Y-70560808D01*
X100953477Y-70532626D01*
X100982004Y-70000111D01*
X100986233Y-69973979D01*
X101179257Y-69269443D01*
X101188739Y-69245186D01*
X101465691Y-68710381D01*
X101482822Y-68685362D01*
X101914924Y-68195648D01*
X101932032Y-68179610D01*
X102442082Y-67785042D01*
X102464871Y-67771057D01*
X103004664Y-67515366D01*
X103042537Y-67504366D01*
X103895595Y-67398932D01*
X103929770Y-67399455D01*
G37*
G36*
X161487053Y-67352639D02*
G01*
X162295639Y-67477777D01*
X162323459Y-67485483D01*
X162838662Y-67695380D01*
X162860209Y-67706741D01*
X163370307Y-68043599D01*
X163388338Y-68058093D01*
X163710887Y-68371155D01*
X163727131Y-68390509D01*
X164090816Y-68926466D01*
X164105359Y-68955448D01*
X164267221Y-69421991D01*
X164271663Y-69438317D01*
X164417387Y-70166935D01*
X164419778Y-70193319D01*
X164410284Y-70762945D01*
X164405120Y-70796347D01*
X164213812Y-71437229D01*
X164203565Y-71461663D01*
X163897370Y-72016640D01*
X163879608Y-72041175D01*
X163370365Y-72588852D01*
X163347244Y-72608310D01*
X162714079Y-73020826D01*
X162683987Y-73035094D01*
X162053275Y-73235775D01*
X162026120Y-73241172D01*
X161347518Y-73298519D01*
X161312758Y-73296551D01*
X160740455Y-73182091D01*
X160720053Y-73176154D01*
X159998269Y-72897064D01*
X159964796Y-72877647D01*
X159350326Y-72378390D01*
X159331691Y-72359614D01*
X158949831Y-71882289D01*
X158933550Y-71855644D01*
X158636322Y-71194072D01*
X158627318Y-71164804D01*
X158512469Y-70513992D01*
X158510760Y-70485810D01*
X158539287Y-69953295D01*
X158543516Y-69927163D01*
X158736540Y-69222627D01*
X158746022Y-69198370D01*
X159022974Y-68663565D01*
X159040105Y-68638546D01*
X159472207Y-68148832D01*
X159489315Y-68132794D01*
X159999365Y-67738226D01*
X160022154Y-67724241D01*
X160561947Y-67468550D01*
X160599820Y-67457550D01*
X161452878Y-67352116D01*
X161487053Y-67352639D01*
G37*
G36*
X161445312Y-124871174D02*
G01*
X162253898Y-124996312D01*
X162281718Y-125004018D01*
X162796921Y-125213915D01*
X162818468Y-125225276D01*
X163328566Y-125562134D01*
X163346597Y-125576628D01*
X163669146Y-125889690D01*
X163685390Y-125909044D01*
X164049075Y-126445001D01*
X164063618Y-126473983D01*
X164225480Y-126940526D01*
X164229922Y-126956852D01*
X164375646Y-127685470D01*
X164378037Y-127711854D01*
X164368543Y-128281480D01*
X164363379Y-128314882D01*
X164172071Y-128955764D01*
X164161824Y-128980198D01*
X163855629Y-129535175D01*
X163837867Y-129559710D01*
X163328624Y-130107387D01*
X163305503Y-130126845D01*
X162672338Y-130539361D01*
X162642246Y-130553629D01*
X162011534Y-130754310D01*
X161984379Y-130759707D01*
X161305777Y-130817054D01*
X161271017Y-130815086D01*
X160698714Y-130700626D01*
X160678312Y-130694689D01*
X159956528Y-130415599D01*
X159923055Y-130396182D01*
X159308585Y-129896925D01*
X159289950Y-129878149D01*
X158908090Y-129400824D01*
X158891809Y-129374179D01*
X158594581Y-128712607D01*
X158585577Y-128683339D01*
X158470728Y-128032527D01*
X158469019Y-128004345D01*
X158497546Y-127471830D01*
X158501775Y-127445698D01*
X158694799Y-126741162D01*
X158704281Y-126716905D01*
X158981233Y-126182100D01*
X158998364Y-126157081D01*
X159430466Y-125667367D01*
X159447574Y-125651329D01*
X159957624Y-125256761D01*
X159980413Y-125242776D01*
X160520206Y-124987085D01*
X160558079Y-124976085D01*
X161411137Y-124870651D01*
X161445312Y-124871174D01*
G37*
G36*
X92758671Y-54418314D02*
G01*
X96653927Y-54409646D01*
X96663417Y-54409983D01*
X97310781Y-54457430D01*
X97350033Y-54466785D01*
X97919023Y-54703865D01*
X97942009Y-54716389D01*
X98403688Y-55034221D01*
X98425473Y-55053248D01*
X98906991Y-55582919D01*
X98922248Y-55603599D01*
X99100396Y-55905224D01*
X99114017Y-55938240D01*
X99355869Y-56889040D01*
X99359749Y-56918597D01*
X99365258Y-57380234D01*
X99357425Y-57425495D01*
X99020099Y-58336395D01*
X99011340Y-58355151D01*
X98824099Y-58682824D01*
X98805908Y-58707242D01*
X98382795Y-59151174D01*
X98367187Y-59165043D01*
X97984144Y-59452325D01*
X97966026Y-59463649D01*
X97671567Y-59614606D01*
X97646551Y-59624228D01*
X96925523Y-59816503D01*
X96893057Y-59820757D01*
X92570934Y-59820757D01*
X92548394Y-59818725D01*
X92030049Y-59724480D01*
X91991373Y-59710642D01*
X91519845Y-59448541D01*
X91507825Y-59440941D01*
X91168073Y-59198261D01*
X91159466Y-59191531D01*
X90960687Y-59021711D01*
X90958513Y-59019811D01*
X90653272Y-58746698D01*
X90627890Y-58715312D01*
X90441495Y-58389121D01*
X90435261Y-58376658D01*
X90266728Y-57987295D01*
X90257334Y-57952872D01*
X90209550Y-57570600D01*
X90154108Y-57135932D01*
X90153923Y-57105565D01*
X90161243Y-57042049D01*
X91832990Y-57042049D01*
X91848748Y-57291212D01*
X91903527Y-57534780D01*
X91903529Y-57534785D01*
X91995962Y-57766693D01*
X91995963Y-57766695D01*
X92123747Y-57981162D01*
X92123757Y-57981176D01*
X92283699Y-58172847D01*
X92283704Y-58172853D01*
X92471826Y-58336964D01*
X92471835Y-58336970D01*
X92683441Y-58469425D01*
X92683448Y-58469428D01*
X92913282Y-58566931D01*
X92913285Y-58566932D01*
X93155583Y-58627038D01*
X93155602Y-58627041D01*
X93279765Y-58640013D01*
X96029979Y-58665022D01*
X96155705Y-58662687D01*
X96155708Y-58662686D01*
X96404091Y-58623351D01*
X96643269Y-58545643D01*
X96643271Y-58545642D01*
X96867348Y-58431474D01*
X97070809Y-58283655D01*
X97070810Y-58283654D01*
X97248628Y-58105840D01*
X97248633Y-58105834D01*
X97396456Y-57902378D01*
X97396456Y-57902377D01*
X97510624Y-57678314D01*
X97510627Y-57678306D01*
X97588341Y-57439135D01*
X97627684Y-57190738D01*
X97627684Y-56939261D01*
X97588341Y-56690864D01*
X97510627Y-56451693D01*
X97510624Y-56451685D01*
X97396456Y-56227622D01*
X97396456Y-56227621D01*
X97248633Y-56024165D01*
X97248628Y-56024159D01*
X97070810Y-55846345D01*
X97070809Y-55846344D01*
X96867348Y-55698525D01*
X96643271Y-55584357D01*
X96643269Y-55584356D01*
X96404091Y-55506648D01*
X96155704Y-55467313D01*
X96029955Y-55465021D01*
X93329746Y-55490806D01*
X93329723Y-55490806D01*
X93205211Y-55499828D01*
X92961128Y-55552216D01*
X92961114Y-55552220D01*
X92728311Y-55642378D01*
X92728307Y-55642380D01*
X92512597Y-55768057D01*
X92512596Y-55768058D01*
X92319353Y-55926125D01*
X92153401Y-56112638D01*
X92153398Y-56112641D01*
X92018873Y-56322947D01*
X91919128Y-56551806D01*
X91919123Y-56551820D01*
X91856646Y-56793518D01*
X91832990Y-57042049D01*
X90161243Y-57042049D01*
X90221354Y-56520434D01*
X90225374Y-56500244D01*
X90320386Y-56167702D01*
X90325603Y-56152971D01*
X90504456Y-55732770D01*
X90517038Y-55710046D01*
X90839793Y-55247195D01*
X90869243Y-55217214D01*
X91209574Y-54970753D01*
X91491980Y-54735415D01*
X91531194Y-54713224D01*
X92279155Y-54452673D01*
X92299890Y-54447374D01*
X92571922Y-54402035D01*
X92606811Y-54401121D01*
X92758671Y-54418314D01*
G37*
G36*
X103947053Y-124852639D02*
G01*
X104755639Y-124977777D01*
X104783459Y-124985483D01*
X105298662Y-125195380D01*
X105320209Y-125206741D01*
X105830307Y-125543599D01*
X105848338Y-125558093D01*
X106170887Y-125871155D01*
X106187131Y-125890509D01*
X106550816Y-126426466D01*
X106565359Y-126455448D01*
X106727221Y-126921991D01*
X106731663Y-126938317D01*
X106877387Y-127666935D01*
X106879778Y-127693319D01*
X106870284Y-128262945D01*
X106865120Y-128296347D01*
X106673812Y-128937229D01*
X106663565Y-128961663D01*
X106357370Y-129516640D01*
X106339608Y-129541175D01*
X105830365Y-130088852D01*
X105807244Y-130108310D01*
X105174079Y-130520826D01*
X105143987Y-130535094D01*
X104513275Y-130735775D01*
X104486120Y-130741172D01*
X103807518Y-130798519D01*
X103772758Y-130796551D01*
X103200455Y-130682091D01*
X103180053Y-130676154D01*
X102458269Y-130397064D01*
X102424796Y-130377647D01*
X101810326Y-129878390D01*
X101791691Y-129859614D01*
X101409831Y-129382289D01*
X101393550Y-129355644D01*
X101096322Y-128694072D01*
X101087318Y-128664804D01*
X100972469Y-128013992D01*
X100970760Y-127985810D01*
X100999287Y-127453295D01*
X101003516Y-127427163D01*
X101196540Y-126722627D01*
X101206022Y-126698370D01*
X101482974Y-126163565D01*
X101500105Y-126138546D01*
X101932207Y-125648832D01*
X101949315Y-125632794D01*
X102459365Y-125238226D01*
X102482154Y-125224241D01*
X103021947Y-124968550D01*
X103059820Y-124957550D01*
X103912878Y-124852116D01*
X103947053Y-124852639D01*
G37*
%LPD*%
M02*
