M48
; DRILL file {KiCad 9.0.0} date 2025-06-08T14:19:54-0700
; FORMAT={-:-/ absolute / inch / decimal}
; #@! TF.CreationDate,2025-06-08T14:19:54-07:00
; #@! TF.GenerationSoftware,Kicad,Pcbnew,9.0.0
; #@! TF.FileFunction,Plated,1,4,PTH
FMAT,2
INCH
; #@! TA.AperFunction,Plated,PTH,ViaDrill
T1C0.0118
; #@! TA.AperFunction,Plated,PTH,ComponentDrill
T2C0.0256
; #@! TA.AperFunction,Plated,PTH,ComponentDrill
T3C0.0354
; #@! TA.AperFunction,Plated,PTH,ComponentDrill
T4C0.0394
; #@! TA.AperFunction,Plated,PTH,ComponentDrill
T5C0.0591
; #@! TA.AperFunction,Plated,PTH,ComponentDrill
T6C0.0669
; #@! TA.AperFunction,Plated,PTH,ComponentDrill
T7C0.1260
%
G90
G05
T1
X5.1167Y-4.0695
X5.3418Y-3.7302
T3
X6.6913Y-5.0165
X6.6913Y-5.0953
X6.7701Y-5.0165
X6.7701Y-5.0953
T4
X3.812Y-3.7067
X3.8159Y-4.1093
X4.8524Y-5.3494
X5.0472Y-2.3472
X5.3543Y-2.5098
X5.3848Y-5.3524
X6.6965Y-3.6244
X6.7071Y-3.2961
T5
X4.6024Y-2.3445
T6
X4.5024Y-2.2445
X4.5024Y-2.4445
X4.7024Y-2.2445
X4.7024Y-2.4445
T7
X3.6744Y-5.6213
X6.824Y-5.6213
T2
G00X6.8128Y-4.0752
M15
G01X6.7833Y-4.0752
M16
G05
G00X6.8128Y-4.3862
M15
G01X6.7833Y-4.3862
M16
G05
M30
