%TF.GenerationSoftware,KiCad,Pcbnew,9.0.0*%
%TF.CreationDate,2025-06-08T14:19:54-07:00*%
%TF.ProjectId,PROVES_Cosmic_Watch,50524f56-4553-45f4-936f-736d69635f57,rev?*%
%TF.SameCoordinates,Original*%
%TF.FileFunction,Legend,Bot*%
%TF.FilePolarity,Positive*%
%FSLAX46Y46*%
G04 Gerber Fmt 4.6, Leading zero omitted, Abs format (unit mm)*
G04 Created by KiCad (PCBNEW 9.0.0) date 2025-06-08 14:19:54*
%MOMM*%
%LPD*%
G01*
G04 APERTURE LIST*
G04 Aperture macros list*
%AMRoundRect*
0 Rectangle with rounded corners*
0 $1 Rounding radius*
0 $2 $3 $4 $5 $6 $7 $8 $9 X,Y pos of 4 corners*
0 Add a 4 corners polygon primitive as box body*
4,1,4,$2,$3,$4,$5,$6,$7,$8,$9,$2,$3,0*
0 Add four circle primitives for the rounded corners*
1,1,$1+$1,$2,$3*
1,1,$1+$1,$4,$5*
1,1,$1+$1,$6,$7*
1,1,$1+$1,$8,$9*
0 Add four rect primitives between the rounded corners*
20,1,$1+$1,$2,$3,$4,$5,0*
20,1,$1+$1,$4,$5,$6,$7,0*
20,1,$1+$1,$6,$7,$8,$9,0*
20,1,$1+$1,$8,$9,$2,$3,0*%
%AMRotRect*
0 Rectangle, with rotation*
0 The origin of the aperture is its center*
0 $1 length*
0 $2 width*
0 $3 Rotation angle, in degrees counterclockwise*
0 Add horizontal line*
21,1,$1,$2,0,0,$3*%
G04 Aperture macros list end*
%ADD10C,0.150000*%
%ADD11C,0.125000*%
%ADD12C,0.250000*%
%ADD13C,0.120000*%
%ADD14C,0.152400*%
%ADD15R,1.380000X0.450000*%
%ADD16O,1.800000X1.400000*%
%ADD17R,1.900000X1.380000*%
%ADD18R,2.100000X1.480000*%
%ADD19C,2.000000*%
%ADD20C,2.700000*%
%ADD21C,5.000000*%
%ADD22RoundRect,0.250000X-0.159099X0.512652X-0.512652X0.159099X0.159099X-0.512652X0.512652X-0.159099X0*%
%ADD23RotRect,1.358900X0.431800X135.000000*%
%ADD24RotRect,0.950000X1.150000X135.000000*%
%ADD25RoundRect,0.250000X0.159099X-0.512652X0.512652X-0.159099X-0.159099X0.512652X-0.512652X0.159099X0*%
%ADD26RoundRect,0.250000X0.132583X-0.503814X0.503814X-0.132583X-0.132583X0.503814X-0.503814X0.132583X0*%
%ADD27RoundRect,0.250000X0.503814X0.132583X0.132583X0.503814X-0.503814X-0.132583X-0.132583X-0.503814X0*%
%ADD28RotRect,0.800000X0.860000X135.000000*%
%ADD29RoundRect,0.250000X-0.503814X-0.132583X-0.132583X-0.503814X0.503814X0.132583X0.132583X0.503814X0*%
%ADD30RotRect,1.470000X2.220000X315.000000*%
%ADD31R,1.520000X1.520000*%
%ADD32C,1.520000*%
%ADD33RoundRect,0.250000X0.512652X0.159099X0.159099X0.512652X-0.512652X-0.159099X-0.159099X-0.512652X0*%
%ADD34RoundRect,0.250000X-0.132583X0.503814X-0.503814X0.132583X0.132583X-0.503814X0.503814X-0.132583X0*%
%ADD35RotRect,0.950000X1.150000X315.000000*%
%ADD36RotRect,1.130000X1.380000X135.000000*%
%ADD37RotRect,0.876300X0.508000X135.000000*%
%ADD38C,2.050000*%
%ADD39C,2.250000*%
G04 APERTURE END LIST*
D10*
X170758333Y-114724819D02*
X170758333Y-115439104D01*
X170758333Y-115439104D02*
X170805952Y-115581961D01*
X170805952Y-115581961D02*
X170901190Y-115677200D01*
X170901190Y-115677200D02*
X171044047Y-115724819D01*
X171044047Y-115724819D02*
X171139285Y-115724819D01*
X169758333Y-115724819D02*
X170329761Y-115724819D01*
X170044047Y-115724819D02*
X170044047Y-114724819D01*
X170044047Y-114724819D02*
X170139285Y-114867676D01*
X170139285Y-114867676D02*
X170234523Y-114962914D01*
X170234523Y-114962914D02*
X170329761Y-115010533D01*
X151913588Y-123142112D02*
X151913588Y-123209456D01*
X151913588Y-123209456D02*
X151980932Y-123344143D01*
X151980932Y-123344143D02*
X152048275Y-123411486D01*
X152048275Y-123411486D02*
X152182962Y-123478830D01*
X152182962Y-123478830D02*
X152317649Y-123478830D01*
X152317649Y-123478830D02*
X152418664Y-123445158D01*
X152418664Y-123445158D02*
X152587023Y-123344143D01*
X152587023Y-123344143D02*
X152688038Y-123243128D01*
X152688038Y-123243128D02*
X152789054Y-123074769D01*
X152789054Y-123074769D02*
X152822725Y-122973754D01*
X152822725Y-122973754D02*
X152822725Y-122839067D01*
X152822725Y-122839067D02*
X152755382Y-122704380D01*
X152755382Y-122704380D02*
X152688038Y-122637036D01*
X152688038Y-122637036D02*
X152553351Y-122569693D01*
X152553351Y-122569693D02*
X152486008Y-122569693D01*
X151947260Y-121896258D02*
X152081947Y-122030945D01*
X152081947Y-122030945D02*
X152115619Y-122131960D01*
X152115619Y-122131960D02*
X152115619Y-122199303D01*
X152115619Y-122199303D02*
X152081947Y-122367662D01*
X152081947Y-122367662D02*
X151980932Y-122536021D01*
X151980932Y-122536021D02*
X151711558Y-122805395D01*
X151711558Y-122805395D02*
X151610542Y-122839067D01*
X151610542Y-122839067D02*
X151543199Y-122839067D01*
X151543199Y-122839067D02*
X151442184Y-122805395D01*
X151442184Y-122805395D02*
X151307497Y-122670708D01*
X151307497Y-122670708D02*
X151273825Y-122569693D01*
X151273825Y-122569693D02*
X151273825Y-122502349D01*
X151273825Y-122502349D02*
X151307497Y-122401334D01*
X151307497Y-122401334D02*
X151475855Y-122232975D01*
X151475855Y-122232975D02*
X151576871Y-122199303D01*
X151576871Y-122199303D02*
X151644214Y-122199303D01*
X151644214Y-122199303D02*
X151745229Y-122232975D01*
X151745229Y-122232975D02*
X151879916Y-122367662D01*
X151879916Y-122367662D02*
X151913588Y-122468677D01*
X151913588Y-122468677D02*
X151913588Y-122536021D01*
X151913588Y-122536021D02*
X151879916Y-122637036D01*
X134698024Y-87602021D02*
X134125604Y-88174441D01*
X134125604Y-88174441D02*
X134024589Y-88208113D01*
X134024589Y-88208113D02*
X133957245Y-88208113D01*
X133957245Y-88208113D02*
X133856230Y-88174441D01*
X133856230Y-88174441D02*
X133721543Y-88039754D01*
X133721543Y-88039754D02*
X133687871Y-87938739D01*
X133687871Y-87938739D02*
X133687871Y-87871395D01*
X133687871Y-87871395D02*
X133721543Y-87770380D01*
X133721543Y-87770380D02*
X134293963Y-87197960D01*
X134024589Y-86928586D02*
X133586856Y-86490854D01*
X133586856Y-86490854D02*
X133553184Y-86995930D01*
X133553184Y-86995930D02*
X133452169Y-86894915D01*
X133452169Y-86894915D02*
X133351154Y-86861243D01*
X133351154Y-86861243D02*
X133283810Y-86861243D01*
X133283810Y-86861243D02*
X133182795Y-86894915D01*
X133182795Y-86894915D02*
X133014436Y-87063273D01*
X133014436Y-87063273D02*
X132980764Y-87164289D01*
X132980764Y-87164289D02*
X132980764Y-87231632D01*
X132980764Y-87231632D02*
X133014436Y-87332647D01*
X133014436Y-87332647D02*
X133216467Y-87534678D01*
X133216467Y-87534678D02*
X133317482Y-87568350D01*
X133317482Y-87568350D02*
X133384825Y-87568350D01*
X136340306Y-107358830D02*
X136340306Y-107426174D01*
X136340306Y-107426174D02*
X136407650Y-107560861D01*
X136407650Y-107560861D02*
X136474993Y-107628204D01*
X136474993Y-107628204D02*
X136609680Y-107695548D01*
X136609680Y-107695548D02*
X136744367Y-107695548D01*
X136744367Y-107695548D02*
X136845382Y-107661876D01*
X136845382Y-107661876D02*
X137013741Y-107560861D01*
X137013741Y-107560861D02*
X137114756Y-107459846D01*
X137114756Y-107459846D02*
X137215772Y-107291487D01*
X137215772Y-107291487D02*
X137249443Y-107190472D01*
X137249443Y-107190472D02*
X137249443Y-107055785D01*
X137249443Y-107055785D02*
X137182100Y-106921098D01*
X137182100Y-106921098D02*
X137114756Y-106853754D01*
X137114756Y-106853754D02*
X136980069Y-106786411D01*
X136980069Y-106786411D02*
X136912726Y-106786411D01*
X135599528Y-106752739D02*
X136003589Y-107156800D01*
X135801558Y-106954769D02*
X136508665Y-106247663D01*
X136508665Y-106247663D02*
X136474993Y-106416021D01*
X136474993Y-106416021D02*
X136474993Y-106550708D01*
X136474993Y-106550708D02*
X136508665Y-106651724D01*
X134926092Y-106079304D02*
X135330153Y-106483365D01*
X135128123Y-106281334D02*
X135835230Y-105574227D01*
X135835230Y-105574227D02*
X135801558Y-105742586D01*
X135801558Y-105742586D02*
X135801558Y-105877273D01*
X135801558Y-105877273D02*
X135835230Y-105978288D01*
X126525306Y-86193517D02*
X127232412Y-85486410D01*
X127232412Y-85486410D02*
X127064054Y-85318051D01*
X127064054Y-85318051D02*
X126929367Y-85250708D01*
X126929367Y-85250708D02*
X126794680Y-85250708D01*
X126794680Y-85250708D02*
X126693664Y-85284380D01*
X126693664Y-85284380D02*
X126525306Y-85385395D01*
X126525306Y-85385395D02*
X126424290Y-85486410D01*
X126424290Y-85486410D02*
X126323275Y-85654769D01*
X126323275Y-85654769D02*
X126289603Y-85755784D01*
X126289603Y-85755784D02*
X126289603Y-85890471D01*
X126289603Y-85890471D02*
X126356947Y-86025158D01*
X126356947Y-86025158D02*
X126525306Y-86193517D01*
X125447810Y-85116021D02*
X125851871Y-85520082D01*
X125649840Y-85318051D02*
X126356947Y-84610945D01*
X126356947Y-84610945D02*
X126323275Y-84779303D01*
X126323275Y-84779303D02*
X126323275Y-84913990D01*
X126323275Y-84913990D02*
X126356947Y-85015006D01*
X125213588Y-76947113D02*
X125213588Y-77014457D01*
X125213588Y-77014457D02*
X125280932Y-77149144D01*
X125280932Y-77149144D02*
X125348275Y-77216487D01*
X125348275Y-77216487D02*
X125482962Y-77283831D01*
X125482962Y-77283831D02*
X125617649Y-77283831D01*
X125617649Y-77283831D02*
X125718664Y-77250159D01*
X125718664Y-77250159D02*
X125887023Y-77149144D01*
X125887023Y-77149144D02*
X125988038Y-77048129D01*
X125988038Y-77048129D02*
X126089054Y-76879770D01*
X126089054Y-76879770D02*
X126122725Y-76778755D01*
X126122725Y-76778755D02*
X126122725Y-76644068D01*
X126122725Y-76644068D02*
X126055382Y-76509381D01*
X126055382Y-76509381D02*
X125988038Y-76442037D01*
X125988038Y-76442037D02*
X125853351Y-76374694D01*
X125853351Y-76374694D02*
X125786008Y-76374694D01*
X125516634Y-76105320D02*
X125516634Y-76037976D01*
X125516634Y-76037976D02*
X125482962Y-75936961D01*
X125482962Y-75936961D02*
X125314603Y-75768602D01*
X125314603Y-75768602D02*
X125213588Y-75734930D01*
X125213588Y-75734930D02*
X125146245Y-75734930D01*
X125146245Y-75734930D02*
X125045229Y-75768602D01*
X125045229Y-75768602D02*
X124977886Y-75835946D01*
X124977886Y-75835946D02*
X124910542Y-75970633D01*
X124910542Y-75970633D02*
X124910542Y-76778755D01*
X124910542Y-76778755D02*
X124472810Y-76341022D01*
X115241010Y-79384691D02*
X115813429Y-79283676D01*
X115645071Y-79788752D02*
X116352177Y-79081645D01*
X116352177Y-79081645D02*
X116082803Y-78812271D01*
X116082803Y-78812271D02*
X115981788Y-78778599D01*
X115981788Y-78778599D02*
X115914445Y-78778599D01*
X115914445Y-78778599D02*
X115813429Y-78812271D01*
X115813429Y-78812271D02*
X115712414Y-78913286D01*
X115712414Y-78913286D02*
X115678742Y-79014302D01*
X115678742Y-79014302D02*
X115678742Y-79081645D01*
X115678742Y-79081645D02*
X115712414Y-79182660D01*
X115712414Y-79182660D02*
X115981788Y-79452034D01*
X115712414Y-78441882D02*
X115241010Y-77970477D01*
X115241010Y-77970477D02*
X114836949Y-78980630D01*
X131407963Y-93451174D02*
X131980382Y-93350159D01*
X131812024Y-93855235D02*
X132519130Y-93148128D01*
X132519130Y-93148128D02*
X132249756Y-92878754D01*
X132249756Y-92878754D02*
X132148741Y-92845082D01*
X132148741Y-92845082D02*
X132081398Y-92845082D01*
X132081398Y-92845082D02*
X131980382Y-92878754D01*
X131980382Y-92878754D02*
X131879367Y-92979769D01*
X131879367Y-92979769D02*
X131845695Y-93080785D01*
X131845695Y-93080785D02*
X131845695Y-93148128D01*
X131845695Y-93148128D02*
X131879367Y-93249143D01*
X131879367Y-93249143D02*
X132148741Y-93518517D01*
X130734528Y-92777739D02*
X131138589Y-93181800D01*
X130936558Y-92979769D02*
X131643665Y-92272663D01*
X131643665Y-92272663D02*
X131609993Y-92441021D01*
X131609993Y-92441021D02*
X131609993Y-92575708D01*
X131609993Y-92575708D02*
X131643665Y-92676724D01*
X130599840Y-91700243D02*
X130128436Y-92171647D01*
X131037573Y-91599227D02*
X130700856Y-92272662D01*
X130700856Y-92272662D02*
X130263123Y-91834930D01*
X144095346Y-122277059D02*
X144432063Y-122613777D01*
X144432063Y-122613777D02*
X145139170Y-121906670D01*
X144533078Y-121435265D02*
X144533078Y-121367922D01*
X144533078Y-121367922D02*
X144499407Y-121266906D01*
X144499407Y-121266906D02*
X144331048Y-121098548D01*
X144331048Y-121098548D02*
X144230033Y-121064876D01*
X144230033Y-121064876D02*
X144162689Y-121064876D01*
X144162689Y-121064876D02*
X144061674Y-121098548D01*
X144061674Y-121098548D02*
X143994330Y-121165891D01*
X143994330Y-121165891D02*
X143926987Y-121300578D01*
X143926987Y-121300578D02*
X143926987Y-122108700D01*
X143926987Y-122108700D02*
X143489254Y-121670967D01*
X129510306Y-110588830D02*
X129510306Y-110656174D01*
X129510306Y-110656174D02*
X129577650Y-110790861D01*
X129577650Y-110790861D02*
X129644993Y-110858204D01*
X129644993Y-110858204D02*
X129779680Y-110925548D01*
X129779680Y-110925548D02*
X129914367Y-110925548D01*
X129914367Y-110925548D02*
X130015382Y-110891876D01*
X130015382Y-110891876D02*
X130183741Y-110790861D01*
X130183741Y-110790861D02*
X130284756Y-110689846D01*
X130284756Y-110689846D02*
X130385772Y-110521487D01*
X130385772Y-110521487D02*
X130419443Y-110420472D01*
X130419443Y-110420472D02*
X130419443Y-110285785D01*
X130419443Y-110285785D02*
X130352100Y-110151098D01*
X130352100Y-110151098D02*
X130284756Y-110083754D01*
X130284756Y-110083754D02*
X130150069Y-110016411D01*
X130150069Y-110016411D02*
X130082726Y-110016411D01*
X128769528Y-109982739D02*
X129173589Y-110386800D01*
X128971558Y-110184769D02*
X129678665Y-109477663D01*
X129678665Y-109477663D02*
X129644993Y-109646021D01*
X129644993Y-109646021D02*
X129644993Y-109780708D01*
X129644993Y-109780708D02*
X129678665Y-109881724D01*
X129139917Y-109073601D02*
X129139917Y-109006258D01*
X129139917Y-109006258D02*
X129106245Y-108905243D01*
X129106245Y-108905243D02*
X128937886Y-108736884D01*
X128937886Y-108736884D02*
X128836871Y-108703212D01*
X128836871Y-108703212D02*
X128769527Y-108703212D01*
X128769527Y-108703212D02*
X128668512Y-108736884D01*
X128668512Y-108736884D02*
X128601169Y-108804227D01*
X128601169Y-108804227D02*
X128533825Y-108938914D01*
X128533825Y-108938914D02*
X128533825Y-109747036D01*
X128533825Y-109747036D02*
X128096092Y-109309304D01*
X120785020Y-83038231D02*
X121357439Y-82937216D01*
X121189081Y-83442292D02*
X121896187Y-82735185D01*
X121896187Y-82735185D02*
X121626813Y-82465811D01*
X121626813Y-82465811D02*
X121525798Y-82432139D01*
X121525798Y-82432139D02*
X121458455Y-82432139D01*
X121458455Y-82432139D02*
X121357439Y-82465811D01*
X121357439Y-82465811D02*
X121256424Y-82566826D01*
X121256424Y-82566826D02*
X121222752Y-82667842D01*
X121222752Y-82667842D02*
X121222752Y-82735185D01*
X121222752Y-82735185D02*
X121256424Y-82836200D01*
X121256424Y-82836200D02*
X121525798Y-83105574D01*
X120650333Y-81960735D02*
X120178928Y-82432139D01*
X121088065Y-81859720D02*
X120751348Y-82533155D01*
X120751348Y-82533155D02*
X120313615Y-82095422D01*
X135602963Y-112916174D02*
X136175382Y-112815159D01*
X136007024Y-113320235D02*
X136714130Y-112613128D01*
X136714130Y-112613128D02*
X136444756Y-112343754D01*
X136444756Y-112343754D02*
X136343741Y-112310082D01*
X136343741Y-112310082D02*
X136276398Y-112310082D01*
X136276398Y-112310082D02*
X136175382Y-112343754D01*
X136175382Y-112343754D02*
X136074367Y-112444769D01*
X136074367Y-112444769D02*
X136040695Y-112545785D01*
X136040695Y-112545785D02*
X136040695Y-112613128D01*
X136040695Y-112613128D02*
X136074367Y-112714143D01*
X136074367Y-112714143D02*
X136343741Y-112983517D01*
X134929528Y-112242739D02*
X135333589Y-112646800D01*
X135131558Y-112444769D02*
X135838665Y-111737663D01*
X135838665Y-111737663D02*
X135804993Y-111906021D01*
X135804993Y-111906021D02*
X135804993Y-112040708D01*
X135804993Y-112040708D02*
X135838665Y-112141724D01*
X135400932Y-111299930D02*
X134963199Y-110862197D01*
X134963199Y-110862197D02*
X134929527Y-111367273D01*
X134929527Y-111367273D02*
X134828512Y-111266258D01*
X134828512Y-111266258D02*
X134727497Y-111232586D01*
X134727497Y-111232586D02*
X134660153Y-111232586D01*
X134660153Y-111232586D02*
X134559138Y-111266258D01*
X134559138Y-111266258D02*
X134390779Y-111434617D01*
X134390779Y-111434617D02*
X134357108Y-111535632D01*
X134357108Y-111535632D02*
X134357108Y-111602975D01*
X134357108Y-111602975D02*
X134390779Y-111703991D01*
X134390779Y-111703991D02*
X134592810Y-111906021D01*
X134592810Y-111906021D02*
X134693825Y-111939693D01*
X134693825Y-111939693D02*
X134761169Y-111939693D01*
X161095346Y-116662059D02*
X161432063Y-116998777D01*
X161432063Y-116998777D02*
X162139170Y-116291670D01*
X160489254Y-116055967D02*
X160893315Y-116460028D01*
X160691285Y-116257998D02*
X161398391Y-115550891D01*
X161398391Y-115550891D02*
X161364720Y-115719250D01*
X161364720Y-115719250D02*
X161364720Y-115853937D01*
X161364720Y-115853937D02*
X161398391Y-115954952D01*
X171293333Y-132874819D02*
X171293333Y-133589104D01*
X171293333Y-133589104D02*
X171340952Y-133731961D01*
X171340952Y-133731961D02*
X171436190Y-133827200D01*
X171436190Y-133827200D02*
X171579047Y-133874819D01*
X171579047Y-133874819D02*
X171674285Y-133874819D01*
X170864761Y-132970057D02*
X170817142Y-132922438D01*
X170817142Y-132922438D02*
X170721904Y-132874819D01*
X170721904Y-132874819D02*
X170483809Y-132874819D01*
X170483809Y-132874819D02*
X170388571Y-132922438D01*
X170388571Y-132922438D02*
X170340952Y-132970057D01*
X170340952Y-132970057D02*
X170293333Y-133065295D01*
X170293333Y-133065295D02*
X170293333Y-133160533D01*
X170293333Y-133160533D02*
X170340952Y-133303390D01*
X170340952Y-133303390D02*
X170912380Y-133874819D01*
X170912380Y-133874819D02*
X170293333Y-133874819D01*
X132620306Y-103818830D02*
X132620306Y-103886174D01*
X132620306Y-103886174D02*
X132687650Y-104020861D01*
X132687650Y-104020861D02*
X132754993Y-104088204D01*
X132754993Y-104088204D02*
X132889680Y-104155548D01*
X132889680Y-104155548D02*
X133024367Y-104155548D01*
X133024367Y-104155548D02*
X133125382Y-104121876D01*
X133125382Y-104121876D02*
X133293741Y-104020861D01*
X133293741Y-104020861D02*
X133394756Y-103919846D01*
X133394756Y-103919846D02*
X133495772Y-103751487D01*
X133495772Y-103751487D02*
X133529443Y-103650472D01*
X133529443Y-103650472D02*
X133529443Y-103515785D01*
X133529443Y-103515785D02*
X133462100Y-103381098D01*
X133462100Y-103381098D02*
X133394756Y-103313754D01*
X133394756Y-103313754D02*
X133260069Y-103246411D01*
X133260069Y-103246411D02*
X133192726Y-103246411D01*
X131879528Y-103212739D02*
X132283589Y-103616800D01*
X132081558Y-103414769D02*
X132788665Y-102707663D01*
X132788665Y-102707663D02*
X132754993Y-102876021D01*
X132754993Y-102876021D02*
X132754993Y-103010708D01*
X132754993Y-103010708D02*
X132788665Y-103111724D01*
X132350932Y-102269930D02*
X131913199Y-101832197D01*
X131913199Y-101832197D02*
X131879527Y-102337273D01*
X131879527Y-102337273D02*
X131778512Y-102236258D01*
X131778512Y-102236258D02*
X131677497Y-102202586D01*
X131677497Y-102202586D02*
X131610153Y-102202586D01*
X131610153Y-102202586D02*
X131509138Y-102236258D01*
X131509138Y-102236258D02*
X131340779Y-102404617D01*
X131340779Y-102404617D02*
X131307108Y-102505632D01*
X131307108Y-102505632D02*
X131307108Y-102572975D01*
X131307108Y-102572975D02*
X131340779Y-102673991D01*
X131340779Y-102673991D02*
X131542810Y-102876021D01*
X131542810Y-102876021D02*
X131643825Y-102909693D01*
X131643825Y-102909693D02*
X131711169Y-102909693D01*
X147210306Y-117708830D02*
X147210306Y-117776174D01*
X147210306Y-117776174D02*
X147277650Y-117910861D01*
X147277650Y-117910861D02*
X147344993Y-117978204D01*
X147344993Y-117978204D02*
X147479680Y-118045548D01*
X147479680Y-118045548D02*
X147614367Y-118045548D01*
X147614367Y-118045548D02*
X147715382Y-118011876D01*
X147715382Y-118011876D02*
X147883741Y-117910861D01*
X147883741Y-117910861D02*
X147984756Y-117809846D01*
X147984756Y-117809846D02*
X148085772Y-117641487D01*
X148085772Y-117641487D02*
X148119443Y-117540472D01*
X148119443Y-117540472D02*
X148119443Y-117405785D01*
X148119443Y-117405785D02*
X148052100Y-117271098D01*
X148052100Y-117271098D02*
X147984756Y-117203754D01*
X147984756Y-117203754D02*
X147850069Y-117136411D01*
X147850069Y-117136411D02*
X147782726Y-117136411D01*
X146469528Y-117102739D02*
X146873589Y-117506800D01*
X146671558Y-117304769D02*
X147378665Y-116597663D01*
X147378665Y-116597663D02*
X147344993Y-116766021D01*
X147344993Y-116766021D02*
X147344993Y-116900708D01*
X147344993Y-116900708D02*
X147378665Y-117001724D01*
X146570543Y-115789540D02*
X146705230Y-115924227D01*
X146705230Y-115924227D02*
X146738901Y-116025243D01*
X146738901Y-116025243D02*
X146738901Y-116092586D01*
X146738901Y-116092586D02*
X146705230Y-116260945D01*
X146705230Y-116260945D02*
X146604214Y-116429304D01*
X146604214Y-116429304D02*
X146334840Y-116698678D01*
X146334840Y-116698678D02*
X146233825Y-116732349D01*
X146233825Y-116732349D02*
X146166482Y-116732349D01*
X146166482Y-116732349D02*
X146065466Y-116698678D01*
X146065466Y-116698678D02*
X145930779Y-116563991D01*
X145930779Y-116563991D02*
X145897108Y-116462975D01*
X145897108Y-116462975D02*
X145897108Y-116395632D01*
X145897108Y-116395632D02*
X145930779Y-116294617D01*
X145930779Y-116294617D02*
X146099138Y-116126258D01*
X146099138Y-116126258D02*
X146200153Y-116092586D01*
X146200153Y-116092586D02*
X146267497Y-116092586D01*
X146267497Y-116092586D02*
X146368512Y-116126258D01*
X146368512Y-116126258D02*
X146503199Y-116260945D01*
X146503199Y-116260945D02*
X146536871Y-116361960D01*
X146536871Y-116361960D02*
X146536871Y-116429304D01*
X146536871Y-116429304D02*
X146503199Y-116530319D01*
X139971505Y-86635803D02*
X139870490Y-86063384D01*
X140375566Y-86231742D02*
X139668459Y-85524636D01*
X139668459Y-85524636D02*
X139399085Y-85794010D01*
X139399085Y-85794010D02*
X139365413Y-85895025D01*
X139365413Y-85895025D02*
X139365413Y-85962368D01*
X139365413Y-85962368D02*
X139399085Y-86063384D01*
X139399085Y-86063384D02*
X139500100Y-86164399D01*
X139500100Y-86164399D02*
X139601116Y-86198071D01*
X139601116Y-86198071D02*
X139668459Y-86198071D01*
X139668459Y-86198071D02*
X139769474Y-86164399D01*
X139769474Y-86164399D02*
X140038848Y-85895025D01*
X139028696Y-86164399D02*
X138590963Y-86602132D01*
X138590963Y-86602132D02*
X139096039Y-86635803D01*
X139096039Y-86635803D02*
X138995024Y-86736819D01*
X138995024Y-86736819D02*
X138961352Y-86837834D01*
X138961352Y-86837834D02*
X138961352Y-86905177D01*
X138961352Y-86905177D02*
X138995024Y-87006193D01*
X138995024Y-87006193D02*
X139163383Y-87174551D01*
X139163383Y-87174551D02*
X139264398Y-87208223D01*
X139264398Y-87208223D02*
X139331742Y-87208223D01*
X139331742Y-87208223D02*
X139432757Y-87174551D01*
X139432757Y-87174551D02*
X139634787Y-86972521D01*
X139634787Y-86972521D02*
X139668459Y-86871506D01*
X139668459Y-86871506D02*
X139668459Y-86804162D01*
X139641114Y-99200412D02*
X139540099Y-98627993D01*
X140045175Y-98796351D02*
X139338068Y-98089245D01*
X139338068Y-98089245D02*
X139068694Y-98358619D01*
X139068694Y-98358619D02*
X139035022Y-98459634D01*
X139035022Y-98459634D02*
X139035022Y-98526977D01*
X139035022Y-98526977D02*
X139068694Y-98627993D01*
X139068694Y-98627993D02*
X139169709Y-98729008D01*
X139169709Y-98729008D02*
X139270725Y-98762680D01*
X139270725Y-98762680D02*
X139338068Y-98762680D01*
X139338068Y-98762680D02*
X139439083Y-98729008D01*
X139439083Y-98729008D02*
X139708457Y-98459634D01*
X138967679Y-99873847D02*
X139371740Y-99469786D01*
X139169709Y-99671817D02*
X138462603Y-98964710D01*
X138462603Y-98964710D02*
X138630961Y-98998382D01*
X138630961Y-98998382D02*
X138765648Y-98998382D01*
X138765648Y-98998382D02*
X138866664Y-98964710D01*
X132983588Y-76732113D02*
X132983588Y-76799457D01*
X132983588Y-76799457D02*
X133050932Y-76934144D01*
X133050932Y-76934144D02*
X133118275Y-77001487D01*
X133118275Y-77001487D02*
X133252962Y-77068831D01*
X133252962Y-77068831D02*
X133387649Y-77068831D01*
X133387649Y-77068831D02*
X133488664Y-77035159D01*
X133488664Y-77035159D02*
X133657023Y-76934144D01*
X133657023Y-76934144D02*
X133758038Y-76833129D01*
X133758038Y-76833129D02*
X133859054Y-76664770D01*
X133859054Y-76664770D02*
X133892725Y-76563755D01*
X133892725Y-76563755D02*
X133892725Y-76429068D01*
X133892725Y-76429068D02*
X133825382Y-76294381D01*
X133825382Y-76294381D02*
X133758038Y-76227037D01*
X133758038Y-76227037D02*
X133623351Y-76159694D01*
X133623351Y-76159694D02*
X133556008Y-76159694D01*
X133387649Y-75856648D02*
X132916245Y-75385243D01*
X132916245Y-75385243D02*
X132512184Y-76395396D01*
X156295742Y-129702925D02*
X156868161Y-129601910D01*
X156699803Y-130106986D02*
X157406909Y-129399879D01*
X157406909Y-129399879D02*
X157137535Y-129130505D01*
X157137535Y-129130505D02*
X157036520Y-129096833D01*
X157036520Y-129096833D02*
X156969177Y-129096833D01*
X156969177Y-129096833D02*
X156868161Y-129130505D01*
X156868161Y-129130505D02*
X156767146Y-129231520D01*
X156767146Y-129231520D02*
X156733474Y-129332536D01*
X156733474Y-129332536D02*
X156733474Y-129399879D01*
X156733474Y-129399879D02*
X156767146Y-129500894D01*
X156767146Y-129500894D02*
X157036520Y-129770268D01*
X155622307Y-129029490D02*
X156026368Y-129433551D01*
X155824337Y-129231520D02*
X156531444Y-128524414D01*
X156531444Y-128524414D02*
X156497772Y-128692772D01*
X156497772Y-128692772D02*
X156497772Y-128827459D01*
X156497772Y-128827459D02*
X156531444Y-128928475D01*
X154948871Y-128356055D02*
X155352932Y-128760116D01*
X155150902Y-128558085D02*
X155858009Y-127850978D01*
X155858009Y-127850978D02*
X155824337Y-128019337D01*
X155824337Y-128019337D02*
X155824337Y-128154024D01*
X155824337Y-128154024D02*
X155858009Y-128255039D01*
X145803588Y-125342112D02*
X145803588Y-125409456D01*
X145803588Y-125409456D02*
X145870932Y-125544143D01*
X145870932Y-125544143D02*
X145938275Y-125611486D01*
X145938275Y-125611486D02*
X146072962Y-125678830D01*
X146072962Y-125678830D02*
X146207649Y-125678830D01*
X146207649Y-125678830D02*
X146308664Y-125645158D01*
X146308664Y-125645158D02*
X146477023Y-125544143D01*
X146477023Y-125544143D02*
X146578038Y-125443128D01*
X146578038Y-125443128D02*
X146679054Y-125274769D01*
X146679054Y-125274769D02*
X146712725Y-125173754D01*
X146712725Y-125173754D02*
X146712725Y-125039067D01*
X146712725Y-125039067D02*
X146645382Y-124904380D01*
X146645382Y-124904380D02*
X146578038Y-124837036D01*
X146578038Y-124837036D02*
X146443351Y-124769693D01*
X146443351Y-124769693D02*
X146376008Y-124769693D01*
X145399527Y-125072738D02*
X145264840Y-124938051D01*
X145264840Y-124938051D02*
X145231168Y-124837036D01*
X145231168Y-124837036D02*
X145231168Y-124769693D01*
X145231168Y-124769693D02*
X145264840Y-124601334D01*
X145264840Y-124601334D02*
X145365855Y-124432975D01*
X145365855Y-124432975D02*
X145635229Y-124163601D01*
X145635229Y-124163601D02*
X145736245Y-124129929D01*
X145736245Y-124129929D02*
X145803588Y-124129929D01*
X145803588Y-124129929D02*
X145904603Y-124163601D01*
X145904603Y-124163601D02*
X146039290Y-124298288D01*
X146039290Y-124298288D02*
X146072962Y-124399303D01*
X146072962Y-124399303D02*
X146072962Y-124466647D01*
X146072962Y-124466647D02*
X146039290Y-124567662D01*
X146039290Y-124567662D02*
X145870932Y-124736021D01*
X145870932Y-124736021D02*
X145769916Y-124769693D01*
X145769916Y-124769693D02*
X145702573Y-124769693D01*
X145702573Y-124769693D02*
X145601558Y-124736021D01*
X145601558Y-124736021D02*
X145466871Y-124601334D01*
X145466871Y-124601334D02*
X145433199Y-124500319D01*
X145433199Y-124500319D02*
X145433199Y-124432975D01*
X145433199Y-124432975D02*
X145466871Y-124331960D01*
X140823588Y-120512112D02*
X140823588Y-120579456D01*
X140823588Y-120579456D02*
X140890932Y-120714143D01*
X140890932Y-120714143D02*
X140958275Y-120781486D01*
X140958275Y-120781486D02*
X141092962Y-120848830D01*
X141092962Y-120848830D02*
X141227649Y-120848830D01*
X141227649Y-120848830D02*
X141328664Y-120815158D01*
X141328664Y-120815158D02*
X141497023Y-120714143D01*
X141497023Y-120714143D02*
X141598038Y-120613128D01*
X141598038Y-120613128D02*
X141699054Y-120444769D01*
X141699054Y-120444769D02*
X141732725Y-120343754D01*
X141732725Y-120343754D02*
X141732725Y-120209067D01*
X141732725Y-120209067D02*
X141665382Y-120074380D01*
X141665382Y-120074380D02*
X141598038Y-120007036D01*
X141598038Y-120007036D02*
X141463351Y-119939693D01*
X141463351Y-119939693D02*
X141396008Y-119939693D01*
X140756245Y-119771334D02*
X140857260Y-119805006D01*
X140857260Y-119805006D02*
X140924603Y-119805006D01*
X140924603Y-119805006D02*
X141025619Y-119771334D01*
X141025619Y-119771334D02*
X141059290Y-119737662D01*
X141059290Y-119737662D02*
X141092962Y-119636647D01*
X141092962Y-119636647D02*
X141092962Y-119569303D01*
X141092962Y-119569303D02*
X141059290Y-119468288D01*
X141059290Y-119468288D02*
X140924603Y-119333601D01*
X140924603Y-119333601D02*
X140823588Y-119299929D01*
X140823588Y-119299929D02*
X140756245Y-119299929D01*
X140756245Y-119299929D02*
X140655229Y-119333601D01*
X140655229Y-119333601D02*
X140621558Y-119367273D01*
X140621558Y-119367273D02*
X140587886Y-119468288D01*
X140587886Y-119468288D02*
X140587886Y-119535632D01*
X140587886Y-119535632D02*
X140621558Y-119636647D01*
X140621558Y-119636647D02*
X140756245Y-119771334D01*
X140756245Y-119771334D02*
X140789916Y-119872349D01*
X140789916Y-119872349D02*
X140789916Y-119939693D01*
X140789916Y-119939693D02*
X140756245Y-120040708D01*
X140756245Y-120040708D02*
X140621558Y-120175395D01*
X140621558Y-120175395D02*
X140520542Y-120209067D01*
X140520542Y-120209067D02*
X140453199Y-120209067D01*
X140453199Y-120209067D02*
X140352184Y-120175395D01*
X140352184Y-120175395D02*
X140217497Y-120040708D01*
X140217497Y-120040708D02*
X140183825Y-119939693D01*
X140183825Y-119939693D02*
X140183825Y-119872349D01*
X140183825Y-119872349D02*
X140217497Y-119771334D01*
X140217497Y-119771334D02*
X140352184Y-119636647D01*
X140352184Y-119636647D02*
X140453199Y-119602975D01*
X140453199Y-119602975D02*
X140520542Y-119602975D01*
X140520542Y-119602975D02*
X140621558Y-119636647D01*
X130700306Y-82073517D02*
X131407412Y-81366410D01*
X131407412Y-81366410D02*
X131239054Y-81198051D01*
X131239054Y-81198051D02*
X131104367Y-81130708D01*
X131104367Y-81130708D02*
X130969680Y-81130708D01*
X130969680Y-81130708D02*
X130868664Y-81164380D01*
X130868664Y-81164380D02*
X130700306Y-81265395D01*
X130700306Y-81265395D02*
X130599290Y-81366410D01*
X130599290Y-81366410D02*
X130498275Y-81534769D01*
X130498275Y-81534769D02*
X130464603Y-81635784D01*
X130464603Y-81635784D02*
X130464603Y-81770471D01*
X130464603Y-81770471D02*
X130531947Y-81905158D01*
X130531947Y-81905158D02*
X130700306Y-82073517D01*
X130666634Y-80760319D02*
X130666634Y-80692975D01*
X130666634Y-80692975D02*
X130632962Y-80591960D01*
X130632962Y-80591960D02*
X130464603Y-80423601D01*
X130464603Y-80423601D02*
X130363588Y-80389929D01*
X130363588Y-80389929D02*
X130296245Y-80389929D01*
X130296245Y-80389929D02*
X130195229Y-80423601D01*
X130195229Y-80423601D02*
X130127886Y-80490945D01*
X130127886Y-80490945D02*
X130060542Y-80625632D01*
X130060542Y-80625632D02*
X130060542Y-81433754D01*
X130060542Y-81433754D02*
X129622810Y-80996021D01*
X152533588Y-115952111D02*
X152533588Y-116019455D01*
X152533588Y-116019455D02*
X152600932Y-116154142D01*
X152600932Y-116154142D02*
X152668275Y-116221485D01*
X152668275Y-116221485D02*
X152802962Y-116288829D01*
X152802962Y-116288829D02*
X152937649Y-116288829D01*
X152937649Y-116288829D02*
X153038664Y-116255157D01*
X153038664Y-116255157D02*
X153207023Y-116154142D01*
X153207023Y-116154142D02*
X153308038Y-116053127D01*
X153308038Y-116053127D02*
X153409054Y-115884768D01*
X153409054Y-115884768D02*
X153442725Y-115783753D01*
X153442725Y-115783753D02*
X153442725Y-115649066D01*
X153442725Y-115649066D02*
X153375382Y-115514379D01*
X153375382Y-115514379D02*
X153308038Y-115447035D01*
X153308038Y-115447035D02*
X153173351Y-115379692D01*
X153173351Y-115379692D02*
X153106008Y-115379692D01*
X152533588Y-114672585D02*
X152870306Y-115009302D01*
X152870306Y-115009302D02*
X152567260Y-115379692D01*
X152567260Y-115379692D02*
X152567260Y-115312348D01*
X152567260Y-115312348D02*
X152533588Y-115211333D01*
X152533588Y-115211333D02*
X152365229Y-115042974D01*
X152365229Y-115042974D02*
X152264214Y-115009302D01*
X152264214Y-115009302D02*
X152196871Y-115009302D01*
X152196871Y-115009302D02*
X152095855Y-115042974D01*
X152095855Y-115042974D02*
X151927497Y-115211333D01*
X151927497Y-115211333D02*
X151893825Y-115312348D01*
X151893825Y-115312348D02*
X151893825Y-115379692D01*
X151893825Y-115379692D02*
X151927497Y-115480707D01*
X151927497Y-115480707D02*
X152095855Y-115649066D01*
X152095855Y-115649066D02*
X152196871Y-115682737D01*
X152196871Y-115682737D02*
X152264214Y-115682737D01*
X139866245Y-91139456D02*
X140438664Y-91038441D01*
X140270306Y-91543517D02*
X140977412Y-90836410D01*
X140977412Y-90836410D02*
X140708038Y-90567036D01*
X140708038Y-90567036D02*
X140607023Y-90533364D01*
X140607023Y-90533364D02*
X140539680Y-90533364D01*
X140539680Y-90533364D02*
X140438664Y-90567036D01*
X140438664Y-90567036D02*
X140337649Y-90668051D01*
X140337649Y-90668051D02*
X140303977Y-90769067D01*
X140303977Y-90769067D02*
X140303977Y-90836410D01*
X140303977Y-90836410D02*
X140337649Y-90937425D01*
X140337649Y-90937425D02*
X140607023Y-91206799D01*
X140236634Y-90230319D02*
X140236634Y-90162975D01*
X140236634Y-90162975D02*
X140202962Y-90061960D01*
X140202962Y-90061960D02*
X140034603Y-89893601D01*
X140034603Y-89893601D02*
X139933588Y-89859929D01*
X139933588Y-89859929D02*
X139866245Y-89859929D01*
X139866245Y-89859929D02*
X139765229Y-89893601D01*
X139765229Y-89893601D02*
X139697886Y-89960945D01*
X139697886Y-89960945D02*
X139630542Y-90095632D01*
X139630542Y-90095632D02*
X139630542Y-90903754D01*
X139630542Y-90903754D02*
X139192810Y-90466021D01*
X140790306Y-111868830D02*
X140790306Y-111936174D01*
X140790306Y-111936174D02*
X140857650Y-112070861D01*
X140857650Y-112070861D02*
X140924993Y-112138204D01*
X140924993Y-112138204D02*
X141059680Y-112205548D01*
X141059680Y-112205548D02*
X141194367Y-112205548D01*
X141194367Y-112205548D02*
X141295382Y-112171876D01*
X141295382Y-112171876D02*
X141463741Y-112070861D01*
X141463741Y-112070861D02*
X141564756Y-111969846D01*
X141564756Y-111969846D02*
X141665772Y-111801487D01*
X141665772Y-111801487D02*
X141699443Y-111700472D01*
X141699443Y-111700472D02*
X141699443Y-111565785D01*
X141699443Y-111565785D02*
X141632100Y-111431098D01*
X141632100Y-111431098D02*
X141564756Y-111363754D01*
X141564756Y-111363754D02*
X141430069Y-111296411D01*
X141430069Y-111296411D02*
X141362726Y-111296411D01*
X140049528Y-111262739D02*
X140453589Y-111666800D01*
X140251558Y-111464769D02*
X140958665Y-110757663D01*
X140958665Y-110757663D02*
X140924993Y-110926021D01*
X140924993Y-110926021D02*
X140924993Y-111060708D01*
X140924993Y-111060708D02*
X140958665Y-111161724D01*
X140318901Y-110117899D02*
X140251558Y-110050556D01*
X140251558Y-110050556D02*
X140150543Y-110016884D01*
X140150543Y-110016884D02*
X140083199Y-110016884D01*
X140083199Y-110016884D02*
X139982184Y-110050556D01*
X139982184Y-110050556D02*
X139813825Y-110151571D01*
X139813825Y-110151571D02*
X139645466Y-110319930D01*
X139645466Y-110319930D02*
X139544451Y-110488288D01*
X139544451Y-110488288D02*
X139510779Y-110589304D01*
X139510779Y-110589304D02*
X139510779Y-110656647D01*
X139510779Y-110656647D02*
X139544451Y-110757662D01*
X139544451Y-110757662D02*
X139611795Y-110825006D01*
X139611795Y-110825006D02*
X139712810Y-110858678D01*
X139712810Y-110858678D02*
X139780153Y-110858678D01*
X139780153Y-110858678D02*
X139881169Y-110825006D01*
X139881169Y-110825006D02*
X140049527Y-110723991D01*
X140049527Y-110723991D02*
X140217886Y-110555632D01*
X140217886Y-110555632D02*
X140318901Y-110387273D01*
X140318901Y-110387273D02*
X140352573Y-110286258D01*
X140352573Y-110286258D02*
X140352573Y-110218914D01*
X140352573Y-110218914D02*
X140318901Y-110117899D01*
X119704245Y-69961456D02*
X120276664Y-69860441D01*
X120108306Y-70365517D02*
X120815412Y-69658410D01*
X120815412Y-69658410D02*
X120546038Y-69389036D01*
X120546038Y-69389036D02*
X120445023Y-69355364D01*
X120445023Y-69355364D02*
X120377680Y-69355364D01*
X120377680Y-69355364D02*
X120276664Y-69389036D01*
X120276664Y-69389036D02*
X120175649Y-69490051D01*
X120175649Y-69490051D02*
X120141977Y-69591067D01*
X120141977Y-69591067D02*
X120141977Y-69658410D01*
X120141977Y-69658410D02*
X120175649Y-69759425D01*
X120175649Y-69759425D02*
X120445023Y-70028799D01*
X119805260Y-68648258D02*
X119939947Y-68782945D01*
X119939947Y-68782945D02*
X119973619Y-68883960D01*
X119973619Y-68883960D02*
X119973619Y-68951303D01*
X119973619Y-68951303D02*
X119939947Y-69119662D01*
X119939947Y-69119662D02*
X119838932Y-69288021D01*
X119838932Y-69288021D02*
X119569558Y-69557395D01*
X119569558Y-69557395D02*
X119468542Y-69591067D01*
X119468542Y-69591067D02*
X119401199Y-69591067D01*
X119401199Y-69591067D02*
X119300184Y-69557395D01*
X119300184Y-69557395D02*
X119165497Y-69422708D01*
X119165497Y-69422708D02*
X119131825Y-69321693D01*
X119131825Y-69321693D02*
X119131825Y-69254349D01*
X119131825Y-69254349D02*
X119165497Y-69153334D01*
X119165497Y-69153334D02*
X119333855Y-68984975D01*
X119333855Y-68984975D02*
X119434871Y-68951303D01*
X119434871Y-68951303D02*
X119502214Y-68951303D01*
X119502214Y-68951303D02*
X119603229Y-68984975D01*
X119603229Y-68984975D02*
X119737916Y-69119662D01*
X119737916Y-69119662D02*
X119771588Y-69220677D01*
X119771588Y-69220677D02*
X119771588Y-69288021D01*
X119771588Y-69288021D02*
X119737916Y-69389036D01*
D11*
X156289893Y-121877720D02*
X155831957Y-122335656D01*
X155831957Y-122335656D02*
X155751145Y-122362593D01*
X155751145Y-122362593D02*
X155697270Y-122362593D01*
X155697270Y-122362593D02*
X155616458Y-122335656D01*
X155616458Y-122335656D02*
X155508708Y-122227906D01*
X155508708Y-122227906D02*
X155481771Y-122147094D01*
X155481771Y-122147094D02*
X155481771Y-122093219D01*
X155481771Y-122093219D02*
X155508708Y-122012407D01*
X155508708Y-122012407D02*
X155966644Y-121554471D01*
X155670333Y-121365910D02*
X155670333Y-121312035D01*
X155670333Y-121312035D02*
X155643395Y-121231223D01*
X155643395Y-121231223D02*
X155508708Y-121096536D01*
X155508708Y-121096536D02*
X155427896Y-121069598D01*
X155427896Y-121069598D02*
X155374021Y-121069598D01*
X155374021Y-121069598D02*
X155293209Y-121096536D01*
X155293209Y-121096536D02*
X155239334Y-121150410D01*
X155239334Y-121150410D02*
X155185459Y-121258160D01*
X155185459Y-121258160D02*
X155185459Y-121904658D01*
X155185459Y-121904658D02*
X154835273Y-121554472D01*
D10*
X117233333Y-63754819D02*
X117233333Y-64469104D01*
X117233333Y-64469104D02*
X117280952Y-64611961D01*
X117280952Y-64611961D02*
X117376190Y-64707200D01*
X117376190Y-64707200D02*
X117519047Y-64754819D01*
X117519047Y-64754819D02*
X117614285Y-64754819D01*
X116852380Y-63754819D02*
X116233333Y-63754819D01*
X116233333Y-63754819D02*
X116566666Y-64135771D01*
X116566666Y-64135771D02*
X116423809Y-64135771D01*
X116423809Y-64135771D02*
X116328571Y-64183390D01*
X116328571Y-64183390D02*
X116280952Y-64231009D01*
X116280952Y-64231009D02*
X116233333Y-64326247D01*
X116233333Y-64326247D02*
X116233333Y-64564342D01*
X116233333Y-64564342D02*
X116280952Y-64659580D01*
X116280952Y-64659580D02*
X116328571Y-64707200D01*
X116328571Y-64707200D02*
X116423809Y-64754819D01*
X116423809Y-64754819D02*
X116709523Y-64754819D01*
X116709523Y-64754819D02*
X116804761Y-64707200D01*
X116804761Y-64707200D02*
X116852380Y-64659580D01*
X140012963Y-117256174D02*
X140585382Y-117155159D01*
X140417024Y-117660235D02*
X141124130Y-116953128D01*
X141124130Y-116953128D02*
X140854756Y-116683754D01*
X140854756Y-116683754D02*
X140753741Y-116650082D01*
X140753741Y-116650082D02*
X140686398Y-116650082D01*
X140686398Y-116650082D02*
X140585382Y-116683754D01*
X140585382Y-116683754D02*
X140484367Y-116784769D01*
X140484367Y-116784769D02*
X140450695Y-116885785D01*
X140450695Y-116885785D02*
X140450695Y-116953128D01*
X140450695Y-116953128D02*
X140484367Y-117054143D01*
X140484367Y-117054143D02*
X140753741Y-117323517D01*
X139339528Y-116582739D02*
X139743589Y-116986800D01*
X139541558Y-116784769D02*
X140248665Y-116077663D01*
X140248665Y-116077663D02*
X140214993Y-116246021D01*
X140214993Y-116246021D02*
X140214993Y-116380708D01*
X140214993Y-116380708D02*
X140248665Y-116481724D01*
X139709917Y-115673601D02*
X139709917Y-115606258D01*
X139709917Y-115606258D02*
X139676245Y-115505243D01*
X139676245Y-115505243D02*
X139507886Y-115336884D01*
X139507886Y-115336884D02*
X139406871Y-115303212D01*
X139406871Y-115303212D02*
X139339527Y-115303212D01*
X139339527Y-115303212D02*
X139238512Y-115336884D01*
X139238512Y-115336884D02*
X139171169Y-115404227D01*
X139171169Y-115404227D02*
X139103825Y-115538914D01*
X139103825Y-115538914D02*
X139103825Y-116347036D01*
X139103825Y-116347036D02*
X138666092Y-115909304D01*
X123262363Y-73020887D02*
X123262363Y-73088231D01*
X123262363Y-73088231D02*
X123329707Y-73222918D01*
X123329707Y-73222918D02*
X123397050Y-73290261D01*
X123397050Y-73290261D02*
X123531737Y-73357605D01*
X123531737Y-73357605D02*
X123666424Y-73357605D01*
X123666424Y-73357605D02*
X123767439Y-73323933D01*
X123767439Y-73323933D02*
X123935798Y-73222918D01*
X123935798Y-73222918D02*
X124036813Y-73121903D01*
X124036813Y-73121903D02*
X124137829Y-72953544D01*
X124137829Y-72953544D02*
X124171500Y-72852529D01*
X124171500Y-72852529D02*
X124171500Y-72717842D01*
X124171500Y-72717842D02*
X124104157Y-72583155D01*
X124104157Y-72583155D02*
X124036813Y-72515811D01*
X124036813Y-72515811D02*
X123902126Y-72448468D01*
X123902126Y-72448468D02*
X123834783Y-72448468D01*
X123666424Y-72145422D02*
X123228691Y-71707689D01*
X123228691Y-71707689D02*
X123195020Y-72212765D01*
X123195020Y-72212765D02*
X123094004Y-72111750D01*
X123094004Y-72111750D02*
X122992989Y-72078078D01*
X122992989Y-72078078D02*
X122925646Y-72078078D01*
X122925646Y-72078078D02*
X122824630Y-72111750D01*
X122824630Y-72111750D02*
X122656272Y-72280109D01*
X122656272Y-72280109D02*
X122622600Y-72381124D01*
X122622600Y-72381124D02*
X122622600Y-72448468D01*
X122622600Y-72448468D02*
X122656272Y-72549483D01*
X122656272Y-72549483D02*
X122858302Y-72751513D01*
X122858302Y-72751513D02*
X122959317Y-72785185D01*
X122959317Y-72785185D02*
X123026661Y-72785185D01*
X150306212Y-128992925D02*
X150878631Y-128891910D01*
X150710273Y-129396986D02*
X151417379Y-128689879D01*
X151417379Y-128689879D02*
X151148005Y-128420505D01*
X151148005Y-128420505D02*
X151046990Y-128386833D01*
X151046990Y-128386833D02*
X150979647Y-128386833D01*
X150979647Y-128386833D02*
X150878631Y-128420505D01*
X150878631Y-128420505D02*
X150777616Y-128521520D01*
X150777616Y-128521520D02*
X150743944Y-128622536D01*
X150743944Y-128622536D02*
X150743944Y-128689879D01*
X150743944Y-128689879D02*
X150777616Y-128790894D01*
X150777616Y-128790894D02*
X151046990Y-129060268D01*
X149632777Y-128319490D02*
X150036838Y-128723551D01*
X149834807Y-128521520D02*
X150541914Y-127814414D01*
X150541914Y-127814414D02*
X150508242Y-127982772D01*
X150508242Y-127982772D02*
X150508242Y-128117459D01*
X150508242Y-128117459D02*
X150541914Y-128218475D01*
X149902150Y-127174650D02*
X149834807Y-127107307D01*
X149834807Y-127107307D02*
X149733792Y-127073635D01*
X149733792Y-127073635D02*
X149666448Y-127073635D01*
X149666448Y-127073635D02*
X149565433Y-127107307D01*
X149565433Y-127107307D02*
X149397074Y-127208322D01*
X149397074Y-127208322D02*
X149228715Y-127376681D01*
X149228715Y-127376681D02*
X149127700Y-127545039D01*
X149127700Y-127545039D02*
X149094028Y-127646055D01*
X149094028Y-127646055D02*
X149094028Y-127713398D01*
X149094028Y-127713398D02*
X149127700Y-127814413D01*
X149127700Y-127814413D02*
X149195044Y-127881757D01*
X149195044Y-127881757D02*
X149296059Y-127915429D01*
X149296059Y-127915429D02*
X149363402Y-127915429D01*
X149363402Y-127915429D02*
X149464418Y-127881757D01*
X149464418Y-127881757D02*
X149632776Y-127780742D01*
X149632776Y-127780742D02*
X149801135Y-127612383D01*
X149801135Y-127612383D02*
X149902150Y-127444024D01*
X149902150Y-127444024D02*
X149935822Y-127343009D01*
X149935822Y-127343009D02*
X149935822Y-127275665D01*
X149935822Y-127275665D02*
X149902150Y-127174650D01*
X142258826Y-96173125D02*
X142326170Y-96173125D01*
X142326170Y-96173125D02*
X142460857Y-96105781D01*
X142460857Y-96105781D02*
X142528200Y-96038438D01*
X142528200Y-96038438D02*
X142595544Y-95903751D01*
X142595544Y-95903751D02*
X142595544Y-95769064D01*
X142595544Y-95769064D02*
X142561872Y-95668049D01*
X142561872Y-95668049D02*
X142460857Y-95499690D01*
X142460857Y-95499690D02*
X142359842Y-95398675D01*
X142359842Y-95398675D02*
X142191483Y-95297659D01*
X142191483Y-95297659D02*
X142090468Y-95263988D01*
X142090468Y-95263988D02*
X141955781Y-95263988D01*
X141955781Y-95263988D02*
X141821094Y-95331331D01*
X141821094Y-95331331D02*
X141753750Y-95398675D01*
X141753750Y-95398675D02*
X141686407Y-95533362D01*
X141686407Y-95533362D02*
X141686407Y-95600705D01*
X141652735Y-96913903D02*
X142056796Y-96509842D01*
X141854765Y-96711873D02*
X141147659Y-96004766D01*
X141147659Y-96004766D02*
X141316017Y-96038438D01*
X141316017Y-96038438D02*
X141450704Y-96038438D01*
X141450704Y-96038438D02*
X141551720Y-96004766D01*
X148640978Y-116282690D02*
X149213397Y-116181675D01*
X149045039Y-116686751D02*
X149752145Y-115979644D01*
X149752145Y-115979644D02*
X149482771Y-115710270D01*
X149482771Y-115710270D02*
X149381756Y-115676598D01*
X149381756Y-115676598D02*
X149314413Y-115676598D01*
X149314413Y-115676598D02*
X149213397Y-115710270D01*
X149213397Y-115710270D02*
X149112382Y-115811285D01*
X149112382Y-115811285D02*
X149078710Y-115912301D01*
X149078710Y-115912301D02*
X149078710Y-115979644D01*
X149078710Y-115979644D02*
X149112382Y-116080659D01*
X149112382Y-116080659D02*
X149381756Y-116350033D01*
X147967543Y-115609255D02*
X148371604Y-116013316D01*
X148169573Y-115811285D02*
X148876680Y-115104179D01*
X148876680Y-115104179D02*
X148843008Y-115272537D01*
X148843008Y-115272537D02*
X148843008Y-115407224D01*
X148843008Y-115407224D02*
X148876680Y-115508240D01*
X148034886Y-114262385D02*
X148371604Y-114599102D01*
X148371604Y-114599102D02*
X148068558Y-114969491D01*
X148068558Y-114969491D02*
X148068558Y-114902148D01*
X148068558Y-114902148D02*
X148034886Y-114801133D01*
X148034886Y-114801133D02*
X147866527Y-114632774D01*
X147866527Y-114632774D02*
X147765512Y-114599102D01*
X147765512Y-114599102D02*
X147698168Y-114599102D01*
X147698168Y-114599102D02*
X147597153Y-114632774D01*
X147597153Y-114632774D02*
X147428794Y-114801133D01*
X147428794Y-114801133D02*
X147395123Y-114902148D01*
X147395123Y-114902148D02*
X147395123Y-114969491D01*
X147395123Y-114969491D02*
X147428794Y-115070507D01*
X147428794Y-115070507D02*
X147597153Y-115238865D01*
X147597153Y-115238865D02*
X147698168Y-115272537D01*
X147698168Y-115272537D02*
X147765512Y-115272537D01*
X134633588Y-78342112D02*
X134633588Y-78409456D01*
X134633588Y-78409456D02*
X134700932Y-78544143D01*
X134700932Y-78544143D02*
X134768275Y-78611486D01*
X134768275Y-78611486D02*
X134902962Y-78678830D01*
X134902962Y-78678830D02*
X135037649Y-78678830D01*
X135037649Y-78678830D02*
X135138664Y-78645158D01*
X135138664Y-78645158D02*
X135307023Y-78544143D01*
X135307023Y-78544143D02*
X135408038Y-78443128D01*
X135408038Y-78443128D02*
X135509054Y-78274769D01*
X135509054Y-78274769D02*
X135542725Y-78173754D01*
X135542725Y-78173754D02*
X135542725Y-78039067D01*
X135542725Y-78039067D02*
X135475382Y-77904380D01*
X135475382Y-77904380D02*
X135408038Y-77837036D01*
X135408038Y-77837036D02*
X135273351Y-77769693D01*
X135273351Y-77769693D02*
X135206008Y-77769693D01*
X134431558Y-77331960D02*
X133960153Y-77803364D01*
X134869290Y-77230945D02*
X134532573Y-77904380D01*
X134532573Y-77904380D02*
X134094840Y-77466647D01*
X127346245Y-79139455D02*
X127918664Y-79038440D01*
X127750306Y-79543516D02*
X128457412Y-78836409D01*
X128457412Y-78836409D02*
X128188038Y-78567035D01*
X128188038Y-78567035D02*
X128087023Y-78533363D01*
X128087023Y-78533363D02*
X128019680Y-78533363D01*
X128019680Y-78533363D02*
X127918664Y-78567035D01*
X127918664Y-78567035D02*
X127817649Y-78668050D01*
X127817649Y-78668050D02*
X127783977Y-78769066D01*
X127783977Y-78769066D02*
X127783977Y-78836409D01*
X127783977Y-78836409D02*
X127817649Y-78937424D01*
X127817649Y-78937424D02*
X128087023Y-79206798D01*
X127413588Y-77792585D02*
X127750306Y-78129302D01*
X127750306Y-78129302D02*
X127447260Y-78499692D01*
X127447260Y-78499692D02*
X127447260Y-78432348D01*
X127447260Y-78432348D02*
X127413588Y-78331333D01*
X127413588Y-78331333D02*
X127245229Y-78162974D01*
X127245229Y-78162974D02*
X127144214Y-78129302D01*
X127144214Y-78129302D02*
X127076871Y-78129302D01*
X127076871Y-78129302D02*
X126975855Y-78162974D01*
X126975855Y-78162974D02*
X126807497Y-78331333D01*
X126807497Y-78331333D02*
X126773825Y-78432348D01*
X126773825Y-78432348D02*
X126773825Y-78499692D01*
X126773825Y-78499692D02*
X126807497Y-78600707D01*
X126807497Y-78600707D02*
X126975855Y-78769066D01*
X126975855Y-78769066D02*
X127076871Y-78802737D01*
X127076871Y-78802737D02*
X127144214Y-78802737D01*
D12*
%TO.C,J1*%
X168950000Y-103650000D02*
X174280000Y-103650000D01*
X168950000Y-111210000D02*
X168950000Y-103710000D01*
X174280000Y-103650000D02*
X174280000Y-111270000D01*
X174280000Y-111270000D02*
X168950000Y-111270000D01*
D13*
%TO.C,C6*%
X149844775Y-123755308D02*
X149475308Y-124124775D01*
X150884222Y-124794755D02*
X150514755Y-125164222D01*
D14*
%TO.C,U3*%
X131402987Y-87448775D02*
X131511006Y-87340757D01*
X133665757Y-85186006D02*
X133773775Y-85077987D01*
X133773775Y-85077987D02*
X136144563Y-87448775D01*
X133773775Y-89819563D02*
X131402987Y-87448775D01*
X133881793Y-89711544D02*
X133773775Y-89819563D01*
X136144563Y-87448775D02*
X136036544Y-87556793D01*
D13*
%TO.C,C11*%
X133858259Y-108212294D02*
X133488792Y-108581761D01*
X134897706Y-109251741D02*
X134528239Y-109621208D01*
D10*
%TO.C,D1*%
X126162797Y-83743162D02*
X126283005Y-83622954D01*
X127393162Y-82512797D02*
X127272954Y-82633005D01*
X128156838Y-85737203D02*
X126162797Y-83743162D01*
X128156838Y-85737203D02*
X128277046Y-85857412D01*
X128234619Y-85659422D02*
X128156838Y-85737203D01*
X128277046Y-85857412D02*
X128354828Y-85779630D01*
X128354828Y-85779630D02*
X128234619Y-85659422D01*
X128977082Y-84096716D02*
X127746716Y-85327082D01*
X129076076Y-84195711D02*
X127845711Y-85426076D01*
X129387203Y-84506838D02*
X127393162Y-82512797D01*
X129387203Y-84506838D02*
X129309422Y-84584619D01*
X129429630Y-84704828D02*
X129309422Y-84584619D01*
X129429630Y-84704828D02*
X129507412Y-84627046D01*
X129507412Y-84627046D02*
X129387203Y-84506838D01*
D13*
%TO.C,C2*%
X122674318Y-77943785D02*
X123043785Y-77574318D01*
X123713765Y-78983232D02*
X124083232Y-78613765D01*
%TO.C,R7*%
X117304483Y-76306070D02*
X117625600Y-75984953D01*
X118343930Y-77345517D02*
X118665047Y-77024400D01*
%TO.C,R14*%
X132111070Y-92200517D02*
X131789953Y-91879400D01*
X133150517Y-91161070D02*
X132829400Y-90839953D01*
D10*
%TO.C,L2*%
X145291252Y-119036003D02*
X145305394Y-119248135D01*
X145298323Y-119241064D02*
X145842795Y-119785536D01*
X146005430Y-118321825D02*
X145291252Y-119036003D01*
X146217562Y-118321825D02*
X146762034Y-118866297D01*
X146224633Y-118328896D02*
X146005430Y-118321825D01*
X147101445Y-121044186D02*
X146564044Y-120506785D01*
X147101445Y-121044186D02*
X147313577Y-121044186D01*
X147313577Y-121044186D02*
X148034826Y-120322937D01*
X148020684Y-120124947D02*
X147483283Y-119587546D01*
X148034826Y-120322937D02*
X148020684Y-120124947D01*
D13*
%TO.C,C12*%
X131988259Y-106362294D02*
X131618792Y-106731761D01*
X133027706Y-107401741D02*
X132658239Y-107771208D01*
%TO.C,R4*%
X122809610Y-85259057D02*
X122488493Y-84937940D01*
X123849057Y-84219610D02*
X123527940Y-83898493D01*
%TO.C,R13*%
X136252967Y-110735916D02*
X136574084Y-111057033D01*
X137292414Y-109696469D02*
X137613531Y-110017586D01*
D10*
%TO.C,L1*%
X155704151Y-117746352D02*
X155704151Y-118114047D01*
X155704151Y-118114047D02*
X156870877Y-119280773D01*
X157316355Y-116134148D02*
X155704151Y-117746352D01*
X157684050Y-116134148D02*
X157316355Y-116134148D01*
X157945680Y-120355576D02*
X159112406Y-121522302D01*
X158850776Y-117300874D02*
X157684050Y-116134148D01*
X159112406Y-121522302D02*
X159480101Y-121522302D01*
X159480101Y-121522302D02*
X161092305Y-119910098D01*
X161092305Y-119542403D02*
X159925579Y-118375677D01*
X161092305Y-119910098D02*
X161092305Y-119542403D01*
D12*
%TO.C,J2*%
X167960000Y-130920000D02*
X167960000Y-125920000D01*
X167960000Y-130920000D02*
X173960000Y-130920000D01*
X168020000Y-129250000D02*
X168530000Y-129250000D01*
X168030000Y-128280000D02*
X168520000Y-128280000D01*
X170560000Y-125930000D02*
X170560000Y-126350000D01*
X170590000Y-130490000D02*
X170590000Y-130910000D01*
X171350000Y-130450000D02*
X171350000Y-130850000D01*
X171410000Y-125950000D02*
X171410000Y-126350000D01*
X173450000Y-129270000D02*
X173960000Y-129270000D01*
X173460000Y-128300000D02*
X173950000Y-128300000D01*
X173960000Y-125920000D02*
X167960000Y-125920000D01*
X173960000Y-130920000D02*
X173960000Y-125920000D01*
D13*
%TO.C,C13*%
X130068259Y-104442294D02*
X129698792Y-104811761D01*
X131107706Y-105481741D02*
X130738239Y-105851208D01*
%TO.C,C16*%
X149698024Y-120910973D02*
X149328557Y-120541506D01*
X150737471Y-119871526D02*
X150368004Y-119502059D01*
%TO.C,R3*%
X140339610Y-86918493D02*
X140018493Y-87239610D01*
X141379057Y-87957940D02*
X141057940Y-88279057D01*
%TO.C,R1*%
X137592493Y-97066376D02*
X137271376Y-97387493D01*
X138631940Y-98105823D02*
X138310823Y-98426940D01*
%TO.C,C7*%
X130383792Y-78126761D02*
X130753259Y-77757294D01*
X131423239Y-79166208D02*
X131792706Y-78796741D01*
%TO.C,R11*%
X153403614Y-127196469D02*
X153082497Y-127517586D01*
X154443061Y-128235916D02*
X154121944Y-128557033D01*
%TO.C,C9*%
X147948024Y-121952059D02*
X147578557Y-122321526D01*
X148987471Y-122991506D02*
X148618004Y-123360973D01*
%TO.C,C8*%
X143023024Y-117227059D02*
X142653557Y-117596526D01*
X144062471Y-118266506D02*
X143693004Y-118635973D01*
D10*
%TO.C,D2*%
X127636363Y-82046729D02*
X127756572Y-82166937D01*
X127714145Y-81968947D02*
X127636363Y-82046729D01*
X127714145Y-81968947D02*
X127834353Y-82089156D01*
X127756572Y-82166937D02*
X127834353Y-82089156D01*
X127756572Y-82166937D02*
X129750613Y-84160978D01*
X128067699Y-82478064D02*
X129298064Y-81247699D01*
X128166693Y-82577059D02*
X129397059Y-81346693D01*
X128788947Y-80894145D02*
X128909156Y-81014353D01*
X128866729Y-80816363D02*
X128788947Y-80894145D01*
X128909156Y-81014353D02*
X128986937Y-80936572D01*
X128986937Y-80936572D02*
X128866729Y-80816363D01*
X128986937Y-80936572D02*
X130980978Y-82930613D01*
X129750613Y-84160978D02*
X129870821Y-84040770D01*
X130980978Y-82930613D02*
X130860770Y-83050821D01*
D13*
%TO.C,C5*%
X153431806Y-116868277D02*
X153801273Y-116498810D01*
X154471253Y-117907724D02*
X154840720Y-117538257D01*
%TO.C,R2*%
X137623258Y-92134845D02*
X137944375Y-91813728D01*
X138662705Y-93174292D02*
X138983822Y-92853175D01*
%TO.C,C10*%
X138166508Y-112574045D02*
X137797041Y-112943512D01*
X139205955Y-113613492D02*
X138836488Y-113982959D01*
D10*
%TO.C,R6*%
X115792954Y-70958030D02*
X117094030Y-69656954D01*
X116698051Y-71863127D02*
X115792954Y-70958030D01*
X117094030Y-69656954D02*
X117999127Y-70562051D01*
X117376873Y-72541949D02*
X118281970Y-73447046D01*
X118281970Y-73447046D02*
X119583046Y-72145970D01*
X119583046Y-72145970D02*
X118677949Y-71240873D01*
D14*
%TO.C,U2*%
X155146198Y-123578299D02*
X153727318Y-122159419D01*
X155954422Y-119932315D02*
X157373302Y-121351195D01*
D13*
%TO.C,J3*%
X113545000Y-61000000D02*
X113545000Y-58100000D01*
X115450000Y-56195000D02*
X118350000Y-56195000D01*
X115450000Y-62905000D02*
X118350000Y-62905000D01*
X120255000Y-61000000D02*
X120255000Y-58100000D01*
%TO.C,R12*%
X140691216Y-115137667D02*
X141012333Y-115458784D01*
X141730663Y-114098220D02*
X142051780Y-114419337D01*
D10*
%TO.C,C3*%
X119263729Y-74334805D02*
X120564805Y-73033729D01*
X120168826Y-75239902D02*
X119263729Y-74334805D01*
X120564805Y-73033729D02*
X121469902Y-73938826D01*
X120847648Y-75918724D02*
X121752745Y-76823821D01*
X121752745Y-76823821D02*
X123053821Y-75522745D01*
X123053821Y-75522745D02*
X122148724Y-74617648D01*
D13*
%TO.C,R10*%
X151594084Y-125505999D02*
X151272967Y-125827116D01*
X152633531Y-126545446D02*
X152312414Y-126866563D01*
%TO.C,C1*%
X139994318Y-94513785D02*
X140363785Y-94144318D01*
X141033765Y-95553232D02*
X141403232Y-95183765D01*
%TO.C,R15*%
X151298849Y-119361798D02*
X150977732Y-119040681D01*
X152338296Y-118322351D02*
X152017179Y-118001234D01*
%TO.C,C4*%
X131962041Y-79623512D02*
X132331508Y-79254045D01*
X133001488Y-80662959D02*
X133370955Y-80293492D01*
%TO.C,R5*%
X124968493Y-80229610D02*
X125289610Y-79908493D01*
X126007940Y-81269057D02*
X126329057Y-80947940D01*
%TD*%
%LPC*%
D15*
%TO.C,J1*%
X169970000Y-108760000D03*
X169970000Y-108110000D03*
X169970000Y-107460000D03*
X169970000Y-106810000D03*
X169970000Y-106160000D03*
D16*
X172670000Y-111410000D03*
X172670000Y-103510000D03*
D17*
X172620000Y-108400000D03*
X172620000Y-106520000D03*
D18*
X170320000Y-109920000D03*
X170320000Y-105000000D03*
%TD*%
D19*
%TO.C,TP5*%
X96925000Y-104375000D03*
%TD*%
D20*
%TO.C,H1*%
X103910000Y-70360000D03*
%TD*%
D21*
%TO.C,*%
X173330000Y-142780000D03*
%TD*%
D20*
%TO.C,H4*%
X161450000Y-127840000D03*
%TD*%
D21*
%TO.C,*%
X93330000Y-142780000D03*
%TD*%
D19*
%TO.C,TP2*%
X128200000Y-59620000D03*
%TD*%
%TO.C,TP8*%
X136775000Y-135950000D03*
%TD*%
%TO.C,TP3*%
X170360000Y-83720000D03*
%TD*%
D20*
%TO.C,H3*%
X103930000Y-127830000D03*
%TD*%
D19*
%TO.C,TP7*%
X123250000Y-135875000D03*
%TD*%
%TO.C,TP1*%
X136000000Y-63750000D03*
%TD*%
%TO.C,TP6*%
X170090000Y-92060000D03*
%TD*%
D20*
%TO.C,H2*%
X161460000Y-70320000D03*
%TD*%
D19*
%TO.C,TP4*%
X96825000Y-94150000D03*
%TD*%
D22*
%TO.C,C6*%
X150851516Y-123788014D03*
X149508014Y-125131516D03*
%TD*%
D23*
%TO.C,U3*%
X136039238Y-88335382D03*
X135579620Y-88795000D03*
X135120000Y-89254620D03*
X134660382Y-89714238D03*
X131508312Y-86562168D03*
X131967930Y-86102550D03*
X132427550Y-85642930D03*
X132887168Y-85183312D03*
%TD*%
D22*
%TO.C,C11*%
X134865000Y-108245000D03*
X133521498Y-109588502D03*
%TD*%
D24*
%TO.C,D1*%
X128970010Y-85320010D03*
X126579990Y-82929990D03*
%TD*%
D25*
%TO.C,C2*%
X122707024Y-78950526D03*
X124050526Y-77607024D03*
%TD*%
D26*
%TO.C,R7*%
X117339530Y-77310470D03*
X118630000Y-76020000D03*
%TD*%
D27*
%TO.C,R14*%
X133115470Y-92165470D03*
X131825000Y-90875000D03*
%TD*%
D28*
%TO.C,L2*%
X146168064Y-119191566D03*
X147158014Y-120181516D03*
%TD*%
D22*
%TO.C,C12*%
X132995000Y-106395000D03*
X131651498Y-107738502D03*
%TD*%
D27*
%TO.C,R4*%
X123814010Y-85224010D03*
X122523540Y-83933540D03*
%TD*%
D29*
%TO.C,R13*%
X136288014Y-109731516D03*
X137578484Y-111021986D03*
%TD*%
D30*
%TO.C,L1*%
X159600310Y-120030307D03*
X157196146Y-117626143D03*
%TD*%
D31*
%TO.C,J2*%
X171960000Y-127420000D03*
D32*
X171960000Y-129420000D03*
X169960000Y-127420000D03*
X169960000Y-129420000D03*
%TD*%
D22*
%TO.C,C13*%
X131075000Y-104475000D03*
X129731498Y-105818502D03*
%TD*%
D33*
%TO.C,C16*%
X150704765Y-120878267D03*
X149361263Y-119534765D03*
%TD*%
D34*
%TO.C,R3*%
X141344010Y-86953540D03*
X140053540Y-88244010D03*
%TD*%
%TO.C,R1*%
X138596893Y-97101423D03*
X137306423Y-98391893D03*
%TD*%
D25*
%TO.C,C7*%
X130416498Y-79133502D03*
X131760000Y-77790000D03*
%TD*%
D34*
%TO.C,R11*%
X154408014Y-127231516D03*
X153117544Y-128521986D03*
%TD*%
D22*
%TO.C,C9*%
X148954765Y-121984765D03*
X147611263Y-123328267D03*
%TD*%
%TO.C,C8*%
X144029765Y-117259765D03*
X142686263Y-118603267D03*
%TD*%
D35*
%TO.C,D2*%
X128173765Y-81353765D03*
X130563785Y-83743785D03*
%TD*%
D25*
%TO.C,C5*%
X153464512Y-117875018D03*
X154808014Y-116531516D03*
%TD*%
D26*
%TO.C,R2*%
X137658305Y-93139245D03*
X138948775Y-91848775D03*
%TD*%
D22*
%TO.C,C10*%
X139173249Y-112606751D03*
X137829747Y-113950253D03*
%TD*%
D36*
%TO.C,R6*%
X118395107Y-72259107D03*
X116980893Y-70844893D03*
%TD*%
D37*
%TO.C,U2*%
X157151519Y-122013011D03*
X156479767Y-122684764D03*
X155808014Y-123356516D03*
X153949101Y-121497603D03*
X154620853Y-120825850D03*
X155292606Y-120154098D03*
%TD*%
D38*
%TO.C,J3*%
X116900000Y-59550000D03*
D39*
X114360000Y-57010000D03*
X114360000Y-62090000D03*
X119440000Y-57010000D03*
X119440000Y-62090000D03*
%TD*%
D29*
%TO.C,R12*%
X140726263Y-114133267D03*
X142016733Y-115423737D03*
%TD*%
D36*
%TO.C,C3*%
X121865882Y-75635882D03*
X120451668Y-74221668D03*
%TD*%
D34*
%TO.C,R10*%
X152598484Y-125541046D03*
X151308014Y-126831516D03*
%TD*%
D25*
%TO.C,C1*%
X140027024Y-95520526D03*
X141370526Y-94177024D03*
%TD*%
D27*
%TO.C,R15*%
X152303249Y-119326751D03*
X151012779Y-118036281D03*
%TD*%
D25*
%TO.C,C4*%
X131994747Y-80630253D03*
X133338249Y-79286751D03*
%TD*%
D26*
%TO.C,R5*%
X125003540Y-81234010D03*
X126294010Y-79943540D03*
%TD*%
%LPD*%
M02*
