%TF.GenerationSoftware,KiCad,Pcbnew,9.0.0*%
%TF.CreationDate,2025-06-08T14:19:54-07:00*%
%TF.ProjectId,PROVES_Cosmic_Watch,50524f56-4553-45f4-936f-736d69635f57,rev?*%
%TF.SameCoordinates,Original*%
%TF.FileFunction,Copper,L2,Inr*%
%TF.FilePolarity,Positive*%
%FSLAX46Y46*%
G04 Gerber Fmt 4.6, Leading zero omitted, Abs format (unit mm)*
G04 Created by KiCad (PCBNEW 9.0.0) date 2025-06-08 14:19:54*
%MOMM*%
%LPD*%
G01*
G04 APERTURE LIST*
%TA.AperFunction,ComponentPad*%
%ADD10O,1.800000X1.400000*%
%TD*%
%TA.AperFunction,ComponentPad*%
%ADD11C,2.000000*%
%TD*%
%TA.AperFunction,ComponentPad*%
%ADD12C,5.000000*%
%TD*%
%TA.AperFunction,ComponentPad*%
%ADD13R,1.520000X1.520000*%
%TD*%
%TA.AperFunction,ComponentPad*%
%ADD14C,1.520000*%
%TD*%
%TA.AperFunction,ComponentPad*%
%ADD15C,2.050000*%
%TD*%
%TA.AperFunction,ComponentPad*%
%ADD16C,2.250000*%
%TD*%
%TA.AperFunction,ViaPad*%
%ADD17C,0.600000*%
%TD*%
G04 APERTURE END LIST*
D10*
%TO.N,GND*%
%TO.C,J1*%
X172670000Y-111410000D03*
X172670000Y-103510000D03*
%TD*%
D11*
%TO.N,Net-(U4-CATHODE)*%
%TO.C,TP5*%
X96925000Y-104375000D03*
%TD*%
D12*
%TO.N,Chassis Ground*%
%TO.C,*%
X173330000Y-142780000D03*
%TD*%
%TO.N,Chassis Ground*%
%TO.C,*%
X93330000Y-142780000D03*
%TD*%
D11*
%TO.N,Post Processed Signal*%
%TO.C,TP2*%
X128200000Y-59620000D03*
%TD*%
%TO.N,V_Out*%
%TO.C,TP8*%
X136775000Y-135950000D03*
%TD*%
%TO.N,GND*%
%TO.C,TP3*%
X170360000Y-83720000D03*
%TD*%
%TO.N,V_Bias*%
%TO.C,TP7*%
X123250000Y-135875000D03*
%TD*%
%TO.N,Net-(U3B-+)*%
%TO.C,TP1*%
X136000000Y-63750000D03*
%TD*%
%TO.N,+5V*%
%TO.C,TP6*%
X170090000Y-92060000D03*
%TD*%
%TO.N,SiPM Signal*%
%TO.C,TP4*%
X96825000Y-94150000D03*
%TD*%
D13*
%TO.N,GND*%
%TO.C,J2*%
X171960000Y-127420000D03*
D14*
X171960000Y-129420000D03*
%TO.N,+5V*%
X169960000Y-127420000D03*
X169960000Y-129420000D03*
%TD*%
D15*
%TO.N,Post Processed Signal*%
%TO.C,J3*%
X116900000Y-59550000D03*
D16*
%TO.N,GND*%
X114360000Y-57010000D03*
X114360000Y-62090000D03*
X119440000Y-57010000D03*
X119440000Y-62090000D03*
%TD*%
D17*
%TO.N,Net-(U4-CATHODE)*%
X129965000Y-103365000D03*
%TO.N,SiPM Signal*%
X135681658Y-94746658D03*
%TD*%
%TA.AperFunction,Conductor*%
%TO.N,GND*%
G36*
X174210713Y-52785030D02*
G01*
X174239083Y-52810142D01*
X176800320Y-55895517D01*
X176800910Y-55896227D01*
X176828584Y-55960383D01*
X176829500Y-55975429D01*
X176829500Y-72990699D01*
X176809815Y-73057738D01*
X176805668Y-73063790D01*
X175464074Y-74902378D01*
X175456448Y-74912827D01*
X175446269Y-74921987D01*
X175417744Y-74965869D01*
X175415765Y-74968582D01*
X175415756Y-74968596D01*
X175386852Y-75008208D01*
X175386847Y-75008218D01*
X175386565Y-75008949D01*
X175374868Y-75031831D01*
X174146057Y-76922311D01*
X174138968Y-76933216D01*
X174129500Y-76942686D01*
X174103158Y-76988309D01*
X174101364Y-76991071D01*
X174074449Y-77032479D01*
X174074328Y-77032852D01*
X174063809Y-77056464D01*
X174063609Y-77056809D01*
X174063606Y-77056816D01*
X174050820Y-77104534D01*
X174048962Y-77110804D01*
X174033673Y-77157794D01*
X174033671Y-77157802D01*
X174033651Y-77158194D01*
X174032965Y-77171174D01*
X174029500Y-77184108D01*
X174029500Y-77236781D01*
X174029327Y-77240057D01*
X174029327Y-77240060D01*
X174026721Y-77289391D01*
X174026721Y-77289398D01*
X174026801Y-77289773D01*
X174029500Y-77315505D01*
X174029500Y-102682718D01*
X174009815Y-102749757D01*
X173957011Y-102795512D01*
X173887853Y-102805456D01*
X173824297Y-102776431D01*
X173805182Y-102755604D01*
X173785310Y-102728253D01*
X173651746Y-102594689D01*
X173651741Y-102594685D01*
X173498940Y-102483670D01*
X173330637Y-102397914D01*
X173151002Y-102339548D01*
X172964447Y-102310000D01*
X172920000Y-102310000D01*
X172920000Y-103185007D01*
X172420000Y-103185007D01*
X172420000Y-102310000D01*
X172375553Y-102310000D01*
X172188997Y-102339548D01*
X172009362Y-102397914D01*
X171841059Y-102483670D01*
X171688258Y-102594685D01*
X171688253Y-102594689D01*
X171554689Y-102728253D01*
X171554685Y-102728258D01*
X171443670Y-102881059D01*
X171357914Y-103049362D01*
X171299548Y-103228997D01*
X171294638Y-103260000D01*
X172085385Y-103260000D01*
X172034935Y-103310450D01*
X171992149Y-103384558D01*
X171970001Y-103467214D01*
X171970001Y-103552786D01*
X171992149Y-103635442D01*
X172034935Y-103709550D01*
X172085385Y-103760000D01*
X171294638Y-103760000D01*
X171299548Y-103791002D01*
X171357914Y-103970637D01*
X171443670Y-104138940D01*
X171554685Y-104291741D01*
X171554689Y-104291746D01*
X171688253Y-104425310D01*
X171688258Y-104425314D01*
X171841059Y-104536329D01*
X172009362Y-104622085D01*
X172188997Y-104680451D01*
X172375553Y-104710000D01*
X172420000Y-104710000D01*
X172420000Y-103834993D01*
X172920000Y-103834993D01*
X172920000Y-104710000D01*
X172964447Y-104710000D01*
X173151002Y-104680451D01*
X173330637Y-104622085D01*
X173498940Y-104536329D01*
X173651741Y-104425314D01*
X173651746Y-104425310D01*
X173785312Y-104291744D01*
X173805181Y-104264397D01*
X173860511Y-104221730D01*
X173930124Y-104215751D01*
X173991919Y-104248356D01*
X174026277Y-104309194D01*
X174029500Y-104337281D01*
X174029500Y-110582718D01*
X174009815Y-110649757D01*
X173957011Y-110695512D01*
X173887853Y-110705456D01*
X173824297Y-110676431D01*
X173805182Y-110655604D01*
X173785310Y-110628253D01*
X173651746Y-110494689D01*
X173651741Y-110494685D01*
X173498940Y-110383670D01*
X173330637Y-110297914D01*
X173151002Y-110239548D01*
X172964447Y-110210000D01*
X172920000Y-110210000D01*
X172920000Y-111085007D01*
X172420000Y-111085007D01*
X172420000Y-110210000D01*
X172375553Y-110210000D01*
X172188997Y-110239548D01*
X172009362Y-110297914D01*
X171841059Y-110383670D01*
X171688258Y-110494685D01*
X171688253Y-110494689D01*
X171554689Y-110628253D01*
X171554685Y-110628258D01*
X171443670Y-110781059D01*
X171357914Y-110949362D01*
X171299548Y-111128997D01*
X171294638Y-111160000D01*
X172085385Y-111160000D01*
X172034935Y-111210450D01*
X171992149Y-111284558D01*
X171970001Y-111367214D01*
X171970001Y-111452786D01*
X171992149Y-111535442D01*
X172034935Y-111609550D01*
X172085385Y-111660000D01*
X171294638Y-111660000D01*
X171299548Y-111691002D01*
X171357914Y-111870637D01*
X171443670Y-112038940D01*
X171554685Y-112191741D01*
X171554689Y-112191746D01*
X171688253Y-112325310D01*
X171688258Y-112325314D01*
X171841059Y-112436329D01*
X172009362Y-112522085D01*
X172188997Y-112580451D01*
X172375553Y-112610000D01*
X172420000Y-112610000D01*
X172420000Y-111734993D01*
X172920000Y-111734993D01*
X172920000Y-112610000D01*
X172964447Y-112610000D01*
X173151002Y-112580451D01*
X173330637Y-112522085D01*
X173498940Y-112436329D01*
X173651741Y-112325314D01*
X173651746Y-112325310D01*
X173785312Y-112191744D01*
X173805181Y-112164397D01*
X173860511Y-112121730D01*
X173930124Y-112115751D01*
X173991919Y-112148356D01*
X174026277Y-112209194D01*
X174029500Y-112237281D01*
X174029500Y-122222282D01*
X174025285Y-122260218D01*
X174029500Y-122287893D01*
X174029500Y-122315897D01*
X174037601Y-122346128D01*
X174039379Y-122352764D01*
X174045127Y-122390500D01*
X174056359Y-122416138D01*
X174058790Y-122425208D01*
X174063606Y-122443180D01*
X174063608Y-122443186D01*
X174079260Y-122470296D01*
X174085448Y-122482530D01*
X174098013Y-122511208D01*
X174109636Y-122525736D01*
X174115500Y-122533066D01*
X174129500Y-122557314D01*
X174156493Y-122584307D01*
X174160781Y-122589667D01*
X176802328Y-125891600D01*
X176828836Y-125956246D01*
X176829500Y-125969062D01*
X176829500Y-142696757D01*
X176827502Y-142718924D01*
X176765702Y-143059053D01*
X176763111Y-143070309D01*
X176661802Y-143432262D01*
X176658174Y-143443228D01*
X176523630Y-143794172D01*
X176518998Y-143804751D01*
X176352376Y-144141674D01*
X176346779Y-144151778D01*
X176149542Y-144471718D01*
X176143030Y-144481257D01*
X175916872Y-144781469D01*
X175909500Y-144790360D01*
X175656392Y-145068224D01*
X175648224Y-145076392D01*
X175370360Y-145329500D01*
X175361469Y-145336872D01*
X175061257Y-145563030D01*
X175051718Y-145569542D01*
X174731778Y-145766779D01*
X174721674Y-145772376D01*
X174384751Y-145938998D01*
X174374172Y-145943630D01*
X174023228Y-146078174D01*
X174012262Y-146081802D01*
X173650309Y-146183111D01*
X173639053Y-146185702D01*
X173298925Y-146247502D01*
X173276758Y-146249500D01*
X93392120Y-146249500D01*
X93388463Y-146248578D01*
X93326287Y-146249500D01*
X93323250Y-146249500D01*
X93318810Y-146249420D01*
X92966075Y-146236782D01*
X92953569Y-146235699D01*
X92606393Y-146187804D01*
X92594060Y-146185461D01*
X92253516Y-146102711D01*
X92241483Y-146099133D01*
X91911050Y-145982376D01*
X91899441Y-145977600D01*
X91582503Y-145828030D01*
X91571436Y-145822104D01*
X91271257Y-145641262D01*
X91260845Y-145634248D01*
X90980478Y-145423974D01*
X90970830Y-145415944D01*
X90713161Y-145178402D01*
X90704373Y-145169436D01*
X90472043Y-144907059D01*
X90464208Y-144897252D01*
X90387337Y-144790360D01*
X90259593Y-144612726D01*
X90252793Y-144602181D01*
X90180552Y-144476644D01*
X90077999Y-144298430D01*
X90072298Y-144287250D01*
X89929103Y-143967363D01*
X89924567Y-143955674D01*
X89920948Y-143944740D01*
X89836780Y-143690422D01*
X89830500Y-143651462D01*
X89830500Y-142611491D01*
X90329500Y-142611491D01*
X90329500Y-142948508D01*
X90367231Y-143283381D01*
X90367233Y-143283397D01*
X90442223Y-143611953D01*
X90442227Y-143611965D01*
X90553532Y-143930054D01*
X90699752Y-144233683D01*
X90699754Y-144233686D01*
X90879054Y-144519039D01*
X91089175Y-144782523D01*
X91327477Y-145020825D01*
X91590961Y-145230946D01*
X91876314Y-145410246D01*
X92179949Y-145556469D01*
X92402229Y-145634248D01*
X92498034Y-145667772D01*
X92498046Y-145667776D01*
X92826606Y-145742767D01*
X93161492Y-145780499D01*
X93161493Y-145780500D01*
X93161496Y-145780500D01*
X93498507Y-145780500D01*
X93498507Y-145780499D01*
X93833394Y-145742767D01*
X94161954Y-145667776D01*
X94480051Y-145556469D01*
X94783686Y-145410246D01*
X95069039Y-145230946D01*
X95332523Y-145020825D01*
X95570825Y-144782523D01*
X95780946Y-144519039D01*
X95960246Y-144233686D01*
X96106469Y-143930051D01*
X96217776Y-143611954D01*
X96292767Y-143283394D01*
X96330500Y-142948504D01*
X96330500Y-142611496D01*
X96330499Y-142611491D01*
X170329500Y-142611491D01*
X170329500Y-142948508D01*
X170367231Y-143283381D01*
X170367233Y-143283397D01*
X170442223Y-143611953D01*
X170442227Y-143611965D01*
X170553532Y-143930054D01*
X170699752Y-144233683D01*
X170699754Y-144233686D01*
X170879054Y-144519039D01*
X171089175Y-144782523D01*
X171327477Y-145020825D01*
X171590961Y-145230946D01*
X171876314Y-145410246D01*
X172179949Y-145556469D01*
X172402229Y-145634248D01*
X172498034Y-145667772D01*
X172498046Y-145667776D01*
X172826606Y-145742767D01*
X173161492Y-145780499D01*
X173161493Y-145780500D01*
X173161496Y-145780500D01*
X173498507Y-145780500D01*
X173498507Y-145780499D01*
X173833394Y-145742767D01*
X174161954Y-145667776D01*
X174480051Y-145556469D01*
X174783686Y-145410246D01*
X175069039Y-145230946D01*
X175332523Y-145020825D01*
X175570825Y-144782523D01*
X175780946Y-144519039D01*
X175960246Y-144233686D01*
X176106469Y-143930051D01*
X176217776Y-143611954D01*
X176292767Y-143283394D01*
X176330500Y-142948504D01*
X176330500Y-142611496D01*
X176292767Y-142276606D01*
X176217776Y-141948046D01*
X176106469Y-141629949D01*
X175960246Y-141326314D01*
X175780946Y-141040961D01*
X175570825Y-140777477D01*
X175332523Y-140539175D01*
X175069039Y-140329054D01*
X174783686Y-140149754D01*
X174783683Y-140149752D01*
X174480054Y-140003532D01*
X174161965Y-139892227D01*
X174161953Y-139892223D01*
X173833397Y-139817233D01*
X173833381Y-139817231D01*
X173498508Y-139779500D01*
X173498504Y-139779500D01*
X173161496Y-139779500D01*
X173161491Y-139779500D01*
X172826618Y-139817231D01*
X172826602Y-139817233D01*
X172498046Y-139892223D01*
X172498034Y-139892227D01*
X172179945Y-140003532D01*
X171876316Y-140149752D01*
X171590962Y-140329053D01*
X171327477Y-140539174D01*
X171089174Y-140777477D01*
X170879053Y-141040962D01*
X170699752Y-141326316D01*
X170553532Y-141629945D01*
X170442227Y-141948034D01*
X170442223Y-141948046D01*
X170367233Y-142276602D01*
X170367231Y-142276618D01*
X170329500Y-142611491D01*
X96330499Y-142611491D01*
X96292767Y-142276606D01*
X96217776Y-141948046D01*
X96106469Y-141629949D01*
X95960246Y-141326314D01*
X95780946Y-141040961D01*
X95570825Y-140777477D01*
X95332523Y-140539175D01*
X95069039Y-140329054D01*
X94783686Y-140149754D01*
X94783683Y-140149752D01*
X94480054Y-140003532D01*
X94161965Y-139892227D01*
X94161953Y-139892223D01*
X93833397Y-139817233D01*
X93833381Y-139817231D01*
X93498508Y-139779500D01*
X93498504Y-139779500D01*
X93161496Y-139779500D01*
X93161491Y-139779500D01*
X92826618Y-139817231D01*
X92826602Y-139817233D01*
X92498046Y-139892223D01*
X92498034Y-139892227D01*
X92179945Y-140003532D01*
X91876316Y-140149752D01*
X91590962Y-140329053D01*
X91327477Y-140539174D01*
X91089174Y-140777477D01*
X90879053Y-141040962D01*
X90699752Y-141326316D01*
X90553532Y-141629945D01*
X90442227Y-141948034D01*
X90442223Y-141948046D01*
X90367233Y-142276602D01*
X90367231Y-142276618D01*
X90329500Y-142611491D01*
X89830500Y-142611491D01*
X89830500Y-135756902D01*
X121749500Y-135756902D01*
X121749500Y-135993097D01*
X121786446Y-136226368D01*
X121859433Y-136450996D01*
X121897646Y-136525992D01*
X121966657Y-136661433D01*
X122105483Y-136852510D01*
X122272490Y-137019517D01*
X122463567Y-137158343D01*
X122562991Y-137209002D01*
X122674003Y-137265566D01*
X122674005Y-137265566D01*
X122674008Y-137265568D01*
X122794412Y-137304689D01*
X122898631Y-137338553D01*
X123131903Y-137375500D01*
X123131908Y-137375500D01*
X123368097Y-137375500D01*
X123601368Y-137338553D01*
X123825992Y-137265568D01*
X124036433Y-137158343D01*
X124227510Y-137019517D01*
X124394517Y-136852510D01*
X124533343Y-136661433D01*
X124640568Y-136450992D01*
X124713553Y-136226368D01*
X124750500Y-135993097D01*
X124750500Y-135831902D01*
X135274500Y-135831902D01*
X135274500Y-136068097D01*
X135311446Y-136301368D01*
X135384433Y-136525996D01*
X135491657Y-136736433D01*
X135630483Y-136927510D01*
X135797490Y-137094517D01*
X135988567Y-137233343D01*
X136087991Y-137284002D01*
X136199003Y-137340566D01*
X136199005Y-137340566D01*
X136199008Y-137340568D01*
X136306517Y-137375500D01*
X136423631Y-137413553D01*
X136656903Y-137450500D01*
X136656908Y-137450500D01*
X136893097Y-137450500D01*
X137126368Y-137413553D01*
X137350992Y-137340568D01*
X137561433Y-137233343D01*
X137752510Y-137094517D01*
X137919517Y-136927510D01*
X138058343Y-136736433D01*
X138165568Y-136525992D01*
X138238553Y-136301368D01*
X138250432Y-136226368D01*
X138275500Y-136068097D01*
X138275500Y-135831902D01*
X138238553Y-135598631D01*
X138165566Y-135374003D01*
X138058342Y-135163566D01*
X137919517Y-134972490D01*
X137752510Y-134805483D01*
X137561433Y-134666657D01*
X137350996Y-134559433D01*
X137126368Y-134486446D01*
X136893097Y-134449500D01*
X136893092Y-134449500D01*
X136656908Y-134449500D01*
X136656903Y-134449500D01*
X136423631Y-134486446D01*
X136199003Y-134559433D01*
X135988566Y-134666657D01*
X135879550Y-134745862D01*
X135797490Y-134805483D01*
X135797488Y-134805485D01*
X135797487Y-134805485D01*
X135630485Y-134972487D01*
X135630485Y-134972488D01*
X135630483Y-134972490D01*
X135570862Y-135054550D01*
X135491657Y-135163566D01*
X135384433Y-135374003D01*
X135311446Y-135598631D01*
X135274500Y-135831902D01*
X124750500Y-135831902D01*
X124750500Y-135756902D01*
X124713553Y-135523631D01*
X124640566Y-135299003D01*
X124533342Y-135088566D01*
X124394517Y-134897490D01*
X124227510Y-134730483D01*
X124036433Y-134591657D01*
X123973188Y-134559432D01*
X123825996Y-134484433D01*
X123601368Y-134411446D01*
X123368097Y-134374500D01*
X123368092Y-134374500D01*
X123131908Y-134374500D01*
X123131903Y-134374500D01*
X122898631Y-134411446D01*
X122674003Y-134484433D01*
X122463566Y-134591657D01*
X122360339Y-134666657D01*
X122272490Y-134730483D01*
X122272488Y-134730485D01*
X122272487Y-134730485D01*
X122105485Y-134897487D01*
X122105485Y-134897488D01*
X122105483Y-134897490D01*
X122050994Y-134972487D01*
X121966657Y-135088566D01*
X121859433Y-135299003D01*
X121786446Y-135523631D01*
X121749500Y-135756902D01*
X89830500Y-135756902D01*
X89830500Y-129458166D01*
X89850185Y-129391127D01*
X89855300Y-129383766D01*
X89872558Y-129360755D01*
X91115095Y-127704038D01*
X102329500Y-127704038D01*
X102329500Y-127955961D01*
X102368910Y-128204785D01*
X102446760Y-128444383D01*
X102561132Y-128668848D01*
X102709201Y-128872649D01*
X102709205Y-128872654D01*
X102887345Y-129050794D01*
X102887350Y-129050798D01*
X103030522Y-129154818D01*
X103091155Y-129198870D01*
X103184246Y-129246302D01*
X103315616Y-129313239D01*
X103315618Y-129313239D01*
X103315621Y-129313241D01*
X103555215Y-129391090D01*
X103804038Y-129430500D01*
X103804039Y-129430500D01*
X104055961Y-129430500D01*
X104055962Y-129430500D01*
X104304785Y-129391090D01*
X104544379Y-129313241D01*
X104768845Y-129198870D01*
X104972656Y-129050793D01*
X105150793Y-128872656D01*
X105298870Y-128668845D01*
X105413241Y-128444379D01*
X105491090Y-128204785D01*
X105530500Y-127955962D01*
X105530500Y-127714038D01*
X159849500Y-127714038D01*
X159849500Y-127965962D01*
X159867665Y-128080650D01*
X159888910Y-128214785D01*
X159966760Y-128454383D01*
X160021319Y-128561460D01*
X160076036Y-128668848D01*
X160081132Y-128678848D01*
X160229201Y-128882649D01*
X160229205Y-128882654D01*
X160407345Y-129060794D01*
X160407350Y-129060798D01*
X160577073Y-129184108D01*
X160611155Y-129208870D01*
X160684620Y-129246302D01*
X160835616Y-129323239D01*
X160835618Y-129323239D01*
X160835621Y-129323241D01*
X161075215Y-129401090D01*
X161324038Y-129440500D01*
X161324039Y-129440500D01*
X161575961Y-129440500D01*
X161575962Y-129440500D01*
X161824785Y-129401090D01*
X162064379Y-129323241D01*
X162288845Y-129208870D01*
X162492656Y-129060793D01*
X162670793Y-128882656D01*
X162818870Y-128678845D01*
X162933241Y-128454379D01*
X163011090Y-128214785D01*
X163050500Y-127965962D01*
X163050500Y-127714038D01*
X163011090Y-127465215D01*
X163011089Y-127465211D01*
X163011089Y-127465210D01*
X162975033Y-127354242D01*
X162964164Y-127320790D01*
X168699500Y-127320790D01*
X168699500Y-127519209D01*
X168723383Y-127670000D01*
X168730537Y-127715168D01*
X168751635Y-127780099D01*
X168791850Y-127903868D01*
X168823489Y-127965962D01*
X168881923Y-128080646D01*
X168998544Y-128241161D01*
X168998546Y-128241163D01*
X169089702Y-128332319D01*
X169123187Y-128393642D01*
X169118203Y-128463334D01*
X169089702Y-128507681D01*
X168998546Y-128598836D01*
X168998546Y-128598837D01*
X168998544Y-128598839D01*
X168944477Y-128673255D01*
X168881926Y-128759349D01*
X168881924Y-128759352D01*
X168791850Y-128936131D01*
X168761193Y-129030484D01*
X168730537Y-129124832D01*
X168730536Y-129124835D01*
X168730536Y-129124837D01*
X168699500Y-129320790D01*
X168699500Y-129519209D01*
X168711298Y-129593698D01*
X168730537Y-129715168D01*
X168749508Y-129773553D01*
X168791850Y-129903868D01*
X168794979Y-129910008D01*
X168881923Y-130080646D01*
X168998544Y-130241161D01*
X169138839Y-130381456D01*
X169299354Y-130498077D01*
X169412800Y-130555880D01*
X169476131Y-130588149D01*
X169476133Y-130588149D01*
X169476136Y-130588151D01*
X169664832Y-130649463D01*
X169762814Y-130664981D01*
X169860791Y-130680500D01*
X169860796Y-130680500D01*
X170059209Y-130680500D01*
X170148278Y-130666392D01*
X170255168Y-130649463D01*
X170443864Y-130588151D01*
X170620646Y-130498077D01*
X170781161Y-130381456D01*
X170921456Y-130241161D01*
X171038077Y-130080646D01*
X171125021Y-129910005D01*
X171147824Y-129878621D01*
X171517852Y-129508593D01*
X171540656Y-129593698D01*
X171599901Y-129696314D01*
X171683686Y-129780099D01*
X171786302Y-129839344D01*
X171871405Y-129862147D01*
X171262714Y-130470837D01*
X171262715Y-130470838D01*
X171299612Y-130497645D01*
X171476327Y-130587688D01*
X171476330Y-130587689D01*
X171664947Y-130648973D01*
X171860837Y-130680000D01*
X172059163Y-130680000D01*
X172255052Y-130648973D01*
X172443669Y-130587689D01*
X172443672Y-130587688D01*
X172620382Y-130497648D01*
X172657283Y-130470837D01*
X172657284Y-130470836D01*
X172048595Y-129862147D01*
X172133698Y-129839344D01*
X172236314Y-129780099D01*
X172320099Y-129696314D01*
X172379344Y-129593698D01*
X172402147Y-129508594D01*
X173010837Y-130117284D01*
X173010837Y-130117283D01*
X173037647Y-130080384D01*
X173127688Y-129903672D01*
X173127689Y-129903669D01*
X173188973Y-129715052D01*
X173220000Y-129519163D01*
X173220000Y-129320836D01*
X173188973Y-129124947D01*
X173127689Y-128936330D01*
X173127688Y-128936327D01*
X173037645Y-128759611D01*
X173018757Y-128733614D01*
X172995276Y-128667808D01*
X173011101Y-128599754D01*
X173044765Y-128561460D01*
X173077190Y-128537187D01*
X173163350Y-128422093D01*
X173163354Y-128422086D01*
X173213596Y-128287379D01*
X173213598Y-128287372D01*
X173219999Y-128227844D01*
X173220000Y-128227827D01*
X173220000Y-127670000D01*
X172335291Y-127670000D01*
X172379344Y-127593698D01*
X172410012Y-127479245D01*
X172410012Y-127360755D01*
X172379344Y-127246302D01*
X172335291Y-127170000D01*
X173220000Y-127170000D01*
X173220000Y-126612172D01*
X173219999Y-126612155D01*
X173213598Y-126552627D01*
X173213596Y-126552620D01*
X173163354Y-126417913D01*
X173163350Y-126417906D01*
X173077190Y-126302812D01*
X173077187Y-126302809D01*
X172962093Y-126216649D01*
X172962086Y-126216645D01*
X172827379Y-126166403D01*
X172827372Y-126166401D01*
X172767844Y-126160000D01*
X172210000Y-126160000D01*
X172210000Y-127044708D01*
X172133698Y-127000656D01*
X172019245Y-126969988D01*
X171900755Y-126969988D01*
X171786302Y-127000656D01*
X171710000Y-127044708D01*
X171710000Y-126160000D01*
X171152155Y-126160000D01*
X171092627Y-126166401D01*
X171092620Y-126166403D01*
X170957913Y-126216645D01*
X170957906Y-126216649D01*
X170842812Y-126302809D01*
X170842810Y-126302811D01*
X170818836Y-126334836D01*
X170762901Y-126376706D01*
X170693210Y-126381689D01*
X170646687Y-126360842D01*
X170620654Y-126341928D01*
X170620647Y-126341924D01*
X170620648Y-126341924D01*
X170620646Y-126341923D01*
X170543880Y-126302809D01*
X170443868Y-126251850D01*
X170398596Y-126237140D01*
X170255168Y-126190537D01*
X170255162Y-126190536D01*
X170059209Y-126159500D01*
X170059204Y-126159500D01*
X169860796Y-126159500D01*
X169860791Y-126159500D01*
X169664837Y-126190536D01*
X169664835Y-126190536D01*
X169664832Y-126190537D01*
X169584481Y-126216645D01*
X169476131Y-126251850D01*
X169299352Y-126341924D01*
X169299349Y-126341926D01*
X169213255Y-126404477D01*
X169138839Y-126458544D01*
X169138837Y-126458546D01*
X169138836Y-126458546D01*
X168998546Y-126598836D01*
X168998546Y-126598837D01*
X168998544Y-126598839D01*
X168983746Y-126619207D01*
X168881926Y-126759349D01*
X168881924Y-126759352D01*
X168791850Y-126936131D01*
X168773973Y-126991151D01*
X168730537Y-127124832D01*
X168730536Y-127124835D01*
X168730536Y-127124837D01*
X168699500Y-127320790D01*
X162964164Y-127320790D01*
X162950923Y-127280040D01*
X162933241Y-127225621D01*
X162933239Y-127225618D01*
X162933239Y-127225616D01*
X162881889Y-127124837D01*
X162818870Y-127001155D01*
X162771631Y-126936136D01*
X162670798Y-126797350D01*
X162670794Y-126797345D01*
X162492654Y-126619205D01*
X162492649Y-126619201D01*
X162288848Y-126471132D01*
X162288847Y-126471131D01*
X162288845Y-126471130D01*
X162184387Y-126417906D01*
X162064383Y-126356760D01*
X161824785Y-126278910D01*
X161653936Y-126251850D01*
X161575962Y-126239500D01*
X161324038Y-126239500D01*
X161246070Y-126251849D01*
X161075214Y-126278910D01*
X160835616Y-126356760D01*
X160611151Y-126471132D01*
X160407350Y-126619201D01*
X160407345Y-126619205D01*
X160229205Y-126797345D01*
X160229201Y-126797350D01*
X160081132Y-127001151D01*
X159966760Y-127225616D01*
X159888910Y-127465214D01*
X159869810Y-127585806D01*
X159849500Y-127714038D01*
X105530500Y-127714038D01*
X105530500Y-127704038D01*
X105491090Y-127455215D01*
X105413241Y-127215621D01*
X105413239Y-127215618D01*
X105413239Y-127215616D01*
X105345752Y-127083166D01*
X105298870Y-126991155D01*
X105279952Y-126965117D01*
X105150798Y-126787350D01*
X105150794Y-126787345D01*
X104972654Y-126609205D01*
X104972649Y-126609201D01*
X104768848Y-126461132D01*
X104768847Y-126461131D01*
X104768845Y-126461130D01*
X104684013Y-126417906D01*
X104544383Y-126346760D01*
X104304785Y-126268910D01*
X104197073Y-126251850D01*
X104055962Y-126229500D01*
X103804038Y-126229500D01*
X103740901Y-126239500D01*
X103555214Y-126268910D01*
X103315616Y-126346760D01*
X103091151Y-126461132D01*
X102887350Y-126609201D01*
X102887345Y-126609205D01*
X102709205Y-126787345D01*
X102709201Y-126787350D01*
X102561132Y-126991151D01*
X102446760Y-127215616D01*
X102368910Y-127455214D01*
X102329500Y-127704038D01*
X91115095Y-127704038D01*
X91203777Y-127585795D01*
X91215278Y-127572535D01*
X91230500Y-127557314D01*
X91248427Y-127526262D01*
X91269935Y-127497586D01*
X91281228Y-127469449D01*
X91296392Y-127443186D01*
X91305671Y-127408554D01*
X91319025Y-127375286D01*
X91322651Y-127345181D01*
X91330500Y-127315892D01*
X91330500Y-127280040D01*
X91334788Y-127244449D01*
X91330500Y-127214432D01*
X91330500Y-104256902D01*
X95424500Y-104256902D01*
X95424500Y-104493097D01*
X95461446Y-104726368D01*
X95534433Y-104950996D01*
X95641657Y-105161433D01*
X95780483Y-105352510D01*
X95947490Y-105519517D01*
X96138567Y-105658343D01*
X96237991Y-105709002D01*
X96349003Y-105765566D01*
X96349005Y-105765566D01*
X96349008Y-105765568D01*
X96469412Y-105804689D01*
X96573631Y-105838553D01*
X96806903Y-105875500D01*
X96806908Y-105875500D01*
X97043097Y-105875500D01*
X97276368Y-105838553D01*
X97500992Y-105765568D01*
X97711433Y-105658343D01*
X97902510Y-105519517D01*
X98069517Y-105352510D01*
X98208343Y-105161433D01*
X98315568Y-104950992D01*
X98388553Y-104726368D01*
X98391145Y-104710000D01*
X98425500Y-104493097D01*
X98425500Y-104256902D01*
X98388553Y-104023631D01*
X98315566Y-103799003D01*
X98232227Y-103635442D01*
X98208343Y-103588567D01*
X98069517Y-103397490D01*
X97958180Y-103286153D01*
X129164500Y-103286153D01*
X129164500Y-103443846D01*
X129195261Y-103598489D01*
X129195264Y-103598501D01*
X129255602Y-103744172D01*
X129255609Y-103744185D01*
X129343210Y-103875288D01*
X129343213Y-103875292D01*
X129454707Y-103986786D01*
X129454711Y-103986789D01*
X129585814Y-104074390D01*
X129585827Y-104074397D01*
X129731498Y-104134735D01*
X129731503Y-104134737D01*
X129886153Y-104165499D01*
X129886156Y-104165500D01*
X129886158Y-104165500D01*
X130043844Y-104165500D01*
X130043845Y-104165499D01*
X130198497Y-104134737D01*
X130344179Y-104074394D01*
X130475289Y-103986789D01*
X130586789Y-103875289D01*
X130674394Y-103744179D01*
X130734737Y-103598497D01*
X130765500Y-103443842D01*
X130765500Y-103286158D01*
X130765500Y-103286155D01*
X130765499Y-103286153D01*
X130749785Y-103207155D01*
X130734737Y-103131503D01*
X130734735Y-103131498D01*
X130674397Y-102985827D01*
X130674390Y-102985814D01*
X130586789Y-102854711D01*
X130586786Y-102854707D01*
X130475292Y-102743213D01*
X130475288Y-102743210D01*
X130344185Y-102655609D01*
X130344172Y-102655602D01*
X130198501Y-102595264D01*
X130198489Y-102595261D01*
X130043845Y-102564500D01*
X130043842Y-102564500D01*
X129886158Y-102564500D01*
X129886155Y-102564500D01*
X129731510Y-102595261D01*
X129731498Y-102595264D01*
X129585827Y-102655602D01*
X129585814Y-102655609D01*
X129454711Y-102743210D01*
X129454707Y-102743213D01*
X129343213Y-102854707D01*
X129343210Y-102854711D01*
X129255609Y-102985814D01*
X129255602Y-102985827D01*
X129195264Y-103131498D01*
X129195261Y-103131510D01*
X129164500Y-103286153D01*
X97958180Y-103286153D01*
X97902510Y-103230483D01*
X97711433Y-103091657D01*
X97500996Y-102984433D01*
X97276368Y-102911446D01*
X97043097Y-102874500D01*
X97043092Y-102874500D01*
X96806908Y-102874500D01*
X96806903Y-102874500D01*
X96573631Y-102911446D01*
X96349003Y-102984433D01*
X96138566Y-103091657D01*
X96083714Y-103131510D01*
X95947490Y-103230483D01*
X95947488Y-103230485D01*
X95947487Y-103230485D01*
X95780485Y-103397487D01*
X95780485Y-103397488D01*
X95780483Y-103397490D01*
X95729825Y-103467214D01*
X95641657Y-103588566D01*
X95534433Y-103799003D01*
X95461446Y-104023631D01*
X95424500Y-104256902D01*
X91330500Y-104256902D01*
X91330500Y-94031902D01*
X95324500Y-94031902D01*
X95324500Y-94268097D01*
X95361446Y-94501368D01*
X95434433Y-94725996D01*
X95541657Y-94936433D01*
X95680483Y-95127510D01*
X95847490Y-95294517D01*
X96038567Y-95433343D01*
X96083136Y-95456052D01*
X96249003Y-95540566D01*
X96249005Y-95540566D01*
X96249008Y-95540568D01*
X96369412Y-95579689D01*
X96473631Y-95613553D01*
X96706903Y-95650500D01*
X96706908Y-95650500D01*
X96943097Y-95650500D01*
X97176368Y-95613553D01*
X97400992Y-95540568D01*
X97611433Y-95433343D01*
X97802510Y-95294517D01*
X97969517Y-95127510D01*
X98108343Y-94936433D01*
X98215568Y-94725992D01*
X98234472Y-94667811D01*
X134881158Y-94667811D01*
X134881158Y-94825504D01*
X134911919Y-94980147D01*
X134911922Y-94980159D01*
X134972260Y-95125830D01*
X134972267Y-95125843D01*
X135059868Y-95256946D01*
X135059871Y-95256950D01*
X135171365Y-95368444D01*
X135171369Y-95368447D01*
X135302472Y-95456048D01*
X135302485Y-95456055D01*
X135448156Y-95516393D01*
X135448161Y-95516395D01*
X135602811Y-95547157D01*
X135602814Y-95547158D01*
X135602816Y-95547158D01*
X135760502Y-95547158D01*
X135760503Y-95547157D01*
X135915155Y-95516395D01*
X136060837Y-95456052D01*
X136191947Y-95368447D01*
X136303447Y-95256947D01*
X136391052Y-95125837D01*
X136451395Y-94980155D01*
X136482158Y-94825500D01*
X136482158Y-94667816D01*
X136482158Y-94667813D01*
X136482157Y-94667811D01*
X136451396Y-94513168D01*
X136451395Y-94513161D01*
X136446510Y-94501368D01*
X136391055Y-94367485D01*
X136391048Y-94367472D01*
X136303447Y-94236369D01*
X136303444Y-94236365D01*
X136191950Y-94124871D01*
X136191946Y-94124868D01*
X136060843Y-94037267D01*
X136060830Y-94037260D01*
X135915159Y-93976922D01*
X135915147Y-93976919D01*
X135760503Y-93946158D01*
X135760500Y-93946158D01*
X135602816Y-93946158D01*
X135602813Y-93946158D01*
X135448168Y-93976919D01*
X135448156Y-93976922D01*
X135302485Y-94037260D01*
X135302472Y-94037267D01*
X135171369Y-94124868D01*
X135171365Y-94124871D01*
X135059871Y-94236365D01*
X135059868Y-94236369D01*
X134972267Y-94367472D01*
X134972260Y-94367485D01*
X134911922Y-94513156D01*
X134911919Y-94513168D01*
X134881158Y-94667811D01*
X98234472Y-94667811D01*
X98288553Y-94501368D01*
X98309760Y-94367472D01*
X98325500Y-94268097D01*
X98325500Y-94031902D01*
X98288553Y-93798631D01*
X98215566Y-93574003D01*
X98108342Y-93363566D01*
X98093649Y-93343343D01*
X97969517Y-93172490D01*
X97802510Y-93005483D01*
X97611433Y-92866657D01*
X97400996Y-92759433D01*
X97176368Y-92686446D01*
X96943097Y-92649500D01*
X96943092Y-92649500D01*
X96706908Y-92649500D01*
X96706903Y-92649500D01*
X96473631Y-92686446D01*
X96249003Y-92759433D01*
X96038566Y-92866657D01*
X95929550Y-92945862D01*
X95847490Y-93005483D01*
X95847488Y-93005485D01*
X95847487Y-93005485D01*
X95680485Y-93172487D01*
X95680485Y-93172488D01*
X95680483Y-93172490D01*
X95657216Y-93204514D01*
X95541657Y-93363566D01*
X95434433Y-93574003D01*
X95361446Y-93798631D01*
X95324500Y-94031902D01*
X91330500Y-94031902D01*
X91330500Y-91941902D01*
X168589500Y-91941902D01*
X168589500Y-92178097D01*
X168626446Y-92411368D01*
X168699433Y-92635996D01*
X168762328Y-92759433D01*
X168806657Y-92846433D01*
X168945483Y-93037510D01*
X169112490Y-93204517D01*
X169303567Y-93343343D01*
X169343257Y-93363566D01*
X169514003Y-93450566D01*
X169514005Y-93450566D01*
X169514008Y-93450568D01*
X169634412Y-93489689D01*
X169738631Y-93523553D01*
X169971903Y-93560500D01*
X169971908Y-93560500D01*
X170208097Y-93560500D01*
X170441368Y-93523553D01*
X170665992Y-93450568D01*
X170876433Y-93343343D01*
X171067510Y-93204517D01*
X171234517Y-93037510D01*
X171373343Y-92846433D01*
X171480568Y-92635992D01*
X171553553Y-92411368D01*
X171590500Y-92178097D01*
X171590500Y-91941902D01*
X171553553Y-91708631D01*
X171480566Y-91484003D01*
X171373342Y-91273566D01*
X171234517Y-91082490D01*
X171067510Y-90915483D01*
X170876433Y-90776657D01*
X170665996Y-90669433D01*
X170441368Y-90596446D01*
X170208097Y-90559500D01*
X170208092Y-90559500D01*
X169971908Y-90559500D01*
X169971903Y-90559500D01*
X169738631Y-90596446D01*
X169514003Y-90669433D01*
X169303566Y-90776657D01*
X169194550Y-90855862D01*
X169112490Y-90915483D01*
X169112488Y-90915485D01*
X169112487Y-90915485D01*
X168945485Y-91082487D01*
X168945485Y-91082488D01*
X168945483Y-91082490D01*
X168885862Y-91164550D01*
X168806657Y-91273566D01*
X168699433Y-91484003D01*
X168626446Y-91708631D01*
X168589500Y-91941902D01*
X91330500Y-91941902D01*
X91330500Y-83601947D01*
X168860000Y-83601947D01*
X168860000Y-83838052D01*
X168896934Y-84071247D01*
X168969897Y-84295802D01*
X169077087Y-84506174D01*
X169137338Y-84589104D01*
X169137340Y-84589105D01*
X169877037Y-83849408D01*
X169894075Y-83912993D01*
X169959901Y-84027007D01*
X170052993Y-84120099D01*
X170167007Y-84185925D01*
X170230590Y-84202962D01*
X169490893Y-84942658D01*
X169573828Y-85002914D01*
X169784197Y-85110102D01*
X170008752Y-85183065D01*
X170008751Y-85183065D01*
X170241948Y-85220000D01*
X170478052Y-85220000D01*
X170711247Y-85183065D01*
X170935802Y-85110102D01*
X171146163Y-85002918D01*
X171146169Y-85002914D01*
X171229104Y-84942658D01*
X171229105Y-84942658D01*
X170489408Y-84202962D01*
X170552993Y-84185925D01*
X170667007Y-84120099D01*
X170760099Y-84027007D01*
X170825925Y-83912993D01*
X170842962Y-83849408D01*
X171582658Y-84589105D01*
X171582658Y-84589104D01*
X171642914Y-84506169D01*
X171642918Y-84506163D01*
X171750102Y-84295802D01*
X171823065Y-84071247D01*
X171860000Y-83838052D01*
X171860000Y-83601947D01*
X171823065Y-83368752D01*
X171750102Y-83144197D01*
X171642914Y-82933828D01*
X171582658Y-82850894D01*
X171582658Y-82850893D01*
X170842962Y-83590590D01*
X170825925Y-83527007D01*
X170760099Y-83412993D01*
X170667007Y-83319901D01*
X170552993Y-83254075D01*
X170489409Y-83237037D01*
X171229105Y-82497340D01*
X171229104Y-82497338D01*
X171146174Y-82437087D01*
X170935802Y-82329897D01*
X170711247Y-82256934D01*
X170711248Y-82256934D01*
X170478052Y-82220000D01*
X170241948Y-82220000D01*
X170008752Y-82256934D01*
X169784197Y-82329897D01*
X169573830Y-82437084D01*
X169490894Y-82497340D01*
X170230591Y-83237037D01*
X170167007Y-83254075D01*
X170052993Y-83319901D01*
X169959901Y-83412993D01*
X169894075Y-83527007D01*
X169877037Y-83590591D01*
X169137340Y-82850894D01*
X169077084Y-82933830D01*
X168969897Y-83144197D01*
X168896934Y-83368752D01*
X168860000Y-83601947D01*
X91330500Y-83601947D01*
X91330500Y-72285567D01*
X91334788Y-72255551D01*
X91330500Y-72219959D01*
X91330500Y-72184108D01*
X91324932Y-72163330D01*
X91321598Y-72146077D01*
X91319025Y-72124714D01*
X91305671Y-72091445D01*
X91296392Y-72056814D01*
X91281228Y-72030550D01*
X91269935Y-72002414D01*
X91263372Y-71993664D01*
X91252890Y-71979686D01*
X91244705Y-71967289D01*
X91230502Y-71942689D01*
X91230498Y-71942684D01*
X91215289Y-71927475D01*
X91203770Y-71914194D01*
X89995800Y-70303566D01*
X89943654Y-70234038D01*
X102309500Y-70234038D01*
X102309500Y-70485961D01*
X102348910Y-70734785D01*
X102426760Y-70974383D01*
X102541132Y-71198848D01*
X102689201Y-71402649D01*
X102689205Y-71402654D01*
X102867345Y-71580794D01*
X102867350Y-71580798D01*
X103045117Y-71709952D01*
X103071155Y-71728870D01*
X103214184Y-71801747D01*
X103295616Y-71843239D01*
X103295618Y-71843239D01*
X103295621Y-71843241D01*
X103535215Y-71921090D01*
X103784038Y-71960500D01*
X103784039Y-71960500D01*
X104035961Y-71960500D01*
X104035962Y-71960500D01*
X104284785Y-71921090D01*
X104524379Y-71843241D01*
X104748845Y-71728870D01*
X104952656Y-71580793D01*
X105130793Y-71402656D01*
X105278870Y-71198845D01*
X105393241Y-70974379D01*
X105471090Y-70734785D01*
X105510500Y-70485962D01*
X105510500Y-70234038D01*
X105504165Y-70194038D01*
X159859500Y-70194038D01*
X159859500Y-70445962D01*
X159867677Y-70497586D01*
X159898910Y-70694785D01*
X159976760Y-70934383D01*
X160091132Y-71158848D01*
X160239201Y-71362649D01*
X160239205Y-71362654D01*
X160417345Y-71540794D01*
X160417350Y-71540798D01*
X160472406Y-71580798D01*
X160621155Y-71688870D01*
X160699654Y-71728867D01*
X160845616Y-71803239D01*
X160845618Y-71803239D01*
X160845621Y-71803241D01*
X161085215Y-71881090D01*
X161334038Y-71920500D01*
X161334039Y-71920500D01*
X161585961Y-71920500D01*
X161585962Y-71920500D01*
X161834785Y-71881090D01*
X162074379Y-71803241D01*
X162298845Y-71688870D01*
X162502656Y-71540793D01*
X162680793Y-71362656D01*
X162828870Y-71158845D01*
X162943241Y-70934379D01*
X163021090Y-70694785D01*
X163060500Y-70445962D01*
X163060500Y-70194038D01*
X163021090Y-69945215D01*
X162943241Y-69705621D01*
X162943239Y-69705618D01*
X162943239Y-69705616D01*
X162901747Y-69624184D01*
X162828870Y-69481155D01*
X162709859Y-69317350D01*
X162680798Y-69277350D01*
X162680794Y-69277345D01*
X162502654Y-69099205D01*
X162502649Y-69099201D01*
X162298848Y-68951132D01*
X162298847Y-68951131D01*
X162298845Y-68951130D01*
X162228747Y-68915413D01*
X162074383Y-68836760D01*
X161834785Y-68758910D01*
X161585962Y-68719500D01*
X161334038Y-68719500D01*
X161209626Y-68739205D01*
X161085214Y-68758910D01*
X160845616Y-68836760D01*
X160621151Y-68951132D01*
X160417350Y-69099201D01*
X160417345Y-69099205D01*
X160239205Y-69277345D01*
X160239201Y-69277350D01*
X160091132Y-69481151D01*
X159976760Y-69705616D01*
X159898910Y-69945214D01*
X159871823Y-70116232D01*
X159859500Y-70194038D01*
X105504165Y-70194038D01*
X105471090Y-69985215D01*
X105393241Y-69745621D01*
X105393239Y-69745618D01*
X105393239Y-69745616D01*
X105351747Y-69664184D01*
X105278870Y-69521155D01*
X105249808Y-69481155D01*
X105130798Y-69317350D01*
X105130794Y-69317345D01*
X104952654Y-69139205D01*
X104952649Y-69139201D01*
X104748848Y-68991132D01*
X104748847Y-68991131D01*
X104748845Y-68991130D01*
X104678747Y-68955413D01*
X104524383Y-68876760D01*
X104284785Y-68798910D01*
X104035962Y-68759500D01*
X103784038Y-68759500D01*
X103659626Y-68779205D01*
X103535214Y-68798910D01*
X103295616Y-68876760D01*
X103071151Y-68991132D01*
X102867350Y-69139201D01*
X102867345Y-69139205D01*
X102689205Y-69317345D01*
X102689201Y-69317350D01*
X102541132Y-69521151D01*
X102426760Y-69745616D01*
X102348910Y-69985214D01*
X102309500Y-70234038D01*
X89943654Y-70234038D01*
X89855300Y-70116232D01*
X89830824Y-70050789D01*
X89830500Y-70041832D01*
X89830500Y-61962110D01*
X112735000Y-61962110D01*
X112735000Y-62217889D01*
X112775013Y-62470523D01*
X112854051Y-62713781D01*
X112854052Y-62713784D01*
X112970175Y-62941686D01*
X113047850Y-63048595D01*
X113047850Y-63048596D01*
X113605884Y-62490561D01*
X113606740Y-62492626D01*
X113699762Y-62631844D01*
X113818156Y-62750238D01*
X113957374Y-62843260D01*
X113959437Y-62844114D01*
X113401402Y-63402148D01*
X113508313Y-63479824D01*
X113736215Y-63595947D01*
X113736218Y-63595948D01*
X113979476Y-63674986D01*
X114232111Y-63715000D01*
X114487889Y-63715000D01*
X114740523Y-63674986D01*
X114983781Y-63595948D01*
X114983784Y-63595947D01*
X115211685Y-63479825D01*
X115318595Y-63402148D01*
X115318596Y-63402148D01*
X114760562Y-62844114D01*
X114762626Y-62843260D01*
X114901844Y-62750238D01*
X115020238Y-62631844D01*
X115113260Y-62492626D01*
X115114114Y-62490562D01*
X115672148Y-63048596D01*
X115672148Y-63048595D01*
X115749825Y-62941685D01*
X115865947Y-62713784D01*
X115865948Y-62713781D01*
X115944986Y-62470523D01*
X115985000Y-62217889D01*
X115985000Y-61962110D01*
X117815000Y-61962110D01*
X117815000Y-62217889D01*
X117855013Y-62470523D01*
X117934051Y-62713781D01*
X117934052Y-62713784D01*
X118050175Y-62941686D01*
X118127850Y-63048595D01*
X118127850Y-63048596D01*
X118685884Y-62490561D01*
X118686740Y-62492626D01*
X118779762Y-62631844D01*
X118898156Y-62750238D01*
X119037374Y-62843260D01*
X119039437Y-62844114D01*
X118481402Y-63402148D01*
X118588313Y-63479824D01*
X118816215Y-63595947D01*
X118816218Y-63595948D01*
X119059476Y-63674986D01*
X119312111Y-63715000D01*
X119567889Y-63715000D01*
X119820523Y-63674986D01*
X119953124Y-63631902D01*
X134499500Y-63631902D01*
X134499500Y-63868097D01*
X134536446Y-64101368D01*
X134609433Y-64325996D01*
X134716657Y-64536433D01*
X134855483Y-64727510D01*
X135022490Y-64894517D01*
X135213567Y-65033343D01*
X135312991Y-65084002D01*
X135424003Y-65140566D01*
X135424005Y-65140566D01*
X135424008Y-65140568D01*
X135544412Y-65179689D01*
X135648631Y-65213553D01*
X135881903Y-65250500D01*
X135881908Y-65250500D01*
X136118097Y-65250500D01*
X136351368Y-65213553D01*
X136575992Y-65140568D01*
X136786433Y-65033343D01*
X136977510Y-64894517D01*
X137144517Y-64727510D01*
X137283343Y-64536433D01*
X137390568Y-64325992D01*
X137463553Y-64101368D01*
X137500500Y-63868097D01*
X137500500Y-63631902D01*
X137463553Y-63398631D01*
X137390566Y-63174003D01*
X137283342Y-62963566D01*
X137267445Y-62941686D01*
X137144517Y-62772490D01*
X136977510Y-62605483D01*
X136786433Y-62466657D01*
X136741089Y-62443553D01*
X136575996Y-62359433D01*
X136351368Y-62286446D01*
X136118097Y-62249500D01*
X136118092Y-62249500D01*
X135881908Y-62249500D01*
X135881903Y-62249500D01*
X135648631Y-62286446D01*
X135424003Y-62359433D01*
X135213566Y-62466657D01*
X135104550Y-62545862D01*
X135022490Y-62605483D01*
X135022488Y-62605485D01*
X135022487Y-62605485D01*
X134855485Y-62772487D01*
X134855485Y-62772488D01*
X134855483Y-62772490D01*
X134795862Y-62854550D01*
X134716657Y-62963566D01*
X134609433Y-63174003D01*
X134536446Y-63398631D01*
X134499500Y-63631902D01*
X119953124Y-63631902D01*
X120063781Y-63595948D01*
X120063784Y-63595947D01*
X120219607Y-63516551D01*
X120291685Y-63479825D01*
X120398595Y-63402148D01*
X120398596Y-63402148D01*
X119840562Y-62844114D01*
X119842626Y-62843260D01*
X119981844Y-62750238D01*
X120100238Y-62631844D01*
X120193260Y-62492626D01*
X120194114Y-62490562D01*
X120752148Y-63048596D01*
X120752148Y-63048595D01*
X120829825Y-62941685D01*
X120945947Y-62713784D01*
X120945948Y-62713781D01*
X121024986Y-62470523D01*
X121065000Y-62217889D01*
X121065000Y-61962110D01*
X121024986Y-61709476D01*
X120945948Y-61466218D01*
X120945947Y-61466215D01*
X120829824Y-61238313D01*
X120752148Y-61131403D01*
X120752148Y-61131402D01*
X120194114Y-61689436D01*
X120193260Y-61687374D01*
X120100238Y-61548156D01*
X119981844Y-61429762D01*
X119842626Y-61336740D01*
X119840560Y-61335884D01*
X120398596Y-60777850D01*
X120291686Y-60700175D01*
X120063784Y-60584052D01*
X120063781Y-60584051D01*
X119820523Y-60505013D01*
X119567889Y-60465000D01*
X119312111Y-60465000D01*
X119059476Y-60505013D01*
X118816218Y-60584051D01*
X118816215Y-60584052D01*
X118588310Y-60700177D01*
X118481403Y-60777849D01*
X118481402Y-60777850D01*
X119039437Y-61335885D01*
X119037374Y-61336740D01*
X118898156Y-61429762D01*
X118779762Y-61548156D01*
X118686740Y-61687374D01*
X118685885Y-61689437D01*
X118127850Y-61131402D01*
X118127849Y-61131403D01*
X118050177Y-61238310D01*
X117934052Y-61466215D01*
X117934051Y-61466218D01*
X117855013Y-61709476D01*
X117815000Y-61962110D01*
X115985000Y-61962110D01*
X115944986Y-61709476D01*
X115865948Y-61466218D01*
X115865947Y-61466215D01*
X115749824Y-61238313D01*
X115672148Y-61131403D01*
X115672148Y-61131402D01*
X115114114Y-61689436D01*
X115113260Y-61687374D01*
X115020238Y-61548156D01*
X114901844Y-61429762D01*
X114762626Y-61336740D01*
X114760560Y-61335884D01*
X115318596Y-60777850D01*
X115211686Y-60700175D01*
X114983784Y-60584052D01*
X114983781Y-60584051D01*
X114740523Y-60505013D01*
X114487889Y-60465000D01*
X114232111Y-60465000D01*
X113979476Y-60505013D01*
X113736218Y-60584051D01*
X113736215Y-60584052D01*
X113508310Y-60700177D01*
X113401403Y-60777849D01*
X113401402Y-60777850D01*
X113959437Y-61335885D01*
X113957374Y-61336740D01*
X113818156Y-61429762D01*
X113699762Y-61548156D01*
X113606740Y-61687374D01*
X113605885Y-61689437D01*
X113047850Y-61131402D01*
X113047849Y-61131403D01*
X112970177Y-61238310D01*
X112854052Y-61466215D01*
X112854051Y-61466218D01*
X112775013Y-61709476D01*
X112735000Y-61962110D01*
X89830500Y-61962110D01*
X89830500Y-59429941D01*
X115374500Y-59429941D01*
X115374500Y-59670059D01*
X115385276Y-59738097D01*
X115412063Y-59907222D01*
X115486265Y-60135593D01*
X115595276Y-60349536D01*
X115736414Y-60543796D01*
X115906204Y-60713586D01*
X116100464Y-60854724D01*
X116195882Y-60903342D01*
X116314406Y-60963734D01*
X116314408Y-60963734D01*
X116314411Y-60963736D01*
X116542778Y-61037937D01*
X116779941Y-61075500D01*
X116779942Y-61075500D01*
X117020058Y-61075500D01*
X117020059Y-61075500D01*
X117257222Y-61037937D01*
X117485589Y-60963736D01*
X117699536Y-60854724D01*
X117893796Y-60713586D01*
X118063586Y-60543796D01*
X118204724Y-60349536D01*
X118313736Y-60135589D01*
X118387937Y-59907222D01*
X118425500Y-59670059D01*
X118425500Y-59501902D01*
X126699500Y-59501902D01*
X126699500Y-59738097D01*
X126736446Y-59971368D01*
X126809433Y-60195996D01*
X126916657Y-60406433D01*
X127055483Y-60597510D01*
X127222490Y-60764517D01*
X127413567Y-60903343D01*
X127512991Y-60954002D01*
X127624003Y-61010566D01*
X127624005Y-61010566D01*
X127624008Y-61010568D01*
X127708238Y-61037936D01*
X127848631Y-61083553D01*
X128081903Y-61120500D01*
X128081908Y-61120500D01*
X128318097Y-61120500D01*
X128551368Y-61083553D01*
X128775992Y-61010568D01*
X128986433Y-60903343D01*
X129177510Y-60764517D01*
X129344517Y-60597510D01*
X129483343Y-60406433D01*
X129590568Y-60195992D01*
X129663553Y-59971368D01*
X129673713Y-59907222D01*
X129700500Y-59738097D01*
X129700500Y-59501902D01*
X129663553Y-59268631D01*
X129622715Y-59142947D01*
X129590568Y-59044008D01*
X129590566Y-59044005D01*
X129590566Y-59044003D01*
X129534002Y-58932991D01*
X129483343Y-58833567D01*
X129344517Y-58642490D01*
X129177510Y-58475483D01*
X128986433Y-58336657D01*
X128775996Y-58229433D01*
X128551368Y-58156446D01*
X128318097Y-58119500D01*
X128318092Y-58119500D01*
X128081908Y-58119500D01*
X128081903Y-58119500D01*
X127848631Y-58156446D01*
X127624003Y-58229433D01*
X127413566Y-58336657D01*
X127326625Y-58399824D01*
X127222490Y-58475483D01*
X127222488Y-58475485D01*
X127222487Y-58475485D01*
X127055485Y-58642487D01*
X127055485Y-58642488D01*
X127055483Y-58642490D01*
X126995862Y-58724550D01*
X126916657Y-58833566D01*
X126809433Y-59044003D01*
X126736446Y-59268631D01*
X126699500Y-59501902D01*
X118425500Y-59501902D01*
X118425500Y-59429941D01*
X118387937Y-59192778D01*
X118313736Y-58964411D01*
X118313734Y-58964408D01*
X118313734Y-58964406D01*
X118212257Y-58765249D01*
X118204724Y-58750464D01*
X118063586Y-58556204D01*
X117893796Y-58386414D01*
X117699536Y-58245276D01*
X117668441Y-58229432D01*
X117485593Y-58136265D01*
X117257222Y-58062063D01*
X117119437Y-58040240D01*
X117020059Y-58024500D01*
X116779941Y-58024500D01*
X116680563Y-58040240D01*
X116542777Y-58062063D01*
X116314406Y-58136265D01*
X116100463Y-58245276D01*
X115906201Y-58386416D01*
X115736416Y-58556201D01*
X115595276Y-58750463D01*
X115486265Y-58964406D01*
X115420731Y-59166100D01*
X115412063Y-59192778D01*
X115374500Y-59429941D01*
X89830500Y-59429941D01*
X89830500Y-57310173D01*
X89831855Y-57304620D01*
X89830500Y-57244390D01*
X89830500Y-57230274D01*
X89830511Y-57228600D01*
X89831736Y-57137889D01*
X89833138Y-57034081D01*
X91330656Y-57034081D01*
X91344084Y-57305605D01*
X91392754Y-57573078D01*
X91474421Y-57827533D01*
X91475830Y-57831923D01*
X91530472Y-57947651D01*
X91591902Y-58077756D01*
X91678843Y-58212888D01*
X91738994Y-58306382D01*
X91818063Y-58399824D01*
X91914599Y-58513909D01*
X91914609Y-58513919D01*
X92115724Y-58696803D01*
X92115731Y-58696808D01*
X92115733Y-58696810D01*
X92338967Y-58851964D01*
X92580502Y-58976733D01*
X92836225Y-59068992D01*
X92836229Y-59068992D01*
X92836232Y-59068994D01*
X93036511Y-59112870D01*
X93101784Y-59127170D01*
X93169893Y-59132968D01*
X93179276Y-59133767D01*
X93179285Y-59133768D01*
X93190805Y-59134749D01*
X93209324Y-59139893D01*
X93256170Y-59140318D01*
X93260594Y-59140695D01*
X93302876Y-59144303D01*
X93310471Y-59142946D01*
X93333394Y-59141021D01*
X95961825Y-59164922D01*
X95964058Y-59165521D01*
X96027733Y-59165521D01*
X96091300Y-59166100D01*
X96091301Y-59166099D01*
X96093445Y-59166119D01*
X96103933Y-59165479D01*
X96167625Y-59165481D01*
X96440619Y-59129547D01*
X96706588Y-59058286D01*
X96960979Y-58952919D01*
X97047594Y-58902914D01*
X97199429Y-58815255D01*
X97199429Y-58815254D01*
X97199441Y-58815248D01*
X97417893Y-58647629D01*
X97612596Y-58452930D01*
X97780221Y-58234483D01*
X97917897Y-57996024D01*
X98023270Y-57741635D01*
X98094537Y-57475668D01*
X98130478Y-57202675D01*
X98130478Y-56927325D01*
X98124525Y-56882110D01*
X112735000Y-56882110D01*
X112735000Y-57137889D01*
X112775013Y-57390523D01*
X112854051Y-57633781D01*
X112854052Y-57633784D01*
X112970175Y-57861686D01*
X113047850Y-57968595D01*
X113047850Y-57968596D01*
X113605884Y-57410561D01*
X113606740Y-57412626D01*
X113699762Y-57551844D01*
X113818156Y-57670238D01*
X113957374Y-57763260D01*
X113959437Y-57764114D01*
X113401402Y-58322148D01*
X113508313Y-58399824D01*
X113736215Y-58515947D01*
X113736218Y-58515948D01*
X113979476Y-58594986D01*
X114232111Y-58635000D01*
X114487889Y-58635000D01*
X114740523Y-58594986D01*
X114983781Y-58515948D01*
X114983784Y-58515947D01*
X115211685Y-58399825D01*
X115318595Y-58322148D01*
X115318596Y-58322148D01*
X114760562Y-57764114D01*
X114762626Y-57763260D01*
X114901844Y-57670238D01*
X115020238Y-57551844D01*
X115113260Y-57412626D01*
X115114114Y-57410562D01*
X115672148Y-57968596D01*
X115672148Y-57968595D01*
X115749825Y-57861685D01*
X115865947Y-57633784D01*
X115865948Y-57633781D01*
X115944986Y-57390523D01*
X115985000Y-57137889D01*
X115985000Y-56882110D01*
X117815000Y-56882110D01*
X117815000Y-57137889D01*
X117855013Y-57390523D01*
X117934051Y-57633781D01*
X117934052Y-57633784D01*
X118050175Y-57861686D01*
X118127850Y-57968595D01*
X118127850Y-57968596D01*
X118685884Y-57410561D01*
X118686740Y-57412626D01*
X118779762Y-57551844D01*
X118898156Y-57670238D01*
X119037374Y-57763260D01*
X119039437Y-57764114D01*
X118481402Y-58322148D01*
X118588313Y-58399824D01*
X118816215Y-58515947D01*
X118816218Y-58515948D01*
X119059476Y-58594986D01*
X119312111Y-58635000D01*
X119567889Y-58635000D01*
X119820523Y-58594986D01*
X120063781Y-58515948D01*
X120063784Y-58515947D01*
X120291685Y-58399825D01*
X120398595Y-58322148D01*
X120398596Y-58322148D01*
X119840562Y-57764114D01*
X119842626Y-57763260D01*
X119981844Y-57670238D01*
X120100238Y-57551844D01*
X120193260Y-57412626D01*
X120194114Y-57410562D01*
X120752148Y-57968596D01*
X120752148Y-57968595D01*
X120829825Y-57861685D01*
X120945947Y-57633784D01*
X120945948Y-57633781D01*
X121024986Y-57390523D01*
X121065000Y-57137889D01*
X121065000Y-57094458D01*
X167552650Y-57094458D01*
X167584552Y-57367414D01*
X167652164Y-57633785D01*
X167652164Y-57633786D01*
X167754297Y-57888907D01*
X167754302Y-57888916D01*
X167889173Y-58128338D01*
X167889184Y-58128355D01*
X167952813Y-58212889D01*
X168054447Y-58347914D01*
X168247220Y-58543775D01*
X168464131Y-58712512D01*
X168701395Y-58851179D01*
X168954869Y-58957357D01*
X169220128Y-59029191D01*
X169220132Y-59029191D01*
X169220138Y-59029193D01*
X169363718Y-59048291D01*
X169492543Y-59065428D01*
X169625821Y-59065518D01*
X169627199Y-59065527D01*
X173410869Y-59114666D01*
X173414058Y-59115521D01*
X173476743Y-59115521D01*
X173539349Y-59116335D01*
X173539354Y-59116333D01*
X173539395Y-59116334D01*
X173553889Y-59115479D01*
X173617625Y-59115481D01*
X173890619Y-59079547D01*
X174156588Y-59008286D01*
X174410979Y-58902919D01*
X174531107Y-58833566D01*
X174649429Y-58765255D01*
X174649429Y-58765254D01*
X174649441Y-58765248D01*
X174867893Y-58597629D01*
X175062596Y-58402930D01*
X175230221Y-58184483D01*
X175367897Y-57946024D01*
X175473270Y-57691635D01*
X175544537Y-57425668D01*
X175580478Y-57152675D01*
X175580478Y-56877325D01*
X175544537Y-56604332D01*
X175473270Y-56338365D01*
X175367897Y-56083976D01*
X175230221Y-55845517D01*
X175062596Y-55627070D01*
X175062593Y-55627066D01*
X175062591Y-55627064D01*
X174867897Y-55432374D01*
X174867893Y-55432370D01*
X174649438Y-55264750D01*
X174649429Y-55264744D01*
X174410987Y-55127085D01*
X174410983Y-55127083D01*
X174410979Y-55127081D01*
X174156588Y-55021714D01*
X174156583Y-55021712D01*
X174156579Y-55021711D01*
X173890623Y-54950453D01*
X173769288Y-54934482D01*
X173617625Y-54914519D01*
X173617620Y-54914519D01*
X173553764Y-54914519D01*
X173545791Y-54914519D01*
X173545749Y-54914508D01*
X173484101Y-54914520D01*
X173478608Y-54914521D01*
X173478604Y-54914522D01*
X173406432Y-54914522D01*
X173406214Y-54914536D01*
X169691021Y-54915312D01*
X169687145Y-54915252D01*
X169558464Y-54911254D01*
X169285043Y-54938829D01*
X169285039Y-54938829D01*
X169017634Y-55002211D01*
X169017617Y-55002216D01*
X168760931Y-55100288D01*
X168760925Y-55100290D01*
X168760919Y-55100293D01*
X168760913Y-55100296D01*
X168760907Y-55100299D01*
X168519376Y-55231360D01*
X168519371Y-55231363D01*
X168297222Y-55393126D01*
X168098319Y-55582786D01*
X167926177Y-55796984D01*
X167783768Y-56032020D01*
X167783765Y-56032025D01*
X167673585Y-56283784D01*
X167597558Y-56547867D01*
X167557009Y-56819679D01*
X167552650Y-57094458D01*
X121065000Y-57094458D01*
X121065000Y-56882110D01*
X121024986Y-56629476D01*
X120945948Y-56386218D01*
X120945947Y-56386215D01*
X120829824Y-56158313D01*
X120752148Y-56051403D01*
X120752148Y-56051402D01*
X120194114Y-56609436D01*
X120193260Y-56607374D01*
X120100238Y-56468156D01*
X119981844Y-56349762D01*
X119842626Y-56256740D01*
X119840560Y-56255884D01*
X120398596Y-55697850D01*
X120291686Y-55620175D01*
X120063784Y-55504052D01*
X120063781Y-55504051D01*
X119820523Y-55425013D01*
X119567889Y-55385000D01*
X119312111Y-55385000D01*
X119059476Y-55425013D01*
X118816218Y-55504051D01*
X118816215Y-55504052D01*
X118588310Y-55620177D01*
X118481403Y-55697849D01*
X118481402Y-55697850D01*
X119039437Y-56255885D01*
X119037374Y-56256740D01*
X118898156Y-56349762D01*
X118779762Y-56468156D01*
X118686740Y-56607374D01*
X118685885Y-56609437D01*
X118127850Y-56051402D01*
X118127849Y-56051403D01*
X118050177Y-56158310D01*
X117934052Y-56386215D01*
X117934051Y-56386218D01*
X117855013Y-56629476D01*
X117815000Y-56882110D01*
X115985000Y-56882110D01*
X115944986Y-56629476D01*
X115865948Y-56386218D01*
X115865947Y-56386215D01*
X115749824Y-56158313D01*
X115672148Y-56051403D01*
X115672148Y-56051402D01*
X115114114Y-56609436D01*
X115113260Y-56607374D01*
X115020238Y-56468156D01*
X114901844Y-56349762D01*
X114762626Y-56256740D01*
X114760560Y-56255884D01*
X115318596Y-55697850D01*
X115211686Y-55620175D01*
X114983784Y-55504052D01*
X114983781Y-55504051D01*
X114740523Y-55425013D01*
X114487889Y-55385000D01*
X114232111Y-55385000D01*
X113979476Y-55425013D01*
X113736218Y-55504051D01*
X113736215Y-55504052D01*
X113508310Y-55620177D01*
X113401403Y-55697849D01*
X113401402Y-55697850D01*
X113959437Y-56255885D01*
X113957374Y-56256740D01*
X113818156Y-56349762D01*
X113699762Y-56468156D01*
X113606740Y-56607374D01*
X113605885Y-56609437D01*
X113047850Y-56051402D01*
X113047849Y-56051403D01*
X112970177Y-56158310D01*
X112854052Y-56386215D01*
X112854051Y-56386218D01*
X112775013Y-56629476D01*
X112735000Y-56882110D01*
X98124525Y-56882110D01*
X98102407Y-56714109D01*
X98094537Y-56654332D01*
X98023270Y-56388365D01*
X97917897Y-56133976D01*
X97780221Y-55895517D01*
X97612596Y-55677070D01*
X97612593Y-55677066D01*
X97612591Y-55677064D01*
X97417897Y-55482374D01*
X97417893Y-55482370D01*
X97199438Y-55314750D01*
X97199429Y-55314744D01*
X96960987Y-55177085D01*
X96960983Y-55177083D01*
X96960979Y-55177081D01*
X96706588Y-55071714D01*
X96706583Y-55071712D01*
X96706579Y-55071711D01*
X96440623Y-55000453D01*
X96319288Y-54984482D01*
X96167625Y-54964519D01*
X96167620Y-54964519D01*
X96103561Y-54964519D01*
X96093414Y-54964519D01*
X96091072Y-54963916D01*
X96027606Y-54964521D01*
X96027052Y-54964522D01*
X96027051Y-54964521D01*
X96027049Y-54964522D01*
X95961873Y-54964522D01*
X95951564Y-54965247D01*
X93393290Y-54989674D01*
X93393291Y-54989675D01*
X93379722Y-54989804D01*
X93368841Y-54987504D01*
X93313985Y-54990432D01*
X93311252Y-54990459D01*
X93311251Y-54990458D01*
X93311251Y-54990459D01*
X93259071Y-54990957D01*
X93251024Y-54992095D01*
X93251010Y-54992000D01*
X93234851Y-54994646D01*
X93167304Y-54998243D01*
X93167294Y-54998244D01*
X92900044Y-55047963D01*
X92900040Y-55047964D01*
X92641509Y-55132065D01*
X92641505Y-55132066D01*
X92396148Y-55249102D01*
X92396139Y-55249107D01*
X92168103Y-55397094D01*
X92168087Y-55397105D01*
X91961262Y-55573522D01*
X91779160Y-55775374D01*
X91624885Y-55999223D01*
X91501072Y-56241244D01*
X91501068Y-56241255D01*
X91409827Y-56497320D01*
X91409824Y-56497329D01*
X91352693Y-56763118D01*
X91330656Y-57034081D01*
X89833138Y-57034081D01*
X89836136Y-56812086D01*
X89836575Y-56803215D01*
X89872632Y-56382526D01*
X89873714Y-56373671D01*
X89887685Y-56285693D01*
X89939932Y-55956693D01*
X89941647Y-55947940D01*
X89949034Y-55916316D01*
X90037690Y-55536789D01*
X90040021Y-55528213D01*
X90165407Y-55124983D01*
X90168342Y-55116622D01*
X90322395Y-54723485D01*
X90325934Y-54715330D01*
X90507872Y-54334281D01*
X90511974Y-54326430D01*
X90720852Y-53959450D01*
X90725525Y-53951887D01*
X90960245Y-53600903D01*
X90965445Y-53593702D01*
X91224812Y-53260498D01*
X91230519Y-53253688D01*
X91513190Y-52939995D01*
X91519343Y-52933643D01*
X91658526Y-52799924D01*
X91720507Y-52767675D01*
X91744433Y-52765345D01*
X174143674Y-52765345D01*
X174210713Y-52785030D01*
G37*
%TD.AperFunction*%
%TD*%
M02*
