%TF.GenerationSoftware,KiCad,Pcbnew,9.0.6*%
%TF.CreationDate,2026-07-15T22:48:09-07:00*%
%TF.ProjectId,Ebyte_PCB,45627974-655f-4504-9342-2e6b69636164,rev?*%
%TF.SameCoordinates,Original*%
%TF.FileFunction,Paste,Top*%
%TF.FilePolarity,Positive*%
%FSLAX46Y46*%
G04 Gerber Fmt 4.6, Leading zero omitted, Abs format (unit mm)*
G04 Created by KiCad (PCBNEW 9.0.6) date 2026-07-15 22:48:09*
%MOMM*%
%LPD*%
G01*
G04 APERTURE LIST*
G04 Aperture macros list*
%AMRoundRect*
0 Rectangle with rounded corners*
0 $1 Rounding radius*
0 $2 $3 $4 $5 $6 $7 $8 $9 X,Y pos of 4 corners*
0 Add a 4 corners polygon primitive as box body*
4,1,4,$2,$3,$4,$5,$6,$7,$8,$9,$2,$3,0*
0 Add four circle primitives for the rounded corners*
1,1,$1+$1,$2,$3*
1,1,$1+$1,$4,$5*
1,1,$1+$1,$6,$7*
1,1,$1+$1,$8,$9*
0 Add four rect primitives between the rounded corners*
20,1,$1+$1,$2,$3,$4,$5,0*
20,1,$1+$1,$4,$5,$6,$7,0*
20,1,$1+$1,$6,$7,$8,$9,0*
20,1,$1+$1,$8,$9,$2,$3,0*%
G04 Aperture macros list end*
%ADD10R,0.800000X0.900000*%
%ADD11R,2.514600X2.641600*%
%ADD12R,1.728000X1.485000*%
%ADD13RoundRect,0.250000X-0.785000X-1.045000X0.785000X-1.045000X0.785000X1.045000X-0.785000X1.045000X0*%
%ADD14R,3.500000X2.000000*%
%ADD15R,2.000000X3.500000*%
%ADD16R,0.900000X0.800000*%
%ADD17R,2.700000X1.635000*%
%ADD18R,0.864000X0.806000*%
%ADD19R,0.806000X0.864000*%
%ADD20R,0.585000X0.280000*%
%ADD21R,0.280000X0.585000*%
%ADD22R,1.700000X4.750000*%
%ADD23R,1.895000X2.500000*%
%ADD24R,0.600000X1.100000*%
%ADD25C,0.610000*%
%ADD26O,1.941000X0.602000*%
%ADD27R,2.410000X3.098000*%
%ADD28R,1.635000X2.700000*%
G04 APERTURE END LIST*
D10*
%TO.C,C9*%
X61850000Y-35750000D03*
X63250000Y-35750000D03*
%TD*%
D11*
%TO.C,C12*%
X91230000Y-54320500D03*
X91230000Y-48859500D03*
%TD*%
D12*
%TO.C,C10*%
X92650000Y-42410000D03*
X92650000Y-45590000D03*
%TD*%
%TO.C,C5*%
X78310000Y-44080000D03*
X78310000Y-47260000D03*
%TD*%
D10*
%TO.C,C15*%
X44100000Y-65100000D03*
X42700000Y-65100000D03*
%TD*%
D13*
%TO.C,C14*%
X79990000Y-51590000D03*
X86230000Y-51590000D03*
%TD*%
D14*
%TO.C,U2*%
X75180000Y-93490000D03*
X75180000Y-90950000D03*
X75180000Y-88410000D03*
X75180000Y-80840000D03*
X75180000Y-78300000D03*
X75180000Y-75760000D03*
X75180000Y-73220000D03*
X75180000Y-70680000D03*
X75180000Y-68140000D03*
X75180000Y-65600000D03*
X75180000Y-63060000D03*
D15*
X69530000Y-60450000D03*
X66990000Y-60450000D03*
X64450000Y-60450000D03*
X61910000Y-60450000D03*
X59370000Y-60450000D03*
X56830000Y-60450000D03*
D14*
X51180000Y-63060000D03*
X51180000Y-65600000D03*
X51180000Y-68140000D03*
X51180000Y-70680000D03*
X51180000Y-73220000D03*
X51180000Y-75760000D03*
X51180000Y-78300000D03*
X51180000Y-80840000D03*
X51180000Y-88410000D03*
X51180000Y-90950000D03*
X51180000Y-93490000D03*
%TD*%
D16*
%TO.C,C2*%
X80874000Y-70142000D03*
X80874000Y-68742000D03*
%TD*%
D17*
%TO.C,C4*%
X58350000Y-44140000D03*
X58350000Y-41100000D03*
%TD*%
D18*
%TO.C,R4*%
X95150000Y-44350000D03*
X95150000Y-45850000D03*
%TD*%
D19*
%TO.C,R2*%
X82450000Y-76450000D03*
X80950000Y-76450000D03*
%TD*%
D18*
%TO.C,R8*%
X80850000Y-74200000D03*
X80850000Y-72700000D03*
%TD*%
D20*
%TO.C,U5*%
X61030000Y-38280000D03*
X61030000Y-38780000D03*
X61030000Y-39280000D03*
X61030000Y-39780000D03*
X61030000Y-40280000D03*
X61030000Y-40780000D03*
X61030000Y-41280000D03*
X61030000Y-41780000D03*
X61030000Y-42280000D03*
X61030000Y-42780000D03*
D21*
X61700000Y-43450000D03*
X62200000Y-43450000D03*
X62700000Y-43450000D03*
X63200000Y-43450000D03*
D20*
X63870000Y-42780000D03*
X63870000Y-42280000D03*
X63870000Y-41780000D03*
X63870000Y-41280000D03*
X63870000Y-40780000D03*
X63870000Y-40280000D03*
X63870000Y-39780000D03*
X63870000Y-39280000D03*
X63870000Y-38780000D03*
X63870000Y-38280000D03*
D21*
X63200000Y-37610000D03*
X62700000Y-37610000D03*
X62200000Y-37610000D03*
X61700000Y-37610000D03*
D22*
X62450000Y-40530000D03*
%TD*%
D18*
%TO.C,R10*%
X55500000Y-44850000D03*
X55500000Y-46350000D03*
%TD*%
%TO.C,R7*%
X71300000Y-36950000D03*
X71300000Y-35450000D03*
%TD*%
D19*
%TO.C,R9*%
X82450000Y-78500000D03*
X80950000Y-78500000D03*
%TD*%
D10*
%TO.C,C3*%
X57900000Y-36348800D03*
X59300000Y-36348800D03*
%TD*%
D18*
%TO.C,R1*%
X47200000Y-50200000D03*
X47200000Y-48700000D03*
%TD*%
D16*
%TO.C,C8*%
X69200000Y-35500000D03*
X69200000Y-36900000D03*
%TD*%
D23*
%TO.C,L1*%
X66350000Y-41050000D03*
X70450000Y-41050000D03*
%TD*%
D10*
%TO.C,C6*%
X66900000Y-36850000D03*
X65500000Y-36850000D03*
%TD*%
D18*
%TO.C,R6*%
X73350000Y-37000000D03*
X73350000Y-35500000D03*
%TD*%
D24*
%TO.C,U6*%
X43850000Y-69650000D03*
X44800000Y-69650000D03*
X45750000Y-69650000D03*
X45750000Y-67050000D03*
X43850000Y-67050000D03*
%TD*%
D25*
%TO.C,U4*%
X84480000Y-45320000D03*
X83480000Y-45320000D03*
X84480000Y-46320000D03*
X83480000Y-46320000D03*
D26*
X81260000Y-43920000D03*
X81260000Y-45190000D03*
X81260000Y-46450000D03*
X81260000Y-47720000D03*
X86700000Y-47720000D03*
X86700000Y-46450000D03*
X86700000Y-45190000D03*
X86700000Y-43920000D03*
D27*
X83980000Y-45820000D03*
%TD*%
D28*
%TO.C,C11*%
X65980000Y-46050000D03*
X69020000Y-46050000D03*
%TD*%
D19*
%TO.C,R3*%
X57850000Y-38600000D03*
X59350000Y-38600000D03*
%TD*%
D12*
%TO.C,C1*%
X83930000Y-72172000D03*
X83930000Y-68992000D03*
%TD*%
%TO.C,C7*%
X89650000Y-42410000D03*
X89650000Y-45590000D03*
%TD*%
D18*
%TO.C,R5*%
X95150000Y-40700000D03*
X95150000Y-42200000D03*
%TD*%
D28*
%TO.C,C13*%
X65830000Y-50200000D03*
X68870000Y-50200000D03*
%TD*%
M02*
