%TF.GenerationSoftware,KiCad,Pcbnew,9.0.6*%
%TF.CreationDate,2026-07-15T22:48:09-07:00*%
%TF.ProjectId,Ebyte_PCB,45627974-655f-4504-9342-2e6b69636164,rev?*%
%TF.SameCoordinates,Original*%
%TF.FileFunction,Copper,L3,Inr*%
%TF.FilePolarity,Positive*%
%FSLAX46Y46*%
G04 Gerber Fmt 4.6, Leading zero omitted, Abs format (unit mm)*
G04 Created by KiCad (PCBNEW 9.0.6) date 2026-07-15 22:48:09*
%MOMM*%
%LPD*%
G01*
G04 APERTURE LIST*
G04 Aperture macros list*
%AMRoundRect*
0 Rectangle with rounded corners*
0 $1 Rounding radius*
0 $2 $3 $4 $5 $6 $7 $8 $9 X,Y pos of 4 corners*
0 Add a 4 corners polygon primitive as box body*
4,1,4,$2,$3,$4,$5,$6,$7,$8,$9,$2,$3,0*
0 Add four circle primitives for the rounded corners*
1,1,$1+$1,$2,$3*
1,1,$1+$1,$4,$5*
1,1,$1+$1,$6,$7*
1,1,$1+$1,$8,$9*
0 Add four rect primitives between the rounded corners*
20,1,$1+$1,$2,$3,$4,$5,0*
20,1,$1+$1,$4,$5,$6,$7,0*
20,1,$1+$1,$6,$7,$8,$9,0*
20,1,$1+$1,$8,$9,$2,$3,0*%
G04 Aperture macros list end*
%TA.AperFunction,ComponentPad*%
%ADD10R,1.200000X1.200000*%
%TD*%
%TA.AperFunction,ComponentPad*%
%ADD11C,1.200000*%
%TD*%
%TA.AperFunction,ComponentPad*%
%ADD12C,0.610000*%
%TD*%
%TA.AperFunction,ComponentPad*%
%ADD13RoundRect,0.250000X0.575000X-0.350000X0.575000X0.350000X-0.575000X0.350000X-0.575000X-0.350000X0*%
%TD*%
%TA.AperFunction,ComponentPad*%
%ADD14O,1.650000X1.200000*%
%TD*%
%TA.AperFunction,ViaPad*%
%ADD15C,0.600000*%
%TD*%
%TA.AperFunction,ViaPad*%
%ADD16C,0.500000*%
%TD*%
%TA.AperFunction,ViaPad*%
%ADD17C,0.700000*%
%TD*%
G04 APERTURE END LIST*
D10*
%TO.N,ANT*%
%TO.C,U3*%
X43650000Y-90950000D03*
D11*
%TO.N,GND*%
X44920000Y-89680000D03*
X42380000Y-89680000D03*
X42380000Y-92220000D03*
X44920000Y-92220000D03*
%TD*%
D12*
%TO.N,GND*%
%TO.C,U4*%
X84480000Y-45320000D03*
X83480000Y-45320000D03*
X84480000Y-46320000D03*
X83480000Y-46320000D03*
%TD*%
D13*
%TO.N,SPI1_CS1*%
%TO.C,U1*%
X50450000Y-52700000D03*
D14*
%TO.N,GPIO1_25*%
X52450000Y-52700000D03*
%TO.N,SPI1_SDO*%
X50450000Y-50700000D03*
%TO.N,RXEN*%
X52450000Y-50700000D03*
%TO.N,Net-(R1-Pad2)*%
X50450000Y-48700000D03*
%TO.N,TXEN*%
X52450000Y-48700000D03*
%TO.N,SPI1_SCK*%
X50450000Y-46700000D03*
%TO.N,RST*%
X52450000Y-46700000D03*
%TO.N,X_PGOOD*%
X50450000Y-44700000D03*
%TO.N,3v3*%
X52450000Y-44700000D03*
%TO.N,GND*%
X50450000Y-42700000D03*
X52450000Y-42700000D03*
X50450000Y-40700000D03*
%TO.N,VIN*%
X52450000Y-40700000D03*
%TO.N,GND*%
X50450000Y-38700000D03*
%TO.N,VIN*%
X52450000Y-38700000D03*
%TD*%
D15*
%TO.N,SPI1_CS1*%
X46500000Y-57350000D03*
%TO.N,GND*%
X48750000Y-90200000D03*
X47100000Y-90200000D03*
X92250000Y-42050000D03*
X57600000Y-42750000D03*
X61950000Y-40450000D03*
X62950000Y-42500000D03*
X51180000Y-88410000D03*
X59000000Y-44450000D03*
D16*
X61030000Y-42780000D03*
D15*
X61350000Y-50650000D03*
X83930000Y-72172000D03*
X61950000Y-41150000D03*
X42700000Y-65100000D03*
X59000000Y-43750000D03*
X90000000Y-42050000D03*
X90000000Y-42700000D03*
X75180000Y-63060000D03*
X93050000Y-42700000D03*
X43650000Y-89750000D03*
X75180000Y-78300000D03*
X58250000Y-50600000D03*
X51180000Y-63060000D03*
X69530000Y-60450000D03*
X63000000Y-50650000D03*
X57850000Y-38600000D03*
X91900000Y-55000000D03*
X62950000Y-41150000D03*
X63000000Y-46050000D03*
X59900000Y-47500000D03*
X45750000Y-69650000D03*
X80850000Y-74200000D03*
X59200000Y-42700000D03*
X80450000Y-50950000D03*
X59900000Y-50600000D03*
X75180000Y-93490000D03*
X75180000Y-90950000D03*
X43600000Y-92050000D03*
X93050000Y-42050000D03*
X46250000Y-90200000D03*
X61400000Y-47600000D03*
X57700000Y-43800000D03*
X75180000Y-88410000D03*
X80450000Y-52350000D03*
X66150000Y-50700000D03*
X75180000Y-80840000D03*
X73350000Y-37000000D03*
X77900000Y-44350000D03*
X51180000Y-93490000D03*
X79500000Y-50950000D03*
X42450000Y-90950000D03*
X78700000Y-44350000D03*
X92250000Y-42700000D03*
X61950000Y-41800000D03*
X90600000Y-53750000D03*
X89200000Y-42050000D03*
X78700000Y-43700000D03*
X66350000Y-46700000D03*
X66350000Y-45400000D03*
D16*
X62200000Y-43450000D03*
D15*
X57700000Y-44450000D03*
X65550000Y-46650000D03*
X61850000Y-35750000D03*
X62950000Y-41800000D03*
D16*
X63200000Y-43450000D03*
D15*
X65500000Y-50700000D03*
X61950000Y-39150000D03*
X61400000Y-49100000D03*
X46250000Y-91600000D03*
X62950000Y-38500000D03*
D16*
X62700000Y-43450000D03*
D15*
X63000000Y-49150000D03*
X61950000Y-38500000D03*
X79450000Y-52350000D03*
X62950000Y-39800000D03*
X59900000Y-49100000D03*
X56830000Y-60450000D03*
X48750000Y-91600000D03*
X90600000Y-55000000D03*
X89200000Y-42700000D03*
X58300000Y-47550000D03*
X61950000Y-42500000D03*
X47850000Y-91600000D03*
D16*
X61030000Y-42280000D03*
D15*
X62950000Y-39150000D03*
X62950000Y-40450000D03*
X65500000Y-49600000D03*
X59900000Y-46000000D03*
X95150000Y-40700000D03*
X91800000Y-53800000D03*
X66200000Y-49600000D03*
X77900000Y-43700000D03*
X58300000Y-45950000D03*
X81260000Y-43920000D03*
X58300000Y-49050000D03*
X80874000Y-70142000D03*
D16*
X61700000Y-43450000D03*
D15*
X63000000Y-47550000D03*
X61950000Y-39800000D03*
X47900000Y-90200000D03*
X47100000Y-91600000D03*
X65600000Y-45400000D03*
X61400000Y-46000000D03*
X62000000Y-36600000D03*
X57900000Y-36348800D03*
%TO.N,SPI1_SDO*%
X47450000Y-73550000D03*
%TO.N,SPI1_CS1*%
X46050000Y-75050000D03*
D17*
%TO.N,TXEN*%
X55500000Y-51750000D03*
D15*
X75800000Y-72800000D03*
%TO.N,SPI1_SDI*%
X45750000Y-54900000D03*
%TO.N,RXEN*%
X82450000Y-78500000D03*
D17*
X55525000Y-53775000D03*
D15*
%TO.N,RST*%
X54550000Y-55650000D03*
D17*
%TO.N,SPI1_SCK*%
X41550000Y-58950000D03*
D15*
%TO.N,X_PGOOD*%
X43850000Y-69700000D03*
D17*
X43850000Y-48950000D03*
D15*
%TO.N,Buck_Out*%
X76400000Y-48250000D03*
X76400000Y-47250000D03*
X70600000Y-47150000D03*
X71400000Y-38750000D03*
X70650000Y-50700000D03*
X70600000Y-49150000D03*
X70600000Y-45800000D03*
X76400000Y-46300000D03*
D16*
%TO.N,Net-(U5-BST)*%
X64602498Y-40489027D03*
D15*
X65500000Y-36850000D03*
%TO.N,Net-(C6-Pad1)*%
X66900000Y-36850000D03*
X66350000Y-41050000D03*
%TO.N,LDO_out*%
X77450000Y-65000000D03*
X83800000Y-54650000D03*
X94700000Y-48450000D03*
X77350000Y-68500000D03*
X77400000Y-66050000D03*
X83900000Y-67200000D03*
X87950000Y-50050000D03*
X94650000Y-47350000D03*
X88250000Y-47100000D03*
X77350000Y-67500000D03*
X87950000Y-51250000D03*
X86300000Y-54650000D03*
X87950000Y-49000000D03*
X80800000Y-67200000D03*
%TO.N,Net-(U5-INTVCC)*%
X63301200Y-35800000D03*
D16*
X64850000Y-39750000D03*
D15*
%TO.N,PG*%
X82450000Y-76400000D03*
D17*
X55550000Y-48300000D03*
D15*
X55550000Y-46350000D03*
D16*
X64650000Y-38500000D03*
D15*
%TO.N,3v3*%
X44800000Y-50800000D03*
%TD*%
%TA.AperFunction,Conductor*%
%TO.N,GND*%
G36*
X52053963Y-42535956D02*
G01*
X52025000Y-42644048D01*
X52025000Y-42755952D01*
X52053963Y-42864044D01*
X52103590Y-42950000D01*
X50796410Y-42950000D01*
X50846037Y-42864044D01*
X50875000Y-42755952D01*
X50875000Y-42644048D01*
X50846037Y-42535956D01*
X50796410Y-42450000D01*
X52103590Y-42450000D01*
X52053963Y-42535956D01*
G37*
%TD.AperFunction*%
%TA.AperFunction,Conductor*%
G36*
X50700000Y-42353590D02*
G01*
X50614044Y-42303963D01*
X50505952Y-42275000D01*
X50394048Y-42275000D01*
X50285956Y-42303963D01*
X50200000Y-42353590D01*
X50200000Y-41046409D01*
X50285956Y-41096037D01*
X50394048Y-41125000D01*
X50505952Y-41125000D01*
X50614044Y-41096037D01*
X50700000Y-41046409D01*
X50700000Y-42353590D01*
G37*
%TD.AperFunction*%
%TA.AperFunction,Conductor*%
G36*
X50700000Y-40353590D02*
G01*
X50614044Y-40303963D01*
X50505952Y-40275000D01*
X50394048Y-40275000D01*
X50285956Y-40303963D01*
X50200000Y-40353590D01*
X50200000Y-39046409D01*
X50285956Y-39096037D01*
X50394048Y-39125000D01*
X50505952Y-39125000D01*
X50614044Y-39096037D01*
X50700000Y-39046409D01*
X50700000Y-40353590D01*
G37*
%TD.AperFunction*%
%TA.AperFunction,Conductor*%
G36*
X92502562Y-30550605D02*
G01*
X92949036Y-30569072D01*
X92959209Y-30569915D01*
X93400114Y-30624873D01*
X93410194Y-30626555D01*
X93845042Y-30717733D01*
X93854950Y-30720242D01*
X94280786Y-30847019D01*
X94290454Y-30850338D01*
X94631430Y-30983388D01*
X94704339Y-31011838D01*
X94713724Y-31015954D01*
X95112869Y-31211083D01*
X95121877Y-31215958D01*
X95503544Y-31443383D01*
X95512123Y-31448989D01*
X95873693Y-31707144D01*
X95881775Y-31713435D01*
X96220796Y-32000571D01*
X96228336Y-32007512D01*
X96542487Y-32321663D01*
X96549428Y-32329203D01*
X96836564Y-32668224D01*
X96842859Y-32676312D01*
X97101010Y-33037876D01*
X97106616Y-33046455D01*
X97334041Y-33428122D01*
X97338919Y-33437136D01*
X97534045Y-33836275D01*
X97538161Y-33845660D01*
X97699656Y-34259533D01*
X97702984Y-34269226D01*
X97829753Y-34695036D01*
X97832269Y-34704971D01*
X97923441Y-35139791D01*
X97925128Y-35149900D01*
X97980082Y-35590769D01*
X97980928Y-35600983D01*
X97999394Y-36047437D01*
X97999500Y-36052561D01*
X97999500Y-98997438D01*
X97999394Y-99002562D01*
X97980928Y-99449016D01*
X97980082Y-99459230D01*
X97925128Y-99900099D01*
X97923441Y-99910208D01*
X97832269Y-100345028D01*
X97829753Y-100354963D01*
X97702984Y-100780773D01*
X97699656Y-100790466D01*
X97538161Y-101204339D01*
X97534045Y-101213724D01*
X97338919Y-101612863D01*
X97334041Y-101621877D01*
X97106616Y-102003544D01*
X97101010Y-102012123D01*
X96842859Y-102373687D01*
X96836564Y-102381775D01*
X96549428Y-102720796D01*
X96542487Y-102728336D01*
X96228336Y-103042487D01*
X96220796Y-103049428D01*
X95881775Y-103336564D01*
X95873687Y-103342859D01*
X95512123Y-103601010D01*
X95503544Y-103606616D01*
X95121877Y-103834041D01*
X95112863Y-103838919D01*
X94713724Y-104034045D01*
X94704339Y-104038161D01*
X94290466Y-104199656D01*
X94280773Y-104202984D01*
X93854963Y-104329753D01*
X93845028Y-104332269D01*
X93410208Y-104423441D01*
X93400099Y-104425128D01*
X92959230Y-104480082D01*
X92949016Y-104480928D01*
X92502563Y-104499394D01*
X92497439Y-104499500D01*
X44602561Y-104499500D01*
X44597437Y-104499394D01*
X44150983Y-104480928D01*
X44140769Y-104480082D01*
X43699900Y-104425128D01*
X43689791Y-104423441D01*
X43254971Y-104332269D01*
X43245036Y-104329753D01*
X42819226Y-104202984D01*
X42809533Y-104199656D01*
X42395660Y-104038161D01*
X42386275Y-104034045D01*
X41987136Y-103838919D01*
X41978122Y-103834041D01*
X41596455Y-103606616D01*
X41587876Y-103601010D01*
X41226312Y-103342859D01*
X41218224Y-103336564D01*
X40879203Y-103049428D01*
X40871663Y-103042487D01*
X40557512Y-102728336D01*
X40550571Y-102720796D01*
X40263435Y-102381775D01*
X40257140Y-102373687D01*
X39998989Y-102012123D01*
X39993383Y-102003544D01*
X39765958Y-101621877D01*
X39761080Y-101612863D01*
X39565954Y-101213724D01*
X39561838Y-101204339D01*
X39533388Y-101131430D01*
X39400338Y-100790454D01*
X39397019Y-100780786D01*
X39270242Y-100354950D01*
X39267733Y-100345042D01*
X39176555Y-99910194D01*
X39174873Y-99900114D01*
X39119915Y-99459209D01*
X39119072Y-99449036D01*
X39100606Y-99002562D01*
X39100500Y-98997438D01*
X39100500Y-98735258D01*
X41449500Y-98735258D01*
X41449500Y-98964741D01*
X41454480Y-99002562D01*
X41479452Y-99192238D01*
X41488469Y-99225890D01*
X41538842Y-99413887D01*
X41626650Y-99625876D01*
X41626657Y-99625890D01*
X41741392Y-99824617D01*
X41881081Y-100006661D01*
X41881089Y-100006670D01*
X42043330Y-100168911D01*
X42043338Y-100168918D01*
X42043339Y-100168919D01*
X42045462Y-100170548D01*
X42225382Y-100308607D01*
X42225385Y-100308608D01*
X42225388Y-100308611D01*
X42424112Y-100423344D01*
X42424117Y-100423346D01*
X42424123Y-100423349D01*
X42515480Y-100461190D01*
X42636113Y-100511158D01*
X42857762Y-100570548D01*
X43085266Y-100600500D01*
X43085273Y-100600500D01*
X43314727Y-100600500D01*
X43314734Y-100600500D01*
X43542238Y-100570548D01*
X43763887Y-100511158D01*
X43975888Y-100423344D01*
X44174612Y-100308611D01*
X44356661Y-100168919D01*
X44356665Y-100168914D01*
X44356670Y-100168911D01*
X44518911Y-100006670D01*
X44518914Y-100006665D01*
X44518919Y-100006661D01*
X44658611Y-99824612D01*
X44773344Y-99625888D01*
X44861158Y-99413887D01*
X44920548Y-99192238D01*
X44950500Y-98964734D01*
X44950500Y-98735266D01*
X44920548Y-98507762D01*
X44874326Y-98335258D01*
X90399500Y-98335258D01*
X90399500Y-98564741D01*
X90421950Y-98735258D01*
X90429452Y-98792238D01*
X90429453Y-98792240D01*
X90488842Y-99013887D01*
X90576650Y-99225876D01*
X90576657Y-99225890D01*
X90691392Y-99424617D01*
X90831081Y-99606661D01*
X90831089Y-99606670D01*
X90993330Y-99768911D01*
X90993338Y-99768918D01*
X91175382Y-99908607D01*
X91175385Y-99908608D01*
X91175388Y-99908611D01*
X91374112Y-100023344D01*
X91374117Y-100023346D01*
X91374123Y-100023349D01*
X91465480Y-100061190D01*
X91586113Y-100111158D01*
X91807762Y-100170548D01*
X92035266Y-100200500D01*
X92035273Y-100200500D01*
X92264727Y-100200500D01*
X92264734Y-100200500D01*
X92492238Y-100170548D01*
X92713887Y-100111158D01*
X92925888Y-100023344D01*
X93124612Y-99908611D01*
X93306661Y-99768919D01*
X93306665Y-99768914D01*
X93306670Y-99768911D01*
X93468911Y-99606670D01*
X93468914Y-99606665D01*
X93468919Y-99606661D01*
X93608611Y-99424612D01*
X93723344Y-99225888D01*
X93811158Y-99013887D01*
X93870548Y-98792238D01*
X93900500Y-98564734D01*
X93900500Y-98335266D01*
X93870548Y-98107762D01*
X93811158Y-97886113D01*
X93731308Y-97693338D01*
X93723349Y-97674123D01*
X93723346Y-97674117D01*
X93723344Y-97674112D01*
X93608611Y-97475388D01*
X93608608Y-97475385D01*
X93608607Y-97475382D01*
X93468918Y-97293338D01*
X93468911Y-97293330D01*
X93306670Y-97131089D01*
X93306661Y-97131081D01*
X93124617Y-96991392D01*
X92925890Y-96876657D01*
X92925876Y-96876650D01*
X92713887Y-96788842D01*
X92492238Y-96729452D01*
X92454215Y-96724446D01*
X92264741Y-96699500D01*
X92264734Y-96699500D01*
X92035266Y-96699500D01*
X92035258Y-96699500D01*
X91818715Y-96728009D01*
X91807762Y-96729452D01*
X91714076Y-96754554D01*
X91586112Y-96788842D01*
X91374123Y-96876650D01*
X91374109Y-96876657D01*
X91175382Y-96991392D01*
X90993338Y-97131081D01*
X90831081Y-97293338D01*
X90691392Y-97475382D01*
X90576657Y-97674109D01*
X90576650Y-97674123D01*
X90493284Y-97875388D01*
X90488842Y-97886113D01*
X90438466Y-98074123D01*
X90429453Y-98107759D01*
X90429451Y-98107770D01*
X90399500Y-98335258D01*
X44874326Y-98335258D01*
X44861158Y-98286113D01*
X44787286Y-98107770D01*
X44773349Y-98074123D01*
X44773346Y-98074117D01*
X44773344Y-98074112D01*
X44658611Y-97875388D01*
X44658608Y-97875385D01*
X44658607Y-97875382D01*
X44518918Y-97693338D01*
X44518911Y-97693330D01*
X44356670Y-97531089D01*
X44356661Y-97531081D01*
X44174617Y-97391392D01*
X43975890Y-97276657D01*
X43975876Y-97276650D01*
X43763887Y-97188842D01*
X43542238Y-97129452D01*
X43504215Y-97124446D01*
X43314741Y-97099500D01*
X43314734Y-97099500D01*
X43085266Y-97099500D01*
X43085258Y-97099500D01*
X42868715Y-97128009D01*
X42857762Y-97129452D01*
X42851653Y-97131089D01*
X42636112Y-97188842D01*
X42424123Y-97276650D01*
X42424109Y-97276657D01*
X42225382Y-97391392D01*
X42043338Y-97531081D01*
X41881081Y-97693338D01*
X41741392Y-97875382D01*
X41626657Y-98074109D01*
X41626650Y-98074123D01*
X41538842Y-98286112D01*
X41479453Y-98507759D01*
X41479451Y-98507770D01*
X41449500Y-98735258D01*
X39100500Y-98735258D01*
X39100500Y-89593428D01*
X41280000Y-89593428D01*
X41280000Y-89766571D01*
X41307085Y-89937584D01*
X41360592Y-90102259D01*
X41439196Y-90256525D01*
X41443709Y-90262736D01*
X41443709Y-90262737D01*
X41937861Y-89768584D01*
X41960667Y-89853694D01*
X42019910Y-89956306D01*
X42103694Y-90040090D01*
X42206306Y-90099333D01*
X42291414Y-90122137D01*
X41797261Y-90616289D01*
X41797262Y-90616290D01*
X41803471Y-90620801D01*
X41957742Y-90699408D01*
X42122415Y-90752914D01*
X42293429Y-90780000D01*
X42425500Y-90780000D01*
X42434185Y-90782550D01*
X42443147Y-90781262D01*
X42467187Y-90792240D01*
X42492539Y-90799685D01*
X42498466Y-90806525D01*
X42506703Y-90810287D01*
X42520992Y-90832521D01*
X42538294Y-90852489D01*
X42540581Y-90863003D01*
X42544477Y-90869065D01*
X42549500Y-90904000D01*
X42549500Y-90996000D01*
X42529815Y-91063039D01*
X42477011Y-91108794D01*
X42425500Y-91120000D01*
X42293429Y-91120000D01*
X42122415Y-91147085D01*
X41957740Y-91200592D01*
X41803480Y-91279193D01*
X41803463Y-91279203D01*
X41797261Y-91283708D01*
X41797261Y-91283709D01*
X42291415Y-91777861D01*
X42206306Y-91800667D01*
X42103694Y-91859910D01*
X42019910Y-91943694D01*
X41960667Y-92046306D01*
X41937861Y-92131414D01*
X41443709Y-91637261D01*
X41443708Y-91637261D01*
X41439203Y-91643463D01*
X41439193Y-91643480D01*
X41360592Y-91797740D01*
X41307085Y-91962415D01*
X41280000Y-92133428D01*
X41280000Y-92306571D01*
X41307085Y-92477584D01*
X41360592Y-92642259D01*
X41439196Y-92796525D01*
X41443709Y-92802736D01*
X41443709Y-92802737D01*
X41937861Y-92308584D01*
X41960667Y-92393694D01*
X42019910Y-92496306D01*
X42103694Y-92580090D01*
X42206306Y-92639333D01*
X42291414Y-92662137D01*
X41797261Y-93156289D01*
X41797262Y-93156290D01*
X41803471Y-93160801D01*
X41957742Y-93239408D01*
X42122415Y-93292914D01*
X42293429Y-93320000D01*
X42466571Y-93320000D01*
X42637584Y-93292914D01*
X42802257Y-93239408D01*
X42956525Y-93160803D01*
X42962737Y-93156289D01*
X42468585Y-92662137D01*
X42553694Y-92639333D01*
X42656306Y-92580090D01*
X42740090Y-92496306D01*
X42799333Y-92393694D01*
X42822138Y-92308584D01*
X43316289Y-92802736D01*
X43320803Y-92796525D01*
X43399408Y-92642257D01*
X43452914Y-92477584D01*
X43480000Y-92306571D01*
X43480000Y-92174499D01*
X43482550Y-92165813D01*
X43481262Y-92156852D01*
X43492240Y-92132811D01*
X43499685Y-92107460D01*
X43506525Y-92101532D01*
X43510287Y-92093296D01*
X43532521Y-92079006D01*
X43552489Y-92061705D01*
X43563003Y-92059417D01*
X43569065Y-92055522D01*
X43603996Y-92050499D01*
X43696001Y-92050499D01*
X43763039Y-92070184D01*
X43808794Y-92122988D01*
X43820000Y-92174499D01*
X43820000Y-92306571D01*
X43847085Y-92477584D01*
X43900592Y-92642259D01*
X43979196Y-92796525D01*
X43983709Y-92802736D01*
X43983709Y-92802737D01*
X44477861Y-92308584D01*
X44500667Y-92393694D01*
X44559910Y-92496306D01*
X44643694Y-92580090D01*
X44746306Y-92639333D01*
X44831414Y-92662137D01*
X44337261Y-93156289D01*
X44337262Y-93156290D01*
X44343471Y-93160801D01*
X44497742Y-93239408D01*
X44662415Y-93292914D01*
X44833429Y-93320000D01*
X45006571Y-93320000D01*
X45177584Y-93292914D01*
X45342257Y-93239408D01*
X45496525Y-93160803D01*
X45502736Y-93156289D01*
X45502737Y-93156289D01*
X45008585Y-92662137D01*
X45093694Y-92639333D01*
X45196306Y-92580090D01*
X45280090Y-92496306D01*
X45339333Y-92393694D01*
X45362138Y-92308585D01*
X45856289Y-92802736D01*
X45860803Y-92796525D01*
X45939408Y-92642257D01*
X45992914Y-92477584D01*
X46020000Y-92306571D01*
X46020000Y-92133428D01*
X45992914Y-91962415D01*
X45939408Y-91797742D01*
X45860801Y-91643471D01*
X45856290Y-91637262D01*
X45856289Y-91637261D01*
X45362137Y-92131413D01*
X45339333Y-92046306D01*
X45280090Y-91943694D01*
X45196306Y-91859910D01*
X45093694Y-91800667D01*
X45008584Y-91777861D01*
X45502737Y-91283709D01*
X45496525Y-91279196D01*
X45342259Y-91200592D01*
X45177584Y-91147085D01*
X45006571Y-91120000D01*
X44874499Y-91120000D01*
X44865813Y-91117449D01*
X44856852Y-91118738D01*
X44832811Y-91107759D01*
X44807460Y-91100315D01*
X44801532Y-91093474D01*
X44793296Y-91089713D01*
X44779006Y-91067478D01*
X44761705Y-91047511D01*
X44759417Y-91036996D01*
X44755522Y-91030935D01*
X44750499Y-90996003D01*
X44750499Y-90903998D01*
X44770184Y-90836961D01*
X44822988Y-90791206D01*
X44874499Y-90780000D01*
X45006571Y-90780000D01*
X45177584Y-90752914D01*
X45342257Y-90699408D01*
X45496525Y-90620803D01*
X45502736Y-90616289D01*
X45008584Y-90122138D01*
X45093694Y-90099333D01*
X45196306Y-90040090D01*
X45280090Y-89956306D01*
X45339333Y-89853694D01*
X45362138Y-89768585D01*
X45856289Y-90262736D01*
X45860803Y-90256525D01*
X45939408Y-90102257D01*
X45992914Y-89937584D01*
X46020000Y-89766571D01*
X46020000Y-89593428D01*
X45992914Y-89422415D01*
X45939408Y-89257742D01*
X45860801Y-89103471D01*
X45856290Y-89097262D01*
X45856289Y-89097261D01*
X45362137Y-89591413D01*
X45339333Y-89506306D01*
X45280090Y-89403694D01*
X45196306Y-89319910D01*
X45093694Y-89260667D01*
X45008584Y-89237861D01*
X45502737Y-88743709D01*
X45496525Y-88739196D01*
X45342259Y-88660592D01*
X45177584Y-88607085D01*
X45006571Y-88580000D01*
X44833429Y-88580000D01*
X44662415Y-88607085D01*
X44497740Y-88660592D01*
X44343480Y-88739193D01*
X44343463Y-88739203D01*
X44337261Y-88743708D01*
X44337261Y-88743709D01*
X44831415Y-89237861D01*
X44746306Y-89260667D01*
X44643694Y-89319910D01*
X44559910Y-89403694D01*
X44500667Y-89506306D01*
X44477861Y-89591415D01*
X43983709Y-89097261D01*
X43983708Y-89097261D01*
X43979203Y-89103463D01*
X43979193Y-89103480D01*
X43900592Y-89257740D01*
X43847085Y-89422415D01*
X43820000Y-89593428D01*
X43820000Y-89725500D01*
X43817449Y-89734185D01*
X43818738Y-89743147D01*
X43807759Y-89767187D01*
X43800315Y-89792539D01*
X43793474Y-89798466D01*
X43789713Y-89806703D01*
X43767478Y-89820992D01*
X43747511Y-89838294D01*
X43736996Y-89840581D01*
X43730935Y-89844477D01*
X43696000Y-89849500D01*
X43604000Y-89849500D01*
X43536961Y-89829815D01*
X43491206Y-89777011D01*
X43480000Y-89725500D01*
X43480000Y-89593428D01*
X43452914Y-89422415D01*
X43399408Y-89257742D01*
X43320801Y-89103471D01*
X43316290Y-89097262D01*
X43316289Y-89097261D01*
X42822137Y-89591414D01*
X42799333Y-89506306D01*
X42740090Y-89403694D01*
X42656306Y-89319910D01*
X42553694Y-89260667D01*
X42468584Y-89237861D01*
X42962737Y-88743709D01*
X42956525Y-88739196D01*
X42802259Y-88660592D01*
X42637584Y-88607085D01*
X42466571Y-88580000D01*
X42293429Y-88580000D01*
X42122415Y-88607085D01*
X41957740Y-88660592D01*
X41803480Y-88739193D01*
X41803463Y-88739203D01*
X41797261Y-88743708D01*
X41797261Y-88743709D01*
X42291415Y-89237861D01*
X42206306Y-89260667D01*
X42103694Y-89319910D01*
X42019910Y-89403694D01*
X41960667Y-89506306D01*
X41937861Y-89591414D01*
X41443709Y-89097261D01*
X41443708Y-89097261D01*
X41439203Y-89103463D01*
X41439193Y-89103480D01*
X41360592Y-89257740D01*
X41307085Y-89422415D01*
X41280000Y-89593428D01*
X39100500Y-89593428D01*
X39100500Y-78421153D01*
X81649500Y-78421153D01*
X81649500Y-78578846D01*
X81680261Y-78733489D01*
X81680264Y-78733501D01*
X81740602Y-78879172D01*
X81740609Y-78879185D01*
X81828210Y-79010288D01*
X81828213Y-79010292D01*
X81939707Y-79121786D01*
X81939711Y-79121789D01*
X82070814Y-79209390D01*
X82070827Y-79209397D01*
X82216498Y-79269735D01*
X82216503Y-79269737D01*
X82371153Y-79300499D01*
X82371156Y-79300500D01*
X82371158Y-79300500D01*
X82528844Y-79300500D01*
X82528845Y-79300499D01*
X82683497Y-79269737D01*
X82829179Y-79209394D01*
X82960289Y-79121789D01*
X83071789Y-79010289D01*
X83159394Y-78879179D01*
X83219737Y-78733497D01*
X83250500Y-78578842D01*
X83250500Y-78421158D01*
X83250500Y-78421155D01*
X83250499Y-78421153D01*
X83219738Y-78266510D01*
X83219737Y-78266503D01*
X83219735Y-78266498D01*
X83159397Y-78120827D01*
X83159390Y-78120814D01*
X83071789Y-77989711D01*
X83071786Y-77989707D01*
X82960292Y-77878213D01*
X82960288Y-77878210D01*
X82829185Y-77790609D01*
X82829172Y-77790602D01*
X82683501Y-77730264D01*
X82683489Y-77730261D01*
X82528845Y-77699500D01*
X82528842Y-77699500D01*
X82371158Y-77699500D01*
X82371155Y-77699500D01*
X82216510Y-77730261D01*
X82216498Y-77730264D01*
X82070827Y-77790602D01*
X82070814Y-77790609D01*
X81939711Y-77878210D01*
X81939707Y-77878213D01*
X81828213Y-77989707D01*
X81828210Y-77989711D01*
X81740609Y-78120814D01*
X81740602Y-78120827D01*
X81680264Y-78266498D01*
X81680261Y-78266510D01*
X81649500Y-78421153D01*
X39100500Y-78421153D01*
X39100500Y-76321153D01*
X81649500Y-76321153D01*
X81649500Y-76478846D01*
X81680261Y-76633489D01*
X81680264Y-76633501D01*
X81740602Y-76779172D01*
X81740609Y-76779185D01*
X81828210Y-76910288D01*
X81828213Y-76910292D01*
X81939707Y-77021786D01*
X81939711Y-77021789D01*
X82070814Y-77109390D01*
X82070827Y-77109397D01*
X82216498Y-77169735D01*
X82216503Y-77169737D01*
X82371153Y-77200499D01*
X82371156Y-77200500D01*
X82371158Y-77200500D01*
X82528844Y-77200500D01*
X82528845Y-77200499D01*
X82683497Y-77169737D01*
X82829179Y-77109394D01*
X82960289Y-77021789D01*
X83071789Y-76910289D01*
X83159394Y-76779179D01*
X83219737Y-76633497D01*
X83250500Y-76478842D01*
X83250500Y-76321158D01*
X83250500Y-76321155D01*
X83250499Y-76321153D01*
X83219738Y-76166510D01*
X83219737Y-76166503D01*
X83219735Y-76166498D01*
X83159397Y-76020827D01*
X83159390Y-76020814D01*
X83071789Y-75889711D01*
X83071786Y-75889707D01*
X82960292Y-75778213D01*
X82960288Y-75778210D01*
X82829185Y-75690609D01*
X82829172Y-75690602D01*
X82683501Y-75630264D01*
X82683489Y-75630261D01*
X82528845Y-75599500D01*
X82528842Y-75599500D01*
X82371158Y-75599500D01*
X82371155Y-75599500D01*
X82216510Y-75630261D01*
X82216498Y-75630264D01*
X82070827Y-75690602D01*
X82070814Y-75690609D01*
X81939711Y-75778210D01*
X81939707Y-75778213D01*
X81828213Y-75889707D01*
X81828210Y-75889711D01*
X81740609Y-76020814D01*
X81740602Y-76020827D01*
X81680264Y-76166498D01*
X81680261Y-76166510D01*
X81649500Y-76321153D01*
X39100500Y-76321153D01*
X39100500Y-74971153D01*
X45249500Y-74971153D01*
X45249500Y-75128846D01*
X45280261Y-75283489D01*
X45280264Y-75283501D01*
X45340602Y-75429172D01*
X45340609Y-75429185D01*
X45428210Y-75560288D01*
X45428213Y-75560292D01*
X45539707Y-75671786D01*
X45539711Y-75671789D01*
X45670814Y-75759390D01*
X45670827Y-75759397D01*
X45716254Y-75778213D01*
X45816503Y-75819737D01*
X45971153Y-75850499D01*
X45971156Y-75850500D01*
X45971158Y-75850500D01*
X46128844Y-75850500D01*
X46128845Y-75850499D01*
X46283497Y-75819737D01*
X46429179Y-75759394D01*
X46560289Y-75671789D01*
X46671789Y-75560289D01*
X46759394Y-75429179D01*
X46819737Y-75283497D01*
X46850500Y-75128842D01*
X46850500Y-74971158D01*
X46850500Y-74971155D01*
X46850499Y-74971153D01*
X46819738Y-74816510D01*
X46819737Y-74816503D01*
X46819735Y-74816498D01*
X46759397Y-74670827D01*
X46759390Y-74670814D01*
X46671789Y-74539711D01*
X46671786Y-74539707D01*
X46560292Y-74428213D01*
X46560288Y-74428210D01*
X46429185Y-74340609D01*
X46429172Y-74340602D01*
X46283501Y-74280264D01*
X46283489Y-74280261D01*
X46128845Y-74249500D01*
X46128842Y-74249500D01*
X45971158Y-74249500D01*
X45971155Y-74249500D01*
X45816510Y-74280261D01*
X45816498Y-74280264D01*
X45670827Y-74340602D01*
X45670814Y-74340609D01*
X45539711Y-74428210D01*
X45539707Y-74428213D01*
X45428213Y-74539707D01*
X45428210Y-74539711D01*
X45340609Y-74670814D01*
X45340602Y-74670827D01*
X45280264Y-74816498D01*
X45280261Y-74816510D01*
X45249500Y-74971153D01*
X39100500Y-74971153D01*
X39100500Y-73471153D01*
X46649500Y-73471153D01*
X46649500Y-73628846D01*
X46680261Y-73783489D01*
X46680264Y-73783501D01*
X46740602Y-73929172D01*
X46740609Y-73929185D01*
X46828210Y-74060288D01*
X46828213Y-74060292D01*
X46939707Y-74171786D01*
X46939711Y-74171789D01*
X47070814Y-74259390D01*
X47070827Y-74259397D01*
X47216498Y-74319735D01*
X47216503Y-74319737D01*
X47371153Y-74350499D01*
X47371156Y-74350500D01*
X47371158Y-74350500D01*
X47528844Y-74350500D01*
X47528845Y-74350499D01*
X47683497Y-74319737D01*
X47829179Y-74259394D01*
X47960289Y-74171789D01*
X48071789Y-74060289D01*
X48159394Y-73929179D01*
X48219737Y-73783497D01*
X48250500Y-73628842D01*
X48250500Y-73471158D01*
X48250500Y-73471155D01*
X48250499Y-73471153D01*
X48219738Y-73316510D01*
X48219737Y-73316503D01*
X48217163Y-73310288D01*
X48159397Y-73170827D01*
X48159390Y-73170814D01*
X48071789Y-73039711D01*
X48071786Y-73039707D01*
X47960292Y-72928213D01*
X47960288Y-72928210D01*
X47829185Y-72840609D01*
X47829173Y-72840602D01*
X47802674Y-72829627D01*
X47683501Y-72780264D01*
X47683489Y-72780261D01*
X47528845Y-72749500D01*
X47528842Y-72749500D01*
X47371158Y-72749500D01*
X47371155Y-72749500D01*
X47216510Y-72780261D01*
X47216498Y-72780264D01*
X47070827Y-72840602D01*
X47070814Y-72840609D01*
X46939711Y-72928210D01*
X46939707Y-72928213D01*
X46828213Y-73039707D01*
X46828210Y-73039711D01*
X46740609Y-73170814D01*
X46740602Y-73170827D01*
X46680264Y-73316498D01*
X46680261Y-73316510D01*
X46649500Y-73471153D01*
X39100500Y-73471153D01*
X39100500Y-72721153D01*
X74999500Y-72721153D01*
X74999500Y-72878846D01*
X75030261Y-73033489D01*
X75030264Y-73033501D01*
X75090602Y-73179172D01*
X75090609Y-73179185D01*
X75178210Y-73310288D01*
X75178213Y-73310292D01*
X75289707Y-73421786D01*
X75289711Y-73421789D01*
X75420814Y-73509390D01*
X75420827Y-73509397D01*
X75566498Y-73569735D01*
X75566503Y-73569737D01*
X75721153Y-73600499D01*
X75721156Y-73600500D01*
X75721158Y-73600500D01*
X75878844Y-73600500D01*
X75878845Y-73600499D01*
X76033497Y-73569737D01*
X76179179Y-73509394D01*
X76310289Y-73421789D01*
X76421789Y-73310289D01*
X76509394Y-73179179D01*
X76512854Y-73170827D01*
X76567163Y-73039711D01*
X76569737Y-73033497D01*
X76600500Y-72878842D01*
X76600500Y-72721158D01*
X76600500Y-72721155D01*
X76600499Y-72721153D01*
X76569738Y-72566510D01*
X76569737Y-72566503D01*
X76569735Y-72566498D01*
X76509397Y-72420827D01*
X76509390Y-72420814D01*
X76421789Y-72289711D01*
X76421786Y-72289707D01*
X76310292Y-72178213D01*
X76310288Y-72178210D01*
X76179185Y-72090609D01*
X76179172Y-72090602D01*
X76033501Y-72030264D01*
X76033489Y-72030261D01*
X75878845Y-71999500D01*
X75878842Y-71999500D01*
X75721158Y-71999500D01*
X75721155Y-71999500D01*
X75566510Y-72030261D01*
X75566498Y-72030264D01*
X75420827Y-72090602D01*
X75420814Y-72090609D01*
X75289711Y-72178210D01*
X75289707Y-72178213D01*
X75178213Y-72289707D01*
X75178210Y-72289711D01*
X75090609Y-72420814D01*
X75090602Y-72420827D01*
X75030264Y-72566498D01*
X75030261Y-72566510D01*
X74999500Y-72721153D01*
X39100500Y-72721153D01*
X39100500Y-69621153D01*
X43049500Y-69621153D01*
X43049500Y-69778846D01*
X43080261Y-69933489D01*
X43080264Y-69933501D01*
X43140602Y-70079172D01*
X43140609Y-70079185D01*
X43228210Y-70210288D01*
X43228213Y-70210292D01*
X43339707Y-70321786D01*
X43339711Y-70321789D01*
X43470814Y-70409390D01*
X43470827Y-70409397D01*
X43616498Y-70469735D01*
X43616503Y-70469737D01*
X43771153Y-70500499D01*
X43771156Y-70500500D01*
X43771158Y-70500500D01*
X43928844Y-70500500D01*
X43928845Y-70500499D01*
X44083497Y-70469737D01*
X44229179Y-70409394D01*
X44360289Y-70321789D01*
X44471789Y-70210289D01*
X44559394Y-70079179D01*
X44619737Y-69933497D01*
X44650500Y-69778842D01*
X44650500Y-69621158D01*
X44650500Y-69621155D01*
X44650499Y-69621153D01*
X44647399Y-69605567D01*
X44619737Y-69466503D01*
X44616437Y-69458537D01*
X44559397Y-69320827D01*
X44559390Y-69320814D01*
X44471789Y-69189711D01*
X44471786Y-69189707D01*
X44360292Y-69078213D01*
X44360288Y-69078210D01*
X44229185Y-68990609D01*
X44229172Y-68990602D01*
X44083501Y-68930264D01*
X44083489Y-68930261D01*
X43928845Y-68899500D01*
X43928842Y-68899500D01*
X43771158Y-68899500D01*
X43771155Y-68899500D01*
X43616510Y-68930261D01*
X43616498Y-68930264D01*
X43470827Y-68990602D01*
X43470814Y-68990609D01*
X43339711Y-69078210D01*
X43339707Y-69078213D01*
X43228213Y-69189707D01*
X43228210Y-69189711D01*
X43140609Y-69320814D01*
X43140602Y-69320827D01*
X43080264Y-69466498D01*
X43080261Y-69466510D01*
X43049500Y-69621153D01*
X39100500Y-69621153D01*
X39100500Y-64724000D01*
X72944500Y-64724000D01*
X72944500Y-69076000D01*
X72944501Y-69076009D01*
X72956052Y-69183450D01*
X72956054Y-69183462D01*
X72967260Y-69234972D01*
X73001383Y-69337497D01*
X73001386Y-69337503D01*
X73079171Y-69458537D01*
X73079179Y-69458548D01*
X73124923Y-69511340D01*
X73124926Y-69511343D01*
X73124930Y-69511347D01*
X73233664Y-69605567D01*
X73233667Y-69605568D01*
X73233668Y-69605569D01*
X73327925Y-69648616D01*
X73364541Y-69665338D01*
X73431580Y-69685023D01*
X73431584Y-69685024D01*
X73574000Y-69705500D01*
X73574003Y-69705500D01*
X93325990Y-69705500D01*
X93326000Y-69705500D01*
X93433456Y-69693947D01*
X93484967Y-69682741D01*
X93519197Y-69671347D01*
X93587497Y-69648616D01*
X93587501Y-69648613D01*
X93587504Y-69648613D01*
X93708543Y-69570825D01*
X93761347Y-69525070D01*
X93855567Y-69416336D01*
X93915338Y-69285459D01*
X93935023Y-69218420D01*
X93935024Y-69218416D01*
X93955500Y-69076000D01*
X93955500Y-58301362D01*
X93952603Y-58247322D01*
X93949769Y-58220964D01*
X93941114Y-58167552D01*
X93890832Y-58032743D01*
X93857347Y-57971420D01*
X93771123Y-57856239D01*
X93771118Y-57856234D01*
X93771113Y-57856228D01*
X93493776Y-57578892D01*
X93493761Y-57578877D01*
X93493737Y-57578855D01*
X93453519Y-57542728D01*
X93453507Y-57542718D01*
X93432856Y-57526076D01*
X93388974Y-57494433D01*
X93258100Y-57434663D01*
X93191055Y-57414976D01*
X93143582Y-57408150D01*
X93048638Y-57394500D01*
X93048636Y-57394500D01*
X88810746Y-57394500D01*
X88743707Y-57374815D01*
X88723065Y-57358181D01*
X88291819Y-56926935D01*
X88258334Y-56865612D01*
X88255500Y-56839254D01*
X88255500Y-53160746D01*
X88275185Y-53093707D01*
X88291819Y-53073065D01*
X88751495Y-52613389D01*
X89271123Y-52093762D01*
X89307288Y-52053500D01*
X89323922Y-52032858D01*
X89355567Y-51988974D01*
X89415338Y-51858097D01*
X89435023Y-51791058D01*
X89435024Y-51791054D01*
X89455500Y-51648638D01*
X89455500Y-49929500D01*
X89475185Y-49862461D01*
X89527989Y-49816706D01*
X89579500Y-49805500D01*
X95648640Y-49805500D01*
X95658786Y-49804955D01*
X95702678Y-49802603D01*
X95702686Y-49802602D01*
X95702688Y-49802602D01*
X95702689Y-49802602D01*
X95709682Y-49801849D01*
X95729036Y-49799769D01*
X95729046Y-49799767D01*
X95729049Y-49799767D01*
X95738648Y-49798211D01*
X95782448Y-49791114D01*
X95917257Y-49740832D01*
X95978580Y-49707347D01*
X96093761Y-49621123D01*
X96121123Y-49593761D01*
X96157288Y-49553500D01*
X96168641Y-49539411D01*
X96173908Y-49532876D01*
X96173912Y-49532869D01*
X96173922Y-49532858D01*
X96205622Y-49488888D01*
X96210298Y-49478641D01*
X96228501Y-49450322D01*
X96252071Y-49387124D01*
X96265366Y-49357999D01*
X96266128Y-49355402D01*
X96266127Y-49355401D01*
X96273082Y-49331699D01*
X96273096Y-49331652D01*
X96274339Y-49327420D01*
X96278781Y-49315512D01*
X96281465Y-49303171D01*
X96284408Y-49293149D01*
X96284897Y-49291590D01*
X96285024Y-49291052D01*
X96287075Y-49276788D01*
X96305500Y-49148638D01*
X96305500Y-45374000D01*
X96293947Y-45266544D01*
X96282741Y-45215033D01*
X96275353Y-45192836D01*
X96248616Y-45112502D01*
X96248613Y-45112496D01*
X96170825Y-44991457D01*
X96170820Y-44991451D01*
X96125076Y-44938659D01*
X96125072Y-44938656D01*
X96125070Y-44938653D01*
X96016336Y-44844433D01*
X96016333Y-44844431D01*
X96016331Y-44844430D01*
X95885465Y-44784664D01*
X95885460Y-44784662D01*
X95885459Y-44784662D01*
X95818420Y-44764977D01*
X95818422Y-44764977D01*
X95818417Y-44764976D01*
X95770944Y-44758150D01*
X95676000Y-44744500D01*
X95675998Y-44744500D01*
X94610746Y-44744500D01*
X94543707Y-44724815D01*
X94523065Y-44708181D01*
X94193776Y-44378892D01*
X94193770Y-44378886D01*
X94193761Y-44378877D01*
X94193737Y-44378855D01*
X94153519Y-44342728D01*
X94153507Y-44342718D01*
X94153426Y-44342653D01*
X94132858Y-44326078D01*
X94132856Y-44326076D01*
X94088974Y-44294433D01*
X93958100Y-44234663D01*
X93891055Y-44214976D01*
X93843582Y-44208150D01*
X93748638Y-44194500D01*
X89001362Y-44194500D01*
X89001360Y-44194500D01*
X88947311Y-44197397D01*
X88947310Y-44197397D01*
X88920977Y-44200229D01*
X88920950Y-44200232D01*
X88867554Y-44208885D01*
X88867552Y-44208885D01*
X88732747Y-44259166D01*
X88671422Y-44292651D01*
X88556240Y-44378876D01*
X88556228Y-44378886D01*
X88078892Y-44856223D01*
X88078855Y-44856262D01*
X88042728Y-44896480D01*
X88042718Y-44896492D01*
X88026076Y-44917143D01*
X87994433Y-44961025D01*
X87934663Y-45091899D01*
X87914976Y-45158944D01*
X87894500Y-45301363D01*
X87894500Y-45320500D01*
X87874815Y-45387539D01*
X87822011Y-45433294D01*
X87770500Y-45444500D01*
X85824000Y-45444500D01*
X85823991Y-45444500D01*
X85823990Y-45444501D01*
X85716549Y-45456052D01*
X85716537Y-45456054D01*
X85665027Y-45467260D01*
X85562502Y-45501383D01*
X85562498Y-45501385D01*
X85466657Y-45562979D01*
X85399618Y-45582663D01*
X85332578Y-45562978D01*
X85286824Y-45510174D01*
X85276880Y-45441016D01*
X85278001Y-45434470D01*
X85285000Y-45399286D01*
X85285000Y-45240711D01*
X85254065Y-45085195D01*
X85254063Y-45085189D01*
X85199672Y-44953879D01*
X84833554Y-45319999D01*
X84833554Y-45320001D01*
X85218750Y-45705197D01*
X85226671Y-45719704D01*
X85238608Y-45731142D01*
X85243070Y-45749737D01*
X85252235Y-45766520D01*
X85251196Y-45783594D01*
X85254914Y-45799083D01*
X85248707Y-45824528D01*
X85248149Y-45833722D01*
X85246247Y-45839173D01*
X85234662Y-45864541D01*
X85220116Y-45914075D01*
X85219088Y-45917025D01*
X85209688Y-45930156D01*
X85189690Y-45963862D01*
X84833554Y-46320000D01*
X85158181Y-46644627D01*
X85191666Y-46705950D01*
X85194500Y-46732308D01*
X85194500Y-47970500D01*
X85174815Y-48037539D01*
X85122011Y-48083294D01*
X85070500Y-48094500D01*
X83624000Y-48094500D01*
X83623991Y-48094500D01*
X83623990Y-48094501D01*
X83516549Y-48106052D01*
X83516537Y-48106054D01*
X83465027Y-48117260D01*
X83362502Y-48151383D01*
X83362496Y-48151386D01*
X83241462Y-48229171D01*
X83241451Y-48229179D01*
X83188659Y-48274923D01*
X83094433Y-48383664D01*
X83094430Y-48383668D01*
X83034664Y-48514534D01*
X83018137Y-48570820D01*
X83014977Y-48581580D01*
X83014976Y-48581584D01*
X82997540Y-48702860D01*
X82994500Y-48724001D01*
X82994500Y-53639254D01*
X82974815Y-53706293D01*
X82958181Y-53726935D01*
X82426935Y-54258181D01*
X82365612Y-54291666D01*
X82339254Y-54294500D01*
X78274000Y-54294500D01*
X78273991Y-54294500D01*
X78273990Y-54294501D01*
X78166549Y-54306052D01*
X78166537Y-54306054D01*
X78115027Y-54317260D01*
X78012502Y-54351383D01*
X78012496Y-54351386D01*
X77891462Y-54429171D01*
X77891451Y-54429179D01*
X77838659Y-54474923D01*
X77744433Y-54583664D01*
X77744430Y-54583668D01*
X77684664Y-54714534D01*
X77664976Y-54781582D01*
X77644500Y-54924001D01*
X77644500Y-63970500D01*
X77624815Y-64037539D01*
X77572011Y-64083294D01*
X77520500Y-64094500D01*
X73574000Y-64094500D01*
X73573991Y-64094500D01*
X73573990Y-64094501D01*
X73466549Y-64106052D01*
X73466537Y-64106054D01*
X73415027Y-64117260D01*
X73312502Y-64151383D01*
X73312496Y-64151386D01*
X73191462Y-64229171D01*
X73191451Y-64229179D01*
X73138659Y-64274923D01*
X73044433Y-64383664D01*
X73044430Y-64383668D01*
X72984664Y-64514534D01*
X72984662Y-64514541D01*
X72964977Y-64581580D01*
X72964976Y-64581584D01*
X72944500Y-64724000D01*
X39100500Y-64724000D01*
X39100500Y-58866228D01*
X40699500Y-58866228D01*
X40699500Y-59033771D01*
X40732182Y-59198074D01*
X40732184Y-59198082D01*
X40796295Y-59352860D01*
X40889373Y-59492162D01*
X41007837Y-59610626D01*
X41100494Y-59672537D01*
X41147137Y-59703703D01*
X41301918Y-59767816D01*
X41466228Y-59800499D01*
X41466232Y-59800500D01*
X41466233Y-59800500D01*
X41633768Y-59800500D01*
X41633769Y-59800499D01*
X41798082Y-59767816D01*
X41952863Y-59703703D01*
X42092162Y-59610626D01*
X42210626Y-59492162D01*
X42303703Y-59352863D01*
X42367816Y-59198082D01*
X42400500Y-59033767D01*
X42400500Y-58866233D01*
X42367816Y-58701918D01*
X42303703Y-58547137D01*
X42272537Y-58500494D01*
X42210626Y-58407837D01*
X42092162Y-58289373D01*
X41952860Y-58196295D01*
X41798082Y-58132184D01*
X41798074Y-58132182D01*
X41633771Y-58099500D01*
X41633767Y-58099500D01*
X41466233Y-58099500D01*
X41466228Y-58099500D01*
X41301925Y-58132182D01*
X41301917Y-58132184D01*
X41147139Y-58196295D01*
X41007837Y-58289373D01*
X40889373Y-58407837D01*
X40796295Y-58547139D01*
X40732184Y-58701917D01*
X40732182Y-58701925D01*
X40699500Y-58866228D01*
X39100500Y-58866228D01*
X39100500Y-57271153D01*
X45699500Y-57271153D01*
X45699500Y-57428846D01*
X45730261Y-57583489D01*
X45730264Y-57583501D01*
X45790602Y-57729172D01*
X45790609Y-57729185D01*
X45878210Y-57860288D01*
X45878213Y-57860292D01*
X45989707Y-57971786D01*
X45989711Y-57971789D01*
X46120814Y-58059390D01*
X46120827Y-58059397D01*
X46217646Y-58099500D01*
X46266503Y-58119737D01*
X46421153Y-58150499D01*
X46421156Y-58150500D01*
X46421158Y-58150500D01*
X46578844Y-58150500D01*
X46578845Y-58150499D01*
X46733497Y-58119737D01*
X46879179Y-58059394D01*
X47010289Y-57971789D01*
X47121789Y-57860289D01*
X47209394Y-57729179D01*
X47269737Y-57583497D01*
X47300500Y-57428842D01*
X47300500Y-57271158D01*
X47300500Y-57271155D01*
X47300499Y-57271153D01*
X47269738Y-57116510D01*
X47269737Y-57116503D01*
X47269735Y-57116498D01*
X47209397Y-56970827D01*
X47209390Y-56970814D01*
X47121789Y-56839711D01*
X47121786Y-56839707D01*
X47010292Y-56728213D01*
X47010288Y-56728210D01*
X46879185Y-56640609D01*
X46879172Y-56640602D01*
X46733501Y-56580264D01*
X46733489Y-56580261D01*
X46578845Y-56549500D01*
X46578842Y-56549500D01*
X46421158Y-56549500D01*
X46421155Y-56549500D01*
X46266510Y-56580261D01*
X46266498Y-56580264D01*
X46120827Y-56640602D01*
X46120814Y-56640609D01*
X45989711Y-56728210D01*
X45989707Y-56728213D01*
X45878213Y-56839707D01*
X45878210Y-56839711D01*
X45790609Y-56970814D01*
X45790602Y-56970827D01*
X45730264Y-57116498D01*
X45730261Y-57116510D01*
X45699500Y-57271153D01*
X39100500Y-57271153D01*
X39100500Y-54821153D01*
X44949500Y-54821153D01*
X44949500Y-54978846D01*
X44980261Y-55133489D01*
X44980264Y-55133501D01*
X45040602Y-55279172D01*
X45040609Y-55279185D01*
X45128210Y-55410288D01*
X45128213Y-55410292D01*
X45239707Y-55521786D01*
X45239711Y-55521789D01*
X45370814Y-55609390D01*
X45370827Y-55609397D01*
X45516498Y-55669735D01*
X45516503Y-55669737D01*
X45671153Y-55700499D01*
X45671156Y-55700500D01*
X45671158Y-55700500D01*
X45828844Y-55700500D01*
X45828845Y-55700499D01*
X45983497Y-55669737D01*
X46129179Y-55609394D01*
X46186411Y-55571153D01*
X53749500Y-55571153D01*
X53749500Y-55728846D01*
X53780261Y-55883489D01*
X53780264Y-55883501D01*
X53840602Y-56029172D01*
X53840609Y-56029185D01*
X53928210Y-56160288D01*
X53928213Y-56160292D01*
X54039707Y-56271786D01*
X54039711Y-56271789D01*
X54170814Y-56359390D01*
X54170827Y-56359397D01*
X54316498Y-56419735D01*
X54316503Y-56419737D01*
X54471153Y-56450499D01*
X54471156Y-56450500D01*
X54471158Y-56450500D01*
X54628844Y-56450500D01*
X54628845Y-56450499D01*
X54783497Y-56419737D01*
X54929179Y-56359394D01*
X55060289Y-56271789D01*
X55171789Y-56160289D01*
X55259394Y-56029179D01*
X55319737Y-55883497D01*
X55350500Y-55728842D01*
X55350500Y-55571158D01*
X55350500Y-55571155D01*
X55350499Y-55571153D01*
X55319738Y-55416510D01*
X55319737Y-55416503D01*
X55317163Y-55410288D01*
X55259397Y-55270827D01*
X55259390Y-55270814D01*
X55171789Y-55139711D01*
X55171786Y-55139707D01*
X55060292Y-55028213D01*
X55060288Y-55028210D01*
X54929185Y-54940609D01*
X54929172Y-54940602D01*
X54783501Y-54880264D01*
X54783489Y-54880261D01*
X54628845Y-54849500D01*
X54628842Y-54849500D01*
X54471158Y-54849500D01*
X54471155Y-54849500D01*
X54316510Y-54880261D01*
X54316498Y-54880264D01*
X54170827Y-54940602D01*
X54170814Y-54940609D01*
X54039711Y-55028210D01*
X54039707Y-55028213D01*
X53928213Y-55139707D01*
X53928210Y-55139711D01*
X53840609Y-55270814D01*
X53840602Y-55270827D01*
X53780264Y-55416498D01*
X53780261Y-55416510D01*
X53749500Y-55571153D01*
X46186411Y-55571153D01*
X46260289Y-55521789D01*
X46260292Y-55521786D01*
X46304694Y-55477385D01*
X46371786Y-55410292D01*
X46371789Y-55410289D01*
X46459394Y-55279179D01*
X46462854Y-55270827D01*
X46517163Y-55139711D01*
X46519737Y-55133497D01*
X46550500Y-54978842D01*
X46550500Y-54821158D01*
X46550500Y-54821155D01*
X46550499Y-54821153D01*
X46519738Y-54666510D01*
X46519737Y-54666503D01*
X46502753Y-54625499D01*
X46459397Y-54520827D01*
X46459390Y-54520814D01*
X46371789Y-54389711D01*
X46371786Y-54389707D01*
X46260292Y-54278213D01*
X46260288Y-54278210D01*
X46129185Y-54190609D01*
X46129172Y-54190602D01*
X45983501Y-54130264D01*
X45983489Y-54130261D01*
X45828845Y-54099500D01*
X45828842Y-54099500D01*
X45671158Y-54099500D01*
X45671155Y-54099500D01*
X45516510Y-54130261D01*
X45516498Y-54130264D01*
X45370827Y-54190602D01*
X45370814Y-54190609D01*
X45239711Y-54278210D01*
X45239707Y-54278213D01*
X45128213Y-54389707D01*
X45128210Y-54389711D01*
X45040609Y-54520814D01*
X45040602Y-54520827D01*
X44980264Y-54666498D01*
X44980261Y-54666510D01*
X44949500Y-54821153D01*
X39100500Y-54821153D01*
X39100500Y-50721153D01*
X43999500Y-50721153D01*
X43999500Y-50878846D01*
X44030261Y-51033489D01*
X44030264Y-51033501D01*
X44090602Y-51179172D01*
X44090609Y-51179185D01*
X44178210Y-51310288D01*
X44178213Y-51310292D01*
X44289707Y-51421786D01*
X44289711Y-51421789D01*
X44420814Y-51509390D01*
X44420827Y-51509397D01*
X44460933Y-51526009D01*
X44566503Y-51569737D01*
X44717046Y-51599682D01*
X44721153Y-51600499D01*
X44721156Y-51600500D01*
X44721158Y-51600500D01*
X44878844Y-51600500D01*
X44878845Y-51600499D01*
X45033497Y-51569737D01*
X45179179Y-51509394D01*
X45310289Y-51421789D01*
X45421789Y-51310289D01*
X45509394Y-51179179D01*
X45569737Y-51033497D01*
X45600500Y-50878842D01*
X45600500Y-50721158D01*
X45600500Y-50721155D01*
X45600499Y-50721153D01*
X45569738Y-50566510D01*
X45569737Y-50566503D01*
X45518292Y-50442302D01*
X45509397Y-50420827D01*
X45509390Y-50420814D01*
X45421789Y-50289711D01*
X45421786Y-50289707D01*
X45310292Y-50178213D01*
X45310288Y-50178210D01*
X45179185Y-50090609D01*
X45179172Y-50090602D01*
X45033501Y-50030264D01*
X45033489Y-50030261D01*
X44878845Y-49999500D01*
X44878842Y-49999500D01*
X44721158Y-49999500D01*
X44721155Y-49999500D01*
X44566510Y-50030261D01*
X44566498Y-50030264D01*
X44420827Y-50090602D01*
X44420814Y-50090609D01*
X44289711Y-50178210D01*
X44289707Y-50178213D01*
X44178213Y-50289707D01*
X44178210Y-50289711D01*
X44090609Y-50420814D01*
X44090602Y-50420827D01*
X44030264Y-50566498D01*
X44030261Y-50566510D01*
X43999500Y-50721153D01*
X39100500Y-50721153D01*
X39100500Y-48866228D01*
X42999500Y-48866228D01*
X42999500Y-49033771D01*
X43032182Y-49198074D01*
X43032184Y-49198082D01*
X43096295Y-49352860D01*
X43189373Y-49492162D01*
X43307837Y-49610626D01*
X43400494Y-49672537D01*
X43447137Y-49703703D01*
X43447138Y-49703703D01*
X43447139Y-49703704D01*
X43482201Y-49718227D01*
X43601918Y-49767816D01*
X43762548Y-49799767D01*
X43766228Y-49800499D01*
X43766232Y-49800500D01*
X43766233Y-49800500D01*
X43933768Y-49800500D01*
X43933769Y-49800499D01*
X44098082Y-49767816D01*
X44252863Y-49703703D01*
X44392162Y-49610626D01*
X44510626Y-49492162D01*
X44603703Y-49352863D01*
X44667816Y-49198082D01*
X44700500Y-49033767D01*
X44700500Y-48866233D01*
X44667816Y-48701918D01*
X44613513Y-48570820D01*
X44603704Y-48547139D01*
X44510626Y-48407837D01*
X44392162Y-48289373D01*
X44252860Y-48196295D01*
X44098082Y-48132184D01*
X44098074Y-48132182D01*
X43933771Y-48099500D01*
X43933767Y-48099500D01*
X43766233Y-48099500D01*
X43766228Y-48099500D01*
X43601925Y-48132182D01*
X43601917Y-48132184D01*
X43447139Y-48196295D01*
X43307837Y-48289373D01*
X43189373Y-48407837D01*
X43096295Y-48547139D01*
X43032184Y-48701917D01*
X43032182Y-48701925D01*
X42999500Y-48866228D01*
X39100500Y-48866228D01*
X39100500Y-44613389D01*
X49124500Y-44613389D01*
X49124500Y-44786610D01*
X49150992Y-44953879D01*
X49151598Y-44957701D01*
X49205127Y-45122445D01*
X49283768Y-45276788D01*
X49385586Y-45416928D01*
X49508072Y-45539414D01*
X49508078Y-45539418D01*
X49591023Y-45599683D01*
X49633689Y-45655013D01*
X49639667Y-45724626D01*
X49607061Y-45786421D01*
X49591023Y-45800317D01*
X49508078Y-45860581D01*
X49508069Y-45860588D01*
X49385588Y-45983069D01*
X49385588Y-45983070D01*
X49385586Y-45983072D01*
X49383915Y-45985372D01*
X49283768Y-46123211D01*
X49205128Y-46277552D01*
X49151597Y-46442302D01*
X49129236Y-46583489D01*
X49124500Y-46613389D01*
X49124500Y-46786611D01*
X49151598Y-46957701D01*
X49205127Y-47122445D01*
X49283768Y-47276788D01*
X49385586Y-47416928D01*
X49508072Y-47539414D01*
X49508078Y-47539418D01*
X49591023Y-47599683D01*
X49633689Y-47655013D01*
X49639667Y-47724626D01*
X49607061Y-47786421D01*
X49591023Y-47800317D01*
X49508078Y-47860581D01*
X49508069Y-47860588D01*
X49385588Y-47983069D01*
X49385588Y-47983070D01*
X49385586Y-47983072D01*
X49346013Y-48037539D01*
X49283768Y-48123211D01*
X49205128Y-48277552D01*
X49151597Y-48442302D01*
X49131242Y-48570820D01*
X49124500Y-48613389D01*
X49124500Y-48786611D01*
X49151598Y-48957701D01*
X49205127Y-49122445D01*
X49283768Y-49276788D01*
X49385586Y-49416928D01*
X49508072Y-49539414D01*
X49508078Y-49539418D01*
X49591023Y-49599683D01*
X49633689Y-49655013D01*
X49639667Y-49724626D01*
X49607061Y-49786421D01*
X49591023Y-49800317D01*
X49508078Y-49860581D01*
X49508069Y-49860588D01*
X49385588Y-49983069D01*
X49385588Y-49983070D01*
X49385586Y-49983072D01*
X49351301Y-50030261D01*
X49283768Y-50123211D01*
X49205128Y-50277552D01*
X49151597Y-50442302D01*
X49124500Y-50613389D01*
X49124500Y-50786610D01*
X49147556Y-50932184D01*
X49151598Y-50957701D01*
X49205127Y-51122445D01*
X49283768Y-51276788D01*
X49385586Y-51416928D01*
X49385588Y-51416930D01*
X49493127Y-51524469D01*
X49526612Y-51585792D01*
X49521628Y-51655484D01*
X49479756Y-51711417D01*
X49470544Y-51717688D01*
X49406344Y-51757287D01*
X49282289Y-51881342D01*
X49190187Y-52030663D01*
X49190185Y-52030668D01*
X49169285Y-52093740D01*
X49135001Y-52197203D01*
X49135001Y-52197204D01*
X49135000Y-52197204D01*
X49124500Y-52299983D01*
X49124500Y-53100001D01*
X49124501Y-53100019D01*
X49135000Y-53202796D01*
X49135001Y-53202799D01*
X49159519Y-53276788D01*
X49190186Y-53369334D01*
X49282288Y-53518656D01*
X49406344Y-53642712D01*
X49555666Y-53734814D01*
X49722203Y-53789999D01*
X49824991Y-53800500D01*
X51075008Y-53800499D01*
X51177797Y-53789999D01*
X51344334Y-53734814D01*
X51493656Y-53642712D01*
X51493667Y-53642700D01*
X51494898Y-53641729D01*
X51495912Y-53641319D01*
X51499803Y-53638920D01*
X51500213Y-53639584D01*
X51559694Y-53615588D01*
X51628336Y-53628628D01*
X51644699Y-53638680D01*
X51648202Y-53641225D01*
X51648212Y-53641232D01*
X51802555Y-53719873D01*
X51967299Y-53773402D01*
X52138389Y-53800500D01*
X52138390Y-53800500D01*
X52761610Y-53800500D01*
X52761611Y-53800500D01*
X52932701Y-53773402D01*
X53097445Y-53719873D01*
X53153664Y-53691228D01*
X54674500Y-53691228D01*
X54674500Y-53858771D01*
X54707182Y-54023074D01*
X54707184Y-54023082D01*
X54771295Y-54177860D01*
X54864373Y-54317162D01*
X54982837Y-54435626D01*
X55041650Y-54474923D01*
X55122137Y-54528703D01*
X55276918Y-54592816D01*
X55441228Y-54625499D01*
X55441232Y-54625500D01*
X55441233Y-54625500D01*
X55608768Y-54625500D01*
X55608769Y-54625499D01*
X55773082Y-54592816D01*
X55927863Y-54528703D01*
X56067162Y-54435626D01*
X56185626Y-54317162D01*
X56278703Y-54177863D01*
X56342816Y-54023082D01*
X56375500Y-53858767D01*
X56375500Y-53691233D01*
X56342816Y-53526918D01*
X56278703Y-53372137D01*
X56214993Y-53276788D01*
X56185626Y-53232837D01*
X56067162Y-53114373D01*
X55927860Y-53021295D01*
X55773082Y-52957184D01*
X55773074Y-52957182D01*
X55608771Y-52924500D01*
X55608767Y-52924500D01*
X55441233Y-52924500D01*
X55441228Y-52924500D01*
X55276925Y-52957182D01*
X55276917Y-52957184D01*
X55122139Y-53021295D01*
X54982837Y-53114373D01*
X54864373Y-53232837D01*
X54771295Y-53372139D01*
X54707184Y-53526917D01*
X54707182Y-53526925D01*
X54674500Y-53691228D01*
X53153664Y-53691228D01*
X53251788Y-53641232D01*
X53391928Y-53539414D01*
X53514414Y-53416928D01*
X53616232Y-53276788D01*
X53694873Y-53122445D01*
X53748402Y-52957701D01*
X53775500Y-52786611D01*
X53775500Y-52613389D01*
X53748402Y-52442299D01*
X53694873Y-52277555D01*
X53616232Y-52123212D01*
X53514414Y-51983072D01*
X53391928Y-51860586D01*
X53308975Y-51800317D01*
X53291799Y-51778042D01*
X53272192Y-51757867D01*
X53270748Y-51750742D01*
X53266311Y-51744988D01*
X53263903Y-51716962D01*
X53258317Y-51689389D01*
X53260953Y-51682615D01*
X53260332Y-51675374D01*
X53265158Y-51666228D01*
X54649500Y-51666228D01*
X54649500Y-51833771D01*
X54682182Y-51998074D01*
X54682184Y-51998082D01*
X54746295Y-52152860D01*
X54839373Y-52292162D01*
X54957837Y-52410626D01*
X55005244Y-52442302D01*
X55097137Y-52503703D01*
X55251918Y-52567816D01*
X55416228Y-52600499D01*
X55416232Y-52600500D01*
X55416233Y-52600500D01*
X55583768Y-52600500D01*
X55583769Y-52600499D01*
X55748082Y-52567816D01*
X55902863Y-52503703D01*
X56042162Y-52410626D01*
X56160626Y-52292162D01*
X56253703Y-52152863D01*
X56317816Y-51998082D01*
X56350500Y-51833767D01*
X56350500Y-51666233D01*
X56317816Y-51501918D01*
X56253703Y-51347137D01*
X56206697Y-51276788D01*
X56160626Y-51207837D01*
X56042162Y-51089373D01*
X55902860Y-50996295D01*
X55748082Y-50932184D01*
X55748074Y-50932182D01*
X55583771Y-50899500D01*
X55583767Y-50899500D01*
X55416233Y-50899500D01*
X55416228Y-50899500D01*
X55251925Y-50932182D01*
X55251917Y-50932184D01*
X55097139Y-50996295D01*
X54957837Y-51089373D01*
X54839373Y-51207837D01*
X54746295Y-51347139D01*
X54682184Y-51501917D01*
X54682182Y-51501925D01*
X54649500Y-51666228D01*
X53265158Y-51666228D01*
X53273460Y-51650492D01*
X53283666Y-51624280D01*
X53291107Y-51617047D01*
X53292938Y-51613579D01*
X53308976Y-51599682D01*
X53328094Y-51585792D01*
X53391928Y-51539414D01*
X53514414Y-51416928D01*
X53616232Y-51276788D01*
X53694873Y-51122445D01*
X53748402Y-50957701D01*
X53775500Y-50786611D01*
X53775500Y-50613389D01*
X53748402Y-50442299D01*
X53694873Y-50277555D01*
X53616232Y-50123212D01*
X53514414Y-49983072D01*
X53391928Y-49860586D01*
X53308975Y-49800317D01*
X53266311Y-49744988D01*
X53260332Y-49675374D01*
X53292938Y-49613579D01*
X53308976Y-49599682D01*
X53391928Y-49539414D01*
X53514414Y-49416928D01*
X53616232Y-49276788D01*
X53694873Y-49122445D01*
X53748402Y-48957701D01*
X53775500Y-48786611D01*
X53775500Y-48613389D01*
X53748402Y-48442299D01*
X53694873Y-48277555D01*
X53670224Y-48229179D01*
X53663625Y-48216228D01*
X54699500Y-48216228D01*
X54699500Y-48383771D01*
X54732182Y-48548074D01*
X54732184Y-48548082D01*
X54796295Y-48702860D01*
X54889373Y-48842162D01*
X55007837Y-48960626D01*
X55100494Y-49022537D01*
X55147137Y-49053703D01*
X55301918Y-49117816D01*
X55456857Y-49148635D01*
X55466228Y-49150499D01*
X55466232Y-49150500D01*
X55466233Y-49150500D01*
X55633768Y-49150500D01*
X55633769Y-49150499D01*
X55798082Y-49117816D01*
X55952863Y-49053703D01*
X56092162Y-48960626D01*
X56210626Y-48842162D01*
X56303703Y-48702863D01*
X56367816Y-48548082D01*
X56400500Y-48383767D01*
X56400500Y-48216233D01*
X56367816Y-48051918D01*
X56303703Y-47897137D01*
X56272537Y-47850494D01*
X56210626Y-47757837D01*
X56092162Y-47639373D01*
X55952860Y-47546295D01*
X55798082Y-47482184D01*
X55798074Y-47482182D01*
X55633771Y-47449500D01*
X55633767Y-47449500D01*
X55466233Y-47449500D01*
X55466228Y-47449500D01*
X55301925Y-47482182D01*
X55301917Y-47482184D01*
X55147139Y-47546295D01*
X55007837Y-47639373D01*
X54889373Y-47757837D01*
X54796295Y-47897139D01*
X54732184Y-48051917D01*
X54732182Y-48051925D01*
X54699500Y-48216228D01*
X53663625Y-48216228D01*
X53653469Y-48196295D01*
X53616232Y-48123212D01*
X53514414Y-47983072D01*
X53391928Y-47860586D01*
X53308975Y-47800317D01*
X53266311Y-47744988D01*
X53260332Y-47675374D01*
X53292938Y-47613579D01*
X53308976Y-47599682D01*
X53391928Y-47539414D01*
X53514414Y-47416928D01*
X53616232Y-47276788D01*
X53694873Y-47122445D01*
X53748402Y-46957701D01*
X53775500Y-46786611D01*
X53775500Y-46613389D01*
X53748402Y-46442299D01*
X53694873Y-46277555D01*
X53691611Y-46271153D01*
X54749500Y-46271153D01*
X54749500Y-46428846D01*
X54780261Y-46583489D01*
X54780264Y-46583501D01*
X54840602Y-46729172D01*
X54840609Y-46729185D01*
X54928210Y-46860288D01*
X54928213Y-46860292D01*
X55039707Y-46971786D01*
X55039711Y-46971789D01*
X55170814Y-47059390D01*
X55170827Y-47059397D01*
X55316498Y-47119735D01*
X55316503Y-47119737D01*
X55471153Y-47150499D01*
X55471156Y-47150500D01*
X55471158Y-47150500D01*
X55628844Y-47150500D01*
X55628845Y-47150499D01*
X55783497Y-47119737D01*
X55929179Y-47059394D01*
X56060289Y-46971789D01*
X56171789Y-46860289D01*
X56259394Y-46729179D01*
X56319737Y-46583497D01*
X56350500Y-46428842D01*
X56350500Y-46271158D01*
X56350500Y-46271155D01*
X56350499Y-46271153D01*
X56343314Y-46235032D01*
X56319737Y-46116503D01*
X56302132Y-46074000D01*
X56259397Y-45970827D01*
X56259390Y-45970814D01*
X56171789Y-45839711D01*
X56171786Y-45839707D01*
X56060292Y-45728213D01*
X56060288Y-45728210D01*
X55929185Y-45640609D01*
X55929172Y-45640602D01*
X55783501Y-45580264D01*
X55783489Y-45580261D01*
X55628845Y-45549500D01*
X55628842Y-45549500D01*
X55471158Y-45549500D01*
X55471155Y-45549500D01*
X55316510Y-45580261D01*
X55316498Y-45580264D01*
X55170827Y-45640602D01*
X55170814Y-45640609D01*
X55039711Y-45728210D01*
X55039707Y-45728213D01*
X54928213Y-45839707D01*
X54928210Y-45839711D01*
X54840609Y-45970814D01*
X54840602Y-45970827D01*
X54780264Y-46116498D01*
X54780261Y-46116510D01*
X54749500Y-46271153D01*
X53691611Y-46271153D01*
X53616232Y-46123212D01*
X53514414Y-45983072D01*
X53391928Y-45860586D01*
X53308975Y-45800317D01*
X53266311Y-45744988D01*
X53260332Y-45675374D01*
X53292938Y-45613579D01*
X53308976Y-45599682D01*
X53391928Y-45539414D01*
X53514414Y-45416928D01*
X53616232Y-45276788D01*
X53694873Y-45122445D01*
X53748402Y-44957701D01*
X53775500Y-44786611D01*
X53775500Y-44613389D01*
X53748402Y-44442299D01*
X53694873Y-44277555D01*
X53616232Y-44123212D01*
X53514414Y-43983072D01*
X53391928Y-43860586D01*
X53308550Y-43800008D01*
X53265885Y-43744677D01*
X53259906Y-43675064D01*
X53292512Y-43613269D01*
X53308552Y-43599371D01*
X53391598Y-43539036D01*
X53514032Y-43416602D01*
X53615804Y-43276524D01*
X53694408Y-43122255D01*
X53747914Y-42957584D01*
X53749115Y-42950000D01*
X52796410Y-42950000D01*
X52846037Y-42864044D01*
X52875000Y-42755952D01*
X52875000Y-42644048D01*
X52846037Y-42535956D01*
X52796410Y-42450000D01*
X53749115Y-42450000D01*
X53749115Y-42449999D01*
X53747914Y-42442415D01*
X53694408Y-42277744D01*
X53615804Y-42123475D01*
X53514032Y-41983397D01*
X53391602Y-41860967D01*
X53308551Y-41800628D01*
X53265885Y-41745298D01*
X53259906Y-41675685D01*
X53292511Y-41613889D01*
X53308551Y-41599991D01*
X53308976Y-41599682D01*
X53391928Y-41539414D01*
X53514414Y-41416928D01*
X53616232Y-41276788D01*
X53694873Y-41122445D01*
X53748402Y-40957701D01*
X53775500Y-40786611D01*
X53775500Y-40613389D01*
X53767511Y-40562947D01*
X63851997Y-40562947D01*
X63880838Y-40707934D01*
X63880841Y-40707944D01*
X63937410Y-40844515D01*
X63937417Y-40844528D01*
X64019546Y-40967442D01*
X64019549Y-40967446D01*
X64124078Y-41071975D01*
X64124082Y-41071978D01*
X64246996Y-41154107D01*
X64247009Y-41154114D01*
X64383580Y-41210683D01*
X64383585Y-41210685D01*
X64383589Y-41210685D01*
X64383590Y-41210686D01*
X64528577Y-41239527D01*
X64528580Y-41239527D01*
X64676418Y-41239527D01*
X64773960Y-41220123D01*
X64821411Y-41210685D01*
X64957993Y-41154111D01*
X65080914Y-41071978D01*
X65185449Y-40967443D01*
X65267582Y-40844522D01*
X65324156Y-40707940D01*
X65352998Y-40562945D01*
X65352998Y-40415109D01*
X65348219Y-40391084D01*
X65354445Y-40321494D01*
X65382156Y-40279210D01*
X65383814Y-40277552D01*
X65432951Y-40228416D01*
X65515084Y-40105495D01*
X65571658Y-39968913D01*
X65593206Y-39860586D01*
X65600500Y-39823920D01*
X65600500Y-39676079D01*
X65571659Y-39531092D01*
X65571658Y-39531091D01*
X65571658Y-39531087D01*
X65524373Y-39416930D01*
X65515087Y-39394511D01*
X65515080Y-39394498D01*
X65432951Y-39271584D01*
X65432948Y-39271580D01*
X65328419Y-39167051D01*
X65328415Y-39167048D01*
X65278382Y-39133617D01*
X65233577Y-39080005D01*
X65224870Y-39010680D01*
X65244171Y-38961624D01*
X65315080Y-38855501D01*
X65315080Y-38855500D01*
X65315084Y-38855495D01*
X65371658Y-38718913D01*
X65400500Y-38573918D01*
X65400500Y-38426082D01*
X65400500Y-38426079D01*
X65371659Y-38281092D01*
X65371658Y-38281091D01*
X65371658Y-38281087D01*
X65369137Y-38275000D01*
X65315087Y-38144511D01*
X65315080Y-38144498D01*
X65232951Y-38021584D01*
X65232948Y-38021580D01*
X65128419Y-37917051D01*
X65128415Y-37917048D01*
X65005501Y-37834919D01*
X65005488Y-37834912D01*
X64868917Y-37778343D01*
X64868907Y-37778340D01*
X64723920Y-37749500D01*
X64723918Y-37749500D01*
X64576082Y-37749500D01*
X64576080Y-37749500D01*
X64431092Y-37778340D01*
X64431082Y-37778343D01*
X64294511Y-37834912D01*
X64294498Y-37834919D01*
X64171584Y-37917048D01*
X64171580Y-37917051D01*
X64067051Y-38021580D01*
X64067048Y-38021584D01*
X63984919Y-38144498D01*
X63984912Y-38144511D01*
X63928343Y-38281082D01*
X63928340Y-38281092D01*
X63899500Y-38426079D01*
X63899500Y-38426082D01*
X63899500Y-38573918D01*
X63899500Y-38573920D01*
X63899499Y-38573920D01*
X63928340Y-38718907D01*
X63928343Y-38718917D01*
X63984912Y-38855488D01*
X63984919Y-38855501D01*
X64067048Y-38978415D01*
X64067051Y-38978419D01*
X64171580Y-39082948D01*
X64171588Y-39082954D01*
X64221616Y-39116382D01*
X64266422Y-39169994D01*
X64275129Y-39239319D01*
X64255829Y-39288374D01*
X64184918Y-39394500D01*
X64184912Y-39394511D01*
X64128343Y-39531082D01*
X64128340Y-39531092D01*
X64099500Y-39676079D01*
X64099500Y-39676082D01*
X64099500Y-39823918D01*
X64104279Y-39847942D01*
X64098051Y-39917534D01*
X64070344Y-39959813D01*
X64019544Y-40010614D01*
X63937417Y-40133525D01*
X63937410Y-40133538D01*
X63880841Y-40270109D01*
X63880838Y-40270119D01*
X63851998Y-40415106D01*
X63851998Y-40415109D01*
X63851998Y-40562945D01*
X63851998Y-40562947D01*
X63851997Y-40562947D01*
X53767511Y-40562947D01*
X53748402Y-40442299D01*
X53694873Y-40277555D01*
X53616232Y-40123212D01*
X53514414Y-39983072D01*
X53391928Y-39860586D01*
X53308975Y-39800317D01*
X53266311Y-39744988D01*
X53260332Y-39675374D01*
X53292938Y-39613579D01*
X53308976Y-39599682D01*
X53391928Y-39539414D01*
X53514414Y-39416928D01*
X53616232Y-39276788D01*
X53694873Y-39122445D01*
X53748402Y-38957701D01*
X53775500Y-38786611D01*
X53775500Y-38613389D01*
X53748402Y-38442299D01*
X53694873Y-38277555D01*
X53616232Y-38123212D01*
X53514414Y-37983072D01*
X53391928Y-37860586D01*
X53251788Y-37758768D01*
X53097445Y-37680127D01*
X52932701Y-37626598D01*
X52932699Y-37626597D01*
X52932698Y-37626597D01*
X52791740Y-37604272D01*
X52761611Y-37599500D01*
X52138389Y-37599500D01*
X52108260Y-37604272D01*
X51967302Y-37626597D01*
X51802552Y-37680128D01*
X51648211Y-37758768D01*
X51621269Y-37778343D01*
X51543400Y-37834919D01*
X51522461Y-37850132D01*
X51456654Y-37873612D01*
X51388600Y-37857787D01*
X51376690Y-37850132D01*
X51251528Y-37759198D01*
X51097257Y-37680591D01*
X50932584Y-37627085D01*
X50761571Y-37600000D01*
X50700000Y-37600000D01*
X50700000Y-38353590D01*
X50614044Y-38303963D01*
X50505952Y-38275000D01*
X50394048Y-38275000D01*
X50285956Y-38303963D01*
X50200000Y-38353590D01*
X50200000Y-37600000D01*
X50138429Y-37600000D01*
X49967415Y-37627085D01*
X49802742Y-37680591D01*
X49648475Y-37759195D01*
X49508397Y-37860967D01*
X49385967Y-37983397D01*
X49284195Y-38123475D01*
X49205591Y-38277744D01*
X49152085Y-38442415D01*
X49150884Y-38449999D01*
X49150885Y-38450000D01*
X50103590Y-38450000D01*
X50053963Y-38535956D01*
X50025000Y-38644048D01*
X50025000Y-38755952D01*
X50053963Y-38864044D01*
X50103590Y-38950000D01*
X49150885Y-38950000D01*
X49152085Y-38957584D01*
X49205591Y-39122255D01*
X49284195Y-39276524D01*
X49385967Y-39416602D01*
X49508399Y-39539034D01*
X49508404Y-39539038D01*
X49591873Y-39599682D01*
X49634539Y-39655012D01*
X49640518Y-39724625D01*
X49607912Y-39786420D01*
X49591873Y-39800318D01*
X49508404Y-39860961D01*
X49508399Y-39860965D01*
X49385967Y-39983397D01*
X49284195Y-40123475D01*
X49205591Y-40277744D01*
X49152085Y-40442415D01*
X49150884Y-40449999D01*
X49150885Y-40450000D01*
X50103590Y-40450000D01*
X50053963Y-40535956D01*
X50025000Y-40644048D01*
X50025000Y-40755952D01*
X50053963Y-40864044D01*
X50103590Y-40950000D01*
X49150885Y-40950000D01*
X49152085Y-40957584D01*
X49205591Y-41122255D01*
X49284195Y-41276524D01*
X49385967Y-41416602D01*
X49508399Y-41539034D01*
X49508404Y-41539038D01*
X49591873Y-41599682D01*
X49634539Y-41655012D01*
X49640518Y-41724625D01*
X49607912Y-41786420D01*
X49591873Y-41800318D01*
X49508404Y-41860961D01*
X49508399Y-41860965D01*
X49385967Y-41983397D01*
X49284195Y-42123475D01*
X49205591Y-42277744D01*
X49152085Y-42442415D01*
X49150884Y-42449999D01*
X49150885Y-42450000D01*
X50103590Y-42450000D01*
X50053963Y-42535956D01*
X50025000Y-42644048D01*
X50025000Y-42755952D01*
X50053963Y-42864044D01*
X50103590Y-42950000D01*
X49150885Y-42950000D01*
X49152085Y-42957584D01*
X49205591Y-43122255D01*
X49284195Y-43276524D01*
X49385967Y-43416602D01*
X49508401Y-43539036D01*
X49591447Y-43599371D01*
X49634114Y-43654701D01*
X49640093Y-43724314D01*
X49607488Y-43786109D01*
X49591450Y-43800007D01*
X49508072Y-43860585D01*
X49385588Y-43983069D01*
X49385588Y-43983070D01*
X49385586Y-43983072D01*
X49341859Y-44043256D01*
X49283768Y-44123211D01*
X49205128Y-44277552D01*
X49151597Y-44442302D01*
X49124500Y-44613389D01*
X39100500Y-44613389D01*
X39100500Y-36052561D01*
X39100606Y-36047437D01*
X39107313Y-35885272D01*
X39107314Y-35885258D01*
X42599500Y-35885258D01*
X42599500Y-36114741D01*
X42624446Y-36304215D01*
X42629452Y-36342238D01*
X42663907Y-36470827D01*
X42688842Y-36563887D01*
X42776650Y-36775876D01*
X42776656Y-36775888D01*
X42862524Y-36924617D01*
X42891392Y-36974617D01*
X43031081Y-37156661D01*
X43031089Y-37156670D01*
X43193330Y-37318911D01*
X43193338Y-37318918D01*
X43193339Y-37318919D01*
X43215958Y-37336275D01*
X43375382Y-37458607D01*
X43375385Y-37458608D01*
X43375388Y-37458611D01*
X43574112Y-37573344D01*
X43574117Y-37573346D01*
X43574123Y-37573349D01*
X43665400Y-37611157D01*
X43786113Y-37661158D01*
X44007762Y-37720548D01*
X44235266Y-37750500D01*
X44235273Y-37750500D01*
X44464727Y-37750500D01*
X44464734Y-37750500D01*
X44692238Y-37720548D01*
X44913887Y-37661158D01*
X45125888Y-37573344D01*
X45324612Y-37458611D01*
X45506661Y-37318919D01*
X45506665Y-37318914D01*
X45506670Y-37318911D01*
X45668911Y-37156670D01*
X45668914Y-37156665D01*
X45668919Y-37156661D01*
X45808611Y-36974612D01*
X45923344Y-36775888D01*
X45925303Y-36771158D01*
X45925305Y-36771153D01*
X64699500Y-36771153D01*
X64699500Y-36928846D01*
X64730261Y-37083489D01*
X64730264Y-37083501D01*
X64790602Y-37229172D01*
X64790609Y-37229185D01*
X64878210Y-37360288D01*
X64878213Y-37360292D01*
X64989707Y-37471786D01*
X64989711Y-37471789D01*
X65120814Y-37559390D01*
X65120827Y-37559397D01*
X65245789Y-37611157D01*
X65266503Y-37619737D01*
X65361600Y-37638653D01*
X65421153Y-37650499D01*
X65421156Y-37650500D01*
X65421158Y-37650500D01*
X65578844Y-37650500D01*
X65578845Y-37650499D01*
X65733497Y-37619737D01*
X65879179Y-37559394D01*
X66010289Y-37471789D01*
X66037578Y-37444500D01*
X66112319Y-37369760D01*
X66173642Y-37336275D01*
X66243334Y-37341259D01*
X66287681Y-37369760D01*
X66389707Y-37471786D01*
X66389711Y-37471789D01*
X66520814Y-37559390D01*
X66520827Y-37559397D01*
X66645789Y-37611157D01*
X66666503Y-37619737D01*
X66761600Y-37638653D01*
X66821153Y-37650499D01*
X66821156Y-37650500D01*
X66821158Y-37650500D01*
X66978844Y-37650500D01*
X66978845Y-37650499D01*
X67133497Y-37619737D01*
X67228306Y-37580465D01*
X67297775Y-37572997D01*
X67360254Y-37604272D01*
X67395906Y-37664361D01*
X67393412Y-37734186D01*
X67388552Y-37746539D01*
X67334664Y-37864534D01*
X67314976Y-37931582D01*
X67302037Y-38021580D01*
X67294502Y-38073990D01*
X67294500Y-38074001D01*
X67294500Y-40615637D01*
X67274815Y-40682676D01*
X67222011Y-40728431D01*
X67152853Y-40738375D01*
X67089297Y-40709350D01*
X67061140Y-40674088D01*
X67059390Y-40670814D01*
X66971789Y-40539711D01*
X66971786Y-40539707D01*
X66860292Y-40428213D01*
X66860288Y-40428210D01*
X66729185Y-40340609D01*
X66729172Y-40340602D01*
X66583501Y-40280264D01*
X66583489Y-40280261D01*
X66428845Y-40249500D01*
X66428842Y-40249500D01*
X66271158Y-40249500D01*
X66271155Y-40249500D01*
X66116510Y-40280261D01*
X66116498Y-40280264D01*
X65970827Y-40340602D01*
X65970814Y-40340609D01*
X65839711Y-40428210D01*
X65839707Y-40428213D01*
X65728213Y-40539707D01*
X65728210Y-40539711D01*
X65640609Y-40670814D01*
X65640602Y-40670827D01*
X65580264Y-40816498D01*
X65580261Y-40816510D01*
X65549500Y-40971153D01*
X65549500Y-41128846D01*
X65580261Y-41283489D01*
X65580264Y-41283501D01*
X65640602Y-41429172D01*
X65640609Y-41429185D01*
X65728210Y-41560288D01*
X65728213Y-41560292D01*
X65839707Y-41671786D01*
X65839711Y-41671789D01*
X65970814Y-41759390D01*
X65970827Y-41759397D01*
X66069621Y-41800318D01*
X66116503Y-41819737D01*
X66271153Y-41850499D01*
X66271156Y-41850500D01*
X66271158Y-41850500D01*
X66428844Y-41850500D01*
X66428845Y-41850499D01*
X66583497Y-41819737D01*
X66729179Y-41759394D01*
X66860289Y-41671789D01*
X66971789Y-41560289D01*
X67059394Y-41429179D01*
X67059397Y-41429172D01*
X67061138Y-41425916D01*
X67062504Y-41424524D01*
X67062779Y-41424114D01*
X67062856Y-41424166D01*
X67110097Y-41376069D01*
X67178233Y-41360603D01*
X67243915Y-41384430D01*
X67286287Y-41439985D01*
X67294500Y-41484362D01*
X67294500Y-51526000D01*
X67294501Y-51526009D01*
X67306052Y-51633450D01*
X67306054Y-51633462D01*
X67317260Y-51684972D01*
X67351383Y-51787497D01*
X67351386Y-51787503D01*
X67429171Y-51908537D01*
X67429179Y-51908548D01*
X67474923Y-51961340D01*
X67474926Y-51961343D01*
X67474930Y-51961347D01*
X67583664Y-52055567D01*
X67583667Y-52055568D01*
X67583668Y-52055569D01*
X67667325Y-52093775D01*
X67714541Y-52115338D01*
X67781580Y-52135023D01*
X67781584Y-52135024D01*
X67924000Y-52155500D01*
X67924003Y-52155500D01*
X76748640Y-52155500D01*
X76758786Y-52154955D01*
X76802678Y-52152603D01*
X76802686Y-52152602D01*
X76802688Y-52152602D01*
X76802689Y-52152602D01*
X76809682Y-52151849D01*
X76829036Y-52149769D01*
X76829046Y-52149767D01*
X76829049Y-52149767D01*
X76838648Y-52148211D01*
X76882448Y-52141114D01*
X77017257Y-52090832D01*
X77078580Y-52057347D01*
X77193761Y-51971123D01*
X77221123Y-51943761D01*
X77257288Y-51903500D01*
X77267780Y-51890478D01*
X77273908Y-51882876D01*
X77273912Y-51882869D01*
X77273922Y-51882858D01*
X77305622Y-51838888D01*
X77310298Y-51828641D01*
X77328501Y-51800322D01*
X77352071Y-51737124D01*
X77365366Y-51707999D01*
X77366128Y-51705402D01*
X77366127Y-51705401D01*
X77373082Y-51681699D01*
X77373096Y-51681652D01*
X77374339Y-51677420D01*
X77378781Y-51665512D01*
X77381465Y-51653171D01*
X77384408Y-51643149D01*
X77384897Y-51641590D01*
X77385024Y-51641052D01*
X77385661Y-51636621D01*
X77405500Y-51498638D01*
X77405500Y-48829500D01*
X77425185Y-48762461D01*
X77477989Y-48716706D01*
X77529500Y-48705500D01*
X82125990Y-48705500D01*
X82126000Y-48705500D01*
X82233456Y-48693947D01*
X82284967Y-48682741D01*
X82319197Y-48671347D01*
X82387497Y-48648616D01*
X82387501Y-48648613D01*
X82387504Y-48648613D01*
X82508543Y-48570825D01*
X82561347Y-48525070D01*
X82655567Y-48416336D01*
X82715338Y-48285459D01*
X82735023Y-48218420D01*
X82735024Y-48218416D01*
X82755500Y-48076000D01*
X82755500Y-47039672D01*
X83113879Y-47039672D01*
X83245189Y-47094063D01*
X83245195Y-47094065D01*
X83400711Y-47125000D01*
X83559288Y-47125000D01*
X83714804Y-47094065D01*
X83714806Y-47094064D01*
X83846119Y-47039672D01*
X84113879Y-47039672D01*
X84245189Y-47094063D01*
X84245195Y-47094065D01*
X84400711Y-47125000D01*
X84559288Y-47125000D01*
X84714804Y-47094065D01*
X84714806Y-47094064D01*
X84846119Y-47039672D01*
X84480001Y-46673554D01*
X84113879Y-47039672D01*
X83846119Y-47039672D01*
X83480001Y-46673554D01*
X83480000Y-46673554D01*
X83113879Y-47039672D01*
X82755500Y-47039672D01*
X82755500Y-46742307D01*
X82775185Y-46675268D01*
X82791819Y-46654626D01*
X83126446Y-46320000D01*
X83126446Y-46319999D01*
X83096610Y-46290163D01*
X83330000Y-46290163D01*
X83330000Y-46349837D01*
X83352836Y-46404968D01*
X83395032Y-46447164D01*
X83450163Y-46470000D01*
X83509837Y-46470000D01*
X83564968Y-46447164D01*
X83607164Y-46404968D01*
X83630000Y-46349837D01*
X83630000Y-46320000D01*
X83833554Y-46320000D01*
X83980000Y-46466446D01*
X84126446Y-46320000D01*
X84096609Y-46290163D01*
X84330000Y-46290163D01*
X84330000Y-46349837D01*
X84352836Y-46404968D01*
X84395032Y-46447164D01*
X84450163Y-46470000D01*
X84509837Y-46470000D01*
X84564968Y-46447164D01*
X84607164Y-46404968D01*
X84630000Y-46349837D01*
X84630000Y-46290163D01*
X84607164Y-46235032D01*
X84564968Y-46192836D01*
X84509837Y-46170000D01*
X84450163Y-46170000D01*
X84395032Y-46192836D01*
X84352836Y-46235032D01*
X84330000Y-46290163D01*
X84096609Y-46290163D01*
X83980000Y-46173554D01*
X83833554Y-46320000D01*
X83630000Y-46320000D01*
X83630000Y-46290163D01*
X83607164Y-46235032D01*
X83564968Y-46192836D01*
X83509837Y-46170000D01*
X83450163Y-46170000D01*
X83395032Y-46192836D01*
X83352836Y-46235032D01*
X83330000Y-46290163D01*
X83096610Y-46290163D01*
X82791819Y-45985372D01*
X82777115Y-45958444D01*
X82760523Y-45932626D01*
X82759631Y-45926425D01*
X82758334Y-45924049D01*
X82755500Y-45897691D01*
X82755500Y-45820000D01*
X83333554Y-45820000D01*
X83480000Y-45966446D01*
X83626446Y-45820000D01*
X84333554Y-45820000D01*
X84480000Y-45966446D01*
X84626446Y-45820000D01*
X84480000Y-45673554D01*
X84333554Y-45820000D01*
X83626446Y-45820000D01*
X83480000Y-45673554D01*
X83333554Y-45820000D01*
X82755500Y-45820000D01*
X82755500Y-45742307D01*
X82775185Y-45675268D01*
X82791819Y-45654626D01*
X83126446Y-45320000D01*
X83126446Y-45319999D01*
X83096610Y-45290163D01*
X83330000Y-45290163D01*
X83330000Y-45349837D01*
X83352836Y-45404968D01*
X83395032Y-45447164D01*
X83450163Y-45470000D01*
X83509837Y-45470000D01*
X83564968Y-45447164D01*
X83607164Y-45404968D01*
X83630000Y-45349837D01*
X83630000Y-45320000D01*
X83833554Y-45320000D01*
X83980000Y-45466446D01*
X84126446Y-45320000D01*
X84096609Y-45290163D01*
X84330000Y-45290163D01*
X84330000Y-45349837D01*
X84352836Y-45404968D01*
X84395032Y-45447164D01*
X84450163Y-45470000D01*
X84509837Y-45470000D01*
X84564968Y-45447164D01*
X84607164Y-45404968D01*
X84630000Y-45349837D01*
X84630000Y-45290163D01*
X84607164Y-45235032D01*
X84564968Y-45192836D01*
X84509837Y-45170000D01*
X84450163Y-45170000D01*
X84395032Y-45192836D01*
X84352836Y-45235032D01*
X84330000Y-45290163D01*
X84096609Y-45290163D01*
X83980000Y-45173554D01*
X83833554Y-45320000D01*
X83630000Y-45320000D01*
X83630000Y-45290163D01*
X83607164Y-45235032D01*
X83564968Y-45192836D01*
X83509837Y-45170000D01*
X83450163Y-45170000D01*
X83395032Y-45192836D01*
X83352836Y-45235032D01*
X83330000Y-45290163D01*
X83096610Y-45290163D01*
X82791819Y-44985372D01*
X82758334Y-44924049D01*
X82755500Y-44897691D01*
X82755500Y-44874010D01*
X82755500Y-44874000D01*
X82743947Y-44766544D01*
X82732741Y-44715033D01*
X82698613Y-44612496D01*
X82690792Y-44600326D01*
X83113879Y-44600326D01*
X83480000Y-44966446D01*
X83480001Y-44966446D01*
X83846119Y-44600326D01*
X84113879Y-44600326D01*
X84480000Y-44966446D01*
X84480001Y-44966446D01*
X84846119Y-44600326D01*
X84714810Y-44545936D01*
X84714804Y-44545934D01*
X84559288Y-44515000D01*
X84400712Y-44515000D01*
X84245195Y-44545934D01*
X84245185Y-44545937D01*
X84113879Y-44600326D01*
X83846119Y-44600326D01*
X83714810Y-44545936D01*
X83714804Y-44545934D01*
X83559288Y-44515000D01*
X83400712Y-44515000D01*
X83245195Y-44545934D01*
X83245185Y-44545937D01*
X83113879Y-44600326D01*
X82690792Y-44600326D01*
X82620825Y-44491457D01*
X82620820Y-44491451D01*
X82575076Y-44438659D01*
X82575072Y-44438656D01*
X82575070Y-44438653D01*
X82466336Y-44344433D01*
X82466333Y-44344431D01*
X82466331Y-44344430D01*
X82335465Y-44284664D01*
X82335460Y-44284662D01*
X82335459Y-44284662D01*
X82268420Y-44264977D01*
X82268422Y-44264977D01*
X82268417Y-44264976D01*
X82220944Y-44258150D01*
X82126000Y-44244500D01*
X80351362Y-44244500D01*
X80351360Y-44244500D01*
X80297311Y-44247397D01*
X80297310Y-44247397D01*
X80270977Y-44250229D01*
X80270950Y-44250232D01*
X80217554Y-44258885D01*
X80217552Y-44258885D01*
X80082747Y-44309166D01*
X80021422Y-44342651D01*
X79906240Y-44428876D01*
X79906228Y-44428886D01*
X79276935Y-45058181D01*
X79215612Y-45091666D01*
X79189254Y-45094500D01*
X77079500Y-45094500D01*
X77012461Y-45074815D01*
X76966706Y-45022011D01*
X76955500Y-44970500D01*
X76955500Y-38074010D01*
X76955500Y-38074000D01*
X76943947Y-37966544D01*
X76932741Y-37915033D01*
X76918955Y-37873612D01*
X76898616Y-37812502D01*
X76898613Y-37812496D01*
X76856224Y-37746539D01*
X76820825Y-37691457D01*
X76811410Y-37680591D01*
X76775076Y-37638659D01*
X76775072Y-37638656D01*
X76775070Y-37638653D01*
X76666336Y-37544433D01*
X76666333Y-37544431D01*
X76666331Y-37544430D01*
X76535465Y-37484664D01*
X76535460Y-37484662D01*
X76535459Y-37484662D01*
X76468420Y-37464977D01*
X76468422Y-37464977D01*
X76468417Y-37464976D01*
X76406347Y-37456052D01*
X76326000Y-37444500D01*
X67924000Y-37444500D01*
X67923991Y-37444500D01*
X67923990Y-37444501D01*
X67816549Y-37456052D01*
X67816537Y-37456054D01*
X67765032Y-37467259D01*
X67703546Y-37487723D01*
X67633720Y-37490216D01*
X67573632Y-37454563D01*
X67542358Y-37392083D01*
X67549828Y-37322614D01*
X67561281Y-37301184D01*
X67609394Y-37229179D01*
X67669737Y-37083497D01*
X67700500Y-36928842D01*
X67700500Y-36771158D01*
X67700500Y-36771155D01*
X67700499Y-36771153D01*
X67669737Y-36616503D01*
X67669735Y-36616498D01*
X67609397Y-36470827D01*
X67609390Y-36470814D01*
X67521789Y-36339711D01*
X67521786Y-36339707D01*
X67410292Y-36228213D01*
X67410288Y-36228210D01*
X67279185Y-36140609D01*
X67279172Y-36140602D01*
X67133501Y-36080264D01*
X67133489Y-36080261D01*
X66978845Y-36049500D01*
X66978842Y-36049500D01*
X66821158Y-36049500D01*
X66821155Y-36049500D01*
X66666510Y-36080261D01*
X66666498Y-36080264D01*
X66520827Y-36140602D01*
X66520814Y-36140609D01*
X66389711Y-36228210D01*
X66389707Y-36228213D01*
X66287681Y-36330240D01*
X66226358Y-36363725D01*
X66156666Y-36358741D01*
X66112319Y-36330240D01*
X66010292Y-36228213D01*
X66010288Y-36228210D01*
X65879185Y-36140609D01*
X65879172Y-36140602D01*
X65733501Y-36080264D01*
X65733489Y-36080261D01*
X65578845Y-36049500D01*
X65578842Y-36049500D01*
X65421158Y-36049500D01*
X65421155Y-36049500D01*
X65266510Y-36080261D01*
X65266498Y-36080264D01*
X65120827Y-36140602D01*
X65120814Y-36140609D01*
X64989711Y-36228210D01*
X64989707Y-36228213D01*
X64878213Y-36339707D01*
X64878210Y-36339711D01*
X64790609Y-36470814D01*
X64790602Y-36470827D01*
X64730264Y-36616498D01*
X64730261Y-36616510D01*
X64699500Y-36771153D01*
X45925305Y-36771153D01*
X45947482Y-36717614D01*
X45947482Y-36717613D01*
X46011158Y-36563887D01*
X46070548Y-36342238D01*
X46100500Y-36114734D01*
X46100500Y-35885266D01*
X46078894Y-35721153D01*
X62500700Y-35721153D01*
X62500700Y-35878846D01*
X62531461Y-36033489D01*
X62531464Y-36033501D01*
X62591802Y-36179172D01*
X62591809Y-36179185D01*
X62679410Y-36310288D01*
X62679413Y-36310292D01*
X62790907Y-36421786D01*
X62790911Y-36421789D01*
X62922014Y-36509390D01*
X62922027Y-36509397D01*
X63067698Y-36569735D01*
X63067703Y-36569737D01*
X63222353Y-36600499D01*
X63222356Y-36600500D01*
X63222358Y-36600500D01*
X63380044Y-36600500D01*
X63380045Y-36600499D01*
X63534697Y-36569737D01*
X63680379Y-36509394D01*
X63811489Y-36421789D01*
X63922989Y-36310289D01*
X64010594Y-36179179D01*
X64070937Y-36033497D01*
X64101700Y-35878842D01*
X64101700Y-35835258D01*
X90449500Y-35835258D01*
X90449500Y-36064741D01*
X90471023Y-36228213D01*
X90479452Y-36292238D01*
X90498607Y-36363725D01*
X90538842Y-36513887D01*
X90626650Y-36725876D01*
X90626657Y-36725890D01*
X90741392Y-36924617D01*
X90881081Y-37106661D01*
X90881089Y-37106670D01*
X91043330Y-37268911D01*
X91043338Y-37268918D01*
X91225382Y-37408607D01*
X91225385Y-37408608D01*
X91225388Y-37408611D01*
X91424112Y-37523344D01*
X91424117Y-37523346D01*
X91424123Y-37523349D01*
X91475025Y-37544433D01*
X91636113Y-37611158D01*
X91857762Y-37670548D01*
X92085266Y-37700500D01*
X92085273Y-37700500D01*
X92314727Y-37700500D01*
X92314734Y-37700500D01*
X92542238Y-37670548D01*
X92763887Y-37611158D01*
X92975888Y-37523344D01*
X93174612Y-37408611D01*
X93356661Y-37268919D01*
X93356665Y-37268914D01*
X93356670Y-37268911D01*
X93518911Y-37106670D01*
X93518914Y-37106665D01*
X93518919Y-37106661D01*
X93658611Y-36924612D01*
X93773344Y-36725888D01*
X93861158Y-36513887D01*
X93920548Y-36292238D01*
X93950500Y-36064734D01*
X93950500Y-35835266D01*
X93920548Y-35607762D01*
X93861158Y-35386113D01*
X93811190Y-35265480D01*
X93773349Y-35174123D01*
X93773346Y-35174117D01*
X93773344Y-35174112D01*
X93658611Y-34975388D01*
X93658608Y-34975385D01*
X93658607Y-34975382D01*
X93518918Y-34793338D01*
X93518911Y-34793330D01*
X93356670Y-34631089D01*
X93356661Y-34631081D01*
X93174617Y-34491392D01*
X92975890Y-34376657D01*
X92975876Y-34376650D01*
X92763887Y-34288842D01*
X92728846Y-34279453D01*
X92542238Y-34229452D01*
X92504215Y-34224446D01*
X92314741Y-34199500D01*
X92314734Y-34199500D01*
X92085266Y-34199500D01*
X92085258Y-34199500D01*
X91868715Y-34228009D01*
X91857762Y-34229452D01*
X91782941Y-34249500D01*
X91636112Y-34288842D01*
X91424123Y-34376650D01*
X91424109Y-34376657D01*
X91225382Y-34491392D01*
X91043338Y-34631081D01*
X90881081Y-34793338D01*
X90741392Y-34975382D01*
X90626657Y-35174109D01*
X90626650Y-35174123D01*
X90538842Y-35386112D01*
X90525445Y-35436112D01*
X90481269Y-35600983D01*
X90479453Y-35607759D01*
X90479451Y-35607770D01*
X90449500Y-35835258D01*
X64101700Y-35835258D01*
X64101700Y-35721158D01*
X64101700Y-35721155D01*
X64101699Y-35721153D01*
X64070937Y-35566503D01*
X64070935Y-35566498D01*
X64010597Y-35420827D01*
X64010590Y-35420814D01*
X63922989Y-35289711D01*
X63922986Y-35289707D01*
X63811492Y-35178213D01*
X63811488Y-35178210D01*
X63680385Y-35090609D01*
X63680372Y-35090602D01*
X63534701Y-35030264D01*
X63534689Y-35030261D01*
X63380045Y-34999500D01*
X63380042Y-34999500D01*
X63222358Y-34999500D01*
X63222355Y-34999500D01*
X63067710Y-35030261D01*
X63067698Y-35030264D01*
X62922027Y-35090602D01*
X62922014Y-35090609D01*
X62790911Y-35178210D01*
X62790907Y-35178213D01*
X62679413Y-35289707D01*
X62679410Y-35289711D01*
X62591809Y-35420814D01*
X62591802Y-35420827D01*
X62531464Y-35566498D01*
X62531461Y-35566510D01*
X62500700Y-35721153D01*
X46078894Y-35721153D01*
X46070548Y-35657762D01*
X46011158Y-35436113D01*
X45950516Y-35289711D01*
X45923349Y-35224123D01*
X45923346Y-35224117D01*
X45923344Y-35224112D01*
X45808611Y-35025388D01*
X45808608Y-35025385D01*
X45808607Y-35025382D01*
X45668918Y-34843338D01*
X45668911Y-34843330D01*
X45506670Y-34681089D01*
X45506661Y-34681081D01*
X45324617Y-34541392D01*
X45125890Y-34426657D01*
X45125876Y-34426650D01*
X44913887Y-34338842D01*
X44692238Y-34279452D01*
X44654215Y-34274446D01*
X44464741Y-34249500D01*
X44464734Y-34249500D01*
X44235266Y-34249500D01*
X44235258Y-34249500D01*
X44018715Y-34278009D01*
X44007762Y-34279452D01*
X43972718Y-34288842D01*
X43786112Y-34338842D01*
X43574123Y-34426650D01*
X43574109Y-34426657D01*
X43375382Y-34541392D01*
X43193338Y-34681081D01*
X43031081Y-34843338D01*
X42891392Y-35025382D01*
X42776657Y-35224109D01*
X42776650Y-35224123D01*
X42688842Y-35436112D01*
X42688842Y-35436113D01*
X42653905Y-35566503D01*
X42629453Y-35657759D01*
X42629451Y-35657770D01*
X42599500Y-35885258D01*
X39107314Y-35885258D01*
X39119072Y-35600961D01*
X39119915Y-35590792D01*
X39174874Y-35149881D01*
X39176554Y-35139809D01*
X39267734Y-34704951D01*
X39270241Y-34695055D01*
X39397022Y-34269205D01*
X39400336Y-34259553D01*
X39561840Y-33845654D01*
X39565954Y-33836275D01*
X39761088Y-33437120D01*
X39765949Y-33428136D01*
X39993389Y-33046445D01*
X39998982Y-33037885D01*
X40257153Y-32676294D01*
X40263422Y-32668240D01*
X40550581Y-32329191D01*
X40557500Y-32321675D01*
X40871675Y-32007500D01*
X40879191Y-32000581D01*
X41218240Y-31713422D01*
X41226294Y-31707153D01*
X41587885Y-31448982D01*
X41596445Y-31443389D01*
X41978136Y-31215949D01*
X41987120Y-31211088D01*
X42386280Y-31015951D01*
X42395654Y-31011840D01*
X42809553Y-30850336D01*
X42819205Y-30847022D01*
X43245055Y-30720241D01*
X43254951Y-30717734D01*
X43689809Y-30626554D01*
X43699881Y-30624874D01*
X44140792Y-30569915D01*
X44150961Y-30569072D01*
X44597437Y-30550605D01*
X44602561Y-30550500D01*
X44665892Y-30550500D01*
X92434108Y-30550500D01*
X92497439Y-30550500D01*
X92502562Y-30550605D01*
G37*
%TD.AperFunction*%
%TD*%
%TA.AperFunction,Conductor*%
%TO.N,Buck_Out*%
G36*
X76393039Y-37969685D02*
G01*
X76438794Y-38022489D01*
X76450000Y-38074000D01*
X76450000Y-45300000D01*
X76750000Y-45600000D01*
X79450000Y-45600000D01*
X80263681Y-44786319D01*
X80325004Y-44752834D01*
X80351362Y-44750000D01*
X82126000Y-44750000D01*
X82193039Y-44769685D01*
X82238794Y-44822489D01*
X82250000Y-44874000D01*
X82250000Y-48076000D01*
X82230315Y-48143039D01*
X82177511Y-48188794D01*
X82126000Y-48200000D01*
X76900000Y-48200000D01*
X76900000Y-51498638D01*
X76891355Y-51528078D01*
X76884832Y-51558065D01*
X76881077Y-51563080D01*
X76880315Y-51565677D01*
X76863681Y-51586319D01*
X76836319Y-51613681D01*
X76774996Y-51647166D01*
X76748638Y-51650000D01*
X67924000Y-51650000D01*
X67856961Y-51630315D01*
X67811206Y-51577511D01*
X67800000Y-51526000D01*
X67800000Y-38074000D01*
X67819685Y-38006961D01*
X67872489Y-37961206D01*
X67924000Y-37950000D01*
X76326000Y-37950000D01*
X76393039Y-37969685D01*
G37*
%TD.AperFunction*%
%TD*%
%TA.AperFunction,Conductor*%
%TO.N,LDO_out*%
G36*
X93815677Y-44719685D02*
G01*
X93836319Y-44736319D01*
X94350000Y-45250000D01*
X95676000Y-45250000D01*
X95743039Y-45269685D01*
X95788794Y-45322489D01*
X95800000Y-45374000D01*
X95800000Y-49148638D01*
X95791355Y-49178078D01*
X95784832Y-49208065D01*
X95781077Y-49213080D01*
X95780315Y-49215677D01*
X95763681Y-49236319D01*
X95736319Y-49263681D01*
X95674996Y-49297166D01*
X95648638Y-49300000D01*
X88950000Y-49300000D01*
X88950000Y-51648638D01*
X88930315Y-51715677D01*
X88913681Y-51736319D01*
X87750000Y-52899999D01*
X87750000Y-52900000D01*
X87750000Y-57100000D01*
X88550000Y-57900000D01*
X93048638Y-57900000D01*
X93115677Y-57919685D01*
X93136319Y-57936319D01*
X93413681Y-58213681D01*
X93447166Y-58275004D01*
X93450000Y-58301362D01*
X93450000Y-69076000D01*
X93430315Y-69143039D01*
X93377511Y-69188794D01*
X93326000Y-69200000D01*
X73574000Y-69200000D01*
X73506961Y-69180315D01*
X73461206Y-69127511D01*
X73450000Y-69076000D01*
X73450000Y-64724000D01*
X73469685Y-64656961D01*
X73522489Y-64611206D01*
X73574000Y-64600000D01*
X78150000Y-64600000D01*
X78150000Y-54924000D01*
X78169685Y-54856961D01*
X78222489Y-54811206D01*
X78274000Y-54800000D01*
X82600000Y-54800000D01*
X83500000Y-53900000D01*
X83500000Y-48724000D01*
X83519685Y-48656961D01*
X83572489Y-48611206D01*
X83624000Y-48600000D01*
X85700000Y-48600000D01*
X85700000Y-46074000D01*
X85719685Y-46006961D01*
X85772489Y-45961206D01*
X85824000Y-45950000D01*
X88400000Y-45950000D01*
X88400000Y-45301362D01*
X88419685Y-45234323D01*
X88436319Y-45213681D01*
X88913681Y-44736319D01*
X88975004Y-44702834D01*
X89001362Y-44700000D01*
X93748638Y-44700000D01*
X93815677Y-44719685D01*
G37*
%TD.AperFunction*%
%TD*%
M02*
