%TF.GenerationSoftware,KiCad,Pcbnew,9.0.6*%
%TF.CreationDate,2026-07-15T22:48:08-07:00*%
%TF.ProjectId,Ebyte_PCB,45627974-655f-4504-9342-2e6b69636164,rev?*%
%TF.SameCoordinates,Original*%
%TF.FileFunction,Copper,L1,Top*%
%TF.FilePolarity,Positive*%
%FSLAX46Y46*%
G04 Gerber Fmt 4.6, Leading zero omitted, Abs format (unit mm)*
G04 Created by KiCad (PCBNEW 9.0.6) date 2026-07-15 22:48:08*
%MOMM*%
%LPD*%
G01*
G04 APERTURE LIST*
G04 Aperture macros list*
%AMRoundRect*
0 Rectangle with rounded corners*
0 $1 Rounding radius*
0 $2 $3 $4 $5 $6 $7 $8 $9 X,Y pos of 4 corners*
0 Add a 4 corners polygon primitive as box body*
4,1,4,$2,$3,$4,$5,$6,$7,$8,$9,$2,$3,0*
0 Add four circle primitives for the rounded corners*
1,1,$1+$1,$2,$3*
1,1,$1+$1,$4,$5*
1,1,$1+$1,$6,$7*
1,1,$1+$1,$8,$9*
0 Add four rect primitives between the rounded corners*
20,1,$1+$1,$2,$3,$4,$5,0*
20,1,$1+$1,$4,$5,$6,$7,0*
20,1,$1+$1,$6,$7,$8,$9,0*
20,1,$1+$1,$8,$9,$2,$3,0*%
G04 Aperture macros list end*
%TA.AperFunction,SMDPad,CuDef*%
%ADD10R,0.800000X0.900000*%
%TD*%
%TA.AperFunction,SMDPad,CuDef*%
%ADD11R,2.514600X2.641600*%
%TD*%
%TA.AperFunction,SMDPad,CuDef*%
%ADD12R,1.728000X1.485000*%
%TD*%
%TA.AperFunction,SMDPad,CuDef*%
%ADD13RoundRect,0.250000X-0.785000X-1.045000X0.785000X-1.045000X0.785000X1.045000X-0.785000X1.045000X0*%
%TD*%
%TA.AperFunction,ComponentPad*%
%ADD14R,1.200000X1.200000*%
%TD*%
%TA.AperFunction,ComponentPad*%
%ADD15C,1.200000*%
%TD*%
%TA.AperFunction,SMDPad,CuDef*%
%ADD16R,3.500000X2.000000*%
%TD*%
%TA.AperFunction,SMDPad,CuDef*%
%ADD17R,2.000000X3.500000*%
%TD*%
%TA.AperFunction,SMDPad,CuDef*%
%ADD18R,0.900000X0.800000*%
%TD*%
%TA.AperFunction,SMDPad,CuDef*%
%ADD19R,2.700000X1.635000*%
%TD*%
%TA.AperFunction,SMDPad,CuDef*%
%ADD20R,0.864000X0.806000*%
%TD*%
%TA.AperFunction,SMDPad,CuDef*%
%ADD21R,0.806000X0.864000*%
%TD*%
%TA.AperFunction,SMDPad,CuDef*%
%ADD22R,0.585000X0.280000*%
%TD*%
%TA.AperFunction,SMDPad,CuDef*%
%ADD23R,0.280000X0.585000*%
%TD*%
%TA.AperFunction,SMDPad,CuDef*%
%ADD24R,1.700000X4.750000*%
%TD*%
%TA.AperFunction,SMDPad,CuDef*%
%ADD25R,1.895000X2.500000*%
%TD*%
%TA.AperFunction,SMDPad,CuDef*%
%ADD26R,0.600000X1.100000*%
%TD*%
%TA.AperFunction,ComponentPad*%
%ADD27C,0.610000*%
%TD*%
%TA.AperFunction,SMDPad,CuDef*%
%ADD28O,1.941000X0.602000*%
%TD*%
%TA.AperFunction,SMDPad,CuDef*%
%ADD29R,2.410000X3.098000*%
%TD*%
%TA.AperFunction,ComponentPad*%
%ADD30RoundRect,0.250000X0.575000X-0.350000X0.575000X0.350000X-0.575000X0.350000X-0.575000X-0.350000X0*%
%TD*%
%TA.AperFunction,ComponentPad*%
%ADD31O,1.650000X1.200000*%
%TD*%
%TA.AperFunction,SMDPad,CuDef*%
%ADD32R,1.635000X2.700000*%
%TD*%
%TA.AperFunction,ViaPad*%
%ADD33C,0.600000*%
%TD*%
%TA.AperFunction,ViaPad*%
%ADD34C,0.500000*%
%TD*%
%TA.AperFunction,ViaPad*%
%ADD35C,0.700000*%
%TD*%
%TA.AperFunction,Conductor*%
%ADD36C,0.200000*%
%TD*%
%TA.AperFunction,Conductor*%
%ADD37C,1.500000*%
%TD*%
%TA.AperFunction,Conductor*%
%ADD38C,0.391200*%
%TD*%
%TA.AperFunction,Conductor*%
%ADD39C,0.137500*%
%TD*%
%TA.AperFunction,Conductor*%
%ADD40C,0.294100*%
%TD*%
%TA.AperFunction,Conductor*%
%ADD41C,0.400000*%
%TD*%
%TA.AperFunction,Conductor*%
%ADD42C,0.300000*%
%TD*%
G04 APERTURE END LIST*
D10*
%TO.P,C9,1*%
%TO.N,GND*%
X61850000Y-35750000D03*
%TO.P,C9,2*%
%TO.N,Net-(U5-INTVCC)*%
X63250000Y-35750000D03*
%TD*%
D11*
%TO.P,C12,1*%
%TO.N,GND*%
X91230000Y-54320500D03*
%TO.P,C12,2*%
%TO.N,LDO_out*%
X91230000Y-48859500D03*
%TD*%
D12*
%TO.P,C10,1*%
%TO.N,GND*%
X92650000Y-42410000D03*
%TO.P,C10,2*%
%TO.N,LDO_out*%
X92650000Y-45590000D03*
%TD*%
%TO.P,C5,1*%
%TO.N,GND*%
X78310000Y-44080000D03*
%TO.P,C5,2*%
%TO.N,Buck_Out*%
X78310000Y-47260000D03*
%TD*%
D10*
%TO.P,C15,1*%
%TO.N,3v3*%
X44100000Y-65100000D03*
%TO.P,C15,2*%
%TO.N,GND*%
X42700000Y-65100000D03*
%TD*%
D13*
%TO.P,C14,1*%
%TO.N,GND*%
X79990000Y-51590000D03*
%TO.P,C14,2*%
%TO.N,LDO_out*%
X86230000Y-51590000D03*
%TD*%
D14*
%TO.P,U3,1,1*%
%TO.N,ANT*%
X43650000Y-90950000D03*
D15*
%TO.P,U3,2,2*%
%TO.N,GND*%
X44920000Y-89680000D03*
%TO.P,U3,3,3*%
X42380000Y-89680000D03*
%TO.P,U3,4,4*%
X42380000Y-92220000D03*
%TO.P,U3,5,5*%
X44920000Y-92220000D03*
%TD*%
D16*
%TO.P,U2,1,GND*%
%TO.N,GND*%
X75180000Y-93490000D03*
%TO.P,U2,2,GND*%
X75180000Y-90950000D03*
%TO.P,U2,3,GND*%
X75180000Y-88410000D03*
%TO.P,U2,4,GND*%
X75180000Y-80840000D03*
%TO.P,U2,5,GND*%
X75180000Y-78300000D03*
%TO.P,U2,6,RXEN*%
%TO.N,Net-(U2-RXEN)*%
X75180000Y-75760000D03*
%TO.P,U2,7,TXEN*%
%TO.N,TXEN*%
X75180000Y-73220000D03*
%TO.P,U2,8,DIO2*%
%TO.N,unconnected-(U2-DIO2-Pad8)*%
X75180000Y-70680000D03*
%TO.P,U2,9,VCC*%
%TO.N,LDO_out*%
X75180000Y-68140000D03*
%TO.P,U2,10,VCC*%
X75180000Y-65600000D03*
%TO.P,U2,11,GND*%
%TO.N,GND*%
X75180000Y-63060000D03*
D17*
%TO.P,U2,12,GND*%
X69530000Y-60450000D03*
%TO.P,U2,13,NC*%
%TO.N,unconnected-(U2-NC-Pad13)*%
X66990000Y-60450000D03*
%TO.P,U2,14,DIO3*%
%TO.N,unconnected-(U2-DIO3-Pad14)*%
X64450000Y-60450000D03*
%TO.P,U2,15,DIO4*%
%TO.N,unconnected-(U2-DIO4-Pad15)*%
X61910000Y-60450000D03*
%TO.P,U2,16,DIO5*%
%TO.N,unconnected-(U2-DIO5-Pad16)*%
X59370000Y-60450000D03*
%TO.P,U2,17,GND*%
%TO.N,GND*%
X56830000Y-60450000D03*
D16*
%TO.P,U2,18,GND*%
X51180000Y-63060000D03*
%TO.P,U2,19,DIO1*%
%TO.N,GPIO1_25*%
X51180000Y-65600000D03*
%TO.P,U2,20,DIO0*%
%TO.N,unconnected-(U2-DIO0-Pad20)*%
X51180000Y-68140000D03*
%TO.P,U2,21,NRST*%
%TO.N,RST*%
X51180000Y-70680000D03*
%TO.P,U2,22,MISO*%
%TO.N,Net-(U2-MISO)*%
X51180000Y-73220000D03*
%TO.P,U2,23,MOSI*%
%TO.N,SPI1_SDO*%
X51180000Y-75760000D03*
%TO.P,U2,24,SCLK*%
%TO.N,SPI1_SCK*%
X51180000Y-78300000D03*
%TO.P,U2,25,NSS*%
%TO.N,SPI1_CS1*%
X51180000Y-80840000D03*
%TO.P,U2,26,GND*%
%TO.N,GND*%
X51180000Y-88410000D03*
%TO.P,U2,27,ANT*%
%TO.N,ANT*%
X51180000Y-90950000D03*
%TO.P,U2,28,GND*%
%TO.N,GND*%
X51180000Y-93490000D03*
%TD*%
D18*
%TO.P,C2,1*%
%TO.N,GND*%
X80874000Y-70142000D03*
%TO.P,C2,2*%
%TO.N,LDO_out*%
X80874000Y-68742000D03*
%TD*%
D19*
%TO.P,C4,1*%
%TO.N,GND*%
X58350000Y-44140000D03*
%TO.P,C4,2*%
%TO.N,VIN*%
X58350000Y-41100000D03*
%TD*%
D20*
%TO.P,R4,1*%
%TO.N,Net-(U4-ADJ)*%
X95150000Y-44350000D03*
%TO.P,R4,2*%
%TO.N,LDO_out*%
X95150000Y-45850000D03*
%TD*%
D21*
%TO.P,R2,1*%
%TO.N,PG*%
X82450000Y-76450000D03*
%TO.P,R2,2*%
%TO.N,Net-(U2-RXEN)*%
X80950000Y-76450000D03*
%TD*%
D20*
%TO.P,R8,1*%
%TO.N,GND*%
X80850000Y-74200000D03*
%TO.P,R8,2*%
%TO.N,TXEN*%
X80850000Y-72700000D03*
%TD*%
D22*
%TO.P,U5,1,SYNC*%
%TO.N,GND*%
X61030000Y-38280000D03*
%TO.P,U5,2,TR/SS*%
%TO.N,Net-(U5-TR{slash}SS)*%
X61030000Y-38780000D03*
%TO.P,U5,3,RT*%
%TO.N,Net-(U5-RT)*%
X61030000Y-39280000D03*
%TO.P,U5,4,EN/UV*%
%TO.N,VIN*%
X61030000Y-39780000D03*
%TO.P,U5,5,VIN*%
X61030000Y-40280000D03*
%TO.P,U5,6,VIN*%
X61030000Y-40780000D03*
%TO.P,U5,7,VIN*%
X61030000Y-41280000D03*
%TO.P,U5,8,PGND*%
%TO.N,GND*%
X61030000Y-41780000D03*
%TO.P,U5,9,PGND*%
X61030000Y-42280000D03*
%TO.P,U5,10,PGND*%
X61030000Y-42780000D03*
D23*
%TO.P,U5,11,GND*%
X61700000Y-43450000D03*
%TO.P,U5,12,GND*%
X62200000Y-43450000D03*
%TO.P,U5,13,GND*%
X62700000Y-43450000D03*
%TO.P,U5,14,GND*%
X63200000Y-43450000D03*
D22*
%TO.P,U5,15,SW*%
%TO.N,Net-(C6-Pad1)*%
X63870000Y-42780000D03*
%TO.P,U5,16,SW*%
X63870000Y-42280000D03*
%TO.P,U5,17,SW*%
X63870000Y-41780000D03*
%TO.P,U5,18,SW*%
X63870000Y-41280000D03*
%TO.P,U5,19,SW*%
X63870000Y-40780000D03*
%TO.P,U5,20,BST*%
%TO.N,Net-(U5-BST)*%
X63870000Y-40280000D03*
%TO.P,U5,21,INTVCC*%
%TO.N,Net-(U5-INTVCC)*%
X63870000Y-39780000D03*
%TO.P,U5,22,BIAS*%
%TO.N,Buck_Out*%
X63870000Y-39280000D03*
%TO.P,U5,23,PG*%
%TO.N,PG*%
X63870000Y-38780000D03*
%TO.P,U5,24,FB*%
%TO.N,Net-(U5-FB)*%
X63870000Y-38280000D03*
D23*
%TO.P,U5,25,NC*%
%TO.N,unconnected-(U5-NC-Pad25)*%
X63200000Y-37610000D03*
%TO.P,U5,26,NC*%
%TO.N,unconnected-(U5-NC-Pad26)*%
X62700000Y-37610000D03*
%TO.P,U5,27,NC*%
%TO.N,unconnected-(U5-NC-Pad27)*%
X62200000Y-37610000D03*
%TO.P,U5,28,NC*%
%TO.N,unconnected-(U5-NC-Pad28)*%
X61700000Y-37610000D03*
D24*
%TO.P,U5,29,GND*%
%TO.N,GND*%
X62450000Y-40530000D03*
%TD*%
D20*
%TO.P,R10,1*%
%TO.N,3v3*%
X55500000Y-44850000D03*
%TO.P,R10,2*%
%TO.N,PG*%
X55500000Y-46350000D03*
%TD*%
%TO.P,R7,1*%
%TO.N,Buck_Out*%
X71300000Y-36950000D03*
%TO.P,R7,2*%
%TO.N,Net-(U5-FB)*%
X71300000Y-35450000D03*
%TD*%
D21*
%TO.P,R9,1*%
%TO.N,RXEN*%
X82450000Y-78500000D03*
%TO.P,R9,2*%
%TO.N,Net-(U2-RXEN)*%
X80950000Y-78500000D03*
%TD*%
D10*
%TO.P,C3,1*%
%TO.N,GND*%
X57900000Y-36348800D03*
%TO.P,C3,2*%
%TO.N,Net-(U5-TR{slash}SS)*%
X59300000Y-36348800D03*
%TD*%
D20*
%TO.P,R1,1*%
%TO.N,SPI1_SDI*%
X47200000Y-50200000D03*
%TO.P,R1,2*%
%TO.N,Net-(R1-Pad2)*%
X47200000Y-48700000D03*
%TD*%
D18*
%TO.P,C8,1*%
%TO.N,Net-(U5-FB)*%
X69200000Y-35500000D03*
%TO.P,C8,2*%
%TO.N,Buck_Out*%
X69200000Y-36900000D03*
%TD*%
D25*
%TO.P,L1,1*%
%TO.N,Net-(C6-Pad1)*%
X66350000Y-41050000D03*
%TO.P,L1,2*%
%TO.N,Buck_Out*%
X70450000Y-41050000D03*
%TD*%
D10*
%TO.P,C6,1*%
%TO.N,Net-(C6-Pad1)*%
X66900000Y-36850000D03*
%TO.P,C6,2*%
%TO.N,Net-(U5-BST)*%
X65500000Y-36850000D03*
%TD*%
D20*
%TO.P,R6,1*%
%TO.N,GND*%
X73350000Y-37000000D03*
%TO.P,R6,2*%
%TO.N,Net-(U5-FB)*%
X73350000Y-35500000D03*
%TD*%
D26*
%TO.P,U6,1,OE*%
%TO.N,X_PGOOD*%
X43850000Y-69650000D03*
%TO.P,U6,2,A*%
%TO.N,Net-(U2-MISO)*%
X44800000Y-69650000D03*
%TO.P,U6,3,GND*%
%TO.N,GND*%
X45750000Y-69650000D03*
%TO.P,U6,4,Y*%
%TO.N,SPI1_SDI*%
X45750000Y-67050000D03*
%TO.P,U6,5,VCC*%
%TO.N,3v3*%
X43850000Y-67050000D03*
%TD*%
D27*
%TO.P,U4,*%
%TO.N,GND*%
X84480000Y-45320000D03*
X83480000Y-45320000D03*
X84480000Y-46320000D03*
X83480000Y-46320000D03*
D28*
%TO.P,U4,1,GND*%
X81260000Y-43920000D03*
%TO.P,U4,2,EN*%
%TO.N,Buck_Out*%
X81260000Y-45190000D03*
%TO.P,U4,3,IN*%
X81260000Y-46450000D03*
%TO.P,U4,4,IN*%
X81260000Y-47720000D03*
%TO.P,U4,5,OUT*%
%TO.N,LDO_out*%
X86700000Y-47720000D03*
%TO.P,U4,6,OUT*%
X86700000Y-46450000D03*
%TO.P,U4,7,ADJ*%
%TO.N,Net-(U4-ADJ)*%
X86700000Y-45190000D03*
%TO.P,U4,8,FLG*%
%TO.N,unconnected-(U4-FLG-Pad8)*%
X86700000Y-43920000D03*
D29*
%TO.P,U4,9,EP*%
%TO.N,GND*%
X83980000Y-45820000D03*
%TD*%
D30*
%TO.P,U1,1*%
%TO.N,SPI1_CS1*%
X50450000Y-52700000D03*
D31*
%TO.P,U1,2*%
%TO.N,GPIO1_25*%
X52450000Y-52700000D03*
%TO.P,U1,3*%
%TO.N,SPI1_SDO*%
X50450000Y-50700000D03*
%TO.P,U1,4*%
%TO.N,RXEN*%
X52450000Y-50700000D03*
%TO.P,U1,5*%
%TO.N,Net-(R1-Pad2)*%
X50450000Y-48700000D03*
%TO.P,U1,6*%
%TO.N,TXEN*%
X52450000Y-48700000D03*
%TO.P,U1,7*%
%TO.N,SPI1_SCK*%
X50450000Y-46700000D03*
%TO.P,U1,8*%
%TO.N,RST*%
X52450000Y-46700000D03*
%TO.P,U1,9*%
%TO.N,X_PGOOD*%
X50450000Y-44700000D03*
%TO.P,U1,10*%
%TO.N,3v3*%
X52450000Y-44700000D03*
%TO.P,U1,11*%
%TO.N,GND*%
X50450000Y-42700000D03*
%TO.P,U1,12*%
X52450000Y-42700000D03*
%TO.P,U1,13*%
X50450000Y-40700000D03*
%TO.P,U1,14*%
%TO.N,VIN*%
X52450000Y-40700000D03*
%TO.P,U1,15*%
%TO.N,GND*%
X50450000Y-38700000D03*
%TO.P,U1,16*%
%TO.N,VIN*%
X52450000Y-38700000D03*
%TD*%
D32*
%TO.P,C11,1*%
%TO.N,GND*%
X65980000Y-46050000D03*
%TO.P,C11,2*%
%TO.N,Buck_Out*%
X69020000Y-46050000D03*
%TD*%
D21*
%TO.P,R3,1*%
%TO.N,GND*%
X57850000Y-38600000D03*
%TO.P,R3,2*%
%TO.N,Net-(U5-RT)*%
X59350000Y-38600000D03*
%TD*%
D12*
%TO.P,C1,1*%
%TO.N,GND*%
X83930000Y-72172000D03*
%TO.P,C1,2*%
%TO.N,LDO_out*%
X83930000Y-68992000D03*
%TD*%
%TO.P,C7,1*%
%TO.N,GND*%
X89650000Y-42410000D03*
%TO.P,C7,2*%
%TO.N,LDO_out*%
X89650000Y-45590000D03*
%TD*%
D20*
%TO.P,R5,1*%
%TO.N,GND*%
X95150000Y-40700000D03*
%TO.P,R5,2*%
%TO.N,Net-(U4-ADJ)*%
X95150000Y-42200000D03*
%TD*%
D32*
%TO.P,C13,1*%
%TO.N,GND*%
X65830000Y-50200000D03*
%TO.P,C13,2*%
%TO.N,Buck_Out*%
X68870000Y-50200000D03*
%TD*%
D33*
%TO.N,SPI1_CS1*%
X46500000Y-57350000D03*
%TO.N,GND*%
X48750000Y-90200000D03*
X47100000Y-90200000D03*
X92250000Y-42050000D03*
X57600000Y-42750000D03*
X61950000Y-40450000D03*
X62950000Y-42500000D03*
X51180000Y-88410000D03*
X59000000Y-44450000D03*
D34*
X61030000Y-42780000D03*
D33*
X61350000Y-50650000D03*
X83930000Y-72172000D03*
X61950000Y-41150000D03*
X42700000Y-65100000D03*
X59000000Y-43750000D03*
X90000000Y-42050000D03*
X90000000Y-42700000D03*
X75180000Y-63060000D03*
X93050000Y-42700000D03*
X43650000Y-89750000D03*
X75180000Y-78300000D03*
X58250000Y-50600000D03*
X51180000Y-63060000D03*
X69530000Y-60450000D03*
X63000000Y-50650000D03*
X57850000Y-38600000D03*
X91900000Y-55000000D03*
X62950000Y-41150000D03*
X63000000Y-46050000D03*
X59900000Y-47500000D03*
X45750000Y-69650000D03*
X80850000Y-74200000D03*
X59200000Y-42700000D03*
X80450000Y-50950000D03*
X59900000Y-50600000D03*
X75180000Y-93490000D03*
X75180000Y-90950000D03*
X43600000Y-92050000D03*
X93050000Y-42050000D03*
X46250000Y-90200000D03*
X61400000Y-47600000D03*
X57700000Y-43800000D03*
X75180000Y-88410000D03*
X80450000Y-52350000D03*
X66150000Y-50700000D03*
X75180000Y-80840000D03*
X73350000Y-37000000D03*
X77900000Y-44350000D03*
X51180000Y-93490000D03*
X79500000Y-50950000D03*
X42450000Y-90950000D03*
X78700000Y-44350000D03*
X92250000Y-42700000D03*
X61950000Y-41800000D03*
X90600000Y-53750000D03*
X89200000Y-42050000D03*
X78700000Y-43700000D03*
X66350000Y-46700000D03*
X66350000Y-45400000D03*
D34*
X62200000Y-43450000D03*
D33*
X57700000Y-44450000D03*
X65550000Y-46650000D03*
X61850000Y-35750000D03*
X62950000Y-41800000D03*
D34*
X63200000Y-43450000D03*
D33*
X65500000Y-50700000D03*
X61950000Y-39150000D03*
X61400000Y-49100000D03*
X46250000Y-91600000D03*
X62950000Y-38500000D03*
D34*
X62700000Y-43450000D03*
D33*
X63000000Y-49150000D03*
X61950000Y-38500000D03*
X79450000Y-52350000D03*
X62950000Y-39800000D03*
X59900000Y-49100000D03*
X56830000Y-60450000D03*
X48750000Y-91600000D03*
X90600000Y-55000000D03*
X89200000Y-42700000D03*
X58300000Y-47550000D03*
X61950000Y-42500000D03*
X47850000Y-91600000D03*
D34*
X61030000Y-42280000D03*
D33*
X62950000Y-39150000D03*
X62950000Y-40450000D03*
X65500000Y-49600000D03*
X59900000Y-46000000D03*
X95150000Y-40700000D03*
X91800000Y-53800000D03*
X66200000Y-49600000D03*
X77900000Y-43700000D03*
X58300000Y-45950000D03*
X81260000Y-43920000D03*
X58300000Y-49050000D03*
X80874000Y-70142000D03*
D34*
X61700000Y-43450000D03*
D33*
X63000000Y-47550000D03*
X61950000Y-39800000D03*
X47900000Y-90200000D03*
X47100000Y-91600000D03*
X65600000Y-45400000D03*
X61400000Y-46000000D03*
X62000000Y-36600000D03*
X57900000Y-36348800D03*
%TO.N,SPI1_SDO*%
X47450000Y-73550000D03*
%TO.N,SPI1_CS1*%
X46050000Y-75050000D03*
D35*
%TO.N,TXEN*%
X55500000Y-51750000D03*
D33*
X75800000Y-72800000D03*
%TO.N,SPI1_SDI*%
X45750000Y-54900000D03*
%TO.N,RXEN*%
X82450000Y-78500000D03*
D35*
X55525000Y-53775000D03*
D33*
%TO.N,RST*%
X54550000Y-55650000D03*
D35*
%TO.N,SPI1_SCK*%
X41550000Y-58950000D03*
D33*
%TO.N,X_PGOOD*%
X43850000Y-69700000D03*
D35*
X43850000Y-48950000D03*
D33*
%TO.N,Buck_Out*%
X76400000Y-48250000D03*
X76400000Y-47250000D03*
X70600000Y-47150000D03*
X71400000Y-38750000D03*
X70650000Y-50700000D03*
X70600000Y-49150000D03*
X70600000Y-45800000D03*
X76400000Y-46300000D03*
D34*
%TO.N,Net-(U5-BST)*%
X64602498Y-40489027D03*
D33*
X65500000Y-36850000D03*
%TO.N,Net-(C6-Pad1)*%
X66900000Y-36850000D03*
X66350000Y-41050000D03*
%TO.N,LDO_out*%
X77450000Y-65000000D03*
X83800000Y-54650000D03*
X94700000Y-48450000D03*
X77350000Y-68500000D03*
X77400000Y-66050000D03*
X83900000Y-67200000D03*
X87950000Y-50050000D03*
X94650000Y-47350000D03*
X88250000Y-47100000D03*
X77350000Y-67500000D03*
X87950000Y-51250000D03*
X86300000Y-54650000D03*
X87950000Y-49000000D03*
X80800000Y-67200000D03*
%TO.N,Net-(U5-INTVCC)*%
X63301200Y-35800000D03*
D34*
X64850000Y-39750000D03*
D33*
%TO.N,PG*%
X82450000Y-76400000D03*
D35*
X55550000Y-48300000D03*
D33*
X55550000Y-46350000D03*
D34*
X64650000Y-38500000D03*
D33*
%TO.N,3v3*%
X44800000Y-50800000D03*
%TD*%
D36*
%TO.N,GND*%
X61030000Y-41780000D02*
X61030000Y-42280000D01*
D37*
%TO.N,VIN*%
X52450000Y-38700000D02*
X52450000Y-40700000D01*
X52450000Y-40700000D02*
X55050000Y-40700000D01*
D36*
%TO.N,SPI1_SDO*%
X47450000Y-73550000D02*
X47450000Y-73600000D01*
X47450000Y-73600000D02*
X49610000Y-75760000D01*
X49610000Y-75760000D02*
X51180000Y-75760000D01*
%TO.N,SPI1_CS1*%
X46500500Y-56149500D02*
X46500500Y-57350500D01*
X50430000Y-80840000D02*
X46050000Y-76460000D01*
X46050000Y-76460000D02*
X46050000Y-75050000D01*
X51180000Y-80840000D02*
X50430000Y-80840000D01*
X49950000Y-52700000D02*
X46500500Y-56149500D01*
X50450000Y-52700000D02*
X49950000Y-52700000D01*
%TO.N,TXEN*%
X80850000Y-72700000D02*
X79550000Y-72700000D01*
X79550000Y-72700000D02*
X75700000Y-72700000D01*
X75700000Y-72700000D02*
X75180000Y-73220000D01*
D38*
%TO.N,SPI1_SDI*%
X45750000Y-67050000D02*
X45750000Y-54900000D01*
X47200000Y-50200000D02*
X46350000Y-50200000D01*
X46350000Y-50200000D02*
X45750000Y-50800000D01*
X45750000Y-54900000D02*
X45750000Y-50800000D01*
D36*
%TO.N,RST*%
X54550000Y-55650000D02*
X54550000Y-48800000D01*
X54550000Y-67950000D02*
X54550000Y-55650000D01*
X51820000Y-70680000D02*
X54550000Y-67950000D01*
X51180000Y-70680000D02*
X51820000Y-70680000D01*
X54550000Y-48800000D02*
X52450000Y-46700000D01*
%TO.N,SPI1_SCK*%
X41550000Y-52650000D02*
X47500000Y-46700000D01*
X47500000Y-46700000D02*
X50450000Y-46700000D01*
X41550000Y-58950000D02*
X41550000Y-52650000D01*
X41550000Y-69420000D02*
X41550000Y-58950000D01*
X51180000Y-78300000D02*
X50430000Y-78300000D01*
X50430000Y-78300000D02*
X41550000Y-69420000D01*
D39*
%TO.N,ANT*%
X43700000Y-90900000D02*
X43650000Y-90950000D01*
D40*
X51144000Y-90900000D02*
X43700000Y-90900000D01*
D36*
%TO.N,X_PGOOD*%
X50450000Y-44700000D02*
X48100000Y-44700000D01*
X48100000Y-44700000D02*
X43850000Y-48950000D01*
%TO.N,Net-(R1-Pad2)*%
X50450000Y-48700000D02*
X47200000Y-48700000D01*
%TO.N,Net-(U4-ADJ)*%
X94800000Y-44000000D02*
X95150000Y-44350000D01*
X95150000Y-44350000D02*
X95150000Y-42200000D01*
X87660000Y-45190000D02*
X88850000Y-44000000D01*
X88850000Y-44000000D02*
X94800000Y-44000000D01*
X86700000Y-45190000D02*
X87660000Y-45190000D01*
%TO.N,Net-(U5-TR{slash}SS)*%
X61030000Y-38780000D02*
X60495500Y-38780000D01*
X60054000Y-37102800D02*
X59300000Y-36348800D01*
X60495500Y-38780000D02*
X60054000Y-38338500D01*
X60054000Y-38338500D02*
X60054000Y-37102800D01*
D41*
%TO.N,Buck_Out*%
X65125000Y-39100000D02*
X65450000Y-39100000D01*
D36*
X69020000Y-50050000D02*
X68870000Y-50200000D01*
D42*
X65076000Y-39149000D02*
X65125000Y-39100000D01*
X64470057Y-39280000D02*
X64601057Y-39149000D01*
D41*
X65450000Y-39100000D02*
X65750000Y-38800000D01*
D36*
X68651500Y-45681500D02*
X69020000Y-46050000D01*
D42*
X63870000Y-39280000D02*
X64470057Y-39280000D01*
X64601057Y-39149000D02*
X65076000Y-39149000D01*
D36*
%TO.N,Net-(U5-BST)*%
X64551668Y-40489027D02*
X64362641Y-40300000D01*
X64362641Y-40300000D02*
X63890000Y-40300000D01*
X64602498Y-40489027D02*
X64551668Y-40489027D01*
X63890000Y-40300000D02*
X63870000Y-40280000D01*
%TO.N,Net-(C6-Pad1)*%
X65750000Y-40700000D02*
X66350000Y-40100000D01*
%TO.N,Net-(U5-FB)*%
X63870000Y-38280000D02*
X63870000Y-37028000D01*
X65398000Y-35500000D02*
X69200000Y-35500000D01*
X69050000Y-35500000D02*
X73350000Y-35500000D01*
X63870000Y-37028000D02*
X65398000Y-35500000D01*
%TO.N,Net-(U5-INTVCC)*%
X63870000Y-39780000D02*
X64820000Y-39780000D01*
X64820000Y-39780000D02*
X64850000Y-39750000D01*
%TO.N,Net-(U5-RT)*%
X59780000Y-39280000D02*
X59350000Y-38850000D01*
X61030000Y-39280000D02*
X59780000Y-39280000D01*
X59350000Y-38850000D02*
X59350000Y-38600000D01*
%TO.N,Net-(U2-RXEN)*%
X75870000Y-76450000D02*
X75180000Y-75760000D01*
X79700000Y-76450000D02*
X75870000Y-76450000D01*
X80950000Y-76450000D02*
X79700000Y-76450000D01*
X80950000Y-78500000D02*
X80950000Y-76450000D01*
%TO.N,PG*%
X64650000Y-38500000D02*
X64500000Y-38500000D01*
X63870000Y-38780000D02*
X64332247Y-38780000D01*
X64612247Y-38500000D02*
X64650000Y-38500000D01*
X64332247Y-38780000D02*
X64612247Y-38500000D01*
D41*
%TO.N,3v3*%
X44800000Y-50800000D02*
X44100000Y-51500000D01*
D36*
X55350000Y-44700000D02*
X55500000Y-44850000D01*
X52450000Y-44700000D02*
X55350000Y-44700000D01*
D41*
X44100000Y-66800000D02*
X43850000Y-67050000D01*
X44100000Y-65100000D02*
X44100000Y-66800000D01*
X44100000Y-51500000D02*
X44100000Y-65100000D01*
D36*
%TO.N,GPIO1_25*%
X52600000Y-65100000D02*
X51680000Y-65100000D01*
X53850000Y-54100000D02*
X53850000Y-63850000D01*
X53050000Y-52700000D02*
X52450000Y-52700000D01*
X52450000Y-52700000D02*
X53850000Y-54100000D01*
X53850000Y-63850000D02*
X52600000Y-65100000D01*
X51680000Y-65100000D02*
X51180000Y-65600000D01*
X53100000Y-52750000D02*
X53050000Y-52700000D01*
%TO.N,Net-(U2-MISO)*%
X48370000Y-73220000D02*
X51180000Y-73220000D01*
X44800000Y-69650000D02*
X45149000Y-69999000D01*
X45149000Y-70499000D02*
X45600000Y-70950000D01*
X45149000Y-69999000D02*
X45149000Y-70499000D01*
X46100000Y-70950000D02*
X48370000Y-73220000D01*
X45600000Y-70950000D02*
X46100000Y-70950000D01*
%TD*%
%TA.AperFunction,Conductor*%
%TO.N,LDO_out*%
G36*
X93793039Y-44719685D02*
G01*
X93838794Y-44772489D01*
X93850000Y-44824000D01*
X93850000Y-45200000D01*
X94461887Y-45200000D01*
X94505220Y-45207818D01*
X94610517Y-45247091D01*
X94610516Y-45247091D01*
X94617444Y-45247835D01*
X94670127Y-45253500D01*
X95629872Y-45253499D01*
X95689483Y-45247091D01*
X95689485Y-45247090D01*
X95689487Y-45247090D01*
X95697031Y-45245308D01*
X95697801Y-45248566D01*
X95752261Y-45244628D01*
X95813611Y-45278064D01*
X95847145Y-45339360D01*
X95850000Y-45365815D01*
X95850000Y-49026000D01*
X95830315Y-49093039D01*
X95777511Y-49138794D01*
X95726000Y-49150000D01*
X93614600Y-49150000D01*
X93547561Y-49130315D01*
X93501806Y-49077511D01*
X93490600Y-49026000D01*
X93490600Y-47843500D01*
X92538100Y-47843500D01*
X92538100Y-50107100D01*
X92518415Y-50174139D01*
X92465611Y-50219894D01*
X92414100Y-50231100D01*
X90045900Y-50231100D01*
X89978861Y-50211415D01*
X89933106Y-50158611D01*
X89921900Y-50107100D01*
X89921900Y-47843500D01*
X88969400Y-47843500D01*
X88969400Y-51152273D01*
X88949715Y-51219312D01*
X88945924Y-51224874D01*
X87700000Y-52949999D01*
X87700000Y-59850043D01*
X87749333Y-69075337D01*
X87730007Y-69142481D01*
X87677449Y-69188517D01*
X87625335Y-69200000D01*
X80200000Y-69200000D01*
X77097635Y-69200000D01*
X77054302Y-69192182D01*
X77044475Y-69188517D01*
X77037481Y-69185908D01*
X76977883Y-69179501D01*
X76977881Y-69179500D01*
X76977873Y-69179500D01*
X76977865Y-69179500D01*
X73574000Y-69179500D01*
X73506961Y-69159815D01*
X73461206Y-69107011D01*
X73450000Y-69055500D01*
X73450000Y-64824000D01*
X73469685Y-64756961D01*
X73522489Y-64711206D01*
X73574000Y-64700000D01*
X80209295Y-64700000D01*
X80249490Y-54973488D01*
X80269451Y-54906530D01*
X80322444Y-54860994D01*
X80373489Y-54850000D01*
X82049998Y-54850000D01*
X82050000Y-54850000D01*
X83500000Y-53900002D01*
X83500000Y-48705100D01*
X83519685Y-48638061D01*
X83572489Y-48592306D01*
X83624000Y-48581100D01*
X85700000Y-48581100D01*
X85700000Y-46092556D01*
X85719685Y-46025517D01*
X85772489Y-45979762D01*
X85841647Y-45969818D01*
X85848186Y-45970938D01*
X85951557Y-45991499D01*
X85951558Y-45991500D01*
X85951559Y-45991500D01*
X87448442Y-45991500D01*
X87448443Y-45991499D01*
X87507452Y-45979762D01*
X87603281Y-45960701D01*
X87603283Y-45960700D01*
X87603289Y-45960699D01*
X87606333Y-45959437D01*
X87653783Y-45950000D01*
X88400000Y-45950000D01*
X88400000Y-45350596D01*
X88419685Y-45283557D01*
X88436319Y-45262915D01*
X88962916Y-44736319D01*
X89024239Y-44702834D01*
X89050597Y-44700000D01*
X93726000Y-44700000D01*
X93793039Y-44719685D01*
G37*
%TD.AperFunction*%
%TD*%
%TA.AperFunction,Conductor*%
%TO.N,Buck_Out*%
G36*
X68474932Y-36319685D02*
G01*
X68482204Y-36324733D01*
X68507668Y-36343795D01*
X68507671Y-36343797D01*
X68642517Y-36394091D01*
X68642516Y-36394091D01*
X68649444Y-36394835D01*
X68702127Y-36400500D01*
X69697872Y-36400499D01*
X69757483Y-36394091D01*
X69892331Y-36343796D01*
X69917796Y-36324733D01*
X69983261Y-36300316D01*
X69992107Y-36300000D01*
X70611887Y-36300000D01*
X70655220Y-36307818D01*
X70760517Y-36347091D01*
X70760516Y-36347091D01*
X70767444Y-36347835D01*
X70820127Y-36353500D01*
X71779872Y-36353499D01*
X71779875Y-36353498D01*
X71779885Y-36353498D01*
X71797517Y-36351602D01*
X71811843Y-36350062D01*
X71880602Y-36362466D01*
X71931740Y-36410076D01*
X71949097Y-36473993D01*
X71899999Y-45949999D01*
X71899999Y-45950000D01*
X71900000Y-45949999D01*
X71900000Y-45950000D01*
X79950000Y-45945392D01*
X79950000Y-44824000D01*
X79969685Y-44756961D01*
X80022489Y-44711206D01*
X80074000Y-44700000D01*
X80391260Y-44700000D01*
X80415449Y-44702382D01*
X80511557Y-44721499D01*
X80511558Y-44721500D01*
X80511559Y-44721500D01*
X82008440Y-44721500D01*
X82008441Y-44721500D01*
X82051810Y-44712873D01*
X82121398Y-44719099D01*
X82176576Y-44761961D01*
X82199822Y-44827850D01*
X82200000Y-44834490D01*
X82200000Y-48076000D01*
X82180315Y-48143039D01*
X82127511Y-48188794D01*
X82076000Y-48200000D01*
X76950000Y-48200000D01*
X76950000Y-51926000D01*
X76930315Y-51993039D01*
X76877511Y-52038794D01*
X76826000Y-52050000D01*
X67924000Y-52050000D01*
X67856961Y-52030315D01*
X67811206Y-51977511D01*
X67800000Y-51926000D01*
X67800000Y-44674000D01*
X67819685Y-44606961D01*
X67872489Y-44561206D01*
X67924000Y-44550000D01*
X68650000Y-44550000D01*
X68650000Y-39200000D01*
X65412730Y-39200000D01*
X65345691Y-39180315D01*
X65341971Y-39177829D01*
X65332876Y-39171509D01*
X65328416Y-39167049D01*
X65277460Y-39133001D01*
X65276514Y-39132344D01*
X65255290Y-39105986D01*
X65233577Y-39080005D01*
X65233430Y-39078838D01*
X65232694Y-39077924D01*
X65229089Y-39044278D01*
X65224870Y-39010680D01*
X65225357Y-39009439D01*
X65225252Y-39008451D01*
X65227556Y-39003850D01*
X65244171Y-38961624D01*
X65315080Y-38855501D01*
X65315080Y-38855500D01*
X65315084Y-38855495D01*
X65371658Y-38718913D01*
X65400500Y-38573918D01*
X65400500Y-38426082D01*
X65400500Y-38426079D01*
X65371659Y-38281092D01*
X65371658Y-38281091D01*
X65371658Y-38281087D01*
X65326245Y-38171452D01*
X65318777Y-38101983D01*
X65350052Y-38039504D01*
X65410141Y-38003852D01*
X65440807Y-38000000D01*
X67800000Y-38000000D01*
X67800000Y-37359167D01*
X67800427Y-37351188D01*
X67800322Y-37351183D01*
X67800497Y-37347898D01*
X67800500Y-37347873D01*
X67800499Y-36423999D01*
X67820183Y-36356961D01*
X67872987Y-36311206D01*
X67924499Y-36300000D01*
X68407893Y-36300000D01*
X68474932Y-36319685D01*
G37*
%TD.AperFunction*%
%TD*%
%TA.AperFunction,Conductor*%
%TO.N,Net-(C6-Pad1)*%
G36*
X64242045Y-40769685D02*
G01*
X64262687Y-40786318D01*
X64325885Y-40849516D01*
X64428612Y-40908826D01*
X64543189Y-40939527D01*
X64543192Y-40939527D01*
X64661804Y-40939527D01*
X64661807Y-40939527D01*
X64776384Y-40908826D01*
X64879111Y-40849516D01*
X64942309Y-40786318D01*
X65003633Y-40752834D01*
X65029990Y-40750000D01*
X65910155Y-40750000D01*
X65977194Y-40769685D01*
X66022949Y-40822489D01*
X66034155Y-40874275D01*
X66031309Y-42157278D01*
X66011475Y-42224274D01*
X65958570Y-42269911D01*
X65942107Y-42276020D01*
X64574103Y-42676000D01*
X64217327Y-42780315D01*
X64167043Y-42795017D01*
X64132245Y-42800000D01*
X63924000Y-42800000D01*
X63856961Y-42780315D01*
X63811206Y-42727511D01*
X63800000Y-42676000D01*
X63800000Y-40874000D01*
X63819685Y-40806961D01*
X63872489Y-40761206D01*
X63924000Y-40750000D01*
X64175006Y-40750000D01*
X64242045Y-40769685D01*
G37*
%TD.AperFunction*%
%TD*%
%TA.AperFunction,Conductor*%
%TO.N,GND*%
G36*
X43318834Y-51832915D02*
G01*
X43374767Y-51874787D01*
X43399184Y-51940251D01*
X43399500Y-51949097D01*
X43399500Y-64187679D01*
X43379815Y-64254718D01*
X43349813Y-64286944D01*
X43342459Y-64292449D01*
X43342451Y-64292457D01*
X43256206Y-64407664D01*
X43256202Y-64407671D01*
X43205908Y-64542517D01*
X43199501Y-64602116D01*
X43199500Y-64602135D01*
X43199500Y-65597870D01*
X43199501Y-65597876D01*
X43205908Y-65657483D01*
X43256202Y-65792328D01*
X43256204Y-65792331D01*
X43326968Y-65886860D01*
X43351385Y-65952325D01*
X43336533Y-66020598D01*
X43302013Y-66060437D01*
X43192452Y-66142455D01*
X43106206Y-66257664D01*
X43106202Y-66257671D01*
X43055908Y-66392517D01*
X43049501Y-66452116D01*
X43049501Y-66452123D01*
X43049500Y-66452135D01*
X43049500Y-67647870D01*
X43049501Y-67647876D01*
X43055908Y-67707483D01*
X43106202Y-67842328D01*
X43106206Y-67842335D01*
X43192452Y-67957544D01*
X43192455Y-67957547D01*
X43307664Y-68043793D01*
X43307671Y-68043797D01*
X43352618Y-68060561D01*
X43442517Y-68094091D01*
X43502127Y-68100500D01*
X44197872Y-68100499D01*
X44257483Y-68094091D01*
X44392331Y-68043796D01*
X44507546Y-67957546D01*
X44593796Y-67842331D01*
X44644091Y-67707483D01*
X44650500Y-67647873D01*
X44650499Y-67274599D01*
X44655826Y-67256455D01*
X44656164Y-67237547D01*
X44669661Y-67209335D01*
X44670183Y-67207561D01*
X44671369Y-67205750D01*
X44680643Y-67191873D01*
X44720775Y-67131811D01*
X44720776Y-67131808D01*
X44722398Y-67129381D01*
X44750347Y-67106023D01*
X44776009Y-67084576D01*
X44845334Y-67075869D01*
X44845335Y-67075869D01*
X44872371Y-67088804D01*
X44908362Y-67106023D01*
X44945082Y-67165466D01*
X44949500Y-67198272D01*
X44949500Y-67647870D01*
X44949501Y-67647876D01*
X44955908Y-67707483D01*
X45006202Y-67842328D01*
X45006206Y-67842335D01*
X45092452Y-67957544D01*
X45092455Y-67957547D01*
X45207664Y-68043793D01*
X45207671Y-68043797D01*
X45252618Y-68060561D01*
X45342517Y-68094091D01*
X45402127Y-68100500D01*
X46097872Y-68100499D01*
X46157483Y-68094091D01*
X46292331Y-68043796D01*
X46407546Y-67957546D01*
X46493796Y-67842331D01*
X46544091Y-67707483D01*
X46550500Y-67647873D01*
X46550499Y-66452128D01*
X46544091Y-66392517D01*
X46493796Y-66257669D01*
X46493651Y-66257476D01*
X46470833Y-66226993D01*
X46446416Y-66161529D01*
X46446100Y-66152683D01*
X46446100Y-58274500D01*
X46465785Y-58207461D01*
X46518589Y-58161706D01*
X46570100Y-58150500D01*
X46578844Y-58150500D01*
X46578845Y-58150499D01*
X46733497Y-58119737D01*
X46879179Y-58059394D01*
X47010289Y-57971789D01*
X47121789Y-57860289D01*
X47209394Y-57729179D01*
X47269737Y-57583497D01*
X47300500Y-57428842D01*
X47300500Y-57271158D01*
X47300500Y-57271155D01*
X47300499Y-57271153D01*
X47269738Y-57116510D01*
X47269737Y-57116503D01*
X47269735Y-57116498D01*
X47209397Y-56970827D01*
X47209390Y-56970814D01*
X47121898Y-56839873D01*
X47101020Y-56773195D01*
X47101000Y-56770982D01*
X47101000Y-56449596D01*
X47120685Y-56382557D01*
X47137314Y-56361920D01*
X49668773Y-53830460D01*
X49730094Y-53796977D01*
X49769052Y-53794785D01*
X49824991Y-53800500D01*
X51075008Y-53800499D01*
X51177797Y-53789999D01*
X51344334Y-53734814D01*
X51493656Y-53642712D01*
X51493667Y-53642700D01*
X51494898Y-53641729D01*
X51495912Y-53641319D01*
X51499803Y-53638920D01*
X51500213Y-53639584D01*
X51559694Y-53615588D01*
X51628336Y-53628628D01*
X51644699Y-53638680D01*
X51648202Y-53641225D01*
X51648212Y-53641232D01*
X51802555Y-53719873D01*
X51967299Y-53773402D01*
X52138389Y-53800500D01*
X52649903Y-53800500D01*
X52716942Y-53820185D01*
X52737584Y-53836819D01*
X53213181Y-54312416D01*
X53246666Y-54373739D01*
X53249500Y-54400097D01*
X53249500Y-63549902D01*
X53229815Y-63616941D01*
X53213181Y-63637583D01*
X52787583Y-64063181D01*
X52726260Y-64096666D01*
X52699902Y-64099500D01*
X49382129Y-64099500D01*
X49382123Y-64099501D01*
X49322516Y-64105908D01*
X49187671Y-64156202D01*
X49187664Y-64156206D01*
X49072455Y-64242452D01*
X49072452Y-64242455D01*
X48986206Y-64357664D01*
X48986202Y-64357671D01*
X48935908Y-64492517D01*
X48929501Y-64552116D01*
X48929500Y-64552135D01*
X48929500Y-66647870D01*
X48929501Y-66647876D01*
X48935908Y-66707483D01*
X48980361Y-66826667D01*
X48985345Y-66896359D01*
X48980361Y-66913333D01*
X48935908Y-67032517D01*
X48931248Y-67075869D01*
X48929501Y-67092123D01*
X48929500Y-67092135D01*
X48929500Y-69187870D01*
X48929501Y-69187876D01*
X48935908Y-69247483D01*
X48980361Y-69366667D01*
X48985345Y-69436359D01*
X48980361Y-69453333D01*
X48935908Y-69572517D01*
X48929501Y-69632116D01*
X48929500Y-69632135D01*
X48929500Y-71727870D01*
X48929501Y-71727876D01*
X48935908Y-71787483D01*
X48980361Y-71906667D01*
X48985345Y-71976359D01*
X48980361Y-71993333D01*
X48935908Y-72112517D01*
X48929501Y-72172116D01*
X48929501Y-72172123D01*
X48929500Y-72172135D01*
X48929500Y-72495500D01*
X48926949Y-72504185D01*
X48928238Y-72513147D01*
X48917259Y-72537187D01*
X48909815Y-72562539D01*
X48902974Y-72568466D01*
X48899213Y-72576703D01*
X48876978Y-72590992D01*
X48857011Y-72608294D01*
X48846496Y-72610581D01*
X48840435Y-72614477D01*
X48805500Y-72619500D01*
X48670098Y-72619500D01*
X48603059Y-72599815D01*
X48582417Y-72583181D01*
X46587590Y-70588355D01*
X46587588Y-70588352D01*
X46468717Y-70469481D01*
X46468716Y-70469480D01*
X46364643Y-70409394D01*
X46364642Y-70409393D01*
X46331783Y-70390422D01*
X46275881Y-70375443D01*
X46179057Y-70349499D01*
X46020943Y-70349499D01*
X46013347Y-70349499D01*
X46013331Y-70349500D01*
X45900097Y-70349500D01*
X45833058Y-70329815D01*
X45812416Y-70313181D01*
X45785819Y-70286584D01*
X45752334Y-70225261D01*
X45749500Y-70198903D01*
X45749500Y-70088060D01*
X45749501Y-70088047D01*
X45749501Y-69919944D01*
X45746191Y-69907590D01*
X45708577Y-69767216D01*
X45684311Y-69725185D01*
X45629522Y-69630285D01*
X45626125Y-69625859D01*
X45600929Y-69560691D01*
X45600499Y-69550371D01*
X45600499Y-69052129D01*
X45600498Y-69052123D01*
X45600497Y-69052116D01*
X45594091Y-68992517D01*
X45543796Y-68857669D01*
X45543795Y-68857668D01*
X45543793Y-68857664D01*
X45457547Y-68742455D01*
X45457544Y-68742452D01*
X45342335Y-68656206D01*
X45342328Y-68656202D01*
X45207486Y-68605910D01*
X45207485Y-68605909D01*
X45207483Y-68605909D01*
X45147873Y-68599500D01*
X45147863Y-68599500D01*
X44452129Y-68599500D01*
X44452123Y-68599501D01*
X44392515Y-68605909D01*
X44368330Y-68614929D01*
X44298639Y-68619911D01*
X44281670Y-68614929D01*
X44257487Y-68605910D01*
X44257485Y-68605909D01*
X44257483Y-68605909D01*
X44197873Y-68599500D01*
X44197863Y-68599500D01*
X43502129Y-68599500D01*
X43502123Y-68599501D01*
X43442516Y-68605908D01*
X43307671Y-68656202D01*
X43307664Y-68656206D01*
X43192455Y-68742452D01*
X43192452Y-68742455D01*
X43106206Y-68857664D01*
X43106202Y-68857671D01*
X43055908Y-68992517D01*
X43049501Y-69052116D01*
X43049501Y-69052123D01*
X43049500Y-69052135D01*
X43049500Y-69770903D01*
X43029815Y-69837942D01*
X42977011Y-69883697D01*
X42907853Y-69893641D01*
X42844297Y-69864616D01*
X42837819Y-69858584D01*
X42186819Y-69207584D01*
X42153334Y-69146261D01*
X42150500Y-69119903D01*
X42150500Y-59603650D01*
X42170185Y-59536611D01*
X42186815Y-59515972D01*
X42210626Y-59492162D01*
X42303703Y-59352863D01*
X42367816Y-59198082D01*
X42400500Y-59033767D01*
X42400500Y-58866233D01*
X42367816Y-58701918D01*
X42303703Y-58547137D01*
X42272537Y-58500494D01*
X42210626Y-58407837D01*
X42186819Y-58384030D01*
X42153334Y-58322707D01*
X42150500Y-58296349D01*
X42150500Y-52950097D01*
X42170185Y-52883058D01*
X42186819Y-52862416D01*
X43187819Y-51861416D01*
X43249142Y-51827931D01*
X43318834Y-51832915D01*
G37*
%TD.AperFunction*%
%TA.AperFunction,Conductor*%
G36*
X92502562Y-30550605D02*
G01*
X92949036Y-30569072D01*
X92959209Y-30569915D01*
X93400114Y-30624873D01*
X93410194Y-30626555D01*
X93845042Y-30717733D01*
X93854950Y-30720242D01*
X94280786Y-30847019D01*
X94290454Y-30850338D01*
X94631430Y-30983388D01*
X94704339Y-31011838D01*
X94713724Y-31015954D01*
X95112869Y-31211083D01*
X95121877Y-31215958D01*
X95503544Y-31443383D01*
X95512123Y-31448989D01*
X95873693Y-31707144D01*
X95881775Y-31713435D01*
X96220796Y-32000571D01*
X96228336Y-32007512D01*
X96542487Y-32321663D01*
X96549428Y-32329203D01*
X96836564Y-32668224D01*
X96842859Y-32676312D01*
X97101010Y-33037876D01*
X97106616Y-33046455D01*
X97334041Y-33428122D01*
X97338919Y-33437136D01*
X97534045Y-33836275D01*
X97538161Y-33845660D01*
X97699656Y-34259533D01*
X97702984Y-34269226D01*
X97829753Y-34695036D01*
X97832269Y-34704971D01*
X97923441Y-35139791D01*
X97925128Y-35149900D01*
X97980082Y-35590769D01*
X97980928Y-35600983D01*
X97999394Y-36047437D01*
X97999500Y-36052561D01*
X97999500Y-98997438D01*
X97999394Y-99002562D01*
X97980928Y-99449016D01*
X97980082Y-99459230D01*
X97925128Y-99900099D01*
X97923441Y-99910208D01*
X97832269Y-100345028D01*
X97829753Y-100354963D01*
X97702984Y-100780773D01*
X97699656Y-100790466D01*
X97538161Y-101204339D01*
X97534045Y-101213724D01*
X97338919Y-101612863D01*
X97334041Y-101621877D01*
X97106616Y-102003544D01*
X97101010Y-102012123D01*
X96842859Y-102373687D01*
X96836564Y-102381775D01*
X96549428Y-102720796D01*
X96542487Y-102728336D01*
X96228336Y-103042487D01*
X96220796Y-103049428D01*
X95881775Y-103336564D01*
X95873687Y-103342859D01*
X95512123Y-103601010D01*
X95503544Y-103606616D01*
X95121877Y-103834041D01*
X95112863Y-103838919D01*
X94713724Y-104034045D01*
X94704339Y-104038161D01*
X94290466Y-104199656D01*
X94280773Y-104202984D01*
X93854963Y-104329753D01*
X93845028Y-104332269D01*
X93410208Y-104423441D01*
X93400099Y-104425128D01*
X92959230Y-104480082D01*
X92949016Y-104480928D01*
X92502563Y-104499394D01*
X92497439Y-104499500D01*
X44602561Y-104499500D01*
X44597437Y-104499394D01*
X44150983Y-104480928D01*
X44140769Y-104480082D01*
X43699900Y-104425128D01*
X43689791Y-104423441D01*
X43254971Y-104332269D01*
X43245036Y-104329753D01*
X42819226Y-104202984D01*
X42809533Y-104199656D01*
X42395660Y-104038161D01*
X42386275Y-104034045D01*
X41987136Y-103838919D01*
X41978122Y-103834041D01*
X41596455Y-103606616D01*
X41587876Y-103601010D01*
X41226312Y-103342859D01*
X41218224Y-103336564D01*
X40879203Y-103049428D01*
X40871663Y-103042487D01*
X40557512Y-102728336D01*
X40550571Y-102720796D01*
X40263435Y-102381775D01*
X40257140Y-102373687D01*
X39998989Y-102012123D01*
X39993383Y-102003544D01*
X39765958Y-101621877D01*
X39761080Y-101612863D01*
X39565954Y-101213724D01*
X39561838Y-101204339D01*
X39533388Y-101131430D01*
X39400338Y-100790454D01*
X39397019Y-100780786D01*
X39270242Y-100354950D01*
X39267733Y-100345042D01*
X39176555Y-99910194D01*
X39174873Y-99900114D01*
X39119915Y-99459209D01*
X39119072Y-99449036D01*
X39100606Y-99002562D01*
X39100500Y-98997438D01*
X39100500Y-98735258D01*
X41449500Y-98735258D01*
X41449500Y-98964741D01*
X41454480Y-99002562D01*
X41479452Y-99192238D01*
X41488469Y-99225890D01*
X41538842Y-99413887D01*
X41626650Y-99625876D01*
X41626657Y-99625890D01*
X41741392Y-99824617D01*
X41881081Y-100006661D01*
X41881089Y-100006670D01*
X42043330Y-100168911D01*
X42043338Y-100168918D01*
X42043339Y-100168919D01*
X42045462Y-100170548D01*
X42225382Y-100308607D01*
X42225385Y-100308608D01*
X42225388Y-100308611D01*
X42424112Y-100423344D01*
X42424117Y-100423346D01*
X42424123Y-100423349D01*
X42515480Y-100461190D01*
X42636113Y-100511158D01*
X42857762Y-100570548D01*
X43085266Y-100600500D01*
X43085273Y-100600500D01*
X43314727Y-100600500D01*
X43314734Y-100600500D01*
X43542238Y-100570548D01*
X43763887Y-100511158D01*
X43975888Y-100423344D01*
X44174612Y-100308611D01*
X44356661Y-100168919D01*
X44356665Y-100168914D01*
X44356670Y-100168911D01*
X44518911Y-100006670D01*
X44518914Y-100006665D01*
X44518919Y-100006661D01*
X44658611Y-99824612D01*
X44773344Y-99625888D01*
X44861158Y-99413887D01*
X44920548Y-99192238D01*
X44950500Y-98964734D01*
X44950500Y-98735266D01*
X44920548Y-98507762D01*
X44874326Y-98335258D01*
X90399500Y-98335258D01*
X90399500Y-98564741D01*
X90421950Y-98735258D01*
X90429452Y-98792238D01*
X90429453Y-98792240D01*
X90488842Y-99013887D01*
X90576650Y-99225876D01*
X90576657Y-99225890D01*
X90691392Y-99424617D01*
X90831081Y-99606661D01*
X90831089Y-99606670D01*
X90993330Y-99768911D01*
X90993338Y-99768918D01*
X91175382Y-99908607D01*
X91175385Y-99908608D01*
X91175388Y-99908611D01*
X91374112Y-100023344D01*
X91374117Y-100023346D01*
X91374123Y-100023349D01*
X91465480Y-100061190D01*
X91586113Y-100111158D01*
X91807762Y-100170548D01*
X92035266Y-100200500D01*
X92035273Y-100200500D01*
X92264727Y-100200500D01*
X92264734Y-100200500D01*
X92492238Y-100170548D01*
X92713887Y-100111158D01*
X92925888Y-100023344D01*
X93124612Y-99908611D01*
X93306661Y-99768919D01*
X93306665Y-99768914D01*
X93306670Y-99768911D01*
X93468911Y-99606670D01*
X93468914Y-99606665D01*
X93468919Y-99606661D01*
X93608611Y-99424612D01*
X93723344Y-99225888D01*
X93811158Y-99013887D01*
X93870548Y-98792238D01*
X93900500Y-98564734D01*
X93900500Y-98335266D01*
X93870548Y-98107762D01*
X93811158Y-97886113D01*
X93731308Y-97693338D01*
X93723349Y-97674123D01*
X93723346Y-97674117D01*
X93723344Y-97674112D01*
X93608611Y-97475388D01*
X93608608Y-97475385D01*
X93608607Y-97475382D01*
X93468918Y-97293338D01*
X93468911Y-97293330D01*
X93306670Y-97131089D01*
X93306661Y-97131081D01*
X93124617Y-96991392D01*
X92925890Y-96876657D01*
X92925876Y-96876650D01*
X92713887Y-96788842D01*
X92492238Y-96729452D01*
X92454215Y-96724446D01*
X92264741Y-96699500D01*
X92264734Y-96699500D01*
X92035266Y-96699500D01*
X92035258Y-96699500D01*
X91818715Y-96728009D01*
X91807762Y-96729452D01*
X91714076Y-96754554D01*
X91586112Y-96788842D01*
X91374123Y-96876650D01*
X91374109Y-96876657D01*
X91175382Y-96991392D01*
X90993338Y-97131081D01*
X90831081Y-97293338D01*
X90691392Y-97475382D01*
X90576657Y-97674109D01*
X90576650Y-97674123D01*
X90493284Y-97875388D01*
X90488842Y-97886113D01*
X90438466Y-98074123D01*
X90429453Y-98107759D01*
X90429451Y-98107770D01*
X90399500Y-98335258D01*
X44874326Y-98335258D01*
X44861158Y-98286113D01*
X44787286Y-98107770D01*
X44773349Y-98074123D01*
X44773346Y-98074117D01*
X44773344Y-98074112D01*
X44658611Y-97875388D01*
X44658608Y-97875385D01*
X44658607Y-97875382D01*
X44518918Y-97693338D01*
X44518911Y-97693330D01*
X44356670Y-97531089D01*
X44356661Y-97531081D01*
X44174617Y-97391392D01*
X43975890Y-97276657D01*
X43975876Y-97276650D01*
X43763887Y-97188842D01*
X43542238Y-97129452D01*
X43504215Y-97124446D01*
X43314741Y-97099500D01*
X43314734Y-97099500D01*
X43085266Y-97099500D01*
X43085258Y-97099500D01*
X42868715Y-97128009D01*
X42857762Y-97129452D01*
X42851653Y-97131089D01*
X42636112Y-97188842D01*
X42424123Y-97276650D01*
X42424109Y-97276657D01*
X42225382Y-97391392D01*
X42043338Y-97531081D01*
X41881081Y-97693338D01*
X41741392Y-97875382D01*
X41626657Y-98074109D01*
X41626650Y-98074123D01*
X41538842Y-98286112D01*
X41479453Y-98507759D01*
X41479451Y-98507770D01*
X41449500Y-98735258D01*
X39100500Y-98735258D01*
X39100500Y-90302135D01*
X42549500Y-90302135D01*
X42549500Y-91597870D01*
X42549501Y-91597876D01*
X42555908Y-91657483D01*
X42606202Y-91792328D01*
X42606206Y-91792335D01*
X42692452Y-91907544D01*
X42692455Y-91907547D01*
X42807664Y-91993793D01*
X42807671Y-91993797D01*
X42942517Y-92044091D01*
X42942516Y-92044091D01*
X42949444Y-92044835D01*
X43002127Y-92050500D01*
X44297872Y-92050499D01*
X44357483Y-92044091D01*
X44492331Y-91993796D01*
X44607546Y-91907546D01*
X44693796Y-91792331D01*
X44744091Y-91657483D01*
X44744091Y-91657481D01*
X44745874Y-91649938D01*
X44747323Y-91650280D01*
X44770742Y-91593743D01*
X44828135Y-91553895D01*
X44867293Y-91547550D01*
X48805501Y-91547550D01*
X48872540Y-91567235D01*
X48918295Y-91620039D01*
X48929501Y-91671550D01*
X48929501Y-91997876D01*
X48935908Y-92057483D01*
X48986202Y-92192328D01*
X48986206Y-92192335D01*
X49072452Y-92307544D01*
X49072455Y-92307547D01*
X49187664Y-92393793D01*
X49187671Y-92393797D01*
X49322517Y-92444091D01*
X49322516Y-92444091D01*
X49329444Y-92444835D01*
X49382127Y-92450500D01*
X52977872Y-92450499D01*
X53037483Y-92444091D01*
X53172331Y-92393796D01*
X53287546Y-92307546D01*
X53373796Y-92192331D01*
X53424091Y-92057483D01*
X53430500Y-91997873D01*
X53430499Y-89902128D01*
X53424091Y-89842517D01*
X53373796Y-89707669D01*
X53373795Y-89707668D01*
X53373793Y-89707664D01*
X53287547Y-89592455D01*
X53287544Y-89592452D01*
X53172335Y-89506206D01*
X53172328Y-89506202D01*
X53037482Y-89455908D01*
X53037483Y-89455908D01*
X52977883Y-89449501D01*
X52977881Y-89449500D01*
X52977873Y-89449500D01*
X52977864Y-89449500D01*
X49382129Y-89449500D01*
X49382123Y-89449501D01*
X49322516Y-89455908D01*
X49187671Y-89506202D01*
X49187664Y-89506206D01*
X49072455Y-89592452D01*
X49072452Y-89592455D01*
X48986206Y-89707664D01*
X48986202Y-89707671D01*
X48935908Y-89842517D01*
X48929501Y-89902116D01*
X48929501Y-89902123D01*
X48929500Y-89902135D01*
X48929500Y-90128450D01*
X48909815Y-90195489D01*
X48857011Y-90241244D01*
X48805500Y-90252450D01*
X44833891Y-90252450D01*
X44766852Y-90232765D01*
X44721097Y-90179961D01*
X44717709Y-90171782D01*
X44693798Y-90107673D01*
X44693793Y-90107664D01*
X44607547Y-89992455D01*
X44607544Y-89992452D01*
X44492335Y-89906206D01*
X44492328Y-89906202D01*
X44357482Y-89855908D01*
X44357483Y-89855908D01*
X44297883Y-89849501D01*
X44297881Y-89849500D01*
X44297873Y-89849500D01*
X44297864Y-89849500D01*
X43002129Y-89849500D01*
X43002123Y-89849501D01*
X42942516Y-89855908D01*
X42807671Y-89906202D01*
X42807664Y-89906206D01*
X42692455Y-89992452D01*
X42692452Y-89992455D01*
X42606206Y-90107664D01*
X42606202Y-90107671D01*
X42555908Y-90242517D01*
X42549501Y-90302116D01*
X42549500Y-90302135D01*
X39100500Y-90302135D01*
X39100500Y-58866228D01*
X40699500Y-58866228D01*
X40699500Y-59033771D01*
X40732182Y-59198074D01*
X40732184Y-59198082D01*
X40796295Y-59352860D01*
X40889372Y-59492160D01*
X40889373Y-59492161D01*
X40889374Y-59492162D01*
X40913181Y-59515969D01*
X40946666Y-59577290D01*
X40949500Y-59603650D01*
X40949500Y-69333330D01*
X40949499Y-69333348D01*
X40949499Y-69499054D01*
X40949498Y-69499054D01*
X40949499Y-69499057D01*
X40989196Y-69647207D01*
X40990423Y-69651784D01*
X40990423Y-69651785D01*
X40997776Y-69664522D01*
X40997778Y-69664524D01*
X41069477Y-69788712D01*
X41069481Y-69788717D01*
X41188349Y-69907585D01*
X41188355Y-69907590D01*
X45536662Y-74255897D01*
X45570147Y-74317220D01*
X45565163Y-74386912D01*
X45536662Y-74431259D01*
X45428213Y-74539707D01*
X45428210Y-74539711D01*
X45340609Y-74670814D01*
X45340602Y-74670827D01*
X45280264Y-74816498D01*
X45280261Y-74816510D01*
X45249500Y-74971153D01*
X45249500Y-75128846D01*
X45280261Y-75283489D01*
X45280264Y-75283501D01*
X45340602Y-75429172D01*
X45340609Y-75429185D01*
X45428602Y-75560874D01*
X45449480Y-75627551D01*
X45449500Y-75629765D01*
X45449500Y-76373330D01*
X45449499Y-76373348D01*
X45449499Y-76539054D01*
X45449498Y-76539054D01*
X45490423Y-76691785D01*
X45519358Y-76741900D01*
X45519359Y-76741904D01*
X45519360Y-76741904D01*
X45569479Y-76828714D01*
X45569481Y-76828717D01*
X45688349Y-76947585D01*
X45688355Y-76947590D01*
X48893181Y-80152416D01*
X48926666Y-80213739D01*
X48929500Y-80240097D01*
X48929500Y-81887870D01*
X48929501Y-81887876D01*
X48935908Y-81947483D01*
X48986202Y-82082328D01*
X48986206Y-82082335D01*
X49072452Y-82197544D01*
X49072455Y-82197547D01*
X49187664Y-82283793D01*
X49187671Y-82283797D01*
X49322517Y-82334091D01*
X49322516Y-82334091D01*
X49329444Y-82334835D01*
X49382127Y-82340500D01*
X52977872Y-82340499D01*
X53037483Y-82334091D01*
X53172331Y-82283796D01*
X53287546Y-82197546D01*
X53373796Y-82082331D01*
X53424091Y-81947483D01*
X53430500Y-81887873D01*
X53430499Y-79792128D01*
X53424091Y-79732517D01*
X53379637Y-79613332D01*
X53374654Y-79543642D01*
X53379638Y-79526667D01*
X53414760Y-79432500D01*
X53424091Y-79407483D01*
X53430500Y-79347873D01*
X53430499Y-77252128D01*
X53424091Y-77192517D01*
X53379637Y-77073332D01*
X53374654Y-77003642D01*
X53379638Y-76986667D01*
X53394215Y-76947585D01*
X53424091Y-76867483D01*
X53430500Y-76807873D01*
X53430499Y-74712128D01*
X53424091Y-74652517D01*
X53379637Y-74533332D01*
X53374654Y-74463642D01*
X53379638Y-74446667D01*
X53411809Y-74360412D01*
X53424091Y-74327483D01*
X53430500Y-74267873D01*
X53430499Y-72172128D01*
X53424091Y-72112517D01*
X53379637Y-71993332D01*
X53374654Y-71923642D01*
X53379638Y-71906667D01*
X53399578Y-71853206D01*
X53424091Y-71787483D01*
X53430500Y-71727873D01*
X53430499Y-69970095D01*
X53450184Y-69903057D01*
X53466813Y-69882420D01*
X54908506Y-68440728D01*
X54908511Y-68440724D01*
X54918714Y-68430520D01*
X54918716Y-68430520D01*
X55030520Y-68318716D01*
X55093637Y-68209394D01*
X55109577Y-68181785D01*
X55150501Y-68029057D01*
X55150501Y-67870943D01*
X55150501Y-67863348D01*
X55150500Y-67863330D01*
X55150500Y-64552135D01*
X72929500Y-64552135D01*
X72929500Y-66647870D01*
X72929501Y-66647876D01*
X72935908Y-66707483D01*
X72935909Y-66707486D01*
X72936680Y-66709552D01*
X72937592Y-66714607D01*
X72937693Y-66715034D01*
X72937670Y-66715039D01*
X72937696Y-66715182D01*
X72939477Y-66717954D01*
X72944500Y-66752889D01*
X72944500Y-66987110D01*
X72937671Y-67024959D01*
X72937693Y-67024965D01*
X72937598Y-67025366D01*
X72936683Y-67030439D01*
X72935909Y-67032512D01*
X72935908Y-67032516D01*
X72931248Y-67075869D01*
X72929501Y-67092123D01*
X72929500Y-67092135D01*
X72929500Y-69187870D01*
X72929501Y-69187876D01*
X72935908Y-69247483D01*
X72980361Y-69366667D01*
X72985345Y-69436359D01*
X72980361Y-69453333D01*
X72935908Y-69572517D01*
X72929501Y-69632116D01*
X72929500Y-69632135D01*
X72929500Y-71727870D01*
X72929501Y-71727876D01*
X72935908Y-71787483D01*
X72980361Y-71906667D01*
X72985345Y-71976359D01*
X72980361Y-71993333D01*
X72935908Y-72112517D01*
X72929501Y-72172116D01*
X72929501Y-72172123D01*
X72929500Y-72172135D01*
X72929500Y-74267870D01*
X72929501Y-74267876D01*
X72935908Y-74327483D01*
X72980361Y-74446667D01*
X72985345Y-74516359D01*
X72980361Y-74533333D01*
X72935908Y-74652517D01*
X72933940Y-74670827D01*
X72929501Y-74712123D01*
X72929500Y-74712135D01*
X72929500Y-76807870D01*
X72929501Y-76807876D01*
X72935908Y-76867483D01*
X72986202Y-77002328D01*
X72986206Y-77002335D01*
X73072452Y-77117544D01*
X73072455Y-77117547D01*
X73187664Y-77203793D01*
X73187671Y-77203797D01*
X73322517Y-77254091D01*
X73322516Y-77254091D01*
X73329444Y-77254835D01*
X73382127Y-77260500D01*
X76977872Y-77260499D01*
X77037483Y-77254091D01*
X77172331Y-77203796D01*
X77287546Y-77117546D01*
X77300539Y-77100188D01*
X77356472Y-77058319D01*
X77399806Y-77050500D01*
X79620943Y-77050500D01*
X79989571Y-77050500D01*
X80056610Y-77070185D01*
X80097479Y-77117350D01*
X80098953Y-77116546D01*
X80103206Y-77124335D01*
X80189452Y-77239544D01*
X80189455Y-77239547D01*
X80299811Y-77322160D01*
X80302547Y-77325815D01*
X80306703Y-77327713D01*
X80323295Y-77353530D01*
X80341682Y-77378093D01*
X80342697Y-77383722D01*
X80344477Y-77386491D01*
X80349500Y-77421426D01*
X80349500Y-77528573D01*
X80329815Y-77595612D01*
X80299812Y-77627839D01*
X80189452Y-77710455D01*
X80103206Y-77825664D01*
X80103202Y-77825671D01*
X80052908Y-77960517D01*
X80046501Y-78020116D01*
X80046501Y-78020123D01*
X80046500Y-78020135D01*
X80046500Y-78979870D01*
X80046501Y-78979876D01*
X80052908Y-79039483D01*
X80103202Y-79174328D01*
X80103206Y-79174335D01*
X80189452Y-79289544D01*
X80189455Y-79289547D01*
X80304664Y-79375793D01*
X80304671Y-79375797D01*
X80439517Y-79426091D01*
X80439516Y-79426091D01*
X80446444Y-79426835D01*
X80499127Y-79432500D01*
X81400872Y-79432499D01*
X81460483Y-79426091D01*
X81595331Y-79375796D01*
X81625690Y-79353068D01*
X81691151Y-79328651D01*
X81759424Y-79343501D01*
X81774301Y-79353062D01*
X81804669Y-79375796D01*
X81804672Y-79375797D01*
X81939517Y-79426091D01*
X81939516Y-79426091D01*
X81946444Y-79426835D01*
X81999127Y-79432500D01*
X82900872Y-79432499D01*
X82960483Y-79426091D01*
X83095331Y-79375796D01*
X83210546Y-79289546D01*
X83296796Y-79174331D01*
X83347091Y-79039483D01*
X83353500Y-78979873D01*
X83353499Y-78020128D01*
X83347091Y-77960517D01*
X83296796Y-77825669D01*
X83296795Y-77825668D01*
X83296793Y-77825664D01*
X83210547Y-77710455D01*
X83210544Y-77710452D01*
X83095335Y-77624206D01*
X83095328Y-77624202D01*
X83006795Y-77591182D01*
X82950861Y-77549311D01*
X82926444Y-77483847D01*
X82941295Y-77415574D01*
X82990700Y-77366168D01*
X83006795Y-77358818D01*
X83095328Y-77325797D01*
X83095327Y-77325797D01*
X83095331Y-77325796D01*
X83210546Y-77239546D01*
X83296796Y-77124331D01*
X83347091Y-76989483D01*
X83353500Y-76929873D01*
X83353499Y-75970128D01*
X83347091Y-75910517D01*
X83296796Y-75775669D01*
X83296795Y-75775668D01*
X83296793Y-75775664D01*
X83210547Y-75660455D01*
X83210544Y-75660452D01*
X83095335Y-75574206D01*
X83095328Y-75574202D01*
X82960482Y-75523908D01*
X82960483Y-75523908D01*
X82900883Y-75517501D01*
X82900881Y-75517500D01*
X82900873Y-75517500D01*
X82900864Y-75517500D01*
X81999129Y-75517500D01*
X81999123Y-75517501D01*
X81939516Y-75523908D01*
X81804671Y-75574202D01*
X81804665Y-75574205D01*
X81774309Y-75596930D01*
X81708845Y-75621346D01*
X81640572Y-75606493D01*
X81625691Y-75596930D01*
X81595334Y-75574205D01*
X81595328Y-75574202D01*
X81460482Y-75523908D01*
X81460483Y-75523908D01*
X81400883Y-75517501D01*
X81400881Y-75517500D01*
X81400873Y-75517500D01*
X81400864Y-75517500D01*
X80499129Y-75517500D01*
X80499123Y-75517501D01*
X80439516Y-75523908D01*
X80304671Y-75574202D01*
X80304664Y-75574206D01*
X80189455Y-75660452D01*
X80189452Y-75660455D01*
X80103206Y-75775664D01*
X80098953Y-75783454D01*
X80096012Y-75781848D01*
X80063868Y-75824777D01*
X79998400Y-75849185D01*
X79989571Y-75849500D01*
X77554500Y-75849500D01*
X77487461Y-75829815D01*
X77441706Y-75777011D01*
X77430500Y-75725500D01*
X77430499Y-74712129D01*
X77430498Y-74712123D01*
X77430497Y-74712116D01*
X77424091Y-74652517D01*
X77379637Y-74533332D01*
X77374654Y-74463642D01*
X77379638Y-74446667D01*
X77411809Y-74360412D01*
X77424091Y-74327483D01*
X77430500Y-74267873D01*
X77430500Y-73424500D01*
X77450185Y-73357461D01*
X77502989Y-73311706D01*
X77554500Y-73300500D01*
X79470943Y-73300500D01*
X79878574Y-73300500D01*
X79945613Y-73320185D01*
X79977840Y-73350189D01*
X80060452Y-73460544D01*
X80060455Y-73460547D01*
X80175664Y-73546793D01*
X80175671Y-73546797D01*
X80310517Y-73597091D01*
X80310516Y-73597091D01*
X80317444Y-73597835D01*
X80370127Y-73603500D01*
X81329872Y-73603499D01*
X81389483Y-73597091D01*
X81524331Y-73546796D01*
X81639546Y-73460546D01*
X81725796Y-73345331D01*
X81776091Y-73210483D01*
X81782500Y-73150873D01*
X81782499Y-72249128D01*
X81776091Y-72189517D01*
X81769605Y-72172128D01*
X81725797Y-72054671D01*
X81725793Y-72054664D01*
X81639547Y-71939455D01*
X81639544Y-71939452D01*
X81524335Y-71853206D01*
X81524328Y-71853202D01*
X81389482Y-71802908D01*
X81389483Y-71802908D01*
X81329883Y-71796501D01*
X81329881Y-71796500D01*
X81329873Y-71796500D01*
X81329864Y-71796500D01*
X80370129Y-71796500D01*
X80370123Y-71796501D01*
X80310516Y-71802908D01*
X80175671Y-71853202D01*
X80175664Y-71853206D01*
X80060455Y-71939452D01*
X80060452Y-71939455D01*
X79977840Y-72049811D01*
X79921907Y-72091682D01*
X79878574Y-72099500D01*
X77505331Y-72099500D01*
X77484085Y-72093261D01*
X77461997Y-72091682D01*
X77451213Y-72083609D01*
X77438292Y-72079815D01*
X77423792Y-72063081D01*
X77406064Y-72049810D01*
X77395449Y-72030372D01*
X77392537Y-72027011D01*
X77389154Y-72018847D01*
X77379637Y-71993331D01*
X77374654Y-71923642D01*
X77379638Y-71906667D01*
X77399578Y-71853206D01*
X77424091Y-71787483D01*
X77430500Y-71727873D01*
X77430499Y-69829499D01*
X77450184Y-69762461D01*
X77502987Y-69716706D01*
X77554499Y-69705500D01*
X82445852Y-69705500D01*
X82512891Y-69725185D01*
X82558646Y-69777989D01*
X82569142Y-69816246D01*
X82571908Y-69841983D01*
X82622202Y-69976828D01*
X82622206Y-69976835D01*
X82708452Y-70092044D01*
X82708455Y-70092047D01*
X82823664Y-70178293D01*
X82823671Y-70178297D01*
X82958517Y-70228591D01*
X82958516Y-70228591D01*
X82965444Y-70229335D01*
X83018127Y-70235000D01*
X84841872Y-70234999D01*
X84901483Y-70228591D01*
X85036331Y-70178296D01*
X85151546Y-70092046D01*
X85237796Y-69976831D01*
X85288091Y-69841983D01*
X85290858Y-69816242D01*
X85317595Y-69751695D01*
X85374987Y-69711846D01*
X85414147Y-69705500D01*
X87625336Y-69705500D01*
X87640474Y-69703851D01*
X87734110Y-69693658D01*
X87786224Y-69682175D01*
X87889896Y-69647207D01*
X88010519Y-69568773D01*
X88063077Y-69522737D01*
X88156715Y-69413498D01*
X88215785Y-69282302D01*
X88235111Y-69215158D01*
X88235111Y-69215157D01*
X88235132Y-69215005D01*
X88236258Y-69207026D01*
X88236281Y-69206698D01*
X88238885Y-69187872D01*
X88254826Y-69072634D01*
X88247492Y-67701265D01*
X88205502Y-59849022D01*
X88205500Y-59848359D01*
X88205500Y-53153549D01*
X88225185Y-53086510D01*
X88228966Y-53080962D01*
X88744876Y-52366625D01*
X88800085Y-52323804D01*
X88869681Y-52317627D01*
X88931568Y-52350058D01*
X88966097Y-52410799D01*
X88969400Y-52439227D01*
X88969400Y-55336500D01*
X89921900Y-55336500D01*
X89921900Y-53072900D01*
X89941585Y-53005861D01*
X89994389Y-52960106D01*
X90045900Y-52948900D01*
X92414100Y-52948900D01*
X92481139Y-52968585D01*
X92526894Y-53021389D01*
X92538100Y-53072900D01*
X92538100Y-55336500D01*
X93490600Y-55336500D01*
X93490600Y-49779500D01*
X93510285Y-49712461D01*
X93563089Y-49666706D01*
X93614600Y-49655500D01*
X95725990Y-49655500D01*
X95726000Y-49655500D01*
X95833456Y-49643947D01*
X95884967Y-49632741D01*
X95919197Y-49621347D01*
X95987497Y-49598616D01*
X95987501Y-49598613D01*
X95987504Y-49598613D01*
X96108543Y-49520825D01*
X96161347Y-49475070D01*
X96255567Y-49366336D01*
X96315338Y-49235459D01*
X96335023Y-49168420D01*
X96335024Y-49168416D01*
X96355500Y-49026000D01*
X96355500Y-45365815D01*
X96352582Y-45311577D01*
X96349727Y-45285122D01*
X96341006Y-45231512D01*
X96290617Y-45096744D01*
X96290613Y-45096737D01*
X96290611Y-45096732D01*
X96257088Y-45035456D01*
X96257085Y-45035452D01*
X96257083Y-45035448D01*
X96170768Y-44920336D01*
X96132268Y-44891563D01*
X96090352Y-44835663D01*
X96082499Y-44792242D01*
X96082499Y-43899128D01*
X96076091Y-43839517D01*
X96073152Y-43831638D01*
X96025797Y-43704671D01*
X96025793Y-43704664D01*
X95939547Y-43589456D01*
X95939548Y-43589456D01*
X95939546Y-43589454D01*
X95824331Y-43503204D01*
X95824328Y-43503203D01*
X95824327Y-43503202D01*
X95816544Y-43498952D01*
X95818146Y-43496018D01*
X95813410Y-43492469D01*
X95793297Y-43483284D01*
X95785998Y-43471926D01*
X95775195Y-43463831D01*
X95767477Y-43443107D01*
X95755523Y-43424506D01*
X95752361Y-43402517D01*
X95750811Y-43398354D01*
X95750500Y-43389571D01*
X95750500Y-43160428D01*
X95770185Y-43093389D01*
X95817350Y-43052519D01*
X95816546Y-43051047D01*
X95824326Y-43046797D01*
X95824331Y-43046796D01*
X95939546Y-42960546D01*
X96025796Y-42845331D01*
X96076091Y-42710483D01*
X96082500Y-42650873D01*
X96082499Y-41749128D01*
X96076091Y-41689517D01*
X96065951Y-41662331D01*
X96025797Y-41554671D01*
X96025793Y-41554664D01*
X95939547Y-41439455D01*
X95939544Y-41439452D01*
X95824335Y-41353206D01*
X95824328Y-41353202D01*
X95689482Y-41302908D01*
X95689483Y-41302908D01*
X95629883Y-41296501D01*
X95629881Y-41296500D01*
X95629873Y-41296500D01*
X95629864Y-41296500D01*
X94670129Y-41296500D01*
X94670123Y-41296501D01*
X94610516Y-41302908D01*
X94475671Y-41353202D01*
X94475664Y-41353206D01*
X94360455Y-41439452D01*
X94360452Y-41439455D01*
X94274206Y-41554664D01*
X94274202Y-41554671D01*
X94223908Y-41689517D01*
X94217501Y-41749116D01*
X94217501Y-41749123D01*
X94217500Y-41749135D01*
X94217500Y-42650870D01*
X94217501Y-42650876D01*
X94223908Y-42710483D01*
X94274202Y-42845328D01*
X94274206Y-42845335D01*
X94360452Y-42960544D01*
X94360455Y-42960547D01*
X94475664Y-43046793D01*
X94483454Y-43051047D01*
X94481843Y-43053996D01*
X94486535Y-43057504D01*
X94506703Y-43066715D01*
X94513969Y-43078022D01*
X94524733Y-43086072D01*
X94532490Y-43106841D01*
X94544477Y-43125493D01*
X94547619Y-43147345D01*
X94549180Y-43151525D01*
X94549500Y-43160428D01*
X94549500Y-43275500D01*
X94529815Y-43342539D01*
X94477011Y-43388294D01*
X94425500Y-43399500D01*
X88770943Y-43399500D01*
X88618214Y-43440423D01*
X88607690Y-43446500D01*
X88607688Y-43446501D01*
X88481287Y-43519477D01*
X88481282Y-43519481D01*
X88369478Y-43631286D01*
X88369477Y-43631287D01*
X88322489Y-43678274D01*
X88261166Y-43711758D01*
X88191474Y-43706773D01*
X88135541Y-43664901D01*
X88120248Y-43638045D01*
X88079781Y-43540349D01*
X88079776Y-43540340D01*
X87992066Y-43409074D01*
X87992063Y-43409070D01*
X87880429Y-43297436D01*
X87880425Y-43297433D01*
X87749159Y-43209723D01*
X87749150Y-43209718D01*
X87603289Y-43149301D01*
X87603281Y-43149299D01*
X87448445Y-43118500D01*
X87448441Y-43118500D01*
X85951559Y-43118500D01*
X85951554Y-43118500D01*
X85796718Y-43149299D01*
X85796710Y-43149301D01*
X85650849Y-43209718D01*
X85650840Y-43209723D01*
X85519574Y-43297433D01*
X85519570Y-43297436D01*
X85407936Y-43409070D01*
X85407933Y-43409074D01*
X85320223Y-43540340D01*
X85320218Y-43540349D01*
X85259801Y-43686210D01*
X85259799Y-43686218D01*
X85229000Y-43841054D01*
X85229000Y-43998945D01*
X85259799Y-44153781D01*
X85259801Y-44153789D01*
X85320218Y-44299650D01*
X85320223Y-44299659D01*
X85407933Y-44430925D01*
X85407936Y-44430929D01*
X85444326Y-44467319D01*
X85477811Y-44528642D01*
X85472827Y-44598334D01*
X85444326Y-44642681D01*
X85407936Y-44679070D01*
X85407933Y-44679074D01*
X85320223Y-44810340D01*
X85320218Y-44810349D01*
X85259801Y-44956210D01*
X85259799Y-44956218D01*
X85229000Y-45111054D01*
X85229000Y-45268945D01*
X85259799Y-45423781D01*
X85259801Y-45423789D01*
X85320219Y-45569651D01*
X85320220Y-45569653D01*
X85325332Y-45577304D01*
X85346209Y-45643981D01*
X85327724Y-45711361D01*
X85315944Y-45727393D01*
X85294437Y-45752214D01*
X85294432Y-45752221D01*
X85234663Y-45883093D01*
X85214976Y-45950138D01*
X85210241Y-45983070D01*
X85194717Y-46091051D01*
X85194500Y-46092557D01*
X85194500Y-47951600D01*
X85174815Y-48018639D01*
X85122011Y-48064394D01*
X85070500Y-48075600D01*
X83624000Y-48075600D01*
X83623991Y-48075600D01*
X83623990Y-48075601D01*
X83516549Y-48087152D01*
X83516537Y-48087154D01*
X83465027Y-48098360D01*
X83362502Y-48132483D01*
X83362496Y-48132486D01*
X83241462Y-48210271D01*
X83241451Y-48210279D01*
X83188659Y-48256023D01*
X83094433Y-48364764D01*
X83094430Y-48364768D01*
X83034664Y-48495634D01*
X83014976Y-48562682D01*
X83013805Y-48570828D01*
X82994957Y-48701925D01*
X82994500Y-48705101D01*
X82994500Y-53559857D01*
X82974815Y-53626896D01*
X82938455Y-53663578D01*
X81930104Y-54324221D01*
X81863241Y-54344495D01*
X81862149Y-54344500D01*
X80373489Y-54344500D01*
X80362158Y-54345706D01*
X80267057Y-54355831D01*
X80267048Y-54355832D01*
X80216012Y-54366825D01*
X80114364Y-54400306D01*
X80114358Y-54400309D01*
X79992993Y-54477597D01*
X79945741Y-54518201D01*
X79944842Y-54518882D01*
X79939999Y-54523133D01*
X79845326Y-54631485D01*
X79785020Y-54762110D01*
X79785017Y-54762120D01*
X79765056Y-54829077D01*
X79743994Y-54971399D01*
X79743993Y-54971405D01*
X79706389Y-64071012D01*
X79686428Y-64137970D01*
X79633435Y-64183506D01*
X79582390Y-64194500D01*
X77264760Y-64194500D01*
X77197721Y-64174815D01*
X77190449Y-64169767D01*
X77172331Y-64156204D01*
X77172328Y-64156202D01*
X77037482Y-64105908D01*
X77037483Y-64105908D01*
X76977883Y-64099501D01*
X76977881Y-64099500D01*
X76977873Y-64099500D01*
X76977864Y-64099500D01*
X73382129Y-64099500D01*
X73382123Y-64099501D01*
X73322516Y-64105908D01*
X73187671Y-64156202D01*
X73187664Y-64156206D01*
X73072455Y-64242452D01*
X73072452Y-64242455D01*
X72986206Y-64357664D01*
X72986202Y-64357671D01*
X72935908Y-64492517D01*
X72929501Y-64552116D01*
X72929500Y-64552135D01*
X55150500Y-64552135D01*
X55150500Y-58652135D01*
X57869500Y-58652135D01*
X57869500Y-62247870D01*
X57869501Y-62247876D01*
X57875908Y-62307483D01*
X57926202Y-62442328D01*
X57926206Y-62442335D01*
X58012452Y-62557544D01*
X58012455Y-62557547D01*
X58127664Y-62643793D01*
X58127671Y-62643797D01*
X58262517Y-62694091D01*
X58262516Y-62694091D01*
X58269444Y-62694835D01*
X58322127Y-62700500D01*
X60417872Y-62700499D01*
X60477483Y-62694091D01*
X60596667Y-62649637D01*
X60666358Y-62644654D01*
X60683329Y-62649636D01*
X60802517Y-62694091D01*
X60802516Y-62694091D01*
X60809444Y-62694835D01*
X60862127Y-62700500D01*
X62957872Y-62700499D01*
X63017483Y-62694091D01*
X63136667Y-62649637D01*
X63206358Y-62644654D01*
X63223329Y-62649636D01*
X63342517Y-62694091D01*
X63342516Y-62694091D01*
X63349444Y-62694835D01*
X63402127Y-62700500D01*
X65497872Y-62700499D01*
X65557483Y-62694091D01*
X65676667Y-62649637D01*
X65746358Y-62644654D01*
X65763329Y-62649636D01*
X65882517Y-62694091D01*
X65882516Y-62694091D01*
X65889444Y-62694835D01*
X65942127Y-62700500D01*
X68037872Y-62700499D01*
X68097483Y-62694091D01*
X68232331Y-62643796D01*
X68347546Y-62557546D01*
X68433796Y-62442331D01*
X68484091Y-62307483D01*
X68490500Y-62247873D01*
X68490499Y-58652128D01*
X68484091Y-58592517D01*
X68467165Y-58547137D01*
X68433797Y-58457671D01*
X68433793Y-58457664D01*
X68347547Y-58342455D01*
X68347544Y-58342452D01*
X68232335Y-58256206D01*
X68232328Y-58256202D01*
X68097482Y-58205908D01*
X68097483Y-58205908D01*
X68037883Y-58199501D01*
X68037881Y-58199500D01*
X68037873Y-58199500D01*
X68037864Y-58199500D01*
X65942129Y-58199500D01*
X65942123Y-58199501D01*
X65882516Y-58205908D01*
X65763333Y-58250361D01*
X65693641Y-58255345D01*
X65676667Y-58250361D01*
X65557482Y-58205908D01*
X65557483Y-58205908D01*
X65497883Y-58199501D01*
X65497881Y-58199500D01*
X65497873Y-58199500D01*
X65497864Y-58199500D01*
X63402129Y-58199500D01*
X63402123Y-58199501D01*
X63342516Y-58205908D01*
X63223333Y-58250361D01*
X63153641Y-58255345D01*
X63136667Y-58250361D01*
X63017482Y-58205908D01*
X63017483Y-58205908D01*
X62957883Y-58199501D01*
X62957881Y-58199500D01*
X62957873Y-58199500D01*
X62957864Y-58199500D01*
X60862129Y-58199500D01*
X60862123Y-58199501D01*
X60802516Y-58205908D01*
X60683333Y-58250361D01*
X60613641Y-58255345D01*
X60596667Y-58250361D01*
X60477482Y-58205908D01*
X60477483Y-58205908D01*
X60417883Y-58199501D01*
X60417881Y-58199500D01*
X60417873Y-58199500D01*
X60417864Y-58199500D01*
X58322129Y-58199500D01*
X58322123Y-58199501D01*
X58262516Y-58205908D01*
X58127671Y-58256202D01*
X58127664Y-58256206D01*
X58012455Y-58342452D01*
X58012452Y-58342455D01*
X57926206Y-58457664D01*
X57926202Y-58457671D01*
X57875908Y-58592517D01*
X57869501Y-58652116D01*
X57869501Y-58652123D01*
X57869500Y-58652135D01*
X55150500Y-58652135D01*
X55150500Y-56229765D01*
X55170185Y-56162726D01*
X55171398Y-56160874D01*
X55259390Y-56029185D01*
X55259390Y-56029184D01*
X55259394Y-56029179D01*
X55319737Y-55883497D01*
X55350500Y-55728842D01*
X55350500Y-55571158D01*
X55350500Y-55571155D01*
X55350499Y-55571153D01*
X55319738Y-55416510D01*
X55319737Y-55416503D01*
X55286024Y-55335111D01*
X55259397Y-55270827D01*
X55259390Y-55270814D01*
X55171398Y-55139125D01*
X55150520Y-55072447D01*
X55150500Y-55070234D01*
X55150500Y-54718764D01*
X55170185Y-54651725D01*
X55222989Y-54605970D01*
X55292147Y-54596026D01*
X55298691Y-54597147D01*
X55343048Y-54605970D01*
X55441230Y-54625499D01*
X55441232Y-54625500D01*
X55441233Y-54625500D01*
X55608768Y-54625500D01*
X55608769Y-54625499D01*
X55773082Y-54592816D01*
X55927863Y-54528703D01*
X56067162Y-54435626D01*
X56185626Y-54317162D01*
X56278703Y-54177863D01*
X56342816Y-54023082D01*
X56375500Y-53858767D01*
X56375500Y-53691233D01*
X56342816Y-53526918D01*
X56278703Y-53372137D01*
X56247537Y-53325494D01*
X56185626Y-53232837D01*
X56067162Y-53114373D01*
X55927860Y-53021295D01*
X55773082Y-52957184D01*
X55773074Y-52957182D01*
X55608771Y-52924500D01*
X55608767Y-52924500D01*
X55441233Y-52924500D01*
X55331485Y-52946329D01*
X55298691Y-52952853D01*
X55277704Y-52950974D01*
X55256853Y-52953973D01*
X55243605Y-52947923D01*
X55229099Y-52946625D01*
X55212461Y-52933699D01*
X55193297Y-52924948D01*
X55185422Y-52912695D01*
X55173922Y-52903761D01*
X55166913Y-52883894D01*
X55155523Y-52866170D01*
X55151988Y-52841584D01*
X55150678Y-52837871D01*
X55150500Y-52831235D01*
X55150500Y-52698737D01*
X55170185Y-52631698D01*
X55222989Y-52585943D01*
X55292147Y-52575999D01*
X55298691Y-52577120D01*
X55416228Y-52600499D01*
X55416232Y-52600500D01*
X55416233Y-52600500D01*
X55583768Y-52600500D01*
X55583769Y-52600499D01*
X55748082Y-52567816D01*
X55902863Y-52503703D01*
X56042162Y-52410626D01*
X56160626Y-52292162D01*
X56253703Y-52152863D01*
X56317816Y-51998082D01*
X56350500Y-51833767D01*
X56350500Y-51666233D01*
X56317816Y-51501918D01*
X56253703Y-51347137D01*
X56206697Y-51276788D01*
X56160626Y-51207837D01*
X56042162Y-51089373D01*
X55902860Y-50996295D01*
X55748082Y-50932184D01*
X55748074Y-50932182D01*
X55583771Y-50899500D01*
X55583767Y-50899500D01*
X55416233Y-50899500D01*
X55385100Y-50905692D01*
X55298690Y-50922880D01*
X55229099Y-50916651D01*
X55173922Y-50873788D01*
X55150678Y-50807898D01*
X55150500Y-50801262D01*
X55150500Y-49238791D01*
X55170185Y-49171752D01*
X55222989Y-49125997D01*
X55292147Y-49116053D01*
X55298691Y-49117174D01*
X55301917Y-49117815D01*
X55301918Y-49117816D01*
X55466230Y-49150499D01*
X55466232Y-49150500D01*
X55466233Y-49150500D01*
X55633768Y-49150500D01*
X55633769Y-49150499D01*
X55798082Y-49117816D01*
X55952863Y-49053703D01*
X56092162Y-48960626D01*
X56210626Y-48842162D01*
X56303703Y-48702863D01*
X56367816Y-48548082D01*
X56400500Y-48383767D01*
X56400500Y-48216233D01*
X56367816Y-48051918D01*
X56303703Y-47897137D01*
X56238092Y-47798943D01*
X56210626Y-47757837D01*
X56092162Y-47639373D01*
X55952860Y-47546295D01*
X55842662Y-47500650D01*
X55821923Y-47492059D01*
X55767521Y-47448219D01*
X55745456Y-47381925D01*
X55762735Y-47314225D01*
X55813873Y-47266615D01*
X55869376Y-47253499D01*
X55979872Y-47253499D01*
X56039483Y-47247091D01*
X56174331Y-47196796D01*
X56289546Y-47110546D01*
X56375796Y-46995331D01*
X56426091Y-46860483D01*
X56432500Y-46800873D01*
X56432499Y-45899128D01*
X56426091Y-45839517D01*
X56411470Y-45800317D01*
X56375797Y-45704672D01*
X56375796Y-45704669D01*
X56353068Y-45674309D01*
X56328651Y-45608849D01*
X56343501Y-45540576D01*
X56353062Y-45525698D01*
X56375796Y-45495331D01*
X56426091Y-45360483D01*
X56432500Y-45300873D01*
X56432499Y-44399128D01*
X56426091Y-44339517D01*
X56423909Y-44333668D01*
X56375797Y-44204671D01*
X56375793Y-44204664D01*
X56289547Y-44089455D01*
X56289544Y-44089452D01*
X56174335Y-44003206D01*
X56174328Y-44003202D01*
X56039482Y-43952908D01*
X56039483Y-43952908D01*
X55979883Y-43946501D01*
X55979881Y-43946500D01*
X55979873Y-43946500D01*
X55979864Y-43946500D01*
X55020129Y-43946500D01*
X55020123Y-43946501D01*
X54960516Y-43952908D01*
X54825671Y-44003202D01*
X54825668Y-44003204D01*
X54730073Y-44074767D01*
X54664609Y-44099184D01*
X54655762Y-44099500D01*
X53662185Y-44099500D01*
X53595146Y-44079815D01*
X53561867Y-44048386D01*
X53514414Y-43983072D01*
X53391928Y-43860586D01*
X53251788Y-43758768D01*
X53097445Y-43680127D01*
X52932701Y-43626598D01*
X52932699Y-43626597D01*
X52932698Y-43626597D01*
X52801271Y-43605781D01*
X52761611Y-43599500D01*
X52138389Y-43599500D01*
X52098728Y-43605781D01*
X51967302Y-43626597D01*
X51802552Y-43680128D01*
X51648211Y-43758768D01*
X51522886Y-43849823D01*
X51457079Y-43873303D01*
X51389025Y-43857478D01*
X51377114Y-43849823D01*
X51251788Y-43758768D01*
X51097447Y-43680128D01*
X51097446Y-43680127D01*
X51097445Y-43680127D01*
X50932701Y-43626598D01*
X50932699Y-43626597D01*
X50932698Y-43626597D01*
X50801271Y-43605781D01*
X50761611Y-43599500D01*
X50138389Y-43599500D01*
X50098728Y-43605781D01*
X49967302Y-43626597D01*
X49802552Y-43680128D01*
X49648211Y-43758768D01*
X49568256Y-43816859D01*
X49508072Y-43860586D01*
X49508070Y-43860588D01*
X49508069Y-43860588D01*
X49385588Y-43983069D01*
X49385588Y-43983070D01*
X49385586Y-43983072D01*
X49338133Y-44048386D01*
X49282803Y-44091051D01*
X49237815Y-44099500D01*
X48186670Y-44099500D01*
X48186654Y-44099499D01*
X48179058Y-44099499D01*
X48020943Y-44099499D01*
X47944579Y-44119961D01*
X47868214Y-44140423D01*
X47868209Y-44140426D01*
X47731290Y-44219475D01*
X47731282Y-44219481D01*
X43887584Y-48063181D01*
X43826261Y-48096666D01*
X43799903Y-48099500D01*
X43766228Y-48099500D01*
X43601925Y-48132182D01*
X43601917Y-48132184D01*
X43447139Y-48196295D01*
X43307837Y-48289373D01*
X43189373Y-48407837D01*
X43096295Y-48547139D01*
X43032184Y-48701917D01*
X43032182Y-48701925D01*
X42999500Y-48866228D01*
X42999500Y-49033771D01*
X43032182Y-49198074D01*
X43032184Y-49198082D01*
X43096295Y-49352860D01*
X43189373Y-49492162D01*
X43307834Y-49610623D01*
X43307838Y-49610626D01*
X43441351Y-49699838D01*
X43486156Y-49753451D01*
X43494863Y-49822776D01*
X43464708Y-49885803D01*
X43460141Y-49890621D01*
X41184512Y-52166251D01*
X41184505Y-52166258D01*
X41181286Y-52169478D01*
X41181284Y-52169480D01*
X41069480Y-52281284D01*
X41043395Y-52326465D01*
X41037544Y-52336598D01*
X41037543Y-52336600D01*
X40990424Y-52418213D01*
X40990423Y-52418215D01*
X40949499Y-52570943D01*
X40949499Y-52570945D01*
X40949499Y-52739046D01*
X40949500Y-52739059D01*
X40949500Y-58296349D01*
X40929815Y-58363388D01*
X40913181Y-58384030D01*
X40889376Y-58407834D01*
X40889373Y-58407837D01*
X40796295Y-58547139D01*
X40732184Y-58701917D01*
X40732182Y-58701925D01*
X40699500Y-58866228D01*
X39100500Y-58866228D01*
X39100500Y-38613389D01*
X51124500Y-38613389D01*
X51124500Y-38786610D01*
X51151597Y-38957698D01*
X51151598Y-38957701D01*
X51183554Y-39056052D01*
X51193431Y-39086448D01*
X51199500Y-39124766D01*
X51199500Y-40275232D01*
X51193431Y-40313551D01*
X51151598Y-40442298D01*
X51137309Y-40532517D01*
X51124500Y-40613389D01*
X51124500Y-40786611D01*
X51151598Y-40957701D01*
X51205127Y-41122445D01*
X51283768Y-41276788D01*
X51385586Y-41416928D01*
X51508072Y-41539414D01*
X51529071Y-41554671D01*
X51547233Y-41567866D01*
X51562029Y-41580503D01*
X51635354Y-41653828D01*
X51794595Y-41769524D01*
X51877455Y-41811743D01*
X51969970Y-41858882D01*
X51969972Y-41858882D01*
X51969975Y-41858884D01*
X52070317Y-41891487D01*
X52157173Y-41919709D01*
X52351578Y-41950500D01*
X52351583Y-41950500D01*
X53888082Y-41950500D01*
X53955121Y-41970185D01*
X54000876Y-42022989D01*
X54009248Y-42048142D01*
X54017259Y-42084970D01*
X54051383Y-42187497D01*
X54051386Y-42187503D01*
X54129171Y-42308537D01*
X54129179Y-42308548D01*
X54174923Y-42361340D01*
X54174926Y-42361343D01*
X54174930Y-42361347D01*
X54283664Y-42455567D01*
X54283667Y-42455568D01*
X54283668Y-42455569D01*
X54365882Y-42493116D01*
X54414541Y-42515338D01*
X54481580Y-42535023D01*
X54481584Y-42535024D01*
X54624000Y-42555500D01*
X54624003Y-42555500D01*
X56694224Y-42555500D01*
X56701309Y-42555301D01*
X56722576Y-42554704D01*
X56736459Y-42553924D01*
X56750000Y-42552781D01*
X56750000Y-47150000D01*
X56750000Y-52050000D01*
X63350000Y-52050000D01*
X67050000Y-52050000D01*
X67050000Y-44500000D01*
X63350000Y-44500000D01*
X63350000Y-43369327D01*
X63380118Y-43380561D01*
X63470017Y-43414091D01*
X63529627Y-43420500D01*
X64210372Y-43420499D01*
X64269983Y-43414091D01*
X64404831Y-43363796D01*
X64520046Y-43277546D01*
X64520047Y-43277545D01*
X64551882Y-43235018D01*
X64607815Y-43193146D01*
X64616343Y-43190312D01*
X65932535Y-42805481D01*
X65967333Y-42800499D01*
X67345371Y-42800499D01*
X67345372Y-42800499D01*
X67404983Y-42794091D01*
X67539831Y-42743796D01*
X67655046Y-42657546D01*
X67741296Y-42542331D01*
X67791591Y-42407483D01*
X67798000Y-42347873D01*
X67797999Y-39829499D01*
X67800549Y-39820814D01*
X67799261Y-39811853D01*
X67810239Y-39787812D01*
X67817684Y-39762461D01*
X67824524Y-39756533D01*
X67828286Y-39748297D01*
X67850518Y-39734009D01*
X67870487Y-39716706D01*
X67881002Y-39714418D01*
X67887064Y-39710523D01*
X67921999Y-39705500D01*
X68020500Y-39705500D01*
X68087539Y-39725185D01*
X68133294Y-39777989D01*
X68144500Y-39829500D01*
X68144500Y-43920500D01*
X68124815Y-43987539D01*
X68072011Y-44033294D01*
X68020500Y-44044500D01*
X67924000Y-44044500D01*
X67923991Y-44044500D01*
X67923990Y-44044501D01*
X67816549Y-44056052D01*
X67816537Y-44056054D01*
X67765027Y-44067260D01*
X67662502Y-44101383D01*
X67662496Y-44101386D01*
X67541462Y-44179171D01*
X67541451Y-44179179D01*
X67488659Y-44224923D01*
X67394433Y-44333664D01*
X67394430Y-44333668D01*
X67334664Y-44464534D01*
X67314976Y-44531582D01*
X67306034Y-44593776D01*
X67294500Y-44674000D01*
X67294500Y-51926000D01*
X67294501Y-51926009D01*
X67306052Y-52033450D01*
X67306054Y-52033462D01*
X67317260Y-52084972D01*
X67351383Y-52187497D01*
X67351386Y-52187503D01*
X67429171Y-52308537D01*
X67429179Y-52308548D01*
X67474923Y-52361340D01*
X67474926Y-52361343D01*
X67474930Y-52361347D01*
X67583664Y-52455567D01*
X67583667Y-52455568D01*
X67583668Y-52455569D01*
X67689066Y-52503704D01*
X67714541Y-52515338D01*
X67781580Y-52535023D01*
X67781584Y-52535024D01*
X67924000Y-52555500D01*
X67924003Y-52555500D01*
X76825990Y-52555500D01*
X76826000Y-52555500D01*
X76933456Y-52543947D01*
X76984967Y-52532741D01*
X77019197Y-52521347D01*
X77087497Y-52498616D01*
X77087501Y-52498613D01*
X77087504Y-52498613D01*
X77208543Y-52420825D01*
X77261347Y-52375070D01*
X77355567Y-52266336D01*
X77415338Y-52135459D01*
X77435023Y-52068420D01*
X77435024Y-52068416D01*
X77455500Y-51926000D01*
X77455500Y-48829500D01*
X77475185Y-48762461D01*
X77527989Y-48716706D01*
X77579500Y-48705500D01*
X82075990Y-48705500D01*
X82076000Y-48705500D01*
X82183456Y-48693947D01*
X82234967Y-48682741D01*
X82269197Y-48671347D01*
X82337497Y-48648616D01*
X82337501Y-48648613D01*
X82337504Y-48648613D01*
X82458543Y-48570825D01*
X82511347Y-48525070D01*
X82605567Y-48416336D01*
X82665338Y-48285459D01*
X82685023Y-48218420D01*
X82685024Y-48218416D01*
X82705500Y-48076000D01*
X82705500Y-47939349D01*
X82707883Y-47915157D01*
X82711468Y-47897137D01*
X82720206Y-47853206D01*
X82731000Y-47798943D01*
X82731000Y-47641058D01*
X82730999Y-47641055D01*
X82730664Y-47639373D01*
X82707883Y-47524841D01*
X82705500Y-47500650D01*
X82705500Y-46669349D01*
X82707883Y-46645157D01*
X82731000Y-46528943D01*
X82731000Y-46371058D01*
X82730999Y-46371055D01*
X82707883Y-46254841D01*
X82705500Y-46230650D01*
X82705500Y-45409349D01*
X82707883Y-45385157D01*
X82708255Y-45383290D01*
X82720807Y-45320185D01*
X82731000Y-45268943D01*
X82731000Y-45111058D01*
X82730999Y-45111055D01*
X82728152Y-45096744D01*
X82707883Y-44994841D01*
X82705500Y-44970650D01*
X82705500Y-44834499D01*
X82705359Y-44824001D01*
X82705318Y-44820944D01*
X82705140Y-44814304D01*
X82704597Y-44800782D01*
X82676524Y-44659667D01*
X82653278Y-44593778D01*
X82586587Y-44466290D01*
X82486678Y-44362753D01*
X82486677Y-44362752D01*
X82486676Y-44362751D01*
X82486672Y-44362748D01*
X82449236Y-44333668D01*
X82431500Y-44319891D01*
X82431498Y-44319890D01*
X82431497Y-44319889D01*
X82306471Y-44248697D01*
X82306466Y-44248695D01*
X82166446Y-44215610D01*
X82144169Y-44213617D01*
X82096857Y-44209384D01*
X82096854Y-44209384D01*
X82096853Y-44209384D01*
X81976782Y-44215822D01*
X81970143Y-44216000D01*
X80573560Y-44216000D01*
X80549369Y-44213617D01*
X80514067Y-44206595D01*
X80514057Y-44206593D01*
X80514050Y-44206591D01*
X80465011Y-44199318D01*
X80464998Y-44199316D01*
X80464988Y-44199315D01*
X80464965Y-44199312D01*
X80464950Y-44199311D01*
X80440819Y-44196934D01*
X80440792Y-44196932D01*
X80414690Y-44195650D01*
X80391260Y-44194500D01*
X80074000Y-44194500D01*
X80073991Y-44194500D01*
X80073990Y-44194501D01*
X79966549Y-44206052D01*
X79966537Y-44206054D01*
X79915027Y-44217260D01*
X79812502Y-44251383D01*
X79812496Y-44251386D01*
X79691462Y-44329171D01*
X79691451Y-44329179D01*
X79638659Y-44374923D01*
X79544433Y-44483664D01*
X79544430Y-44483668D01*
X79484664Y-44614534D01*
X79465713Y-44679074D01*
X79464977Y-44681580D01*
X79464976Y-44681584D01*
X79444940Y-44820944D01*
X79444500Y-44824001D01*
X79444500Y-45316251D01*
X79424815Y-45383290D01*
X79372011Y-45429045D01*
X79320571Y-45440251D01*
X72532841Y-45444136D01*
X72465790Y-45424490D01*
X72420005Y-45371712D01*
X72408772Y-45319494D01*
X72408869Y-45300883D01*
X72448420Y-37667500D01*
X72454590Y-36476625D01*
X72454589Y-36476624D01*
X72454590Y-36476612D01*
X72449908Y-36440801D01*
X72460736Y-36371781D01*
X72507163Y-36319566D01*
X72574448Y-36300741D01*
X72641231Y-36321282D01*
X72647173Y-36325464D01*
X72669580Y-36342238D01*
X72675668Y-36346795D01*
X72675671Y-36346797D01*
X72810517Y-36397091D01*
X72810516Y-36397091D01*
X72817444Y-36397835D01*
X72870127Y-36403500D01*
X73829872Y-36403499D01*
X73889483Y-36397091D01*
X74024331Y-36346796D01*
X74139546Y-36260546D01*
X74225796Y-36145331D01*
X74276091Y-36010483D01*
X74282500Y-35950873D01*
X74282500Y-35835258D01*
X90449500Y-35835258D01*
X90449500Y-36064741D01*
X90474446Y-36254215D01*
X90479452Y-36292238D01*
X90501644Y-36375060D01*
X90538842Y-36513887D01*
X90626650Y-36725876D01*
X90626657Y-36725890D01*
X90660408Y-36784348D01*
X90711998Y-36873706D01*
X90741392Y-36924617D01*
X90881081Y-37106661D01*
X90881089Y-37106670D01*
X91043330Y-37268911D01*
X91043338Y-37268918D01*
X91225382Y-37408607D01*
X91225385Y-37408608D01*
X91225388Y-37408611D01*
X91424112Y-37523344D01*
X91424117Y-37523346D01*
X91424123Y-37523349D01*
X91515480Y-37561190D01*
X91636113Y-37611158D01*
X91857762Y-37670548D01*
X92085266Y-37700500D01*
X92085273Y-37700500D01*
X92314727Y-37700500D01*
X92314734Y-37700500D01*
X92542238Y-37670548D01*
X92763887Y-37611158D01*
X92975888Y-37523344D01*
X93174612Y-37408611D01*
X93356661Y-37268919D01*
X93356665Y-37268914D01*
X93356670Y-37268911D01*
X93518911Y-37106670D01*
X93518914Y-37106665D01*
X93518919Y-37106661D01*
X93658611Y-36924612D01*
X93773344Y-36725888D01*
X93861158Y-36513887D01*
X93920548Y-36292238D01*
X93950500Y-36064734D01*
X93950500Y-35835266D01*
X93920548Y-35607762D01*
X93861158Y-35386113D01*
X93805654Y-35252116D01*
X93773349Y-35174123D01*
X93773346Y-35174117D01*
X93773344Y-35174112D01*
X93658611Y-34975388D01*
X93658608Y-34975385D01*
X93658607Y-34975382D01*
X93544757Y-34827011D01*
X93518919Y-34793339D01*
X93518918Y-34793338D01*
X93518911Y-34793330D01*
X93356670Y-34631089D01*
X93356661Y-34631081D01*
X93174617Y-34491392D01*
X92975890Y-34376657D01*
X92975876Y-34376650D01*
X92763887Y-34288842D01*
X92728846Y-34279453D01*
X92542238Y-34229452D01*
X92504215Y-34224446D01*
X92314741Y-34199500D01*
X92314734Y-34199500D01*
X92085266Y-34199500D01*
X92085258Y-34199500D01*
X91868715Y-34228009D01*
X91857762Y-34229452D01*
X91782941Y-34249500D01*
X91636112Y-34288842D01*
X91424123Y-34376650D01*
X91424109Y-34376657D01*
X91225382Y-34491392D01*
X91043338Y-34631081D01*
X90881081Y-34793338D01*
X90741392Y-34975382D01*
X90626657Y-35174109D01*
X90626650Y-35174123D01*
X90538842Y-35386112D01*
X90533859Y-35404709D01*
X90479456Y-35607749D01*
X90479453Y-35607759D01*
X90479451Y-35607770D01*
X90449500Y-35835258D01*
X74282500Y-35835258D01*
X74282499Y-35455006D01*
X74282499Y-35049129D01*
X74282498Y-35049123D01*
X74276091Y-34989516D01*
X74225797Y-34854671D01*
X74225793Y-34854664D01*
X74139547Y-34739455D01*
X74139544Y-34739452D01*
X74024335Y-34653206D01*
X74024328Y-34653202D01*
X73889482Y-34602908D01*
X73889483Y-34602908D01*
X73829883Y-34596501D01*
X73829881Y-34596500D01*
X73829873Y-34596500D01*
X73829864Y-34596500D01*
X72870129Y-34596500D01*
X72870123Y-34596501D01*
X72810516Y-34602908D01*
X72675671Y-34653202D01*
X72675664Y-34653206D01*
X72560455Y-34739452D01*
X72560452Y-34739455D01*
X72477840Y-34849811D01*
X72474184Y-34852547D01*
X72472287Y-34856703D01*
X72446469Y-34873295D01*
X72421907Y-34891682D01*
X72416277Y-34892697D01*
X72413509Y-34894477D01*
X72378574Y-34899500D01*
X72297260Y-34899500D01*
X72230221Y-34879815D01*
X72184466Y-34827011D01*
X72181083Y-34818844D01*
X72175796Y-34804669D01*
X72175794Y-34804666D01*
X72175794Y-34804665D01*
X72089547Y-34689455D01*
X72089544Y-34689452D01*
X71974335Y-34603206D01*
X71974328Y-34603202D01*
X71839482Y-34552908D01*
X71839483Y-34552908D01*
X71779883Y-34546501D01*
X71779881Y-34546500D01*
X71779873Y-34546500D01*
X71779864Y-34546500D01*
X70820129Y-34546500D01*
X70820123Y-34546501D01*
X70760516Y-34552908D01*
X70625671Y-34603202D01*
X70625664Y-34603206D01*
X70510455Y-34689452D01*
X70510452Y-34689455D01*
X70424205Y-34804665D01*
X70424205Y-34804666D01*
X70423199Y-34807362D01*
X70418920Y-34818833D01*
X70405652Y-34836558D01*
X70396453Y-34856703D01*
X70385122Y-34863984D01*
X70377052Y-34874766D01*
X70356303Y-34882504D01*
X70337675Y-34894477D01*
X70315759Y-34897628D01*
X70311588Y-34899184D01*
X70302740Y-34899500D01*
X70187180Y-34899500D01*
X70120141Y-34879815D01*
X70087913Y-34849811D01*
X70007546Y-34742454D01*
X69984709Y-34725358D01*
X69892335Y-34656206D01*
X69892328Y-34656202D01*
X69757482Y-34605908D01*
X69757483Y-34605908D01*
X69697883Y-34599501D01*
X69697881Y-34599500D01*
X69697873Y-34599500D01*
X69697864Y-34599500D01*
X68702129Y-34599500D01*
X68702123Y-34599501D01*
X68642516Y-34605908D01*
X68507671Y-34656202D01*
X68507664Y-34656206D01*
X68392456Y-34742452D01*
X68392455Y-34742453D01*
X68392454Y-34742454D01*
X68312087Y-34849811D01*
X68256153Y-34891682D01*
X68212820Y-34899500D01*
X65477057Y-34899500D01*
X65318942Y-34899500D01*
X65166215Y-34940423D01*
X65166214Y-34940423D01*
X65166212Y-34940424D01*
X65166209Y-34940425D01*
X65116096Y-34969359D01*
X65116095Y-34969360D01*
X65081184Y-34989516D01*
X65029285Y-35019479D01*
X65029282Y-35019481D01*
X64362180Y-35686584D01*
X64300857Y-35720069D01*
X64231165Y-35715085D01*
X64175232Y-35673213D01*
X64150815Y-35607749D01*
X64150499Y-35598903D01*
X64150499Y-35252129D01*
X64150498Y-35252123D01*
X64150497Y-35252116D01*
X64144091Y-35192517D01*
X64137230Y-35174123D01*
X64093797Y-35057671D01*
X64093793Y-35057664D01*
X64007547Y-34942455D01*
X64007544Y-34942452D01*
X63892335Y-34856206D01*
X63892328Y-34856202D01*
X63757482Y-34805908D01*
X63757483Y-34805908D01*
X63697883Y-34799501D01*
X63697881Y-34799500D01*
X63697873Y-34799500D01*
X63697864Y-34799500D01*
X62802129Y-34799500D01*
X62802123Y-34799501D01*
X62742516Y-34805908D01*
X62607671Y-34856202D01*
X62607664Y-34856206D01*
X62492455Y-34942452D01*
X62492452Y-34942455D01*
X62406206Y-35057664D01*
X62406202Y-35057671D01*
X62390414Y-35100000D01*
X61550000Y-35100000D01*
X61550000Y-36817000D01*
X61512130Y-36817000D01*
X61512123Y-36817001D01*
X61452516Y-36823408D01*
X61317671Y-36873702D01*
X61317664Y-36873706D01*
X61202455Y-36959952D01*
X61202452Y-36959955D01*
X61116206Y-37075164D01*
X61116202Y-37075171D01*
X61072686Y-37191846D01*
X61065909Y-37210017D01*
X61059500Y-37269627D01*
X61059500Y-37269634D01*
X61059500Y-37269635D01*
X61059500Y-37950370D01*
X61059501Y-37950376D01*
X61064835Y-38000000D01*
X60700000Y-38000000D01*
X60700000Y-38106588D01*
X60665706Y-38067011D01*
X60654500Y-38015500D01*
X60654500Y-37191859D01*
X60654501Y-37191846D01*
X60654501Y-37023745D01*
X60654501Y-37023743D01*
X60613577Y-36871015D01*
X60582391Y-36817000D01*
X60534520Y-36734084D01*
X60422716Y-36622280D01*
X60422715Y-36622279D01*
X60418385Y-36617949D01*
X60418374Y-36617939D01*
X60236818Y-36436383D01*
X60203333Y-36375060D01*
X60200499Y-36348702D01*
X60200499Y-35850929D01*
X60200498Y-35850923D01*
X60200497Y-35850916D01*
X60194091Y-35791317D01*
X60167517Y-35720069D01*
X60143797Y-35656471D01*
X60143793Y-35656464D01*
X60057547Y-35541255D01*
X60057544Y-35541252D01*
X59942335Y-35455006D01*
X59942328Y-35455002D01*
X59807482Y-35404708D01*
X59807483Y-35404708D01*
X59747883Y-35398301D01*
X59747881Y-35398300D01*
X59747873Y-35398300D01*
X59747864Y-35398300D01*
X58852129Y-35398300D01*
X58852123Y-35398301D01*
X58792516Y-35404708D01*
X58657671Y-35455002D01*
X58657664Y-35455006D01*
X58542455Y-35541252D01*
X58542452Y-35541255D01*
X58456206Y-35656464D01*
X58456202Y-35656471D01*
X58405908Y-35791317D01*
X58401183Y-35835272D01*
X58399501Y-35850923D01*
X58399500Y-35850935D01*
X58399500Y-36846670D01*
X58399501Y-36846676D01*
X58405908Y-36906283D01*
X58456202Y-37041128D01*
X58456206Y-37041135D01*
X58542452Y-37156344D01*
X58542455Y-37156347D01*
X58657664Y-37242593D01*
X58657671Y-37242597D01*
X58702618Y-37259361D01*
X58792517Y-37292891D01*
X58852127Y-37299300D01*
X59329500Y-37299299D01*
X59338186Y-37301849D01*
X59347147Y-37300561D01*
X59371183Y-37311538D01*
X59396539Y-37318983D01*
X59402467Y-37325825D01*
X59410703Y-37329586D01*
X59424989Y-37351817D01*
X59442294Y-37371787D01*
X59444581Y-37382302D01*
X59448477Y-37388364D01*
X59453500Y-37423299D01*
X59453500Y-37543500D01*
X59433815Y-37610539D01*
X59381011Y-37656294D01*
X59329500Y-37667500D01*
X58899129Y-37667500D01*
X58899123Y-37667501D01*
X58839516Y-37673908D01*
X58704671Y-37724202D01*
X58704664Y-37724206D01*
X58589455Y-37810452D01*
X58589452Y-37810455D01*
X58503206Y-37925664D01*
X58503202Y-37925671D01*
X58452908Y-38060517D01*
X58446501Y-38120116D01*
X58446500Y-38120127D01*
X58446500Y-38543254D01*
X58446501Y-38920500D01*
X58426817Y-38987539D01*
X58374013Y-39033294D01*
X58322501Y-39044500D01*
X54624000Y-39044500D01*
X54623991Y-39044500D01*
X54623990Y-39044501D01*
X54516549Y-39056052D01*
X54516537Y-39056054D01*
X54465027Y-39067260D01*
X54362502Y-39101383D01*
X54362496Y-39101386D01*
X54241462Y-39179171D01*
X54241451Y-39179179D01*
X54188659Y-39224923D01*
X54094433Y-39333664D01*
X54094430Y-39333668D01*
X54074636Y-39377012D01*
X54062961Y-39390485D01*
X54055555Y-39406703D01*
X54040556Y-39416341D01*
X54028881Y-39429816D01*
X54011774Y-39434838D01*
X53996777Y-39444477D01*
X53961842Y-39449500D01*
X53824500Y-39449500D01*
X53757461Y-39429815D01*
X53711706Y-39377011D01*
X53700500Y-39325500D01*
X53700500Y-39124766D01*
X53706569Y-39086448D01*
X53748402Y-38957701D01*
X53775500Y-38786611D01*
X53775500Y-38613389D01*
X53748402Y-38442299D01*
X53694873Y-38277555D01*
X53616232Y-38123212D01*
X53514414Y-37983072D01*
X53391928Y-37860586D01*
X53352763Y-37832131D01*
X53352761Y-37832129D01*
X53337967Y-37819493D01*
X53264648Y-37746174D01*
X53264646Y-37746172D01*
X53105405Y-37630476D01*
X53067491Y-37611158D01*
X52930029Y-37541117D01*
X52742826Y-37480290D01*
X52548422Y-37449500D01*
X52548417Y-37449500D01*
X52351583Y-37449500D01*
X52351578Y-37449500D01*
X52157173Y-37480290D01*
X51969970Y-37541117D01*
X51794594Y-37630476D01*
X51635348Y-37746176D01*
X51635346Y-37746178D01*
X51562026Y-37819497D01*
X51547234Y-37832131D01*
X51508074Y-37860583D01*
X51385585Y-37983073D01*
X51283768Y-38123211D01*
X51205128Y-38277552D01*
X51151597Y-38442302D01*
X51124500Y-38613389D01*
X39100500Y-38613389D01*
X39100500Y-36052561D01*
X39100606Y-36047437D01*
X39102134Y-36010483D01*
X39107313Y-35885258D01*
X42599500Y-35885258D01*
X42599500Y-36114741D01*
X42623989Y-36300741D01*
X42629452Y-36342238D01*
X42675445Y-36513887D01*
X42688842Y-36563887D01*
X42776650Y-36775876D01*
X42776657Y-36775890D01*
X42803425Y-36822254D01*
X42862524Y-36924617D01*
X42891392Y-36974617D01*
X43031081Y-37156661D01*
X43031089Y-37156670D01*
X43193330Y-37318911D01*
X43193338Y-37318918D01*
X43193339Y-37318919D01*
X43231071Y-37347872D01*
X43375382Y-37458607D01*
X43375385Y-37458608D01*
X43375388Y-37458611D01*
X43574112Y-37573344D01*
X43574117Y-37573346D01*
X43574123Y-37573349D01*
X43663908Y-37610539D01*
X43786113Y-37661158D01*
X44007762Y-37720548D01*
X44235266Y-37750500D01*
X44235273Y-37750500D01*
X44464727Y-37750500D01*
X44464734Y-37750500D01*
X44692238Y-37720548D01*
X44913887Y-37661158D01*
X45125888Y-37573344D01*
X45324612Y-37458611D01*
X45506661Y-37318919D01*
X45506665Y-37318914D01*
X45506670Y-37318911D01*
X45668911Y-37156670D01*
X45668914Y-37156665D01*
X45668919Y-37156661D01*
X45808611Y-36974612D01*
X45923344Y-36775888D01*
X46011158Y-36563887D01*
X46070548Y-36342238D01*
X46100500Y-36114734D01*
X46100500Y-35885266D01*
X46070548Y-35657762D01*
X46011158Y-35436113D01*
X45934949Y-35252128D01*
X45923349Y-35224123D01*
X45923346Y-35224117D01*
X45923344Y-35224112D01*
X45808611Y-35025388D01*
X45808608Y-35025385D01*
X45808607Y-35025382D01*
X45691905Y-34873295D01*
X45668919Y-34843339D01*
X45668918Y-34843338D01*
X45668911Y-34843330D01*
X45506670Y-34681089D01*
X45506661Y-34681081D01*
X45324617Y-34541392D01*
X45125890Y-34426657D01*
X45125876Y-34426650D01*
X44913887Y-34338842D01*
X44692238Y-34279452D01*
X44654215Y-34274446D01*
X44464741Y-34249500D01*
X44464734Y-34249500D01*
X44235266Y-34249500D01*
X44235258Y-34249500D01*
X44018715Y-34278009D01*
X44007762Y-34279452D01*
X43972718Y-34288842D01*
X43786112Y-34338842D01*
X43574123Y-34426650D01*
X43574109Y-34426657D01*
X43375382Y-34541392D01*
X43193338Y-34681081D01*
X43031081Y-34843338D01*
X42891392Y-35025382D01*
X42776657Y-35224109D01*
X42776650Y-35224123D01*
X42688842Y-35436112D01*
X42660670Y-35541252D01*
X42629799Y-35656469D01*
X42629453Y-35657759D01*
X42629451Y-35657770D01*
X42599500Y-35885258D01*
X39107313Y-35885258D01*
X39119072Y-35600961D01*
X39119915Y-35590792D01*
X39174874Y-35149881D01*
X39176554Y-35139809D01*
X39267734Y-34704951D01*
X39270241Y-34695055D01*
X39397022Y-34269205D01*
X39400336Y-34259553D01*
X39561840Y-33845654D01*
X39565954Y-33836275D01*
X39761088Y-33437120D01*
X39765949Y-33428136D01*
X39993389Y-33046445D01*
X39998982Y-33037885D01*
X40257153Y-32676294D01*
X40263422Y-32668240D01*
X40550581Y-32329191D01*
X40557500Y-32321675D01*
X40871675Y-32007500D01*
X40879191Y-32000581D01*
X41218240Y-31713422D01*
X41226294Y-31707153D01*
X41587885Y-31448982D01*
X41596445Y-31443389D01*
X41978136Y-31215949D01*
X41987120Y-31211088D01*
X42386280Y-31015951D01*
X42395654Y-31011840D01*
X42809553Y-30850336D01*
X42819205Y-30847022D01*
X43245055Y-30720241D01*
X43254951Y-30717734D01*
X43689809Y-30626554D01*
X43699881Y-30624874D01*
X44140792Y-30569915D01*
X44150961Y-30569072D01*
X44597437Y-30550605D01*
X44602561Y-30550500D01*
X44665892Y-30550500D01*
X92434108Y-30550500D01*
X92497439Y-30550500D01*
X92502562Y-30550605D01*
G37*
%TD.AperFunction*%
%TD*%
%TA.AperFunction,Conductor*%
%TO.N,VIN*%
G36*
X59656099Y-39558144D02*
G01*
X59656161Y-39557917D01*
X59659634Y-39558847D01*
X59662602Y-39559438D01*
X59664003Y-39560018D01*
X59664008Y-39560019D01*
X59664011Y-39560021D01*
X59740438Y-39580500D01*
X60579200Y-39580500D01*
X60646239Y-39600185D01*
X60648060Y-39601377D01*
X60659269Y-39608867D01*
X60659271Y-39608867D01*
X60659273Y-39608868D01*
X60717747Y-39620499D01*
X60717750Y-39620500D01*
X61220500Y-39620500D01*
X61287539Y-39640185D01*
X61333294Y-39692989D01*
X61344500Y-39744500D01*
X61344500Y-41315500D01*
X61324815Y-41382539D01*
X61272011Y-41428294D01*
X61220500Y-41439500D01*
X60717751Y-41439500D01*
X60704595Y-41442117D01*
X60680403Y-41444500D01*
X60549995Y-41444500D01*
X60504271Y-41449651D01*
X60444788Y-41478298D01*
X60444787Y-41478298D01*
X60421873Y-41489334D01*
X60413367Y-41500000D01*
X60400000Y-41500000D01*
X60400000Y-41516761D01*
X60368997Y-41555637D01*
X60368993Y-41555642D01*
X60364853Y-41560833D01*
X60364850Y-41560839D01*
X60344500Y-41649995D01*
X60344500Y-41920500D01*
X60324815Y-41987539D01*
X60272011Y-42033294D01*
X60220500Y-42044500D01*
X56749993Y-42044500D01*
X56708103Y-42049220D01*
X56694220Y-42050000D01*
X54624000Y-42050000D01*
X54556961Y-42030315D01*
X54511206Y-41977511D01*
X54500000Y-41926000D01*
X54500000Y-39674000D01*
X54519685Y-39606961D01*
X54572489Y-39561206D01*
X54624000Y-39550000D01*
X59615153Y-39550000D01*
X59656099Y-39558144D01*
G37*
%TD.AperFunction*%
%TD*%
%TA.AperFunction,Conductor*%
%TO.N,GND*%
G36*
X61415447Y-38047052D02*
G01*
X61481769Y-38091367D01*
X61481770Y-38091368D01*
X61540247Y-38102999D01*
X61540250Y-38103000D01*
X61540252Y-38103000D01*
X61859750Y-38103000D01*
X61925808Y-38089860D01*
X61974192Y-38089860D01*
X62040249Y-38103000D01*
X62040252Y-38103000D01*
X62359750Y-38103000D01*
X62425808Y-38089860D01*
X62474192Y-38089860D01*
X62540249Y-38103000D01*
X62540252Y-38103000D01*
X62859750Y-38103000D01*
X62925808Y-38089860D01*
X62974192Y-38089860D01*
X63040249Y-38103000D01*
X63253000Y-38103000D01*
X63320039Y-38122685D01*
X63350000Y-38157261D01*
X63350000Y-44500000D01*
X67050000Y-44500000D01*
X67050000Y-52050000D01*
X63350000Y-52050000D01*
X56750000Y-52050000D01*
X56750000Y-47150000D01*
X56750000Y-42250000D01*
X60550000Y-42250000D01*
X60550000Y-41650000D01*
X61550000Y-41650000D01*
X61550000Y-39425000D01*
X61550000Y-38500000D01*
X61470094Y-38500000D01*
X61467052Y-38495447D01*
X61400730Y-38451132D01*
X61400729Y-38451131D01*
X61342252Y-38439500D01*
X61342248Y-38439500D01*
X60717752Y-38439500D01*
X60700000Y-38443030D01*
X60700000Y-38000000D01*
X61384008Y-38000000D01*
X61415447Y-38047052D01*
G37*
%TD.AperFunction*%
%TA.AperFunction,Conductor*%
G36*
X62550000Y-36550000D02*
G01*
X63198000Y-37117000D01*
X63040252Y-37117000D01*
X62974190Y-37130140D01*
X62925810Y-37130140D01*
X62859748Y-37117000D01*
X62540252Y-37117000D01*
X62474190Y-37130140D01*
X62425810Y-37130140D01*
X62359748Y-37117000D01*
X62040252Y-37117000D01*
X61974190Y-37130140D01*
X61925810Y-37130140D01*
X61859748Y-37117000D01*
X61550000Y-37117000D01*
X61550000Y-35100000D01*
X62500000Y-35100000D01*
X62550000Y-36550000D01*
G37*
%TD.AperFunction*%
%TD*%
M02*
