M48
; DRILL file {KiCad 9.0.6} date 2026-07-15T22:48:09-0700
; FORMAT={-:-/ absolute / inch / decimal}
; #@! TF.CreationDate,2026-07-15T22:48:09-07:00
; #@! TF.GenerationSoftware,Kicad,Pcbnew,9.0.6
; #@! TF.FileFunction,Plated,1,4,PTH
FMAT,2
INCH
; #@! TA.AperFunction,Plated,PTH,ViaDrill
T1C0.0079
; #@! TA.AperFunction,Plated,PTH,ViaDrill
T2C0.0118
; #@! TA.AperFunction,Plated,PTH,ComponentDrill
T3C0.0118
; #@! TA.AperFunction,Plated,PTH,ComponentDrill
T4C0.0335
; #@! TA.AperFunction,Plated,PTH,ComponentDrill
T5C0.0354
%
G90
G05
T1
X2.4028Y-1.6646
X2.4028Y-1.6843
X2.4291Y-1.7106
X2.4488Y-1.7106
X2.4685Y-1.7106
X2.4882Y-1.7106
X2.5434Y-1.5941
X2.5453Y-1.5157
X2.5531Y-1.565
T2
X1.6358Y-2.3209
X1.6713Y-3.5807
X1.6811Y-2.563
X1.7165Y-3.624
X1.7185Y-3.5335
X1.7264Y-1.9272
X1.7264Y-2.7441
X1.7638Y-2.0
X1.8012Y-2.1614
X1.8012Y-2.7421
X1.813Y-2.9547
X1.8209Y-3.5512
X1.8209Y-3.6063
X1.8307Y-2.2579
X1.8543Y-3.5512
X1.8543Y-3.6063
X1.8681Y-2.8957
X1.8839Y-3.6063
X1.8858Y-3.5512
X1.9193Y-3.5512
X1.9193Y-3.6063
X2.015Y-2.4827
X2.015Y-3.4807
X2.015Y-3.6807
X2.1476Y-2.1909
X2.185Y-2.0374
X2.186Y-2.1171
X2.187Y-1.8248
X2.187Y-1.9016
X2.2374Y-2.3799
X2.2677Y-1.6831
X2.2717Y-1.7244
X2.2717Y-1.75
X2.2776Y-1.5197
X2.2795Y-1.4311
X2.2933Y-1.9921
X2.2953Y-1.8091
X2.2953Y-1.872
X2.2953Y-1.9311
X2.3228Y-1.7224
X2.3228Y-1.75
X2.3307Y-1.6811
X2.3583Y-1.811
X2.3583Y-1.8701
X2.3583Y-1.9331
X2.3583Y-1.9921
X2.4154Y-1.9941
X2.4173Y-1.811
X2.4173Y-1.874
X2.4173Y-1.9331
X2.435Y-1.4075
X2.439Y-1.5157
X2.439Y-1.5413
X2.439Y-1.5669
X2.439Y-1.5925
X2.439Y-1.6201
X2.439Y-1.6457
X2.439Y-1.6732
X2.4409Y-1.4409
X2.4783Y-1.5157
X2.4783Y-1.5413
X2.4783Y-1.5669
X2.4783Y-1.5925
X2.4783Y-1.6201
X2.4783Y-1.6457
X2.4783Y-1.6732
X2.4803Y-1.813
X2.4803Y-1.872
X2.4803Y-1.935
X2.4803Y-1.9941
X2.4922Y-1.4094
X2.5787Y-1.4508
X2.5787Y-1.9528
X2.5787Y-1.9961
X2.5807Y-1.8366
X2.5827Y-1.7874
X2.6043Y-1.9961
X2.6063Y-1.9528
X2.6122Y-1.6161
X2.6122Y-1.7874
X2.6122Y-1.8386
X2.6339Y-1.4508
X2.7374Y-2.3799
X2.7795Y-1.8031
X2.7795Y-1.8563
X2.7795Y-1.935
X2.7815Y-1.9961
X2.811Y-1.5256
X2.8878Y-1.4567
X2.9598Y-2.4827
X2.9598Y-3.0827
X2.9598Y-3.1827
X2.9598Y-3.4807
X2.9598Y-3.5807
X2.9598Y-3.6807
X2.9843Y-2.8661
X3.0079Y-1.8228
X3.0079Y-1.8602
X3.0079Y-1.8996
X3.0453Y-2.6575
X3.0453Y-2.6969
X3.0472Y-2.6004
X3.0492Y-2.5591
X3.0669Y-1.7205
X3.0669Y-1.7461
X3.0984Y-1.7205
X3.0984Y-1.7461
X3.128Y-2.061
X3.1299Y-2.0059
X3.1673Y-2.0059
X3.1673Y-2.061
X3.1811Y-2.6457
X3.1831Y-2.9213
X3.184Y-2.7615
X3.1992Y-1.7291
X3.2461Y-3.0079
X3.2461Y-3.0906
X3.2992Y-2.1516
X3.3031Y-2.6457
X3.3043Y-2.8414
X3.3976Y-2.1516
X3.4626Y-1.9291
X3.4626Y-1.9705
X3.4626Y-2.0177
X3.4744Y-1.8543
X3.5118Y-1.6555
X3.5118Y-1.6811
X3.5433Y-1.6555
X3.5433Y-1.6811
X3.5669Y-2.1161
X3.5669Y-2.1654
X3.6142Y-2.1181
X3.6181Y-2.1654
X3.6319Y-1.6555
X3.6319Y-1.6811
X3.6634Y-1.6555
X3.6634Y-1.6811
X3.7264Y-1.8642
X3.7283Y-1.9075
X3.7461Y-1.6024
T3
X3.2866Y-1.7843
X3.2866Y-1.8236
X3.326Y-1.7843
X3.326Y-1.8236
T4
X1.9862Y-1.5236
X1.9862Y-1.6024
X1.9862Y-1.6811
X1.9862Y-1.7598
X1.9862Y-1.8386
X1.9862Y-1.9173
X1.9862Y-1.9961
X1.9862Y-2.0748
X2.065Y-1.5236
X2.065Y-1.6024
X2.065Y-1.6811
X2.065Y-1.7598
X2.065Y-1.8386
X2.065Y-1.9173
X2.065Y-1.9961
X2.065Y-2.0748
T5
X1.6685Y-3.5307
X1.6685Y-3.6307
X1.7185Y-3.5807
X1.7685Y-3.5307
X1.7685Y-3.6307
M30
