%TF.GenerationSoftware,KiCad,Pcbnew,9.0.6*%
%TF.CreationDate,2026-07-15T22:48:09-07:00*%
%TF.ProjectId,Ebyte_PCB,45627974-655f-4504-9342-2e6b69636164,rev?*%
%TF.SameCoordinates,Original*%
%TF.FileFunction,Copper,L4,Bot*%
%TF.FilePolarity,Positive*%
%FSLAX46Y46*%
G04 Gerber Fmt 4.6, Leading zero omitted, Abs format (unit mm)*
G04 Created by KiCad (PCBNEW 9.0.6) date 2026-07-15 22:48:09*
%MOMM*%
%LPD*%
G01*
G04 APERTURE LIST*
G04 Aperture macros list*
%AMRoundRect*
0 Rectangle with rounded corners*
0 $1 Rounding radius*
0 $2 $3 $4 $5 $6 $7 $8 $9 X,Y pos of 4 corners*
0 Add a 4 corners polygon primitive as box body*
4,1,4,$2,$3,$4,$5,$6,$7,$8,$9,$2,$3,0*
0 Add four circle primitives for the rounded corners*
1,1,$1+$1,$2,$3*
1,1,$1+$1,$4,$5*
1,1,$1+$1,$6,$7*
1,1,$1+$1,$8,$9*
0 Add four rect primitives between the rounded corners*
20,1,$1+$1,$2,$3,$4,$5,0*
20,1,$1+$1,$4,$5,$6,$7,0*
20,1,$1+$1,$6,$7,$8,$9,0*
20,1,$1+$1,$8,$9,$2,$3,0*%
G04 Aperture macros list end*
%TA.AperFunction,ComponentPad*%
%ADD10R,1.200000X1.200000*%
%TD*%
%TA.AperFunction,ComponentPad*%
%ADD11C,1.200000*%
%TD*%
%TA.AperFunction,ComponentPad*%
%ADD12C,0.610000*%
%TD*%
%TA.AperFunction,ComponentPad*%
%ADD13RoundRect,0.250000X0.575000X-0.350000X0.575000X0.350000X-0.575000X0.350000X-0.575000X-0.350000X0*%
%TD*%
%TA.AperFunction,ComponentPad*%
%ADD14O,1.650000X1.200000*%
%TD*%
%TA.AperFunction,ViaPad*%
%ADD15C,0.600000*%
%TD*%
%TA.AperFunction,ViaPad*%
%ADD16C,0.500000*%
%TD*%
%TA.AperFunction,ViaPad*%
%ADD17C,0.700000*%
%TD*%
%TA.AperFunction,Conductor*%
%ADD18C,0.200000*%
%TD*%
%TA.AperFunction,Conductor*%
%ADD19C,0.300000*%
%TD*%
G04 APERTURE END LIST*
D10*
%TO.P,U3,1,1*%
%TO.N,ANT*%
X43650000Y-90950000D03*
D11*
%TO.P,U3,2,2*%
%TO.N,GND*%
X44920000Y-89680000D03*
%TO.P,U3,3,3*%
X42380000Y-89680000D03*
%TO.P,U3,4,4*%
X42380000Y-92220000D03*
%TO.P,U3,5,5*%
X44920000Y-92220000D03*
%TD*%
D12*
%TO.P,U4,*%
%TO.N,GND*%
X84480000Y-45320000D03*
X83480000Y-45320000D03*
X84480000Y-46320000D03*
X83480000Y-46320000D03*
%TD*%
D13*
%TO.P,U1,1*%
%TO.N,SPI1_CS1*%
X50450000Y-52700000D03*
D14*
%TO.P,U1,2*%
%TO.N,GPIO1_25*%
X52450000Y-52700000D03*
%TO.P,U1,3*%
%TO.N,SPI1_SDO*%
X50450000Y-50700000D03*
%TO.P,U1,4*%
%TO.N,RXEN*%
X52450000Y-50700000D03*
%TO.P,U1,5*%
%TO.N,Net-(R1-Pad2)*%
X50450000Y-48700000D03*
%TO.P,U1,6*%
%TO.N,TXEN*%
X52450000Y-48700000D03*
%TO.P,U1,7*%
%TO.N,SPI1_SCK*%
X50450000Y-46700000D03*
%TO.P,U1,8*%
%TO.N,RST*%
X52450000Y-46700000D03*
%TO.P,U1,9*%
%TO.N,X_PGOOD*%
X50450000Y-44700000D03*
%TO.P,U1,10*%
%TO.N,3v3*%
X52450000Y-44700000D03*
%TO.P,U1,11*%
%TO.N,GND*%
X50450000Y-42700000D03*
%TO.P,U1,12*%
X52450000Y-42700000D03*
%TO.P,U1,13*%
X50450000Y-40700000D03*
%TO.P,U1,14*%
%TO.N,VIN*%
X52450000Y-40700000D03*
%TO.P,U1,15*%
%TO.N,GND*%
X50450000Y-38700000D03*
%TO.P,U1,16*%
%TO.N,VIN*%
X52450000Y-38700000D03*
%TD*%
D15*
%TO.N,SPI1_CS1*%
X46500000Y-57350000D03*
%TO.N,GND*%
X48750000Y-90200000D03*
X47100000Y-90200000D03*
X92250000Y-42050000D03*
X57600000Y-42750000D03*
X61950000Y-40450000D03*
X62950000Y-42500000D03*
X51180000Y-88410000D03*
X59000000Y-44450000D03*
D16*
X61030000Y-42780000D03*
D15*
X61350000Y-50650000D03*
X83930000Y-72172000D03*
X61950000Y-41150000D03*
X42700000Y-65100000D03*
X59000000Y-43750000D03*
X90000000Y-42050000D03*
X90000000Y-42700000D03*
X75180000Y-63060000D03*
X93050000Y-42700000D03*
X43650000Y-89750000D03*
X75180000Y-78300000D03*
X58250000Y-50600000D03*
X51180000Y-63060000D03*
X69530000Y-60450000D03*
X63000000Y-50650000D03*
X57850000Y-38600000D03*
X91900000Y-55000000D03*
X62950000Y-41150000D03*
X63000000Y-46050000D03*
X59900000Y-47500000D03*
X45750000Y-69650000D03*
X80850000Y-74200000D03*
X59200000Y-42700000D03*
X80450000Y-50950000D03*
X59900000Y-50600000D03*
X75180000Y-93490000D03*
X75180000Y-90950000D03*
X43600000Y-92050000D03*
X93050000Y-42050000D03*
X46250000Y-90200000D03*
X61400000Y-47600000D03*
X57700000Y-43800000D03*
X75180000Y-88410000D03*
X80450000Y-52350000D03*
X66150000Y-50700000D03*
X75180000Y-80840000D03*
X73350000Y-37000000D03*
X77900000Y-44350000D03*
X51180000Y-93490000D03*
X79500000Y-50950000D03*
X42450000Y-90950000D03*
X78700000Y-44350000D03*
X92250000Y-42700000D03*
X61950000Y-41800000D03*
X90600000Y-53750000D03*
X89200000Y-42050000D03*
X78700000Y-43700000D03*
X66350000Y-46700000D03*
X66350000Y-45400000D03*
D16*
X62200000Y-43450000D03*
D15*
X57700000Y-44450000D03*
X65550000Y-46650000D03*
X61850000Y-35750000D03*
X62950000Y-41800000D03*
D16*
X63200000Y-43450000D03*
D15*
X65500000Y-50700000D03*
X61950000Y-39150000D03*
X61400000Y-49100000D03*
X46250000Y-91600000D03*
X62950000Y-38500000D03*
D16*
X62700000Y-43450000D03*
D15*
X63000000Y-49150000D03*
X61950000Y-38500000D03*
X79450000Y-52350000D03*
X62950000Y-39800000D03*
X59900000Y-49100000D03*
X56830000Y-60450000D03*
X48750000Y-91600000D03*
X90600000Y-55000000D03*
X89200000Y-42700000D03*
X58300000Y-47550000D03*
X61950000Y-42500000D03*
X47850000Y-91600000D03*
D16*
X61030000Y-42280000D03*
D15*
X62950000Y-39150000D03*
X62950000Y-40450000D03*
X65500000Y-49600000D03*
X59900000Y-46000000D03*
X95150000Y-40700000D03*
X91800000Y-53800000D03*
X66200000Y-49600000D03*
X77900000Y-43700000D03*
X58300000Y-45950000D03*
X81260000Y-43920000D03*
X58300000Y-49050000D03*
X80874000Y-70142000D03*
D16*
X61700000Y-43450000D03*
D15*
X63000000Y-47550000D03*
X61950000Y-39800000D03*
X47900000Y-90200000D03*
X47100000Y-91600000D03*
X65600000Y-45400000D03*
X61400000Y-46000000D03*
X62000000Y-36600000D03*
X57900000Y-36348800D03*
%TO.N,SPI1_SDO*%
X47450000Y-73550000D03*
%TO.N,SPI1_CS1*%
X46050000Y-75050000D03*
D17*
%TO.N,TXEN*%
X55500000Y-51750000D03*
D15*
X75800000Y-72800000D03*
%TO.N,SPI1_SDI*%
X45750000Y-54900000D03*
%TO.N,RXEN*%
X82450000Y-78500000D03*
D17*
X55525000Y-53775000D03*
D15*
%TO.N,RST*%
X54550000Y-55650000D03*
D17*
%TO.N,SPI1_SCK*%
X41550000Y-58950000D03*
D15*
%TO.N,X_PGOOD*%
X43850000Y-69700000D03*
D17*
X43850000Y-48950000D03*
D15*
%TO.N,Buck_Out*%
X76400000Y-48250000D03*
X76400000Y-47250000D03*
X70600000Y-47150000D03*
X71400000Y-38750000D03*
X70650000Y-50700000D03*
X70600000Y-49150000D03*
X70600000Y-45800000D03*
X76400000Y-46300000D03*
D16*
%TO.N,Net-(U5-BST)*%
X64602498Y-40489027D03*
D15*
X65500000Y-36850000D03*
%TO.N,Net-(C6-Pad1)*%
X66900000Y-36850000D03*
X66350000Y-41050000D03*
%TO.N,LDO_out*%
X77450000Y-65000000D03*
X83800000Y-54650000D03*
X94700000Y-48450000D03*
X77350000Y-68500000D03*
X77400000Y-66050000D03*
X83900000Y-67200000D03*
X87950000Y-50050000D03*
X94650000Y-47350000D03*
X88250000Y-47100000D03*
X77350000Y-67500000D03*
X87950000Y-51250000D03*
X86300000Y-54650000D03*
X87950000Y-49000000D03*
X80800000Y-67200000D03*
%TO.N,Net-(U5-INTVCC)*%
X63301200Y-35800000D03*
D16*
X64850000Y-39750000D03*
D15*
%TO.N,PG*%
X82450000Y-76400000D03*
D17*
X55550000Y-48300000D03*
D15*
X55550000Y-46350000D03*
D16*
X64650000Y-38500000D03*
D15*
%TO.N,3v3*%
X44800000Y-50800000D03*
%TD*%
D18*
%TO.N,SPI1_SDO*%
X47450000Y-73550000D02*
X47450000Y-53700000D01*
X47450000Y-53700000D02*
X50450000Y-50700000D01*
%TO.N,SPI1_CS1*%
X46050000Y-75000000D02*
X46500000Y-74550000D01*
X46050000Y-75050000D02*
X46050000Y-75000000D01*
X46500000Y-74550000D02*
X46500000Y-57350000D01*
%TO.N,TXEN*%
X75800000Y-72800000D02*
X75800000Y-72050000D01*
X55500000Y-51750000D02*
X52450000Y-48700000D01*
X75800000Y-72050000D02*
X55500000Y-51750000D01*
%TO.N,RXEN*%
X80250000Y-78500000D02*
X55525000Y-53775000D01*
X82450000Y-78500000D02*
X80250000Y-78500000D01*
X55525000Y-53775000D02*
X52450000Y-50700000D01*
%TO.N,X_PGOOD*%
X43850000Y-48950000D02*
X43850000Y-69700000D01*
%TO.N,Net-(U5-BST)*%
X64551668Y-40489027D02*
X64500000Y-40437359D01*
X64602498Y-40489027D02*
X64551668Y-40489027D01*
X64650000Y-40441525D02*
X64958475Y-40441525D01*
X65850000Y-37200000D02*
X65500000Y-36850000D01*
X64602498Y-40489027D02*
X64650000Y-40441525D01*
X65850000Y-39550000D02*
X65850000Y-37200000D01*
X64958475Y-40441525D02*
X65850000Y-39550000D01*
%TO.N,Net-(C6-Pad1)*%
X66600000Y-37150000D02*
X66900000Y-36850000D01*
X66350000Y-39910000D02*
X66600000Y-39660000D01*
X66600000Y-39660000D02*
X66600000Y-37150000D01*
X66350000Y-41050000D02*
X66350000Y-39910000D01*
%TO.N,Net-(U5-INTVCC)*%
X64850000Y-39750000D02*
X65400000Y-39200000D01*
X64400000Y-36898800D02*
X63301200Y-35800000D01*
X65400000Y-37900000D02*
X64400000Y-36900000D01*
X64400000Y-36900000D02*
X64400000Y-36898800D01*
X65400000Y-39200000D02*
X65400000Y-37900000D01*
%TO.N,PG*%
X55550000Y-43950057D02*
X55550000Y-46350000D01*
X55550000Y-46350000D02*
X55550000Y-48300000D01*
X61601057Y-37899000D02*
X55550000Y-43950057D01*
X64049000Y-37899000D02*
X61601057Y-37899000D01*
X64650000Y-38500000D02*
X64049000Y-37899000D01*
X55550000Y-49900000D02*
X82050000Y-76400000D01*
X82050000Y-76400000D02*
X82450000Y-76400000D01*
X55550000Y-48300000D02*
X55550000Y-49900000D01*
D19*
%TO.N,3v3*%
X44800000Y-50650000D02*
X44800000Y-50800000D01*
X51500000Y-45650000D02*
X49800000Y-45650000D01*
X52450000Y-44700000D02*
X51500000Y-45650000D01*
X49800000Y-45650000D02*
X44800000Y-50650000D01*
%TD*%
%TA.AperFunction,Conductor*%
%TO.N,GND*%
G36*
X52053963Y-42535956D02*
G01*
X52025000Y-42644048D01*
X52025000Y-42755952D01*
X52053963Y-42864044D01*
X52103590Y-42950000D01*
X50796410Y-42950000D01*
X50846037Y-42864044D01*
X50875000Y-42755952D01*
X50875000Y-42644048D01*
X50846037Y-42535956D01*
X50796410Y-42450000D01*
X52103590Y-42450000D01*
X52053963Y-42535956D01*
G37*
%TD.AperFunction*%
%TA.AperFunction,Conductor*%
G36*
X50700000Y-42353590D02*
G01*
X50614044Y-42303963D01*
X50505952Y-42275000D01*
X50394048Y-42275000D01*
X50285956Y-42303963D01*
X50200000Y-42353590D01*
X50200000Y-41046409D01*
X50285956Y-41096037D01*
X50394048Y-41125000D01*
X50505952Y-41125000D01*
X50614044Y-41096037D01*
X50700000Y-41046409D01*
X50700000Y-42353590D01*
G37*
%TD.AperFunction*%
%TA.AperFunction,Conductor*%
G36*
X50700000Y-40353590D02*
G01*
X50614044Y-40303963D01*
X50505952Y-40275000D01*
X50394048Y-40275000D01*
X50285956Y-40303963D01*
X50200000Y-40353590D01*
X50200000Y-39046409D01*
X50285956Y-39096037D01*
X50394048Y-39125000D01*
X50505952Y-39125000D01*
X50614044Y-39096037D01*
X50700000Y-39046409D01*
X50700000Y-40353590D01*
G37*
%TD.AperFunction*%
%TA.AperFunction,Conductor*%
G36*
X92502562Y-30550605D02*
G01*
X92949036Y-30569072D01*
X92959209Y-30569915D01*
X93400114Y-30624873D01*
X93410194Y-30626555D01*
X93845042Y-30717733D01*
X93854950Y-30720242D01*
X94280786Y-30847019D01*
X94290454Y-30850338D01*
X94631430Y-30983388D01*
X94704339Y-31011838D01*
X94713724Y-31015954D01*
X95112869Y-31211083D01*
X95121877Y-31215958D01*
X95503544Y-31443383D01*
X95512123Y-31448989D01*
X95873693Y-31707144D01*
X95881775Y-31713435D01*
X96220796Y-32000571D01*
X96228336Y-32007512D01*
X96542487Y-32321663D01*
X96549428Y-32329203D01*
X96836564Y-32668224D01*
X96842859Y-32676312D01*
X97101010Y-33037876D01*
X97106616Y-33046455D01*
X97334041Y-33428122D01*
X97338919Y-33437136D01*
X97534045Y-33836275D01*
X97538161Y-33845660D01*
X97699656Y-34259533D01*
X97702984Y-34269226D01*
X97829753Y-34695036D01*
X97832269Y-34704971D01*
X97923441Y-35139791D01*
X97925128Y-35149900D01*
X97980082Y-35590769D01*
X97980928Y-35600983D01*
X97999394Y-36047437D01*
X97999500Y-36052561D01*
X97999500Y-98997438D01*
X97999394Y-99002562D01*
X97980928Y-99449016D01*
X97980082Y-99459230D01*
X97925128Y-99900099D01*
X97923441Y-99910208D01*
X97832269Y-100345028D01*
X97829753Y-100354963D01*
X97702984Y-100780773D01*
X97699656Y-100790466D01*
X97538161Y-101204339D01*
X97534045Y-101213724D01*
X97338919Y-101612863D01*
X97334041Y-101621877D01*
X97106616Y-102003544D01*
X97101010Y-102012123D01*
X96842859Y-102373687D01*
X96836564Y-102381775D01*
X96549428Y-102720796D01*
X96542487Y-102728336D01*
X96228336Y-103042487D01*
X96220796Y-103049428D01*
X95881775Y-103336564D01*
X95873687Y-103342859D01*
X95512123Y-103601010D01*
X95503544Y-103606616D01*
X95121877Y-103834041D01*
X95112863Y-103838919D01*
X94713724Y-104034045D01*
X94704339Y-104038161D01*
X94290466Y-104199656D01*
X94280773Y-104202984D01*
X93854963Y-104329753D01*
X93845028Y-104332269D01*
X93410208Y-104423441D01*
X93400099Y-104425128D01*
X92959230Y-104480082D01*
X92949016Y-104480928D01*
X92502563Y-104499394D01*
X92497439Y-104499500D01*
X44602561Y-104499500D01*
X44597437Y-104499394D01*
X44150983Y-104480928D01*
X44140769Y-104480082D01*
X43699900Y-104425128D01*
X43689791Y-104423441D01*
X43254971Y-104332269D01*
X43245036Y-104329753D01*
X42819226Y-104202984D01*
X42809533Y-104199656D01*
X42395660Y-104038161D01*
X42386275Y-104034045D01*
X41987136Y-103838919D01*
X41978122Y-103834041D01*
X41596455Y-103606616D01*
X41587876Y-103601010D01*
X41226312Y-103342859D01*
X41218224Y-103336564D01*
X40879203Y-103049428D01*
X40871663Y-103042487D01*
X40557512Y-102728336D01*
X40550571Y-102720796D01*
X40263435Y-102381775D01*
X40257140Y-102373687D01*
X39998989Y-102012123D01*
X39993383Y-102003544D01*
X39765958Y-101621877D01*
X39761080Y-101612863D01*
X39565954Y-101213724D01*
X39561838Y-101204339D01*
X39533388Y-101131430D01*
X39400338Y-100790454D01*
X39397019Y-100780786D01*
X39270242Y-100354950D01*
X39267733Y-100345042D01*
X39176555Y-99910194D01*
X39174873Y-99900114D01*
X39119915Y-99459209D01*
X39119072Y-99449036D01*
X39100606Y-99002562D01*
X39100500Y-98997438D01*
X39100500Y-98735258D01*
X41449500Y-98735258D01*
X41449500Y-98964741D01*
X41454480Y-99002562D01*
X41479452Y-99192238D01*
X41488469Y-99225890D01*
X41538842Y-99413887D01*
X41626650Y-99625876D01*
X41626657Y-99625890D01*
X41741392Y-99824617D01*
X41881081Y-100006661D01*
X41881089Y-100006670D01*
X42043330Y-100168911D01*
X42043338Y-100168918D01*
X42043339Y-100168919D01*
X42045462Y-100170548D01*
X42225382Y-100308607D01*
X42225385Y-100308608D01*
X42225388Y-100308611D01*
X42424112Y-100423344D01*
X42424117Y-100423346D01*
X42424123Y-100423349D01*
X42515480Y-100461190D01*
X42636113Y-100511158D01*
X42857762Y-100570548D01*
X43085266Y-100600500D01*
X43085273Y-100600500D01*
X43314727Y-100600500D01*
X43314734Y-100600500D01*
X43542238Y-100570548D01*
X43763887Y-100511158D01*
X43975888Y-100423344D01*
X44174612Y-100308611D01*
X44356661Y-100168919D01*
X44356665Y-100168914D01*
X44356670Y-100168911D01*
X44518911Y-100006670D01*
X44518914Y-100006665D01*
X44518919Y-100006661D01*
X44658611Y-99824612D01*
X44773344Y-99625888D01*
X44861158Y-99413887D01*
X44920548Y-99192238D01*
X44950500Y-98964734D01*
X44950500Y-98735266D01*
X44920548Y-98507762D01*
X44874326Y-98335258D01*
X90399500Y-98335258D01*
X90399500Y-98564741D01*
X90421950Y-98735258D01*
X90429452Y-98792238D01*
X90429453Y-98792240D01*
X90488842Y-99013887D01*
X90576650Y-99225876D01*
X90576657Y-99225890D01*
X90691392Y-99424617D01*
X90831081Y-99606661D01*
X90831089Y-99606670D01*
X90993330Y-99768911D01*
X90993338Y-99768918D01*
X91175382Y-99908607D01*
X91175385Y-99908608D01*
X91175388Y-99908611D01*
X91374112Y-100023344D01*
X91374117Y-100023346D01*
X91374123Y-100023349D01*
X91465480Y-100061190D01*
X91586113Y-100111158D01*
X91807762Y-100170548D01*
X92035266Y-100200500D01*
X92035273Y-100200500D01*
X92264727Y-100200500D01*
X92264734Y-100200500D01*
X92492238Y-100170548D01*
X92713887Y-100111158D01*
X92925888Y-100023344D01*
X93124612Y-99908611D01*
X93306661Y-99768919D01*
X93306665Y-99768914D01*
X93306670Y-99768911D01*
X93468911Y-99606670D01*
X93468914Y-99606665D01*
X93468919Y-99606661D01*
X93608611Y-99424612D01*
X93723344Y-99225888D01*
X93811158Y-99013887D01*
X93870548Y-98792238D01*
X93900500Y-98564734D01*
X93900500Y-98335266D01*
X93870548Y-98107762D01*
X93811158Y-97886113D01*
X93731308Y-97693338D01*
X93723349Y-97674123D01*
X93723346Y-97674117D01*
X93723344Y-97674112D01*
X93608611Y-97475388D01*
X93608608Y-97475385D01*
X93608607Y-97475382D01*
X93468918Y-97293338D01*
X93468911Y-97293330D01*
X93306670Y-97131089D01*
X93306661Y-97131081D01*
X93124617Y-96991392D01*
X92925890Y-96876657D01*
X92925876Y-96876650D01*
X92713887Y-96788842D01*
X92492238Y-96729452D01*
X92454215Y-96724446D01*
X92264741Y-96699500D01*
X92264734Y-96699500D01*
X92035266Y-96699500D01*
X92035258Y-96699500D01*
X91818715Y-96728009D01*
X91807762Y-96729452D01*
X91714076Y-96754554D01*
X91586112Y-96788842D01*
X91374123Y-96876650D01*
X91374109Y-96876657D01*
X91175382Y-96991392D01*
X90993338Y-97131081D01*
X90831081Y-97293338D01*
X90691392Y-97475382D01*
X90576657Y-97674109D01*
X90576650Y-97674123D01*
X90493284Y-97875388D01*
X90488842Y-97886113D01*
X90438466Y-98074123D01*
X90429453Y-98107759D01*
X90429451Y-98107770D01*
X90399500Y-98335258D01*
X44874326Y-98335258D01*
X44861158Y-98286113D01*
X44787286Y-98107770D01*
X44773349Y-98074123D01*
X44773346Y-98074117D01*
X44773344Y-98074112D01*
X44658611Y-97875388D01*
X44658608Y-97875385D01*
X44658607Y-97875382D01*
X44518918Y-97693338D01*
X44518911Y-97693330D01*
X44356670Y-97531089D01*
X44356661Y-97531081D01*
X44174617Y-97391392D01*
X43975890Y-97276657D01*
X43975876Y-97276650D01*
X43763887Y-97188842D01*
X43542238Y-97129452D01*
X43504215Y-97124446D01*
X43314741Y-97099500D01*
X43314734Y-97099500D01*
X43085266Y-97099500D01*
X43085258Y-97099500D01*
X42868715Y-97128009D01*
X42857762Y-97129452D01*
X42851653Y-97131089D01*
X42636112Y-97188842D01*
X42424123Y-97276650D01*
X42424109Y-97276657D01*
X42225382Y-97391392D01*
X42043338Y-97531081D01*
X41881081Y-97693338D01*
X41741392Y-97875382D01*
X41626657Y-98074109D01*
X41626650Y-98074123D01*
X41538842Y-98286112D01*
X41479453Y-98507759D01*
X41479451Y-98507770D01*
X41449500Y-98735258D01*
X39100500Y-98735258D01*
X39100500Y-89593428D01*
X41280000Y-89593428D01*
X41280000Y-89766571D01*
X41307085Y-89937584D01*
X41360592Y-90102259D01*
X41439196Y-90256525D01*
X41443709Y-90262736D01*
X41443709Y-90262737D01*
X41937861Y-89768584D01*
X41960667Y-89853694D01*
X42019910Y-89956306D01*
X42103694Y-90040090D01*
X42206306Y-90099333D01*
X42291414Y-90122137D01*
X41797261Y-90616289D01*
X41797262Y-90616290D01*
X41803471Y-90620801D01*
X41957742Y-90699408D01*
X42122415Y-90752914D01*
X42293429Y-90780000D01*
X42425500Y-90780000D01*
X42434185Y-90782550D01*
X42443147Y-90781262D01*
X42467187Y-90792240D01*
X42492539Y-90799685D01*
X42498466Y-90806525D01*
X42506703Y-90810287D01*
X42520992Y-90832521D01*
X42538294Y-90852489D01*
X42540581Y-90863003D01*
X42544477Y-90869065D01*
X42549500Y-90904000D01*
X42549500Y-90996000D01*
X42529815Y-91063039D01*
X42477011Y-91108794D01*
X42425500Y-91120000D01*
X42293429Y-91120000D01*
X42122415Y-91147085D01*
X41957740Y-91200592D01*
X41803480Y-91279193D01*
X41803463Y-91279203D01*
X41797261Y-91283708D01*
X41797261Y-91283709D01*
X42291415Y-91777861D01*
X42206306Y-91800667D01*
X42103694Y-91859910D01*
X42019910Y-91943694D01*
X41960667Y-92046306D01*
X41937861Y-92131414D01*
X41443709Y-91637261D01*
X41443708Y-91637261D01*
X41439203Y-91643463D01*
X41439193Y-91643480D01*
X41360592Y-91797740D01*
X41307085Y-91962415D01*
X41280000Y-92133428D01*
X41280000Y-92306571D01*
X41307085Y-92477584D01*
X41360592Y-92642259D01*
X41439196Y-92796525D01*
X41443709Y-92802736D01*
X41443709Y-92802737D01*
X41937861Y-92308584D01*
X41960667Y-92393694D01*
X42019910Y-92496306D01*
X42103694Y-92580090D01*
X42206306Y-92639333D01*
X42291414Y-92662137D01*
X41797261Y-93156289D01*
X41797262Y-93156290D01*
X41803471Y-93160801D01*
X41957742Y-93239408D01*
X42122415Y-93292914D01*
X42293429Y-93320000D01*
X42466571Y-93320000D01*
X42637584Y-93292914D01*
X42802257Y-93239408D01*
X42956525Y-93160803D01*
X42962737Y-93156289D01*
X42468585Y-92662137D01*
X42553694Y-92639333D01*
X42656306Y-92580090D01*
X42740090Y-92496306D01*
X42799333Y-92393694D01*
X42822138Y-92308584D01*
X43316289Y-92802736D01*
X43320803Y-92796525D01*
X43399408Y-92642257D01*
X43452914Y-92477584D01*
X43480000Y-92306571D01*
X43480000Y-92174499D01*
X43482550Y-92165813D01*
X43481262Y-92156852D01*
X43492240Y-92132811D01*
X43499685Y-92107460D01*
X43506525Y-92101532D01*
X43510287Y-92093296D01*
X43532521Y-92079006D01*
X43552489Y-92061705D01*
X43563003Y-92059417D01*
X43569065Y-92055522D01*
X43603996Y-92050499D01*
X43696001Y-92050499D01*
X43763039Y-92070184D01*
X43808794Y-92122988D01*
X43820000Y-92174499D01*
X43820000Y-92306571D01*
X43847085Y-92477584D01*
X43900592Y-92642259D01*
X43979196Y-92796525D01*
X43983709Y-92802736D01*
X43983709Y-92802737D01*
X44477861Y-92308584D01*
X44500667Y-92393694D01*
X44559910Y-92496306D01*
X44643694Y-92580090D01*
X44746306Y-92639333D01*
X44831414Y-92662137D01*
X44337261Y-93156289D01*
X44337262Y-93156290D01*
X44343471Y-93160801D01*
X44497742Y-93239408D01*
X44662415Y-93292914D01*
X44833429Y-93320000D01*
X45006571Y-93320000D01*
X45177584Y-93292914D01*
X45342257Y-93239408D01*
X45496525Y-93160803D01*
X45502736Y-93156289D01*
X45502737Y-93156289D01*
X45008585Y-92662137D01*
X45093694Y-92639333D01*
X45196306Y-92580090D01*
X45280090Y-92496306D01*
X45339333Y-92393694D01*
X45362138Y-92308585D01*
X45856289Y-92802736D01*
X45860803Y-92796525D01*
X45939408Y-92642257D01*
X45992914Y-92477584D01*
X46020000Y-92306571D01*
X46020000Y-92133428D01*
X45992914Y-91962415D01*
X45939408Y-91797742D01*
X45860801Y-91643471D01*
X45856290Y-91637262D01*
X45856289Y-91637261D01*
X45362137Y-92131413D01*
X45339333Y-92046306D01*
X45280090Y-91943694D01*
X45196306Y-91859910D01*
X45093694Y-91800667D01*
X45008584Y-91777861D01*
X45502737Y-91283709D01*
X45496525Y-91279196D01*
X45342259Y-91200592D01*
X45177584Y-91147085D01*
X45006571Y-91120000D01*
X44874499Y-91120000D01*
X44865813Y-91117449D01*
X44856852Y-91118738D01*
X44832811Y-91107759D01*
X44807460Y-91100315D01*
X44801532Y-91093474D01*
X44793296Y-91089713D01*
X44779006Y-91067478D01*
X44761705Y-91047511D01*
X44759417Y-91036996D01*
X44755522Y-91030935D01*
X44750499Y-90996003D01*
X44750499Y-90903998D01*
X44770184Y-90836961D01*
X44822988Y-90791206D01*
X44874499Y-90780000D01*
X45006571Y-90780000D01*
X45177584Y-90752914D01*
X45342257Y-90699408D01*
X45496525Y-90620803D01*
X45502736Y-90616289D01*
X45008584Y-90122138D01*
X45093694Y-90099333D01*
X45196306Y-90040090D01*
X45280090Y-89956306D01*
X45339333Y-89853694D01*
X45362138Y-89768585D01*
X45856289Y-90262736D01*
X45860803Y-90256525D01*
X45939408Y-90102257D01*
X45992914Y-89937584D01*
X46020000Y-89766571D01*
X46020000Y-89593428D01*
X45992914Y-89422415D01*
X45939408Y-89257742D01*
X45860801Y-89103471D01*
X45856290Y-89097262D01*
X45856289Y-89097261D01*
X45362137Y-89591413D01*
X45339333Y-89506306D01*
X45280090Y-89403694D01*
X45196306Y-89319910D01*
X45093694Y-89260667D01*
X45008584Y-89237861D01*
X45502737Y-88743709D01*
X45496525Y-88739196D01*
X45342259Y-88660592D01*
X45177584Y-88607085D01*
X45006571Y-88580000D01*
X44833429Y-88580000D01*
X44662415Y-88607085D01*
X44497740Y-88660592D01*
X44343480Y-88739193D01*
X44343463Y-88739203D01*
X44337261Y-88743708D01*
X44337261Y-88743709D01*
X44831415Y-89237861D01*
X44746306Y-89260667D01*
X44643694Y-89319910D01*
X44559910Y-89403694D01*
X44500667Y-89506306D01*
X44477861Y-89591415D01*
X43983709Y-89097261D01*
X43983708Y-89097261D01*
X43979203Y-89103463D01*
X43979193Y-89103480D01*
X43900592Y-89257740D01*
X43847085Y-89422415D01*
X43820000Y-89593428D01*
X43820000Y-89725500D01*
X43817449Y-89734185D01*
X43818738Y-89743147D01*
X43807759Y-89767187D01*
X43800315Y-89792539D01*
X43793474Y-89798466D01*
X43789713Y-89806703D01*
X43767478Y-89820992D01*
X43747511Y-89838294D01*
X43736996Y-89840581D01*
X43730935Y-89844477D01*
X43696000Y-89849500D01*
X43604000Y-89849500D01*
X43536961Y-89829815D01*
X43491206Y-89777011D01*
X43480000Y-89725500D01*
X43480000Y-89593428D01*
X43452914Y-89422415D01*
X43399408Y-89257742D01*
X43320801Y-89103471D01*
X43316290Y-89097262D01*
X43316289Y-89097261D01*
X42822137Y-89591414D01*
X42799333Y-89506306D01*
X42740090Y-89403694D01*
X42656306Y-89319910D01*
X42553694Y-89260667D01*
X42468584Y-89237861D01*
X42962737Y-88743709D01*
X42956525Y-88739196D01*
X42802259Y-88660592D01*
X42637584Y-88607085D01*
X42466571Y-88580000D01*
X42293429Y-88580000D01*
X42122415Y-88607085D01*
X41957740Y-88660592D01*
X41803480Y-88739193D01*
X41803463Y-88739203D01*
X41797261Y-88743708D01*
X41797261Y-88743709D01*
X42291415Y-89237861D01*
X42206306Y-89260667D01*
X42103694Y-89319910D01*
X42019910Y-89403694D01*
X41960667Y-89506306D01*
X41937861Y-89591414D01*
X41443709Y-89097261D01*
X41443708Y-89097261D01*
X41439203Y-89103463D01*
X41439193Y-89103480D01*
X41360592Y-89257740D01*
X41307085Y-89422415D01*
X41280000Y-89593428D01*
X39100500Y-89593428D01*
X39100500Y-58866228D01*
X40699500Y-58866228D01*
X40699500Y-59033771D01*
X40732182Y-59198074D01*
X40732184Y-59198082D01*
X40796295Y-59352860D01*
X40889373Y-59492162D01*
X41007837Y-59610626D01*
X41100494Y-59672537D01*
X41147137Y-59703703D01*
X41301918Y-59767816D01*
X41466228Y-59800499D01*
X41466232Y-59800500D01*
X41466233Y-59800500D01*
X41633768Y-59800500D01*
X41633769Y-59800499D01*
X41798082Y-59767816D01*
X41952863Y-59703703D01*
X42092162Y-59610626D01*
X42210626Y-59492162D01*
X42303703Y-59352863D01*
X42367816Y-59198082D01*
X42400500Y-59033767D01*
X42400500Y-58866233D01*
X42367816Y-58701918D01*
X42303703Y-58547137D01*
X42272537Y-58500494D01*
X42210626Y-58407837D01*
X42092162Y-58289373D01*
X41952860Y-58196295D01*
X41798082Y-58132184D01*
X41798074Y-58132182D01*
X41633771Y-58099500D01*
X41633767Y-58099500D01*
X41466233Y-58099500D01*
X41466228Y-58099500D01*
X41301925Y-58132182D01*
X41301917Y-58132184D01*
X41147139Y-58196295D01*
X41007837Y-58289373D01*
X40889373Y-58407837D01*
X40796295Y-58547139D01*
X40732184Y-58701917D01*
X40732182Y-58701925D01*
X40699500Y-58866228D01*
X39100500Y-58866228D01*
X39100500Y-48866228D01*
X42999500Y-48866228D01*
X42999500Y-49033771D01*
X43032182Y-49198074D01*
X43032184Y-49198082D01*
X43096295Y-49352860D01*
X43189372Y-49492160D01*
X43189373Y-49492161D01*
X43189374Y-49492162D01*
X43213181Y-49515969D01*
X43246666Y-49577290D01*
X43249500Y-49603650D01*
X43249500Y-69120234D01*
X43229815Y-69187273D01*
X43228602Y-69189125D01*
X43140609Y-69320814D01*
X43140602Y-69320827D01*
X43080264Y-69466498D01*
X43080261Y-69466510D01*
X43049500Y-69621153D01*
X43049500Y-69778846D01*
X43080261Y-69933489D01*
X43080264Y-69933501D01*
X43140602Y-70079172D01*
X43140609Y-70079185D01*
X43228210Y-70210288D01*
X43228213Y-70210292D01*
X43339707Y-70321786D01*
X43339711Y-70321789D01*
X43470814Y-70409390D01*
X43470827Y-70409397D01*
X43616498Y-70469735D01*
X43616503Y-70469737D01*
X43771153Y-70500499D01*
X43771156Y-70500500D01*
X43771158Y-70500500D01*
X43928844Y-70500500D01*
X43928845Y-70500499D01*
X44083497Y-70469737D01*
X44229179Y-70409394D01*
X44360289Y-70321789D01*
X44471789Y-70210289D01*
X44559394Y-70079179D01*
X44619737Y-69933497D01*
X44650500Y-69778842D01*
X44650500Y-69621158D01*
X44650500Y-69621155D01*
X44650499Y-69621153D01*
X44619738Y-69466510D01*
X44619737Y-69466503D01*
X44619735Y-69466498D01*
X44559397Y-69320827D01*
X44559390Y-69320814D01*
X44471398Y-69189125D01*
X44450520Y-69122447D01*
X44450500Y-69120234D01*
X44450500Y-54821153D01*
X44949500Y-54821153D01*
X44949500Y-54978846D01*
X44980261Y-55133489D01*
X44980264Y-55133501D01*
X45040602Y-55279172D01*
X45040609Y-55279185D01*
X45128210Y-55410288D01*
X45128213Y-55410292D01*
X45239707Y-55521786D01*
X45239711Y-55521789D01*
X45370814Y-55609390D01*
X45370827Y-55609397D01*
X45516498Y-55669735D01*
X45516503Y-55669737D01*
X45671153Y-55700499D01*
X45671156Y-55700500D01*
X45671158Y-55700500D01*
X45828844Y-55700500D01*
X45828845Y-55700499D01*
X45983497Y-55669737D01*
X46129179Y-55609394D01*
X46260289Y-55521789D01*
X46371789Y-55410289D01*
X46459394Y-55279179D01*
X46462854Y-55270827D01*
X46517163Y-55139711D01*
X46519737Y-55133497D01*
X46550500Y-54978842D01*
X46550500Y-54821158D01*
X46550500Y-54821155D01*
X46550499Y-54821153D01*
X46519738Y-54666510D01*
X46519737Y-54666503D01*
X46502753Y-54625499D01*
X46459397Y-54520827D01*
X46459390Y-54520814D01*
X46371789Y-54389711D01*
X46371786Y-54389707D01*
X46260292Y-54278213D01*
X46260288Y-54278210D01*
X46129185Y-54190609D01*
X46129172Y-54190602D01*
X45983501Y-54130264D01*
X45983489Y-54130261D01*
X45828845Y-54099500D01*
X45828842Y-54099500D01*
X45671158Y-54099500D01*
X45671155Y-54099500D01*
X45516510Y-54130261D01*
X45516498Y-54130264D01*
X45370827Y-54190602D01*
X45370814Y-54190609D01*
X45239711Y-54278210D01*
X45239707Y-54278213D01*
X45128213Y-54389707D01*
X45128210Y-54389711D01*
X45040609Y-54520814D01*
X45040602Y-54520827D01*
X44980264Y-54666498D01*
X44980261Y-54666510D01*
X44949500Y-54821153D01*
X44450500Y-54821153D01*
X44450500Y-51697757D01*
X44470185Y-51630718D01*
X44522989Y-51584963D01*
X44592147Y-51575019D01*
X44598692Y-51576140D01*
X44721155Y-51600500D01*
X44721158Y-51600500D01*
X44878844Y-51600500D01*
X44878845Y-51600499D01*
X45033497Y-51569737D01*
X45179179Y-51509394D01*
X45310289Y-51421789D01*
X45421789Y-51310289D01*
X45509394Y-51179179D01*
X45512719Y-51171153D01*
X45542280Y-51099784D01*
X45569737Y-51033497D01*
X45600500Y-50878842D01*
X45600500Y-50820807D01*
X45620185Y-50753768D01*
X45636814Y-50733131D01*
X49100897Y-47269047D01*
X49162218Y-47235564D01*
X49231910Y-47240548D01*
X49287843Y-47282420D01*
X49288894Y-47283844D01*
X49351432Y-47369919D01*
X49385586Y-47416928D01*
X49508072Y-47539414D01*
X49508078Y-47539418D01*
X49591023Y-47599683D01*
X49633689Y-47655013D01*
X49639667Y-47724626D01*
X49607061Y-47786421D01*
X49591023Y-47800317D01*
X49508078Y-47860581D01*
X49508069Y-47860588D01*
X49385588Y-47983069D01*
X49385588Y-47983070D01*
X49385586Y-47983072D01*
X49379391Y-47991599D01*
X49283768Y-48123211D01*
X49205128Y-48277552D01*
X49151597Y-48442302D01*
X49124500Y-48613389D01*
X49124500Y-48786610D01*
X49145809Y-48921155D01*
X49151598Y-48957701D01*
X49205127Y-49122445D01*
X49283768Y-49276788D01*
X49385586Y-49416928D01*
X49508072Y-49539414D01*
X49508078Y-49539418D01*
X49591023Y-49599683D01*
X49633689Y-49655013D01*
X49639667Y-49724626D01*
X49607061Y-49786421D01*
X49591023Y-49800317D01*
X49508078Y-49860581D01*
X49508069Y-49860588D01*
X49385588Y-49983069D01*
X49385588Y-49983070D01*
X49385586Y-49983072D01*
X49365007Y-50011397D01*
X49283768Y-50123211D01*
X49205128Y-50277552D01*
X49151597Y-50442302D01*
X49124500Y-50613389D01*
X49124500Y-50786610D01*
X49151598Y-50957702D01*
X49151598Y-50957705D01*
X49175070Y-51029943D01*
X49177065Y-51099784D01*
X49144820Y-51155942D01*
X47084341Y-53216422D01*
X47084334Y-53216429D01*
X47081286Y-53219478D01*
X47081284Y-53219480D01*
X46969480Y-53331284D01*
X46945894Y-53372137D01*
X46890423Y-53468215D01*
X46849499Y-53620943D01*
X46849499Y-53620945D01*
X46849499Y-53789046D01*
X46849500Y-53789059D01*
X46849500Y-56452242D01*
X46829815Y-56519281D01*
X46777011Y-56565036D01*
X46707853Y-56574980D01*
X46701309Y-56573859D01*
X46578846Y-56549500D01*
X46578842Y-56549500D01*
X46421158Y-56549500D01*
X46421155Y-56549500D01*
X46266510Y-56580261D01*
X46266498Y-56580264D01*
X46120827Y-56640602D01*
X46120814Y-56640609D01*
X45989711Y-56728210D01*
X45989707Y-56728213D01*
X45878213Y-56839707D01*
X45878210Y-56839711D01*
X45790609Y-56970814D01*
X45790602Y-56970827D01*
X45730264Y-57116498D01*
X45730261Y-57116510D01*
X45699500Y-57271153D01*
X45699500Y-57428846D01*
X45730261Y-57583489D01*
X45730264Y-57583501D01*
X45790602Y-57729172D01*
X45790609Y-57729185D01*
X45878602Y-57860874D01*
X45899480Y-57927551D01*
X45899500Y-57929765D01*
X45899500Y-74163121D01*
X45879815Y-74230160D01*
X45827011Y-74275915D01*
X45822069Y-74277785D01*
X45822130Y-74277932D01*
X45670827Y-74340602D01*
X45670814Y-74340609D01*
X45539711Y-74428210D01*
X45539707Y-74428213D01*
X45428213Y-74539707D01*
X45428210Y-74539711D01*
X45340609Y-74670814D01*
X45340602Y-74670827D01*
X45280264Y-74816498D01*
X45280261Y-74816510D01*
X45249500Y-74971153D01*
X45249500Y-75128846D01*
X45280261Y-75283489D01*
X45280264Y-75283501D01*
X45340602Y-75429172D01*
X45340609Y-75429185D01*
X45428210Y-75560288D01*
X45428213Y-75560292D01*
X45539707Y-75671786D01*
X45539711Y-75671789D01*
X45670814Y-75759390D01*
X45670827Y-75759397D01*
X45716254Y-75778213D01*
X45816503Y-75819737D01*
X45971153Y-75850499D01*
X45971156Y-75850500D01*
X45971158Y-75850500D01*
X46128844Y-75850500D01*
X46128845Y-75850499D01*
X46283497Y-75819737D01*
X46429179Y-75759394D01*
X46560289Y-75671789D01*
X46671789Y-75560289D01*
X46759394Y-75429179D01*
X46819737Y-75283497D01*
X46850500Y-75128842D01*
X46850500Y-75100098D01*
X46870185Y-75033059D01*
X46886819Y-75012417D01*
X46928083Y-74971153D01*
X46980520Y-74918716D01*
X47039532Y-74816503D01*
X47059577Y-74781785D01*
X47100500Y-74629057D01*
X47100500Y-74470943D01*
X47100500Y-74447757D01*
X47120185Y-74380718D01*
X47172989Y-74334963D01*
X47242147Y-74325019D01*
X47248692Y-74326140D01*
X47371155Y-74350500D01*
X47371158Y-74350500D01*
X47528844Y-74350500D01*
X47528845Y-74350499D01*
X47683497Y-74319737D01*
X47799501Y-74271687D01*
X47829172Y-74259397D01*
X47829172Y-74259396D01*
X47829179Y-74259394D01*
X47960289Y-74171789D01*
X48071789Y-74060289D01*
X48159394Y-73929179D01*
X48219737Y-73783497D01*
X48250500Y-73628842D01*
X48250500Y-73471158D01*
X48250500Y-73471155D01*
X48250499Y-73471153D01*
X48219738Y-73316510D01*
X48219737Y-73316503D01*
X48217163Y-73310288D01*
X48159397Y-73170827D01*
X48159390Y-73170814D01*
X48071398Y-73039125D01*
X48050520Y-72972447D01*
X48050500Y-72970234D01*
X48050500Y-55571153D01*
X53749500Y-55571153D01*
X53749500Y-55728846D01*
X53780261Y-55883489D01*
X53780264Y-55883501D01*
X53840602Y-56029172D01*
X53840609Y-56029185D01*
X53928210Y-56160288D01*
X53928213Y-56160292D01*
X54039707Y-56271786D01*
X54039711Y-56271789D01*
X54170814Y-56359390D01*
X54170827Y-56359397D01*
X54316498Y-56419735D01*
X54316503Y-56419737D01*
X54471153Y-56450499D01*
X54471156Y-56450500D01*
X54471158Y-56450500D01*
X54628844Y-56450500D01*
X54628845Y-56450499D01*
X54783497Y-56419737D01*
X54929179Y-56359394D01*
X55060289Y-56271789D01*
X55171789Y-56160289D01*
X55259394Y-56029179D01*
X55319737Y-55883497D01*
X55350500Y-55728842D01*
X55350500Y-55571158D01*
X55350500Y-55571155D01*
X55350499Y-55571153D01*
X55319738Y-55416510D01*
X55319737Y-55416503D01*
X55296080Y-55359390D01*
X55259397Y-55270827D01*
X55259390Y-55270814D01*
X55171789Y-55139711D01*
X55171786Y-55139707D01*
X55060292Y-55028213D01*
X55060288Y-55028210D01*
X54929185Y-54940609D01*
X54929172Y-54940602D01*
X54783501Y-54880264D01*
X54783489Y-54880261D01*
X54628845Y-54849500D01*
X54628842Y-54849500D01*
X54471158Y-54849500D01*
X54471155Y-54849500D01*
X54316510Y-54880261D01*
X54316498Y-54880264D01*
X54170827Y-54940602D01*
X54170814Y-54940609D01*
X54039711Y-55028210D01*
X54039707Y-55028213D01*
X53928213Y-55139707D01*
X53928210Y-55139711D01*
X53840609Y-55270814D01*
X53840602Y-55270827D01*
X53780264Y-55416498D01*
X53780261Y-55416510D01*
X53749500Y-55571153D01*
X48050500Y-55571153D01*
X48050500Y-54000096D01*
X48070185Y-53933057D01*
X48086814Y-53912419D01*
X48919101Y-53080132D01*
X48980424Y-53046648D01*
X49050116Y-53051632D01*
X49106049Y-53093504D01*
X49130140Y-53155212D01*
X49135001Y-53202797D01*
X49135001Y-53202799D01*
X49140529Y-53219480D01*
X49190186Y-53369334D01*
X49282288Y-53518656D01*
X49406344Y-53642712D01*
X49555666Y-53734814D01*
X49722203Y-53789999D01*
X49824991Y-53800500D01*
X51075008Y-53800499D01*
X51177797Y-53789999D01*
X51344334Y-53734814D01*
X51493656Y-53642712D01*
X51493667Y-53642700D01*
X51494898Y-53641729D01*
X51495912Y-53641319D01*
X51499803Y-53638920D01*
X51500213Y-53639584D01*
X51559694Y-53615588D01*
X51628336Y-53628628D01*
X51644699Y-53638680D01*
X51648202Y-53641225D01*
X51648212Y-53641232D01*
X51802555Y-53719873D01*
X51967299Y-53773402D01*
X52138389Y-53800500D01*
X52138390Y-53800500D01*
X52761610Y-53800500D01*
X52761611Y-53800500D01*
X52932701Y-53773402D01*
X53097445Y-53719873D01*
X53251788Y-53641232D01*
X53391928Y-53539414D01*
X53514414Y-53416928D01*
X53616232Y-53276788D01*
X53694873Y-53122445D01*
X53712864Y-53067073D01*
X53752302Y-53009398D01*
X53816660Y-52982200D01*
X53885507Y-52994115D01*
X53918473Y-53017708D01*
X54232049Y-53331284D01*
X54638181Y-53737416D01*
X54671666Y-53798739D01*
X54674500Y-53825097D01*
X54674500Y-53858771D01*
X54707182Y-54023074D01*
X54707184Y-54023082D01*
X54771295Y-54177860D01*
X54864373Y-54317162D01*
X54982837Y-54435626D01*
X55075494Y-54497537D01*
X55122137Y-54528703D01*
X55276918Y-54592816D01*
X55441228Y-54625499D01*
X55441232Y-54625500D01*
X55441233Y-54625500D01*
X55474903Y-54625500D01*
X55541942Y-54645185D01*
X55562584Y-54661819D01*
X79765139Y-78864374D01*
X79765149Y-78864385D01*
X79769479Y-78868715D01*
X79769480Y-78868716D01*
X79881284Y-78980520D01*
X79881286Y-78980521D01*
X79881290Y-78980524D01*
X80018209Y-79059573D01*
X80018216Y-79059577D01*
X80130019Y-79089534D01*
X80170942Y-79100500D01*
X80170943Y-79100500D01*
X81870234Y-79100500D01*
X81937273Y-79120185D01*
X81939125Y-79121398D01*
X82070814Y-79209390D01*
X82070827Y-79209397D01*
X82216498Y-79269735D01*
X82216503Y-79269737D01*
X82371153Y-79300499D01*
X82371156Y-79300500D01*
X82371158Y-79300500D01*
X82528844Y-79300500D01*
X82528845Y-79300499D01*
X82683497Y-79269737D01*
X82829179Y-79209394D01*
X82960289Y-79121789D01*
X83071789Y-79010289D01*
X83159394Y-78879179D01*
X83219737Y-78733497D01*
X83250500Y-78578842D01*
X83250500Y-78421158D01*
X83250500Y-78421155D01*
X83250499Y-78421153D01*
X83219738Y-78266510D01*
X83219737Y-78266503D01*
X83219735Y-78266498D01*
X83159397Y-78120827D01*
X83159390Y-78120814D01*
X83071789Y-77989711D01*
X83071786Y-77989707D01*
X82960292Y-77878213D01*
X82960288Y-77878210D01*
X82829185Y-77790609D01*
X82829172Y-77790602D01*
X82683501Y-77730264D01*
X82683489Y-77730261D01*
X82528845Y-77699500D01*
X82528842Y-77699500D01*
X82371158Y-77699500D01*
X82371155Y-77699500D01*
X82216510Y-77730261D01*
X82216498Y-77730264D01*
X82070827Y-77790602D01*
X82070814Y-77790609D01*
X81939125Y-77878602D01*
X81872447Y-77899480D01*
X81870234Y-77899500D01*
X80550097Y-77899500D01*
X80483058Y-77879815D01*
X80462416Y-77863181D01*
X76243727Y-73644492D01*
X76210242Y-73583169D01*
X76215226Y-73513477D01*
X76257098Y-73457544D01*
X76262502Y-73453718D01*
X76310289Y-73421789D01*
X76421789Y-73310289D01*
X76509394Y-73179179D01*
X76512854Y-73170827D01*
X76567163Y-73039711D01*
X76569737Y-73033497D01*
X76600500Y-72878842D01*
X76600500Y-72721158D01*
X76600500Y-72721155D01*
X76600499Y-72721153D01*
X76569738Y-72566510D01*
X76569737Y-72566503D01*
X76569735Y-72566498D01*
X76509397Y-72420827D01*
X76509390Y-72420814D01*
X76421398Y-72289125D01*
X76400520Y-72222447D01*
X76400500Y-72220234D01*
X76400500Y-71970945D01*
X76400500Y-71970943D01*
X76384402Y-71910864D01*
X76386065Y-71841018D01*
X76425227Y-71783155D01*
X76489455Y-71755651D01*
X76558358Y-71767237D01*
X76591858Y-71791093D01*
X81565139Y-76764374D01*
X81565149Y-76764385D01*
X81569479Y-76768715D01*
X81569480Y-76768716D01*
X81681284Y-76880520D01*
X81681286Y-76880521D01*
X81681290Y-76880524D01*
X81818209Y-76959573D01*
X81818216Y-76959577D01*
X81867105Y-76972676D01*
X81922691Y-77004770D01*
X81939707Y-77021786D01*
X81939711Y-77021789D01*
X82070814Y-77109390D01*
X82070827Y-77109397D01*
X82216498Y-77169735D01*
X82216503Y-77169737D01*
X82371153Y-77200499D01*
X82371156Y-77200500D01*
X82371158Y-77200500D01*
X82528844Y-77200500D01*
X82528845Y-77200499D01*
X82683497Y-77169737D01*
X82829179Y-77109394D01*
X82960289Y-77021789D01*
X83071789Y-76910289D01*
X83159394Y-76779179D01*
X83219737Y-76633497D01*
X83250500Y-76478842D01*
X83250500Y-76321158D01*
X83250500Y-76321155D01*
X83250499Y-76321153D01*
X83219738Y-76166510D01*
X83219737Y-76166503D01*
X83219735Y-76166498D01*
X83159397Y-76020827D01*
X83159390Y-76020814D01*
X83071789Y-75889711D01*
X83071786Y-75889707D01*
X82960292Y-75778213D01*
X82960288Y-75778210D01*
X82829185Y-75690609D01*
X82829172Y-75690602D01*
X82683501Y-75630264D01*
X82683489Y-75630261D01*
X82528845Y-75599500D01*
X82528842Y-75599500D01*
X82371158Y-75599500D01*
X82371155Y-75599500D01*
X82210528Y-75631451D01*
X82210049Y-75629046D01*
X82150943Y-75629544D01*
X82097193Y-75597958D01*
X73920388Y-67421153D01*
X76549500Y-67421153D01*
X76549500Y-67578846D01*
X76580261Y-67733489D01*
X76580264Y-67733501D01*
X76640602Y-67879172D01*
X76640609Y-67879185D01*
X76675304Y-67931109D01*
X76696182Y-67997786D01*
X76677698Y-68065167D01*
X76675304Y-68068891D01*
X76640609Y-68120814D01*
X76640602Y-68120827D01*
X76580264Y-68266498D01*
X76580261Y-68266510D01*
X76549500Y-68421153D01*
X76549500Y-68578846D01*
X76580261Y-68733489D01*
X76580264Y-68733501D01*
X76640602Y-68879172D01*
X76640609Y-68879185D01*
X76728210Y-69010288D01*
X76728213Y-69010292D01*
X76839707Y-69121786D01*
X76839711Y-69121789D01*
X76970814Y-69209390D01*
X76970827Y-69209397D01*
X77116498Y-69269735D01*
X77116503Y-69269737D01*
X77271153Y-69300499D01*
X77271156Y-69300500D01*
X77271158Y-69300500D01*
X77428844Y-69300500D01*
X77428845Y-69300499D01*
X77583497Y-69269737D01*
X77729179Y-69209394D01*
X77860289Y-69121789D01*
X77971789Y-69010289D01*
X78059394Y-68879179D01*
X78119737Y-68733497D01*
X78150500Y-68578842D01*
X78150500Y-68421158D01*
X78150500Y-68421155D01*
X78150499Y-68421153D01*
X78119738Y-68266510D01*
X78119737Y-68266503D01*
X78119735Y-68266498D01*
X78059396Y-68120825D01*
X78059394Y-68120822D01*
X78059394Y-68120821D01*
X78024694Y-68068889D01*
X78003816Y-68002215D01*
X78022300Y-67934835D01*
X78024676Y-67931136D01*
X78059394Y-67879179D01*
X78119737Y-67733497D01*
X78150500Y-67578842D01*
X78150500Y-67421158D01*
X78150500Y-67421155D01*
X78150499Y-67421153D01*
X78122192Y-67278846D01*
X78119737Y-67266503D01*
X78119735Y-67266498D01*
X78076666Y-67162518D01*
X78059532Y-67121153D01*
X79999500Y-67121153D01*
X79999500Y-67278846D01*
X80030261Y-67433489D01*
X80030264Y-67433501D01*
X80090602Y-67579172D01*
X80090609Y-67579185D01*
X80178210Y-67710288D01*
X80178213Y-67710292D01*
X80289707Y-67821786D01*
X80289711Y-67821789D01*
X80420814Y-67909390D01*
X80420827Y-67909397D01*
X80482241Y-67934835D01*
X80566503Y-67969737D01*
X80707514Y-67997786D01*
X80721153Y-68000499D01*
X80721156Y-68000500D01*
X80721158Y-68000500D01*
X80878844Y-68000500D01*
X80878845Y-68000499D01*
X81033497Y-67969737D01*
X81179179Y-67909394D01*
X81310289Y-67821789D01*
X81421789Y-67710289D01*
X81509394Y-67579179D01*
X81569737Y-67433497D01*
X81600500Y-67278842D01*
X81600500Y-67121158D01*
X81600500Y-67121155D01*
X81600499Y-67121153D01*
X83099500Y-67121153D01*
X83099500Y-67278846D01*
X83130261Y-67433489D01*
X83130264Y-67433501D01*
X83190602Y-67579172D01*
X83190609Y-67579185D01*
X83278210Y-67710288D01*
X83278213Y-67710292D01*
X83389707Y-67821786D01*
X83389711Y-67821789D01*
X83520814Y-67909390D01*
X83520827Y-67909397D01*
X83582241Y-67934835D01*
X83666503Y-67969737D01*
X83807514Y-67997786D01*
X83821153Y-68000499D01*
X83821156Y-68000500D01*
X83821158Y-68000500D01*
X83978844Y-68000500D01*
X83978845Y-68000499D01*
X84133497Y-67969737D01*
X84279179Y-67909394D01*
X84410289Y-67821789D01*
X84521789Y-67710289D01*
X84609394Y-67579179D01*
X84669737Y-67433497D01*
X84700500Y-67278842D01*
X84700500Y-67121158D01*
X84700500Y-67121155D01*
X84700499Y-67121153D01*
X84674353Y-66989711D01*
X84669737Y-66966503D01*
X84634460Y-66881336D01*
X84609397Y-66820827D01*
X84609390Y-66820814D01*
X84521789Y-66689711D01*
X84521786Y-66689707D01*
X84410292Y-66578213D01*
X84410288Y-66578210D01*
X84279185Y-66490609D01*
X84279172Y-66490602D01*
X84133501Y-66430264D01*
X84133489Y-66430261D01*
X83978845Y-66399500D01*
X83978842Y-66399500D01*
X83821158Y-66399500D01*
X83821155Y-66399500D01*
X83666510Y-66430261D01*
X83666498Y-66430264D01*
X83520827Y-66490602D01*
X83520814Y-66490609D01*
X83389711Y-66578210D01*
X83389707Y-66578213D01*
X83278213Y-66689707D01*
X83278210Y-66689711D01*
X83190609Y-66820814D01*
X83190602Y-66820827D01*
X83130264Y-66966498D01*
X83130261Y-66966510D01*
X83099500Y-67121153D01*
X81600499Y-67121153D01*
X81574353Y-66989711D01*
X81569737Y-66966503D01*
X81534460Y-66881336D01*
X81509397Y-66820827D01*
X81509390Y-66820814D01*
X81421789Y-66689711D01*
X81421786Y-66689707D01*
X81310292Y-66578213D01*
X81310288Y-66578210D01*
X81179185Y-66490609D01*
X81179172Y-66490602D01*
X81033501Y-66430264D01*
X81033489Y-66430261D01*
X80878845Y-66399500D01*
X80878842Y-66399500D01*
X80721158Y-66399500D01*
X80721155Y-66399500D01*
X80566510Y-66430261D01*
X80566498Y-66430264D01*
X80420827Y-66490602D01*
X80420814Y-66490609D01*
X80289711Y-66578210D01*
X80289707Y-66578213D01*
X80178213Y-66689707D01*
X80178210Y-66689711D01*
X80090609Y-66820814D01*
X80090602Y-66820827D01*
X80030264Y-66966498D01*
X80030261Y-66966510D01*
X79999500Y-67121153D01*
X78059532Y-67121153D01*
X78059395Y-67120823D01*
X78059390Y-67120814D01*
X77971789Y-66989711D01*
X77971786Y-66989707D01*
X77863415Y-66881336D01*
X77829930Y-66820013D01*
X77834914Y-66750321D01*
X77876786Y-66694388D01*
X77882178Y-66690571D01*
X77910289Y-66671789D01*
X78021789Y-66560289D01*
X78109394Y-66429179D01*
X78169737Y-66283497D01*
X78200500Y-66128842D01*
X78200500Y-65971158D01*
X78200500Y-65971155D01*
X78200499Y-65971153D01*
X78169738Y-65816510D01*
X78169737Y-65816503D01*
X78169735Y-65816498D01*
X78109397Y-65670827D01*
X78109393Y-65670820D01*
X78082990Y-65631305D01*
X78062113Y-65564629D01*
X78080597Y-65497249D01*
X78082991Y-65493524D01*
X78159390Y-65379185D01*
X78159390Y-65379184D01*
X78159394Y-65379179D01*
X78219737Y-65233497D01*
X78250500Y-65078842D01*
X78250500Y-64921158D01*
X78250500Y-64921155D01*
X78250499Y-64921153D01*
X78219738Y-64766510D01*
X78219737Y-64766503D01*
X78219735Y-64766498D01*
X78159397Y-64620827D01*
X78159390Y-64620814D01*
X78071789Y-64489711D01*
X78071786Y-64489707D01*
X77960292Y-64378213D01*
X77960288Y-64378210D01*
X77829185Y-64290609D01*
X77829172Y-64290602D01*
X77683501Y-64230264D01*
X77683489Y-64230261D01*
X77528845Y-64199500D01*
X77528842Y-64199500D01*
X77371158Y-64199500D01*
X77371155Y-64199500D01*
X77216510Y-64230261D01*
X77216498Y-64230264D01*
X77070827Y-64290602D01*
X77070814Y-64290609D01*
X76939711Y-64378210D01*
X76939707Y-64378213D01*
X76828213Y-64489707D01*
X76828210Y-64489711D01*
X76740609Y-64620814D01*
X76740602Y-64620827D01*
X76680264Y-64766498D01*
X76680261Y-64766510D01*
X76649500Y-64921153D01*
X76649500Y-65078846D01*
X76680261Y-65233489D01*
X76680264Y-65233501D01*
X76740603Y-65379172D01*
X76740606Y-65379179D01*
X76767009Y-65418694D01*
X76787886Y-65485371D01*
X76769401Y-65552752D01*
X76767009Y-65556474D01*
X76690608Y-65670816D01*
X76690602Y-65670827D01*
X76630264Y-65816498D01*
X76630261Y-65816510D01*
X76599500Y-65971153D01*
X76599500Y-66128846D01*
X76630261Y-66283489D01*
X76630264Y-66283501D01*
X76690602Y-66429172D01*
X76690609Y-66429185D01*
X76778210Y-66560288D01*
X76778213Y-66560292D01*
X76886584Y-66668663D01*
X76920069Y-66729986D01*
X76915085Y-66799678D01*
X76873213Y-66855611D01*
X76867794Y-66859446D01*
X76839711Y-66878210D01*
X76839707Y-66878213D01*
X76728213Y-66989707D01*
X76728210Y-66989711D01*
X76640609Y-67120814D01*
X76640602Y-67120827D01*
X76580264Y-67266498D01*
X76580261Y-67266510D01*
X76549500Y-67421153D01*
X73920388Y-67421153D01*
X61070388Y-54571153D01*
X82999500Y-54571153D01*
X82999500Y-54728846D01*
X83030261Y-54883489D01*
X83030264Y-54883501D01*
X83090602Y-55029172D01*
X83090609Y-55029185D01*
X83178210Y-55160288D01*
X83178213Y-55160292D01*
X83289707Y-55271786D01*
X83289711Y-55271789D01*
X83420814Y-55359390D01*
X83420827Y-55359397D01*
X83558683Y-55416498D01*
X83566503Y-55419737D01*
X83721153Y-55450499D01*
X83721156Y-55450500D01*
X83721158Y-55450500D01*
X83878844Y-55450500D01*
X83878845Y-55450499D01*
X84033497Y-55419737D01*
X84179179Y-55359394D01*
X84310289Y-55271789D01*
X84421789Y-55160289D01*
X84509394Y-55029179D01*
X84569737Y-54883497D01*
X84600500Y-54728842D01*
X84600500Y-54571158D01*
X84600500Y-54571155D01*
X84600499Y-54571153D01*
X85499500Y-54571153D01*
X85499500Y-54728846D01*
X85530261Y-54883489D01*
X85530264Y-54883501D01*
X85590602Y-55029172D01*
X85590609Y-55029185D01*
X85678210Y-55160288D01*
X85678213Y-55160292D01*
X85789707Y-55271786D01*
X85789711Y-55271789D01*
X85920814Y-55359390D01*
X85920827Y-55359397D01*
X86058683Y-55416498D01*
X86066503Y-55419737D01*
X86221153Y-55450499D01*
X86221156Y-55450500D01*
X86221158Y-55450500D01*
X86378844Y-55450500D01*
X86378845Y-55450499D01*
X86533497Y-55419737D01*
X86679179Y-55359394D01*
X86810289Y-55271789D01*
X86921789Y-55160289D01*
X87009394Y-55029179D01*
X87069737Y-54883497D01*
X87100500Y-54728842D01*
X87100500Y-54571158D01*
X87100500Y-54571155D01*
X87100499Y-54571153D01*
X87090486Y-54520814D01*
X87069737Y-54416503D01*
X87069735Y-54416498D01*
X87009397Y-54270827D01*
X87009390Y-54270814D01*
X86921789Y-54139711D01*
X86921786Y-54139707D01*
X86810292Y-54028213D01*
X86810288Y-54028210D01*
X86679185Y-53940609D01*
X86679172Y-53940602D01*
X86533501Y-53880264D01*
X86533489Y-53880261D01*
X86378845Y-53849500D01*
X86378842Y-53849500D01*
X86221158Y-53849500D01*
X86221155Y-53849500D01*
X86066510Y-53880261D01*
X86066498Y-53880264D01*
X85920827Y-53940602D01*
X85920814Y-53940609D01*
X85789711Y-54028210D01*
X85789707Y-54028213D01*
X85678213Y-54139707D01*
X85678210Y-54139711D01*
X85590609Y-54270814D01*
X85590602Y-54270827D01*
X85530264Y-54416498D01*
X85530261Y-54416510D01*
X85499500Y-54571153D01*
X84600499Y-54571153D01*
X84590486Y-54520814D01*
X84569737Y-54416503D01*
X84569735Y-54416498D01*
X84509397Y-54270827D01*
X84509390Y-54270814D01*
X84421789Y-54139711D01*
X84421786Y-54139707D01*
X84310292Y-54028213D01*
X84310288Y-54028210D01*
X84179185Y-53940609D01*
X84179172Y-53940602D01*
X84033501Y-53880264D01*
X84033489Y-53880261D01*
X83878845Y-53849500D01*
X83878842Y-53849500D01*
X83721158Y-53849500D01*
X83721155Y-53849500D01*
X83566510Y-53880261D01*
X83566498Y-53880264D01*
X83420827Y-53940602D01*
X83420814Y-53940609D01*
X83289711Y-54028210D01*
X83289707Y-54028213D01*
X83178213Y-54139707D01*
X83178210Y-54139711D01*
X83090609Y-54270814D01*
X83090602Y-54270827D01*
X83030264Y-54416498D01*
X83030261Y-54416510D01*
X82999500Y-54571153D01*
X61070388Y-54571153D01*
X56186819Y-49687584D01*
X56153334Y-49626261D01*
X56150500Y-49599903D01*
X56150500Y-49071153D01*
X69799500Y-49071153D01*
X69799500Y-49228846D01*
X69830261Y-49383489D01*
X69830264Y-49383501D01*
X69890602Y-49529172D01*
X69890609Y-49529185D01*
X69978210Y-49660288D01*
X69978213Y-49660292D01*
X70089707Y-49771786D01*
X70089711Y-49771789D01*
X70189703Y-49838602D01*
X70234508Y-49892214D01*
X70243215Y-49961539D01*
X70213061Y-50024567D01*
X70189704Y-50044805D01*
X70139713Y-50078208D01*
X70139707Y-50078213D01*
X70028213Y-50189707D01*
X70028210Y-50189711D01*
X69940609Y-50320814D01*
X69940602Y-50320827D01*
X69880264Y-50466498D01*
X69880261Y-50466510D01*
X69849500Y-50621153D01*
X69849500Y-50778846D01*
X69880261Y-50933489D01*
X69880264Y-50933501D01*
X69940602Y-51079172D01*
X69940609Y-51079185D01*
X70028210Y-51210288D01*
X70028213Y-51210292D01*
X70139707Y-51321786D01*
X70139711Y-51321789D01*
X70270814Y-51409390D01*
X70270827Y-51409397D01*
X70416498Y-51469735D01*
X70416503Y-51469737D01*
X70571153Y-51500499D01*
X70571156Y-51500500D01*
X70571158Y-51500500D01*
X70728844Y-51500500D01*
X70728845Y-51500499D01*
X70883497Y-51469737D01*
X71029179Y-51409394D01*
X71160289Y-51321789D01*
X71271789Y-51210289D01*
X71359394Y-51079179D01*
X71419737Y-50933497D01*
X71450500Y-50778842D01*
X71450500Y-50621158D01*
X71450500Y-50621155D01*
X71450499Y-50621153D01*
X71419738Y-50466510D01*
X71419737Y-50466503D01*
X71409713Y-50442302D01*
X71359397Y-50320827D01*
X71359390Y-50320814D01*
X71271789Y-50189711D01*
X71271786Y-50189707D01*
X71160292Y-50078213D01*
X71160288Y-50078210D01*
X71060296Y-50011397D01*
X71015491Y-49957785D01*
X71006784Y-49888460D01*
X71036939Y-49825432D01*
X71060293Y-49805194D01*
X71110289Y-49771789D01*
X71221789Y-49660289D01*
X71309394Y-49529179D01*
X71369737Y-49383497D01*
X71400500Y-49228842D01*
X71400500Y-49071158D01*
X71400500Y-49071155D01*
X71400499Y-49071153D01*
X71378447Y-48960292D01*
X71369737Y-48916503D01*
X71363849Y-48902288D01*
X71309397Y-48770827D01*
X71309390Y-48770814D01*
X71221789Y-48639711D01*
X71221786Y-48639707D01*
X71110292Y-48528213D01*
X71110288Y-48528210D01*
X70979185Y-48440609D01*
X70979172Y-48440602D01*
X70833501Y-48380264D01*
X70833489Y-48380261D01*
X70678845Y-48349500D01*
X70678842Y-48349500D01*
X70521158Y-48349500D01*
X70521155Y-48349500D01*
X70366510Y-48380261D01*
X70366498Y-48380264D01*
X70220827Y-48440602D01*
X70220814Y-48440609D01*
X70089711Y-48528210D01*
X70089707Y-48528213D01*
X69978213Y-48639707D01*
X69978210Y-48639711D01*
X69890609Y-48770814D01*
X69890602Y-48770827D01*
X69830264Y-48916498D01*
X69830261Y-48916510D01*
X69799500Y-49071153D01*
X56150500Y-49071153D01*
X56150500Y-48953650D01*
X56170185Y-48886611D01*
X56186815Y-48865972D01*
X56210626Y-48842162D01*
X56303703Y-48702863D01*
X56367816Y-48548082D01*
X56400500Y-48383767D01*
X56400500Y-48216233D01*
X56367816Y-48051918D01*
X56315244Y-47925000D01*
X56303704Y-47897139D01*
X56210626Y-47757837D01*
X56186819Y-47734030D01*
X56153334Y-47672707D01*
X56150500Y-47646349D01*
X56150500Y-46929765D01*
X56170185Y-46862726D01*
X56171398Y-46860874D01*
X56259390Y-46729185D01*
X56259390Y-46729184D01*
X56259394Y-46729179D01*
X56262854Y-46720827D01*
X56280102Y-46679185D01*
X56319737Y-46583497D01*
X56350500Y-46428842D01*
X56350500Y-46271158D01*
X56350500Y-46271155D01*
X56350499Y-46271153D01*
X56340553Y-46221153D01*
X56319737Y-46116503D01*
X56306769Y-46085195D01*
X56259397Y-45970827D01*
X56259390Y-45970814D01*
X56171398Y-45839125D01*
X56165747Y-45821078D01*
X56155523Y-45805169D01*
X56151071Y-45774207D01*
X56150520Y-45772447D01*
X56150500Y-45770234D01*
X56150500Y-45721153D01*
X69799500Y-45721153D01*
X69799500Y-45878846D01*
X69830261Y-46033489D01*
X69830264Y-46033501D01*
X69890602Y-46179172D01*
X69890609Y-46179185D01*
X69978210Y-46310288D01*
X69978213Y-46310292D01*
X70055240Y-46387319D01*
X70088725Y-46448642D01*
X70083741Y-46518334D01*
X70055240Y-46562681D01*
X69978213Y-46639707D01*
X69978210Y-46639711D01*
X69890609Y-46770814D01*
X69890602Y-46770827D01*
X69830264Y-46916498D01*
X69830261Y-46916510D01*
X69799500Y-47071153D01*
X69799500Y-47228846D01*
X69830261Y-47383489D01*
X69830264Y-47383501D01*
X69890602Y-47529172D01*
X69890609Y-47529185D01*
X69978210Y-47660288D01*
X69978213Y-47660292D01*
X70089707Y-47771786D01*
X70089711Y-47771789D01*
X70220814Y-47859390D01*
X70220827Y-47859397D01*
X70320060Y-47900500D01*
X70366503Y-47919737D01*
X70521153Y-47950499D01*
X70521156Y-47950500D01*
X70521158Y-47950500D01*
X70678844Y-47950500D01*
X70678845Y-47950499D01*
X70833497Y-47919737D01*
X70951592Y-47870821D01*
X70979172Y-47859397D01*
X70979172Y-47859396D01*
X70979179Y-47859394D01*
X71110289Y-47771789D01*
X71221789Y-47660289D01*
X71309394Y-47529179D01*
X71369737Y-47383497D01*
X71400500Y-47228842D01*
X71400500Y-47071158D01*
X71400500Y-47071155D01*
X71400499Y-47071153D01*
X71380543Y-46970827D01*
X71369737Y-46916503D01*
X71350812Y-46870814D01*
X71309397Y-46770827D01*
X71309390Y-46770814D01*
X71221789Y-46639711D01*
X71221786Y-46639707D01*
X71144760Y-46562681D01*
X71111275Y-46501358D01*
X71116259Y-46431666D01*
X71144760Y-46387319D01*
X71221786Y-46310292D01*
X71221789Y-46310289D01*
X71281348Y-46221153D01*
X75599500Y-46221153D01*
X75599500Y-46378846D01*
X75630261Y-46533489D01*
X75630264Y-46533501D01*
X75690602Y-46679171D01*
X75690603Y-46679172D01*
X75690606Y-46679179D01*
X75690609Y-46679184D01*
X75690610Y-46679185D01*
X75708601Y-46706112D01*
X75729477Y-46772790D01*
X75710991Y-46840169D01*
X75708601Y-46843888D01*
X75690610Y-46870814D01*
X75690602Y-46870828D01*
X75630264Y-47016498D01*
X75630261Y-47016510D01*
X75599500Y-47171153D01*
X75599500Y-47328846D01*
X75630261Y-47483489D01*
X75630264Y-47483501D01*
X75690602Y-47629172D01*
X75690609Y-47629185D01*
X75725304Y-47681109D01*
X75746182Y-47747786D01*
X75727698Y-47815167D01*
X75725304Y-47818891D01*
X75690609Y-47870814D01*
X75690602Y-47870827D01*
X75630264Y-48016498D01*
X75630261Y-48016510D01*
X75599500Y-48171153D01*
X75599500Y-48328846D01*
X75630261Y-48483489D01*
X75630264Y-48483501D01*
X75690602Y-48629172D01*
X75690609Y-48629185D01*
X75778210Y-48760288D01*
X75778213Y-48760292D01*
X75889707Y-48871786D01*
X75889711Y-48871789D01*
X76020814Y-48959390D01*
X76020827Y-48959397D01*
X76166498Y-49019735D01*
X76166503Y-49019737D01*
X76321153Y-49050499D01*
X76321156Y-49050500D01*
X76321158Y-49050500D01*
X76478844Y-49050500D01*
X76478845Y-49050499D01*
X76633497Y-49019737D01*
X76779179Y-48959394D01*
X76836411Y-48921153D01*
X87149500Y-48921153D01*
X87149500Y-49078846D01*
X87180261Y-49233489D01*
X87180264Y-49233501D01*
X87240602Y-49379172D01*
X87240612Y-49379190D01*
X87292008Y-49456110D01*
X87312886Y-49522787D01*
X87294401Y-49590167D01*
X87292008Y-49593890D01*
X87240612Y-49670809D01*
X87240602Y-49670827D01*
X87180264Y-49816498D01*
X87180261Y-49816510D01*
X87149500Y-49971153D01*
X87149500Y-50128846D01*
X87180261Y-50283489D01*
X87180264Y-50283501D01*
X87240602Y-50429172D01*
X87240609Y-50429185D01*
X87328210Y-50560288D01*
X87328213Y-50560292D01*
X87330240Y-50562319D01*
X87330962Y-50563642D01*
X87332076Y-50564999D01*
X87331818Y-50565210D01*
X87363725Y-50623642D01*
X87358741Y-50693334D01*
X87332001Y-50734939D01*
X87332076Y-50735001D01*
X87331552Y-50735639D01*
X87330240Y-50737681D01*
X87328213Y-50739707D01*
X87328210Y-50739711D01*
X87240609Y-50870814D01*
X87240602Y-50870827D01*
X87180264Y-51016498D01*
X87180261Y-51016510D01*
X87149500Y-51171153D01*
X87149500Y-51328846D01*
X87180261Y-51483489D01*
X87180264Y-51483501D01*
X87240602Y-51629172D01*
X87240609Y-51629185D01*
X87328210Y-51760288D01*
X87328213Y-51760292D01*
X87439707Y-51871786D01*
X87439711Y-51871789D01*
X87570814Y-51959390D01*
X87570827Y-51959397D01*
X87716498Y-52019735D01*
X87716503Y-52019737D01*
X87871153Y-52050499D01*
X87871156Y-52050500D01*
X87871158Y-52050500D01*
X88028844Y-52050500D01*
X88028845Y-52050499D01*
X88183497Y-52019737D01*
X88329179Y-51959394D01*
X88460289Y-51871789D01*
X88571789Y-51760289D01*
X88659394Y-51629179D01*
X88719737Y-51483497D01*
X88750500Y-51328842D01*
X88750500Y-51171158D01*
X88750500Y-51171155D01*
X88750499Y-51171153D01*
X88732204Y-51079179D01*
X88719737Y-51016503D01*
X88719735Y-51016498D01*
X88659397Y-50870827D01*
X88659390Y-50870814D01*
X88571789Y-50739711D01*
X88569766Y-50737688D01*
X88569043Y-50736365D01*
X88567924Y-50735001D01*
X88568182Y-50734788D01*
X88536276Y-50676368D01*
X88541255Y-50606676D01*
X88567999Y-50565060D01*
X88567924Y-50564999D01*
X88568454Y-50564351D01*
X88569766Y-50562312D01*
X88571789Y-50560289D01*
X88659394Y-50429179D01*
X88719737Y-50283497D01*
X88750500Y-50128842D01*
X88750500Y-49971158D01*
X88750500Y-49971155D01*
X88750499Y-49971153D01*
X88742365Y-49930263D01*
X88719737Y-49816503D01*
X88681681Y-49724626D01*
X88659397Y-49670827D01*
X88659395Y-49670823D01*
X88659394Y-49670821D01*
X88607991Y-49593891D01*
X88587113Y-49527214D01*
X88605597Y-49459834D01*
X88607991Y-49456109D01*
X88610971Y-49451647D01*
X88659394Y-49379179D01*
X88719737Y-49233497D01*
X88750500Y-49078842D01*
X88750500Y-48921158D01*
X88750500Y-48921155D01*
X88750499Y-48921153D01*
X88739522Y-48865967D01*
X88719737Y-48766503D01*
X88693377Y-48702863D01*
X88659397Y-48620827D01*
X88659390Y-48620814D01*
X88571789Y-48489711D01*
X88571786Y-48489707D01*
X88460292Y-48378213D01*
X88460288Y-48378210D01*
X88329185Y-48290609D01*
X88329172Y-48290602D01*
X88183501Y-48230264D01*
X88183489Y-48230261D01*
X88028845Y-48199500D01*
X88028842Y-48199500D01*
X87871158Y-48199500D01*
X87871155Y-48199500D01*
X87716510Y-48230261D01*
X87716498Y-48230264D01*
X87570827Y-48290602D01*
X87570814Y-48290609D01*
X87439711Y-48378210D01*
X87439707Y-48378213D01*
X87328213Y-48489707D01*
X87328210Y-48489711D01*
X87240609Y-48620814D01*
X87240602Y-48620827D01*
X87180264Y-48766498D01*
X87180261Y-48766510D01*
X87149500Y-48921153D01*
X76836411Y-48921153D01*
X76910289Y-48871789D01*
X76916111Y-48865967D01*
X76954694Y-48827385D01*
X77021786Y-48760292D01*
X77021789Y-48760289D01*
X77109394Y-48629179D01*
X77112854Y-48620827D01*
X77142985Y-48548082D01*
X77169737Y-48483497D01*
X77200500Y-48328842D01*
X77200500Y-48171158D01*
X77200500Y-48171155D01*
X77200499Y-48171153D01*
X77169737Y-48016503D01*
X77142398Y-47950500D01*
X77109396Y-47870825D01*
X77109394Y-47870822D01*
X77109394Y-47870821D01*
X77074694Y-47818889D01*
X77053816Y-47752215D01*
X77072300Y-47684835D01*
X77074676Y-47681136D01*
X77109394Y-47629179D01*
X77169737Y-47483497D01*
X77200500Y-47328842D01*
X77200500Y-47171158D01*
X77200500Y-47171155D01*
X77200499Y-47171153D01*
X77174346Y-47039672D01*
X83113879Y-47039672D01*
X83245189Y-47094063D01*
X83245195Y-47094065D01*
X83400711Y-47125000D01*
X83559288Y-47125000D01*
X83714804Y-47094065D01*
X83714806Y-47094064D01*
X83846119Y-47039672D01*
X84113879Y-47039672D01*
X84245189Y-47094063D01*
X84245195Y-47094065D01*
X84400711Y-47125000D01*
X84559288Y-47125000D01*
X84714804Y-47094065D01*
X84714806Y-47094064D01*
X84846119Y-47039672D01*
X84827600Y-47021153D01*
X87449500Y-47021153D01*
X87449500Y-47178846D01*
X87480261Y-47333489D01*
X87480264Y-47333501D01*
X87540602Y-47479172D01*
X87540609Y-47479185D01*
X87628210Y-47610288D01*
X87628213Y-47610292D01*
X87739707Y-47721786D01*
X87739711Y-47721789D01*
X87870814Y-47809390D01*
X87870827Y-47809397D01*
X87993693Y-47860289D01*
X88016503Y-47869737D01*
X88154251Y-47897137D01*
X88171153Y-47900499D01*
X88171156Y-47900500D01*
X88171158Y-47900500D01*
X88328844Y-47900500D01*
X88328845Y-47900499D01*
X88483497Y-47869737D01*
X88629179Y-47809394D01*
X88760289Y-47721789D01*
X88871789Y-47610289D01*
X88959394Y-47479179D01*
X89019737Y-47333497D01*
X89032138Y-47271153D01*
X93849500Y-47271153D01*
X93849500Y-47428846D01*
X93880261Y-47583489D01*
X93880264Y-47583501D01*
X93940602Y-47729172D01*
X93940609Y-47729185D01*
X94031595Y-47865354D01*
X94030059Y-47866380D01*
X94053994Y-47922731D01*
X94042205Y-47991599D01*
X94033930Y-48005981D01*
X93990609Y-48070814D01*
X93990602Y-48070827D01*
X93930264Y-48216498D01*
X93930261Y-48216510D01*
X93899500Y-48371153D01*
X93899500Y-48528846D01*
X93930261Y-48683489D01*
X93930264Y-48683501D01*
X93990602Y-48829172D01*
X93990609Y-48829185D01*
X94078210Y-48960288D01*
X94078213Y-48960292D01*
X94189707Y-49071786D01*
X94189711Y-49071789D01*
X94320814Y-49159390D01*
X94320827Y-49159397D01*
X94466498Y-49219735D01*
X94466503Y-49219737D01*
X94621153Y-49250499D01*
X94621156Y-49250500D01*
X94621158Y-49250500D01*
X94778844Y-49250500D01*
X94778845Y-49250499D01*
X94933497Y-49219737D01*
X95079179Y-49159394D01*
X95210289Y-49071789D01*
X95321789Y-48960289D01*
X95409394Y-48829179D01*
X95469737Y-48683497D01*
X95500500Y-48528842D01*
X95500500Y-48371158D01*
X95500500Y-48371155D01*
X95500499Y-48371153D01*
X95496192Y-48349500D01*
X95469737Y-48216503D01*
X95462694Y-48199500D01*
X95409397Y-48070827D01*
X95409390Y-48070814D01*
X95318405Y-47934646D01*
X95319941Y-47933619D01*
X95296006Y-47877273D01*
X95307792Y-47808404D01*
X95316066Y-47794023D01*
X95359394Y-47729179D01*
X95419737Y-47583497D01*
X95450500Y-47428842D01*
X95450500Y-47271158D01*
X95450500Y-47271155D01*
X95450499Y-47271153D01*
X95443420Y-47235564D01*
X95419737Y-47116503D01*
X95400955Y-47071158D01*
X95359397Y-46970827D01*
X95359390Y-46970814D01*
X95271789Y-46839711D01*
X95271786Y-46839707D01*
X95160292Y-46728213D01*
X95160288Y-46728210D01*
X95029185Y-46640609D01*
X95029172Y-46640602D01*
X94883501Y-46580264D01*
X94883489Y-46580261D01*
X94728845Y-46549500D01*
X94728842Y-46549500D01*
X94571158Y-46549500D01*
X94571155Y-46549500D01*
X94416510Y-46580261D01*
X94416498Y-46580264D01*
X94270827Y-46640602D01*
X94270814Y-46640609D01*
X94139711Y-46728210D01*
X94139707Y-46728213D01*
X94028213Y-46839707D01*
X94028210Y-46839711D01*
X93940609Y-46970814D01*
X93940602Y-46970827D01*
X93880264Y-47116498D01*
X93880261Y-47116510D01*
X93849500Y-47271153D01*
X89032138Y-47271153D01*
X89040554Y-47228842D01*
X89050500Y-47178844D01*
X89050500Y-47021155D01*
X89050499Y-47021153D01*
X89040486Y-46970814D01*
X89019737Y-46866503D01*
X89008829Y-46840169D01*
X88959397Y-46720827D01*
X88959390Y-46720814D01*
X88871789Y-46589711D01*
X88871786Y-46589707D01*
X88760292Y-46478213D01*
X88760288Y-46478210D01*
X88629185Y-46390609D01*
X88629172Y-46390602D01*
X88483501Y-46330264D01*
X88483489Y-46330261D01*
X88328845Y-46299500D01*
X88328842Y-46299500D01*
X88171158Y-46299500D01*
X88171155Y-46299500D01*
X88016510Y-46330261D01*
X88016498Y-46330264D01*
X87870827Y-46390602D01*
X87870814Y-46390609D01*
X87739711Y-46478210D01*
X87739707Y-46478213D01*
X87628213Y-46589707D01*
X87628210Y-46589711D01*
X87540609Y-46720814D01*
X87540602Y-46720827D01*
X87480264Y-46866498D01*
X87480261Y-46866510D01*
X87449500Y-47021153D01*
X84827600Y-47021153D01*
X84480001Y-46673554D01*
X84113879Y-47039672D01*
X83846119Y-47039672D01*
X83480001Y-46673554D01*
X83480000Y-46673554D01*
X83113879Y-47039672D01*
X77174346Y-47039672D01*
X77173673Y-47036290D01*
X77173672Y-47036289D01*
X77169737Y-47016503D01*
X77109394Y-46870821D01*
X77085328Y-46834804D01*
X77080939Y-46824794D01*
X77077827Y-46800543D01*
X77070522Y-46777215D01*
X77073459Y-46766507D01*
X77072046Y-46755493D01*
X77082538Y-46733410D01*
X77089006Y-46709835D01*
X77091401Y-46706108D01*
X77109389Y-46679187D01*
X77109390Y-46679184D01*
X77109394Y-46679179D01*
X77169737Y-46533497D01*
X77196433Y-46399288D01*
X82674999Y-46399288D01*
X82705934Y-46554804D01*
X82705936Y-46554810D01*
X82760326Y-46686119D01*
X83126446Y-46320000D01*
X83126446Y-46319999D01*
X83096610Y-46290163D01*
X83330000Y-46290163D01*
X83330000Y-46349837D01*
X83352836Y-46404968D01*
X83395032Y-46447164D01*
X83450163Y-46470000D01*
X83509837Y-46470000D01*
X83564968Y-46447164D01*
X83607164Y-46404968D01*
X83630000Y-46349837D01*
X83630000Y-46320000D01*
X83833554Y-46320000D01*
X83980000Y-46466446D01*
X84126446Y-46320000D01*
X84096609Y-46290163D01*
X84330000Y-46290163D01*
X84330000Y-46349837D01*
X84352836Y-46404968D01*
X84395032Y-46447164D01*
X84450163Y-46470000D01*
X84509837Y-46470000D01*
X84564968Y-46447164D01*
X84607164Y-46404968D01*
X84630000Y-46349837D01*
X84630000Y-46320000D01*
X84833554Y-46320000D01*
X84833554Y-46320001D01*
X85199672Y-46686119D01*
X85254064Y-46554806D01*
X85254065Y-46554804D01*
X85285000Y-46399288D01*
X85285000Y-46240711D01*
X85254065Y-46085195D01*
X85254063Y-46085189D01*
X85199672Y-45953879D01*
X84833554Y-46320000D01*
X84630000Y-46320000D01*
X84630000Y-46290163D01*
X84607164Y-46235032D01*
X84564968Y-46192836D01*
X84509837Y-46170000D01*
X84450163Y-46170000D01*
X84395032Y-46192836D01*
X84352836Y-46235032D01*
X84330000Y-46290163D01*
X84096609Y-46290163D01*
X83980000Y-46173554D01*
X83833554Y-46320000D01*
X83630000Y-46320000D01*
X83630000Y-46290163D01*
X83607164Y-46235032D01*
X83564968Y-46192836D01*
X83509837Y-46170000D01*
X83450163Y-46170000D01*
X83395032Y-46192836D01*
X83352836Y-46235032D01*
X83330000Y-46290163D01*
X83096610Y-46290163D01*
X82760326Y-45953879D01*
X82705937Y-46085185D01*
X82705934Y-46085195D01*
X82675000Y-46240711D01*
X82675000Y-46399288D01*
X82674999Y-46399288D01*
X77196433Y-46399288D01*
X77200500Y-46378842D01*
X77200500Y-46221158D01*
X77200500Y-46221155D01*
X77200499Y-46221153D01*
X77179684Y-46116510D01*
X77169737Y-46066503D01*
X77135179Y-45983072D01*
X77109397Y-45920827D01*
X77109390Y-45920814D01*
X77042028Y-45820000D01*
X83333554Y-45820000D01*
X83480000Y-45966446D01*
X83626446Y-45820000D01*
X84333554Y-45820000D01*
X84480000Y-45966446D01*
X84626446Y-45820000D01*
X84480000Y-45673554D01*
X84333554Y-45820000D01*
X83626446Y-45820000D01*
X83480000Y-45673554D01*
X83333554Y-45820000D01*
X77042028Y-45820000D01*
X77021789Y-45789711D01*
X77021786Y-45789707D01*
X76910292Y-45678213D01*
X76910288Y-45678210D01*
X76779185Y-45590609D01*
X76779172Y-45590602D01*
X76633501Y-45530264D01*
X76633489Y-45530261D01*
X76478845Y-45499500D01*
X76478842Y-45499500D01*
X76321158Y-45499500D01*
X76321155Y-45499500D01*
X76166510Y-45530261D01*
X76166498Y-45530264D01*
X76020827Y-45590602D01*
X76020814Y-45590609D01*
X75889711Y-45678210D01*
X75889707Y-45678213D01*
X75778213Y-45789707D01*
X75778210Y-45789711D01*
X75690609Y-45920814D01*
X75690602Y-45920827D01*
X75630264Y-46066498D01*
X75630261Y-46066510D01*
X75599500Y-46221153D01*
X71281348Y-46221153D01*
X71309394Y-46179179D01*
X71369737Y-46033497D01*
X71400500Y-45878842D01*
X71400500Y-45721158D01*
X71400500Y-45721155D01*
X71400499Y-45721153D01*
X71391031Y-45673554D01*
X71369737Y-45566503D01*
X71364891Y-45554804D01*
X71309397Y-45420827D01*
X71309390Y-45420814D01*
X71295007Y-45399288D01*
X82674999Y-45399288D01*
X82705934Y-45554804D01*
X82705936Y-45554810D01*
X82760326Y-45686118D01*
X82765488Y-45680957D01*
X83126446Y-45320000D01*
X83126446Y-45319999D01*
X83096610Y-45290163D01*
X83330000Y-45290163D01*
X83330000Y-45349837D01*
X83352836Y-45404968D01*
X83395032Y-45447164D01*
X83450163Y-45470000D01*
X83509837Y-45470000D01*
X83564968Y-45447164D01*
X83607164Y-45404968D01*
X83630000Y-45349837D01*
X83630000Y-45320000D01*
X83833554Y-45320000D01*
X83980000Y-45466446D01*
X84126446Y-45320000D01*
X84096609Y-45290163D01*
X84330000Y-45290163D01*
X84330000Y-45349837D01*
X84352836Y-45404968D01*
X84395032Y-45447164D01*
X84450163Y-45470000D01*
X84509837Y-45470000D01*
X84564968Y-45447164D01*
X84607164Y-45404968D01*
X84630000Y-45349837D01*
X84630000Y-45319999D01*
X84833554Y-45319999D01*
X84833554Y-45320001D01*
X85199672Y-45686119D01*
X85254064Y-45554806D01*
X85254065Y-45554804D01*
X85285000Y-45399288D01*
X85285000Y-45240711D01*
X85254065Y-45085195D01*
X85254063Y-45085189D01*
X85199672Y-44953879D01*
X84833554Y-45319999D01*
X84630000Y-45319999D01*
X84630000Y-45290163D01*
X84607164Y-45235032D01*
X84564968Y-45192836D01*
X84509837Y-45170000D01*
X84450163Y-45170000D01*
X84395032Y-45192836D01*
X84352836Y-45235032D01*
X84330000Y-45290163D01*
X84096609Y-45290163D01*
X83980000Y-45173554D01*
X83833554Y-45320000D01*
X83630000Y-45320000D01*
X83630000Y-45290163D01*
X83607164Y-45235032D01*
X83564968Y-45192836D01*
X83509837Y-45170000D01*
X83450163Y-45170000D01*
X83395032Y-45192836D01*
X83352836Y-45235032D01*
X83330000Y-45290163D01*
X83096610Y-45290163D01*
X82760326Y-44953879D01*
X82705937Y-45085185D01*
X82705934Y-45085195D01*
X82675000Y-45240711D01*
X82675000Y-45399288D01*
X82674999Y-45399288D01*
X71295007Y-45399288D01*
X71231012Y-45303513D01*
X71231011Y-45303512D01*
X71221791Y-45289714D01*
X71221786Y-45289707D01*
X71110292Y-45178213D01*
X71110288Y-45178210D01*
X70979185Y-45090609D01*
X70979172Y-45090602D01*
X70833501Y-45030264D01*
X70833489Y-45030261D01*
X70678845Y-44999500D01*
X70678842Y-44999500D01*
X70521158Y-44999500D01*
X70521155Y-44999500D01*
X70366510Y-45030261D01*
X70366498Y-45030264D01*
X70220827Y-45090602D01*
X70220814Y-45090609D01*
X70089711Y-45178210D01*
X70089707Y-45178213D01*
X69978213Y-45289707D01*
X69978210Y-45289711D01*
X69890609Y-45420814D01*
X69890602Y-45420827D01*
X69830264Y-45566498D01*
X69830261Y-45566510D01*
X69799500Y-45721153D01*
X56150500Y-45721153D01*
X56150500Y-44600326D01*
X83113879Y-44600326D01*
X83480000Y-44966446D01*
X83480001Y-44966446D01*
X83846119Y-44600326D01*
X84113879Y-44600326D01*
X84480000Y-44966446D01*
X84480001Y-44966446D01*
X84846119Y-44600326D01*
X84714810Y-44545936D01*
X84714804Y-44545934D01*
X84559288Y-44515000D01*
X84400712Y-44515000D01*
X84245195Y-44545934D01*
X84245185Y-44545937D01*
X84113879Y-44600326D01*
X83846119Y-44600326D01*
X83714810Y-44545936D01*
X83714804Y-44545934D01*
X83559288Y-44515000D01*
X83400712Y-44515000D01*
X83245195Y-44545934D01*
X83245185Y-44545937D01*
X83113879Y-44600326D01*
X56150500Y-44600326D01*
X56150500Y-44250154D01*
X56170185Y-44183115D01*
X56186819Y-44162473D01*
X61813473Y-38535819D01*
X61874796Y-38502334D01*
X61901154Y-38499500D01*
X63748903Y-38499500D01*
X63778343Y-38508144D01*
X63808330Y-38514668D01*
X63813345Y-38518422D01*
X63815942Y-38519185D01*
X63836584Y-38535819D01*
X63879064Y-38578299D01*
X63912549Y-38639622D01*
X63913000Y-38641788D01*
X63928340Y-38718907D01*
X63928343Y-38718917D01*
X63984912Y-38855488D01*
X63984919Y-38855501D01*
X64067048Y-38978415D01*
X64067051Y-38978419D01*
X64171580Y-39082948D01*
X64171588Y-39082954D01*
X64221616Y-39116382D01*
X64266422Y-39169994D01*
X64275129Y-39239319D01*
X64255829Y-39288374D01*
X64184918Y-39394500D01*
X64184912Y-39394511D01*
X64128343Y-39531082D01*
X64128340Y-39531092D01*
X64099500Y-39676079D01*
X64099500Y-39676082D01*
X64099500Y-39823918D01*
X64104279Y-39847942D01*
X64098051Y-39917534D01*
X64070344Y-39959813D01*
X64019544Y-40010614D01*
X63937417Y-40133525D01*
X63937410Y-40133538D01*
X63880841Y-40270109D01*
X63880838Y-40270119D01*
X63851998Y-40415106D01*
X63851998Y-40415109D01*
X63851998Y-40562945D01*
X63851998Y-40562947D01*
X63851997Y-40562947D01*
X63880838Y-40707934D01*
X63880841Y-40707944D01*
X63937410Y-40844515D01*
X63937417Y-40844528D01*
X64019546Y-40967442D01*
X64019549Y-40967446D01*
X64124078Y-41071975D01*
X64124082Y-41071978D01*
X64246996Y-41154107D01*
X64247009Y-41154114D01*
X64383580Y-41210683D01*
X64383585Y-41210685D01*
X64383589Y-41210685D01*
X64383590Y-41210686D01*
X64528577Y-41239527D01*
X64528580Y-41239527D01*
X64676418Y-41239527D01*
X64773960Y-41220123D01*
X64821411Y-41210685D01*
X64957993Y-41154111D01*
X65080914Y-41071978D01*
X65114218Y-41038673D01*
X65149092Y-41014162D01*
X65159103Y-41009450D01*
X65190260Y-41001102D01*
X65244916Y-40969546D01*
X65327191Y-40922045D01*
X65337819Y-40911417D01*
X65399142Y-40877932D01*
X65468834Y-40882916D01*
X65524767Y-40924788D01*
X65549184Y-40990252D01*
X65549500Y-40999098D01*
X65549500Y-41128846D01*
X65580261Y-41283489D01*
X65580264Y-41283501D01*
X65640602Y-41429172D01*
X65640609Y-41429185D01*
X65728210Y-41560288D01*
X65728213Y-41560292D01*
X65839707Y-41671786D01*
X65839711Y-41671789D01*
X65970814Y-41759390D01*
X65970827Y-41759397D01*
X66069621Y-41800318D01*
X66116503Y-41819737D01*
X66271153Y-41850499D01*
X66271156Y-41850500D01*
X66271158Y-41850500D01*
X66428844Y-41850500D01*
X66428845Y-41850499D01*
X66583497Y-41819737D01*
X66729179Y-41759394D01*
X66860289Y-41671789D01*
X66971789Y-41560289D01*
X67059394Y-41429179D01*
X67064469Y-41416928D01*
X67119735Y-41283501D01*
X67119737Y-41283497D01*
X67150500Y-41128842D01*
X67150500Y-40971158D01*
X67150500Y-40971155D01*
X67150499Y-40971153D01*
X67131956Y-40877932D01*
X67119737Y-40816503D01*
X67117142Y-40810238D01*
X67059397Y-40670827D01*
X67059390Y-40670814D01*
X66971398Y-40539125D01*
X66950520Y-40472447D01*
X66950500Y-40470234D01*
X66950500Y-40210098D01*
X66970185Y-40143059D01*
X66986819Y-40122417D01*
X67080520Y-40028716D01*
X67159577Y-39891784D01*
X67195002Y-39759577D01*
X67200500Y-39739058D01*
X67200500Y-39580943D01*
X67200500Y-38671153D01*
X70599500Y-38671153D01*
X70599500Y-38828846D01*
X70630261Y-38983489D01*
X70630264Y-38983501D01*
X70690602Y-39129172D01*
X70690609Y-39129185D01*
X70778210Y-39260288D01*
X70778213Y-39260292D01*
X70889707Y-39371786D01*
X70889711Y-39371789D01*
X71020814Y-39459390D01*
X71020827Y-39459397D01*
X71166498Y-39519735D01*
X71166503Y-39519737D01*
X71321153Y-39550499D01*
X71321156Y-39550500D01*
X71321158Y-39550500D01*
X71478844Y-39550500D01*
X71478845Y-39550499D01*
X71633497Y-39519737D01*
X71779179Y-39459394D01*
X71910289Y-39371789D01*
X72021789Y-39260289D01*
X72109394Y-39129179D01*
X72112183Y-39122447D01*
X72169735Y-38983501D01*
X72169737Y-38983497D01*
X72200500Y-38828842D01*
X72200500Y-38671158D01*
X72200500Y-38671155D01*
X72200499Y-38671153D01*
X72170270Y-38519185D01*
X72169737Y-38516503D01*
X72142191Y-38450000D01*
X72109397Y-38370827D01*
X72109390Y-38370814D01*
X72021789Y-38239711D01*
X72021786Y-38239707D01*
X71910292Y-38128213D01*
X71910288Y-38128210D01*
X71779185Y-38040609D01*
X71779172Y-38040602D01*
X71633501Y-37980264D01*
X71633489Y-37980261D01*
X71478845Y-37949500D01*
X71478842Y-37949500D01*
X71321158Y-37949500D01*
X71321155Y-37949500D01*
X71166510Y-37980261D01*
X71166498Y-37980264D01*
X71020827Y-38040602D01*
X71020814Y-38040609D01*
X70889711Y-38128210D01*
X70889707Y-38128213D01*
X70778213Y-38239707D01*
X70778210Y-38239711D01*
X70690609Y-38370814D01*
X70690602Y-38370827D01*
X70630264Y-38516498D01*
X70630261Y-38516510D01*
X70599500Y-38671153D01*
X67200500Y-38671153D01*
X67200500Y-37674837D01*
X67220185Y-37607798D01*
X67272989Y-37562043D01*
X67276986Y-37560302D01*
X67279179Y-37559394D01*
X67410289Y-37471789D01*
X67521789Y-37360289D01*
X67609394Y-37229179D01*
X67669737Y-37083497D01*
X67700500Y-36928842D01*
X67700500Y-36771158D01*
X67700500Y-36771155D01*
X67700499Y-36771153D01*
X67669737Y-36616503D01*
X67663166Y-36600638D01*
X67609397Y-36470827D01*
X67609390Y-36470814D01*
X67521789Y-36339711D01*
X67521786Y-36339707D01*
X67410292Y-36228213D01*
X67410288Y-36228210D01*
X67279185Y-36140609D01*
X67279172Y-36140602D01*
X67133501Y-36080264D01*
X67133489Y-36080261D01*
X66978845Y-36049500D01*
X66978842Y-36049500D01*
X66821158Y-36049500D01*
X66821155Y-36049500D01*
X66666510Y-36080261D01*
X66666498Y-36080264D01*
X66520827Y-36140602D01*
X66520814Y-36140609D01*
X66389711Y-36228210D01*
X66389707Y-36228213D01*
X66287681Y-36330240D01*
X66226358Y-36363725D01*
X66156666Y-36358741D01*
X66112319Y-36330240D01*
X66010292Y-36228213D01*
X66010288Y-36228210D01*
X65879185Y-36140609D01*
X65879172Y-36140602D01*
X65733501Y-36080264D01*
X65733489Y-36080261D01*
X65578845Y-36049500D01*
X65578842Y-36049500D01*
X65421158Y-36049500D01*
X65421155Y-36049500D01*
X65266510Y-36080261D01*
X65266498Y-36080264D01*
X65120827Y-36140602D01*
X65120814Y-36140609D01*
X64989711Y-36228210D01*
X64989707Y-36228213D01*
X64873903Y-36344018D01*
X64872442Y-36342557D01*
X64822468Y-36376587D01*
X64752624Y-36378447D01*
X64696698Y-36346263D01*
X64185693Y-35835258D01*
X90449500Y-35835258D01*
X90449500Y-36064741D01*
X90471023Y-36228213D01*
X90479452Y-36292238D01*
X90523535Y-36456761D01*
X90538842Y-36513887D01*
X90626650Y-36725876D01*
X90626657Y-36725890D01*
X90741392Y-36924617D01*
X90881081Y-37106661D01*
X90881089Y-37106670D01*
X91043330Y-37268911D01*
X91043338Y-37268918D01*
X91043339Y-37268919D01*
X91093962Y-37307764D01*
X91225382Y-37408607D01*
X91225385Y-37408608D01*
X91225388Y-37408611D01*
X91424112Y-37523344D01*
X91424117Y-37523346D01*
X91424123Y-37523349D01*
X91440871Y-37530286D01*
X91636113Y-37611158D01*
X91857762Y-37670548D01*
X92085266Y-37700500D01*
X92085273Y-37700500D01*
X92314727Y-37700500D01*
X92314734Y-37700500D01*
X92542238Y-37670548D01*
X92763887Y-37611158D01*
X92975888Y-37523344D01*
X93174612Y-37408611D01*
X93356661Y-37268919D01*
X93356665Y-37268914D01*
X93356670Y-37268911D01*
X93518911Y-37106670D01*
X93518914Y-37106665D01*
X93518919Y-37106661D01*
X93658611Y-36924612D01*
X93773344Y-36725888D01*
X93861158Y-36513887D01*
X93920548Y-36292238D01*
X93950500Y-36064734D01*
X93950500Y-35835266D01*
X93920548Y-35607762D01*
X93861158Y-35386113D01*
X93811190Y-35265480D01*
X93773349Y-35174123D01*
X93773346Y-35174117D01*
X93773344Y-35174112D01*
X93658611Y-34975388D01*
X93658608Y-34975385D01*
X93658607Y-34975382D01*
X93518918Y-34793338D01*
X93518911Y-34793330D01*
X93356670Y-34631089D01*
X93356661Y-34631081D01*
X93174617Y-34491392D01*
X92975890Y-34376657D01*
X92975876Y-34376650D01*
X92763887Y-34288842D01*
X92728846Y-34279453D01*
X92542238Y-34229452D01*
X92504215Y-34224446D01*
X92314741Y-34199500D01*
X92314734Y-34199500D01*
X92085266Y-34199500D01*
X92085258Y-34199500D01*
X91868715Y-34228009D01*
X91857762Y-34229452D01*
X91782941Y-34249500D01*
X91636112Y-34288842D01*
X91424123Y-34376650D01*
X91424109Y-34376657D01*
X91225382Y-34491392D01*
X91043338Y-34631081D01*
X90881081Y-34793338D01*
X90741392Y-34975382D01*
X90626657Y-35174109D01*
X90626650Y-35174123D01*
X90538842Y-35386112D01*
X90525445Y-35436112D01*
X90481269Y-35600983D01*
X90479453Y-35607759D01*
X90479451Y-35607770D01*
X90449500Y-35835258D01*
X64185693Y-35835258D01*
X64135774Y-35785339D01*
X64102289Y-35724016D01*
X64101838Y-35721849D01*
X64083795Y-35631147D01*
X64070937Y-35566503D01*
X64070935Y-35566498D01*
X64010597Y-35420827D01*
X64010590Y-35420814D01*
X63922989Y-35289711D01*
X63922986Y-35289707D01*
X63811492Y-35178213D01*
X63811488Y-35178210D01*
X63680385Y-35090609D01*
X63680372Y-35090602D01*
X63534701Y-35030264D01*
X63534689Y-35030261D01*
X63380045Y-34999500D01*
X63380042Y-34999500D01*
X63222358Y-34999500D01*
X63222355Y-34999500D01*
X63067710Y-35030261D01*
X63067698Y-35030264D01*
X62922027Y-35090602D01*
X62922014Y-35090609D01*
X62790911Y-35178210D01*
X62790907Y-35178213D01*
X62679413Y-35289707D01*
X62679410Y-35289711D01*
X62591809Y-35420814D01*
X62591802Y-35420827D01*
X62531464Y-35566498D01*
X62531461Y-35566510D01*
X62500700Y-35721153D01*
X62500700Y-35878846D01*
X62531461Y-36033489D01*
X62531464Y-36033501D01*
X62591802Y-36179172D01*
X62591809Y-36179185D01*
X62679410Y-36310288D01*
X62679413Y-36310292D01*
X62790907Y-36421786D01*
X62790911Y-36421789D01*
X62922014Y-36509390D01*
X62922027Y-36509397D01*
X63067698Y-36569735D01*
X63067703Y-36569737D01*
X63132347Y-36582595D01*
X63223049Y-36600638D01*
X63284960Y-36633023D01*
X63286539Y-36634574D01*
X63738784Y-37086819D01*
X63772269Y-37148142D01*
X63767285Y-37217834D01*
X63725413Y-37273767D01*
X63659949Y-37298184D01*
X63651103Y-37298500D01*
X61687726Y-37298500D01*
X61687710Y-37298499D01*
X61680114Y-37298499D01*
X61522000Y-37298499D01*
X61414644Y-37327265D01*
X61369267Y-37339424D01*
X61369266Y-37339425D01*
X61319153Y-37368359D01*
X61319152Y-37368360D01*
X61275746Y-37393420D01*
X61232342Y-37418479D01*
X61232339Y-37418481D01*
X55069481Y-43581339D01*
X55069479Y-43581342D01*
X55019361Y-43668151D01*
X55019359Y-43668153D01*
X54990425Y-43718266D01*
X54990424Y-43718267D01*
X54979572Y-43758768D01*
X54949499Y-43871000D01*
X54949499Y-43871002D01*
X54949499Y-44039103D01*
X54949500Y-44039116D01*
X54949500Y-45770234D01*
X54929815Y-45837273D01*
X54928602Y-45839125D01*
X54840609Y-45970814D01*
X54840602Y-45970827D01*
X54780264Y-46116498D01*
X54780261Y-46116510D01*
X54749500Y-46271153D01*
X54749500Y-46428846D01*
X54780261Y-46583489D01*
X54780264Y-46583501D01*
X54840602Y-46729172D01*
X54840609Y-46729185D01*
X54928602Y-46860874D01*
X54949480Y-46927551D01*
X54949500Y-46929765D01*
X54949500Y-47646349D01*
X54929815Y-47713388D01*
X54913181Y-47734030D01*
X54889376Y-47757834D01*
X54889373Y-47757837D01*
X54796295Y-47897139D01*
X54732184Y-48051917D01*
X54732182Y-48051925D01*
X54699500Y-48216228D01*
X54699500Y-48383771D01*
X54732182Y-48548074D01*
X54732184Y-48548082D01*
X54796295Y-48702860D01*
X54889372Y-48842160D01*
X54889373Y-48842161D01*
X54889374Y-48842162D01*
X54913181Y-48865969D01*
X54946666Y-48927290D01*
X54949500Y-48953650D01*
X54949500Y-49813330D01*
X54949499Y-49813348D01*
X54949499Y-49820943D01*
X54949499Y-49979057D01*
X54950575Y-49983072D01*
X54965596Y-50039131D01*
X54963933Y-50108981D01*
X54924770Y-50166843D01*
X54860542Y-50194347D01*
X54791640Y-50182760D01*
X54758140Y-50158905D01*
X53755178Y-49155943D01*
X53721693Y-49094620D01*
X53724927Y-49029946D01*
X53748402Y-48957701D01*
X53775500Y-48786611D01*
X53775500Y-48613389D01*
X53748402Y-48442299D01*
X53694873Y-48277555D01*
X53616232Y-48123212D01*
X53514414Y-47983072D01*
X53391928Y-47860586D01*
X53308975Y-47800317D01*
X53266311Y-47744988D01*
X53260332Y-47675374D01*
X53292938Y-47613579D01*
X53308976Y-47599682D01*
X53391928Y-47539414D01*
X53514414Y-47416928D01*
X53616232Y-47276788D01*
X53694873Y-47122445D01*
X53748402Y-46957701D01*
X53775500Y-46786611D01*
X53775500Y-46613389D01*
X53748402Y-46442299D01*
X53694873Y-46277555D01*
X53616232Y-46123212D01*
X53514414Y-45983072D01*
X53391928Y-45860586D01*
X53308975Y-45800317D01*
X53266311Y-45744988D01*
X53260332Y-45675374D01*
X53292938Y-45613579D01*
X53308976Y-45599682D01*
X53391928Y-45539414D01*
X53514414Y-45416928D01*
X53616232Y-45276788D01*
X53694873Y-45122445D01*
X53748402Y-44957701D01*
X53775500Y-44786611D01*
X53775500Y-44613389D01*
X53748402Y-44442299D01*
X53694873Y-44277555D01*
X53616232Y-44123212D01*
X53514414Y-43983072D01*
X53391928Y-43860586D01*
X53308550Y-43800008D01*
X53265885Y-43744677D01*
X53259906Y-43675064D01*
X53292512Y-43613269D01*
X53308552Y-43599371D01*
X53391598Y-43539036D01*
X53514032Y-43416602D01*
X53615804Y-43276524D01*
X53694408Y-43122255D01*
X53747914Y-42957584D01*
X53749115Y-42950000D01*
X52796410Y-42950000D01*
X52846037Y-42864044D01*
X52875000Y-42755952D01*
X52875000Y-42644048D01*
X52846037Y-42535956D01*
X52796410Y-42450000D01*
X53749115Y-42450000D01*
X53749115Y-42449999D01*
X53747914Y-42442415D01*
X53694408Y-42277744D01*
X53615804Y-42123475D01*
X53514032Y-41983397D01*
X53391602Y-41860967D01*
X53308551Y-41800628D01*
X53265885Y-41745298D01*
X53259906Y-41675685D01*
X53292511Y-41613889D01*
X53308551Y-41599991D01*
X53308976Y-41599682D01*
X53391928Y-41539414D01*
X53514414Y-41416928D01*
X53616232Y-41276788D01*
X53694873Y-41122445D01*
X53748402Y-40957701D01*
X53775500Y-40786611D01*
X53775500Y-40613389D01*
X53748402Y-40442299D01*
X53694873Y-40277555D01*
X53616232Y-40123212D01*
X53514414Y-39983072D01*
X53391928Y-39860586D01*
X53308975Y-39800317D01*
X53266311Y-39744988D01*
X53260332Y-39675374D01*
X53292938Y-39613579D01*
X53308976Y-39599682D01*
X53391928Y-39539414D01*
X53514414Y-39416928D01*
X53616232Y-39276788D01*
X53694873Y-39122445D01*
X53748402Y-38957701D01*
X53775500Y-38786611D01*
X53775500Y-38613389D01*
X53748402Y-38442299D01*
X53694873Y-38277555D01*
X53616232Y-38123212D01*
X53514414Y-37983072D01*
X53391928Y-37860586D01*
X53251788Y-37758768D01*
X53097445Y-37680127D01*
X52932701Y-37626598D01*
X52932699Y-37626597D01*
X52932698Y-37626597D01*
X52801271Y-37605781D01*
X52761611Y-37599500D01*
X52138389Y-37599500D01*
X52098728Y-37605781D01*
X51967302Y-37626597D01*
X51802552Y-37680128D01*
X51648211Y-37758768D01*
X51522461Y-37850132D01*
X51456654Y-37873612D01*
X51388600Y-37857787D01*
X51376690Y-37850132D01*
X51251528Y-37759198D01*
X51097257Y-37680591D01*
X50932584Y-37627085D01*
X50761571Y-37600000D01*
X50700000Y-37600000D01*
X50700000Y-38353590D01*
X50614044Y-38303963D01*
X50505952Y-38275000D01*
X50394048Y-38275000D01*
X50285956Y-38303963D01*
X50200000Y-38353590D01*
X50200000Y-37600000D01*
X50138429Y-37600000D01*
X49967415Y-37627085D01*
X49802742Y-37680591D01*
X49648475Y-37759195D01*
X49508397Y-37860967D01*
X49385967Y-37983397D01*
X49284195Y-38123475D01*
X49205591Y-38277744D01*
X49152085Y-38442415D01*
X49150884Y-38449999D01*
X49150885Y-38450000D01*
X50103590Y-38450000D01*
X50053963Y-38535956D01*
X50025000Y-38644048D01*
X50025000Y-38755952D01*
X50053963Y-38864044D01*
X50103590Y-38950000D01*
X49150885Y-38950000D01*
X49152085Y-38957584D01*
X49205591Y-39122255D01*
X49284195Y-39276524D01*
X49385967Y-39416602D01*
X49508399Y-39539034D01*
X49508404Y-39539038D01*
X49591873Y-39599682D01*
X49634539Y-39655012D01*
X49640518Y-39724625D01*
X49607912Y-39786420D01*
X49591873Y-39800318D01*
X49508404Y-39860961D01*
X49508399Y-39860965D01*
X49385967Y-39983397D01*
X49284195Y-40123475D01*
X49205591Y-40277744D01*
X49152085Y-40442415D01*
X49150884Y-40449999D01*
X49150885Y-40450000D01*
X50103590Y-40450000D01*
X50053963Y-40535956D01*
X50025000Y-40644048D01*
X50025000Y-40755952D01*
X50053963Y-40864044D01*
X50103590Y-40950000D01*
X49150885Y-40950000D01*
X49152085Y-40957584D01*
X49205591Y-41122255D01*
X49284195Y-41276524D01*
X49385967Y-41416602D01*
X49508399Y-41539034D01*
X49508404Y-41539038D01*
X49591873Y-41599682D01*
X49634539Y-41655012D01*
X49640518Y-41724625D01*
X49607912Y-41786420D01*
X49591873Y-41800318D01*
X49508404Y-41860961D01*
X49508399Y-41860965D01*
X49385967Y-41983397D01*
X49284195Y-42123475D01*
X49205591Y-42277744D01*
X49152085Y-42442415D01*
X49150884Y-42449999D01*
X49150885Y-42450000D01*
X50103590Y-42450000D01*
X50053963Y-42535956D01*
X50025000Y-42644048D01*
X50025000Y-42755952D01*
X50053963Y-42864044D01*
X50103590Y-42950000D01*
X49150885Y-42950000D01*
X49152085Y-42957584D01*
X49205591Y-43122255D01*
X49284195Y-43276524D01*
X49385967Y-43416602D01*
X49508401Y-43539036D01*
X49591447Y-43599371D01*
X49634114Y-43654701D01*
X49640093Y-43724314D01*
X49607488Y-43786109D01*
X49591450Y-43800007D01*
X49508072Y-43860585D01*
X49385588Y-43983069D01*
X49385588Y-43983070D01*
X49385586Y-43983072D01*
X49352132Y-44029117D01*
X49283768Y-44123211D01*
X49205128Y-44277552D01*
X49151597Y-44442302D01*
X49124500Y-44613389D01*
X49124500Y-44786610D01*
X49150992Y-44953879D01*
X49151598Y-44957701D01*
X49194780Y-45090602D01*
X49205128Y-45122447D01*
X49232572Y-45176311D01*
X49245467Y-45244980D01*
X49219190Y-45309720D01*
X49209767Y-45320285D01*
X44662181Y-49867872D01*
X44642744Y-49878484D01*
X44626011Y-49892985D01*
X44612679Y-49894901D01*
X44600858Y-49901357D01*
X44578771Y-49899777D01*
X44556853Y-49902929D01*
X44544601Y-49897333D01*
X44531166Y-49896373D01*
X44513439Y-49883102D01*
X44493297Y-49873904D01*
X44486014Y-49862572D01*
X44475233Y-49854501D01*
X44467495Y-49833755D01*
X44455523Y-49815126D01*
X44452371Y-49793207D01*
X44450816Y-49789037D01*
X44450500Y-49780191D01*
X44450500Y-49603650D01*
X44470185Y-49536611D01*
X44486815Y-49515972D01*
X44510626Y-49492162D01*
X44603703Y-49352863D01*
X44667816Y-49198082D01*
X44700500Y-49033767D01*
X44700500Y-48866233D01*
X44667816Y-48701918D01*
X44618227Y-48582201D01*
X44603704Y-48547139D01*
X44591478Y-48528842D01*
X44561175Y-48483489D01*
X44510626Y-48407837D01*
X44392162Y-48289373D01*
X44252860Y-48196295D01*
X44098082Y-48132184D01*
X44098074Y-48132182D01*
X43933771Y-48099500D01*
X43933767Y-48099500D01*
X43766233Y-48099500D01*
X43766228Y-48099500D01*
X43601925Y-48132182D01*
X43601917Y-48132184D01*
X43447139Y-48196295D01*
X43307837Y-48289373D01*
X43189373Y-48407837D01*
X43096295Y-48547139D01*
X43032184Y-48701917D01*
X43032182Y-48701925D01*
X42999500Y-48866228D01*
X39100500Y-48866228D01*
X39100500Y-36052561D01*
X39100606Y-36047437D01*
X39107313Y-35885272D01*
X39107314Y-35885258D01*
X42599500Y-35885258D01*
X42599500Y-36114741D01*
X42624446Y-36304215D01*
X42629452Y-36342238D01*
X42663907Y-36470827D01*
X42688842Y-36563887D01*
X42776650Y-36775876D01*
X42776656Y-36775888D01*
X42862524Y-36924617D01*
X42891392Y-36974617D01*
X43031081Y-37156661D01*
X43031089Y-37156670D01*
X43193330Y-37318911D01*
X43193338Y-37318918D01*
X43193339Y-37318919D01*
X43220063Y-37339425D01*
X43375382Y-37458607D01*
X43375385Y-37458608D01*
X43375388Y-37458611D01*
X43574112Y-37573344D01*
X43574117Y-37573346D01*
X43574123Y-37573349D01*
X43619110Y-37591983D01*
X43786113Y-37661158D01*
X44007762Y-37720548D01*
X44235266Y-37750500D01*
X44235273Y-37750500D01*
X44464727Y-37750500D01*
X44464734Y-37750500D01*
X44692238Y-37720548D01*
X44913887Y-37661158D01*
X45125888Y-37573344D01*
X45324612Y-37458611D01*
X45506661Y-37318919D01*
X45506665Y-37318914D01*
X45506670Y-37318911D01*
X45668911Y-37156670D01*
X45668914Y-37156665D01*
X45668919Y-37156661D01*
X45808611Y-36974612D01*
X45923344Y-36775888D01*
X46011158Y-36563887D01*
X46070548Y-36342238D01*
X46100500Y-36114734D01*
X46100500Y-35885266D01*
X46070548Y-35657762D01*
X46011158Y-35436113D01*
X45950516Y-35289711D01*
X45923349Y-35224123D01*
X45923346Y-35224117D01*
X45923344Y-35224112D01*
X45808611Y-35025388D01*
X45808608Y-35025385D01*
X45808607Y-35025382D01*
X45668918Y-34843338D01*
X45668911Y-34843330D01*
X45506670Y-34681089D01*
X45506661Y-34681081D01*
X45324617Y-34541392D01*
X45125890Y-34426657D01*
X45125876Y-34426650D01*
X44913887Y-34338842D01*
X44692238Y-34279452D01*
X44654215Y-34274446D01*
X44464741Y-34249500D01*
X44464734Y-34249500D01*
X44235266Y-34249500D01*
X44235258Y-34249500D01*
X44018715Y-34278009D01*
X44007762Y-34279452D01*
X43972718Y-34288842D01*
X43786112Y-34338842D01*
X43574123Y-34426650D01*
X43574109Y-34426657D01*
X43375382Y-34541392D01*
X43193338Y-34681081D01*
X43031081Y-34843338D01*
X42891392Y-35025382D01*
X42776657Y-35224109D01*
X42776650Y-35224123D01*
X42688842Y-35436112D01*
X42688842Y-35436113D01*
X42653905Y-35566503D01*
X42629453Y-35657759D01*
X42629451Y-35657770D01*
X42599500Y-35885258D01*
X39107314Y-35885258D01*
X39119072Y-35600961D01*
X39119915Y-35590792D01*
X39174874Y-35149881D01*
X39176554Y-35139809D01*
X39267734Y-34704951D01*
X39270241Y-34695055D01*
X39397022Y-34269205D01*
X39400336Y-34259553D01*
X39561840Y-33845654D01*
X39565954Y-33836275D01*
X39761088Y-33437120D01*
X39765949Y-33428136D01*
X39993389Y-33046445D01*
X39998982Y-33037885D01*
X40257153Y-32676294D01*
X40263422Y-32668240D01*
X40550581Y-32329191D01*
X40557500Y-32321675D01*
X40871675Y-32007500D01*
X40879191Y-32000581D01*
X41218240Y-31713422D01*
X41226294Y-31707153D01*
X41587885Y-31448982D01*
X41596445Y-31443389D01*
X41978136Y-31215949D01*
X41987120Y-31211088D01*
X42386280Y-31015951D01*
X42395654Y-31011840D01*
X42809553Y-30850336D01*
X42819205Y-30847022D01*
X43245055Y-30720241D01*
X43254951Y-30717734D01*
X43689809Y-30626554D01*
X43699881Y-30624874D01*
X44140792Y-30569915D01*
X44150961Y-30569072D01*
X44597437Y-30550605D01*
X44602561Y-30550500D01*
X44665892Y-30550500D01*
X92434108Y-30550500D01*
X92497439Y-30550500D01*
X92502562Y-30550605D01*
G37*
%TD.AperFunction*%
%TD*%
M02*
