%TF.GenerationSoftware,KiCad,Pcbnew,9.0.0*%
%TF.CreationDate,2025-06-18T14:50:30-07:00*%
%TF.ProjectId,muon_pcb,6d756f6e-5f70-4636-922e-6b696361645f,rev?*%
%TF.SameCoordinates,Original*%
%TF.FileFunction,Copper,L3,Inr*%
%TF.FilePolarity,Positive*%
%FSLAX46Y46*%
G04 Gerber Fmt 4.6, Leading zero omitted, Abs format (unit mm)*
G04 Created by KiCad (PCBNEW 9.0.0) date 2025-06-18 14:50:30*
%MOMM*%
%LPD*%
G01*
G04 APERTURE LIST*
G04 Aperture macros list*
%AMRoundRect*
0 Rectangle with rounded corners*
0 $1 Rounding radius*
0 $2 $3 $4 $5 $6 $7 $8 $9 X,Y pos of 4 corners*
0 Add a 4 corners polygon primitive as box body*
4,1,4,$2,$3,$4,$5,$6,$7,$8,$9,$2,$3,0*
0 Add four circle primitives for the rounded corners*
1,1,$1+$1,$2,$3*
1,1,$1+$1,$4,$5*
1,1,$1+$1,$6,$7*
1,1,$1+$1,$8,$9*
0 Add four rect primitives between the rounded corners*
20,1,$1+$1,$2,$3,$4,$5,0*
20,1,$1+$1,$4,$5,$6,$7,0*
20,1,$1+$1,$6,$7,$8,$9,0*
20,1,$1+$1,$8,$9,$2,$3,0*%
G04 Aperture macros list end*
%TA.AperFunction,ComponentPad*%
%ADD10C,2.300000*%
%TD*%
%TA.AperFunction,ComponentPad*%
%ADD11C,2.600000*%
%TD*%
%TA.AperFunction,ComponentPad*%
%ADD12C,5.000000*%
%TD*%
%TA.AperFunction,ComponentPad*%
%ADD13R,1.000000X1.000000*%
%TD*%
%TA.AperFunction,ComponentPad*%
%ADD14O,1.000000X1.000000*%
%TD*%
%TA.AperFunction,ComponentPad*%
%ADD15RoundRect,0.250000X0.575000X-0.350000X0.575000X0.350000X-0.575000X0.350000X-0.575000X-0.350000X0*%
%TD*%
%TA.AperFunction,ComponentPad*%
%ADD16O,1.650000X1.200000*%
%TD*%
%TA.AperFunction,HeatsinkPad*%
%ADD17C,0.600000*%
%TD*%
%TA.AperFunction,ComponentPad*%
%ADD18O,1.800000X1.400000*%
%TD*%
%TA.AperFunction,ComponentPad*%
%ADD19C,2.050000*%
%TD*%
%TA.AperFunction,ComponentPad*%
%ADD20C,2.250000*%
%TD*%
%TA.AperFunction,ComponentPad*%
%ADD21R,2.000000X2.000000*%
%TD*%
%TA.AperFunction,ComponentPad*%
%ADD22C,2.000000*%
%TD*%
%TA.AperFunction,ComponentPad*%
%ADD23RoundRect,0.250000X0.350000X0.575000X-0.350000X0.575000X-0.350000X-0.575000X0.350000X-0.575000X0*%
%TD*%
%TA.AperFunction,ComponentPad*%
%ADD24O,1.200000X1.650000*%
%TD*%
%TA.AperFunction,ViaPad*%
%ADD25C,0.600000*%
%TD*%
%TA.AperFunction,ViaPad*%
%ADD26C,1.200000*%
%TD*%
%TA.AperFunction,ViaPad*%
%ADD27C,0.450000*%
%TD*%
%TA.AperFunction,ViaPad*%
%ADD28C,2.000000*%
%TD*%
%TA.AperFunction,ViaPad*%
%ADD29C,1.000000*%
%TD*%
%TA.AperFunction,ViaPad*%
%ADD30C,0.800000*%
%TD*%
%TA.AperFunction,ViaPad*%
%ADD31C,1.600000*%
%TD*%
G04 APERTURE END LIST*
D10*
%TO.N,/Sensors/VBACKUP*%
%TO.C,BT1*%
X164590000Y-117850000D03*
X167690000Y-117850000D03*
X164590000Y-97050000D03*
X167690000Y-97050000D03*
%TD*%
D11*
%TO.N,GPS VCC*%
%TO.C,TP3*%
X152650000Y-89200000D03*
%TD*%
%TO.N,RP2040 Reset*%
%TO.C,TP1*%
X107110000Y-73170000D03*
%TD*%
D12*
%TO.N,N/C*%
%TO.C,H2*%
X176503280Y-143650755D03*
%TD*%
D13*
%TO.N,RP2040 Reset*%
%TO.C,J9*%
X108625000Y-67710000D03*
D14*
%TO.N,SWCLK*%
X109895000Y-67710000D03*
%TO.N,GND*%
X108625000Y-68980000D03*
%TO.N,SWD*%
X109895000Y-68980000D03*
%TD*%
D15*
%TO.N,GND*%
%TO.C,J8*%
X114410000Y-120890000D03*
D16*
X116410000Y-120890000D03*
%TO.N,SDA0*%
X114410000Y-118890000D03*
%TO.N,SCL0*%
X116410000Y-118890000D03*
%TO.N,PAYLOAD_BATT*%
X114410000Y-116890000D03*
X116410000Y-116890000D03*
%TO.N,UART0 Rx*%
X114410000Y-114890000D03*
%TO.N,UART0 Tx*%
X116410000Y-114890000D03*
%TO.N,GND*%
X114410000Y-112890000D03*
X116410000Y-112890000D03*
%TO.N,PAYLOAD_PWR*%
X114410000Y-110890000D03*
X116410000Y-110890000D03*
%TD*%
D17*
%TO.N,GND*%
%TO.C,U15*%
X137350000Y-74720000D03*
X137350000Y-75720000D03*
%TD*%
D12*
%TO.N,N/C*%
%TO.C,H1*%
X96503280Y-143650755D03*
%TD*%
D11*
%TO.N,PAYLOAD_PWR*%
%TO.C,TP5*%
X151790000Y-108520000D03*
%TD*%
D18*
%TO.N,GND*%
%TO.C,J12*%
X99400000Y-89120000D03*
X99400000Y-97020000D03*
%TD*%
D11*
%TO.N,Net-(D4-K)*%
%TO.C,TP2*%
X126660000Y-99160000D03*
%TD*%
D19*
%TO.N,Net-(J2-In)*%
%TO.C,J2*%
X171010000Y-70520000D03*
D20*
%TO.N,GND*%
X168470000Y-67980000D03*
X168470000Y-73060000D03*
X173550000Y-67980000D03*
X173550000Y-73060000D03*
%TD*%
D11*
%TO.N,+5V*%
%TO.C,TP7*%
X101640000Y-120730000D03*
%TD*%
D21*
%TO.N,+5V*%
%TO.C,J6*%
X108300000Y-96520000D03*
D22*
%TO.N,Net-(J12-VBUS)*%
X105760000Y-96520000D03*
%TD*%
D23*
%TO.N,+5V*%
%TO.C,J3*%
X116760000Y-104230000D03*
D24*
X116760000Y-106230000D03*
%TO.N,GND*%
X114760000Y-104230000D03*
X114760000Y-106230000D03*
%TD*%
D19*
%TO.N,Cosmic Analog*%
%TO.C,J1*%
X102120000Y-80790000D03*
D20*
%TO.N,GND*%
X99580000Y-78250000D03*
X99580000Y-83330000D03*
X104660000Y-78250000D03*
X104660000Y-83330000D03*
%TD*%
D25*
%TO.N,GND*%
X115420000Y-78120000D03*
D26*
X110460000Y-105780000D03*
D27*
X108090000Y-78960000D03*
D28*
X173120000Y-107540000D03*
X158620000Y-107480000D03*
D27*
X118690000Y-72130000D03*
D29*
X170280000Y-129050000D03*
D30*
X112080000Y-73410000D03*
D29*
X158330000Y-126010000D03*
D30*
X162320000Y-96070000D03*
X166560000Y-90520000D03*
D25*
X113240000Y-81870000D03*
D26*
X99230000Y-99530000D03*
D27*
X113742500Y-88032500D03*
D30*
X158100000Y-74330000D03*
X151680000Y-93300000D03*
D27*
X116800000Y-70000000D03*
D25*
X115590000Y-81870000D03*
D27*
X107250000Y-83390000D03*
D25*
X121870000Y-79050000D03*
D26*
X100430000Y-110880000D03*
D28*
X166140000Y-99970000D03*
D30*
X133690000Y-86340000D03*
X111110000Y-72850000D03*
D27*
X113530000Y-70440000D03*
D30*
X148000000Y-100920000D03*
D25*
X120900000Y-91620000D03*
X168500000Y-94700000D03*
D27*
X118820000Y-73920000D03*
D25*
X119930000Y-97100000D03*
D27*
X109340000Y-86320000D03*
D30*
X168590000Y-77800000D03*
D27*
X118660000Y-71290000D03*
D26*
X108090000Y-121500000D03*
D25*
X113450000Y-65540000D03*
X99240000Y-125460000D03*
D30*
X159600000Y-93760000D03*
D25*
X113290000Y-79510000D03*
D29*
X103800000Y-91350000D03*
D25*
X135420000Y-75970000D03*
D27*
X114720000Y-88780000D03*
X112910000Y-71110000D03*
D25*
X149040000Y-92410000D03*
D26*
X102000000Y-114010000D03*
D30*
X129610000Y-73020000D03*
X152640000Y-94520000D03*
D28*
X114422500Y-80690000D03*
D25*
X140670000Y-75430000D03*
D27*
X113620000Y-73490000D03*
X108260000Y-85340000D03*
D25*
X151780000Y-104820000D03*
D30*
X99140000Y-128290000D03*
D25*
X124600000Y-85130000D03*
D30*
X111970000Y-98200000D03*
D25*
X120010000Y-65540000D03*
D27*
X139200000Y-75470000D03*
D26*
X101400000Y-116870000D03*
D27*
X108150000Y-84360000D03*
D28*
X166140000Y-114700000D03*
X166090000Y-107450000D03*
D25*
X119820000Y-101200000D03*
D30*
X170270000Y-134430000D03*
D25*
X115600000Y-79500000D03*
D27*
X118020000Y-70390000D03*
X114460000Y-69940000D03*
X116020000Y-74710000D03*
D25*
X121410000Y-83830000D03*
D27*
%TO.N,/RP2040 MCU/QSPI_SD1*%
X120847500Y-88007500D03*
X122412500Y-88632500D03*
%TO.N,/RP2040 MCU/QSPI_SD2*%
X116347500Y-85067500D03*
X122442500Y-87367500D03*
D25*
%TO.N,SDA0*%
X132760000Y-114810000D03*
D27*
X132780000Y-89870000D03*
D25*
%TO.N,SCL0*%
X133780000Y-115430000D03*
D27*
X133680000Y-89490000D03*
X132520000Y-88330000D03*
X133680000Y-90570000D03*
%TO.N,GPS Reset*%
X158090000Y-90510000D03*
X137700000Y-84030000D03*
%TO.N,UART0 Rx*%
X118900000Y-76760000D03*
X136000000Y-102150000D03*
D25*
%TO.N,PAYLOAD_PWR*%
X128440000Y-90310000D03*
X113630000Y-68430000D03*
X120680000Y-84630000D03*
X121210000Y-79930000D03*
X130030000Y-74250000D03*
X117380000Y-91320000D03*
X108910000Y-82320000D03*
X139210000Y-73190000D03*
X113710000Y-75410000D03*
X132860000Y-76910000D03*
D30*
X174330000Y-132630000D03*
D25*
X157000000Y-116280000D03*
X148660000Y-102020000D03*
D30*
X173880000Y-126840000D03*
D25*
X145450000Y-100760000D03*
X127840000Y-73600000D03*
D31*
X107520000Y-105290000D03*
D25*
X112760000Y-87840000D03*
X110950000Y-85300000D03*
X109610000Y-77880000D03*
D29*
X143910000Y-61220000D03*
D31*
X109790000Y-100170000D03*
D25*
X106420000Y-128430000D03*
D30*
X170490000Y-126870000D03*
D25*
X150310000Y-100660000D03*
X133460000Y-87830000D03*
X126840000Y-88410000D03*
D27*
%TO.N,UART0 Tx*%
X118840000Y-77470000D03*
X135399000Y-103751000D03*
D25*
%TO.N,USB_D+*%
X108553502Y-88580000D03*
X104599479Y-92509479D03*
%TO.N,USB_D-*%
X105200521Y-93110521D03*
X109230000Y-87760000D03*
D27*
%TO.N,MicroSD CS*%
X131335000Y-89345000D03*
X123310000Y-82690000D03*
%TO.N,SCL1*%
X134160000Y-79020000D03*
X134160000Y-77370000D03*
%TO.N,SDA1*%
X135370000Y-79030000D03*
X130255000Y-75525000D03*
X135410000Y-74470000D03*
X132560000Y-73790000D03*
%TD*%
%TA.AperFunction,Conductor*%
%TO.N,PAYLOAD_PWR*%
G36*
X116013963Y-110725956D02*
G01*
X115985000Y-110834048D01*
X115985000Y-110945952D01*
X116013963Y-111054044D01*
X116063590Y-111140000D01*
X114756410Y-111140000D01*
X114806037Y-111054044D01*
X114835000Y-110945952D01*
X114835000Y-110834048D01*
X114806037Y-110725956D01*
X114756410Y-110640000D01*
X116063590Y-110640000D01*
X116013963Y-110725956D01*
G37*
%TD.AperFunction*%
%TA.AperFunction,Conductor*%
G36*
X177492272Y-53429557D02*
G01*
X177559257Y-53449427D01*
X177587339Y-53474354D01*
X180288311Y-56728060D01*
X180317390Y-56763089D01*
X180345064Y-56827245D01*
X180345980Y-56842291D01*
X180345980Y-62896342D01*
X180326295Y-62963381D01*
X180309661Y-62984023D01*
X175467567Y-67826116D01*
X175462912Y-67829937D01*
X175400024Y-67892825D01*
X175369500Y-67966516D01*
X175369500Y-133429883D01*
X175400024Y-133503574D01*
X175456426Y-133559976D01*
X175456429Y-133559977D01*
X175463527Y-133564720D01*
X175482316Y-133580141D01*
X180309661Y-138407486D01*
X180343146Y-138468809D01*
X180345980Y-138495167D01*
X180345980Y-143697500D01*
X180344051Y-143719287D01*
X180280582Y-144074893D01*
X180278228Y-144085414D01*
X180180029Y-144449294D01*
X180176771Y-144459570D01*
X180047331Y-144813561D01*
X180043192Y-144823515D01*
X179883502Y-145164912D01*
X179878514Y-145174470D01*
X179689769Y-145500711D01*
X179683970Y-145509799D01*
X179467601Y-145818417D01*
X179461034Y-145826967D01*
X179218682Y-146115617D01*
X179211398Y-146123564D01*
X178944885Y-146390079D01*
X178936937Y-146397363D01*
X178648285Y-146639719D01*
X178639735Y-146646286D01*
X178331115Y-146862660D01*
X178322027Y-146868459D01*
X177995797Y-147057199D01*
X177986240Y-147062187D01*
X177644840Y-147221883D01*
X177634885Y-147226022D01*
X177280905Y-147355459D01*
X177270629Y-147358718D01*
X176906740Y-147456922D01*
X176896220Y-147459276D01*
X176540732Y-147522726D01*
X176518944Y-147524655D01*
X96597752Y-147524655D01*
X96584813Y-147524653D01*
X96583385Y-147524086D01*
X96545522Y-147524647D01*
X96544580Y-147524647D01*
X96544475Y-147524616D01*
X96540607Y-147524583D01*
X96184209Y-147513104D01*
X96172588Y-147512181D01*
X95821761Y-147467654D01*
X95810278Y-147465644D01*
X95465183Y-147388368D01*
X95453940Y-147385289D01*
X95117629Y-147275948D01*
X95106724Y-147271827D01*
X94782153Y-147131380D01*
X94771683Y-147126252D01*
X94461744Y-146955950D01*
X94451803Y-146949862D01*
X94159235Y-146751213D01*
X94149909Y-146744219D01*
X93877274Y-146518961D01*
X93868646Y-146511121D01*
X93618383Y-146261268D01*
X93610529Y-146252653D01*
X93384829Y-145980396D01*
X93377819Y-145971082D01*
X93178673Y-145678817D01*
X93172581Y-145668904D01*
X93001765Y-145359237D01*
X92996624Y-145348783D01*
X92926276Y-145186940D01*
X92855643Y-145024441D01*
X92851506Y-145013546D01*
X92753119Y-144712610D01*
X92746980Y-144674077D01*
X92746980Y-143501901D01*
X93852780Y-143501901D01*
X93852780Y-143799608D01*
X93886110Y-144095417D01*
X93886112Y-144095429D01*
X93952356Y-144385667D01*
X93952359Y-144385675D01*
X94050680Y-144666659D01*
X94179843Y-144934869D01*
X94179845Y-144934872D01*
X94338230Y-145186940D01*
X94523842Y-145419689D01*
X94734346Y-145630193D01*
X94967095Y-145815805D01*
X95219163Y-145974190D01*
X95487379Y-146103356D01*
X95698415Y-146177200D01*
X95768359Y-146201675D01*
X95768367Y-146201678D01*
X95768370Y-146201678D01*
X95768371Y-146201679D01*
X96058605Y-146267923D01*
X96354427Y-146301254D01*
X96354428Y-146301255D01*
X96354431Y-146301255D01*
X96652132Y-146301255D01*
X96652132Y-146301254D01*
X96947955Y-146267923D01*
X97238189Y-146201679D01*
X97519181Y-146103356D01*
X97787397Y-145974190D01*
X98039465Y-145815805D01*
X98272214Y-145630193D01*
X98482718Y-145419689D01*
X98668330Y-145186940D01*
X98826715Y-144934872D01*
X98955881Y-144666656D01*
X99054204Y-144385664D01*
X99120448Y-144095430D01*
X99153780Y-143799604D01*
X99153780Y-143501906D01*
X99153779Y-143501901D01*
X173852780Y-143501901D01*
X173852780Y-143799608D01*
X173886110Y-144095417D01*
X173886112Y-144095429D01*
X173952356Y-144385667D01*
X173952359Y-144385675D01*
X174050680Y-144666659D01*
X174179843Y-144934869D01*
X174179845Y-144934872D01*
X174338230Y-145186940D01*
X174523842Y-145419689D01*
X174734346Y-145630193D01*
X174967095Y-145815805D01*
X175219163Y-145974190D01*
X175487379Y-146103356D01*
X175698415Y-146177200D01*
X175768359Y-146201675D01*
X175768367Y-146201678D01*
X175768370Y-146201678D01*
X175768371Y-146201679D01*
X176058605Y-146267923D01*
X176354427Y-146301254D01*
X176354428Y-146301255D01*
X176354431Y-146301255D01*
X176652132Y-146301255D01*
X176652132Y-146301254D01*
X176947955Y-146267923D01*
X177238189Y-146201679D01*
X177519181Y-146103356D01*
X177787397Y-145974190D01*
X178039465Y-145815805D01*
X178272214Y-145630193D01*
X178482718Y-145419689D01*
X178668330Y-145186940D01*
X178826715Y-144934872D01*
X178955881Y-144666656D01*
X179054204Y-144385664D01*
X179120448Y-144095430D01*
X179153780Y-143799604D01*
X179153780Y-143501906D01*
X179120448Y-143206080D01*
X179054204Y-142915846D01*
X178955881Y-142634854D01*
X178826715Y-142366638D01*
X178668330Y-142114570D01*
X178482718Y-141881821D01*
X178272214Y-141671317D01*
X178039465Y-141485705D01*
X177787397Y-141327320D01*
X177787394Y-141327318D01*
X177519184Y-141198155D01*
X177238200Y-141099834D01*
X177238192Y-141099831D01*
X177020513Y-141050148D01*
X176947955Y-141033587D01*
X176947951Y-141033586D01*
X176947942Y-141033585D01*
X176652133Y-141000255D01*
X176652129Y-141000255D01*
X176354431Y-141000255D01*
X176354426Y-141000255D01*
X176058617Y-141033585D01*
X176058605Y-141033587D01*
X175768367Y-141099831D01*
X175768359Y-141099834D01*
X175487375Y-141198155D01*
X175219165Y-141327318D01*
X174967096Y-141485704D01*
X174734346Y-141671316D01*
X174523841Y-141881821D01*
X174338229Y-142114571D01*
X174179843Y-142366640D01*
X174050680Y-142634850D01*
X173952359Y-142915834D01*
X173952356Y-142915842D01*
X173886112Y-143206080D01*
X173886110Y-143206092D01*
X173852780Y-143501901D01*
X99153779Y-143501901D01*
X99120448Y-143206080D01*
X99054204Y-142915846D01*
X98955881Y-142634854D01*
X98826715Y-142366638D01*
X98668330Y-142114570D01*
X98482718Y-141881821D01*
X98272214Y-141671317D01*
X98039465Y-141485705D01*
X97787397Y-141327320D01*
X97787394Y-141327318D01*
X97519184Y-141198155D01*
X97238200Y-141099834D01*
X97238192Y-141099831D01*
X97020513Y-141050148D01*
X96947955Y-141033587D01*
X96947951Y-141033586D01*
X96947942Y-141033585D01*
X96652133Y-141000255D01*
X96652129Y-141000255D01*
X96354431Y-141000255D01*
X96354426Y-141000255D01*
X96058617Y-141033585D01*
X96058605Y-141033587D01*
X95768367Y-141099831D01*
X95768359Y-141099834D01*
X95487375Y-141198155D01*
X95219165Y-141327318D01*
X94967096Y-141485704D01*
X94734346Y-141671316D01*
X94523841Y-141881821D01*
X94338229Y-142114571D01*
X94179843Y-142366640D01*
X94050680Y-142634850D01*
X93952359Y-142915834D01*
X93952356Y-142915842D01*
X93886112Y-143206080D01*
X93886110Y-143206092D01*
X93852780Y-143501901D01*
X92746980Y-143501901D01*
X92746980Y-138495167D01*
X92766665Y-138428128D01*
X92783299Y-138407486D01*
X96833260Y-134357525D01*
X169719500Y-134357525D01*
X169719500Y-134502475D01*
X169757016Y-134642485D01*
X169757017Y-134642488D01*
X169829488Y-134768011D01*
X169829490Y-134768013D01*
X169829491Y-134768015D01*
X169931985Y-134870509D01*
X169931986Y-134870510D01*
X169931988Y-134870511D01*
X170057511Y-134942982D01*
X170057512Y-134942982D01*
X170057515Y-134942984D01*
X170197525Y-134980500D01*
X170197528Y-134980500D01*
X170342472Y-134980500D01*
X170342475Y-134980500D01*
X170482485Y-134942984D01*
X170608015Y-134870509D01*
X170710509Y-134768015D01*
X170782984Y-134642485D01*
X170820500Y-134502475D01*
X170820500Y-134357525D01*
X170782984Y-134217515D01*
X170710509Y-134091985D01*
X170608015Y-133989491D01*
X170608013Y-133989490D01*
X170608011Y-133989488D01*
X170482488Y-133917017D01*
X170482489Y-133917017D01*
X170471006Y-133913940D01*
X170342475Y-133879500D01*
X170197525Y-133879500D01*
X170068993Y-133913940D01*
X170057511Y-133917017D01*
X169931988Y-133989488D01*
X169931982Y-133989493D01*
X169829493Y-134091982D01*
X169829488Y-134091988D01*
X169757017Y-134217511D01*
X169757016Y-134217515D01*
X169719500Y-134357525D01*
X96833260Y-134357525D01*
X96929068Y-134261717D01*
X97273769Y-133917016D01*
X97693256Y-133497529D01*
X97723780Y-133423837D01*
X97723780Y-133344073D01*
X97723780Y-129114071D01*
X169629499Y-129114071D01*
X169654497Y-129239738D01*
X169654499Y-129239744D01*
X169703533Y-129358124D01*
X169703538Y-129358133D01*
X169774723Y-129464668D01*
X169774726Y-129464672D01*
X169865327Y-129555273D01*
X169865331Y-129555276D01*
X169971866Y-129626461D01*
X169971872Y-129626464D01*
X169971873Y-129626465D01*
X170090256Y-129675501D01*
X170090260Y-129675501D01*
X170090261Y-129675502D01*
X170215928Y-129700500D01*
X170215931Y-129700500D01*
X170344071Y-129700500D01*
X170428615Y-129683682D01*
X170469744Y-129675501D01*
X170588127Y-129626465D01*
X170694669Y-129555276D01*
X170785276Y-129464669D01*
X170856465Y-129358127D01*
X170905501Y-129239744D01*
X170930500Y-129114069D01*
X170930500Y-128985931D01*
X170930500Y-128985928D01*
X170905502Y-128860261D01*
X170905501Y-128860260D01*
X170905501Y-128860256D01*
X170856465Y-128741873D01*
X170856464Y-128741872D01*
X170856461Y-128741866D01*
X170785276Y-128635331D01*
X170785273Y-128635327D01*
X170694672Y-128544726D01*
X170694668Y-128544723D01*
X170588133Y-128473538D01*
X170588124Y-128473533D01*
X170469744Y-128424499D01*
X170469738Y-128424497D01*
X170344071Y-128399500D01*
X170344069Y-128399500D01*
X170215931Y-128399500D01*
X170215929Y-128399500D01*
X170090261Y-128424497D01*
X170090255Y-128424499D01*
X169971875Y-128473533D01*
X169971866Y-128473538D01*
X169865331Y-128544723D01*
X169865327Y-128544726D01*
X169774726Y-128635327D01*
X169774723Y-128635331D01*
X169703538Y-128741866D01*
X169703533Y-128741875D01*
X169654499Y-128860255D01*
X169654497Y-128860261D01*
X169629500Y-128985928D01*
X169629500Y-128985931D01*
X169629500Y-129114069D01*
X169629500Y-129114071D01*
X169629499Y-129114071D01*
X97723780Y-129114071D01*
X97723780Y-128217525D01*
X98589500Y-128217525D01*
X98589500Y-128362475D01*
X98619259Y-128473535D01*
X98627017Y-128502488D01*
X98699488Y-128628011D01*
X98699490Y-128628013D01*
X98699491Y-128628015D01*
X98801985Y-128730509D01*
X98801986Y-128730510D01*
X98801988Y-128730511D01*
X98927511Y-128802982D01*
X98927512Y-128802982D01*
X98927515Y-128802984D01*
X99067525Y-128840500D01*
X99067528Y-128840500D01*
X99212472Y-128840500D01*
X99212475Y-128840500D01*
X99352485Y-128802984D01*
X99478015Y-128730509D01*
X99580509Y-128628015D01*
X99652984Y-128502485D01*
X99690500Y-128362475D01*
X99690500Y-128217525D01*
X99652984Y-128077515D01*
X99580509Y-127951985D01*
X99478015Y-127849491D01*
X99478013Y-127849490D01*
X99478011Y-127849488D01*
X99352488Y-127777017D01*
X99352489Y-127777017D01*
X99341006Y-127773940D01*
X99212475Y-127739500D01*
X99067525Y-127739500D01*
X98938993Y-127773940D01*
X98927511Y-127777017D01*
X98801988Y-127849488D01*
X98801982Y-127849493D01*
X98699493Y-127951982D01*
X98699488Y-127951988D01*
X98627017Y-128077511D01*
X98627016Y-128077515D01*
X98589500Y-128217525D01*
X97723780Y-128217525D01*
X97723780Y-126074071D01*
X157679499Y-126074071D01*
X157704497Y-126199738D01*
X157704499Y-126199744D01*
X157753533Y-126318124D01*
X157753538Y-126318133D01*
X157824723Y-126424668D01*
X157824726Y-126424672D01*
X157915327Y-126515273D01*
X157915331Y-126515276D01*
X158021866Y-126586461D01*
X158021872Y-126586464D01*
X158021873Y-126586465D01*
X158140256Y-126635501D01*
X158140260Y-126635501D01*
X158140261Y-126635502D01*
X158265928Y-126660500D01*
X158265931Y-126660500D01*
X158394071Y-126660500D01*
X158478615Y-126643682D01*
X158519744Y-126635501D01*
X158638127Y-126586465D01*
X158744669Y-126515276D01*
X158835276Y-126424669D01*
X158906465Y-126318127D01*
X158955501Y-126199744D01*
X158980500Y-126074069D01*
X158980500Y-125945931D01*
X158980500Y-125945928D01*
X158955502Y-125820261D01*
X158955501Y-125820260D01*
X158955501Y-125820256D01*
X158906465Y-125701873D01*
X158906464Y-125701872D01*
X158906461Y-125701866D01*
X158835276Y-125595331D01*
X158835273Y-125595327D01*
X158744672Y-125504726D01*
X158744668Y-125504723D01*
X158638133Y-125433538D01*
X158638124Y-125433533D01*
X158519744Y-125384499D01*
X158519738Y-125384497D01*
X158394071Y-125359500D01*
X158394069Y-125359500D01*
X158265931Y-125359500D01*
X158265929Y-125359500D01*
X158140261Y-125384497D01*
X158140255Y-125384499D01*
X158021875Y-125433533D01*
X158021866Y-125433538D01*
X157915331Y-125504723D01*
X157915327Y-125504726D01*
X157824726Y-125595327D01*
X157824723Y-125595331D01*
X157753538Y-125701866D01*
X157753533Y-125701875D01*
X157704499Y-125820255D01*
X157704497Y-125820261D01*
X157679500Y-125945928D01*
X157679500Y-125945931D01*
X157679500Y-126074069D01*
X157679500Y-126074071D01*
X157679499Y-126074071D01*
X97723780Y-126074071D01*
X97723780Y-125400691D01*
X98789500Y-125400691D01*
X98789500Y-125519309D01*
X98820201Y-125633886D01*
X98879511Y-125736613D01*
X98963387Y-125820489D01*
X99066114Y-125879799D01*
X99180691Y-125910500D01*
X99180694Y-125910500D01*
X99299306Y-125910500D01*
X99299309Y-125910500D01*
X99413886Y-125879799D01*
X99516613Y-125820489D01*
X99600489Y-125736613D01*
X99659799Y-125633886D01*
X99690500Y-125519309D01*
X99690500Y-125400691D01*
X99659799Y-125286114D01*
X99600489Y-125183387D01*
X99516613Y-125099511D01*
X99413886Y-125040201D01*
X99299309Y-125009500D01*
X99180691Y-125009500D01*
X99066114Y-125040201D01*
X99066112Y-125040201D01*
X99066112Y-125040202D01*
X98963387Y-125099511D01*
X98963384Y-125099513D01*
X98879513Y-125183384D01*
X98879511Y-125183387D01*
X98820201Y-125286114D01*
X98789500Y-125400691D01*
X97723780Y-125400691D01*
X97723780Y-120615837D01*
X100189500Y-120615837D01*
X100189500Y-120844162D01*
X100225215Y-121069660D01*
X100295770Y-121286803D01*
X100366737Y-121426082D01*
X100399421Y-121490228D01*
X100533621Y-121674937D01*
X100695063Y-121836379D01*
X100879772Y-121970579D01*
X100975884Y-122019550D01*
X101083196Y-122074229D01*
X101083198Y-122074229D01*
X101083201Y-122074231D01*
X101199592Y-122112049D01*
X101300339Y-122144784D01*
X101525838Y-122180500D01*
X101525843Y-122180500D01*
X101754162Y-122180500D01*
X101979660Y-122144784D01*
X102196799Y-122074231D01*
X102400228Y-121970579D01*
X102584937Y-121836379D01*
X102746379Y-121674937D01*
X102819773Y-121573920D01*
X107339499Y-121573920D01*
X107368340Y-121718907D01*
X107368343Y-121718917D01*
X107424912Y-121855488D01*
X107424919Y-121855501D01*
X107507048Y-121978415D01*
X107507051Y-121978419D01*
X107611580Y-122082948D01*
X107611584Y-122082951D01*
X107734498Y-122165080D01*
X107734511Y-122165087D01*
X107871082Y-122221656D01*
X107871087Y-122221658D01*
X107871091Y-122221658D01*
X107871092Y-122221659D01*
X108016079Y-122250500D01*
X108016082Y-122250500D01*
X108163920Y-122250500D01*
X108261462Y-122231096D01*
X108308913Y-122221658D01*
X108445495Y-122165084D01*
X108568416Y-122082951D01*
X108672951Y-121978416D01*
X108755084Y-121855495D01*
X108811658Y-121718913D01*
X108830210Y-121625647D01*
X108840500Y-121573920D01*
X108840500Y-121426079D01*
X108811659Y-121281092D01*
X108811658Y-121281091D01*
X108811658Y-121281087D01*
X108807695Y-121271519D01*
X108755087Y-121144511D01*
X108755080Y-121144498D01*
X108672951Y-121021584D01*
X108672948Y-121021580D01*
X108568419Y-120917051D01*
X108568415Y-120917048D01*
X108445501Y-120834919D01*
X108445488Y-120834912D01*
X108308917Y-120778343D01*
X108308907Y-120778340D01*
X108163920Y-120749500D01*
X108163918Y-120749500D01*
X108016082Y-120749500D01*
X108016080Y-120749500D01*
X107871092Y-120778340D01*
X107871082Y-120778343D01*
X107734511Y-120834912D01*
X107734498Y-120834919D01*
X107611584Y-120917048D01*
X107611580Y-120917051D01*
X107507051Y-121021580D01*
X107507048Y-121021584D01*
X107424919Y-121144498D01*
X107424912Y-121144511D01*
X107368343Y-121281082D01*
X107368340Y-121281092D01*
X107339500Y-121426079D01*
X107339500Y-121426082D01*
X107339500Y-121573918D01*
X107339500Y-121573920D01*
X107339499Y-121573920D01*
X102819773Y-121573920D01*
X102880579Y-121490228D01*
X102947398Y-121359088D01*
X102984228Y-121286806D01*
X102984228Y-121286802D01*
X102984231Y-121286799D01*
X103054784Y-121069660D01*
X103090500Y-120844162D01*
X103090500Y-120615837D01*
X103075797Y-120523007D01*
X103073495Y-120508475D01*
X113434500Y-120508475D01*
X113434500Y-121271517D01*
X113436922Y-121286806D01*
X113449354Y-121365304D01*
X113506950Y-121478342D01*
X113506952Y-121478344D01*
X113506954Y-121478347D01*
X113596652Y-121568045D01*
X113596654Y-121568046D01*
X113596658Y-121568050D01*
X113709694Y-121625645D01*
X113709698Y-121625647D01*
X113803475Y-121640499D01*
X113803481Y-121640500D01*
X115016518Y-121640499D01*
X115110304Y-121625646D01*
X115223342Y-121568050D01*
X115313050Y-121478342D01*
X115370646Y-121365304D01*
X115370646Y-121365300D01*
X115373812Y-121359088D01*
X115421786Y-121308292D01*
X115489607Y-121291497D01*
X115555742Y-121314034D01*
X115587398Y-121346491D01*
X115602046Y-121368413D01*
X115602051Y-121368419D01*
X115706580Y-121472948D01*
X115706584Y-121472951D01*
X115829498Y-121555080D01*
X115829511Y-121555087D01*
X115966082Y-121611656D01*
X115966087Y-121611658D01*
X115966091Y-121611658D01*
X115966092Y-121611659D01*
X116111079Y-121640500D01*
X116111082Y-121640500D01*
X116708920Y-121640500D01*
X116806462Y-121621096D01*
X116853913Y-121611658D01*
X116990495Y-121555084D01*
X117113416Y-121472951D01*
X117217951Y-121368416D01*
X117300084Y-121245495D01*
X117356658Y-121108913D01*
X117385500Y-120963918D01*
X117385500Y-120816082D01*
X117385500Y-120816079D01*
X117356659Y-120671092D01*
X117356658Y-120671091D01*
X117356658Y-120671087D01*
X117333773Y-120615837D01*
X117300087Y-120534511D01*
X117300080Y-120534498D01*
X117217951Y-120411584D01*
X117217948Y-120411580D01*
X117113419Y-120307051D01*
X117113415Y-120307048D01*
X116990501Y-120224919D01*
X116990488Y-120224912D01*
X116853917Y-120168343D01*
X116853907Y-120168340D01*
X116708920Y-120139500D01*
X116708918Y-120139500D01*
X116111082Y-120139500D01*
X116111080Y-120139500D01*
X115966092Y-120168340D01*
X115966082Y-120168343D01*
X115829511Y-120224912D01*
X115829498Y-120224919D01*
X115706584Y-120307048D01*
X115706580Y-120307051D01*
X115602051Y-120411580D01*
X115602046Y-120411586D01*
X115587398Y-120433509D01*
X115533785Y-120478313D01*
X115464460Y-120487020D01*
X115401433Y-120456865D01*
X115373812Y-120420912D01*
X115370646Y-120414698D01*
X115370646Y-120414696D01*
X115313050Y-120301658D01*
X115313048Y-120301656D01*
X115313045Y-120301652D01*
X115223347Y-120211954D01*
X115223344Y-120211952D01*
X115223342Y-120211950D01*
X115137753Y-120168340D01*
X115110301Y-120154352D01*
X115016524Y-120139500D01*
X113803482Y-120139500D01*
X113722519Y-120152323D01*
X113709696Y-120154354D01*
X113596658Y-120211950D01*
X113596657Y-120211951D01*
X113596652Y-120211954D01*
X113506954Y-120301652D01*
X113506952Y-120301656D01*
X113506950Y-120301658D01*
X113487751Y-120339337D01*
X113449352Y-120414698D01*
X113434500Y-120508475D01*
X103073495Y-120508475D01*
X103054784Y-120390339D01*
X103001033Y-120224912D01*
X102984231Y-120173201D01*
X102984229Y-120173198D01*
X102984229Y-120173196D01*
X102880578Y-119969771D01*
X102746379Y-119785063D01*
X102584937Y-119623621D01*
X102400228Y-119489421D01*
X102367898Y-119472948D01*
X102196803Y-119385770D01*
X101979660Y-119315215D01*
X101754162Y-119279500D01*
X101754157Y-119279500D01*
X101525843Y-119279500D01*
X101525838Y-119279500D01*
X101300339Y-119315215D01*
X101083196Y-119385770D01*
X100879771Y-119489421D01*
X100695061Y-119623622D01*
X100533622Y-119785061D01*
X100399421Y-119969771D01*
X100295770Y-120173196D01*
X100225215Y-120390339D01*
X100189500Y-120615837D01*
X97723780Y-120615837D01*
X97723780Y-118963920D01*
X113434499Y-118963920D01*
X113463340Y-119108907D01*
X113463343Y-119108917D01*
X113519912Y-119245488D01*
X113519919Y-119245501D01*
X113602048Y-119368415D01*
X113602051Y-119368419D01*
X113706580Y-119472948D01*
X113706584Y-119472951D01*
X113829498Y-119555080D01*
X113829511Y-119555087D01*
X113966082Y-119611656D01*
X113966087Y-119611658D01*
X113966091Y-119611658D01*
X113966092Y-119611659D01*
X114111079Y-119640500D01*
X114111082Y-119640500D01*
X114708920Y-119640500D01*
X114806462Y-119621096D01*
X114853913Y-119611658D01*
X114990495Y-119555084D01*
X115113416Y-119472951D01*
X115217951Y-119368416D01*
X115300084Y-119245495D01*
X115300087Y-119245488D01*
X115300639Y-119244457D01*
X115301074Y-119244013D01*
X115303469Y-119240430D01*
X115304148Y-119240884D01*
X115349599Y-119194611D01*
X115417735Y-119179147D01*
X115483416Y-119202975D01*
X115516113Y-119240709D01*
X115516531Y-119240430D01*
X115518752Y-119243754D01*
X115519361Y-119244457D01*
X115519917Y-119245498D01*
X115602048Y-119368415D01*
X115602051Y-119368419D01*
X115706580Y-119472948D01*
X115706584Y-119472951D01*
X115829498Y-119555080D01*
X115829511Y-119555087D01*
X115966082Y-119611656D01*
X115966087Y-119611658D01*
X115966091Y-119611658D01*
X115966092Y-119611659D01*
X116111079Y-119640500D01*
X116111082Y-119640500D01*
X116708920Y-119640500D01*
X116806462Y-119621096D01*
X116853913Y-119611658D01*
X116990495Y-119555084D01*
X117113416Y-119472951D01*
X117217951Y-119368416D01*
X117300084Y-119245495D01*
X117302067Y-119240709D01*
X117356656Y-119108917D01*
X117356658Y-119108913D01*
X117385500Y-118963918D01*
X117385500Y-118816082D01*
X117385500Y-118816079D01*
X117356659Y-118671092D01*
X117356658Y-118671091D01*
X117356658Y-118671087D01*
X117302182Y-118539570D01*
X117300087Y-118534511D01*
X117300080Y-118534498D01*
X117217951Y-118411584D01*
X117217948Y-118411580D01*
X117113419Y-118307051D01*
X117113415Y-118307048D01*
X116990501Y-118224919D01*
X116990488Y-118224912D01*
X116853917Y-118168343D01*
X116853907Y-118168340D01*
X116708920Y-118139500D01*
X116708918Y-118139500D01*
X116111082Y-118139500D01*
X116111080Y-118139500D01*
X115966092Y-118168340D01*
X115966082Y-118168343D01*
X115829511Y-118224912D01*
X115829498Y-118224919D01*
X115706584Y-118307048D01*
X115706580Y-118307051D01*
X115602051Y-118411580D01*
X115602048Y-118411584D01*
X115519913Y-118534507D01*
X115519357Y-118535549D01*
X115518921Y-118535992D01*
X115516531Y-118539570D01*
X115515852Y-118539116D01*
X115470394Y-118585392D01*
X115402256Y-118600852D01*
X115336577Y-118577019D01*
X115303885Y-118539291D01*
X115303469Y-118539570D01*
X115301251Y-118536251D01*
X115300643Y-118535549D01*
X115300086Y-118534507D01*
X115217951Y-118411584D01*
X115217948Y-118411580D01*
X115113419Y-118307051D01*
X115113415Y-118307048D01*
X114990501Y-118224919D01*
X114990488Y-118224912D01*
X114853917Y-118168343D01*
X114853907Y-118168340D01*
X114708920Y-118139500D01*
X114708918Y-118139500D01*
X114111082Y-118139500D01*
X114111080Y-118139500D01*
X113966092Y-118168340D01*
X113966082Y-118168343D01*
X113829511Y-118224912D01*
X113829498Y-118224919D01*
X113706584Y-118307048D01*
X113706580Y-118307051D01*
X113602051Y-118411580D01*
X113602048Y-118411584D01*
X113519919Y-118534498D01*
X113519912Y-118534511D01*
X113463343Y-118671082D01*
X113463340Y-118671092D01*
X113434500Y-118816079D01*
X113434500Y-118816082D01*
X113434500Y-118963918D01*
X113434500Y-118963920D01*
X113434499Y-118963920D01*
X97723780Y-118963920D01*
X97723780Y-117747648D01*
X163289500Y-117747648D01*
X163289500Y-117952351D01*
X163321522Y-118154534D01*
X163384781Y-118349223D01*
X163477715Y-118531613D01*
X163598028Y-118697213D01*
X163742786Y-118841971D01*
X163897749Y-118954556D01*
X163908390Y-118962287D01*
X164024607Y-119021503D01*
X164090776Y-119055218D01*
X164090778Y-119055218D01*
X164090781Y-119055220D01*
X164195137Y-119089127D01*
X164285465Y-119118477D01*
X164386557Y-119134488D01*
X164487648Y-119150500D01*
X164487649Y-119150500D01*
X164692351Y-119150500D01*
X164692352Y-119150500D01*
X164894534Y-119118477D01*
X165089219Y-119055220D01*
X165271610Y-118962287D01*
X165364590Y-118894732D01*
X165437213Y-118841971D01*
X165437215Y-118841968D01*
X165437219Y-118841966D01*
X165581966Y-118697219D01*
X165581968Y-118697215D01*
X165581971Y-118697213D01*
X165663212Y-118585392D01*
X165702287Y-118531610D01*
X165795220Y-118349219D01*
X165858477Y-118154534D01*
X165890500Y-117952352D01*
X165890500Y-117747648D01*
X166389500Y-117747648D01*
X166389500Y-117952351D01*
X166421522Y-118154534D01*
X166484781Y-118349223D01*
X166577715Y-118531613D01*
X166698028Y-118697213D01*
X166842786Y-118841971D01*
X166997749Y-118954556D01*
X167008390Y-118962287D01*
X167124607Y-119021503D01*
X167190776Y-119055218D01*
X167190778Y-119055218D01*
X167190781Y-119055220D01*
X167295137Y-119089127D01*
X167385465Y-119118477D01*
X167486557Y-119134488D01*
X167587648Y-119150500D01*
X167587649Y-119150500D01*
X167792351Y-119150500D01*
X167792352Y-119150500D01*
X167994534Y-119118477D01*
X168189219Y-119055220D01*
X168371610Y-118962287D01*
X168464590Y-118894732D01*
X168537213Y-118841971D01*
X168537215Y-118841968D01*
X168537219Y-118841966D01*
X168681966Y-118697219D01*
X168681968Y-118697215D01*
X168681971Y-118697213D01*
X168763212Y-118585392D01*
X168802287Y-118531610D01*
X168895220Y-118349219D01*
X168958477Y-118154534D01*
X168990500Y-117952352D01*
X168990500Y-117747648D01*
X168970466Y-117621159D01*
X168958477Y-117545465D01*
X168900950Y-117368416D01*
X168895220Y-117350781D01*
X168895218Y-117350778D01*
X168895218Y-117350776D01*
X168841577Y-117245501D01*
X168802287Y-117168390D01*
X168759075Y-117108913D01*
X168681971Y-117002786D01*
X168537213Y-116858028D01*
X168371613Y-116737715D01*
X168371612Y-116737714D01*
X168371610Y-116737713D01*
X168314653Y-116708691D01*
X168189223Y-116644781D01*
X167994534Y-116581522D01*
X167819995Y-116553878D01*
X167792352Y-116549500D01*
X167587648Y-116549500D01*
X167563329Y-116553351D01*
X167385465Y-116581522D01*
X167190776Y-116644781D01*
X167008386Y-116737715D01*
X166842786Y-116858028D01*
X166698028Y-117002786D01*
X166577715Y-117168386D01*
X166484781Y-117350776D01*
X166421522Y-117545465D01*
X166389500Y-117747648D01*
X165890500Y-117747648D01*
X165870466Y-117621159D01*
X165858477Y-117545465D01*
X165800950Y-117368416D01*
X165795220Y-117350781D01*
X165795218Y-117350778D01*
X165795218Y-117350776D01*
X165741577Y-117245501D01*
X165702287Y-117168390D01*
X165659075Y-117108913D01*
X165581971Y-117002786D01*
X165437213Y-116858028D01*
X165271613Y-116737715D01*
X165271612Y-116737714D01*
X165271610Y-116737713D01*
X165214653Y-116708691D01*
X165089223Y-116644781D01*
X164894534Y-116581522D01*
X164719995Y-116553878D01*
X164692352Y-116549500D01*
X164487648Y-116549500D01*
X164463329Y-116553351D01*
X164285465Y-116581522D01*
X164090776Y-116644781D01*
X163908386Y-116737715D01*
X163742786Y-116858028D01*
X163598028Y-117002786D01*
X163477715Y-117168386D01*
X163384781Y-117350776D01*
X163321522Y-117545465D01*
X163289500Y-117747648D01*
X97723780Y-117747648D01*
X97723780Y-116943920D01*
X100649499Y-116943920D01*
X100678340Y-117088907D01*
X100678343Y-117088917D01*
X100734912Y-117225488D01*
X100734919Y-117225501D01*
X100817048Y-117348415D01*
X100817051Y-117348419D01*
X100921580Y-117452948D01*
X100921584Y-117452951D01*
X101044498Y-117535080D01*
X101044511Y-117535087D01*
X101181082Y-117591656D01*
X101181087Y-117591658D01*
X101181091Y-117591658D01*
X101181092Y-117591659D01*
X101326079Y-117620500D01*
X101326082Y-117620500D01*
X101473920Y-117620500D01*
X101571462Y-117601096D01*
X101618913Y-117591658D01*
X101755495Y-117535084D01*
X101878416Y-117452951D01*
X101982951Y-117348416D01*
X102065084Y-117225495D01*
X102121658Y-117088913D01*
X102138791Y-117002781D01*
X102146521Y-116963920D01*
X113434499Y-116963920D01*
X113463340Y-117108907D01*
X113463343Y-117108917D01*
X113519912Y-117245488D01*
X113519919Y-117245501D01*
X113602048Y-117368415D01*
X113602051Y-117368419D01*
X113706580Y-117472948D01*
X113706584Y-117472951D01*
X113829498Y-117555080D01*
X113829511Y-117555087D01*
X113966082Y-117611656D01*
X113966087Y-117611658D01*
X113966091Y-117611658D01*
X113966092Y-117611659D01*
X114111079Y-117640500D01*
X114111082Y-117640500D01*
X114708920Y-117640500D01*
X114809462Y-117620500D01*
X114853913Y-117611658D01*
X114990495Y-117555084D01*
X115113416Y-117472951D01*
X115217951Y-117368416D01*
X115300084Y-117245495D01*
X115300087Y-117245488D01*
X115300639Y-117244457D01*
X115301074Y-117244013D01*
X115303469Y-117240430D01*
X115304148Y-117240884D01*
X115349599Y-117194611D01*
X115417735Y-117179147D01*
X115483416Y-117202975D01*
X115516113Y-117240709D01*
X115516531Y-117240430D01*
X115518752Y-117243754D01*
X115519361Y-117244457D01*
X115519917Y-117245498D01*
X115602048Y-117368415D01*
X115602051Y-117368419D01*
X115706580Y-117472948D01*
X115706584Y-117472951D01*
X115829498Y-117555080D01*
X115829511Y-117555087D01*
X115966082Y-117611656D01*
X115966087Y-117611658D01*
X115966091Y-117611658D01*
X115966092Y-117611659D01*
X116111079Y-117640500D01*
X116111082Y-117640500D01*
X116708920Y-117640500D01*
X116806151Y-117621159D01*
X116835787Y-117615263D01*
X116853913Y-117611658D01*
X116990495Y-117555084D01*
X117113416Y-117472951D01*
X117217951Y-117368416D01*
X117300084Y-117245495D01*
X117302067Y-117240709D01*
X117332022Y-117168390D01*
X117356658Y-117108913D01*
X117366096Y-117061462D01*
X117385500Y-116963920D01*
X117385500Y-116816079D01*
X117356659Y-116671092D01*
X117356658Y-116671091D01*
X117356658Y-116671087D01*
X117321162Y-116585392D01*
X117300087Y-116534511D01*
X117300080Y-116534498D01*
X117217951Y-116411584D01*
X117217948Y-116411580D01*
X117113419Y-116307051D01*
X117113415Y-116307048D01*
X116990501Y-116224919D01*
X116990488Y-116224912D01*
X116853917Y-116168343D01*
X116853907Y-116168340D01*
X116708920Y-116139500D01*
X116708918Y-116139500D01*
X116111082Y-116139500D01*
X116111080Y-116139500D01*
X115966092Y-116168340D01*
X115966082Y-116168343D01*
X115829511Y-116224912D01*
X115829498Y-116224919D01*
X115706584Y-116307048D01*
X115706580Y-116307051D01*
X115602051Y-116411580D01*
X115602048Y-116411584D01*
X115519913Y-116534507D01*
X115519357Y-116535549D01*
X115518921Y-116535992D01*
X115516531Y-116539570D01*
X115515852Y-116539116D01*
X115470394Y-116585392D01*
X115402256Y-116600852D01*
X115336577Y-116577019D01*
X115303885Y-116539291D01*
X115303469Y-116539570D01*
X115301251Y-116536251D01*
X115300643Y-116535549D01*
X115300086Y-116534507D01*
X115217951Y-116411584D01*
X115217948Y-116411580D01*
X115113419Y-116307051D01*
X115113415Y-116307048D01*
X114990501Y-116224919D01*
X114990488Y-116224912D01*
X114853917Y-116168343D01*
X114853907Y-116168340D01*
X114708920Y-116139500D01*
X114708918Y-116139500D01*
X114111082Y-116139500D01*
X114111080Y-116139500D01*
X113966092Y-116168340D01*
X113966082Y-116168343D01*
X113829511Y-116224912D01*
X113829498Y-116224919D01*
X113706584Y-116307048D01*
X113706580Y-116307051D01*
X113602051Y-116411580D01*
X113602048Y-116411584D01*
X113519919Y-116534498D01*
X113519912Y-116534511D01*
X113463343Y-116671082D01*
X113463340Y-116671092D01*
X113434500Y-116816079D01*
X113434500Y-116816082D01*
X113434500Y-116963918D01*
X113434500Y-116963920D01*
X113434499Y-116963920D01*
X102146521Y-116963920D01*
X102150500Y-116943920D01*
X102150500Y-116796079D01*
X102121659Y-116651092D01*
X102121658Y-116651091D01*
X102121658Y-116651087D01*
X102100850Y-116600852D01*
X102065087Y-116514511D01*
X102065080Y-116514498D01*
X101982951Y-116391584D01*
X101982948Y-116391580D01*
X101878419Y-116287051D01*
X101878415Y-116287048D01*
X101755501Y-116204919D01*
X101755488Y-116204912D01*
X101618917Y-116148343D01*
X101618907Y-116148340D01*
X101473920Y-116119500D01*
X101473918Y-116119500D01*
X101326082Y-116119500D01*
X101326080Y-116119500D01*
X101181092Y-116148340D01*
X101181082Y-116148343D01*
X101044511Y-116204912D01*
X101044498Y-116204919D01*
X100921584Y-116287048D01*
X100921580Y-116287051D01*
X100817051Y-116391580D01*
X100817048Y-116391584D01*
X100734919Y-116514498D01*
X100734912Y-116514511D01*
X100678343Y-116651082D01*
X100678340Y-116651092D01*
X100649500Y-116796079D01*
X100649500Y-116796082D01*
X100649500Y-116943918D01*
X100649500Y-116943920D01*
X100649499Y-116943920D01*
X97723780Y-116943920D01*
X97723780Y-114963920D01*
X113434499Y-114963920D01*
X113463340Y-115108907D01*
X113463343Y-115108917D01*
X113519912Y-115245488D01*
X113519919Y-115245501D01*
X113602048Y-115368415D01*
X113602051Y-115368419D01*
X113706580Y-115472948D01*
X113706584Y-115472951D01*
X113829498Y-115555080D01*
X113829511Y-115555087D01*
X113947326Y-115603887D01*
X113966087Y-115611658D01*
X113966091Y-115611658D01*
X113966092Y-115611659D01*
X114111079Y-115640500D01*
X114111082Y-115640500D01*
X114708920Y-115640500D01*
X114806462Y-115621096D01*
X114853913Y-115611658D01*
X114990495Y-115555084D01*
X115113416Y-115472951D01*
X115217951Y-115368416D01*
X115300084Y-115245495D01*
X115300087Y-115245488D01*
X115300639Y-115244457D01*
X115301074Y-115244013D01*
X115303469Y-115240430D01*
X115304148Y-115240884D01*
X115349599Y-115194611D01*
X115417735Y-115179147D01*
X115483416Y-115202975D01*
X115516113Y-115240709D01*
X115516531Y-115240430D01*
X115518752Y-115243754D01*
X115519361Y-115244457D01*
X115519917Y-115245498D01*
X115602048Y-115368415D01*
X115602051Y-115368419D01*
X115706580Y-115472948D01*
X115706584Y-115472951D01*
X115829498Y-115555080D01*
X115829511Y-115555087D01*
X115947326Y-115603887D01*
X115966087Y-115611658D01*
X115966091Y-115611658D01*
X115966092Y-115611659D01*
X116111079Y-115640500D01*
X116111082Y-115640500D01*
X116708920Y-115640500D01*
X116806462Y-115621096D01*
X116853913Y-115611658D01*
X116990495Y-115555084D01*
X117113416Y-115472951D01*
X117215676Y-115370691D01*
X133329500Y-115370691D01*
X133329500Y-115489309D01*
X133360201Y-115603886D01*
X133419511Y-115706613D01*
X133503387Y-115790489D01*
X133606114Y-115849799D01*
X133720691Y-115880500D01*
X133720694Y-115880500D01*
X133839306Y-115880500D01*
X133839309Y-115880500D01*
X133953886Y-115849799D01*
X134056613Y-115790489D01*
X134140489Y-115706613D01*
X134199799Y-115603886D01*
X134230500Y-115489309D01*
X134230500Y-115370691D01*
X134199799Y-115256114D01*
X134140489Y-115153387D01*
X134056613Y-115069511D01*
X133953886Y-115010201D01*
X133839309Y-114979500D01*
X133720691Y-114979500D01*
X133606114Y-115010201D01*
X133606112Y-115010201D01*
X133606112Y-115010202D01*
X133503387Y-115069511D01*
X133503384Y-115069513D01*
X133419513Y-115153384D01*
X133419511Y-115153387D01*
X133367188Y-115244013D01*
X133360201Y-115256114D01*
X133329500Y-115370691D01*
X117215676Y-115370691D01*
X117217951Y-115368416D01*
X117300084Y-115245495D01*
X117302067Y-115240709D01*
X117338236Y-115153387D01*
X117356658Y-115108913D01*
X117366096Y-115061462D01*
X117385500Y-114963920D01*
X117385500Y-114816079D01*
X117385499Y-114816077D01*
X117375689Y-114766755D01*
X117372493Y-114750691D01*
X132309500Y-114750691D01*
X132309500Y-114869309D01*
X132340201Y-114983886D01*
X132399511Y-115086613D01*
X132483387Y-115170489D01*
X132586114Y-115229799D01*
X132700691Y-115260500D01*
X132700694Y-115260500D01*
X132819306Y-115260500D01*
X132819309Y-115260500D01*
X132933886Y-115229799D01*
X133036613Y-115170489D01*
X133120489Y-115086613D01*
X133179799Y-114983886D01*
X133210500Y-114869309D01*
X133210500Y-114750691D01*
X133179799Y-114636114D01*
X133164403Y-114609448D01*
X164989500Y-114609448D01*
X164989500Y-114790551D01*
X165017829Y-114969410D01*
X165073787Y-115141636D01*
X165073788Y-115141639D01*
X165156006Y-115302997D01*
X165262441Y-115449494D01*
X165262445Y-115449499D01*
X165390500Y-115577554D01*
X165390505Y-115577558D01*
X165518287Y-115670396D01*
X165537006Y-115683996D01*
X165642484Y-115737740D01*
X165698360Y-115766211D01*
X165698363Y-115766212D01*
X165773073Y-115790486D01*
X165870591Y-115822171D01*
X165953429Y-115835291D01*
X166049449Y-115850500D01*
X166049454Y-115850500D01*
X166230551Y-115850500D01*
X166317259Y-115836765D01*
X166409409Y-115822171D01*
X166581639Y-115766211D01*
X166742994Y-115683996D01*
X166889501Y-115577553D01*
X167017553Y-115449501D01*
X167123996Y-115302994D01*
X167206211Y-115141639D01*
X167262171Y-114969409D01*
X167286456Y-114816082D01*
X167290500Y-114790551D01*
X167290500Y-114609448D01*
X167271330Y-114488419D01*
X167262171Y-114430591D01*
X167222031Y-114307051D01*
X167206212Y-114258363D01*
X167206211Y-114258360D01*
X167160344Y-114168343D01*
X167123996Y-114097006D01*
X167110396Y-114078287D01*
X167017558Y-113950505D01*
X167017554Y-113950500D01*
X166889499Y-113822445D01*
X166889494Y-113822441D01*
X166742997Y-113716006D01*
X166742996Y-113716005D01*
X166742994Y-113716004D01*
X166691300Y-113689664D01*
X166581639Y-113633788D01*
X166581636Y-113633787D01*
X166409410Y-113577829D01*
X166230551Y-113549500D01*
X166230546Y-113549500D01*
X166049454Y-113549500D01*
X166049449Y-113549500D01*
X165870589Y-113577829D01*
X165698363Y-113633787D01*
X165698360Y-113633788D01*
X165537002Y-113716006D01*
X165390505Y-113822441D01*
X165390500Y-113822445D01*
X165262445Y-113950500D01*
X165262441Y-113950505D01*
X165156006Y-114097002D01*
X165073788Y-114258360D01*
X165073787Y-114258363D01*
X165017829Y-114430589D01*
X164989500Y-114609448D01*
X133164403Y-114609448D01*
X133120489Y-114533387D01*
X133036613Y-114449511D01*
X132933886Y-114390201D01*
X132819309Y-114359500D01*
X132700691Y-114359500D01*
X132586114Y-114390201D01*
X132586112Y-114390201D01*
X132586112Y-114390202D01*
X132483387Y-114449511D01*
X132483384Y-114449513D01*
X132399513Y-114533384D01*
X132399511Y-114533387D01*
X132340201Y-114636114D01*
X132309500Y-114750691D01*
X117372493Y-114750691D01*
X117356659Y-114671092D01*
X117356658Y-114671091D01*
X117356658Y-114671087D01*
X117331129Y-114609454D01*
X117300087Y-114534511D01*
X117300080Y-114534498D01*
X117217951Y-114411584D01*
X117217948Y-114411580D01*
X117113419Y-114307051D01*
X117113415Y-114307048D01*
X116990501Y-114224919D01*
X116990488Y-114224912D01*
X116853917Y-114168343D01*
X116853907Y-114168340D01*
X116708920Y-114139500D01*
X116708918Y-114139500D01*
X116111082Y-114139500D01*
X116111080Y-114139500D01*
X115966092Y-114168340D01*
X115966082Y-114168343D01*
X115829511Y-114224912D01*
X115829498Y-114224919D01*
X115706584Y-114307048D01*
X115706580Y-114307051D01*
X115602051Y-114411580D01*
X115602048Y-114411584D01*
X115519913Y-114534507D01*
X115519357Y-114535549D01*
X115518921Y-114535992D01*
X115516531Y-114539570D01*
X115515852Y-114539116D01*
X115470394Y-114585392D01*
X115402256Y-114600852D01*
X115336577Y-114577019D01*
X115303885Y-114539291D01*
X115303469Y-114539570D01*
X115301251Y-114536251D01*
X115300643Y-114535549D01*
X115300086Y-114534507D01*
X115217951Y-114411584D01*
X115217948Y-114411580D01*
X115113419Y-114307051D01*
X115113415Y-114307048D01*
X114990501Y-114224919D01*
X114990488Y-114224912D01*
X114853917Y-114168343D01*
X114853907Y-114168340D01*
X114708920Y-114139500D01*
X114708918Y-114139500D01*
X114111082Y-114139500D01*
X114111080Y-114139500D01*
X113966092Y-114168340D01*
X113966082Y-114168343D01*
X113829511Y-114224912D01*
X113829498Y-114224919D01*
X113706584Y-114307048D01*
X113706580Y-114307051D01*
X113602051Y-114411580D01*
X113602048Y-114411584D01*
X113519919Y-114534498D01*
X113519912Y-114534511D01*
X113463343Y-114671082D01*
X113463340Y-114671092D01*
X113434500Y-114816079D01*
X113434500Y-114816082D01*
X113434500Y-114963918D01*
X113434500Y-114963920D01*
X113434499Y-114963920D01*
X97723780Y-114963920D01*
X97723780Y-114083920D01*
X101249499Y-114083920D01*
X101278340Y-114228907D01*
X101278343Y-114228917D01*
X101334912Y-114365488D01*
X101334919Y-114365501D01*
X101417048Y-114488415D01*
X101417051Y-114488419D01*
X101521580Y-114592948D01*
X101521584Y-114592951D01*
X101644498Y-114675080D01*
X101644511Y-114675087D01*
X101781082Y-114731656D01*
X101781087Y-114731658D01*
X101781091Y-114731658D01*
X101781092Y-114731659D01*
X101926079Y-114760500D01*
X101926082Y-114760500D01*
X102073920Y-114760500D01*
X102171462Y-114741096D01*
X102218913Y-114731658D01*
X102355495Y-114675084D01*
X102478416Y-114592951D01*
X102582951Y-114488416D01*
X102665084Y-114365495D01*
X102721658Y-114228913D01*
X102747897Y-114097006D01*
X102750500Y-114083920D01*
X102750500Y-113936079D01*
X102721659Y-113791092D01*
X102721658Y-113791091D01*
X102721658Y-113791087D01*
X102721656Y-113791082D01*
X102665087Y-113654511D01*
X102665080Y-113654498D01*
X102582951Y-113531584D01*
X102582948Y-113531580D01*
X102478419Y-113427051D01*
X102478415Y-113427048D01*
X102355501Y-113344919D01*
X102355488Y-113344912D01*
X102218917Y-113288343D01*
X102218907Y-113288340D01*
X102073920Y-113259500D01*
X102073918Y-113259500D01*
X101926082Y-113259500D01*
X101926080Y-113259500D01*
X101781092Y-113288340D01*
X101781082Y-113288343D01*
X101644511Y-113344912D01*
X101644498Y-113344919D01*
X101521584Y-113427048D01*
X101521580Y-113427051D01*
X101417051Y-113531580D01*
X101417048Y-113531584D01*
X101334919Y-113654498D01*
X101334912Y-113654511D01*
X101278343Y-113791082D01*
X101278340Y-113791092D01*
X101249500Y-113936079D01*
X101249500Y-113936082D01*
X101249500Y-114083918D01*
X101249500Y-114083920D01*
X101249499Y-114083920D01*
X97723780Y-114083920D01*
X97723780Y-112610873D01*
X97723780Y-110953920D01*
X99679499Y-110953920D01*
X99708340Y-111098907D01*
X99708343Y-111098917D01*
X99764912Y-111235488D01*
X99764919Y-111235501D01*
X99847048Y-111358415D01*
X99847051Y-111358419D01*
X99951580Y-111462948D01*
X99951584Y-111462951D01*
X100074498Y-111545080D01*
X100074511Y-111545087D01*
X100211082Y-111601656D01*
X100211087Y-111601658D01*
X100211091Y-111601658D01*
X100211092Y-111601659D01*
X100356079Y-111630500D01*
X100356082Y-111630500D01*
X100503920Y-111630500D01*
X100624058Y-111606602D01*
X100648913Y-111601658D01*
X100785495Y-111545084D01*
X100908416Y-111462951D01*
X101012951Y-111358416D01*
X101095084Y-111235495D01*
X101151658Y-111098913D01*
X101180500Y-110953918D01*
X101180500Y-110806082D01*
X101180500Y-110806079D01*
X101159649Y-110701257D01*
X101151659Y-110661092D01*
X101151658Y-110661091D01*
X101151658Y-110661087D01*
X101151656Y-110661082D01*
X101142923Y-110639999D01*
X113110884Y-110639999D01*
X113110885Y-110640000D01*
X114063590Y-110640000D01*
X114013963Y-110725956D01*
X113985000Y-110834048D01*
X113985000Y-110945952D01*
X114013963Y-111054044D01*
X114063590Y-111140000D01*
X113110885Y-111140000D01*
X113112085Y-111147584D01*
X113165591Y-111312255D01*
X113244195Y-111466524D01*
X113345967Y-111606602D01*
X113468397Y-111729032D01*
X113608475Y-111830804D01*
X113762742Y-111909408D01*
X113907352Y-111956395D01*
X113965027Y-111995833D01*
X113992225Y-112060192D01*
X113980310Y-112129038D01*
X113933066Y-112180514D01*
X113916486Y-112188887D01*
X113829508Y-112224914D01*
X113829498Y-112224919D01*
X113706584Y-112307048D01*
X113706580Y-112307051D01*
X113602051Y-112411580D01*
X113602048Y-112411584D01*
X113519919Y-112534498D01*
X113519912Y-112534511D01*
X113463343Y-112671082D01*
X113463340Y-112671092D01*
X113434500Y-112816079D01*
X113434500Y-112816082D01*
X113434500Y-112963918D01*
X113434500Y-112963920D01*
X113434499Y-112963920D01*
X113463340Y-113108907D01*
X113463343Y-113108917D01*
X113519912Y-113245488D01*
X113519919Y-113245501D01*
X113602048Y-113368415D01*
X113602051Y-113368419D01*
X113706580Y-113472948D01*
X113706584Y-113472951D01*
X113829498Y-113555080D01*
X113829511Y-113555087D01*
X113884416Y-113577829D01*
X113966087Y-113611658D01*
X113966091Y-113611658D01*
X113966092Y-113611659D01*
X114111079Y-113640500D01*
X114111082Y-113640500D01*
X114708920Y-113640500D01*
X114806462Y-113621096D01*
X114853913Y-113611658D01*
X114990495Y-113555084D01*
X115113416Y-113472951D01*
X115217951Y-113368416D01*
X115300084Y-113245495D01*
X115300087Y-113245488D01*
X115300639Y-113244457D01*
X115301074Y-113244013D01*
X115303469Y-113240430D01*
X115304148Y-113240884D01*
X115349599Y-113194611D01*
X115417735Y-113179147D01*
X115483416Y-113202975D01*
X115516113Y-113240709D01*
X115516531Y-113240430D01*
X115518752Y-113243754D01*
X115519361Y-113244457D01*
X115519917Y-113245498D01*
X115602048Y-113368415D01*
X115602051Y-113368419D01*
X115706580Y-113472948D01*
X115706584Y-113472951D01*
X115829498Y-113555080D01*
X115829511Y-113555087D01*
X115884416Y-113577829D01*
X115966087Y-113611658D01*
X115966091Y-113611658D01*
X115966092Y-113611659D01*
X116111079Y-113640500D01*
X116111082Y-113640500D01*
X116708920Y-113640500D01*
X116806462Y-113621096D01*
X116853913Y-113611658D01*
X116990495Y-113555084D01*
X117113416Y-113472951D01*
X117217951Y-113368416D01*
X117300084Y-113245495D01*
X117302067Y-113240709D01*
X117356656Y-113108917D01*
X117356658Y-113108913D01*
X117385500Y-112963918D01*
X117385500Y-112816082D01*
X117385500Y-112816079D01*
X117356659Y-112671092D01*
X117356658Y-112671091D01*
X117356658Y-112671087D01*
X117302182Y-112539570D01*
X117300087Y-112534511D01*
X117300080Y-112534498D01*
X117217951Y-112411584D01*
X117217948Y-112411580D01*
X117113419Y-112307051D01*
X117113415Y-112307048D01*
X116990501Y-112224919D01*
X116990488Y-112224912D01*
X116903514Y-112188887D01*
X116849110Y-112145046D01*
X116827045Y-112078752D01*
X116844324Y-112011053D01*
X116895461Y-111963442D01*
X116912648Y-111956395D01*
X117057255Y-111909408D01*
X117211524Y-111830804D01*
X117351602Y-111729032D01*
X117474032Y-111606602D01*
X117575804Y-111466524D01*
X117654408Y-111312255D01*
X117707914Y-111147584D01*
X117709115Y-111140000D01*
X116756410Y-111140000D01*
X116806037Y-111054044D01*
X116835000Y-110945952D01*
X116835000Y-110834048D01*
X116806037Y-110725956D01*
X116756410Y-110640000D01*
X117709115Y-110640000D01*
X117709115Y-110639999D01*
X117707914Y-110632415D01*
X117654408Y-110467744D01*
X117575804Y-110313475D01*
X117474032Y-110173397D01*
X117351602Y-110050967D01*
X117294725Y-110009644D01*
X117294723Y-110009641D01*
X117211528Y-109949198D01*
X117057257Y-109870591D01*
X116892584Y-109817085D01*
X116721571Y-109790000D01*
X116660000Y-109790000D01*
X116660000Y-110543590D01*
X116574044Y-110493963D01*
X116465952Y-110465000D01*
X116354048Y-110465000D01*
X116245956Y-110493963D01*
X116160000Y-110543590D01*
X116160000Y-109790000D01*
X116098429Y-109790000D01*
X115927415Y-109817085D01*
X115762742Y-109870591D01*
X115608472Y-109949197D01*
X115482884Y-110040441D01*
X115417078Y-110063920D01*
X115349024Y-110048094D01*
X115337116Y-110040441D01*
X115211527Y-109949197D01*
X115057257Y-109870591D01*
X114892584Y-109817085D01*
X114721571Y-109790000D01*
X114660000Y-109790000D01*
X114660000Y-110543590D01*
X114574044Y-110493963D01*
X114465952Y-110465000D01*
X114354048Y-110465000D01*
X114245956Y-110493963D01*
X114160000Y-110543590D01*
X114160000Y-109790000D01*
X114098429Y-109790000D01*
X113927415Y-109817085D01*
X113762742Y-109870591D01*
X113608475Y-109949195D01*
X113468397Y-110050967D01*
X113345967Y-110173397D01*
X113244195Y-110313475D01*
X113165591Y-110467744D01*
X113112085Y-110632415D01*
X113110884Y-110639999D01*
X101142923Y-110639999D01*
X101095087Y-110524511D01*
X101095080Y-110524498D01*
X101012951Y-110401584D01*
X101012948Y-110401580D01*
X100908419Y-110297051D01*
X100908415Y-110297048D01*
X100785501Y-110214919D01*
X100785488Y-110214912D01*
X100648917Y-110158343D01*
X100648907Y-110158340D01*
X100503920Y-110129500D01*
X100503918Y-110129500D01*
X100356082Y-110129500D01*
X100356080Y-110129500D01*
X100211092Y-110158340D01*
X100211082Y-110158343D01*
X100074511Y-110214912D01*
X100074498Y-110214919D01*
X99951584Y-110297048D01*
X99951580Y-110297051D01*
X99847051Y-110401580D01*
X99847048Y-110401584D01*
X99764919Y-110524498D01*
X99764912Y-110524511D01*
X99708343Y-110661082D01*
X99708340Y-110661092D01*
X99679500Y-110806079D01*
X99679500Y-110806082D01*
X99679500Y-110953918D01*
X99679500Y-110953920D01*
X99679499Y-110953920D01*
X97723780Y-110953920D01*
X97723780Y-108402014D01*
X149990000Y-108402014D01*
X149990000Y-108637985D01*
X150020799Y-108871914D01*
X150081870Y-109099837D01*
X150172160Y-109317819D01*
X150172165Y-109317828D01*
X150290144Y-109522171D01*
X150290145Y-109522172D01*
X150352721Y-109603723D01*
X151074153Y-108882292D01*
X151081050Y-108898942D01*
X151168600Y-109029970D01*
X151280030Y-109141400D01*
X151411058Y-109228950D01*
X151427707Y-109235846D01*
X150706275Y-109957277D01*
X150787827Y-110019854D01*
X150787828Y-110019855D01*
X150992171Y-110137834D01*
X150992180Y-110137839D01*
X151210163Y-110228129D01*
X151210161Y-110228129D01*
X151438085Y-110289200D01*
X151672014Y-110319999D01*
X151672029Y-110320000D01*
X151907971Y-110320000D01*
X151907985Y-110319999D01*
X152141914Y-110289200D01*
X152369837Y-110228129D01*
X152587819Y-110137839D01*
X152587828Y-110137834D01*
X152792181Y-110019850D01*
X152873723Y-109957279D01*
X152873723Y-109957276D01*
X152152292Y-109235846D01*
X152168942Y-109228950D01*
X152299970Y-109141400D01*
X152411400Y-109029970D01*
X152498950Y-108898942D01*
X152505846Y-108882293D01*
X153227276Y-109603723D01*
X153227279Y-109603723D01*
X153289850Y-109522181D01*
X153407834Y-109317828D01*
X153407839Y-109317819D01*
X153498129Y-109099837D01*
X153559200Y-108871914D01*
X153589999Y-108637985D01*
X153590000Y-108637971D01*
X153590000Y-108402028D01*
X153589999Y-108402014D01*
X153559200Y-108168085D01*
X153498129Y-107940162D01*
X153407839Y-107722180D01*
X153407834Y-107722171D01*
X153289855Y-107517828D01*
X153289854Y-107517827D01*
X153245535Y-107460069D01*
X153227277Y-107436275D01*
X152505846Y-108157706D01*
X152498950Y-108141058D01*
X152411400Y-108010030D01*
X152299970Y-107898600D01*
X152168942Y-107811050D01*
X152152292Y-107804153D01*
X152566996Y-107389448D01*
X157469500Y-107389448D01*
X157469500Y-107570551D01*
X157497829Y-107749410D01*
X157553787Y-107921636D01*
X157553788Y-107921639D01*
X157636006Y-108082997D01*
X157742441Y-108229494D01*
X157742445Y-108229499D01*
X157870500Y-108357554D01*
X157870505Y-108357558D01*
X157953089Y-108417558D01*
X158017006Y-108463996D01*
X158119483Y-108516211D01*
X158178360Y-108546211D01*
X158178363Y-108546212D01*
X158258256Y-108572170D01*
X158350591Y-108602171D01*
X158433429Y-108615291D01*
X158529449Y-108630500D01*
X158529454Y-108630500D01*
X158710551Y-108630500D01*
X158797259Y-108616765D01*
X158889409Y-108602171D01*
X159061639Y-108546211D01*
X159222994Y-108463996D01*
X159369501Y-108357553D01*
X159497553Y-108229501D01*
X159603996Y-108082994D01*
X159686211Y-107921639D01*
X159742171Y-107749409D01*
X159760997Y-107630546D01*
X159770500Y-107570551D01*
X159770500Y-107389448D01*
X159768050Y-107373980D01*
X159765748Y-107359448D01*
X164939500Y-107359448D01*
X164939500Y-107540551D01*
X164967829Y-107719410D01*
X165023787Y-107891636D01*
X165023788Y-107891639D01*
X165106006Y-108052997D01*
X165212441Y-108199494D01*
X165212445Y-108199499D01*
X165340500Y-108327554D01*
X165340505Y-108327558D01*
X165464374Y-108417553D01*
X165487006Y-108433996D01*
X165592484Y-108487740D01*
X165648360Y-108516211D01*
X165648363Y-108516212D01*
X165734476Y-108544191D01*
X165820591Y-108572171D01*
X165903429Y-108585291D01*
X165999449Y-108600500D01*
X165999454Y-108600500D01*
X166180551Y-108600500D01*
X166267259Y-108586765D01*
X166359409Y-108572171D01*
X166531639Y-108516211D01*
X166692994Y-108433996D01*
X166839501Y-108327553D01*
X166967553Y-108199501D01*
X167073996Y-108052994D01*
X167156211Y-107891639D01*
X167212171Y-107719409D01*
X167235748Y-107570551D01*
X167240500Y-107540551D01*
X167240500Y-107449448D01*
X171969500Y-107449448D01*
X171969500Y-107630551D01*
X171997829Y-107809410D01*
X172053787Y-107981636D01*
X172053788Y-107981639D01*
X172136006Y-108142997D01*
X172242441Y-108289494D01*
X172242445Y-108289499D01*
X172370500Y-108417554D01*
X172370505Y-108417558D01*
X172498287Y-108510396D01*
X172517006Y-108523996D01*
X172611552Y-108572170D01*
X172678360Y-108606211D01*
X172678363Y-108606212D01*
X172753116Y-108630500D01*
X172850591Y-108662171D01*
X172933429Y-108675291D01*
X173029449Y-108690500D01*
X173029454Y-108690500D01*
X173210551Y-108690500D01*
X173297259Y-108676765D01*
X173389409Y-108662171D01*
X173561639Y-108606211D01*
X173722994Y-108523996D01*
X173869501Y-108417553D01*
X173997553Y-108289501D01*
X174103996Y-108142994D01*
X174186211Y-107981639D01*
X174242171Y-107809409D01*
X174256765Y-107717259D01*
X174270500Y-107630551D01*
X174270500Y-107449448D01*
X174254019Y-107345397D01*
X174242171Y-107270591D01*
X174186211Y-107098361D01*
X174186211Y-107098360D01*
X174140353Y-107008360D01*
X174103996Y-106937006D01*
X174013080Y-106811870D01*
X173997558Y-106790505D01*
X173997554Y-106790500D01*
X173869499Y-106662445D01*
X173869494Y-106662441D01*
X173722997Y-106556006D01*
X173722996Y-106556005D01*
X173722994Y-106556004D01*
X173669835Y-106528918D01*
X173561639Y-106473788D01*
X173561636Y-106473787D01*
X173389410Y-106417829D01*
X173210551Y-106389500D01*
X173210546Y-106389500D01*
X173029454Y-106389500D01*
X173029449Y-106389500D01*
X172850589Y-106417829D01*
X172678363Y-106473787D01*
X172678360Y-106473788D01*
X172517002Y-106556006D01*
X172370505Y-106662441D01*
X172370500Y-106662445D01*
X172242445Y-106790500D01*
X172242441Y-106790505D01*
X172136006Y-106937002D01*
X172053788Y-107098360D01*
X172053787Y-107098363D01*
X171997829Y-107270589D01*
X171969500Y-107449448D01*
X167240500Y-107449448D01*
X167240500Y-107359448D01*
X167224019Y-107255397D01*
X167212171Y-107180591D01*
X167165959Y-107038363D01*
X167156212Y-107008363D01*
X167156211Y-107008360D01*
X167127740Y-106952484D01*
X167073996Y-106847006D01*
X167032942Y-106790500D01*
X166967558Y-106700505D01*
X166967554Y-106700500D01*
X166839499Y-106572445D01*
X166839494Y-106572441D01*
X166692997Y-106466006D01*
X166692996Y-106466005D01*
X166692994Y-106466004D01*
X166641300Y-106439664D01*
X166531639Y-106383788D01*
X166531636Y-106383787D01*
X166359410Y-106327829D01*
X166180551Y-106299500D01*
X166180546Y-106299500D01*
X165999454Y-106299500D01*
X165999449Y-106299500D01*
X165820589Y-106327829D01*
X165648363Y-106383787D01*
X165648360Y-106383788D01*
X165487002Y-106466006D01*
X165340505Y-106572441D01*
X165340500Y-106572445D01*
X165212445Y-106700500D01*
X165212441Y-106700505D01*
X165106006Y-106847002D01*
X165023788Y-107008360D01*
X165023787Y-107008363D01*
X164967829Y-107180589D01*
X164939500Y-107359448D01*
X159765748Y-107359448D01*
X159751674Y-107270589D01*
X159742171Y-107210591D01*
X159686211Y-107038361D01*
X159686211Y-107038360D01*
X159657740Y-106982484D01*
X159603996Y-106877006D01*
X159541146Y-106790500D01*
X159497558Y-106730505D01*
X159497554Y-106730500D01*
X159369499Y-106602445D01*
X159369494Y-106602441D01*
X159222997Y-106496006D01*
X159222996Y-106496005D01*
X159222994Y-106496004D01*
X159164116Y-106466004D01*
X159061639Y-106413788D01*
X159061636Y-106413787D01*
X158889410Y-106357829D01*
X158710551Y-106329500D01*
X158710546Y-106329500D01*
X158529454Y-106329500D01*
X158529449Y-106329500D01*
X158350589Y-106357829D01*
X158178363Y-106413787D01*
X158178360Y-106413788D01*
X158017002Y-106496006D01*
X157870505Y-106602441D01*
X157870500Y-106602445D01*
X157742445Y-106730500D01*
X157742441Y-106730505D01*
X157636006Y-106877002D01*
X157553788Y-107038360D01*
X157553787Y-107038363D01*
X157497829Y-107210589D01*
X157469500Y-107389448D01*
X152566996Y-107389448D01*
X152873723Y-107082721D01*
X152792172Y-107020145D01*
X152792171Y-107020144D01*
X152587828Y-106902165D01*
X152587819Y-106902160D01*
X152369836Y-106811870D01*
X152369838Y-106811870D01*
X152141914Y-106750799D01*
X151907985Y-106720000D01*
X151672014Y-106720000D01*
X151438085Y-106750799D01*
X151210162Y-106811870D01*
X150992180Y-106902160D01*
X150992171Y-106902165D01*
X150787828Y-107020144D01*
X150787818Y-107020150D01*
X150706275Y-107082720D01*
X150706275Y-107082721D01*
X151427707Y-107804153D01*
X151411058Y-107811050D01*
X151280030Y-107898600D01*
X151168600Y-108010030D01*
X151081050Y-108141058D01*
X151074153Y-108157707D01*
X150352721Y-107436275D01*
X150352720Y-107436275D01*
X150290150Y-107517818D01*
X150290144Y-107517828D01*
X150172165Y-107722171D01*
X150172160Y-107722180D01*
X150081870Y-107940162D01*
X150020799Y-108168085D01*
X149990000Y-108402014D01*
X97723780Y-108402014D01*
X97723780Y-105853920D01*
X109709499Y-105853920D01*
X109738340Y-105998907D01*
X109738343Y-105998917D01*
X109794912Y-106135488D01*
X109794919Y-106135501D01*
X109877048Y-106258415D01*
X109877051Y-106258419D01*
X109981580Y-106362948D01*
X109981584Y-106362951D01*
X110104498Y-106445080D01*
X110104511Y-106445087D01*
X110227437Y-106496004D01*
X110241087Y-106501658D01*
X110241091Y-106501658D01*
X110241092Y-106501659D01*
X110386079Y-106530500D01*
X110386082Y-106530500D01*
X110533920Y-106530500D01*
X110631462Y-106511096D01*
X110678913Y-106501658D01*
X110815495Y-106445084D01*
X110938416Y-106362951D01*
X111042951Y-106258416D01*
X111125084Y-106135495D01*
X111181658Y-105998913D01*
X111210500Y-105853918D01*
X111210500Y-105706082D01*
X111210500Y-105706079D01*
X111181659Y-105561092D01*
X111181658Y-105561091D01*
X111181658Y-105561087D01*
X111181656Y-105561082D01*
X111125087Y-105424511D01*
X111125080Y-105424498D01*
X111042951Y-105301584D01*
X111042948Y-105301580D01*
X110938419Y-105197051D01*
X110938415Y-105197048D01*
X110815501Y-105114919D01*
X110815488Y-105114912D01*
X110678917Y-105058343D01*
X110678907Y-105058340D01*
X110533920Y-105029500D01*
X110533918Y-105029500D01*
X110386082Y-105029500D01*
X110386080Y-105029500D01*
X110241092Y-105058340D01*
X110241082Y-105058343D01*
X110104511Y-105114912D01*
X110104498Y-105114919D01*
X109981584Y-105197048D01*
X109981580Y-105197051D01*
X109877051Y-105301580D01*
X109877048Y-105301584D01*
X109794919Y-105424498D01*
X109794912Y-105424511D01*
X109738343Y-105561082D01*
X109738340Y-105561092D01*
X109709500Y-105706079D01*
X109709500Y-105706082D01*
X109709500Y-105853918D01*
X109709500Y-105853920D01*
X109709499Y-105853920D01*
X97723780Y-105853920D01*
X97723780Y-104528920D01*
X114009499Y-104528920D01*
X114038340Y-104673907D01*
X114038343Y-104673917D01*
X114094912Y-104810488D01*
X114094919Y-104810501D01*
X114177048Y-104933415D01*
X114177051Y-104933419D01*
X114281580Y-105037948D01*
X114281584Y-105037951D01*
X114404507Y-105120086D01*
X114405549Y-105120643D01*
X114405992Y-105121078D01*
X114409570Y-105123469D01*
X114409116Y-105124147D01*
X114455392Y-105169606D01*
X114470852Y-105237744D01*
X114447019Y-105303423D01*
X114409291Y-105336114D01*
X114409570Y-105336531D01*
X114406251Y-105338748D01*
X114405549Y-105339357D01*
X114404507Y-105339913D01*
X114281584Y-105422048D01*
X114281580Y-105422051D01*
X114177051Y-105526580D01*
X114177048Y-105526584D01*
X114094919Y-105649498D01*
X114094912Y-105649511D01*
X114038343Y-105786082D01*
X114038340Y-105786092D01*
X114009500Y-105931079D01*
X114009500Y-105931082D01*
X114009500Y-106528918D01*
X114009500Y-106528920D01*
X114009499Y-106528920D01*
X114038340Y-106673907D01*
X114038343Y-106673917D01*
X114094912Y-106810488D01*
X114094919Y-106810501D01*
X114177048Y-106933415D01*
X114177051Y-106933419D01*
X114281580Y-107037948D01*
X114281584Y-107037951D01*
X114404498Y-107120080D01*
X114404511Y-107120087D01*
X114541082Y-107176656D01*
X114541087Y-107176658D01*
X114541091Y-107176658D01*
X114541092Y-107176659D01*
X114686079Y-107205500D01*
X114686082Y-107205500D01*
X114833920Y-107205500D01*
X114931462Y-107186096D01*
X114978913Y-107176658D01*
X115115495Y-107120084D01*
X115238416Y-107037951D01*
X115342951Y-106933416D01*
X115425084Y-106810495D01*
X115481658Y-106673913D01*
X115495875Y-106602441D01*
X115510500Y-106528920D01*
X116009499Y-106528920D01*
X116038340Y-106673907D01*
X116038343Y-106673917D01*
X116094912Y-106810488D01*
X116094919Y-106810501D01*
X116177048Y-106933415D01*
X116177051Y-106933419D01*
X116281580Y-107037948D01*
X116281584Y-107037951D01*
X116404498Y-107120080D01*
X116404511Y-107120087D01*
X116541082Y-107176656D01*
X116541087Y-107176658D01*
X116541091Y-107176658D01*
X116541092Y-107176659D01*
X116686079Y-107205500D01*
X116686082Y-107205500D01*
X116833920Y-107205500D01*
X116931462Y-107186096D01*
X116978913Y-107176658D01*
X117115495Y-107120084D01*
X117238416Y-107037951D01*
X117342951Y-106933416D01*
X117425084Y-106810495D01*
X117481658Y-106673913D01*
X117495875Y-106602441D01*
X117510500Y-106528920D01*
X117510500Y-105931079D01*
X117481659Y-105786092D01*
X117481658Y-105786091D01*
X117481658Y-105786087D01*
X117448518Y-105706079D01*
X117425087Y-105649511D01*
X117425080Y-105649498D01*
X117342951Y-105526584D01*
X117342948Y-105526580D01*
X117238419Y-105422051D01*
X117238411Y-105422045D01*
X117216492Y-105407399D01*
X117171686Y-105353787D01*
X117162979Y-105284462D01*
X117193133Y-105221435D01*
X117229088Y-105193812D01*
X117235300Y-105190646D01*
X117235304Y-105190646D01*
X117348342Y-105133050D01*
X117438050Y-105043342D01*
X117495646Y-104930304D01*
X117495646Y-104930302D01*
X117495647Y-104930301D01*
X117510500Y-104836524D01*
X117510500Y-104760691D01*
X151329500Y-104760691D01*
X151329500Y-104879309D01*
X151360201Y-104993886D01*
X151419511Y-105096613D01*
X151503387Y-105180489D01*
X151606114Y-105239799D01*
X151720691Y-105270500D01*
X151720694Y-105270500D01*
X151839306Y-105270500D01*
X151839309Y-105270500D01*
X151953886Y-105239799D01*
X152056613Y-105180489D01*
X152140489Y-105096613D01*
X152199799Y-104993886D01*
X152230500Y-104879309D01*
X152230500Y-104760691D01*
X152199799Y-104646114D01*
X152140489Y-104543387D01*
X152056613Y-104459511D01*
X151953886Y-104400201D01*
X151839309Y-104369500D01*
X151720691Y-104369500D01*
X151606114Y-104400201D01*
X151606112Y-104400201D01*
X151606112Y-104400202D01*
X151503387Y-104459511D01*
X151503384Y-104459513D01*
X151419513Y-104543384D01*
X151419511Y-104543387D01*
X151360201Y-104646114D01*
X151329500Y-104760691D01*
X117510500Y-104760691D01*
X117510500Y-104752564D01*
X117510499Y-103701565D01*
X135023500Y-103701565D01*
X135023500Y-103800435D01*
X135049090Y-103895938D01*
X135098525Y-103981562D01*
X135168438Y-104051475D01*
X135254062Y-104100910D01*
X135349565Y-104126500D01*
X135349567Y-104126500D01*
X135448432Y-104126500D01*
X135448435Y-104126500D01*
X135543938Y-104100910D01*
X135629562Y-104051475D01*
X135699475Y-103981562D01*
X135748910Y-103895938D01*
X135774500Y-103800435D01*
X135774500Y-103701565D01*
X135748910Y-103606062D01*
X135699475Y-103520438D01*
X135629562Y-103450525D01*
X135543938Y-103401090D01*
X135448435Y-103375500D01*
X135349565Y-103375500D01*
X135254062Y-103401090D01*
X135254060Y-103401091D01*
X135254059Y-103401091D01*
X135168436Y-103450526D01*
X135098526Y-103520436D01*
X135049091Y-103606059D01*
X135049091Y-103606060D01*
X135049090Y-103606062D01*
X135023500Y-103701565D01*
X117510499Y-103701565D01*
X117510499Y-103693438D01*
X117510499Y-103623482D01*
X117507740Y-103606060D01*
X117495646Y-103529696D01*
X117438050Y-103416658D01*
X117438046Y-103416654D01*
X117438045Y-103416652D01*
X117348347Y-103326954D01*
X117348344Y-103326952D01*
X117348342Y-103326950D01*
X117262753Y-103283340D01*
X117235301Y-103269352D01*
X117141524Y-103254500D01*
X116378482Y-103254500D01*
X116297519Y-103267323D01*
X116284696Y-103269354D01*
X116171658Y-103326950D01*
X116171657Y-103326951D01*
X116171652Y-103326954D01*
X116081954Y-103416652D01*
X116081951Y-103416657D01*
X116081950Y-103416658D01*
X116064694Y-103450525D01*
X116024352Y-103529698D01*
X116009500Y-103623475D01*
X116009500Y-104836517D01*
X116016277Y-104879306D01*
X116024354Y-104930304D01*
X116081950Y-105043342D01*
X116081952Y-105043344D01*
X116081954Y-105043347D01*
X116171652Y-105133045D01*
X116171654Y-105133046D01*
X116171658Y-105133050D01*
X116284696Y-105190646D01*
X116284698Y-105190646D01*
X116290911Y-105193812D01*
X116341707Y-105241787D01*
X116358502Y-105309608D01*
X116335965Y-105375743D01*
X116303510Y-105407397D01*
X116281585Y-105422047D01*
X116281580Y-105422051D01*
X116177051Y-105526580D01*
X116177048Y-105526584D01*
X116094919Y-105649498D01*
X116094912Y-105649511D01*
X116038343Y-105786082D01*
X116038340Y-105786092D01*
X116009500Y-105931079D01*
X116009500Y-105931082D01*
X116009500Y-106528918D01*
X116009500Y-106528920D01*
X116009499Y-106528920D01*
X115510500Y-106528920D01*
X115510500Y-105931079D01*
X115481659Y-105786092D01*
X115481658Y-105786091D01*
X115481658Y-105786087D01*
X115448518Y-105706079D01*
X115425087Y-105649511D01*
X115425080Y-105649498D01*
X115342951Y-105526584D01*
X115342948Y-105526580D01*
X115238419Y-105422051D01*
X115238415Y-105422048D01*
X115115498Y-105339917D01*
X115114457Y-105339361D01*
X115114013Y-105338925D01*
X115110430Y-105336531D01*
X115110884Y-105335851D01*
X115064611Y-105290401D01*
X115049147Y-105222265D01*
X115072975Y-105156584D01*
X115110709Y-105123886D01*
X115110430Y-105123469D01*
X115113754Y-105121247D01*
X115114457Y-105120639D01*
X115115491Y-105120085D01*
X115115495Y-105120084D01*
X115238416Y-105037951D01*
X115342951Y-104933416D01*
X115425084Y-104810495D01*
X115481658Y-104673913D01*
X115507622Y-104543387D01*
X115510500Y-104528920D01*
X115510500Y-103931079D01*
X115481659Y-103786092D01*
X115481658Y-103786091D01*
X115481658Y-103786087D01*
X115425084Y-103649505D01*
X115425080Y-103649498D01*
X115342951Y-103526584D01*
X115342948Y-103526580D01*
X115238419Y-103422051D01*
X115238415Y-103422048D01*
X115115501Y-103339919D01*
X115115488Y-103339912D01*
X114978917Y-103283343D01*
X114978907Y-103283340D01*
X114833920Y-103254500D01*
X114833918Y-103254500D01*
X114686082Y-103254500D01*
X114686080Y-103254500D01*
X114541092Y-103283340D01*
X114541082Y-103283343D01*
X114404511Y-103339912D01*
X114404498Y-103339919D01*
X114281584Y-103422048D01*
X114281580Y-103422051D01*
X114177051Y-103526580D01*
X114177048Y-103526584D01*
X114094919Y-103649498D01*
X114094912Y-103649511D01*
X114038343Y-103786082D01*
X114038340Y-103786092D01*
X114009500Y-103931079D01*
X114009500Y-103931082D01*
X114009500Y-104528918D01*
X114009500Y-104528920D01*
X114009499Y-104528920D01*
X97723780Y-104528920D01*
X97723780Y-102100565D01*
X135624500Y-102100565D01*
X135624500Y-102199435D01*
X135650090Y-102294938D01*
X135699525Y-102380562D01*
X135769438Y-102450475D01*
X135855062Y-102499910D01*
X135950565Y-102525500D01*
X135950567Y-102525500D01*
X136049432Y-102525500D01*
X136049435Y-102525500D01*
X136144938Y-102499910D01*
X136230562Y-102450475D01*
X136300475Y-102380562D01*
X136349910Y-102294938D01*
X136375500Y-102199435D01*
X136375500Y-102100565D01*
X136349910Y-102005062D01*
X136300475Y-101919438D01*
X136230562Y-101849525D01*
X136144938Y-101800090D01*
X136049435Y-101774500D01*
X135950565Y-101774500D01*
X135855062Y-101800090D01*
X135855060Y-101800091D01*
X135855059Y-101800091D01*
X135769436Y-101849526D01*
X135699526Y-101919436D01*
X135650091Y-102005059D01*
X135650091Y-102005060D01*
X135650090Y-102005062D01*
X135624500Y-102100565D01*
X97723780Y-102100565D01*
X97723780Y-101140691D01*
X119369500Y-101140691D01*
X119369500Y-101259309D01*
X119400201Y-101373886D01*
X119459511Y-101476613D01*
X119543387Y-101560489D01*
X119646114Y-101619799D01*
X119760691Y-101650500D01*
X119760694Y-101650500D01*
X119879306Y-101650500D01*
X119879309Y-101650500D01*
X119993886Y-101619799D01*
X120096613Y-101560489D01*
X120180489Y-101476613D01*
X120239799Y-101373886D01*
X120270500Y-101259309D01*
X120270500Y-101140691D01*
X120239799Y-101026114D01*
X120180489Y-100923387D01*
X120104627Y-100847525D01*
X147449500Y-100847525D01*
X147449500Y-100992475D01*
X147476214Y-101092170D01*
X147487017Y-101132488D01*
X147559488Y-101258011D01*
X147559490Y-101258013D01*
X147559491Y-101258015D01*
X147661985Y-101360509D01*
X147661986Y-101360510D01*
X147661988Y-101360511D01*
X147787511Y-101432982D01*
X147787512Y-101432982D01*
X147787515Y-101432984D01*
X147927525Y-101470500D01*
X147927528Y-101470500D01*
X148072472Y-101470500D01*
X148072475Y-101470500D01*
X148212485Y-101432984D01*
X148338015Y-101360509D01*
X148440509Y-101258015D01*
X148512984Y-101132485D01*
X148550500Y-100992475D01*
X148550500Y-100847525D01*
X148512984Y-100707515D01*
X148440509Y-100581985D01*
X148338015Y-100479491D01*
X148338013Y-100479490D01*
X148338011Y-100479488D01*
X148212488Y-100407017D01*
X148212489Y-100407017D01*
X148188458Y-100400578D01*
X148072475Y-100369500D01*
X147927525Y-100369500D01*
X147811542Y-100400578D01*
X147787511Y-100407017D01*
X147661988Y-100479488D01*
X147661982Y-100479493D01*
X147559493Y-100581982D01*
X147559488Y-100581988D01*
X147487017Y-100707511D01*
X147487016Y-100707515D01*
X147449500Y-100847525D01*
X120104627Y-100847525D01*
X120096613Y-100839511D01*
X119993886Y-100780201D01*
X119879309Y-100749500D01*
X119760691Y-100749500D01*
X119646114Y-100780201D01*
X119646112Y-100780201D01*
X119646112Y-100780202D01*
X119543387Y-100839511D01*
X119543384Y-100839513D01*
X119459513Y-100923384D01*
X119459511Y-100923387D01*
X119400201Y-101026114D01*
X119369500Y-101140691D01*
X97723780Y-101140691D01*
X97723780Y-99603920D01*
X98479499Y-99603920D01*
X98508340Y-99748907D01*
X98508343Y-99748917D01*
X98564912Y-99885488D01*
X98564919Y-99885501D01*
X98647048Y-100008415D01*
X98647051Y-100008419D01*
X98751580Y-100112948D01*
X98751584Y-100112951D01*
X98874498Y-100195080D01*
X98874511Y-100195087D01*
X99011082Y-100251656D01*
X99011087Y-100251658D01*
X99011091Y-100251658D01*
X99011092Y-100251659D01*
X99156079Y-100280500D01*
X99156082Y-100280500D01*
X99303920Y-100280500D01*
X99401462Y-100261096D01*
X99448913Y-100251658D01*
X99585495Y-100195084D01*
X99708416Y-100112951D01*
X99812951Y-100008416D01*
X99895084Y-99885495D01*
X99951658Y-99748913D01*
X99980500Y-99603918D01*
X99980500Y-99456082D01*
X99980500Y-99456079D01*
X99951659Y-99311092D01*
X99951658Y-99311091D01*
X99951658Y-99311087D01*
X99914136Y-99220500D01*
X99895087Y-99174511D01*
X99895081Y-99174500D01*
X99851891Y-99109861D01*
X99851890Y-99109860D01*
X99812951Y-99051584D01*
X99812948Y-99051580D01*
X99807205Y-99045837D01*
X125209500Y-99045837D01*
X125209500Y-99274162D01*
X125245215Y-99499660D01*
X125315770Y-99716803D01*
X125401720Y-99885488D01*
X125419421Y-99920228D01*
X125553621Y-100104937D01*
X125715063Y-100266379D01*
X125899772Y-100400579D01*
X125921473Y-100411636D01*
X126103196Y-100504229D01*
X126103198Y-100504229D01*
X126103201Y-100504231D01*
X126219592Y-100542049D01*
X126320339Y-100574784D01*
X126545838Y-100610500D01*
X126545843Y-100610500D01*
X126774162Y-100610500D01*
X126999660Y-100574784D01*
X127005169Y-100572994D01*
X127216799Y-100504231D01*
X127420228Y-100400579D01*
X127604937Y-100266379D01*
X127766379Y-100104937D01*
X127900579Y-99920228D01*
X127921357Y-99879448D01*
X164989500Y-99879448D01*
X164989500Y-100060551D01*
X165017829Y-100239410D01*
X165073787Y-100411636D01*
X165073788Y-100411639D01*
X165156006Y-100572997D01*
X165262441Y-100719494D01*
X165262445Y-100719499D01*
X165390500Y-100847554D01*
X165390505Y-100847558D01*
X165494872Y-100923384D01*
X165537006Y-100953996D01*
X165612519Y-100992472D01*
X165698360Y-101036211D01*
X165698363Y-101036212D01*
X165784476Y-101064191D01*
X165870591Y-101092171D01*
X165953429Y-101105291D01*
X166049449Y-101120500D01*
X166049454Y-101120500D01*
X166230551Y-101120500D01*
X166317259Y-101106765D01*
X166409409Y-101092171D01*
X166581639Y-101036211D01*
X166742994Y-100953996D01*
X166889501Y-100847553D01*
X167017553Y-100719501D01*
X167123996Y-100572994D01*
X167206211Y-100411639D01*
X167262171Y-100239409D01*
X167282200Y-100112951D01*
X167290500Y-100060551D01*
X167290500Y-99879448D01*
X167269823Y-99748907D01*
X167262171Y-99700591D01*
X167206211Y-99528361D01*
X167206211Y-99528360D01*
X167169381Y-99456079D01*
X167123996Y-99367006D01*
X167110396Y-99348287D01*
X167017558Y-99220505D01*
X167017554Y-99220500D01*
X166889499Y-99092445D01*
X166889494Y-99092441D01*
X166742997Y-98986006D01*
X166742996Y-98986005D01*
X166742994Y-98986004D01*
X166666539Y-98947048D01*
X166581639Y-98903788D01*
X166581636Y-98903787D01*
X166409410Y-98847829D01*
X166230551Y-98819500D01*
X166230546Y-98819500D01*
X166049454Y-98819500D01*
X166049449Y-98819500D01*
X165870589Y-98847829D01*
X165698363Y-98903787D01*
X165698360Y-98903788D01*
X165537002Y-98986006D01*
X165390505Y-99092441D01*
X165390500Y-99092445D01*
X165262445Y-99220500D01*
X165262441Y-99220505D01*
X165156006Y-99367002D01*
X165073788Y-99528360D01*
X165073787Y-99528363D01*
X165017829Y-99700589D01*
X164989500Y-99879448D01*
X127921357Y-99879448D01*
X128004231Y-99716799D01*
X128074784Y-99499660D01*
X128081687Y-99456079D01*
X128110500Y-99274162D01*
X128110500Y-99045837D01*
X128074784Y-98820339D01*
X128004229Y-98603196D01*
X127907058Y-98412488D01*
X127900579Y-98399772D01*
X127766379Y-98215063D01*
X127604937Y-98053621D01*
X127420228Y-97919421D01*
X127376654Y-97897219D01*
X127216803Y-97815770D01*
X126999660Y-97745215D01*
X126774162Y-97709500D01*
X126774157Y-97709500D01*
X126545843Y-97709500D01*
X126545838Y-97709500D01*
X126320339Y-97745215D01*
X126103196Y-97815770D01*
X125899771Y-97919421D01*
X125715061Y-98053622D01*
X125553622Y-98215061D01*
X125419421Y-98399771D01*
X125315770Y-98603196D01*
X125245215Y-98820339D01*
X125209500Y-99045837D01*
X99807205Y-99045837D01*
X99708419Y-98947051D01*
X99708415Y-98947048D01*
X99585501Y-98864919D01*
X99585488Y-98864912D01*
X99448917Y-98808343D01*
X99448907Y-98808340D01*
X99303920Y-98779500D01*
X99303918Y-98779500D01*
X99156082Y-98779500D01*
X99156080Y-98779500D01*
X99011092Y-98808340D01*
X99011082Y-98808343D01*
X98874511Y-98864912D01*
X98874498Y-98864919D01*
X98751584Y-98947048D01*
X98751580Y-98947051D01*
X98647051Y-99051580D01*
X98647048Y-99051584D01*
X98564919Y-99174498D01*
X98564912Y-99174511D01*
X98508343Y-99311082D01*
X98508340Y-99311092D01*
X98479500Y-99456079D01*
X98479500Y-99456082D01*
X98479500Y-99603918D01*
X98479500Y-99603920D01*
X98479499Y-99603920D01*
X97723780Y-99603920D01*
X97723780Y-98127525D01*
X111419500Y-98127525D01*
X111419500Y-98272475D01*
X111453610Y-98399772D01*
X111457017Y-98412488D01*
X111529488Y-98538011D01*
X111529490Y-98538013D01*
X111529491Y-98538015D01*
X111631985Y-98640509D01*
X111631986Y-98640510D01*
X111631988Y-98640511D01*
X111757511Y-98712982D01*
X111757512Y-98712982D01*
X111757515Y-98712984D01*
X111897525Y-98750500D01*
X111897528Y-98750500D01*
X112042472Y-98750500D01*
X112042475Y-98750500D01*
X112182485Y-98712984D01*
X112308015Y-98640509D01*
X112410509Y-98538015D01*
X112482984Y-98412485D01*
X112520500Y-98272475D01*
X112520500Y-98127525D01*
X112482984Y-97987515D01*
X112430851Y-97897219D01*
X112410511Y-97861988D01*
X112410506Y-97861982D01*
X112308017Y-97759493D01*
X112308011Y-97759488D01*
X112182488Y-97687017D01*
X112182489Y-97687017D01*
X112158637Y-97680626D01*
X112042475Y-97649500D01*
X111897525Y-97649500D01*
X111781363Y-97680626D01*
X111757511Y-97687017D01*
X111631988Y-97759488D01*
X111631982Y-97759493D01*
X111529493Y-97861982D01*
X111529488Y-97861988D01*
X111457017Y-97987511D01*
X111457016Y-97987515D01*
X111419500Y-98127525D01*
X97723780Y-98127525D01*
X97723780Y-96936228D01*
X98349500Y-96936228D01*
X98349500Y-97103771D01*
X98382182Y-97268074D01*
X98382184Y-97268082D01*
X98446295Y-97422860D01*
X98539373Y-97562162D01*
X98657837Y-97680626D01*
X98734145Y-97731613D01*
X98797137Y-97773703D01*
X98951918Y-97837816D01*
X99073410Y-97861982D01*
X99116228Y-97870499D01*
X99116232Y-97870500D01*
X99116233Y-97870500D01*
X99683768Y-97870500D01*
X99683769Y-97870499D01*
X99848082Y-97837816D01*
X100002863Y-97773703D01*
X100142162Y-97680626D01*
X100260626Y-97562162D01*
X100353703Y-97422863D01*
X100417816Y-97268082D01*
X100450500Y-97103767D01*
X100450500Y-96936233D01*
X100417816Y-96771918D01*
X100353703Y-96617137D01*
X100260626Y-96477838D01*
X100260625Y-96477837D01*
X100260624Y-96477835D01*
X100212237Y-96429448D01*
X104609500Y-96429448D01*
X104609500Y-96610551D01*
X104637829Y-96789410D01*
X104693787Y-96961636D01*
X104693788Y-96961639D01*
X104734068Y-97040691D01*
X104766209Y-97103771D01*
X104776006Y-97122997D01*
X104882441Y-97269494D01*
X104882445Y-97269499D01*
X105010500Y-97397554D01*
X105010505Y-97397558D01*
X105045331Y-97422860D01*
X105157006Y-97503996D01*
X105248275Y-97550500D01*
X105318360Y-97586211D01*
X105318363Y-97586212D01*
X105404476Y-97614191D01*
X105490591Y-97642171D01*
X105573429Y-97655291D01*
X105669449Y-97670500D01*
X105669454Y-97670500D01*
X105850551Y-97670500D01*
X105937259Y-97656765D01*
X106029409Y-97642171D01*
X106201639Y-97586211D01*
X106362994Y-97503996D01*
X106509501Y-97397553D01*
X106637553Y-97269501D01*
X106743996Y-97122994D01*
X106826211Y-96961639D01*
X106882171Y-96789409D01*
X106899954Y-96677131D01*
X106903027Y-96657733D01*
X106932956Y-96594598D01*
X106992268Y-96557667D01*
X107062131Y-96558665D01*
X107120363Y-96597275D01*
X107148477Y-96661239D01*
X107149500Y-96677131D01*
X107149500Y-97534820D01*
X107149500Y-97534822D01*
X107149499Y-97534822D01*
X107158231Y-97578717D01*
X107158234Y-97578724D01*
X107191495Y-97628503D01*
X107191496Y-97628504D01*
X107241278Y-97661767D01*
X107241281Y-97661767D01*
X107241282Y-97661768D01*
X107285177Y-97670500D01*
X107285180Y-97670500D01*
X109314822Y-97670500D01*
X109358717Y-97661768D01*
X109358717Y-97661767D01*
X109358722Y-97661767D01*
X109408504Y-97628504D01*
X109441767Y-97578722D01*
X109450500Y-97534820D01*
X109450500Y-97040691D01*
X119479500Y-97040691D01*
X119479500Y-97159309D01*
X119510201Y-97273886D01*
X119569511Y-97376613D01*
X119653387Y-97460489D01*
X119756114Y-97519799D01*
X119870691Y-97550500D01*
X119870694Y-97550500D01*
X119989306Y-97550500D01*
X119989309Y-97550500D01*
X120103886Y-97519799D01*
X120206613Y-97460489D01*
X120290489Y-97376613D01*
X120349799Y-97273886D01*
X120380500Y-97159309D01*
X120380500Y-97040691D01*
X120355569Y-96947648D01*
X163289500Y-96947648D01*
X163289500Y-97152352D01*
X163290602Y-97159309D01*
X163321522Y-97354534D01*
X163384781Y-97549223D01*
X163432141Y-97642170D01*
X163466447Y-97709500D01*
X163477715Y-97731613D01*
X163598028Y-97897213D01*
X163742786Y-98041971D01*
X163897749Y-98154556D01*
X163908390Y-98162287D01*
X164011965Y-98215061D01*
X164090776Y-98255218D01*
X164090778Y-98255218D01*
X164090781Y-98255220D01*
X164195137Y-98289127D01*
X164285465Y-98318477D01*
X164386557Y-98334488D01*
X164487648Y-98350500D01*
X164487649Y-98350500D01*
X164692351Y-98350500D01*
X164692352Y-98350500D01*
X164894534Y-98318477D01*
X165089219Y-98255220D01*
X165271610Y-98162287D01*
X165421176Y-98053622D01*
X165437213Y-98041971D01*
X165437215Y-98041968D01*
X165437219Y-98041966D01*
X165581966Y-97897219D01*
X165581968Y-97897215D01*
X165581971Y-97897213D01*
X165671704Y-97773704D01*
X165702287Y-97731610D01*
X165795220Y-97549219D01*
X165858477Y-97354534D01*
X165890500Y-97152352D01*
X165890500Y-96947648D01*
X166389500Y-96947648D01*
X166389500Y-97152352D01*
X166390602Y-97159309D01*
X166421522Y-97354534D01*
X166484781Y-97549223D01*
X166532141Y-97642170D01*
X166566447Y-97709500D01*
X166577715Y-97731613D01*
X166698028Y-97897213D01*
X166842786Y-98041971D01*
X166997749Y-98154556D01*
X167008390Y-98162287D01*
X167111965Y-98215061D01*
X167190776Y-98255218D01*
X167190778Y-98255218D01*
X167190781Y-98255220D01*
X167295137Y-98289127D01*
X167385465Y-98318477D01*
X167486557Y-98334488D01*
X167587648Y-98350500D01*
X167587649Y-98350500D01*
X167792351Y-98350500D01*
X167792352Y-98350500D01*
X167994534Y-98318477D01*
X168189219Y-98255220D01*
X168371610Y-98162287D01*
X168521176Y-98053622D01*
X168537213Y-98041971D01*
X168537215Y-98041968D01*
X168537219Y-98041966D01*
X168681966Y-97897219D01*
X168681968Y-97897215D01*
X168681971Y-97897213D01*
X168771704Y-97773704D01*
X168802287Y-97731610D01*
X168895220Y-97549219D01*
X168958477Y-97354534D01*
X168990500Y-97152352D01*
X168990500Y-96947648D01*
X168962667Y-96771918D01*
X168958477Y-96745465D01*
X168905683Y-96582984D01*
X168895220Y-96550781D01*
X168895218Y-96550778D01*
X168895218Y-96550776D01*
X168856945Y-96475662D01*
X168802287Y-96368390D01*
X168794556Y-96357749D01*
X168681971Y-96202786D01*
X168537213Y-96058028D01*
X168371613Y-95937715D01*
X168371612Y-95937714D01*
X168371610Y-95937713D01*
X168314653Y-95908691D01*
X168189223Y-95844781D01*
X167994534Y-95781522D01*
X167819995Y-95753878D01*
X167792352Y-95749500D01*
X167587648Y-95749500D01*
X167563329Y-95753351D01*
X167385465Y-95781522D01*
X167190776Y-95844781D01*
X167008386Y-95937715D01*
X166842786Y-96058028D01*
X166698028Y-96202786D01*
X166577715Y-96368386D01*
X166484781Y-96550776D01*
X166421522Y-96745465D01*
X166409181Y-96823387D01*
X166389500Y-96947648D01*
X165890500Y-96947648D01*
X165862667Y-96771918D01*
X165858477Y-96745465D01*
X165805683Y-96582984D01*
X165795220Y-96550781D01*
X165795218Y-96550778D01*
X165795218Y-96550776D01*
X165756945Y-96475662D01*
X165702287Y-96368390D01*
X165694556Y-96357749D01*
X165581971Y-96202786D01*
X165437213Y-96058028D01*
X165271613Y-95937715D01*
X165271612Y-95937714D01*
X165271610Y-95937713D01*
X165214653Y-95908691D01*
X165089223Y-95844781D01*
X164894534Y-95781522D01*
X164719995Y-95753878D01*
X164692352Y-95749500D01*
X164487648Y-95749500D01*
X164463329Y-95753351D01*
X164285465Y-95781522D01*
X164090776Y-95844781D01*
X163908386Y-95937715D01*
X163742786Y-96058028D01*
X163598028Y-96202786D01*
X163477715Y-96368386D01*
X163384781Y-96550776D01*
X163321522Y-96745465D01*
X163309181Y-96823387D01*
X163289500Y-96947648D01*
X120355569Y-96947648D01*
X120349799Y-96926114D01*
X120290489Y-96823387D01*
X120206613Y-96739511D01*
X120103886Y-96680201D01*
X119989309Y-96649500D01*
X119870691Y-96649500D01*
X119756114Y-96680201D01*
X119756112Y-96680201D01*
X119756112Y-96680202D01*
X119653387Y-96739511D01*
X119653384Y-96739513D01*
X119569513Y-96823384D01*
X119569511Y-96823387D01*
X119510201Y-96926114D01*
X119479500Y-97040691D01*
X109450500Y-97040691D01*
X109450500Y-95997525D01*
X161769500Y-95997525D01*
X161769500Y-96142475D01*
X161807016Y-96282485D01*
X161807017Y-96282488D01*
X161879488Y-96408011D01*
X161879490Y-96408013D01*
X161879491Y-96408015D01*
X161981985Y-96510509D01*
X161981986Y-96510510D01*
X161981988Y-96510511D01*
X162107511Y-96582982D01*
X162107512Y-96582982D01*
X162107515Y-96582984D01*
X162247525Y-96620500D01*
X162247528Y-96620500D01*
X162392472Y-96620500D01*
X162392475Y-96620500D01*
X162532485Y-96582984D01*
X162658015Y-96510509D01*
X162760509Y-96408015D01*
X162832984Y-96282485D01*
X162870500Y-96142475D01*
X162870500Y-95997525D01*
X162832984Y-95857515D01*
X162825631Y-95844780D01*
X162760511Y-95731988D01*
X162760506Y-95731982D01*
X162658017Y-95629493D01*
X162658011Y-95629488D01*
X162532488Y-95557017D01*
X162532489Y-95557017D01*
X162521006Y-95553940D01*
X162392475Y-95519500D01*
X162247525Y-95519500D01*
X162118993Y-95553940D01*
X162107511Y-95557017D01*
X161981988Y-95629488D01*
X161981982Y-95629493D01*
X161879493Y-95731982D01*
X161879488Y-95731988D01*
X161807017Y-95857511D01*
X161807016Y-95857515D01*
X161769500Y-95997525D01*
X109450500Y-95997525D01*
X109450500Y-95505180D01*
X109450500Y-95505177D01*
X109441768Y-95461282D01*
X109441767Y-95461281D01*
X109441767Y-95461278D01*
X109408504Y-95411496D01*
X109388050Y-95397829D01*
X109358724Y-95378234D01*
X109358717Y-95378231D01*
X109314822Y-95369500D01*
X109314820Y-95369500D01*
X107285180Y-95369500D01*
X107285178Y-95369500D01*
X107241282Y-95378231D01*
X107241275Y-95378234D01*
X107191496Y-95411495D01*
X107191495Y-95411496D01*
X107158234Y-95461275D01*
X107158231Y-95461282D01*
X107149500Y-95505177D01*
X107149500Y-96362868D01*
X107129815Y-96429907D01*
X107077011Y-96475662D01*
X107007853Y-96485606D01*
X106944297Y-96456581D01*
X106906523Y-96397803D01*
X106903027Y-96382266D01*
X106887222Y-96282485D01*
X106882171Y-96250591D01*
X106826211Y-96078361D01*
X106826211Y-96078360D01*
X106785023Y-95997525D01*
X106743996Y-95917006D01*
X106730396Y-95898287D01*
X106637558Y-95770505D01*
X106637554Y-95770500D01*
X106509499Y-95642445D01*
X106509494Y-95642441D01*
X106362997Y-95536006D01*
X106362996Y-95536005D01*
X106362994Y-95536004D01*
X106302493Y-95505177D01*
X106201639Y-95453788D01*
X106201636Y-95453787D01*
X106029410Y-95397829D01*
X105850551Y-95369500D01*
X105850546Y-95369500D01*
X105669454Y-95369500D01*
X105669449Y-95369500D01*
X105490589Y-95397829D01*
X105318363Y-95453787D01*
X105318360Y-95453788D01*
X105157002Y-95536006D01*
X105010505Y-95642441D01*
X105010500Y-95642445D01*
X104882445Y-95770500D01*
X104882441Y-95770505D01*
X104776006Y-95917002D01*
X104693788Y-96078360D01*
X104693787Y-96078363D01*
X104637829Y-96250589D01*
X104609500Y-96429448D01*
X100212237Y-96429448D01*
X100142162Y-96359373D01*
X100002860Y-96266295D01*
X99848082Y-96202184D01*
X99848074Y-96202182D01*
X99683771Y-96169500D01*
X99683767Y-96169500D01*
X99116233Y-96169500D01*
X99116228Y-96169500D01*
X98951925Y-96202182D01*
X98951917Y-96202184D01*
X98797139Y-96266295D01*
X98657837Y-96359373D01*
X98539373Y-96477837D01*
X98446295Y-96617139D01*
X98382184Y-96771917D01*
X98382182Y-96771925D01*
X98349500Y-96936228D01*
X97723780Y-96936228D01*
X97723780Y-94447525D01*
X152089500Y-94447525D01*
X152089500Y-94592475D01*
X152127016Y-94732485D01*
X152127017Y-94732488D01*
X152199488Y-94858011D01*
X152199490Y-94858013D01*
X152199491Y-94858015D01*
X152301985Y-94960509D01*
X152301986Y-94960510D01*
X152301988Y-94960511D01*
X152427511Y-95032982D01*
X152427512Y-95032982D01*
X152427515Y-95032984D01*
X152567525Y-95070500D01*
X152567528Y-95070500D01*
X152712472Y-95070500D01*
X152712475Y-95070500D01*
X152852485Y-95032984D01*
X152978015Y-94960509D01*
X153080509Y-94858015D01*
X153152984Y-94732485D01*
X153177580Y-94640691D01*
X168049500Y-94640691D01*
X168049500Y-94759309D01*
X168080201Y-94873886D01*
X168139511Y-94976613D01*
X168223387Y-95060489D01*
X168326114Y-95119799D01*
X168440691Y-95150500D01*
X168440694Y-95150500D01*
X168559306Y-95150500D01*
X168559309Y-95150500D01*
X168673886Y-95119799D01*
X168776613Y-95060489D01*
X168860489Y-94976613D01*
X168919799Y-94873886D01*
X168950500Y-94759309D01*
X168950500Y-94640691D01*
X168919799Y-94526114D01*
X168860489Y-94423387D01*
X168776613Y-94339511D01*
X168673886Y-94280201D01*
X168559309Y-94249500D01*
X168440691Y-94249500D01*
X168326114Y-94280201D01*
X168326112Y-94280201D01*
X168326112Y-94280202D01*
X168223387Y-94339511D01*
X168223384Y-94339513D01*
X168139513Y-94423384D01*
X168139511Y-94423387D01*
X168080201Y-94526114D01*
X168049500Y-94640691D01*
X153177580Y-94640691D01*
X153190500Y-94592475D01*
X153190500Y-94447525D01*
X153152984Y-94307515D01*
X153137214Y-94280201D01*
X153080511Y-94181988D01*
X153080506Y-94181982D01*
X152978017Y-94079493D01*
X152978011Y-94079488D01*
X152852488Y-94007017D01*
X152852489Y-94007017D01*
X152841006Y-94003940D01*
X152712475Y-93969500D01*
X152567525Y-93969500D01*
X152438993Y-94003940D01*
X152427511Y-94007017D01*
X152301988Y-94079488D01*
X152301982Y-94079493D01*
X152199493Y-94181982D01*
X152199488Y-94181988D01*
X152127017Y-94307511D01*
X152127016Y-94307515D01*
X152089500Y-94447525D01*
X97723780Y-94447525D01*
X97723780Y-92450170D01*
X104148979Y-92450170D01*
X104148979Y-92568788D01*
X104179680Y-92683365D01*
X104238990Y-92786092D01*
X104322866Y-92869968D01*
X104425593Y-92929278D01*
X104540170Y-92959979D01*
X104540173Y-92959979D01*
X104626021Y-92959979D01*
X104693060Y-92979664D01*
X104738815Y-93032468D01*
X104750021Y-93083979D01*
X104750021Y-93169830D01*
X104780722Y-93284407D01*
X104840032Y-93387134D01*
X104923908Y-93471010D01*
X105026635Y-93530320D01*
X105141212Y-93561021D01*
X105141215Y-93561021D01*
X105259827Y-93561021D01*
X105259830Y-93561021D01*
X105374407Y-93530320D01*
X105477134Y-93471010D01*
X105561010Y-93387134D01*
X105620320Y-93284407D01*
X105635562Y-93227525D01*
X151129500Y-93227525D01*
X151129500Y-93372475D01*
X151155903Y-93471010D01*
X151167017Y-93512488D01*
X151239488Y-93638011D01*
X151239490Y-93638013D01*
X151239491Y-93638015D01*
X151341985Y-93740509D01*
X151341986Y-93740510D01*
X151341988Y-93740511D01*
X151467511Y-93812982D01*
X151467512Y-93812982D01*
X151467515Y-93812984D01*
X151607525Y-93850500D01*
X151607528Y-93850500D01*
X151752472Y-93850500D01*
X151752475Y-93850500D01*
X151892485Y-93812984D01*
X152018015Y-93740509D01*
X152070999Y-93687525D01*
X159049500Y-93687525D01*
X159049500Y-93832475D01*
X159086216Y-93969500D01*
X159087017Y-93972488D01*
X159159488Y-94098011D01*
X159159490Y-94098013D01*
X159159491Y-94098015D01*
X159261985Y-94200509D01*
X159261986Y-94200510D01*
X159261988Y-94200511D01*
X159387511Y-94272982D01*
X159387512Y-94272982D01*
X159387515Y-94272984D01*
X159527525Y-94310500D01*
X159527528Y-94310500D01*
X159672472Y-94310500D01*
X159672475Y-94310500D01*
X159812485Y-94272984D01*
X159938015Y-94200509D01*
X160040509Y-94098015D01*
X160112984Y-93972485D01*
X160150500Y-93832475D01*
X160150500Y-93687525D01*
X160112984Y-93547515D01*
X160103056Y-93530320D01*
X160040511Y-93421988D01*
X160040506Y-93421982D01*
X159938017Y-93319493D01*
X159938011Y-93319488D01*
X159812488Y-93247017D01*
X159812489Y-93247017D01*
X159801006Y-93243940D01*
X159672475Y-93209500D01*
X159527525Y-93209500D01*
X159398993Y-93243940D01*
X159387511Y-93247017D01*
X159261988Y-93319488D01*
X159261982Y-93319493D01*
X159159493Y-93421982D01*
X159159488Y-93421988D01*
X159087017Y-93547511D01*
X159087016Y-93547515D01*
X159049500Y-93687525D01*
X152070999Y-93687525D01*
X152120509Y-93638015D01*
X152192984Y-93512485D01*
X152230500Y-93372475D01*
X152230500Y-93227525D01*
X152192984Y-93087515D01*
X152190942Y-93083979D01*
X152120511Y-92961988D01*
X152120506Y-92961982D01*
X152018017Y-92859493D01*
X152018011Y-92859488D01*
X151892488Y-92787017D01*
X151892489Y-92787017D01*
X151881006Y-92783940D01*
X151752475Y-92749500D01*
X151607525Y-92749500D01*
X151478993Y-92783940D01*
X151467511Y-92787017D01*
X151341988Y-92859488D01*
X151341982Y-92859493D01*
X151239493Y-92961982D01*
X151239488Y-92961988D01*
X151167017Y-93087511D01*
X151167016Y-93087515D01*
X151129500Y-93227525D01*
X105635562Y-93227525D01*
X105651021Y-93169830D01*
X105651021Y-93051212D01*
X105620320Y-92936635D01*
X105561010Y-92833908D01*
X105477134Y-92750032D01*
X105374407Y-92690722D01*
X105259830Y-92660021D01*
X105173979Y-92660021D01*
X105172925Y-92659711D01*
X105171867Y-92660003D01*
X105139479Y-92649890D01*
X105106940Y-92640336D01*
X105106221Y-92639506D01*
X105105172Y-92639179D01*
X105083376Y-92613142D01*
X105061185Y-92587532D01*
X105060797Y-92586169D01*
X105060324Y-92585604D01*
X105059463Y-92581478D01*
X105050958Y-92551575D01*
X105049979Y-92543831D01*
X105049979Y-92450170D01*
X105023324Y-92350691D01*
X148589500Y-92350691D01*
X148589500Y-92469309D01*
X148620201Y-92583886D01*
X148679511Y-92686613D01*
X148763387Y-92770489D01*
X148866114Y-92829799D01*
X148980691Y-92860500D01*
X148980694Y-92860500D01*
X149099306Y-92860500D01*
X149099309Y-92860500D01*
X149213886Y-92829799D01*
X149316613Y-92770489D01*
X149400489Y-92686613D01*
X149459799Y-92583886D01*
X149490500Y-92469309D01*
X149490500Y-92350691D01*
X149459799Y-92236114D01*
X149400489Y-92133387D01*
X149316613Y-92049511D01*
X149213886Y-91990201D01*
X149099309Y-91959500D01*
X148980691Y-91959500D01*
X148866114Y-91990201D01*
X148866112Y-91990201D01*
X148866112Y-91990202D01*
X148763387Y-92049511D01*
X148763384Y-92049513D01*
X148679513Y-92133384D01*
X148679511Y-92133387D01*
X148670503Y-92148990D01*
X148620201Y-92236114D01*
X148589500Y-92350691D01*
X105023324Y-92350691D01*
X105019278Y-92335593D01*
X104959968Y-92232866D01*
X104876092Y-92148990D01*
X104773365Y-92089680D01*
X104658788Y-92058979D01*
X104540170Y-92058979D01*
X104425593Y-92089680D01*
X104425591Y-92089680D01*
X104425591Y-92089681D01*
X104322866Y-92148990D01*
X104322863Y-92148992D01*
X104238992Y-92232863D01*
X104238990Y-92232866D01*
X104179680Y-92335593D01*
X104148979Y-92450170D01*
X97723780Y-92450170D01*
X97723780Y-91414071D01*
X103149499Y-91414071D01*
X103174497Y-91539738D01*
X103174499Y-91539744D01*
X103223533Y-91658124D01*
X103223538Y-91658133D01*
X103294723Y-91764668D01*
X103294726Y-91764672D01*
X103385327Y-91855273D01*
X103385331Y-91855276D01*
X103491866Y-91926461D01*
X103491872Y-91926464D01*
X103491873Y-91926465D01*
X103610256Y-91975501D01*
X103610260Y-91975501D01*
X103610261Y-91975502D01*
X103735928Y-92000500D01*
X103735931Y-92000500D01*
X103864071Y-92000500D01*
X103964683Y-91980486D01*
X103989744Y-91975501D01*
X104108127Y-91926465D01*
X104214669Y-91855276D01*
X104305276Y-91764669D01*
X104376465Y-91658127D01*
X104416824Y-91560691D01*
X120449500Y-91560691D01*
X120449500Y-91679309D01*
X120480201Y-91793886D01*
X120539511Y-91896613D01*
X120623387Y-91980489D01*
X120726114Y-92039799D01*
X120840691Y-92070500D01*
X120840694Y-92070500D01*
X120959306Y-92070500D01*
X120959309Y-92070500D01*
X121073886Y-92039799D01*
X121176613Y-91980489D01*
X121260489Y-91896613D01*
X121319799Y-91793886D01*
X121350500Y-91679309D01*
X121350500Y-91560691D01*
X121319799Y-91446114D01*
X121260489Y-91343387D01*
X121176613Y-91259511D01*
X121073886Y-91200201D01*
X120959309Y-91169500D01*
X120840691Y-91169500D01*
X120726114Y-91200201D01*
X120726112Y-91200201D01*
X120726112Y-91200202D01*
X120623387Y-91259511D01*
X120623384Y-91259513D01*
X120539513Y-91343384D01*
X120539511Y-91343387D01*
X120480201Y-91446114D01*
X120449500Y-91560691D01*
X104416824Y-91560691D01*
X104425501Y-91539744D01*
X104450500Y-91414069D01*
X104450500Y-91285931D01*
X104450500Y-91285928D01*
X104425502Y-91160261D01*
X104425501Y-91160260D01*
X104425501Y-91160256D01*
X104376465Y-91041873D01*
X104376464Y-91041872D01*
X104376461Y-91041866D01*
X104305276Y-90935331D01*
X104305273Y-90935327D01*
X104214672Y-90844726D01*
X104214668Y-90844723D01*
X104108133Y-90773538D01*
X104108124Y-90773533D01*
X103989744Y-90724499D01*
X103989738Y-90724497D01*
X103864071Y-90699500D01*
X103864069Y-90699500D01*
X103735931Y-90699500D01*
X103735929Y-90699500D01*
X103610261Y-90724497D01*
X103610255Y-90724499D01*
X103491875Y-90773533D01*
X103491866Y-90773538D01*
X103385331Y-90844723D01*
X103385327Y-90844726D01*
X103294726Y-90935327D01*
X103294723Y-90935331D01*
X103223538Y-91041866D01*
X103223533Y-91041875D01*
X103174499Y-91160255D01*
X103174497Y-91160261D01*
X103149500Y-91285928D01*
X103149500Y-91285931D01*
X103149500Y-91414069D01*
X103149500Y-91414071D01*
X103149499Y-91414071D01*
X97723780Y-91414071D01*
X97723780Y-90520565D01*
X133304500Y-90520565D01*
X133304500Y-90619435D01*
X133330090Y-90714938D01*
X133379525Y-90800562D01*
X133449438Y-90870475D01*
X133535062Y-90919910D01*
X133630565Y-90945500D01*
X133630567Y-90945500D01*
X133729432Y-90945500D01*
X133729435Y-90945500D01*
X133824938Y-90919910D01*
X133910562Y-90870475D01*
X133980475Y-90800562D01*
X134029910Y-90714938D01*
X134055500Y-90619435D01*
X134055500Y-90520565D01*
X134029910Y-90425062D01*
X133980475Y-90339438D01*
X133910562Y-90269525D01*
X133824938Y-90220090D01*
X133729435Y-90194500D01*
X133630565Y-90194500D01*
X133535062Y-90220090D01*
X133535060Y-90220091D01*
X133535059Y-90220091D01*
X133449436Y-90269526D01*
X133379526Y-90339436D01*
X133330091Y-90425059D01*
X133330091Y-90425060D01*
X133330090Y-90425062D01*
X133304500Y-90520565D01*
X97723780Y-90520565D01*
X97723780Y-89036228D01*
X98349500Y-89036228D01*
X98349500Y-89203771D01*
X98382182Y-89368074D01*
X98382184Y-89368082D01*
X98446295Y-89522860D01*
X98539373Y-89662162D01*
X98657837Y-89780626D01*
X98721482Y-89823152D01*
X98797137Y-89873703D01*
X98951918Y-89937816D01*
X99064592Y-89960228D01*
X99116228Y-89970499D01*
X99116232Y-89970500D01*
X99116233Y-89970500D01*
X99683768Y-89970500D01*
X99683769Y-89970499D01*
X99848082Y-89937816D01*
X100002863Y-89873703D01*
X100082389Y-89820565D01*
X132404500Y-89820565D01*
X132404500Y-89919435D01*
X132430090Y-90014938D01*
X132479525Y-90100562D01*
X132549438Y-90170475D01*
X132635062Y-90219910D01*
X132730565Y-90245500D01*
X132730567Y-90245500D01*
X132829432Y-90245500D01*
X132829435Y-90245500D01*
X132924938Y-90219910D01*
X133010562Y-90170475D01*
X133080475Y-90100562D01*
X133129910Y-90014938D01*
X133155500Y-89919435D01*
X133155500Y-89820565D01*
X133129910Y-89725062D01*
X133080475Y-89639438D01*
X133010562Y-89569525D01*
X132924938Y-89520090D01*
X132829435Y-89494500D01*
X132730565Y-89494500D01*
X132635062Y-89520090D01*
X132635060Y-89520091D01*
X132635059Y-89520091D01*
X132549436Y-89569526D01*
X132479526Y-89639436D01*
X132430091Y-89725059D01*
X132430091Y-89725060D01*
X132430090Y-89725062D01*
X132404500Y-89820565D01*
X100082389Y-89820565D01*
X100142162Y-89780626D01*
X100260626Y-89662162D01*
X100353703Y-89522863D01*
X100417816Y-89368082D01*
X100432240Y-89295565D01*
X130959500Y-89295565D01*
X130959500Y-89394435D01*
X130985090Y-89489938D01*
X131034525Y-89575562D01*
X131104438Y-89645475D01*
X131190062Y-89694910D01*
X131285565Y-89720500D01*
X131285567Y-89720500D01*
X131384432Y-89720500D01*
X131384435Y-89720500D01*
X131479938Y-89694910D01*
X131565562Y-89645475D01*
X131635475Y-89575562D01*
X131684910Y-89489938D01*
X131698139Y-89440565D01*
X133304500Y-89440565D01*
X133304500Y-89539435D01*
X133330090Y-89634938D01*
X133379525Y-89720562D01*
X133449438Y-89790475D01*
X133535062Y-89839910D01*
X133630565Y-89865500D01*
X133630567Y-89865500D01*
X133729432Y-89865500D01*
X133729435Y-89865500D01*
X133824938Y-89839910D01*
X133910562Y-89790475D01*
X133980475Y-89720562D01*
X134029910Y-89634938D01*
X134055500Y-89539435D01*
X134055500Y-89440565D01*
X134029910Y-89345062D01*
X133980475Y-89259438D01*
X133910562Y-89189525D01*
X133824938Y-89140090D01*
X133729435Y-89114500D01*
X133630565Y-89114500D01*
X133535062Y-89140090D01*
X133535060Y-89140091D01*
X133535059Y-89140091D01*
X133449436Y-89189526D01*
X133379526Y-89259436D01*
X133330091Y-89345059D01*
X133330091Y-89345060D01*
X133330090Y-89345062D01*
X133304500Y-89440565D01*
X131698139Y-89440565D01*
X131710500Y-89394435D01*
X131710500Y-89295565D01*
X131684910Y-89200062D01*
X131635475Y-89114438D01*
X131606874Y-89085837D01*
X151199500Y-89085837D01*
X151199500Y-89314162D01*
X151235215Y-89539660D01*
X151305770Y-89756803D01*
X151398002Y-89937817D01*
X151409421Y-89960228D01*
X151543621Y-90144937D01*
X151705063Y-90306379D01*
X151889772Y-90440579D01*
X151928997Y-90460565D01*
X152093196Y-90544229D01*
X152093198Y-90544229D01*
X152093201Y-90544231D01*
X152209592Y-90582049D01*
X152310339Y-90614784D01*
X152535838Y-90650500D01*
X152535843Y-90650500D01*
X152764162Y-90650500D01*
X152989660Y-90614784D01*
X153206799Y-90544231D01*
X153371003Y-90460565D01*
X157714500Y-90460565D01*
X157714500Y-90559435D01*
X157740090Y-90654938D01*
X157789525Y-90740562D01*
X157859438Y-90810475D01*
X157945062Y-90859910D01*
X158040565Y-90885500D01*
X158040567Y-90885500D01*
X158139432Y-90885500D01*
X158139435Y-90885500D01*
X158234938Y-90859910D01*
X158320562Y-90810475D01*
X158390475Y-90740562D01*
X158439910Y-90654938D01*
X158465500Y-90559435D01*
X158465500Y-90460565D01*
X158462006Y-90447525D01*
X166009500Y-90447525D01*
X166009500Y-90592475D01*
X166042315Y-90714939D01*
X166047017Y-90732488D01*
X166119488Y-90858011D01*
X166119490Y-90858013D01*
X166119491Y-90858015D01*
X166221985Y-90960509D01*
X166221986Y-90960510D01*
X166221988Y-90960511D01*
X166347511Y-91032982D01*
X166347512Y-91032982D01*
X166347515Y-91032984D01*
X166487525Y-91070500D01*
X166487528Y-91070500D01*
X166632472Y-91070500D01*
X166632475Y-91070500D01*
X166772485Y-91032984D01*
X166898015Y-90960509D01*
X167000509Y-90858015D01*
X167072984Y-90732485D01*
X167110500Y-90592475D01*
X167110500Y-90447525D01*
X167072984Y-90307515D01*
X167051050Y-90269525D01*
X167000511Y-90181988D01*
X167000506Y-90181982D01*
X166898017Y-90079493D01*
X166898011Y-90079488D01*
X166772488Y-90007017D01*
X166772489Y-90007017D01*
X166761006Y-90003940D01*
X166632475Y-89969500D01*
X166487525Y-89969500D01*
X166358993Y-90003940D01*
X166347511Y-90007017D01*
X166221988Y-90079488D01*
X166221982Y-90079493D01*
X166119493Y-90181982D01*
X166119488Y-90181988D01*
X166047017Y-90307511D01*
X166047016Y-90307515D01*
X166009500Y-90447525D01*
X158462006Y-90447525D01*
X158439910Y-90365062D01*
X158390475Y-90279438D01*
X158320562Y-90209525D01*
X158234938Y-90160090D01*
X158139435Y-90134500D01*
X158040565Y-90134500D01*
X157945062Y-90160090D01*
X157945060Y-90160091D01*
X157945059Y-90160091D01*
X157859436Y-90209526D01*
X157789526Y-90279436D01*
X157740091Y-90365059D01*
X157740091Y-90365060D01*
X157740090Y-90365062D01*
X157714500Y-90460565D01*
X153371003Y-90460565D01*
X153410228Y-90440579D01*
X153594937Y-90306379D01*
X153756379Y-90144937D01*
X153890579Y-89960228D01*
X153994231Y-89756799D01*
X154064784Y-89539660D01*
X154080479Y-89440565D01*
X154100500Y-89314162D01*
X154100500Y-89085837D01*
X154064784Y-88860339D01*
X154006816Y-88681935D01*
X153994231Y-88643201D01*
X153994229Y-88643198D01*
X153994229Y-88643196D01*
X153914928Y-88487560D01*
X153890579Y-88439772D01*
X153756379Y-88255063D01*
X153594937Y-88093621D01*
X153410228Y-87959421D01*
X153360113Y-87933886D01*
X153206803Y-87855770D01*
X152989660Y-87785215D01*
X152764162Y-87749500D01*
X152764157Y-87749500D01*
X152535843Y-87749500D01*
X152535838Y-87749500D01*
X152310339Y-87785215D01*
X152093196Y-87855770D01*
X151889771Y-87959421D01*
X151705061Y-88093622D01*
X151543622Y-88255061D01*
X151409421Y-88439771D01*
X151305770Y-88643196D01*
X151235215Y-88860339D01*
X151199500Y-89085837D01*
X131606874Y-89085837D01*
X131565562Y-89044525D01*
X131479938Y-88995090D01*
X131384435Y-88969500D01*
X131285565Y-88969500D01*
X131190062Y-88995090D01*
X131190060Y-88995091D01*
X131190059Y-88995091D01*
X131104436Y-89044526D01*
X131034526Y-89114436D01*
X130985091Y-89200059D01*
X130985091Y-89200060D01*
X130985090Y-89200062D01*
X130959500Y-89295565D01*
X100432240Y-89295565D01*
X100450500Y-89203767D01*
X100450500Y-89036233D01*
X100417816Y-88871918D01*
X100353703Y-88717137D01*
X100260626Y-88577838D01*
X100260625Y-88577837D01*
X100260624Y-88577835D01*
X100203480Y-88520691D01*
X108103002Y-88520691D01*
X108103002Y-88639309D01*
X108133703Y-88753886D01*
X108193013Y-88856613D01*
X108276889Y-88940489D01*
X108379616Y-88999799D01*
X108494193Y-89030500D01*
X108494196Y-89030500D01*
X108612808Y-89030500D01*
X108612811Y-89030500D01*
X108727388Y-88999799D01*
X108830115Y-88940489D01*
X108913991Y-88856613D01*
X108973301Y-88753886D01*
X108979550Y-88730565D01*
X114344500Y-88730565D01*
X114344500Y-88829435D01*
X114370090Y-88924938D01*
X114419525Y-89010562D01*
X114489438Y-89080475D01*
X114575062Y-89129910D01*
X114670565Y-89155500D01*
X114670567Y-89155500D01*
X114769432Y-89155500D01*
X114769435Y-89155500D01*
X114864938Y-89129910D01*
X114950562Y-89080475D01*
X115020475Y-89010562D01*
X115069910Y-88924938D01*
X115095500Y-88829435D01*
X115095500Y-88730565D01*
X115069910Y-88635062D01*
X115039890Y-88583065D01*
X122037000Y-88583065D01*
X122037000Y-88681935D01*
X122062590Y-88777438D01*
X122112025Y-88863062D01*
X122181938Y-88932975D01*
X122267562Y-88982410D01*
X122363065Y-89008000D01*
X122363067Y-89008000D01*
X122461932Y-89008000D01*
X122461935Y-89008000D01*
X122557438Y-88982410D01*
X122643062Y-88932975D01*
X122712975Y-88863062D01*
X122762410Y-88777438D01*
X122788000Y-88681935D01*
X122788000Y-88583065D01*
X122762410Y-88487562D01*
X122712975Y-88401938D01*
X122643062Y-88332025D01*
X122557438Y-88282590D01*
X122549881Y-88280565D01*
X132144500Y-88280565D01*
X132144500Y-88379435D01*
X132170090Y-88474938D01*
X132219525Y-88560562D01*
X132289438Y-88630475D01*
X132375062Y-88679910D01*
X132470565Y-88705500D01*
X132470567Y-88705500D01*
X132569432Y-88705500D01*
X132569435Y-88705500D01*
X132664938Y-88679910D01*
X132750562Y-88630475D01*
X132820475Y-88560562D01*
X132869910Y-88474938D01*
X132895500Y-88379435D01*
X132895500Y-88280565D01*
X132869910Y-88185062D01*
X132820475Y-88099438D01*
X132750562Y-88029525D01*
X132664938Y-87980090D01*
X132569435Y-87954500D01*
X132470565Y-87954500D01*
X132375062Y-87980090D01*
X132375060Y-87980091D01*
X132375059Y-87980091D01*
X132289436Y-88029526D01*
X132219526Y-88099436D01*
X132170091Y-88185059D01*
X132170091Y-88185060D01*
X132170090Y-88185062D01*
X132144500Y-88280565D01*
X122549881Y-88280565D01*
X122461935Y-88257000D01*
X122363065Y-88257000D01*
X122267562Y-88282590D01*
X122267560Y-88282591D01*
X122267559Y-88282591D01*
X122181936Y-88332026D01*
X122112026Y-88401936D01*
X122062591Y-88487559D01*
X122062591Y-88487560D01*
X122062590Y-88487562D01*
X122037000Y-88583065D01*
X115039890Y-88583065D01*
X115020475Y-88549438D01*
X114950562Y-88479525D01*
X114864938Y-88430090D01*
X114769435Y-88404500D01*
X114670565Y-88404500D01*
X114575062Y-88430090D01*
X114575060Y-88430091D01*
X114575059Y-88430091D01*
X114489436Y-88479526D01*
X114419526Y-88549436D01*
X114370091Y-88635059D01*
X114370091Y-88635060D01*
X114370090Y-88635062D01*
X114344500Y-88730565D01*
X108979550Y-88730565D01*
X109004002Y-88639309D01*
X109004002Y-88520691D01*
X108973301Y-88406114D01*
X108953250Y-88371386D01*
X108936777Y-88303487D01*
X108959629Y-88237459D01*
X109014549Y-88194268D01*
X109084102Y-88187625D01*
X109092716Y-88189606D01*
X109170691Y-88210500D01*
X109170694Y-88210500D01*
X109289306Y-88210500D01*
X109289309Y-88210500D01*
X109403886Y-88179799D01*
X109506613Y-88120489D01*
X109590489Y-88036613D01*
X109621405Y-87983065D01*
X113367000Y-87983065D01*
X113367000Y-88081935D01*
X113392590Y-88177438D01*
X113392591Y-88177439D01*
X113392591Y-88177440D01*
X113402307Y-88194268D01*
X113442025Y-88263062D01*
X113511938Y-88332975D01*
X113597562Y-88382410D01*
X113693065Y-88408000D01*
X113693067Y-88408000D01*
X113791932Y-88408000D01*
X113791935Y-88408000D01*
X113887438Y-88382410D01*
X113973062Y-88332975D01*
X114042975Y-88263062D01*
X114092410Y-88177438D01*
X114118000Y-88081935D01*
X114118000Y-87983065D01*
X114111301Y-87958065D01*
X120472000Y-87958065D01*
X120472000Y-88056935D01*
X120497590Y-88152438D01*
X120497591Y-88152439D01*
X120497591Y-88152440D01*
X120510837Y-88175382D01*
X120547025Y-88238062D01*
X120616938Y-88307975D01*
X120702562Y-88357410D01*
X120798065Y-88383000D01*
X120798067Y-88383000D01*
X120896932Y-88383000D01*
X120896935Y-88383000D01*
X120992438Y-88357410D01*
X121078062Y-88307975D01*
X121147975Y-88238062D01*
X121197410Y-88152438D01*
X121223000Y-88056935D01*
X121223000Y-87958065D01*
X121197410Y-87862562D01*
X121147975Y-87776938D01*
X121078062Y-87707025D01*
X120992438Y-87657590D01*
X120896935Y-87632000D01*
X120798065Y-87632000D01*
X120702562Y-87657590D01*
X120702560Y-87657591D01*
X120702559Y-87657591D01*
X120616936Y-87707026D01*
X120547026Y-87776936D01*
X120497591Y-87862559D01*
X120497591Y-87862560D01*
X120497590Y-87862562D01*
X120472000Y-87958065D01*
X114111301Y-87958065D01*
X114092410Y-87887562D01*
X114042975Y-87801938D01*
X113973062Y-87732025D01*
X113887438Y-87682590D01*
X113791935Y-87657000D01*
X113693065Y-87657000D01*
X113597562Y-87682590D01*
X113597560Y-87682591D01*
X113597559Y-87682591D01*
X113511936Y-87732026D01*
X113442026Y-87801936D01*
X113392591Y-87887559D01*
X113392591Y-87887560D01*
X113392590Y-87887562D01*
X113367000Y-87983065D01*
X109621405Y-87983065D01*
X109649799Y-87933886D01*
X109680500Y-87819309D01*
X109680500Y-87700691D01*
X109649799Y-87586114D01*
X109590489Y-87483387D01*
X109506613Y-87399511D01*
X109403886Y-87340201D01*
X109321274Y-87318065D01*
X122067000Y-87318065D01*
X122067000Y-87416935D01*
X122092590Y-87512438D01*
X122142025Y-87598062D01*
X122211938Y-87667975D01*
X122297562Y-87717410D01*
X122393065Y-87743000D01*
X122393067Y-87743000D01*
X122491932Y-87743000D01*
X122491935Y-87743000D01*
X122587438Y-87717410D01*
X122673062Y-87667975D01*
X122742975Y-87598062D01*
X122792410Y-87512438D01*
X122818000Y-87416935D01*
X122818000Y-87318065D01*
X122792410Y-87222562D01*
X122742975Y-87136938D01*
X122673062Y-87067025D01*
X122587438Y-87017590D01*
X122491935Y-86992000D01*
X122393065Y-86992000D01*
X122297562Y-87017590D01*
X122297560Y-87017591D01*
X122297559Y-87017591D01*
X122211936Y-87067026D01*
X122142026Y-87136936D01*
X122092591Y-87222559D01*
X122092591Y-87222560D01*
X122092590Y-87222562D01*
X122067000Y-87318065D01*
X109321274Y-87318065D01*
X109289309Y-87309500D01*
X109170691Y-87309500D01*
X109056114Y-87340201D01*
X109056112Y-87340201D01*
X109056112Y-87340202D01*
X108953387Y-87399511D01*
X108953384Y-87399513D01*
X108869513Y-87483384D01*
X108869511Y-87483387D01*
X108810201Y-87586114D01*
X108779500Y-87700691D01*
X108779500Y-87819309D01*
X108810201Y-87933886D01*
X108810202Y-87933887D01*
X108830251Y-87968613D01*
X108846724Y-88036513D01*
X108823872Y-88102540D01*
X108768951Y-88145731D01*
X108699398Y-88152373D01*
X108690771Y-88150389D01*
X108642103Y-88137348D01*
X108612811Y-88129500D01*
X108494193Y-88129500D01*
X108379616Y-88160201D01*
X108379614Y-88160201D01*
X108379614Y-88160202D01*
X108276889Y-88219511D01*
X108276886Y-88219513D01*
X108193015Y-88303384D01*
X108193013Y-88303387D01*
X108156692Y-88366297D01*
X108133703Y-88406114D01*
X108103002Y-88520691D01*
X100203480Y-88520691D01*
X100142162Y-88459373D01*
X100002860Y-88366295D01*
X99848082Y-88302184D01*
X99848074Y-88302182D01*
X99683771Y-88269500D01*
X99683767Y-88269500D01*
X99116233Y-88269500D01*
X99116228Y-88269500D01*
X98951925Y-88302182D01*
X98951917Y-88302184D01*
X98797139Y-88366295D01*
X98657837Y-88459373D01*
X98539373Y-88577837D01*
X98446295Y-88717139D01*
X98382184Y-88871917D01*
X98382182Y-88871925D01*
X98349500Y-89036228D01*
X97723780Y-89036228D01*
X97723780Y-86270565D01*
X108964500Y-86270565D01*
X108964500Y-86369435D01*
X108990090Y-86464938D01*
X109039525Y-86550562D01*
X109109438Y-86620475D01*
X109195062Y-86669910D01*
X109290565Y-86695500D01*
X109290567Y-86695500D01*
X109389432Y-86695500D01*
X109389435Y-86695500D01*
X109484938Y-86669910D01*
X109570562Y-86620475D01*
X109640475Y-86550562D01*
X109689910Y-86464938D01*
X109715500Y-86369435D01*
X109715500Y-86270565D01*
X109714685Y-86267525D01*
X133139500Y-86267525D01*
X133139500Y-86412475D01*
X133176501Y-86550562D01*
X133177017Y-86552488D01*
X133249488Y-86678011D01*
X133249490Y-86678013D01*
X133249491Y-86678015D01*
X133351985Y-86780509D01*
X133351986Y-86780510D01*
X133351988Y-86780511D01*
X133477511Y-86852982D01*
X133477512Y-86852982D01*
X133477515Y-86852984D01*
X133617525Y-86890500D01*
X133617528Y-86890500D01*
X133762472Y-86890500D01*
X133762475Y-86890500D01*
X133902485Y-86852984D01*
X134028015Y-86780509D01*
X134130509Y-86678015D01*
X134202984Y-86552485D01*
X134240500Y-86412475D01*
X134240500Y-86267525D01*
X134202984Y-86127515D01*
X134140636Y-86019526D01*
X134130511Y-86001988D01*
X134130506Y-86001982D01*
X134028017Y-85899493D01*
X134028011Y-85899488D01*
X133902488Y-85827017D01*
X133902489Y-85827017D01*
X133891006Y-85823940D01*
X133762475Y-85789500D01*
X133617525Y-85789500D01*
X133488993Y-85823940D01*
X133477511Y-85827017D01*
X133351988Y-85899488D01*
X133351982Y-85899493D01*
X133249493Y-86001982D01*
X133249488Y-86001988D01*
X133177017Y-86127511D01*
X133177016Y-86127515D01*
X133139500Y-86267525D01*
X109714685Y-86267525D01*
X109689910Y-86175062D01*
X109640475Y-86089438D01*
X109570562Y-86019525D01*
X109484938Y-85970090D01*
X109389435Y-85944500D01*
X109290565Y-85944500D01*
X109195062Y-85970090D01*
X109195060Y-85970091D01*
X109195059Y-85970091D01*
X109109436Y-86019526D01*
X109039526Y-86089436D01*
X108990091Y-86175059D01*
X108990091Y-86175060D01*
X108990090Y-86175062D01*
X108964500Y-86270565D01*
X97723780Y-86270565D01*
X97723780Y-85290565D01*
X107884500Y-85290565D01*
X107884500Y-85389435D01*
X107910090Y-85484938D01*
X107959525Y-85570562D01*
X108029438Y-85640475D01*
X108115062Y-85689910D01*
X108210565Y-85715500D01*
X108210567Y-85715500D01*
X108309432Y-85715500D01*
X108309435Y-85715500D01*
X108404938Y-85689910D01*
X108490562Y-85640475D01*
X108560475Y-85570562D01*
X108609910Y-85484938D01*
X108635500Y-85389435D01*
X108635500Y-85290565D01*
X108609910Y-85195062D01*
X108560475Y-85109438D01*
X108490562Y-85039525D01*
X108453392Y-85018065D01*
X115972000Y-85018065D01*
X115972000Y-85116935D01*
X115997590Y-85212438D01*
X116047025Y-85298062D01*
X116116938Y-85367975D01*
X116202562Y-85417410D01*
X116298065Y-85443000D01*
X116298067Y-85443000D01*
X116396932Y-85443000D01*
X116396935Y-85443000D01*
X116492438Y-85417410D01*
X116578062Y-85367975D01*
X116647975Y-85298062D01*
X116697410Y-85212438D01*
X116723000Y-85116935D01*
X116723000Y-85070691D01*
X124149500Y-85070691D01*
X124149500Y-85189309D01*
X124180201Y-85303886D01*
X124239511Y-85406613D01*
X124323387Y-85490489D01*
X124426114Y-85549799D01*
X124540691Y-85580500D01*
X124540694Y-85580500D01*
X124659306Y-85580500D01*
X124659309Y-85580500D01*
X124773886Y-85549799D01*
X124876613Y-85490489D01*
X124960489Y-85406613D01*
X125019799Y-85303886D01*
X125050500Y-85189309D01*
X125050500Y-85070691D01*
X125019799Y-84956114D01*
X124960489Y-84853387D01*
X124876613Y-84769511D01*
X124773886Y-84710201D01*
X124659309Y-84679500D01*
X124540691Y-84679500D01*
X124426114Y-84710201D01*
X124426112Y-84710201D01*
X124426112Y-84710202D01*
X124323387Y-84769511D01*
X124323384Y-84769513D01*
X124239513Y-84853384D01*
X124239511Y-84853387D01*
X124199574Y-84922560D01*
X124180201Y-84956114D01*
X124149500Y-85070691D01*
X116723000Y-85070691D01*
X116723000Y-85018065D01*
X116697410Y-84922562D01*
X116647975Y-84836938D01*
X116578062Y-84767025D01*
X116492438Y-84717590D01*
X116396935Y-84692000D01*
X116298065Y-84692000D01*
X116202562Y-84717590D01*
X116202560Y-84717591D01*
X116202559Y-84717591D01*
X116116936Y-84767026D01*
X116047026Y-84836936D01*
X115997591Y-84922559D01*
X115997591Y-84922560D01*
X115997590Y-84922562D01*
X115972000Y-85018065D01*
X108453392Y-85018065D01*
X108404938Y-84990090D01*
X108309435Y-84964500D01*
X108210565Y-84964500D01*
X108146673Y-84981619D01*
X108146671Y-84981620D01*
X108115060Y-84990090D01*
X108115059Y-84990091D01*
X108029436Y-85039526D01*
X107959526Y-85109436D01*
X107910091Y-85195059D01*
X107910091Y-85195060D01*
X107910090Y-85195062D01*
X107884500Y-85290565D01*
X97723780Y-85290565D01*
X97723780Y-83229616D01*
X98304500Y-83229616D01*
X98304500Y-83430384D01*
X98322598Y-83544651D01*
X98335907Y-83628680D01*
X98397949Y-83819626D01*
X98489095Y-83998508D01*
X98607103Y-84160932D01*
X98749068Y-84302897D01*
X98911492Y-84420905D01*
X98996007Y-84463967D01*
X99090373Y-84512050D01*
X99090375Y-84512050D01*
X99090378Y-84512052D01*
X99281320Y-84574093D01*
X99479616Y-84605500D01*
X99479617Y-84605500D01*
X99680383Y-84605500D01*
X99680384Y-84605500D01*
X99878680Y-84574093D01*
X100069622Y-84512052D01*
X100248508Y-84420905D01*
X100410932Y-84302897D01*
X100552897Y-84160932D01*
X100670905Y-83998508D01*
X100762052Y-83819622D01*
X100824093Y-83628680D01*
X100855500Y-83430384D01*
X100855500Y-83229616D01*
X103384500Y-83229616D01*
X103384500Y-83430384D01*
X103402598Y-83544651D01*
X103415907Y-83628680D01*
X103477949Y-83819626D01*
X103569095Y-83998508D01*
X103687103Y-84160932D01*
X103829068Y-84302897D01*
X103991492Y-84420905D01*
X104076007Y-84463967D01*
X104170373Y-84512050D01*
X104170375Y-84512050D01*
X104170378Y-84512052D01*
X104361320Y-84574093D01*
X104559616Y-84605500D01*
X104559617Y-84605500D01*
X104760383Y-84605500D01*
X104760384Y-84605500D01*
X104958680Y-84574093D01*
X105149622Y-84512052D01*
X105328508Y-84420905D01*
X105480378Y-84310565D01*
X107774500Y-84310565D01*
X107774500Y-84409435D01*
X107800090Y-84504938D01*
X107849525Y-84590562D01*
X107919438Y-84660475D01*
X108005062Y-84709910D01*
X108100565Y-84735500D01*
X108100567Y-84735500D01*
X108116148Y-84735500D01*
X108199435Y-84735500D01*
X108294938Y-84709910D01*
X108380562Y-84660475D01*
X108450475Y-84590562D01*
X108499910Y-84504938D01*
X108525500Y-84409435D01*
X108525500Y-84310565D01*
X108499910Y-84215062D01*
X108450475Y-84129438D01*
X108380562Y-84059525D01*
X108294938Y-84010090D01*
X108199435Y-83984500D01*
X108100565Y-83984500D01*
X108005062Y-84010090D01*
X108005060Y-84010091D01*
X108005059Y-84010091D01*
X107919436Y-84059526D01*
X107849526Y-84129436D01*
X107800091Y-84215059D01*
X107800091Y-84215060D01*
X107800090Y-84215062D01*
X107774500Y-84310565D01*
X105480378Y-84310565D01*
X105490932Y-84302897D01*
X105632897Y-84160932D01*
X105750905Y-83998508D01*
X105842052Y-83819622D01*
X105857951Y-83770691D01*
X120959500Y-83770691D01*
X120959500Y-83889309D01*
X120990201Y-84003886D01*
X121049511Y-84106613D01*
X121133387Y-84190489D01*
X121236114Y-84249799D01*
X121350691Y-84280500D01*
X121350694Y-84280500D01*
X121469306Y-84280500D01*
X121469309Y-84280500D01*
X121583886Y-84249799D01*
X121686613Y-84190489D01*
X121770489Y-84106613D01*
X121829799Y-84003886D01*
X121836048Y-83980565D01*
X137324500Y-83980565D01*
X137324500Y-84079435D01*
X137350090Y-84174938D01*
X137399525Y-84260562D01*
X137469438Y-84330475D01*
X137555062Y-84379910D01*
X137650565Y-84405500D01*
X137650567Y-84405500D01*
X137749432Y-84405500D01*
X137749435Y-84405500D01*
X137844938Y-84379910D01*
X137930562Y-84330475D01*
X138000475Y-84260562D01*
X138049910Y-84174938D01*
X138050091Y-84174261D01*
X162034499Y-84174261D01*
X162067375Y-84339534D01*
X162067378Y-84339544D01*
X162131862Y-84495224D01*
X162131869Y-84495237D01*
X162225489Y-84635348D01*
X162225492Y-84635352D01*
X162344647Y-84754507D01*
X162344651Y-84754510D01*
X162484762Y-84848130D01*
X162484775Y-84848137D01*
X162640455Y-84912621D01*
X162640460Y-84912623D01*
X162640464Y-84912623D01*
X162640465Y-84912624D01*
X162805738Y-84945500D01*
X162805741Y-84945500D01*
X162974261Y-84945500D01*
X163089589Y-84922559D01*
X163139540Y-84912623D01*
X163295231Y-84848134D01*
X163435349Y-84754510D01*
X163554510Y-84635349D01*
X163648134Y-84495231D01*
X163712623Y-84339540D01*
X163737384Y-84215059D01*
X163745500Y-84174261D01*
X163745500Y-84005738D01*
X163712624Y-83840465D01*
X163712623Y-83840464D01*
X163712623Y-83840460D01*
X163695631Y-83799438D01*
X163648137Y-83684775D01*
X163648130Y-83684762D01*
X163554510Y-83544651D01*
X163554507Y-83544647D01*
X163435352Y-83425492D01*
X163435348Y-83425489D01*
X163295237Y-83331869D01*
X163295224Y-83331862D01*
X163139544Y-83267378D01*
X163139534Y-83267375D01*
X162974261Y-83234500D01*
X162974259Y-83234500D01*
X162805741Y-83234500D01*
X162805739Y-83234500D01*
X162640465Y-83267375D01*
X162640455Y-83267378D01*
X162484775Y-83331862D01*
X162484762Y-83331869D01*
X162344651Y-83425489D01*
X162344647Y-83425492D01*
X162225492Y-83544647D01*
X162225489Y-83544651D01*
X162131869Y-83684762D01*
X162131862Y-83684775D01*
X162067378Y-83840455D01*
X162067375Y-83840465D01*
X162034500Y-84005738D01*
X162034500Y-84005741D01*
X162034500Y-84174259D01*
X162034500Y-84174261D01*
X162034499Y-84174261D01*
X138050091Y-84174261D01*
X138075500Y-84079435D01*
X138075500Y-83980565D01*
X138049910Y-83885062D01*
X138000475Y-83799438D01*
X137930562Y-83729525D01*
X137844938Y-83680090D01*
X137749435Y-83654500D01*
X137650565Y-83654500D01*
X137555062Y-83680090D01*
X137555060Y-83680091D01*
X137555059Y-83680091D01*
X137469436Y-83729526D01*
X137399526Y-83799436D01*
X137350091Y-83885059D01*
X137350091Y-83885060D01*
X137350090Y-83885062D01*
X137324500Y-83980565D01*
X121836048Y-83980565D01*
X121860500Y-83889309D01*
X121860500Y-83770691D01*
X121829799Y-83656114D01*
X121770489Y-83553387D01*
X121686613Y-83469511D01*
X121583886Y-83410201D01*
X121469309Y-83379500D01*
X121350691Y-83379500D01*
X121236114Y-83410201D01*
X121236112Y-83410201D01*
X121236112Y-83410202D01*
X121133387Y-83469511D01*
X121133384Y-83469513D01*
X121049513Y-83553384D01*
X121049511Y-83553387D01*
X121010727Y-83620563D01*
X120990201Y-83656114D01*
X120959500Y-83770691D01*
X105857951Y-83770691D01*
X105904093Y-83628680D01*
X105935500Y-83430384D01*
X105935500Y-83340565D01*
X106874500Y-83340565D01*
X106874500Y-83439435D01*
X106900090Y-83534938D01*
X106900091Y-83534939D01*
X106900091Y-83534940D01*
X106913337Y-83557882D01*
X106949525Y-83620562D01*
X107019438Y-83690475D01*
X107105062Y-83739910D01*
X107200565Y-83765500D01*
X107200567Y-83765500D01*
X107299432Y-83765500D01*
X107299435Y-83765500D01*
X107394938Y-83739910D01*
X107480562Y-83690475D01*
X107550475Y-83620562D01*
X107599910Y-83534938D01*
X107625500Y-83439435D01*
X107625500Y-83340565D01*
X107599910Y-83245062D01*
X107550475Y-83159438D01*
X107480562Y-83089525D01*
X107394938Y-83040090D01*
X107299435Y-83014500D01*
X107200565Y-83014500D01*
X107105062Y-83040090D01*
X107105060Y-83040091D01*
X107105059Y-83040091D01*
X107019436Y-83089526D01*
X106949526Y-83159436D01*
X106900091Y-83245059D01*
X106900091Y-83245060D01*
X106900090Y-83245062D01*
X106874500Y-83340565D01*
X105935500Y-83340565D01*
X105935500Y-83229616D01*
X105904093Y-83031320D01*
X105842052Y-82840378D01*
X105842050Y-82840375D01*
X105842050Y-82840373D01*
X105764785Y-82688733D01*
X105750904Y-82661491D01*
X105735702Y-82640567D01*
X105735701Y-82640565D01*
X122934500Y-82640565D01*
X122934500Y-82739435D01*
X122960090Y-82834938D01*
X123009525Y-82920562D01*
X123079438Y-82990475D01*
X123165062Y-83039910D01*
X123260565Y-83065500D01*
X123260567Y-83065500D01*
X123359432Y-83065500D01*
X123359435Y-83065500D01*
X123454938Y-83039910D01*
X123540562Y-82990475D01*
X123610475Y-82920562D01*
X123659910Y-82834938D01*
X123685500Y-82739435D01*
X123685500Y-82640565D01*
X123659910Y-82545062D01*
X123610475Y-82459438D01*
X123540562Y-82389525D01*
X123454938Y-82340090D01*
X123359435Y-82314500D01*
X123260565Y-82314500D01*
X123165062Y-82340090D01*
X123165060Y-82340091D01*
X123165059Y-82340091D01*
X123079436Y-82389526D01*
X123009526Y-82459436D01*
X122960091Y-82545059D01*
X122960091Y-82545060D01*
X122960090Y-82545062D01*
X122934500Y-82640565D01*
X105735701Y-82640565D01*
X105632897Y-82499068D01*
X105490932Y-82357103D01*
X105328508Y-82239095D01*
X105311612Y-82230486D01*
X105149626Y-82147949D01*
X104958680Y-82085907D01*
X104760384Y-82054500D01*
X104559616Y-82054500D01*
X104460468Y-82070203D01*
X104361319Y-82085907D01*
X104170373Y-82147949D01*
X103991491Y-82239095D01*
X103921704Y-82289799D01*
X103829068Y-82357103D01*
X103829066Y-82357105D01*
X103829065Y-82357105D01*
X103687105Y-82499065D01*
X103687105Y-82499066D01*
X103687103Y-82499068D01*
X103636423Y-82568822D01*
X103569095Y-82661491D01*
X103477949Y-82840373D01*
X103451894Y-82920563D01*
X103415907Y-83031320D01*
X103384500Y-83229616D01*
X100855500Y-83229616D01*
X100824093Y-83031320D01*
X100762052Y-82840378D01*
X100762050Y-82840375D01*
X100762050Y-82840373D01*
X100670904Y-82661491D01*
X100655702Y-82640567D01*
X100552897Y-82499068D01*
X100410932Y-82357103D01*
X100248508Y-82239095D01*
X100231612Y-82230486D01*
X100069626Y-82147949D01*
X99878680Y-82085907D01*
X99680384Y-82054500D01*
X99479616Y-82054500D01*
X99380468Y-82070203D01*
X99281319Y-82085907D01*
X99090373Y-82147949D01*
X98911491Y-82239095D01*
X98841704Y-82289799D01*
X98749068Y-82357103D01*
X98749066Y-82357105D01*
X98749065Y-82357105D01*
X98607105Y-82499065D01*
X98607105Y-82499066D01*
X98607103Y-82499068D01*
X98556423Y-82568822D01*
X98489095Y-82661491D01*
X98397949Y-82840373D01*
X98371894Y-82920563D01*
X98335907Y-83031320D01*
X98304500Y-83229616D01*
X97723780Y-83229616D01*
X97723780Y-80697486D01*
X100944500Y-80697486D01*
X100944500Y-80882513D01*
X100973445Y-81065265D01*
X101030619Y-81241232D01*
X101030620Y-81241235D01*
X101097562Y-81372614D01*
X101114622Y-81406096D01*
X101223379Y-81555787D01*
X101354213Y-81686621D01*
X101503904Y-81795378D01*
X101584763Y-81836577D01*
X101668764Y-81879379D01*
X101668767Y-81879380D01*
X101756750Y-81907967D01*
X101844736Y-81936555D01*
X102027486Y-81965500D01*
X102027487Y-81965500D01*
X102212513Y-81965500D01*
X102212514Y-81965500D01*
X102395264Y-81936555D01*
X102571235Y-81879379D01*
X102706043Y-81810691D01*
X112789500Y-81810691D01*
X112789500Y-81929309D01*
X112820201Y-82043886D01*
X112879511Y-82146613D01*
X112963387Y-82230489D01*
X113066114Y-82289799D01*
X113180691Y-82320500D01*
X113180694Y-82320500D01*
X113299306Y-82320500D01*
X113299309Y-82320500D01*
X113413886Y-82289799D01*
X113516613Y-82230489D01*
X113600489Y-82146613D01*
X113659799Y-82043886D01*
X113690500Y-81929309D01*
X113690500Y-81810691D01*
X113690500Y-81810614D01*
X113710185Y-81743575D01*
X113762989Y-81697820D01*
X113832147Y-81687876D01*
X113870793Y-81700128D01*
X113885795Y-81707772D01*
X113980860Y-81756211D01*
X113980863Y-81756212D01*
X114048716Y-81778258D01*
X114153091Y-81812171D01*
X114235929Y-81825291D01*
X114331949Y-81840500D01*
X114331954Y-81840500D01*
X114513051Y-81840500D01*
X114599759Y-81826765D01*
X114691909Y-81812171D01*
X114864139Y-81756211D01*
X114959205Y-81707771D01*
X115027874Y-81694876D01*
X115092614Y-81721152D01*
X115132872Y-81778258D01*
X115139500Y-81818257D01*
X115139500Y-81929309D01*
X115170201Y-82043886D01*
X115229511Y-82146613D01*
X115313387Y-82230489D01*
X115416114Y-82289799D01*
X115530691Y-82320500D01*
X115530694Y-82320500D01*
X115649306Y-82320500D01*
X115649309Y-82320500D01*
X115763886Y-82289799D01*
X115866613Y-82230489D01*
X115950489Y-82146613D01*
X116009799Y-82043886D01*
X116040500Y-81929309D01*
X116040500Y-81810691D01*
X116009799Y-81696114D01*
X115950489Y-81593387D01*
X115866613Y-81509511D01*
X115763886Y-81450201D01*
X115649309Y-81419500D01*
X115544388Y-81419500D01*
X115477349Y-81399815D01*
X115431594Y-81347011D01*
X115421650Y-81277853D01*
X115433903Y-81239205D01*
X115488711Y-81131639D01*
X115488712Y-81131636D01*
X115510277Y-81065264D01*
X115544671Y-80959409D01*
X115559265Y-80867259D01*
X115573000Y-80780551D01*
X115573000Y-80599448D01*
X115556519Y-80495397D01*
X115544671Y-80420591D01*
X115488711Y-80248361D01*
X115488711Y-80248360D01*
X115428808Y-80130795D01*
X115415912Y-80062126D01*
X115442188Y-79997385D01*
X115499295Y-79957128D01*
X115539293Y-79950500D01*
X115659306Y-79950500D01*
X115659309Y-79950500D01*
X115773886Y-79919799D01*
X115876613Y-79860489D01*
X115960489Y-79776613D01*
X116019799Y-79673886D01*
X116050500Y-79559309D01*
X116050500Y-79440691D01*
X116019799Y-79326114D01*
X115960489Y-79223387D01*
X115876613Y-79139511D01*
X115773886Y-79080201D01*
X115659309Y-79049500D01*
X115540691Y-79049500D01*
X115426114Y-79080201D01*
X115426112Y-79080201D01*
X115426112Y-79080202D01*
X115323387Y-79139511D01*
X115323384Y-79139513D01*
X115239513Y-79223384D01*
X115239511Y-79223387D01*
X115189558Y-79309908D01*
X115180201Y-79326114D01*
X115149500Y-79440691D01*
X115149500Y-79440693D01*
X115149500Y-79566838D01*
X115129815Y-79633877D01*
X115077011Y-79679632D01*
X115007853Y-79689576D01*
X114969205Y-79677323D01*
X114864139Y-79623788D01*
X114864136Y-79623787D01*
X114691910Y-79567829D01*
X114513051Y-79539500D01*
X114513046Y-79539500D01*
X114331954Y-79539500D01*
X114331949Y-79539500D01*
X114153089Y-79567829D01*
X113980863Y-79623787D01*
X113980860Y-79623789D01*
X113920795Y-79654394D01*
X113852126Y-79667290D01*
X113787385Y-79641014D01*
X113747128Y-79583907D01*
X113740500Y-79543909D01*
X113740500Y-79450693D01*
X113740500Y-79450691D01*
X113709799Y-79336114D01*
X113650489Y-79233387D01*
X113566613Y-79149511D01*
X113463886Y-79090201D01*
X113349309Y-79059500D01*
X113230691Y-79059500D01*
X113116114Y-79090201D01*
X113116112Y-79090201D01*
X113116112Y-79090202D01*
X113013387Y-79149511D01*
X113013384Y-79149513D01*
X112929513Y-79233384D01*
X112929511Y-79233387D01*
X112875975Y-79326114D01*
X112870201Y-79336114D01*
X112839500Y-79450691D01*
X112839500Y-79569309D01*
X112870201Y-79683886D01*
X112929511Y-79786613D01*
X113013387Y-79870489D01*
X113116114Y-79929799D01*
X113230691Y-79960500D01*
X113230694Y-79960500D01*
X113300612Y-79960500D01*
X113367651Y-79980185D01*
X113413406Y-80032989D01*
X113423350Y-80102147D01*
X113411097Y-80140795D01*
X113356288Y-80248360D01*
X113356287Y-80248363D01*
X113300329Y-80420589D01*
X113272000Y-80599448D01*
X113272000Y-80780551D01*
X113300329Y-80959410D01*
X113356287Y-81131636D01*
X113356288Y-81131639D01*
X113411097Y-81239205D01*
X113423993Y-81307874D01*
X113397717Y-81372614D01*
X113340611Y-81412872D01*
X113300612Y-81419500D01*
X113299309Y-81419500D01*
X113180691Y-81419500D01*
X113066114Y-81450201D01*
X113066112Y-81450201D01*
X113066112Y-81450202D01*
X112963387Y-81509511D01*
X112963384Y-81509513D01*
X112879513Y-81593384D01*
X112879511Y-81593387D01*
X112825684Y-81686618D01*
X112820201Y-81696114D01*
X112789500Y-81810691D01*
X102706043Y-81810691D01*
X102736096Y-81795378D01*
X102885787Y-81686621D01*
X103016621Y-81555787D01*
X103125378Y-81406096D01*
X103209379Y-81241235D01*
X103266555Y-81065264D01*
X103295500Y-80882514D01*
X103295500Y-80697486D01*
X103266555Y-80514736D01*
X103209379Y-80338765D01*
X103209379Y-80338764D01*
X103125377Y-80173903D01*
X103016621Y-80024213D01*
X102885787Y-79893379D01*
X102736096Y-79784622D01*
X102571235Y-79700620D01*
X102571232Y-79700619D01*
X102395265Y-79643445D01*
X102271162Y-79623789D01*
X102212514Y-79614500D01*
X102027486Y-79614500D01*
X101968851Y-79623787D01*
X101844734Y-79643445D01*
X101668767Y-79700619D01*
X101668764Y-79700620D01*
X101503903Y-79784622D01*
X101465606Y-79812447D01*
X101354213Y-79893379D01*
X101354211Y-79893381D01*
X101354210Y-79893381D01*
X101223381Y-80024210D01*
X101223381Y-80024211D01*
X101223379Y-80024213D01*
X101217003Y-80032989D01*
X101114622Y-80173903D01*
X101030620Y-80338764D01*
X101030619Y-80338767D01*
X100973445Y-80514734D01*
X100944500Y-80697486D01*
X97723780Y-80697486D01*
X97723780Y-78149616D01*
X98304500Y-78149616D01*
X98304500Y-78350384D01*
X98325107Y-78480489D01*
X98335907Y-78548680D01*
X98397949Y-78739626D01*
X98466957Y-78875060D01*
X98489095Y-78918508D01*
X98607103Y-79080932D01*
X98749068Y-79222897D01*
X98911492Y-79340905D01*
X98988040Y-79379908D01*
X99090373Y-79432050D01*
X99090375Y-79432050D01*
X99090378Y-79432052D01*
X99281320Y-79494093D01*
X99479616Y-79525500D01*
X99479617Y-79525500D01*
X99680383Y-79525500D01*
X99680384Y-79525500D01*
X99878680Y-79494093D01*
X100069622Y-79432052D01*
X100248508Y-79340905D01*
X100410932Y-79222897D01*
X100552897Y-79080932D01*
X100670905Y-78918508D01*
X100762052Y-78739622D01*
X100824093Y-78548680D01*
X100855500Y-78350384D01*
X100855500Y-78149616D01*
X103384500Y-78149616D01*
X103384500Y-78350384D01*
X103405107Y-78480489D01*
X103415907Y-78548680D01*
X103477949Y-78739626D01*
X103546957Y-78875060D01*
X103569095Y-78918508D01*
X103687103Y-79080932D01*
X103829068Y-79222897D01*
X103991492Y-79340905D01*
X104068040Y-79379908D01*
X104170373Y-79432050D01*
X104170375Y-79432050D01*
X104170378Y-79432052D01*
X104361320Y-79494093D01*
X104559616Y-79525500D01*
X104559617Y-79525500D01*
X104760383Y-79525500D01*
X104760384Y-79525500D01*
X104958680Y-79494093D01*
X105149622Y-79432052D01*
X105328508Y-79340905D01*
X105490932Y-79222897D01*
X105632897Y-79080932D01*
X105750905Y-78918508D01*
X105754952Y-78910565D01*
X107714500Y-78910565D01*
X107714500Y-79009435D01*
X107740090Y-79104938D01*
X107740091Y-79104939D01*
X107740091Y-79104940D01*
X107753337Y-79127882D01*
X107789525Y-79190562D01*
X107859438Y-79260475D01*
X107945062Y-79309910D01*
X108040565Y-79335500D01*
X108040567Y-79335500D01*
X108139432Y-79335500D01*
X108139435Y-79335500D01*
X108234938Y-79309910D01*
X108320562Y-79260475D01*
X108390475Y-79190562D01*
X108439910Y-79104938D01*
X108465500Y-79009435D01*
X108465500Y-78990691D01*
X121419500Y-78990691D01*
X121419500Y-79109309D01*
X121450201Y-79223886D01*
X121509511Y-79326613D01*
X121593387Y-79410489D01*
X121696114Y-79469799D01*
X121810691Y-79500500D01*
X121810694Y-79500500D01*
X121929306Y-79500500D01*
X121929309Y-79500500D01*
X122043886Y-79469799D01*
X122146613Y-79410489D01*
X122230489Y-79326613D01*
X122289799Y-79223886D01*
X122320500Y-79109309D01*
X122320500Y-78990691D01*
X122315107Y-78970565D01*
X133784500Y-78970565D01*
X133784500Y-79069435D01*
X133810090Y-79164938D01*
X133859525Y-79250562D01*
X133929438Y-79320475D01*
X134015062Y-79369910D01*
X134110565Y-79395500D01*
X134110567Y-79395500D01*
X134209432Y-79395500D01*
X134209435Y-79395500D01*
X134304938Y-79369910D01*
X134390562Y-79320475D01*
X134460475Y-79250562D01*
X134509910Y-79164938D01*
X134535500Y-79069435D01*
X134535500Y-78980565D01*
X134994500Y-78980565D01*
X134994500Y-79079435D01*
X135020090Y-79174938D01*
X135020091Y-79174939D01*
X135020091Y-79174940D01*
X135029111Y-79190563D01*
X135069525Y-79260562D01*
X135139438Y-79330475D01*
X135225062Y-79379910D01*
X135320565Y-79405500D01*
X135320567Y-79405500D01*
X135419432Y-79405500D01*
X135419435Y-79405500D01*
X135514938Y-79379910D01*
X135600562Y-79330475D01*
X135670475Y-79260562D01*
X135719910Y-79174938D01*
X135745500Y-79079435D01*
X135745500Y-78980565D01*
X135719910Y-78885062D01*
X135670475Y-78799438D01*
X135600562Y-78729525D01*
X135514938Y-78680090D01*
X135419435Y-78654500D01*
X135320565Y-78654500D01*
X135225062Y-78680090D01*
X135225060Y-78680091D01*
X135225059Y-78680091D01*
X135139436Y-78729526D01*
X135069526Y-78799436D01*
X135020091Y-78885059D01*
X135020091Y-78885060D01*
X135020090Y-78885062D01*
X134994500Y-78980565D01*
X134535500Y-78980565D01*
X134535500Y-78970565D01*
X134509910Y-78875062D01*
X134460475Y-78789438D01*
X134390562Y-78719525D01*
X134304938Y-78670090D01*
X134209435Y-78644500D01*
X134110565Y-78644500D01*
X134015062Y-78670090D01*
X134015060Y-78670091D01*
X134015059Y-78670091D01*
X133929436Y-78719526D01*
X133859526Y-78789436D01*
X133810091Y-78875059D01*
X133810091Y-78875060D01*
X133810090Y-78875062D01*
X133784500Y-78970565D01*
X122315107Y-78970565D01*
X122289799Y-78876114D01*
X122230489Y-78773387D01*
X122146613Y-78689511D01*
X122043886Y-78630201D01*
X121929309Y-78599500D01*
X121810691Y-78599500D01*
X121696114Y-78630201D01*
X121696112Y-78630201D01*
X121696112Y-78630202D01*
X121593387Y-78689511D01*
X121593384Y-78689513D01*
X121509513Y-78773384D01*
X121509511Y-78773387D01*
X121450810Y-78875060D01*
X121450201Y-78876114D01*
X121419500Y-78990691D01*
X108465500Y-78990691D01*
X108465500Y-78910565D01*
X108439910Y-78815062D01*
X108390475Y-78729438D01*
X108320562Y-78659525D01*
X108234938Y-78610090D01*
X108139435Y-78584500D01*
X108040565Y-78584500D01*
X107945062Y-78610090D01*
X107945060Y-78610091D01*
X107945059Y-78610091D01*
X107859436Y-78659526D01*
X107789526Y-78729436D01*
X107740091Y-78815059D01*
X107740091Y-78815060D01*
X107740090Y-78815062D01*
X107714500Y-78910565D01*
X105754952Y-78910565D01*
X105803614Y-78815062D01*
X105842050Y-78739626D01*
X105842050Y-78739625D01*
X105842052Y-78739622D01*
X105904093Y-78548680D01*
X105935500Y-78350384D01*
X105935500Y-78149616D01*
X105921416Y-78060691D01*
X114969500Y-78060691D01*
X114969500Y-78179309D01*
X115000201Y-78293886D01*
X115059511Y-78396613D01*
X115143387Y-78480489D01*
X115246114Y-78539799D01*
X115360691Y-78570500D01*
X115360694Y-78570500D01*
X115479306Y-78570500D01*
X115479309Y-78570500D01*
X115593886Y-78539799D01*
X115696613Y-78480489D01*
X115780489Y-78396613D01*
X115839799Y-78293886D01*
X115870500Y-78179309D01*
X115870500Y-78060691D01*
X115839799Y-77946114D01*
X115780489Y-77843387D01*
X115696613Y-77759511D01*
X115593886Y-77700201D01*
X115479309Y-77669500D01*
X115360691Y-77669500D01*
X115246114Y-77700201D01*
X115246112Y-77700201D01*
X115246112Y-77700202D01*
X115143387Y-77759511D01*
X115143384Y-77759513D01*
X115059513Y-77843384D01*
X115059511Y-77843387D01*
X115000201Y-77946114D01*
X114969500Y-78060691D01*
X105921416Y-78060691D01*
X105904093Y-77951320D01*
X105902401Y-77946114D01*
X105861395Y-77819910D01*
X105842052Y-77760378D01*
X105842050Y-77760375D01*
X105842050Y-77760373D01*
X105776496Y-77631717D01*
X105750905Y-77581492D01*
X105633985Y-77420565D01*
X118464500Y-77420565D01*
X118464500Y-77519435D01*
X118490090Y-77614938D01*
X118539525Y-77700562D01*
X118609438Y-77770475D01*
X118695062Y-77819910D01*
X118790565Y-77845500D01*
X118790567Y-77845500D01*
X118889432Y-77845500D01*
X118889435Y-77845500D01*
X118984938Y-77819910D01*
X119070562Y-77770475D01*
X119140475Y-77700562D01*
X119189910Y-77614938D01*
X119215500Y-77519435D01*
X119215500Y-77420565D01*
X119189910Y-77325062D01*
X119187314Y-77320565D01*
X133784500Y-77320565D01*
X133784500Y-77419435D01*
X133810090Y-77514938D01*
X133810091Y-77514939D01*
X133810091Y-77514940D01*
X133812686Y-77519435D01*
X133859525Y-77600562D01*
X133929438Y-77670475D01*
X134015062Y-77719910D01*
X134110565Y-77745500D01*
X134110567Y-77745500D01*
X134209432Y-77745500D01*
X134209435Y-77745500D01*
X134276518Y-77727525D01*
X168039500Y-77727525D01*
X168039500Y-77872475D01*
X168060627Y-77951320D01*
X168077017Y-78012488D01*
X168149488Y-78138011D01*
X168149490Y-78138013D01*
X168149491Y-78138015D01*
X168251985Y-78240509D01*
X168251986Y-78240510D01*
X168251988Y-78240511D01*
X168377511Y-78312982D01*
X168377512Y-78312982D01*
X168377515Y-78312984D01*
X168517525Y-78350500D01*
X168517528Y-78350500D01*
X168662472Y-78350500D01*
X168662475Y-78350500D01*
X168802485Y-78312984D01*
X168928015Y-78240509D01*
X169030509Y-78138015D01*
X169102984Y-78012485D01*
X169140500Y-77872475D01*
X169140500Y-77727525D01*
X169102984Y-77587515D01*
X169030509Y-77461985D01*
X168928015Y-77359491D01*
X168928013Y-77359490D01*
X168928011Y-77359488D01*
X168802488Y-77287017D01*
X168802489Y-77287017D01*
X168791006Y-77283940D01*
X168662475Y-77249500D01*
X168517525Y-77249500D01*
X168388993Y-77283940D01*
X168377511Y-77287017D01*
X168251988Y-77359488D01*
X168251982Y-77359493D01*
X168149493Y-77461982D01*
X168149488Y-77461988D01*
X168077017Y-77587511D01*
X168077016Y-77587515D01*
X168039500Y-77727525D01*
X134276518Y-77727525D01*
X134304938Y-77719910D01*
X134390562Y-77670475D01*
X134460475Y-77600562D01*
X134509910Y-77514938D01*
X134535500Y-77419435D01*
X134535500Y-77320565D01*
X134509910Y-77225062D01*
X134460475Y-77139438D01*
X134390562Y-77069525D01*
X134304938Y-77020090D01*
X134209435Y-76994500D01*
X134110565Y-76994500D01*
X134015062Y-77020090D01*
X134015060Y-77020091D01*
X134015059Y-77020091D01*
X133929436Y-77069526D01*
X133859526Y-77139436D01*
X133810091Y-77225059D01*
X133810091Y-77225060D01*
X133810090Y-77225062D01*
X133784500Y-77320565D01*
X119187314Y-77320565D01*
X119140475Y-77239438D01*
X119121535Y-77220498D01*
X119113136Y-77205457D01*
X119109053Y-77187511D01*
X119100233Y-77171358D01*
X119101463Y-77154149D01*
X119097637Y-77137328D01*
X119103904Y-77120025D01*
X119105217Y-77101666D01*
X119117445Y-77082638D01*
X119121431Y-77071635D01*
X119127490Y-77067008D01*
X119133718Y-77057319D01*
X119200475Y-76990562D01*
X119249910Y-76904938D01*
X119275500Y-76809435D01*
X119275500Y-76710565D01*
X119249910Y-76615062D01*
X119200475Y-76529438D01*
X119130562Y-76459525D01*
X119044938Y-76410090D01*
X118949435Y-76384500D01*
X118850565Y-76384500D01*
X118755062Y-76410090D01*
X118755060Y-76410091D01*
X118755059Y-76410091D01*
X118669436Y-76459526D01*
X118599526Y-76529436D01*
X118550091Y-76615059D01*
X118550091Y-76615060D01*
X118550090Y-76615062D01*
X118524500Y-76710565D01*
X118524500Y-76809435D01*
X118550090Y-76904938D01*
X118550091Y-76904939D01*
X118550091Y-76904940D01*
X118599526Y-76990563D01*
X118606282Y-76997319D01*
X118639767Y-77058642D01*
X118634783Y-77128334D01*
X118606282Y-77172681D01*
X118539526Y-77239436D01*
X118490091Y-77325059D01*
X118490091Y-77325060D01*
X118490090Y-77325062D01*
X118464500Y-77420565D01*
X105633985Y-77420565D01*
X105632897Y-77419068D01*
X105490932Y-77277103D01*
X105328508Y-77159095D01*
X105285788Y-77137328D01*
X105149626Y-77067949D01*
X104958680Y-77005907D01*
X104760384Y-76974500D01*
X104559616Y-76974500D01*
X104460468Y-76990203D01*
X104361319Y-77005907D01*
X104170373Y-77067949D01*
X103991491Y-77159095D01*
X103927680Y-77205457D01*
X103829068Y-77277103D01*
X103829066Y-77277105D01*
X103829065Y-77277105D01*
X103687105Y-77419065D01*
X103687105Y-77419066D01*
X103687103Y-77419068D01*
X103686014Y-77420567D01*
X103569095Y-77581491D01*
X103477949Y-77760373D01*
X103415907Y-77951319D01*
X103415907Y-77951320D01*
X103384500Y-78149616D01*
X100855500Y-78149616D01*
X100824093Y-77951320D01*
X100762052Y-77760378D01*
X100762050Y-77760375D01*
X100762050Y-77760373D01*
X100696496Y-77631717D01*
X100670905Y-77581492D01*
X100552897Y-77419068D01*
X100410932Y-77277103D01*
X100248508Y-77159095D01*
X100205788Y-77137328D01*
X100069626Y-77067949D01*
X99878680Y-77005907D01*
X99680384Y-76974500D01*
X99479616Y-76974500D01*
X99380468Y-76990203D01*
X99281319Y-77005907D01*
X99090373Y-77067949D01*
X98911491Y-77159095D01*
X98847680Y-77205457D01*
X98749068Y-77277103D01*
X98749066Y-77277105D01*
X98749065Y-77277105D01*
X98607105Y-77419065D01*
X98607105Y-77419066D01*
X98607103Y-77419068D01*
X98606014Y-77420567D01*
X98489095Y-77581491D01*
X98397949Y-77760373D01*
X98335907Y-77951319D01*
X98335907Y-77951320D01*
X98304500Y-78149616D01*
X97723780Y-78149616D01*
X97723780Y-75910691D01*
X134969500Y-75910691D01*
X134969500Y-76029309D01*
X135000201Y-76143886D01*
X135059511Y-76246613D01*
X135143387Y-76330489D01*
X135246114Y-76389799D01*
X135360691Y-76420500D01*
X135360694Y-76420500D01*
X135479306Y-76420500D01*
X135479309Y-76420500D01*
X135593886Y-76389799D01*
X135696613Y-76330489D01*
X135780489Y-76246613D01*
X135839799Y-76143886D01*
X135870500Y-76029309D01*
X135870500Y-75910691D01*
X135839799Y-75796114D01*
X135780489Y-75693387D01*
X135696613Y-75609511D01*
X135593886Y-75550201D01*
X135479309Y-75519500D01*
X135360691Y-75519500D01*
X135246114Y-75550201D01*
X135246112Y-75550201D01*
X135246112Y-75550202D01*
X135143387Y-75609511D01*
X135143384Y-75609513D01*
X135059513Y-75693384D01*
X135059511Y-75693387D01*
X135003449Y-75790489D01*
X135000201Y-75796114D01*
X134969500Y-75910691D01*
X97723780Y-75910691D01*
X97723780Y-75475565D01*
X129879500Y-75475565D01*
X129879500Y-75574435D01*
X129905090Y-75669938D01*
X129954525Y-75755562D01*
X130024438Y-75825475D01*
X130110062Y-75874910D01*
X130205565Y-75900500D01*
X130205567Y-75900500D01*
X130304432Y-75900500D01*
X130304435Y-75900500D01*
X130399938Y-75874910D01*
X130485562Y-75825475D01*
X130555475Y-75755562D01*
X130604910Y-75669938D01*
X130630500Y-75574435D01*
X130630500Y-75475565D01*
X130604910Y-75380062D01*
X130555475Y-75294438D01*
X130485562Y-75224525D01*
X130399938Y-75175090D01*
X130304435Y-75149500D01*
X130205565Y-75149500D01*
X130110062Y-75175090D01*
X130110060Y-75175091D01*
X130110059Y-75175091D01*
X130024436Y-75224526D01*
X129954526Y-75294436D01*
X129905091Y-75380059D01*
X129905091Y-75380060D01*
X129905090Y-75380062D01*
X129879500Y-75475565D01*
X97723780Y-75475565D01*
X97723780Y-74660565D01*
X115644500Y-74660565D01*
X115644500Y-74759435D01*
X115670090Y-74854938D01*
X115719525Y-74940562D01*
X115789438Y-75010475D01*
X115875062Y-75059910D01*
X115970565Y-75085500D01*
X115970567Y-75085500D01*
X116069432Y-75085500D01*
X116069435Y-75085500D01*
X116164938Y-75059910D01*
X116250562Y-75010475D01*
X116320475Y-74940562D01*
X116369910Y-74854938D01*
X116395500Y-74759435D01*
X116395500Y-74660565D01*
X116369910Y-74565062D01*
X116320475Y-74479438D01*
X116261602Y-74420565D01*
X135034500Y-74420565D01*
X135034500Y-74519435D01*
X135060090Y-74614938D01*
X135109525Y-74700562D01*
X135179438Y-74770475D01*
X135265062Y-74819910D01*
X135360565Y-74845500D01*
X135360567Y-74845500D01*
X135459432Y-74845500D01*
X135459435Y-74845500D01*
X135554938Y-74819910D01*
X135640562Y-74770475D01*
X135710475Y-74700562D01*
X135733495Y-74660691D01*
X136899500Y-74660691D01*
X136899500Y-74779309D01*
X136930201Y-74893886D01*
X136989511Y-74996613D01*
X137073387Y-75080489D01*
X137129027Y-75112613D01*
X137177242Y-75163181D01*
X137190464Y-75231788D01*
X137164496Y-75296653D01*
X137129027Y-75327387D01*
X137073387Y-75359511D01*
X137073384Y-75359513D01*
X136989513Y-75443384D01*
X136989511Y-75443387D01*
X136971584Y-75474438D01*
X136930201Y-75546114D01*
X136899500Y-75660691D01*
X136899500Y-75779309D01*
X136930201Y-75893886D01*
X136989511Y-75996613D01*
X137073387Y-76080489D01*
X137176114Y-76139799D01*
X137290691Y-76170500D01*
X137290694Y-76170500D01*
X137409306Y-76170500D01*
X137409309Y-76170500D01*
X137523886Y-76139799D01*
X137626613Y-76080489D01*
X137710489Y-75996613D01*
X137769799Y-75893886D01*
X137800500Y-75779309D01*
X137800500Y-75660691D01*
X137769799Y-75546114D01*
X137769797Y-75546110D01*
X137728417Y-75474438D01*
X137720856Y-75461344D01*
X137710489Y-75443387D01*
X137687667Y-75420565D01*
X138824500Y-75420565D01*
X138824500Y-75519435D01*
X138850090Y-75614938D01*
X138899525Y-75700562D01*
X138969438Y-75770475D01*
X139055062Y-75819910D01*
X139150565Y-75845500D01*
X139150567Y-75845500D01*
X139249432Y-75845500D01*
X139249435Y-75845500D01*
X139344938Y-75819910D01*
X139430562Y-75770475D01*
X139500475Y-75700562D01*
X139549910Y-75614938D01*
X139575500Y-75519435D01*
X139575500Y-75420565D01*
X139562136Y-75370691D01*
X140219500Y-75370691D01*
X140219500Y-75489309D01*
X140250201Y-75603886D01*
X140309511Y-75706613D01*
X140393387Y-75790489D01*
X140496114Y-75849799D01*
X140610691Y-75880500D01*
X140610694Y-75880500D01*
X140729306Y-75880500D01*
X140729309Y-75880500D01*
X140843886Y-75849799D01*
X140946613Y-75790489D01*
X141030489Y-75706613D01*
X141089799Y-75603886D01*
X141120500Y-75489309D01*
X141120500Y-75370691D01*
X141089799Y-75256114D01*
X141030489Y-75153387D01*
X140946613Y-75069511D01*
X140843886Y-75010201D01*
X140729309Y-74979500D01*
X140610691Y-74979500D01*
X140496114Y-75010201D01*
X140496112Y-75010201D01*
X140496112Y-75010202D01*
X140393387Y-75069511D01*
X140393384Y-75069513D01*
X140309513Y-75153384D01*
X140309511Y-75153387D01*
X140268439Y-75224526D01*
X140250201Y-75256114D01*
X140219500Y-75370691D01*
X139562136Y-75370691D01*
X139549910Y-75325062D01*
X139500475Y-75239438D01*
X139430562Y-75169525D01*
X139344938Y-75120090D01*
X139249435Y-75094500D01*
X139150565Y-75094500D01*
X139055062Y-75120090D01*
X139055060Y-75120091D01*
X139055059Y-75120091D01*
X138969436Y-75169526D01*
X138899526Y-75239436D01*
X138850091Y-75325059D01*
X138850091Y-75325060D01*
X138850090Y-75325062D01*
X138824500Y-75420565D01*
X137687667Y-75420565D01*
X137626613Y-75359511D01*
X137570972Y-75327386D01*
X137522757Y-75276820D01*
X137509535Y-75208213D01*
X137535503Y-75143348D01*
X137570973Y-75112613D01*
X137626613Y-75080489D01*
X137710489Y-74996613D01*
X137769799Y-74893886D01*
X137800500Y-74779309D01*
X137800500Y-74660691D01*
X137769799Y-74546114D01*
X137710489Y-74443387D01*
X137626613Y-74359511D01*
X137626611Y-74359510D01*
X137626609Y-74359508D01*
X137621892Y-74356785D01*
X137621891Y-74356785D01*
X137523886Y-74300201D01*
X137409309Y-74269500D01*
X137290691Y-74269500D01*
X137176114Y-74300201D01*
X137176112Y-74300201D01*
X137176112Y-74300202D01*
X137073387Y-74359511D01*
X137073384Y-74359513D01*
X136989513Y-74443384D01*
X136989511Y-74443387D01*
X136930201Y-74546114D01*
X136899500Y-74660691D01*
X135733495Y-74660691D01*
X135759910Y-74614938D01*
X135785500Y-74519435D01*
X135785500Y-74420565D01*
X135759910Y-74325062D01*
X135720918Y-74257525D01*
X157549500Y-74257525D01*
X157549500Y-74402475D01*
X157587016Y-74542485D01*
X157587017Y-74542488D01*
X157659488Y-74668011D01*
X157659490Y-74668013D01*
X157659491Y-74668015D01*
X157761985Y-74770509D01*
X157761986Y-74770510D01*
X157761988Y-74770511D01*
X157887511Y-74842982D01*
X157887512Y-74842982D01*
X157887515Y-74842984D01*
X158027525Y-74880500D01*
X158027528Y-74880500D01*
X158172472Y-74880500D01*
X158172475Y-74880500D01*
X158312485Y-74842984D01*
X158438015Y-74770509D01*
X158540509Y-74668015D01*
X158612984Y-74542485D01*
X158650500Y-74402475D01*
X158650500Y-74257525D01*
X158612984Y-74117515D01*
X158599696Y-74094500D01*
X158540511Y-73991988D01*
X158540506Y-73991982D01*
X158438017Y-73889493D01*
X158438011Y-73889488D01*
X158312488Y-73817017D01*
X158312489Y-73817017D01*
X158301006Y-73813940D01*
X158172475Y-73779500D01*
X158027525Y-73779500D01*
X157898993Y-73813940D01*
X157887511Y-73817017D01*
X157761988Y-73889488D01*
X157761982Y-73889493D01*
X157659493Y-73991982D01*
X157659488Y-73991988D01*
X157587017Y-74117511D01*
X157587016Y-74117515D01*
X157549500Y-74257525D01*
X135720918Y-74257525D01*
X135710475Y-74239438D01*
X135640562Y-74169525D01*
X135554938Y-74120090D01*
X135459435Y-74094500D01*
X135360565Y-74094500D01*
X135265062Y-74120090D01*
X135265060Y-74120091D01*
X135265059Y-74120091D01*
X135179436Y-74169526D01*
X135109526Y-74239436D01*
X135060091Y-74325059D01*
X135060091Y-74325060D01*
X135060090Y-74325062D01*
X135034500Y-74420565D01*
X116261602Y-74420565D01*
X116250562Y-74409525D01*
X116164938Y-74360090D01*
X116069435Y-74334500D01*
X115970565Y-74334500D01*
X115875062Y-74360090D01*
X115875060Y-74360091D01*
X115875059Y-74360091D01*
X115789436Y-74409526D01*
X115719526Y-74479436D01*
X115670091Y-74565059D01*
X115670091Y-74565060D01*
X115670090Y-74565062D01*
X115644500Y-74660565D01*
X97723780Y-74660565D01*
X97723780Y-73055837D01*
X105659500Y-73055837D01*
X105659500Y-73284162D01*
X105695215Y-73509660D01*
X105765770Y-73726803D01*
X105849399Y-73890932D01*
X105869421Y-73930228D01*
X106003621Y-74114937D01*
X106165063Y-74276379D01*
X106349772Y-74410579D01*
X106445884Y-74459550D01*
X106553196Y-74514229D01*
X106553198Y-74514229D01*
X106553201Y-74514231D01*
X106669592Y-74552049D01*
X106770339Y-74584784D01*
X106995838Y-74620500D01*
X106995843Y-74620500D01*
X107224162Y-74620500D01*
X107449660Y-74584784D01*
X107666799Y-74514231D01*
X107870228Y-74410579D01*
X108054937Y-74276379D01*
X108216379Y-74114937D01*
X108350579Y-73930228D01*
X108454231Y-73726799D01*
X108524784Y-73509660D01*
X108529090Y-73482472D01*
X108560500Y-73284162D01*
X108560500Y-73055837D01*
X108536255Y-72902768D01*
X108524784Y-72830340D01*
X108524782Y-72830336D01*
X108524782Y-72830331D01*
X108517437Y-72807727D01*
X108517434Y-72807717D01*
X108507624Y-72777525D01*
X110559500Y-72777525D01*
X110559500Y-72922475D01*
X110572099Y-72969493D01*
X110597017Y-73062488D01*
X110669488Y-73188011D01*
X110669490Y-73188013D01*
X110669491Y-73188015D01*
X110771985Y-73290509D01*
X110771986Y-73290510D01*
X110771988Y-73290511D01*
X110897511Y-73362982D01*
X110897512Y-73362982D01*
X110897515Y-73362984D01*
X111037525Y-73400500D01*
X111037528Y-73400500D01*
X111182472Y-73400500D01*
X111182475Y-73400500D01*
X111322485Y-73362984D01*
X111343498Y-73350851D01*
X111411398Y-73334378D01*
X111477425Y-73357229D01*
X111520617Y-73412150D01*
X111529500Y-73458238D01*
X111529500Y-73482475D01*
X111552977Y-73570090D01*
X111567017Y-73622488D01*
X111639488Y-73748011D01*
X111639490Y-73748013D01*
X111639491Y-73748015D01*
X111741985Y-73850509D01*
X111741986Y-73850510D01*
X111741988Y-73850511D01*
X111867511Y-73922982D01*
X111867512Y-73922982D01*
X111867515Y-73922984D01*
X112007525Y-73960500D01*
X112007528Y-73960500D01*
X112152472Y-73960500D01*
X112152475Y-73960500D01*
X112292485Y-73922984D01*
X112383277Y-73870565D01*
X118444500Y-73870565D01*
X118444500Y-73969435D01*
X118470090Y-74064938D01*
X118519525Y-74150562D01*
X118589438Y-74220475D01*
X118675062Y-74269910D01*
X118770565Y-74295500D01*
X118770567Y-74295500D01*
X118869432Y-74295500D01*
X118869435Y-74295500D01*
X118964938Y-74269910D01*
X119050562Y-74220475D01*
X119120475Y-74150562D01*
X119169910Y-74064938D01*
X119195500Y-73969435D01*
X119195500Y-73870565D01*
X119169910Y-73775062D01*
X119149993Y-73740565D01*
X132184500Y-73740565D01*
X132184500Y-73839435D01*
X132210090Y-73934938D01*
X132259525Y-74020562D01*
X132329438Y-74090475D01*
X132415062Y-74139910D01*
X132510565Y-74165500D01*
X132510567Y-74165500D01*
X132609432Y-74165500D01*
X132609435Y-74165500D01*
X132704938Y-74139910D01*
X132790562Y-74090475D01*
X132860475Y-74020562D01*
X132909910Y-73934938D01*
X132935500Y-73839435D01*
X132935500Y-73740565D01*
X132909910Y-73645062D01*
X132860475Y-73559438D01*
X132790562Y-73489525D01*
X132704938Y-73440090D01*
X132609435Y-73414500D01*
X132510565Y-73414500D01*
X132415062Y-73440090D01*
X132415060Y-73440091D01*
X132415059Y-73440091D01*
X132329436Y-73489526D01*
X132259526Y-73559436D01*
X132210091Y-73645059D01*
X132210091Y-73645060D01*
X132210090Y-73645062D01*
X132184500Y-73740565D01*
X119149993Y-73740565D01*
X119120475Y-73689438D01*
X119050562Y-73619525D01*
X118964938Y-73570090D01*
X118869435Y-73544500D01*
X118770565Y-73544500D01*
X118675062Y-73570090D01*
X118675060Y-73570091D01*
X118675059Y-73570091D01*
X118589436Y-73619526D01*
X118519526Y-73689436D01*
X118470091Y-73775059D01*
X118470091Y-73775060D01*
X118470090Y-73775062D01*
X118444500Y-73870565D01*
X112383277Y-73870565D01*
X112418015Y-73850509D01*
X112520509Y-73748015D01*
X112592984Y-73622485D01*
X112630500Y-73482475D01*
X112630500Y-73440565D01*
X113244500Y-73440565D01*
X113244500Y-73539435D01*
X113270090Y-73634938D01*
X113319525Y-73720562D01*
X113389438Y-73790475D01*
X113475062Y-73839910D01*
X113570565Y-73865500D01*
X113570567Y-73865500D01*
X113669432Y-73865500D01*
X113669435Y-73865500D01*
X113764938Y-73839910D01*
X113850562Y-73790475D01*
X113920475Y-73720562D01*
X113969910Y-73634938D01*
X113995500Y-73539435D01*
X113995500Y-73440565D01*
X113969910Y-73345062D01*
X113920475Y-73259438D01*
X113850562Y-73189525D01*
X113764938Y-73140090D01*
X113669435Y-73114500D01*
X113570565Y-73114500D01*
X113475062Y-73140090D01*
X113475060Y-73140091D01*
X113475059Y-73140091D01*
X113389436Y-73189526D01*
X113319526Y-73259436D01*
X113270091Y-73345059D01*
X113270091Y-73345060D01*
X113270090Y-73345062D01*
X113244500Y-73440565D01*
X112630500Y-73440565D01*
X112630500Y-73337525D01*
X112592984Y-73197515D01*
X112587500Y-73188017D01*
X112520511Y-73071988D01*
X112520506Y-73071982D01*
X112418017Y-72969493D01*
X112418011Y-72969488D01*
X112379970Y-72947525D01*
X129059500Y-72947525D01*
X129059500Y-73092475D01*
X129085101Y-73188017D01*
X129097017Y-73232488D01*
X129169488Y-73358011D01*
X129169490Y-73358013D01*
X129169491Y-73358015D01*
X129271985Y-73460509D01*
X129271986Y-73460510D01*
X129271988Y-73460511D01*
X129397511Y-73532982D01*
X129397512Y-73532982D01*
X129397515Y-73532984D01*
X129537525Y-73570500D01*
X129537528Y-73570500D01*
X129682472Y-73570500D01*
X129682475Y-73570500D01*
X129822485Y-73532984D01*
X129948015Y-73460509D01*
X130050509Y-73358015D01*
X130122984Y-73232485D01*
X130160500Y-73092475D01*
X130160500Y-72959616D01*
X167194500Y-72959616D01*
X167194500Y-73160384D01*
X167199116Y-73189526D01*
X167225907Y-73358680D01*
X167287949Y-73549626D01*
X167336576Y-73645060D01*
X167379095Y-73728508D01*
X167497103Y-73890932D01*
X167639068Y-74032897D01*
X167801492Y-74150905D01*
X167838036Y-74169525D01*
X167980373Y-74242050D01*
X167980375Y-74242050D01*
X167980378Y-74242052D01*
X168171320Y-74304093D01*
X168369616Y-74335500D01*
X168369617Y-74335500D01*
X168570383Y-74335500D01*
X168570384Y-74335500D01*
X168768680Y-74304093D01*
X168959622Y-74242052D01*
X169138508Y-74150905D01*
X169300932Y-74032897D01*
X169442897Y-73890932D01*
X169560905Y-73728508D01*
X169652052Y-73549622D01*
X169714093Y-73358680D01*
X169745500Y-73160384D01*
X169745500Y-72959616D01*
X172274500Y-72959616D01*
X172274500Y-73160384D01*
X172279116Y-73189526D01*
X172305907Y-73358680D01*
X172367949Y-73549626D01*
X172416576Y-73645060D01*
X172459095Y-73728508D01*
X172577103Y-73890932D01*
X172719068Y-74032897D01*
X172881492Y-74150905D01*
X172918036Y-74169525D01*
X173060373Y-74242050D01*
X173060375Y-74242050D01*
X173060378Y-74242052D01*
X173251320Y-74304093D01*
X173449616Y-74335500D01*
X173449617Y-74335500D01*
X173650383Y-74335500D01*
X173650384Y-74335500D01*
X173848680Y-74304093D01*
X174039622Y-74242052D01*
X174218508Y-74150905D01*
X174380932Y-74032897D01*
X174522897Y-73890932D01*
X174640905Y-73728508D01*
X174732052Y-73549622D01*
X174794093Y-73358680D01*
X174825500Y-73160384D01*
X174825500Y-72959616D01*
X174794093Y-72761320D01*
X174732052Y-72570378D01*
X174732050Y-72570375D01*
X174732050Y-72570373D01*
X174650219Y-72409772D01*
X174640905Y-72391492D01*
X174522897Y-72229068D01*
X174380932Y-72087103D01*
X174218508Y-71969095D01*
X174039626Y-71877949D01*
X173848680Y-71815907D01*
X173718648Y-71795312D01*
X173650384Y-71784500D01*
X173449616Y-71784500D01*
X173381352Y-71795312D01*
X173251319Y-71815907D01*
X173060373Y-71877949D01*
X172881491Y-71969095D01*
X172859515Y-71985062D01*
X172719068Y-72087103D01*
X172719066Y-72087105D01*
X172719065Y-72087105D01*
X172577105Y-72229065D01*
X172577105Y-72229066D01*
X172577103Y-72229068D01*
X172543776Y-72274939D01*
X172459095Y-72391491D01*
X172367949Y-72570373D01*
X172305907Y-72761319D01*
X172305907Y-72761320D01*
X172274500Y-72959616D01*
X169745500Y-72959616D01*
X169714093Y-72761320D01*
X169652052Y-72570378D01*
X169652050Y-72570375D01*
X169652050Y-72570373D01*
X169570219Y-72409772D01*
X169560905Y-72391492D01*
X169442897Y-72229068D01*
X169300932Y-72087103D01*
X169138508Y-71969095D01*
X168959626Y-71877949D01*
X168768680Y-71815907D01*
X168638648Y-71795312D01*
X168570384Y-71784500D01*
X168369616Y-71784500D01*
X168301352Y-71795312D01*
X168171319Y-71815907D01*
X167980373Y-71877949D01*
X167801491Y-71969095D01*
X167779515Y-71985062D01*
X167639068Y-72087103D01*
X167639066Y-72087105D01*
X167639065Y-72087105D01*
X167497105Y-72229065D01*
X167497105Y-72229066D01*
X167497103Y-72229068D01*
X167463776Y-72274939D01*
X167379095Y-72391491D01*
X167287949Y-72570373D01*
X167225907Y-72761319D01*
X167225907Y-72761320D01*
X167194500Y-72959616D01*
X130160500Y-72959616D01*
X130160500Y-72947525D01*
X130122984Y-72807515D01*
X130105670Y-72777527D01*
X130050511Y-72681988D01*
X130050506Y-72681982D01*
X129948017Y-72579493D01*
X129948011Y-72579488D01*
X129822488Y-72507017D01*
X129822489Y-72507017D01*
X129811006Y-72503940D01*
X129682475Y-72469500D01*
X129537525Y-72469500D01*
X129408993Y-72503940D01*
X129397511Y-72507017D01*
X129271988Y-72579488D01*
X129271982Y-72579493D01*
X129169493Y-72681982D01*
X129169488Y-72681988D01*
X129097017Y-72807511D01*
X129097016Y-72807515D01*
X129059500Y-72947525D01*
X112379970Y-72947525D01*
X112292488Y-72897017D01*
X112292489Y-72897017D01*
X112281006Y-72893940D01*
X112152475Y-72859500D01*
X112007525Y-72859500D01*
X111867515Y-72897016D01*
X111867514Y-72897016D01*
X111867512Y-72897017D01*
X111846499Y-72909149D01*
X111778598Y-72925620D01*
X111712572Y-72902768D01*
X111669382Y-72847846D01*
X111660500Y-72801761D01*
X111660500Y-72777527D01*
X111660500Y-72777525D01*
X111622984Y-72637515D01*
X111608946Y-72613201D01*
X111550511Y-72511988D01*
X111550506Y-72511982D01*
X111448017Y-72409493D01*
X111448011Y-72409488D01*
X111322488Y-72337017D01*
X111322489Y-72337017D01*
X111311006Y-72333940D01*
X111182475Y-72299500D01*
X111037525Y-72299500D01*
X110908993Y-72333940D01*
X110897511Y-72337017D01*
X110771988Y-72409488D01*
X110771982Y-72409493D01*
X110669493Y-72511982D01*
X110669488Y-72511988D01*
X110597017Y-72637511D01*
X110597016Y-72637515D01*
X110559500Y-72777525D01*
X108507624Y-72777525D01*
X108454229Y-72613196D01*
X108381012Y-72469500D01*
X108350579Y-72409772D01*
X108216379Y-72225063D01*
X108054937Y-72063621D01*
X107870228Y-71929421D01*
X107811383Y-71899438D01*
X107666803Y-71825770D01*
X107449660Y-71755215D01*
X107224162Y-71719500D01*
X107224157Y-71719500D01*
X106995843Y-71719500D01*
X106995838Y-71719500D01*
X106770339Y-71755215D01*
X106553196Y-71825770D01*
X106349771Y-71929421D01*
X106165061Y-72063622D01*
X106003622Y-72225061D01*
X105869421Y-72409771D01*
X105765770Y-72613196D01*
X105695215Y-72830339D01*
X105659500Y-73055837D01*
X97723780Y-73055837D01*
X97723780Y-71060565D01*
X112534500Y-71060565D01*
X112534500Y-71159435D01*
X112560090Y-71254938D01*
X112609525Y-71340562D01*
X112679438Y-71410475D01*
X112765062Y-71459910D01*
X112860565Y-71485500D01*
X112860567Y-71485500D01*
X112959432Y-71485500D01*
X112959435Y-71485500D01*
X113054938Y-71459910D01*
X113140562Y-71410475D01*
X113210475Y-71340562D01*
X113259910Y-71254938D01*
X113263761Y-71240565D01*
X118284500Y-71240565D01*
X118284500Y-71339435D01*
X118310090Y-71434938D01*
X118359525Y-71520562D01*
X118429438Y-71590475D01*
X118465462Y-71611274D01*
X118513678Y-71661840D01*
X118526900Y-71730447D01*
X118500932Y-71795312D01*
X118465466Y-71826045D01*
X118459436Y-71829526D01*
X118389526Y-71899436D01*
X118340091Y-71985059D01*
X118340091Y-71985060D01*
X118340090Y-71985062D01*
X118314500Y-72080565D01*
X118314500Y-72179435D01*
X118340090Y-72274938D01*
X118389525Y-72360562D01*
X118459438Y-72430475D01*
X118545062Y-72479910D01*
X118640565Y-72505500D01*
X118640567Y-72505500D01*
X118739432Y-72505500D01*
X118739435Y-72505500D01*
X118834938Y-72479910D01*
X118920562Y-72430475D01*
X118990475Y-72360562D01*
X119039910Y-72274938D01*
X119065500Y-72179435D01*
X119065500Y-72080565D01*
X119039910Y-71985062D01*
X118990475Y-71899438D01*
X118920562Y-71829525D01*
X118884534Y-71808724D01*
X118836321Y-71758158D01*
X118823099Y-71689551D01*
X118849067Y-71624686D01*
X118884539Y-71593952D01*
X118890562Y-71590475D01*
X118960475Y-71520562D01*
X119009910Y-71434938D01*
X119035500Y-71339435D01*
X119035500Y-71240565D01*
X119009910Y-71145062D01*
X118960475Y-71059438D01*
X118890562Y-70989525D01*
X118804938Y-70940090D01*
X118709435Y-70914500D01*
X118610565Y-70914500D01*
X118515062Y-70940090D01*
X118515060Y-70940091D01*
X118515059Y-70940091D01*
X118429436Y-70989526D01*
X118359526Y-71059436D01*
X118310091Y-71145059D01*
X118310091Y-71145060D01*
X118310090Y-71145062D01*
X118284500Y-71240565D01*
X113263761Y-71240565D01*
X113285500Y-71159435D01*
X113285500Y-71060565D01*
X113259910Y-70965062D01*
X113259905Y-70965053D01*
X113258901Y-70962628D01*
X113258662Y-70960407D01*
X113257806Y-70957212D01*
X113258304Y-70957078D01*
X113251433Y-70893158D01*
X113282709Y-70830679D01*
X113342798Y-70795027D01*
X113405554Y-70795400D01*
X113480565Y-70815500D01*
X113480567Y-70815500D01*
X113579432Y-70815500D01*
X113579435Y-70815500D01*
X113674938Y-70789910D01*
X113760562Y-70740475D01*
X113830475Y-70670562D01*
X113879910Y-70584938D01*
X113905500Y-70489435D01*
X113905500Y-70390565D01*
X113879910Y-70295062D01*
X113830475Y-70209438D01*
X113760562Y-70139525D01*
X113674938Y-70090090D01*
X113579435Y-70064500D01*
X113480565Y-70064500D01*
X113385062Y-70090090D01*
X113385060Y-70090091D01*
X113385059Y-70090091D01*
X113299436Y-70139526D01*
X113229526Y-70209436D01*
X113180091Y-70295059D01*
X113180091Y-70295060D01*
X113180090Y-70295062D01*
X113154500Y-70390565D01*
X113154500Y-70489435D01*
X113166693Y-70534938D01*
X113180091Y-70584942D01*
X113181100Y-70587377D01*
X113181338Y-70589594D01*
X113182194Y-70592788D01*
X113181695Y-70592921D01*
X113188564Y-70656847D01*
X113157286Y-70719324D01*
X113097195Y-70754973D01*
X113034443Y-70754598D01*
X112979618Y-70739908D01*
X112959435Y-70734500D01*
X112860565Y-70734500D01*
X112765062Y-70760090D01*
X112765060Y-70760091D01*
X112765059Y-70760091D01*
X112679436Y-70809526D01*
X112609526Y-70879436D01*
X112560091Y-70965059D01*
X112560091Y-70965060D01*
X112560090Y-70965062D01*
X112534500Y-71060565D01*
X97723780Y-71060565D01*
X97723780Y-69890565D01*
X114084500Y-69890565D01*
X114084500Y-69989435D01*
X114110090Y-70084938D01*
X114110091Y-70084939D01*
X114110091Y-70084940D01*
X114113065Y-70090091D01*
X114159525Y-70170562D01*
X114229438Y-70240475D01*
X114315062Y-70289910D01*
X114410565Y-70315500D01*
X114410567Y-70315500D01*
X114509432Y-70315500D01*
X114509435Y-70315500D01*
X114604938Y-70289910D01*
X114690562Y-70240475D01*
X114760475Y-70170562D01*
X114809910Y-70084938D01*
X114835500Y-69989435D01*
X114835500Y-69950565D01*
X116424500Y-69950565D01*
X116424500Y-70049435D01*
X116450090Y-70144938D01*
X116499525Y-70230562D01*
X116569438Y-70300475D01*
X116655062Y-70349910D01*
X116750565Y-70375500D01*
X116750567Y-70375500D01*
X116849432Y-70375500D01*
X116849435Y-70375500D01*
X116944938Y-70349910D01*
X116961124Y-70340565D01*
X117644500Y-70340565D01*
X117644500Y-70439435D01*
X117670090Y-70534938D01*
X117719525Y-70620562D01*
X117789438Y-70690475D01*
X117875062Y-70739910D01*
X117970565Y-70765500D01*
X117970567Y-70765500D01*
X118069432Y-70765500D01*
X118069435Y-70765500D01*
X118164938Y-70739910D01*
X118250562Y-70690475D01*
X118320475Y-70620562D01*
X118369910Y-70534938D01*
X118395500Y-70439435D01*
X118395500Y-70427486D01*
X169834500Y-70427486D01*
X169834500Y-70612513D01*
X169863445Y-70795265D01*
X169920619Y-70971232D01*
X169920620Y-70971235D01*
X169966137Y-71060565D01*
X170004622Y-71136096D01*
X170113379Y-71285787D01*
X170244213Y-71416621D01*
X170393904Y-71525378D01*
X170474763Y-71566577D01*
X170558764Y-71609379D01*
X170558767Y-71609380D01*
X170605875Y-71624686D01*
X170734736Y-71666555D01*
X170917486Y-71695500D01*
X170917487Y-71695500D01*
X171102513Y-71695500D01*
X171102514Y-71695500D01*
X171285264Y-71666555D01*
X171461235Y-71609379D01*
X171626096Y-71525378D01*
X171775787Y-71416621D01*
X171906621Y-71285787D01*
X172015378Y-71136096D01*
X172099379Y-70971235D01*
X172156555Y-70795264D01*
X172185500Y-70612514D01*
X172185500Y-70427486D01*
X172156555Y-70244736D01*
X172124129Y-70144938D01*
X172099380Y-70068767D01*
X172099379Y-70068764D01*
X172015377Y-69903903D01*
X172005688Y-69890567D01*
X171906621Y-69754213D01*
X171775787Y-69623379D01*
X171626096Y-69514622D01*
X171461235Y-69430620D01*
X171461232Y-69430619D01*
X171285265Y-69373445D01*
X171193889Y-69358972D01*
X171102514Y-69344500D01*
X170917486Y-69344500D01*
X170856569Y-69354148D01*
X170734734Y-69373445D01*
X170558767Y-69430619D01*
X170558764Y-69430620D01*
X170393903Y-69514622D01*
X170325253Y-69564500D01*
X170244213Y-69623379D01*
X170244211Y-69623381D01*
X170244210Y-69623381D01*
X170113381Y-69754210D01*
X170113381Y-69754211D01*
X170113379Y-69754213D01*
X170066672Y-69818499D01*
X170004622Y-69903903D01*
X169920620Y-70068764D01*
X169920619Y-70068767D01*
X169863445Y-70244734D01*
X169834500Y-70427486D01*
X118395500Y-70427486D01*
X118395500Y-70340565D01*
X118369910Y-70245062D01*
X118320475Y-70159438D01*
X118250562Y-70089525D01*
X118164938Y-70040090D01*
X118069435Y-70014500D01*
X117970565Y-70014500D01*
X117875062Y-70040090D01*
X117875060Y-70040091D01*
X117875059Y-70040091D01*
X117789436Y-70089526D01*
X117719526Y-70159436D01*
X117670091Y-70245059D01*
X117670091Y-70245060D01*
X117670090Y-70245062D01*
X117644500Y-70340565D01*
X116961124Y-70340565D01*
X117030562Y-70300475D01*
X117100475Y-70230562D01*
X117149910Y-70144938D01*
X117175500Y-70049435D01*
X117175500Y-69950565D01*
X117149910Y-69855062D01*
X117100475Y-69769438D01*
X117030562Y-69699525D01*
X116944938Y-69650090D01*
X116849435Y-69624500D01*
X116750565Y-69624500D01*
X116655062Y-69650090D01*
X116655060Y-69650091D01*
X116655059Y-69650091D01*
X116569436Y-69699526D01*
X116499526Y-69769436D01*
X116450091Y-69855059D01*
X116450091Y-69855060D01*
X116450090Y-69855062D01*
X116424500Y-69950565D01*
X114835500Y-69950565D01*
X114835500Y-69890565D01*
X114809910Y-69795062D01*
X114760475Y-69709438D01*
X114690562Y-69639525D01*
X114604938Y-69590090D01*
X114509435Y-69564500D01*
X114410565Y-69564500D01*
X114315062Y-69590090D01*
X114315060Y-69590091D01*
X114315059Y-69590091D01*
X114229436Y-69639526D01*
X114159526Y-69709436D01*
X114110091Y-69795059D01*
X114110091Y-69795060D01*
X114110090Y-69795062D01*
X114084500Y-69890565D01*
X97723780Y-69890565D01*
X97723780Y-68224822D01*
X107974499Y-68224822D01*
X107983231Y-68268717D01*
X107983234Y-68268724D01*
X107995088Y-68286465D01*
X108016496Y-68318504D01*
X108066278Y-68351767D01*
X108066281Y-68351767D01*
X108077564Y-68356442D01*
X108076613Y-68358737D01*
X108123358Y-68383183D01*
X108157939Y-68443895D01*
X108154207Y-68513665D01*
X108124952Y-68560102D01*
X108119723Y-68565331D01*
X108048538Y-68671866D01*
X108048533Y-68671875D01*
X107999499Y-68790255D01*
X107999497Y-68790261D01*
X107974500Y-68915928D01*
X107974500Y-68915931D01*
X107974500Y-69044069D01*
X107974500Y-69044071D01*
X107974499Y-69044071D01*
X107999497Y-69169738D01*
X107999499Y-69169744D01*
X108048533Y-69288124D01*
X108048538Y-69288133D01*
X108119723Y-69394668D01*
X108119726Y-69394672D01*
X108210327Y-69485273D01*
X108210331Y-69485276D01*
X108316866Y-69556461D01*
X108316872Y-69556464D01*
X108316873Y-69556465D01*
X108435256Y-69605501D01*
X108435260Y-69605501D01*
X108435261Y-69605502D01*
X108560928Y-69630500D01*
X108560931Y-69630500D01*
X108689071Y-69630500D01*
X108773615Y-69613682D01*
X108814744Y-69605501D01*
X108933127Y-69556465D01*
X109039669Y-69485276D01*
X109130276Y-69394669D01*
X109156898Y-69354825D01*
X109210509Y-69310022D01*
X109279834Y-69301314D01*
X109342862Y-69331468D01*
X109363100Y-69354824D01*
X109375543Y-69373445D01*
X109389725Y-69394671D01*
X109480327Y-69485273D01*
X109480331Y-69485276D01*
X109586866Y-69556461D01*
X109586872Y-69556464D01*
X109586873Y-69556465D01*
X109705256Y-69605501D01*
X109705260Y-69605501D01*
X109705261Y-69605502D01*
X109830928Y-69630500D01*
X109830931Y-69630500D01*
X109959071Y-69630500D01*
X110043615Y-69613682D01*
X110084744Y-69605501D01*
X110203127Y-69556465D01*
X110309669Y-69485276D01*
X110400276Y-69394669D01*
X110471465Y-69288127D01*
X110520501Y-69169744D01*
X110545500Y-69044069D01*
X110545500Y-68915931D01*
X110545500Y-68915928D01*
X110520502Y-68790261D01*
X110520501Y-68790260D01*
X110520501Y-68790256D01*
X110471465Y-68671873D01*
X110471464Y-68671872D01*
X110471461Y-68671866D01*
X110400276Y-68565331D01*
X110400273Y-68565327D01*
X110309671Y-68474725D01*
X110294382Y-68464509D01*
X110269825Y-68448101D01*
X110225022Y-68394491D01*
X110216314Y-68325166D01*
X110246468Y-68262138D01*
X110269824Y-68241899D01*
X110309669Y-68215276D01*
X110400276Y-68124669D01*
X110471465Y-68018127D01*
X110520501Y-67899744D01*
X110524505Y-67879616D01*
X167194500Y-67879616D01*
X167194500Y-68080384D01*
X167215865Y-68215276D01*
X167225907Y-68278680D01*
X167287949Y-68469626D01*
X167336712Y-68565327D01*
X167379095Y-68648508D01*
X167497103Y-68810932D01*
X167639068Y-68952897D01*
X167801492Y-69070905D01*
X167886007Y-69113967D01*
X167980373Y-69162050D01*
X167980375Y-69162050D01*
X167980378Y-69162052D01*
X168171320Y-69224093D01*
X168369616Y-69255500D01*
X168369617Y-69255500D01*
X168570383Y-69255500D01*
X168570384Y-69255500D01*
X168768680Y-69224093D01*
X168959622Y-69162052D01*
X169138508Y-69070905D01*
X169300932Y-68952897D01*
X169442897Y-68810932D01*
X169560905Y-68648508D01*
X169652052Y-68469622D01*
X169714093Y-68278680D01*
X169745500Y-68080384D01*
X169745500Y-67879616D01*
X172274500Y-67879616D01*
X172274500Y-68080384D01*
X172295865Y-68215276D01*
X172305907Y-68278680D01*
X172367949Y-68469626D01*
X172416712Y-68565327D01*
X172459095Y-68648508D01*
X172577103Y-68810932D01*
X172719068Y-68952897D01*
X172881492Y-69070905D01*
X172966007Y-69113967D01*
X173060373Y-69162050D01*
X173060375Y-69162050D01*
X173060378Y-69162052D01*
X173251320Y-69224093D01*
X173449616Y-69255500D01*
X173449617Y-69255500D01*
X173650383Y-69255500D01*
X173650384Y-69255500D01*
X173848680Y-69224093D01*
X174039622Y-69162052D01*
X174218508Y-69070905D01*
X174380932Y-68952897D01*
X174522897Y-68810932D01*
X174640905Y-68648508D01*
X174732052Y-68469622D01*
X174794093Y-68278680D01*
X174825500Y-68080384D01*
X174825500Y-67879616D01*
X174794093Y-67681320D01*
X174732052Y-67490378D01*
X174732050Y-67490375D01*
X174732050Y-67490373D01*
X174640904Y-67311491D01*
X174629160Y-67295327D01*
X174522897Y-67149068D01*
X174380932Y-67007103D01*
X174218508Y-66889095D01*
X174039626Y-66797949D01*
X173848680Y-66735907D01*
X173650384Y-66704500D01*
X173449616Y-66704500D01*
X173350468Y-66720203D01*
X173251319Y-66735907D01*
X173060373Y-66797949D01*
X172881491Y-66889095D01*
X172788822Y-66956423D01*
X172719068Y-67007103D01*
X172719066Y-67007105D01*
X172719065Y-67007105D01*
X172577105Y-67149065D01*
X172577105Y-67149066D01*
X172577103Y-67149068D01*
X172567298Y-67162564D01*
X172459095Y-67311491D01*
X172367949Y-67490373D01*
X172305907Y-67681319D01*
X172305907Y-67681320D01*
X172274500Y-67879616D01*
X169745500Y-67879616D01*
X169714093Y-67681320D01*
X169652052Y-67490378D01*
X169652050Y-67490375D01*
X169652050Y-67490373D01*
X169560904Y-67311491D01*
X169549160Y-67295327D01*
X169442897Y-67149068D01*
X169300932Y-67007103D01*
X169138508Y-66889095D01*
X168959626Y-66797949D01*
X168768680Y-66735907D01*
X168570384Y-66704500D01*
X168369616Y-66704500D01*
X168270468Y-66720203D01*
X168171319Y-66735907D01*
X167980373Y-66797949D01*
X167801491Y-66889095D01*
X167708822Y-66956423D01*
X167639068Y-67007103D01*
X167639066Y-67007105D01*
X167639065Y-67007105D01*
X167497105Y-67149065D01*
X167497105Y-67149066D01*
X167497103Y-67149068D01*
X167487298Y-67162564D01*
X167379095Y-67311491D01*
X167287949Y-67490373D01*
X167225907Y-67681319D01*
X167225907Y-67681320D01*
X167194500Y-67879616D01*
X110524505Y-67879616D01*
X110530287Y-67850551D01*
X110530287Y-67850549D01*
X110545499Y-67774073D01*
X110545500Y-67774071D01*
X110545500Y-67645928D01*
X110520502Y-67520261D01*
X110520501Y-67520260D01*
X110520501Y-67520256D01*
X110471465Y-67401873D01*
X110471464Y-67401872D01*
X110471461Y-67401866D01*
X110400276Y-67295331D01*
X110400273Y-67295327D01*
X110309672Y-67204726D01*
X110309668Y-67204723D01*
X110203133Y-67133538D01*
X110203124Y-67133533D01*
X110084744Y-67084499D01*
X110084738Y-67084497D01*
X109959071Y-67059500D01*
X109959069Y-67059500D01*
X109830931Y-67059500D01*
X109830929Y-67059500D01*
X109705261Y-67084497D01*
X109705255Y-67084499D01*
X109586875Y-67133533D01*
X109586866Y-67133538D01*
X109480331Y-67204723D01*
X109475102Y-67209952D01*
X109413777Y-67243434D01*
X109344085Y-67238445D01*
X109288154Y-67196571D01*
X109272750Y-67162021D01*
X109271442Y-67162564D01*
X109266767Y-67151281D01*
X109266767Y-67151278D01*
X109233504Y-67101496D01*
X109208063Y-67084497D01*
X109183724Y-67068234D01*
X109183717Y-67068231D01*
X109139822Y-67059500D01*
X109139820Y-67059500D01*
X108110180Y-67059500D01*
X108110178Y-67059500D01*
X108066282Y-67068231D01*
X108066275Y-67068234D01*
X108016496Y-67101495D01*
X108016495Y-67101496D01*
X107983234Y-67151275D01*
X107983231Y-67151282D01*
X107974500Y-67195177D01*
X107974500Y-67195180D01*
X107974500Y-68224820D01*
X107974500Y-68224822D01*
X107974499Y-68224822D01*
X97723780Y-68224822D01*
X97723780Y-67967673D01*
X97693256Y-67893981D01*
X97636854Y-67837579D01*
X95279966Y-65480691D01*
X112999500Y-65480691D01*
X112999500Y-65599309D01*
X113030201Y-65713886D01*
X113089511Y-65816613D01*
X113173387Y-65900489D01*
X113276114Y-65959799D01*
X113390691Y-65990500D01*
X113390694Y-65990500D01*
X113509306Y-65990500D01*
X113509309Y-65990500D01*
X113623886Y-65959799D01*
X113726613Y-65900489D01*
X113810489Y-65816613D01*
X113869799Y-65713886D01*
X113900500Y-65599309D01*
X113900500Y-65480691D01*
X119559500Y-65480691D01*
X119559500Y-65599309D01*
X119590201Y-65713886D01*
X119649511Y-65816613D01*
X119733387Y-65900489D01*
X119836114Y-65959799D01*
X119950691Y-65990500D01*
X119950694Y-65990500D01*
X120069306Y-65990500D01*
X120069309Y-65990500D01*
X120183886Y-65959799D01*
X120286613Y-65900489D01*
X120370489Y-65816613D01*
X120429799Y-65713886D01*
X120460500Y-65599309D01*
X120460500Y-65480691D01*
X120429799Y-65366114D01*
X120370489Y-65263387D01*
X120286613Y-65179511D01*
X120183886Y-65120201D01*
X120069309Y-65089500D01*
X119950691Y-65089500D01*
X119836114Y-65120201D01*
X119836112Y-65120201D01*
X119836112Y-65120202D01*
X119733387Y-65179511D01*
X119733384Y-65179513D01*
X119649513Y-65263384D01*
X119649511Y-65263387D01*
X119590201Y-65366114D01*
X119559500Y-65480691D01*
X113900500Y-65480691D01*
X113869799Y-65366114D01*
X113810489Y-65263387D01*
X113726613Y-65179511D01*
X113623886Y-65120201D01*
X113509309Y-65089500D01*
X113390691Y-65089500D01*
X113276114Y-65120201D01*
X113276112Y-65120201D01*
X113276112Y-65120202D01*
X113173387Y-65179511D01*
X113173384Y-65179513D01*
X113089513Y-65263384D01*
X113089511Y-65263387D01*
X113030201Y-65366114D01*
X112999500Y-65480691D01*
X95279966Y-65480691D01*
X92783298Y-62984023D01*
X92749814Y-62922701D01*
X92746980Y-62896343D01*
X92746980Y-58262697D01*
X92747826Y-58260518D01*
X92746980Y-58222912D01*
X92746980Y-58217803D01*
X92746991Y-58216128D01*
X92749517Y-58029091D01*
X92749517Y-58029090D01*
X92749528Y-58028302D01*
X94820110Y-58028302D01*
X94834281Y-58282761D01*
X94834283Y-58282775D01*
X94884578Y-58532615D01*
X94884581Y-58532625D01*
X94969973Y-58772747D01*
X94969977Y-58772757D01*
X95088720Y-58998258D01*
X95152607Y-59086307D01*
X95238396Y-59204542D01*
X95415944Y-59387386D01*
X95415948Y-59387389D01*
X95415949Y-59387390D01*
X95496589Y-59449598D01*
X95617740Y-59543058D01*
X95839663Y-59668379D01*
X96061989Y-59754880D01*
X96077177Y-59760789D01*
X96077178Y-59760789D01*
X96077182Y-59760791D01*
X96325447Y-59818407D01*
X96420495Y-59826518D01*
X96427740Y-59829597D01*
X96460000Y-59829890D01*
X96492155Y-59832631D01*
X96492160Y-59832629D01*
X96504294Y-59831273D01*
X96504452Y-59832693D01*
X96519455Y-59830430D01*
X99166247Y-59854499D01*
X99172661Y-59855023D01*
X99219635Y-59855023D01*
X99223264Y-59855023D01*
X99224391Y-59855028D01*
X99224618Y-59855030D01*
X99257699Y-59855331D01*
X99257701Y-59855330D01*
X99266829Y-59855413D01*
X99270968Y-59855024D01*
X99348414Y-59855027D01*
X99348421Y-59855026D01*
X99348425Y-59855026D01*
X99462951Y-59838562D01*
X99603351Y-59818381D01*
X99735756Y-59779507D01*
X99850469Y-59745829D01*
X99850472Y-59745828D01*
X99850473Y-59745827D01*
X99850478Y-59745826D01*
X100084764Y-59638839D01*
X100301438Y-59499598D01*
X100496091Y-59330937D01*
X100664759Y-59136291D01*
X100804008Y-58919621D01*
X100911003Y-58685339D01*
X100983567Y-58438215D01*
X101020223Y-58183279D01*
X101020223Y-58079576D01*
X171042503Y-58079576D01*
X171075343Y-58333990D01*
X171130876Y-58532625D01*
X171144413Y-58581044D01*
X171248272Y-58815596D01*
X171363068Y-58998258D01*
X171384772Y-59032792D01*
X171551072Y-59228110D01*
X171551074Y-59228112D01*
X171551080Y-59228118D01*
X171743718Y-59397493D01*
X171743717Y-59397493D01*
X171743719Y-59397494D01*
X171743720Y-59397495D01*
X171958715Y-59537431D01*
X172070003Y-59588841D01*
X172191589Y-59645009D01*
X172191591Y-59645009D01*
X172191592Y-59645010D01*
X172437513Y-59717998D01*
X172691372Y-59754880D01*
X172692063Y-59754880D01*
X172817550Y-59754974D01*
X172818936Y-59754983D01*
X176615655Y-59804292D01*
X176623870Y-59805023D01*
X176669635Y-59805023D01*
X176671048Y-59805023D01*
X176672656Y-59805032D01*
X176706917Y-59805478D01*
X176706918Y-59805477D01*
X176714740Y-59805579D01*
X176720766Y-59805024D01*
X176798414Y-59805027D01*
X176798421Y-59805026D01*
X176798425Y-59805026D01*
X176912951Y-59788562D01*
X177053351Y-59768381D01*
X177224959Y-59717998D01*
X177300469Y-59695829D01*
X177300472Y-59695828D01*
X177300473Y-59695827D01*
X177300478Y-59695826D01*
X177534764Y-59588839D01*
X177751438Y-59449598D01*
X177946091Y-59280937D01*
X178114759Y-59086291D01*
X178254008Y-58869621D01*
X178361003Y-58635339D01*
X178433567Y-58388215D01*
X178470223Y-58133279D01*
X178470223Y-57875721D01*
X178433567Y-57620785D01*
X178361003Y-57373661D01*
X178358927Y-57369116D01*
X178276843Y-57189380D01*
X178254008Y-57139379D01*
X178114759Y-56922709D01*
X177946091Y-56728063D01*
X177940781Y-56723462D01*
X177751442Y-56559405D01*
X177751437Y-56559401D01*
X177612569Y-56470161D01*
X177534764Y-56420161D01*
X177534759Y-56420158D01*
X177534758Y-56420158D01*
X177300472Y-56313171D01*
X177300469Y-56313170D01*
X177053353Y-56240619D01*
X176798420Y-56203973D01*
X176720666Y-56203973D01*
X176720666Y-56203974D01*
X176709496Y-56203974D01*
X176709482Y-56203969D01*
X176671844Y-56203975D01*
X176669641Y-56203976D01*
X176669634Y-56203977D01*
X176618858Y-56203977D01*
X176618752Y-56203987D01*
X172873218Y-56204768D01*
X172869353Y-56204709D01*
X172747769Y-56200942D01*
X172492866Y-56229750D01*
X172492864Y-56229751D01*
X172244759Y-56294897D01*
X172244739Y-56294904D01*
X172008584Y-56395032D01*
X171789252Y-56528079D01*
X171591334Y-56691260D01*
X171591322Y-56691271D01*
X171418922Y-56881198D01*
X171418910Y-56881214D01*
X171275600Y-57093949D01*
X171275594Y-57093961D01*
X171164341Y-57325105D01*
X171164338Y-57325113D01*
X171087470Y-57569839D01*
X171087469Y-57569841D01*
X171046573Y-57823084D01*
X171043317Y-58028299D01*
X171042503Y-58079576D01*
X101020223Y-58079576D01*
X101020223Y-57925721D01*
X100983567Y-57670785D01*
X100911003Y-57423661D01*
X100908927Y-57419116D01*
X100804010Y-57189384D01*
X100804008Y-57189380D01*
X100804008Y-57189379D01*
X100664759Y-56972709D01*
X100496091Y-56778063D01*
X100488518Y-56771501D01*
X100301442Y-56609405D01*
X100301437Y-56609401D01*
X100192837Y-56539612D01*
X100084764Y-56470161D01*
X100084759Y-56470158D01*
X100084758Y-56470158D01*
X99850472Y-56363171D01*
X99850469Y-56363170D01*
X99603353Y-56290619D01*
X99348420Y-56253973D01*
X99271177Y-56253973D01*
X99271177Y-56253974D01*
X99258526Y-56253974D01*
X99257608Y-56253605D01*
X99218651Y-56253976D01*
X99218097Y-56253977D01*
X99218096Y-56253976D01*
X99218092Y-56253977D01*
X99171031Y-56253977D01*
X99166188Y-56254477D01*
X96568150Y-56279284D01*
X96568151Y-56279285D01*
X96552843Y-56279431D01*
X96548565Y-56277921D01*
X96513145Y-56279809D01*
X96510411Y-56279836D01*
X96510410Y-56279837D01*
X96477621Y-56280151D01*
X96476798Y-56280323D01*
X96458081Y-56282762D01*
X96381495Y-56286856D01*
X96131521Y-56336566D01*
X96131514Y-56336568D01*
X95891196Y-56421393D01*
X95891190Y-56421395D01*
X95891190Y-56421396D01*
X95665403Y-56539612D01*
X95665401Y-56539613D01*
X95665396Y-56539616D01*
X95665394Y-56539617D01*
X95458767Y-56688804D01*
X95275512Y-56865916D01*
X95275505Y-56865923D01*
X95119362Y-57067350D01*
X94993519Y-57288978D01*
X94900552Y-57526271D01*
X94900550Y-57526279D01*
X94842351Y-57774406D01*
X94820110Y-58028302D01*
X92749528Y-58028302D01*
X92749849Y-58004500D01*
X92752984Y-57772396D01*
X92753423Y-57763526D01*
X92791324Y-57321323D01*
X92792406Y-57312468D01*
X92805206Y-57231865D01*
X92862011Y-56874164D01*
X92863726Y-56865411D01*
X92869127Y-56842291D01*
X92964681Y-56433233D01*
X92967012Y-56424657D01*
X93098801Y-56000833D01*
X93101756Y-55992417D01*
X93241247Y-55636443D01*
X93263675Y-55579206D01*
X93267214Y-55571051D01*
X93458456Y-55170516D01*
X93462558Y-55162665D01*
X93682118Y-54776919D01*
X93686791Y-54769356D01*
X93933514Y-54400422D01*
X93938714Y-54393221D01*
X94211345Y-54042978D01*
X94217052Y-54036168D01*
X94514177Y-53706434D01*
X94520344Y-53700068D01*
X94755301Y-53474335D01*
X94817281Y-53442085D01*
X94840496Y-53439757D01*
X99179864Y-53414979D01*
X99180572Y-53414977D01*
X134699760Y-53414977D01*
X136056598Y-53414977D01*
X145606998Y-53414977D01*
X146764760Y-53414977D01*
X172204463Y-53414977D01*
X177492272Y-53429557D01*
G37*
%TD.AperFunction*%
%TD*%
M02*
