M48
; DRILL file {KiCad 9.0.0} date 2025-06-18T14:50:30-0700
; FORMAT={-:-/ absolute / inch / decimal}
; #@! TF.CreationDate,2025-06-18T14:50:30-07:00
; #@! TF.GenerationSoftware,Kicad,Pcbnew,9.0.0
; #@! TF.FileFunction,Plated,1,4,PTH
FMAT,2
INCH
; #@! TA.AperFunction,Plated,PTH,ViaDrill
T1C0.0079
; #@! TA.AperFunction,Plated,PTH,ComponentDrill
T2C0.0098
; #@! TA.AperFunction,Plated,PTH,ViaDrill
T3C0.0118
; #@! TA.AperFunction,Plated,PTH,ViaDrill
T4C0.0157
; #@! TA.AperFunction,Plated,PTH,ViaDrill
T5C0.0197
; #@! TA.AperFunction,Plated,PTH,ViaDrill
T6C0.0236
; #@! TA.AperFunction,Plated,PTH,ComponentDrill
T7C0.0256
; #@! TA.AperFunction,Plated,PTH,ComponentDrill
T8C0.0256
; #@! TA.AperFunction,Plated,PTH,ViaDrill
T9C0.0315
; #@! TA.AperFunction,Plated,PTH,ComponentDrill
T10C0.0335
; #@! TA.AperFunction,Plated,PTH,ComponentDrill
T11C0.0394
; #@! TA.AperFunction,Plated,PTH,ViaDrill
T12C0.0394
; #@! TA.AperFunction,Plated,PTH,ComponentDrill
T13C0.0472
; #@! TA.AperFunction,Plated,PTH,ComponentDrill
T14C0.0591
; #@! TA.AperFunction,Plated,PTH,ComponentDrill
T15C0.0630
; #@! TA.AperFunction,Plated,PTH,ComponentDrill
T16C0.0669
; #@! TA.AperFunction,Plated,PTH,ComponentDrill
T17C0.1260
%
G90
G05
T1
X4.2224Y-3.2831
X4.2555Y-3.1087
X4.2579Y-3.3213
X4.2622Y-3.3598
X4.3047Y-3.3984
X4.4453Y-2.7996
X4.4697Y-2.7732
X4.4732Y-2.8933
X4.4781Y-3.4658
X4.5063Y-2.7535
X4.5165Y-3.4953
X4.5677Y-2.9413
X4.5806Y-3.3491
X4.5984Y-2.7559
X4.6465Y-2.7713
X4.6717Y-2.8067
X4.6728Y-2.8398
X4.678Y-2.9102
X4.6787Y-3.05
X4.6811Y-3.022
X4.7578Y-3.4649
X4.8194Y-3.4895
X4.8206Y-3.4397
X4.8547Y-3.2555
X5.1281Y-2.9734
X5.1707Y-3.5175
X5.2173Y-3.4776
X5.2189Y-2.9051
X5.2276Y-3.5382
X5.263Y-3.5232
X5.263Y-3.5657
X5.2819Y-3.0461
X5.2819Y-3.111
X5.3295Y-3.1114
X5.3307Y-4.0847
X5.3311Y-2.9319
X5.3543Y-4.0217
X5.4213Y-3.3083
X5.4803Y-2.9713
X6.224Y-3.5634
T2
X5.4075Y-2.9417
X5.4075Y-2.9811
T3
X3.9071Y-4.9394
X4.1181Y-3.6421
X4.1418Y-3.6658
X4.1898Y-5.0563
X4.2738Y-3.4874
X4.2878Y-3.2409
X4.3004Y-3.4551
X4.3154Y-3.0661
X4.3681Y-3.3583
X4.4394Y-3.4583
X4.4583Y-3.2232
X4.4602Y-3.1303
X4.4665Y-2.5803
X4.4736Y-2.6941
X4.4768Y-2.9689
X4.5441Y-3.0756
X4.5508Y-3.2232
X4.5512Y-3.1299
X4.6213Y-3.5953
X4.7173Y-3.9843
X4.7217Y-3.8228
X4.7248Y-2.5803
X4.7512Y-3.3319
X4.7598Y-3.6071
X4.772Y-3.1469
X4.7799Y-3.3004
X4.798Y-3.1122
X4.9055Y-3.3516
X4.9937Y-3.4807
X5.0331Y-2.8976
X5.0567Y-3.5555
X5.1193Y-2.9232
X5.2268Y-4.5201
X5.2307Y-3.028
X5.2543Y-3.4579
X5.2669Y-4.5445
X5.3315Y-2.9909
X5.4807Y-2.8815
X5.5382Y-2.9697
X5.7264Y-3.9669
X5.8528Y-4.0165
X5.8677Y-3.6382
X5.9177Y-3.963
X5.9756Y-4.1268
X6.1811Y-4.578
X6.6339Y-3.7283
T4
X3.9031Y-5.0508
X4.3744Y-2.8681
X4.4083Y-3.8661
X4.4126Y-2.8902
X5.1028Y-2.8748
X5.2634Y-3.3992
X5.8268Y-3.9732
X5.9717Y-3.6732
X6.0094Y-3.7213
X6.2244Y-2.9264
X6.2835Y-3.6913
X6.3906Y-3.7823
X6.5575Y-3.5638
X6.6374Y-3.063
X6.7035Y-5.2925
X6.7122Y-4.9949
X6.8457Y-4.9937
X6.8634Y-5.2217
T5
X4.0866Y-3.5965
X5.6657Y-2.4102
X6.2335Y-4.961
X6.7039Y-5.0807
T6
X3.9067Y-3.9185
X3.9539Y-4.3654
X3.9921Y-4.6012
X4.0157Y-4.4886
X4.2555Y-4.7835
X4.3488Y-4.1646
T8
X4.2766Y-2.6657
X4.2766Y-2.7157
X4.3266Y-2.6657
X4.3266Y-2.7157
T9
X4.2331Y-4.1453
X4.3224Y-3.9437
T10
X4.5043Y-4.3657
X4.5043Y-4.4445
X4.5043Y-4.5232
X4.5043Y-4.602
X4.5043Y-4.6807
X4.5043Y-4.7594
X4.5181Y-4.1035
X4.5181Y-4.1823
X4.5831Y-4.3657
X4.5831Y-4.4445
X4.5831Y-4.5232
X4.5831Y-4.602
X4.5831Y-4.6807
X4.5831Y-4.7594
X4.5969Y-4.1035
X4.5969Y-4.1823
T11
X6.4799Y-3.8209
X6.4799Y-4.6398
X6.602Y-3.8209
X6.602Y-4.6398
T12
X4.5048Y-3.1768
X6.2449Y-4.2315
X6.539Y-4.2303
X6.5409Y-3.9358
X6.5409Y-4.5157
X6.8157Y-4.2339
T13
X4.1638Y-3.8
X4.2638Y-3.8
T14
X4.0205Y-3.1807
X6.7327Y-2.7764
T15
X4.0016Y-4.7531
X4.2169Y-2.8807
X4.9866Y-3.9039
X5.976Y-4.2724
X6.0098Y-3.5118
T16
X3.9205Y-3.0807
X3.9205Y-3.2807
X4.1205Y-3.0807
X4.1205Y-3.2807
X6.6327Y-2.6764
X6.6327Y-2.8764
X6.8327Y-2.6764
X6.8327Y-2.8764
T17
X3.7993Y-5.6555
X6.9489Y-5.6555
T7
G00X3.8986Y-3.5087
M15
G01X3.9281Y-3.5087
M16
G05
G00X3.8986Y-3.8197
M15
G01X3.9281Y-3.8197
M16
G05
M30
