%TF.GenerationSoftware,KiCad,Pcbnew,9.0.0*%
%TF.CreationDate,2025-06-10T14:56:09-07:00*%
%TF.ProjectId,og_pcb,6f675f70-6362-42e6-9b69-6361645f7063,rev?*%
%TF.SameCoordinates,Original*%
%TF.FileFunction,Soldermask,Bot*%
%TF.FilePolarity,Negative*%
%FSLAX46Y46*%
G04 Gerber Fmt 4.6, Leading zero omitted, Abs format (unit mm)*
G04 Created by KiCad (PCBNEW 9.0.0) date 2025-06-10 14:56:09*
%MOMM*%
%LPD*%
G01*
G04 APERTURE LIST*
G04 APERTURE END LIST*
G36*
X95623769Y-159434137D02*
G01*
X95901247Y-159497470D01*
X96169889Y-159591472D01*
X96426317Y-159714961D01*
X96667306Y-159866385D01*
X96889826Y-160043838D01*
X97091078Y-160245090D01*
X97268531Y-160467610D01*
X97419955Y-160708599D01*
X97543444Y-160965027D01*
X97637446Y-161233669D01*
X97700779Y-161511147D01*
X97732645Y-161793971D01*
X97732645Y-162078585D01*
X97700779Y-162361409D01*
X97637446Y-162638887D01*
X97543444Y-162907529D01*
X97419955Y-163163957D01*
X97268531Y-163404946D01*
X97091078Y-163627466D01*
X96889826Y-163828718D01*
X96667306Y-164006171D01*
X96426317Y-164157595D01*
X96169889Y-164281084D01*
X95901247Y-164375086D01*
X95623769Y-164438419D01*
X95340945Y-164470285D01*
X95056331Y-164470285D01*
X94773507Y-164438419D01*
X94496029Y-164375086D01*
X94227387Y-164281084D01*
X93970959Y-164157595D01*
X93729970Y-164006171D01*
X93507450Y-163828718D01*
X93306198Y-163627466D01*
X93128745Y-163404946D01*
X92977321Y-163163957D01*
X92853832Y-162907529D01*
X92759830Y-162638887D01*
X92696497Y-162361409D01*
X92664631Y-162078585D01*
X92664631Y-161793971D01*
X92696497Y-161511147D01*
X92759830Y-161233669D01*
X92853832Y-160965027D01*
X92977321Y-160708599D01*
X93128745Y-160467610D01*
X93306198Y-160245090D01*
X93507450Y-160043838D01*
X93729970Y-159866385D01*
X93970959Y-159714961D01*
X94227387Y-159591472D01*
X94496029Y-159497470D01*
X94773507Y-159434137D01*
X95056331Y-159402271D01*
X95340945Y-159402271D01*
X95623769Y-159434137D01*
G37*
G36*
X175623769Y-159434137D02*
G01*
X175901247Y-159497470D01*
X176169889Y-159591472D01*
X176426317Y-159714961D01*
X176667306Y-159866385D01*
X176889826Y-160043838D01*
X177091078Y-160245090D01*
X177268531Y-160467610D01*
X177419955Y-160708599D01*
X177543444Y-160965027D01*
X177637446Y-161233669D01*
X177700779Y-161511147D01*
X177732645Y-161793971D01*
X177732645Y-162078585D01*
X177700779Y-162361409D01*
X177637446Y-162638887D01*
X177543444Y-162907529D01*
X177419955Y-163163957D01*
X177268531Y-163404946D01*
X177091078Y-163627466D01*
X176889826Y-163828718D01*
X176667306Y-164006171D01*
X176426317Y-164157595D01*
X176169889Y-164281084D01*
X175901247Y-164375086D01*
X175623769Y-164438419D01*
X175340945Y-164470285D01*
X175056331Y-164470285D01*
X174773507Y-164438419D01*
X174496029Y-164375086D01*
X174227387Y-164281084D01*
X173970959Y-164157595D01*
X173729970Y-164006171D01*
X173507450Y-163828718D01*
X173306198Y-163627466D01*
X173128745Y-163404946D01*
X172977321Y-163163957D01*
X172853832Y-162907529D01*
X172759830Y-162638887D01*
X172696497Y-162361409D01*
X172664631Y-162078585D01*
X172664631Y-161793971D01*
X172696497Y-161511147D01*
X172759830Y-161233669D01*
X172853832Y-160965027D01*
X172977321Y-160708599D01*
X173128745Y-160467610D01*
X173306198Y-160245090D01*
X173507450Y-160043838D01*
X173729970Y-159866385D01*
X173970959Y-159714961D01*
X174227387Y-159591472D01*
X174496029Y-159497470D01*
X174773507Y-159434137D01*
X175056331Y-159402271D01*
X175340945Y-159402271D01*
X175623769Y-159434137D01*
G37*
G36*
X145612350Y-147348969D02*
G01*
X145812030Y-147413849D01*
X145999103Y-147509167D01*
X146168961Y-147632577D01*
X146317423Y-147781039D01*
X146440833Y-147950897D01*
X146536151Y-148137970D01*
X146601031Y-148337650D01*
X146633875Y-148545022D01*
X146633875Y-148754978D01*
X146601031Y-148962350D01*
X146536151Y-149162030D01*
X146440833Y-149349103D01*
X146317423Y-149518961D01*
X146168961Y-149667423D01*
X145999103Y-149790833D01*
X145812030Y-149886151D01*
X145612350Y-149951031D01*
X145404978Y-149983875D01*
X145195022Y-149983875D01*
X144987650Y-149951031D01*
X144787970Y-149886151D01*
X144600897Y-149790833D01*
X144431039Y-149667423D01*
X144282577Y-149518961D01*
X144159167Y-149349103D01*
X144063849Y-149162030D01*
X143998969Y-148962350D01*
X143966125Y-148754978D01*
X143966125Y-148545022D01*
X143998969Y-148337650D01*
X144063849Y-148137970D01*
X144159167Y-147950897D01*
X144282577Y-147781039D01*
X144431039Y-147632577D01*
X144600897Y-147509167D01*
X144787970Y-147413849D01*
X144987650Y-147348969D01*
X145195022Y-147316125D01*
X145404978Y-147316125D01*
X145612350Y-147348969D01*
G37*
G36*
X162802333Y-144769825D02*
G01*
X162979628Y-144827431D01*
X163145728Y-144912063D01*
X163296544Y-145021638D01*
X163428362Y-145153456D01*
X163537937Y-145304272D01*
X163622569Y-145470372D01*
X163680175Y-145647667D01*
X163709338Y-145831791D01*
X163709338Y-146018209D01*
X163680175Y-146202333D01*
X163622569Y-146379628D01*
X163537937Y-146545728D01*
X163428362Y-146696544D01*
X163296544Y-146828362D01*
X163145728Y-146937937D01*
X162979628Y-147022569D01*
X162802333Y-147080175D01*
X162618209Y-147109338D01*
X162431791Y-147109338D01*
X162247667Y-147080175D01*
X162070372Y-147022569D01*
X161904272Y-146937937D01*
X161753456Y-146828362D01*
X161621638Y-146696544D01*
X161512063Y-146545728D01*
X161427431Y-146379628D01*
X161369825Y-146202333D01*
X161340662Y-146018209D01*
X161340662Y-145831791D01*
X161369825Y-145647667D01*
X161427431Y-145470372D01*
X161512063Y-145304272D01*
X161621638Y-145153456D01*
X161753456Y-145021638D01*
X161904272Y-144912063D01*
X162070372Y-144827431D01*
X162247667Y-144769825D01*
X162431791Y-144740662D01*
X162618209Y-144740662D01*
X162802333Y-144769825D01*
G37*
G36*
X165902333Y-144769825D02*
G01*
X166079628Y-144827431D01*
X166245728Y-144912063D01*
X166396544Y-145021638D01*
X166528362Y-145153456D01*
X166637937Y-145304272D01*
X166722569Y-145470372D01*
X166780175Y-145647667D01*
X166809338Y-145831791D01*
X166809338Y-146018209D01*
X166780175Y-146202333D01*
X166722569Y-146379628D01*
X166637937Y-146545728D01*
X166528362Y-146696544D01*
X166396544Y-146828362D01*
X166245728Y-146937937D01*
X166079628Y-147022569D01*
X165902333Y-147080175D01*
X165718209Y-147109338D01*
X165531791Y-147109338D01*
X165347667Y-147080175D01*
X165170372Y-147022569D01*
X165004272Y-146937937D01*
X164853456Y-146828362D01*
X164721638Y-146696544D01*
X164612063Y-146545728D01*
X164527431Y-146379628D01*
X164469825Y-146202333D01*
X164440662Y-146018209D01*
X164440662Y-145831791D01*
X164469825Y-145647667D01*
X164527431Y-145470372D01*
X164612063Y-145304272D01*
X164721638Y-145153456D01*
X164853456Y-145021638D01*
X165004272Y-144912063D01*
X165170372Y-144827431D01*
X165347667Y-144769825D01*
X165531791Y-144740662D01*
X165718209Y-144740662D01*
X165902333Y-144769825D01*
G37*
G36*
X99187535Y-145215072D02*
G01*
X99310202Y-145239472D01*
X99425751Y-145287334D01*
X99529743Y-145356819D01*
X99618181Y-145445257D01*
X99687666Y-145549249D01*
X99735528Y-145664798D01*
X99759928Y-145787465D01*
X99759928Y-145912535D01*
X99735528Y-146035202D01*
X99687666Y-146150751D01*
X99618181Y-146254743D01*
X99529743Y-146343181D01*
X99425751Y-146412666D01*
X99310202Y-146460528D01*
X99187535Y-146484928D01*
X99125000Y-146488000D01*
X99124384Y-146488000D01*
X98675616Y-146488000D01*
X98675000Y-146488000D01*
X98612465Y-146484928D01*
X98489798Y-146460528D01*
X98374249Y-146412666D01*
X98270257Y-146343181D01*
X98181819Y-146254743D01*
X98112334Y-146150751D01*
X98064472Y-146035202D01*
X98040072Y-145912535D01*
X98040072Y-145787465D01*
X98064472Y-145664798D01*
X98112334Y-145549249D01*
X98181819Y-145445257D01*
X98270257Y-145356819D01*
X98374249Y-145287334D01*
X98489798Y-145239472D01*
X98612465Y-145215072D01*
X98675000Y-145212000D01*
X99125000Y-145212000D01*
X99187535Y-145215072D01*
G37*
G36*
X101187535Y-145215072D02*
G01*
X101310202Y-145239472D01*
X101425751Y-145287334D01*
X101529743Y-145356819D01*
X101618181Y-145445257D01*
X101687666Y-145549249D01*
X101735528Y-145664798D01*
X101759928Y-145787465D01*
X101759928Y-145912535D01*
X101735528Y-146035202D01*
X101687666Y-146150751D01*
X101618181Y-146254743D01*
X101529743Y-146343181D01*
X101425751Y-146412666D01*
X101310202Y-146460528D01*
X101187535Y-146484928D01*
X101125000Y-146488000D01*
X101124384Y-146488000D01*
X100675616Y-146488000D01*
X100675000Y-146488000D01*
X100612465Y-146484928D01*
X100489798Y-146460528D01*
X100374249Y-146412666D01*
X100270257Y-146343181D01*
X100181819Y-146254743D01*
X100112334Y-146150751D01*
X100064472Y-146035202D01*
X100040072Y-145912535D01*
X100040072Y-145787465D01*
X100064472Y-145664798D01*
X100112334Y-145549249D01*
X100181819Y-145445257D01*
X100270257Y-145356819D01*
X100374249Y-145287334D01*
X100489798Y-145239472D01*
X100612465Y-145215072D01*
X100675000Y-145212000D01*
X101125000Y-145212000D01*
X101187535Y-145215072D01*
G37*
G36*
X99187535Y-143215072D02*
G01*
X99310202Y-143239472D01*
X99425751Y-143287334D01*
X99529743Y-143356819D01*
X99618181Y-143445257D01*
X99687666Y-143549249D01*
X99735528Y-143664798D01*
X99759928Y-143787465D01*
X99759928Y-143912535D01*
X99735528Y-144035202D01*
X99687666Y-144150751D01*
X99618181Y-144254743D01*
X99529743Y-144343181D01*
X99425751Y-144412666D01*
X99310202Y-144460528D01*
X99187535Y-144484928D01*
X99125000Y-144488000D01*
X99124384Y-144488000D01*
X98675616Y-144488000D01*
X98675000Y-144488000D01*
X98612465Y-144484928D01*
X98489798Y-144460528D01*
X98374249Y-144412666D01*
X98270257Y-144343181D01*
X98181819Y-144254743D01*
X98112334Y-144150751D01*
X98064472Y-144035202D01*
X98040072Y-143912535D01*
X98040072Y-143787465D01*
X98064472Y-143664798D01*
X98112334Y-143549249D01*
X98181819Y-143445257D01*
X98270257Y-143356819D01*
X98374249Y-143287334D01*
X98489798Y-143239472D01*
X98612465Y-143215072D01*
X98675000Y-143212000D01*
X99125000Y-143212000D01*
X99187535Y-143215072D01*
G37*
G36*
X101540938Y-143219650D02*
G01*
X101544957Y-143221424D01*
X101548931Y-143221948D01*
X101598651Y-143245133D01*
X101637759Y-143262401D01*
X101639573Y-143264215D01*
X101639969Y-143264400D01*
X101710599Y-143335030D01*
X101710783Y-143335425D01*
X101712599Y-143337241D01*
X101729876Y-143376369D01*
X101753051Y-143426068D01*
X101753573Y-143430039D01*
X101755350Y-143434062D01*
X101763000Y-143500000D01*
X101763000Y-144200000D01*
X101755350Y-144265938D01*
X101753573Y-144269961D01*
X101753051Y-144273931D01*
X101729884Y-144323611D01*
X101712599Y-144362759D01*
X101710782Y-144364575D01*
X101710599Y-144364969D01*
X101639969Y-144435599D01*
X101639575Y-144435782D01*
X101637759Y-144437599D01*
X101598611Y-144454884D01*
X101548931Y-144478051D01*
X101544961Y-144478573D01*
X101540938Y-144480350D01*
X101475000Y-144488000D01*
X100325000Y-144488000D01*
X100259062Y-144480350D01*
X100255039Y-144478573D01*
X100251068Y-144478051D01*
X100201369Y-144454876D01*
X100162241Y-144437599D01*
X100160425Y-144435783D01*
X100160030Y-144435599D01*
X100089400Y-144364969D01*
X100089215Y-144364573D01*
X100087401Y-144362759D01*
X100070133Y-144323651D01*
X100046948Y-144273931D01*
X100046424Y-144269957D01*
X100044650Y-144265938D01*
X100037000Y-144200000D01*
X100037000Y-143500000D01*
X100044650Y-143434062D01*
X100046424Y-143430042D01*
X100046948Y-143426068D01*
X100070141Y-143376329D01*
X100087401Y-143337241D01*
X100089214Y-143335427D01*
X100089400Y-143335030D01*
X100160030Y-143264400D01*
X100160427Y-143264214D01*
X100162241Y-143262401D01*
X100201329Y-143245141D01*
X100251068Y-143221948D01*
X100255042Y-143221424D01*
X100259062Y-143219650D01*
X100325000Y-143212000D01*
X101475000Y-143212000D01*
X101540938Y-143219650D01*
G37*
G36*
X106362350Y-141173969D02*
G01*
X106562030Y-141238849D01*
X106749103Y-141334167D01*
X106918961Y-141457577D01*
X107067423Y-141606039D01*
X107190833Y-141775897D01*
X107286151Y-141962970D01*
X107351031Y-142162650D01*
X107383875Y-142370022D01*
X107383875Y-142579978D01*
X107351031Y-142787350D01*
X107286151Y-142987030D01*
X107190833Y-143174103D01*
X107067423Y-143343961D01*
X106918961Y-143492423D01*
X106749103Y-143615833D01*
X106562030Y-143711151D01*
X106362350Y-143776031D01*
X106154978Y-143808875D01*
X105945022Y-143808875D01*
X105737650Y-143776031D01*
X105537970Y-143711151D01*
X105350897Y-143615833D01*
X105181039Y-143492423D01*
X105032577Y-143343961D01*
X104909167Y-143174103D01*
X104813849Y-142987030D01*
X104748969Y-142787350D01*
X104716125Y-142579978D01*
X104716125Y-142370022D01*
X104748969Y-142162650D01*
X104813849Y-141962970D01*
X104909167Y-141775897D01*
X105032577Y-141606039D01*
X105181039Y-141457577D01*
X105350897Y-141334167D01*
X105537970Y-141238849D01*
X105737650Y-141173969D01*
X105945022Y-141141125D01*
X106154978Y-141141125D01*
X106362350Y-141173969D01*
G37*
G36*
X104452350Y-137238969D02*
G01*
X104652030Y-137303849D01*
X104839103Y-137399167D01*
X105008961Y-137522577D01*
X105157423Y-137671039D01*
X105280833Y-137840897D01*
X105376151Y-138027970D01*
X105441031Y-138227650D01*
X105473875Y-138435022D01*
X105473875Y-138644978D01*
X105441031Y-138852350D01*
X105376151Y-139052030D01*
X105280833Y-139239103D01*
X105157423Y-139408961D01*
X105008961Y-139557423D01*
X104839103Y-139680833D01*
X104652030Y-139776151D01*
X104452350Y-139841031D01*
X104244978Y-139873875D01*
X104035022Y-139873875D01*
X103827650Y-139841031D01*
X103627970Y-139776151D01*
X103440897Y-139680833D01*
X103271039Y-139557423D01*
X103122577Y-139408961D01*
X102999167Y-139239103D01*
X102903849Y-139052030D01*
X102838969Y-138852350D01*
X102806125Y-138644978D01*
X102806125Y-138435022D01*
X102838969Y-138227650D01*
X102903849Y-138027970D01*
X102999167Y-137840897D01*
X103122577Y-137671039D01*
X103271039Y-137522577D01*
X103440897Y-137399167D01*
X103627970Y-137303849D01*
X103827650Y-137238969D01*
X104035022Y-137206125D01*
X104244978Y-137206125D01*
X104452350Y-137238969D01*
G37*
G36*
X97722337Y-136115554D02*
G01*
X97864230Y-136143778D01*
X97997891Y-136199142D01*
X98118182Y-136279518D01*
X98220482Y-136381818D01*
X98300858Y-136502109D01*
X98356222Y-136635770D01*
X98384446Y-136777663D01*
X98384446Y-136922337D01*
X98356222Y-137064230D01*
X98300858Y-137197891D01*
X98220482Y-137318182D01*
X98118182Y-137420482D01*
X97997891Y-137500858D01*
X97864230Y-137556222D01*
X97722337Y-137584446D01*
X97650000Y-137588000D01*
X97649384Y-137588000D01*
X97250616Y-137588000D01*
X97250000Y-137588000D01*
X97177663Y-137584446D01*
X97035770Y-137556222D01*
X96902109Y-137500858D01*
X96781818Y-137420482D01*
X96679518Y-137318182D01*
X96599142Y-137197891D01*
X96543778Y-137064230D01*
X96515554Y-136922337D01*
X96515554Y-136777663D01*
X96543778Y-136635770D01*
X96599142Y-136502109D01*
X96679518Y-136381818D01*
X96781818Y-136279518D01*
X96902109Y-136199142D01*
X97035770Y-136143778D01*
X97177663Y-136115554D01*
X97250000Y-136112000D01*
X97650000Y-136112000D01*
X97722337Y-136115554D01*
G37*
G36*
X97722337Y-128215554D02*
G01*
X97864230Y-128243778D01*
X97997891Y-128299142D01*
X98118182Y-128379518D01*
X98220482Y-128481818D01*
X98300858Y-128602109D01*
X98356222Y-128735770D01*
X98384446Y-128877663D01*
X98384446Y-129022337D01*
X98356222Y-129164230D01*
X98300858Y-129297891D01*
X98220482Y-129418182D01*
X98118182Y-129520482D01*
X97997891Y-129600858D01*
X97864230Y-129656222D01*
X97722337Y-129684446D01*
X97650000Y-129688000D01*
X97649384Y-129688000D01*
X97250616Y-129688000D01*
X97250000Y-129688000D01*
X97177663Y-129684446D01*
X97035770Y-129656222D01*
X96902109Y-129600858D01*
X96781818Y-129520482D01*
X96679518Y-129418182D01*
X96599142Y-129297891D01*
X96543778Y-129164230D01*
X96515554Y-129022337D01*
X96515554Y-128877663D01*
X96543778Y-128735770D01*
X96599142Y-128602109D01*
X96679518Y-128481818D01*
X96781818Y-128379518D01*
X96902109Y-128299142D01*
X97035770Y-128243778D01*
X97177663Y-128215554D01*
X97250000Y-128212000D01*
X97650000Y-128212000D01*
X97722337Y-128215554D01*
G37*
G36*
X162802333Y-123969825D02*
G01*
X162979628Y-124027431D01*
X163145728Y-124112063D01*
X163296544Y-124221638D01*
X163428362Y-124353456D01*
X163537937Y-124504272D01*
X163622569Y-124670372D01*
X163680175Y-124847667D01*
X163709338Y-125031791D01*
X163709338Y-125218209D01*
X163680175Y-125402333D01*
X163622569Y-125579628D01*
X163537937Y-125745728D01*
X163428362Y-125896544D01*
X163296544Y-126028362D01*
X163145728Y-126137937D01*
X162979628Y-126222569D01*
X162802333Y-126280175D01*
X162618209Y-126309338D01*
X162431791Y-126309338D01*
X162247667Y-126280175D01*
X162070372Y-126222569D01*
X161904272Y-126137937D01*
X161753456Y-126028362D01*
X161621638Y-125896544D01*
X161512063Y-125745728D01*
X161427431Y-125579628D01*
X161369825Y-125402333D01*
X161340662Y-125218209D01*
X161340662Y-125031791D01*
X161369825Y-124847667D01*
X161427431Y-124670372D01*
X161512063Y-124504272D01*
X161621638Y-124353456D01*
X161753456Y-124221638D01*
X161904272Y-124112063D01*
X162070372Y-124027431D01*
X162247667Y-123969825D01*
X162431791Y-123940662D01*
X162618209Y-123940662D01*
X162802333Y-123969825D01*
G37*
G36*
X165902333Y-123969825D02*
G01*
X166079628Y-124027431D01*
X166245728Y-124112063D01*
X166396544Y-124221638D01*
X166528362Y-124353456D01*
X166637937Y-124504272D01*
X166722569Y-124670372D01*
X166780175Y-124847667D01*
X166809338Y-125031791D01*
X166809338Y-125218209D01*
X166780175Y-125402333D01*
X166722569Y-125579628D01*
X166637937Y-125745728D01*
X166528362Y-125896544D01*
X166396544Y-126028362D01*
X166245728Y-126137937D01*
X166079628Y-126222569D01*
X165902333Y-126280175D01*
X165718209Y-126309338D01*
X165531791Y-126309338D01*
X165347667Y-126280175D01*
X165170372Y-126222569D01*
X165004272Y-126137937D01*
X164853456Y-126028362D01*
X164721638Y-125896544D01*
X164612063Y-125745728D01*
X164527431Y-125579628D01*
X164469825Y-125402333D01*
X164440662Y-125218209D01*
X164440662Y-125031791D01*
X164469825Y-124847667D01*
X164527431Y-124670372D01*
X164612063Y-124504272D01*
X164721638Y-124353456D01*
X164853456Y-124221638D01*
X165004272Y-124112063D01*
X165170372Y-124027431D01*
X165347667Y-123969825D01*
X165531791Y-123940662D01*
X165718209Y-123940662D01*
X165902333Y-123969825D01*
G37*
G36*
X137312350Y-120378969D02*
G01*
X137512030Y-120443849D01*
X137699103Y-120539167D01*
X137868961Y-120662577D01*
X138017423Y-120811039D01*
X138140833Y-120980897D01*
X138236151Y-121167970D01*
X138301031Y-121367650D01*
X138333875Y-121575022D01*
X138333875Y-121784978D01*
X138301031Y-121992350D01*
X138236151Y-122192030D01*
X138140833Y-122379103D01*
X138017423Y-122548961D01*
X137868961Y-122697423D01*
X137699103Y-122820833D01*
X137512030Y-122916151D01*
X137312350Y-122981031D01*
X137104978Y-123013875D01*
X136895022Y-123013875D01*
X136687650Y-122981031D01*
X136487970Y-122916151D01*
X136300897Y-122820833D01*
X136131039Y-122697423D01*
X135982577Y-122548961D01*
X135859167Y-122379103D01*
X135763849Y-122192030D01*
X135698969Y-121992350D01*
X135666125Y-121784978D01*
X135666125Y-121575022D01*
X135698969Y-121367650D01*
X135763849Y-121167970D01*
X135859167Y-120980897D01*
X135982577Y-120811039D01*
X136131039Y-120662577D01*
X136300897Y-120539167D01*
X136487970Y-120443849D01*
X136687650Y-120378969D01*
X136895022Y-120346125D01*
X137104978Y-120346125D01*
X137312350Y-120378969D01*
G37*
G36*
X132694542Y-116714893D02*
G01*
X132706870Y-116723130D01*
X132715107Y-116735458D01*
X132718000Y-116750000D01*
X132718000Y-118750000D01*
X132715107Y-118764542D01*
X132706870Y-118776870D01*
X132694542Y-118785107D01*
X132680000Y-118788000D01*
X130680000Y-118788000D01*
X130665458Y-118785107D01*
X130653130Y-118776870D01*
X130644893Y-118764542D01*
X130642000Y-118750000D01*
X130642000Y-116750000D01*
X130644893Y-116735458D01*
X130653130Y-116723130D01*
X130665458Y-116714893D01*
X130680000Y-116712000D01*
X132680000Y-116712000D01*
X132694542Y-116714893D01*
G37*
G36*
X134521315Y-116756696D02*
G01*
X134709310Y-116834566D01*
X134878500Y-116947615D01*
X135022385Y-117091500D01*
X135135434Y-117260690D01*
X135213304Y-117448685D01*
X135253002Y-117648258D01*
X135253002Y-117851742D01*
X135213304Y-118051315D01*
X135135434Y-118239310D01*
X135022385Y-118408500D01*
X134878500Y-118552385D01*
X134709310Y-118665434D01*
X134521315Y-118743304D01*
X134321742Y-118783002D01*
X134118258Y-118783002D01*
X133918685Y-118743304D01*
X133730690Y-118665434D01*
X133561500Y-118552385D01*
X133417615Y-118408500D01*
X133304566Y-118239310D01*
X133226696Y-118051315D01*
X133186998Y-117851742D01*
X133186998Y-117648258D01*
X133226696Y-117448685D01*
X133304566Y-117260690D01*
X133417615Y-117091500D01*
X133561500Y-116947615D01*
X133730690Y-116834566D01*
X133918685Y-116756696D01*
X134118258Y-116716998D01*
X134321742Y-116716998D01*
X134521315Y-116756696D01*
G37*
G36*
X142484850Y-115076469D02*
G01*
X142684530Y-115141349D01*
X142871603Y-115236667D01*
X143041461Y-115360077D01*
X143189923Y-115508539D01*
X143313333Y-115678397D01*
X143408651Y-115865470D01*
X143473531Y-116065150D01*
X143506375Y-116272522D01*
X143506375Y-116482478D01*
X143473531Y-116689850D01*
X143408651Y-116889530D01*
X143313333Y-117076603D01*
X143189923Y-117246461D01*
X143041461Y-117394923D01*
X142871603Y-117518333D01*
X142684530Y-117613651D01*
X142484850Y-117678531D01*
X142277478Y-117711375D01*
X142067522Y-117711375D01*
X141860150Y-117678531D01*
X141660470Y-117613651D01*
X141473397Y-117518333D01*
X141303539Y-117394923D01*
X141155077Y-117246461D01*
X141031667Y-117076603D01*
X140936349Y-116889530D01*
X140871469Y-116689850D01*
X140838625Y-116482478D01*
X140838625Y-116272522D01*
X140871469Y-116065150D01*
X140936349Y-115865470D01*
X141031667Y-115678397D01*
X141155077Y-115508539D01*
X141303539Y-115360077D01*
X141473397Y-115236667D01*
X141660470Y-115141349D01*
X141860150Y-115076469D01*
X142067522Y-115043625D01*
X142277478Y-115043625D01*
X142484850Y-115076469D01*
G37*
G36*
X108681497Y-114559134D02*
G01*
X108855061Y-114615528D01*
X109017666Y-114698379D01*
X109165308Y-114805648D01*
X109294352Y-114934692D01*
X109401621Y-115082334D01*
X109484472Y-115244939D01*
X109540866Y-115418503D01*
X109569415Y-115598752D01*
X109569415Y-115781248D01*
X109540866Y-115961497D01*
X109484472Y-116135061D01*
X109401621Y-116297666D01*
X109294352Y-116445308D01*
X109165308Y-116574352D01*
X109017666Y-116681621D01*
X108855061Y-116764472D01*
X108681497Y-116820866D01*
X108501248Y-116849415D01*
X108318752Y-116849415D01*
X108138503Y-116820866D01*
X107964939Y-116764472D01*
X107802334Y-116681621D01*
X107654692Y-116574352D01*
X107525648Y-116445308D01*
X107418379Y-116297666D01*
X107335528Y-116135061D01*
X107279134Y-115961497D01*
X107250585Y-115781248D01*
X107250585Y-115598752D01*
X107279134Y-115418503D01*
X107335528Y-115244939D01*
X107418379Y-115082334D01*
X107525648Y-114934692D01*
X107654692Y-114805648D01*
X107802334Y-114698379D01*
X107964939Y-114615528D01*
X108138503Y-114559134D01*
X108318752Y-114530585D01*
X108501248Y-114530585D01*
X108681497Y-114559134D01*
G37*
G36*
X113761497Y-114559134D02*
G01*
X113935061Y-114615528D01*
X114097666Y-114698379D01*
X114245308Y-114805648D01*
X114374352Y-114934692D01*
X114481621Y-115082334D01*
X114564472Y-115244939D01*
X114620866Y-115418503D01*
X114649415Y-115598752D01*
X114649415Y-115781248D01*
X114620866Y-115961497D01*
X114564472Y-116135061D01*
X114481621Y-116297666D01*
X114374352Y-116445308D01*
X114245308Y-116574352D01*
X114097666Y-116681621D01*
X113935061Y-116764472D01*
X113761497Y-116820866D01*
X113581248Y-116849415D01*
X113398752Y-116849415D01*
X113218503Y-116820866D01*
X113044939Y-116764472D01*
X112882334Y-116681621D01*
X112734692Y-116574352D01*
X112605648Y-116445308D01*
X112498379Y-116297666D01*
X112415528Y-116135061D01*
X112359134Y-115961497D01*
X112330585Y-115781248D01*
X112330585Y-115598752D01*
X112359134Y-115418503D01*
X112415528Y-115244939D01*
X112498379Y-115082334D01*
X112605648Y-114934692D01*
X112734692Y-114805648D01*
X112882334Y-114698379D01*
X113044939Y-114615528D01*
X113218503Y-114559134D01*
X113398752Y-114530585D01*
X113581248Y-114530585D01*
X113761497Y-114559134D01*
G37*
G36*
X111044541Y-112092119D02*
G01*
X111054192Y-112092119D01*
X111091903Y-112099620D01*
X111198136Y-112116445D01*
X111232303Y-112127546D01*
X111258573Y-112132772D01*
X111295643Y-112148127D01*
X111356762Y-112167986D01*
X111414027Y-112197163D01*
X111451095Y-112212518D01*
X111473361Y-112227395D01*
X111505372Y-112243706D01*
X111592380Y-112306922D01*
X111624360Y-112328290D01*
X111631186Y-112335116D01*
X111640314Y-112341748D01*
X111758251Y-112459685D01*
X111764882Y-112468812D01*
X111771710Y-112475640D01*
X111793080Y-112507623D01*
X111856293Y-112594627D01*
X111872602Y-112626635D01*
X111887482Y-112648905D01*
X111902838Y-112685977D01*
X111932013Y-112743237D01*
X111951869Y-112804348D01*
X111967228Y-112841427D01*
X111972454Y-112867701D01*
X111983554Y-112901863D01*
X112000378Y-113008088D01*
X112007881Y-113045808D01*
X112007881Y-113055459D01*
X112009646Y-113066603D01*
X112009646Y-113233396D01*
X112007881Y-113244539D01*
X112007881Y-113254192D01*
X112000377Y-113291915D01*
X111983554Y-113398136D01*
X111972454Y-113432295D01*
X111967228Y-113458573D01*
X111951867Y-113495655D01*
X111932013Y-113556762D01*
X111902840Y-113614016D01*
X111887482Y-113651095D01*
X111872599Y-113673367D01*
X111856293Y-113705372D01*
X111793089Y-113792363D01*
X111771710Y-113824360D01*
X111764880Y-113831189D01*
X111758251Y-113840314D01*
X111640314Y-113958251D01*
X111631189Y-113964880D01*
X111624360Y-113971710D01*
X111592363Y-113993089D01*
X111505372Y-114056293D01*
X111473367Y-114072599D01*
X111451095Y-114087482D01*
X111414016Y-114102840D01*
X111356762Y-114132013D01*
X111295655Y-114151867D01*
X111258573Y-114167228D01*
X111232295Y-114172454D01*
X111198136Y-114183554D01*
X111091912Y-114200378D01*
X111054192Y-114207881D01*
X111044541Y-114207881D01*
X111033397Y-114209646D01*
X110866603Y-114209646D01*
X110855459Y-114207881D01*
X110845808Y-114207881D01*
X110808088Y-114200378D01*
X110701863Y-114183554D01*
X110667701Y-114172454D01*
X110641427Y-114167228D01*
X110604348Y-114151869D01*
X110543237Y-114132013D01*
X110485977Y-114102838D01*
X110448905Y-114087482D01*
X110426635Y-114072602D01*
X110394627Y-114056293D01*
X110307623Y-113993080D01*
X110275640Y-113971710D01*
X110268812Y-113964882D01*
X110259685Y-113958251D01*
X110141748Y-113840314D01*
X110135116Y-113831186D01*
X110128290Y-113824360D01*
X110106922Y-113792380D01*
X110043706Y-113705372D01*
X110027395Y-113673361D01*
X110012518Y-113651095D01*
X109997163Y-113614027D01*
X109967986Y-113556762D01*
X109948127Y-113495643D01*
X109932772Y-113458573D01*
X109927546Y-113432303D01*
X109916445Y-113398136D01*
X109899620Y-113291906D01*
X109892119Y-113254192D01*
X109892119Y-113244540D01*
X109890354Y-113233396D01*
X109890354Y-113066603D01*
X109892119Y-113055458D01*
X109892119Y-113045808D01*
X109899619Y-113008097D01*
X109916445Y-112901863D01*
X109927547Y-112867693D01*
X109932772Y-112841427D01*
X109948125Y-112804359D01*
X109967986Y-112743237D01*
X109997166Y-112685967D01*
X110012518Y-112648905D01*
X110027393Y-112626641D01*
X110043706Y-112594627D01*
X110106930Y-112507606D01*
X110128290Y-112475640D01*
X110135113Y-112468816D01*
X110141748Y-112459685D01*
X110259685Y-112341748D01*
X110268816Y-112335113D01*
X110275640Y-112328290D01*
X110307606Y-112306930D01*
X110394627Y-112243706D01*
X110426641Y-112227393D01*
X110448905Y-112212518D01*
X110485967Y-112197166D01*
X110543237Y-112167986D01*
X110604359Y-112148125D01*
X110641427Y-112132772D01*
X110667693Y-112127547D01*
X110701863Y-112116445D01*
X110808097Y-112099619D01*
X110845808Y-112092119D01*
X110855459Y-112092119D01*
X110866603Y-112090354D01*
X111033397Y-112090354D01*
X111044541Y-112092119D01*
G37*
G36*
X108681497Y-109479134D02*
G01*
X108855061Y-109535528D01*
X109017666Y-109618379D01*
X109165308Y-109725648D01*
X109294352Y-109854692D01*
X109401621Y-110002334D01*
X109484472Y-110164939D01*
X109540866Y-110338503D01*
X109569415Y-110518752D01*
X109569415Y-110701248D01*
X109540866Y-110881497D01*
X109484472Y-111055061D01*
X109401621Y-111217666D01*
X109294352Y-111365308D01*
X109165308Y-111494352D01*
X109017666Y-111601621D01*
X108855061Y-111684472D01*
X108681497Y-111740866D01*
X108501248Y-111769415D01*
X108318752Y-111769415D01*
X108138503Y-111740866D01*
X107964939Y-111684472D01*
X107802334Y-111601621D01*
X107654692Y-111494352D01*
X107525648Y-111365308D01*
X107418379Y-111217666D01*
X107335528Y-111055061D01*
X107279134Y-110881497D01*
X107250585Y-110701248D01*
X107250585Y-110518752D01*
X107279134Y-110338503D01*
X107335528Y-110164939D01*
X107418379Y-110002334D01*
X107525648Y-109854692D01*
X107654692Y-109725648D01*
X107802334Y-109618379D01*
X107964939Y-109535528D01*
X108138503Y-109479134D01*
X108318752Y-109450585D01*
X108501248Y-109450585D01*
X108681497Y-109479134D01*
G37*
G36*
X113761497Y-109479134D02*
G01*
X113935061Y-109535528D01*
X114097666Y-109618379D01*
X114245308Y-109725648D01*
X114374352Y-109854692D01*
X114481621Y-110002334D01*
X114564472Y-110164939D01*
X114620866Y-110338503D01*
X114649415Y-110518752D01*
X114649415Y-110701248D01*
X114620866Y-110881497D01*
X114564472Y-111055061D01*
X114481621Y-111217666D01*
X114374352Y-111365308D01*
X114245308Y-111494352D01*
X114097666Y-111601621D01*
X113935061Y-111684472D01*
X113761497Y-111740866D01*
X113581248Y-111769415D01*
X113398752Y-111769415D01*
X113218503Y-111740866D01*
X113044939Y-111684472D01*
X112882334Y-111601621D01*
X112734692Y-111494352D01*
X112605648Y-111365308D01*
X112498379Y-111217666D01*
X112415528Y-111055061D01*
X112359134Y-110881497D01*
X112330585Y-110701248D01*
X112330585Y-110518752D01*
X112359134Y-110338503D01*
X112415528Y-110164939D01*
X112498379Y-110002334D01*
X112605648Y-109854692D01*
X112734692Y-109725648D01*
X112882334Y-109618379D01*
X113044939Y-109535528D01*
X113218503Y-109479134D01*
X113398752Y-109450585D01*
X113581248Y-109450585D01*
X113761497Y-109479134D01*
G37*
G36*
X100012350Y-105348969D02*
G01*
X100212030Y-105413849D01*
X100399103Y-105509167D01*
X100568961Y-105632577D01*
X100717423Y-105781039D01*
X100840833Y-105950897D01*
X100936151Y-106137970D01*
X101001031Y-106337650D01*
X101033875Y-106545022D01*
X101033875Y-106754978D01*
X101001031Y-106962350D01*
X100936151Y-107162030D01*
X100840833Y-107349103D01*
X100717423Y-107518961D01*
X100568961Y-107667423D01*
X100399103Y-107790833D01*
X100212030Y-107886151D01*
X100012350Y-107951031D01*
X99804978Y-107983875D01*
X99595022Y-107983875D01*
X99387650Y-107951031D01*
X99187970Y-107886151D01*
X99000897Y-107790833D01*
X98831039Y-107667423D01*
X98682577Y-107518961D01*
X98559167Y-107349103D01*
X98463849Y-107162030D01*
X98398969Y-106962350D01*
X98366125Y-106754978D01*
X98366125Y-106545022D01*
X98398969Y-106337650D01*
X98463849Y-106137970D01*
X98559167Y-105950897D01*
X98682577Y-105781039D01*
X98831039Y-105632577D01*
X99000897Y-105509167D01*
X99187970Y-105413849D01*
X99387650Y-105348969D01*
X99595022Y-105316125D01*
X99804978Y-105316125D01*
X100012350Y-105348969D01*
G37*
G36*
X153036653Y-104934687D02*
G01*
X153153108Y-104982925D01*
X153257915Y-105052954D01*
X153347046Y-105142085D01*
X153417075Y-105246892D01*
X153465313Y-105363347D01*
X153489904Y-105486975D01*
X153489904Y-105613025D01*
X153465313Y-105736653D01*
X153417075Y-105853108D01*
X153347046Y-105957915D01*
X153257915Y-106047046D01*
X153153108Y-106117075D01*
X153036653Y-106165313D01*
X152913025Y-106189904D01*
X152786975Y-106189904D01*
X152663347Y-106165313D01*
X152546892Y-106117075D01*
X152442085Y-106047046D01*
X152352954Y-105957915D01*
X152282925Y-105853108D01*
X152234687Y-105736653D01*
X152210096Y-105613025D01*
X152210096Y-105486975D01*
X152234687Y-105363347D01*
X152282925Y-105246892D01*
X152352954Y-105142085D01*
X152442085Y-105052954D01*
X152546892Y-104982925D01*
X152663347Y-104934687D01*
X152786975Y-104910096D01*
X152913025Y-104910096D01*
X153036653Y-104934687D01*
G37*
G36*
X157931497Y-92159134D02*
G01*
X158105061Y-92215528D01*
X158267666Y-92298379D01*
X158415308Y-92405648D01*
X158544352Y-92534692D01*
X158651621Y-92682334D01*
X158734472Y-92844939D01*
X158790866Y-93018503D01*
X158819415Y-93198752D01*
X158819415Y-93381248D01*
X158790866Y-93561497D01*
X158734472Y-93735061D01*
X158651621Y-93897666D01*
X158544352Y-94045308D01*
X158415308Y-94174352D01*
X158267666Y-94281621D01*
X158105061Y-94364472D01*
X157931497Y-94420866D01*
X157751248Y-94449415D01*
X157568752Y-94449415D01*
X157388503Y-94420866D01*
X157214939Y-94364472D01*
X157052334Y-94281621D01*
X156904692Y-94174352D01*
X156775648Y-94045308D01*
X156668379Y-93897666D01*
X156585528Y-93735061D01*
X156529134Y-93561497D01*
X156500585Y-93381248D01*
X156500585Y-93198752D01*
X156529134Y-93018503D01*
X156585528Y-92844939D01*
X156668379Y-92682334D01*
X156775648Y-92534692D01*
X156904692Y-92405648D01*
X157052334Y-92298379D01*
X157214939Y-92215528D01*
X157388503Y-92159134D01*
X157568752Y-92130585D01*
X157751248Y-92130585D01*
X157931497Y-92159134D01*
G37*
G36*
X163011497Y-92159134D02*
G01*
X163185061Y-92215528D01*
X163347666Y-92298379D01*
X163495308Y-92405648D01*
X163624352Y-92534692D01*
X163731621Y-92682334D01*
X163814472Y-92844939D01*
X163870866Y-93018503D01*
X163899415Y-93198752D01*
X163899415Y-93381248D01*
X163870866Y-93561497D01*
X163814472Y-93735061D01*
X163731621Y-93897666D01*
X163624352Y-94045308D01*
X163495308Y-94174352D01*
X163347666Y-94281621D01*
X163185061Y-94364472D01*
X163011497Y-94420866D01*
X162831248Y-94449415D01*
X162648752Y-94449415D01*
X162468503Y-94420866D01*
X162294939Y-94364472D01*
X162132334Y-94281621D01*
X161984692Y-94174352D01*
X161855648Y-94045308D01*
X161748379Y-93897666D01*
X161665528Y-93735061D01*
X161609134Y-93561497D01*
X161580585Y-93381248D01*
X161580585Y-93198752D01*
X161609134Y-93018503D01*
X161665528Y-92844939D01*
X161748379Y-92682334D01*
X161855648Y-92534692D01*
X161984692Y-92405648D01*
X162132334Y-92298379D01*
X162294939Y-92215528D01*
X162468503Y-92159134D01*
X162648752Y-92130585D01*
X162831248Y-92130585D01*
X163011497Y-92159134D01*
G37*
G36*
X98546497Y-91874134D02*
G01*
X98720061Y-91930528D01*
X98882666Y-92013379D01*
X99030308Y-92120648D01*
X99159352Y-92249692D01*
X99266621Y-92397334D01*
X99349472Y-92559939D01*
X99405866Y-92733503D01*
X99434415Y-92913752D01*
X99434415Y-93096248D01*
X99405866Y-93276497D01*
X99349472Y-93450061D01*
X99266621Y-93612666D01*
X99159352Y-93760308D01*
X99030308Y-93889352D01*
X98882666Y-93996621D01*
X98720061Y-94079472D01*
X98546497Y-94135866D01*
X98366248Y-94164415D01*
X98183752Y-94164415D01*
X98003503Y-94135866D01*
X97829939Y-94079472D01*
X97667334Y-93996621D01*
X97519692Y-93889352D01*
X97390648Y-93760308D01*
X97283379Y-93612666D01*
X97200528Y-93450061D01*
X97144134Y-93276497D01*
X97115585Y-93096248D01*
X97115585Y-92913752D01*
X97144134Y-92733503D01*
X97200528Y-92559939D01*
X97283379Y-92397334D01*
X97390648Y-92249692D01*
X97519692Y-92120648D01*
X97667334Y-92013379D01*
X97829939Y-91930528D01*
X98003503Y-91874134D01*
X98183752Y-91845585D01*
X98366248Y-91845585D01*
X98546497Y-91874134D01*
G37*
G36*
X103626497Y-91874134D02*
G01*
X103800061Y-91930528D01*
X103962666Y-92013379D01*
X104110308Y-92120648D01*
X104239352Y-92249692D01*
X104346621Y-92397334D01*
X104429472Y-92559939D01*
X104485866Y-92733503D01*
X104514415Y-92913752D01*
X104514415Y-93096248D01*
X104485866Y-93276497D01*
X104429472Y-93450061D01*
X104346621Y-93612666D01*
X104239352Y-93760308D01*
X104110308Y-93889352D01*
X103962666Y-93996621D01*
X103800061Y-94079472D01*
X103626497Y-94135866D01*
X103446248Y-94164415D01*
X103263752Y-94164415D01*
X103083503Y-94135866D01*
X102909939Y-94079472D01*
X102747334Y-93996621D01*
X102599692Y-93889352D01*
X102470648Y-93760308D01*
X102363379Y-93612666D01*
X102280528Y-93450061D01*
X102224134Y-93276497D01*
X102195585Y-93096248D01*
X102195585Y-92913752D01*
X102224134Y-92733503D01*
X102280528Y-92559939D01*
X102363379Y-92397334D01*
X102470648Y-92249692D01*
X102599692Y-92120648D01*
X102747334Y-92013379D01*
X102909939Y-91930528D01*
X103083503Y-91874134D01*
X103263752Y-91845585D01*
X103446248Y-91845585D01*
X103626497Y-91874134D01*
G37*
G36*
X160294541Y-89692119D02*
G01*
X160304192Y-89692119D01*
X160341903Y-89699620D01*
X160448136Y-89716445D01*
X160482303Y-89727546D01*
X160508573Y-89732772D01*
X160545643Y-89748127D01*
X160606762Y-89767986D01*
X160664027Y-89797163D01*
X160701095Y-89812518D01*
X160723361Y-89827395D01*
X160755372Y-89843706D01*
X160842380Y-89906922D01*
X160874360Y-89928290D01*
X160881186Y-89935116D01*
X160890314Y-89941748D01*
X161008251Y-90059685D01*
X161014882Y-90068812D01*
X161021710Y-90075640D01*
X161043080Y-90107623D01*
X161106293Y-90194627D01*
X161122602Y-90226635D01*
X161137482Y-90248905D01*
X161152838Y-90285977D01*
X161182013Y-90343237D01*
X161201869Y-90404348D01*
X161217228Y-90441427D01*
X161222454Y-90467701D01*
X161233554Y-90501863D01*
X161250378Y-90608088D01*
X161257881Y-90645808D01*
X161257881Y-90655459D01*
X161259646Y-90666603D01*
X161259646Y-90833396D01*
X161257881Y-90844539D01*
X161257881Y-90854192D01*
X161250377Y-90891915D01*
X161233554Y-90998136D01*
X161222454Y-91032295D01*
X161217228Y-91058573D01*
X161201867Y-91095655D01*
X161182013Y-91156762D01*
X161152840Y-91214016D01*
X161137482Y-91251095D01*
X161122599Y-91273367D01*
X161106293Y-91305372D01*
X161043089Y-91392363D01*
X161021710Y-91424360D01*
X161014880Y-91431189D01*
X161008251Y-91440314D01*
X160890314Y-91558251D01*
X160881189Y-91564880D01*
X160874360Y-91571710D01*
X160842363Y-91593089D01*
X160755372Y-91656293D01*
X160723367Y-91672599D01*
X160701095Y-91687482D01*
X160664016Y-91702840D01*
X160606762Y-91732013D01*
X160545655Y-91751867D01*
X160508573Y-91767228D01*
X160482295Y-91772454D01*
X160448136Y-91783554D01*
X160341912Y-91800378D01*
X160304192Y-91807881D01*
X160294541Y-91807881D01*
X160283397Y-91809646D01*
X160116603Y-91809646D01*
X160105459Y-91807881D01*
X160095808Y-91807881D01*
X160058088Y-91800378D01*
X159951863Y-91783554D01*
X159917701Y-91772454D01*
X159891427Y-91767228D01*
X159854348Y-91751869D01*
X159793237Y-91732013D01*
X159735977Y-91702838D01*
X159698905Y-91687482D01*
X159676635Y-91672602D01*
X159644627Y-91656293D01*
X159557623Y-91593080D01*
X159525640Y-91571710D01*
X159518812Y-91564882D01*
X159509685Y-91558251D01*
X159391748Y-91440314D01*
X159385116Y-91431186D01*
X159378290Y-91424360D01*
X159356922Y-91392380D01*
X159293706Y-91305372D01*
X159277395Y-91273361D01*
X159262518Y-91251095D01*
X159247163Y-91214027D01*
X159217986Y-91156762D01*
X159198127Y-91095643D01*
X159182772Y-91058573D01*
X159177546Y-91032303D01*
X159166445Y-90998136D01*
X159149620Y-90891906D01*
X159142119Y-90854192D01*
X159142119Y-90844540D01*
X159140354Y-90833396D01*
X159140354Y-90666603D01*
X159142119Y-90655458D01*
X159142119Y-90645808D01*
X159149619Y-90608097D01*
X159166445Y-90501863D01*
X159177547Y-90467693D01*
X159182772Y-90441427D01*
X159198125Y-90404359D01*
X159217986Y-90343237D01*
X159247166Y-90285967D01*
X159262518Y-90248905D01*
X159277393Y-90226641D01*
X159293706Y-90194627D01*
X159356930Y-90107606D01*
X159378290Y-90075640D01*
X159385113Y-90068816D01*
X159391748Y-90059685D01*
X159509685Y-89941748D01*
X159518816Y-89935113D01*
X159525640Y-89928290D01*
X159557606Y-89906930D01*
X159644627Y-89843706D01*
X159676641Y-89827393D01*
X159698905Y-89812518D01*
X159735967Y-89797166D01*
X159793237Y-89767986D01*
X159854359Y-89748125D01*
X159891427Y-89732772D01*
X159917693Y-89727547D01*
X159951863Y-89716445D01*
X160058097Y-89699619D01*
X160095808Y-89692119D01*
X160105459Y-89692119D01*
X160116603Y-89690354D01*
X160283397Y-89690354D01*
X160294541Y-89692119D01*
G37*
G36*
X100909541Y-89407119D02*
G01*
X100919192Y-89407119D01*
X100956903Y-89414620D01*
X101063136Y-89431445D01*
X101097303Y-89442546D01*
X101123573Y-89447772D01*
X101160643Y-89463127D01*
X101221762Y-89482986D01*
X101279027Y-89512163D01*
X101316095Y-89527518D01*
X101338361Y-89542395D01*
X101370372Y-89558706D01*
X101457380Y-89621922D01*
X101489360Y-89643290D01*
X101496186Y-89650116D01*
X101505314Y-89656748D01*
X101623251Y-89774685D01*
X101629882Y-89783812D01*
X101636710Y-89790640D01*
X101658080Y-89822623D01*
X101721293Y-89909627D01*
X101737602Y-89941635D01*
X101752482Y-89963905D01*
X101767838Y-90000977D01*
X101797013Y-90058237D01*
X101816869Y-90119348D01*
X101832228Y-90156427D01*
X101837454Y-90182701D01*
X101848554Y-90216863D01*
X101865378Y-90323088D01*
X101872881Y-90360808D01*
X101872881Y-90370459D01*
X101874646Y-90381603D01*
X101874646Y-90548396D01*
X101872881Y-90559539D01*
X101872881Y-90569192D01*
X101865377Y-90606915D01*
X101848554Y-90713136D01*
X101837454Y-90747295D01*
X101832228Y-90773573D01*
X101816867Y-90810655D01*
X101797013Y-90871762D01*
X101767840Y-90929016D01*
X101752482Y-90966095D01*
X101737599Y-90988367D01*
X101721293Y-91020372D01*
X101658089Y-91107363D01*
X101636710Y-91139360D01*
X101629880Y-91146189D01*
X101623251Y-91155314D01*
X101505314Y-91273251D01*
X101496189Y-91279880D01*
X101489360Y-91286710D01*
X101457363Y-91308089D01*
X101370372Y-91371293D01*
X101338367Y-91387599D01*
X101316095Y-91402482D01*
X101279016Y-91417840D01*
X101221762Y-91447013D01*
X101160655Y-91466867D01*
X101123573Y-91482228D01*
X101097295Y-91487454D01*
X101063136Y-91498554D01*
X100956912Y-91515378D01*
X100919192Y-91522881D01*
X100909541Y-91522881D01*
X100898397Y-91524646D01*
X100731603Y-91524646D01*
X100720459Y-91522881D01*
X100710808Y-91522881D01*
X100673088Y-91515378D01*
X100566863Y-91498554D01*
X100532701Y-91487454D01*
X100506427Y-91482228D01*
X100469348Y-91466869D01*
X100408237Y-91447013D01*
X100350977Y-91417838D01*
X100313905Y-91402482D01*
X100291635Y-91387602D01*
X100259627Y-91371293D01*
X100172623Y-91308080D01*
X100140640Y-91286710D01*
X100133812Y-91279882D01*
X100124685Y-91273251D01*
X100006748Y-91155314D01*
X100000116Y-91146186D01*
X99993290Y-91139360D01*
X99971922Y-91107380D01*
X99908706Y-91020372D01*
X99892395Y-90988361D01*
X99877518Y-90966095D01*
X99862163Y-90929027D01*
X99832986Y-90871762D01*
X99813127Y-90810643D01*
X99797772Y-90773573D01*
X99792546Y-90747303D01*
X99781445Y-90713136D01*
X99764620Y-90606906D01*
X99757119Y-90569192D01*
X99757119Y-90559540D01*
X99755354Y-90548396D01*
X99755354Y-90381603D01*
X99757119Y-90370458D01*
X99757119Y-90360808D01*
X99764619Y-90323097D01*
X99781445Y-90216863D01*
X99792547Y-90182693D01*
X99797772Y-90156427D01*
X99813125Y-90119359D01*
X99832986Y-90058237D01*
X99862166Y-90000967D01*
X99877518Y-89963905D01*
X99892393Y-89941641D01*
X99908706Y-89909627D01*
X99971930Y-89822606D01*
X99993290Y-89790640D01*
X100000113Y-89783816D01*
X100006748Y-89774685D01*
X100124685Y-89656748D01*
X100133816Y-89650113D01*
X100140640Y-89643290D01*
X100172606Y-89621930D01*
X100259627Y-89558706D01*
X100291641Y-89542393D01*
X100313905Y-89527518D01*
X100350967Y-89512166D01*
X100408237Y-89482986D01*
X100469359Y-89463125D01*
X100506427Y-89447772D01*
X100532693Y-89442547D01*
X100566863Y-89431445D01*
X100673097Y-89414619D01*
X100710808Y-89407119D01*
X100720459Y-89407119D01*
X100731603Y-89405354D01*
X100898397Y-89405354D01*
X100909541Y-89407119D01*
G37*
G36*
X157931497Y-87079134D02*
G01*
X158105061Y-87135528D01*
X158267666Y-87218379D01*
X158415308Y-87325648D01*
X158544352Y-87454692D01*
X158651621Y-87602334D01*
X158734472Y-87764939D01*
X158790866Y-87938503D01*
X158819415Y-88118752D01*
X158819415Y-88301248D01*
X158790866Y-88481497D01*
X158734472Y-88655061D01*
X158651621Y-88817666D01*
X158544352Y-88965308D01*
X158415308Y-89094352D01*
X158267666Y-89201621D01*
X158105061Y-89284472D01*
X157931497Y-89340866D01*
X157751248Y-89369415D01*
X157568752Y-89369415D01*
X157388503Y-89340866D01*
X157214939Y-89284472D01*
X157052334Y-89201621D01*
X156904692Y-89094352D01*
X156775648Y-88965308D01*
X156668379Y-88817666D01*
X156585528Y-88655061D01*
X156529134Y-88481497D01*
X156500585Y-88301248D01*
X156500585Y-88118752D01*
X156529134Y-87938503D01*
X156585528Y-87764939D01*
X156668379Y-87602334D01*
X156775648Y-87454692D01*
X156904692Y-87325648D01*
X157052334Y-87218379D01*
X157214939Y-87135528D01*
X157388503Y-87079134D01*
X157568752Y-87050585D01*
X157751248Y-87050585D01*
X157931497Y-87079134D01*
G37*
G36*
X163011497Y-87079134D02*
G01*
X163185061Y-87135528D01*
X163347666Y-87218379D01*
X163495308Y-87325648D01*
X163624352Y-87454692D01*
X163731621Y-87602334D01*
X163814472Y-87764939D01*
X163870866Y-87938503D01*
X163899415Y-88118752D01*
X163899415Y-88301248D01*
X163870866Y-88481497D01*
X163814472Y-88655061D01*
X163731621Y-88817666D01*
X163624352Y-88965308D01*
X163495308Y-89094352D01*
X163347666Y-89201621D01*
X163185061Y-89284472D01*
X163011497Y-89340866D01*
X162831248Y-89369415D01*
X162648752Y-89369415D01*
X162468503Y-89340866D01*
X162294939Y-89284472D01*
X162132334Y-89201621D01*
X161984692Y-89094352D01*
X161855648Y-88965308D01*
X161748379Y-88817666D01*
X161665528Y-88655061D01*
X161609134Y-88481497D01*
X161580585Y-88301248D01*
X161580585Y-88118752D01*
X161609134Y-87938503D01*
X161665528Y-87764939D01*
X161748379Y-87602334D01*
X161855648Y-87454692D01*
X161984692Y-87325648D01*
X162132334Y-87218379D01*
X162294939Y-87135528D01*
X162468503Y-87079134D01*
X162648752Y-87050585D01*
X162831248Y-87050585D01*
X163011497Y-87079134D01*
G37*
G36*
X98546497Y-86794134D02*
G01*
X98720061Y-86850528D01*
X98882666Y-86933379D01*
X99030308Y-87040648D01*
X99159352Y-87169692D01*
X99266621Y-87317334D01*
X99349472Y-87479939D01*
X99405866Y-87653503D01*
X99434415Y-87833752D01*
X99434415Y-88016248D01*
X99405866Y-88196497D01*
X99349472Y-88370061D01*
X99266621Y-88532666D01*
X99159352Y-88680308D01*
X99030308Y-88809352D01*
X98882666Y-88916621D01*
X98720061Y-88999472D01*
X98546497Y-89055866D01*
X98366248Y-89084415D01*
X98183752Y-89084415D01*
X98003503Y-89055866D01*
X97829939Y-88999472D01*
X97667334Y-88916621D01*
X97519692Y-88809352D01*
X97390648Y-88680308D01*
X97283379Y-88532666D01*
X97200528Y-88370061D01*
X97144134Y-88196497D01*
X97115585Y-88016248D01*
X97115585Y-87833752D01*
X97144134Y-87653503D01*
X97200528Y-87479939D01*
X97283379Y-87317334D01*
X97390648Y-87169692D01*
X97519692Y-87040648D01*
X97667334Y-86933379D01*
X97829939Y-86850528D01*
X98003503Y-86794134D01*
X98183752Y-86765585D01*
X98366248Y-86765585D01*
X98546497Y-86794134D01*
G37*
G36*
X103626497Y-86794134D02*
G01*
X103800061Y-86850528D01*
X103962666Y-86933379D01*
X104110308Y-87040648D01*
X104239352Y-87169692D01*
X104346621Y-87317334D01*
X104429472Y-87479939D01*
X104485866Y-87653503D01*
X104514415Y-87833752D01*
X104514415Y-88016248D01*
X104485866Y-88196497D01*
X104429472Y-88370061D01*
X104346621Y-88532666D01*
X104239352Y-88680308D01*
X104110308Y-88809352D01*
X103962666Y-88916621D01*
X103800061Y-88999472D01*
X103626497Y-89055866D01*
X103446248Y-89084415D01*
X103263752Y-89084415D01*
X103083503Y-89055866D01*
X102909939Y-88999472D01*
X102747334Y-88916621D01*
X102599692Y-88809352D01*
X102470648Y-88680308D01*
X102363379Y-88532666D01*
X102280528Y-88370061D01*
X102224134Y-88196497D01*
X102195585Y-88016248D01*
X102195585Y-87833752D01*
X102224134Y-87653503D01*
X102280528Y-87479939D01*
X102363379Y-87317334D01*
X102470648Y-87169692D01*
X102599692Y-87040648D01*
X102747334Y-86933379D01*
X102909939Y-86850528D01*
X103083503Y-86794134D01*
X103263752Y-86765585D01*
X103446248Y-86765585D01*
X103626497Y-86794134D01*
G37*
M02*
