M48
; DRILL file {KiCad 9.0.0} date 2025-06-10T14:56:09-0700
; FORMAT={-:-/ absolute / inch / decimal}
; #@! TF.CreationDate,2025-06-10T14:56:09-07:00
; #@! TF.GenerationSoftware,Kicad,Pcbnew,9.0.0
; #@! TF.FileFunction,Plated,1,4,PTH
FMAT,2
INCH
; #@! TA.AperFunction,Plated,PTH,ViaDrill
T1C0.0079
; #@! TA.AperFunction,Plated,PTH,ComponentDrill
T2C0.0098
; #@! TA.AperFunction,Plated,PTH,ViaDrill
T3C0.0118
; #@! TA.AperFunction,Plated,PTH,ViaDrill
T4C0.0157
; #@! TA.AperFunction,Plated,PTH,ViaDrill
T5C0.0197
; #@! TA.AperFunction,Plated,PTH,ViaDrill
T6C0.0236
; #@! TA.AperFunction,Plated,PTH,ComponentDrill
T7C0.0256
; #@! TA.AperFunction,Plated,PTH,ViaDrill
T8C0.0315
; #@! TA.AperFunction,Plated,PTH,ComponentDrill
T9C0.0335
; #@! TA.AperFunction,Plated,PTH,ComponentDrill
T10C0.0394
; #@! TA.AperFunction,Plated,PTH,ViaDrill
T11C0.0394
; #@! TA.AperFunction,Plated,PTH,ComponentDrill
T12C0.0472
; #@! TA.AperFunction,Plated,PTH,ComponentDrill
T13C0.0591
; #@! TA.AperFunction,Plated,PTH,ComponentDrill
T14C0.0630
; #@! TA.AperFunction,Plated,PTH,ComponentDrill
T15C0.0669
; #@! TA.AperFunction,Plated,PTH,ComponentDrill
T16C0.1260
%
G90
G05
T1
X4.2904Y-3.9557
X4.5079Y-5.1132
X4.5079Y-5.186
X4.5089Y-3.9557
X4.658Y-4.2948
X4.7313Y-4.4754
X4.749Y-4.501
X4.81Y-4.4104
X4.8189Y-4.2362
X4.8209Y-4.3022
X4.8214Y-5.0153
X4.8494Y-4.3917
X4.8573Y-5.0817
X4.8671Y-5.2953
X4.895Y-4.6095
X4.8967Y-4.639
X4.8996Y-4.5
X4.9222Y-4.4646
X4.9882Y-4.5859
X4.996Y-4.6551
X5.002Y-4.2362
X5.0221Y-4.4464
X5.0305Y-4.8907
X5.0368Y-4.5338
X5.0463Y-4.75
X5.0571Y-4.9734
X5.0571Y-5.0472
X5.0738Y-4.3947
X5.1476Y-4.7461
X5.1831Y-4.747
X5.187Y-4.0472
X5.2077Y-4.126
X5.2864Y-4.0472
X5.5236Y-4.3947
X5.7411Y-4.2362
T2
X4.8573Y-5.2224
X4.8967Y-5.2224
T3
X4.063Y-5.1565
X4.0896Y-5.0886
X4.123Y-5.8533
X4.2785Y-4.8868
X4.2805Y-4.9409
X4.2917Y-5.2461
X4.2931Y-5.9961
X4.2943Y-5.8543
X4.339Y-5.0941
X4.4783Y-4.7894
X4.4872Y-4.8583
X4.497Y-4.6644
X4.5108Y-4.7195
X4.56Y-5.187
X4.6053Y-4.5443
X4.6486Y-4.5433
X4.6713Y-5.1201
X4.6742Y-6.4075
X4.686Y-5.5157
X4.7382Y-4.8661
X4.7402Y-4.7677
X4.8278Y-5.1791
X4.8356Y-4.8652
X4.8376Y-4.7677
X4.8435Y-5.3199
X4.8486Y-5.7274
X4.8652Y-4.5236
X4.8927Y-4.5512
X4.9734Y-5.0177
X4.9911Y-4.8071
X5.0108Y-4.7126
X5.0974Y-4.6732
X5.1122Y-4.7185
X5.1614Y-4.9472
X5.2126Y-4.7904
X5.2181Y-4.9224
X5.2372Y-4.7431
X5.247Y-4.8632
X5.315Y-5.0907
X5.3937Y-4.5039
X5.4754Y-5.0927
X5.5315Y-5.063
X5.6929Y-4.4045
X5.8728Y-5.1496
X6.1132Y-5.2106
X6.1189Y-4.5738
X6.1191Y-5.4892
X6.6467Y-4.9951
X6.6693Y-5.6398
T4
X4.0045Y-3.8502
X4.2559Y-3.6407
X4.3492Y-4.9689
X4.4411Y-4.8766
X4.5571Y-4.5994
X4.5797Y-5.3514
X4.6358Y-4.5089
X4.6457Y-4.998
X4.6949Y-4.3297
X4.7638Y-6.3967
X4.813Y-5.0728
X4.9165Y-5.5417
X4.9528Y-5.0679
X4.9646Y-5.3671
X5.0118Y-5.2293
X5.0531Y-5.8287
X5.2717Y-6.4331
X5.4852Y-4.4577
X5.5148Y-4.7106
X5.6073Y-4.185
X5.6201Y-4.7707
X5.6506Y-3.561
X5.8012Y-4.6476
X5.8031Y-5.2567
X5.8287Y-3.7589
X5.8549Y-4.7077
X5.8976Y-4.5492
X5.9508Y-4.749
X6.1339Y-4.7087
X6.1821Y-4.5541
X6.2421Y-3.7657
T5
X4.0272Y-5.0445
X4.1831Y-6.2559
X4.8071Y-5.9242
X5.1083Y-3.6978
X5.1358Y-6.2992
X5.4045Y-5.9744
X5.5Y-6.0728
X5.5512Y-5.6654
X5.5827Y-4.9154
X5.625Y-6.1211
X5.7953Y-6.1348
X5.9124Y-5.6732
X5.9478Y-6.0915
X6.0344Y-6.0098
X6.0541Y-3.2461
X6.6378Y-4.1211
T6
X3.8356Y-4.5207
X3.8386Y-4.935
X3.8937Y-5.8031
X3.9764Y-5.8031
X4.0128Y-5.1496
X4.2039Y-5.3378
X4.562Y-3.8278
X4.563Y-3.7096
X4.6405Y-3.7677
X4.7185Y-3.7067
X4.7224Y-3.8248
T8
X3.8661Y-4.7195
X4.0069Y-4.6142
X4.0083Y-4.8445
X4.1407Y-4.7244
T9
X3.8937Y-5.6634
X3.8937Y-5.7421
X3.9724Y-5.6634
X3.9724Y-5.7421
T10
X6.3986Y-4.9262
X6.3986Y-5.7451
X6.5207Y-4.9262
X6.5207Y-5.7451
T11
X4.7884Y-4.8169
X6.1988Y-5.3356
X6.4567Y-5.5974
X6.4577Y-5.3356
X6.4596Y-5.0797
X6.7028Y-5.3356
T12
X5.1843Y-4.6358
X5.2843Y-4.6358
T13
X3.9691Y-3.5616
X4.3681Y-4.4547
X6.3071Y-3.5728
T14
X3.9252Y-4.1988
X4.1Y-5.4543
X4.1752Y-5.6093
X5.3937Y-4.7906
X5.5973Y-4.5818
X5.7205Y-5.8524
T15
X3.8691Y-3.4616
X3.8691Y-3.6616
X4.0691Y-3.4616
X4.0691Y-3.6616
X4.2681Y-4.3547
X4.2681Y-4.5547
X4.4681Y-4.3547
X4.4681Y-4.5547
X6.2071Y-3.4728
X6.2071Y-3.6728
X6.4071Y-3.4728
X6.4071Y-3.6728
T16
X3.748Y-6.3754
X6.8976Y-6.3754
T7
G00X3.8219Y-5.0768
M15
G01X3.8514Y-5.0768
M16
G05
G00X3.8219Y-5.3878
M15
G01X3.8514Y-5.3878
M16
G05
M30
