%TF.GenerationSoftware,KiCad,Pcbnew,9.0.0*%
%TF.CreationDate,2025-06-10T14:56:09-07:00*%
%TF.ProjectId,og_pcb,6f675f70-6362-42e6-9b69-6361645f7063,rev?*%
%TF.SameCoordinates,Original*%
%TF.FileFunction,Copper,L4,Bot*%
%TF.FilePolarity,Positive*%
%FSLAX46Y46*%
G04 Gerber Fmt 4.6, Leading zero omitted, Abs format (unit mm)*
G04 Created by KiCad (PCBNEW 9.0.0) date 2025-06-10 14:56:09*
%MOMM*%
%LPD*%
G01*
G04 APERTURE LIST*
G04 Aperture macros list*
%AMRoundRect*
0 Rectangle with rounded corners*
0 $1 Rounding radius*
0 $2 $3 $4 $5 $6 $7 $8 $9 X,Y pos of 4 corners*
0 Add a 4 corners polygon primitive as box body*
4,1,4,$2,$3,$4,$5,$6,$7,$8,$9,$2,$3,0*
0 Add four circle primitives for the rounded corners*
1,1,$1+$1,$2,$3*
1,1,$1+$1,$4,$5*
1,1,$1+$1,$6,$7*
1,1,$1+$1,$8,$9*
0 Add four rect primitives between the rounded corners*
20,1,$1+$1,$2,$3,$4,$5,0*
20,1,$1+$1,$4,$5,$6,$7,0*
20,1,$1+$1,$6,$7,$8,$9,0*
20,1,$1+$1,$8,$9,$2,$3,0*%
G04 Aperture macros list end*
%TA.AperFunction,ComponentPad*%
%ADD10C,2.600000*%
%TD*%
%TA.AperFunction,ComponentPad*%
%ADD11C,2.050000*%
%TD*%
%TA.AperFunction,ComponentPad*%
%ADD12C,2.250000*%
%TD*%
%TA.AperFunction,ComponentPad*%
%ADD13C,2.300000*%
%TD*%
%TA.AperFunction,ComponentPad*%
%ADD14C,5.000000*%
%TD*%
%TA.AperFunction,ComponentPad*%
%ADD15R,2.000000X2.000000*%
%TD*%
%TA.AperFunction,ComponentPad*%
%ADD16C,2.000000*%
%TD*%
%TA.AperFunction,ComponentPad*%
%ADD17O,1.800000X1.400000*%
%TD*%
%TA.AperFunction,ComponentPad*%
%ADD18RoundRect,0.250000X-0.575000X0.350000X-0.575000X-0.350000X0.575000X-0.350000X0.575000X0.350000X0*%
%TD*%
%TA.AperFunction,ComponentPad*%
%ADD19O,1.650000X1.200000*%
%TD*%
%TA.AperFunction,HeatsinkPad*%
%ADD20C,0.600000*%
%TD*%
%TA.AperFunction,SMDPad,CuDef*%
%ADD21R,1.600000X0.900000*%
%TD*%
%TA.AperFunction,ViaPad*%
%ADD22C,0.800000*%
%TD*%
%TA.AperFunction,ViaPad*%
%ADD23C,1.000000*%
%TD*%
%TA.AperFunction,ViaPad*%
%ADD24C,0.450000*%
%TD*%
%TA.AperFunction,ViaPad*%
%ADD25C,0.600000*%
%TD*%
%TA.AperFunction,ViaPad*%
%ADD26C,1.200000*%
%TD*%
%TA.AperFunction,ViaPad*%
%ADD27C,2.000000*%
%TD*%
%TA.AperFunction,ViaPad*%
%ADD28C,1.600000*%
%TD*%
%TA.AperFunction,Conductor*%
%ADD29C,0.150000*%
%TD*%
%TA.AperFunction,Conductor*%
%ADD30C,0.200000*%
%TD*%
%TA.AperFunction,Conductor*%
%ADD31C,0.300000*%
%TD*%
G04 APERTURE END LIST*
D10*
%TO.P,TP5,1,1*%
%TO.N,+3.3V*%
X145300000Y-148650000D03*
%TD*%
%TO.P,TP4,1,1*%
%TO.N,+3.3V*%
X99700000Y-106650000D03*
%TD*%
D11*
%TO.P,J6,1,In*%
%TO.N,Net-(J6-In)*%
X100815000Y-90465000D03*
D12*
%TO.P,J6,2,Ext*%
%TO.N,GND*%
X98275000Y-93005000D03*
X103355000Y-93005000D03*
X98275000Y-87925000D03*
X103355000Y-87925000D03*
%TD*%
D13*
%TO.P,BT1,1,+*%
%TO.N,/Sensors/VBACKUP*%
X162525000Y-145925000D03*
X165625000Y-145925000D03*
X162525000Y-125125000D03*
X165625000Y-125125000D03*
%TD*%
D10*
%TO.P,TP6,1,1*%
%TO.N,VBUS*%
X104140000Y-138540000D03*
%TD*%
D11*
%TO.P,J1,1,In*%
%TO.N,Cosmic Analog*%
X110950000Y-113150000D03*
D12*
%TO.P,J1,2,Ext*%
%TO.N,GND*%
X108410000Y-115690000D03*
X113490000Y-115690000D03*
X108410000Y-110610000D03*
X113490000Y-110610000D03*
%TD*%
D14*
%TO.P,H2,1*%
%TO.N,N/C*%
X175198638Y-161936278D03*
%TD*%
D15*
%TO.P,J5,1,Pin_1*%
%TO.N,SWD*%
X131680000Y-117750000D03*
D16*
%TO.P,J5,2,Pin_2*%
%TO.N,SWCLK*%
X134220000Y-117750000D03*
%TD*%
D14*
%TO.P,H1,1*%
%TO.N,N/C*%
X95198638Y-161936278D03*
%TD*%
D10*
%TO.P,TP3,1,1*%
%TO.N,GPS VCC*%
X142172500Y-116377500D03*
%TD*%
D17*
%TO.P,J12,6,Shield*%
%TO.N,GND*%
X97450000Y-128950000D03*
X97450000Y-136850000D03*
%TD*%
D10*
%TO.P,TP1,1,1*%
%TO.N,RP2040 Reset*%
X137000000Y-121680000D03*
%TD*%
D18*
%TO.P,J3,1,Pin_1*%
%TO.N,VBUS*%
X100900000Y-143850000D03*
D19*
%TO.P,J3,2,Pin_2*%
X98900000Y-143850000D03*
%TO.P,J3,3,Pin_3*%
%TO.N,GND*%
X100900000Y-145850000D03*
%TO.P,J3,4,Pin_4*%
X98900000Y-145850000D03*
%TD*%
D10*
%TO.P,TP2,1,1*%
%TO.N,Net-(D4-K)*%
X106050000Y-142475000D03*
%TD*%
D20*
%TO.P,U15,9,EP*%
%TO.N,GND*%
X124375000Y-132650000D03*
D21*
X123875000Y-132650000D03*
D20*
X123375000Y-132650000D03*
%TD*%
D11*
%TO.P,J2,1,In*%
%TO.N,Net-(J2-In)*%
X160200000Y-90750000D03*
D12*
%TO.P,J2,2,Ext*%
%TO.N,GND*%
X157660000Y-93290000D03*
X162740000Y-93290000D03*
X157660000Y-88210000D03*
X162740000Y-88210000D03*
%TD*%
D22*
%TO.N,+3.3V*%
X151150000Y-120625000D03*
D23*
X153775000Y-82450000D03*
X129750000Y-93925000D03*
X168600000Y-104675000D03*
X106250000Y-158900000D03*
X150175000Y-144100000D03*
X137275000Y-151750000D03*
X153275000Y-152650000D03*
X151075000Y-154725000D03*
X147200000Y-155825000D03*
X142875000Y-155475000D03*
X139700000Y-154250000D03*
X141000000Y-143900000D03*
D22*
X142750000Y-121175000D03*
D24*
%TO.N,GND*%
X130750000Y-120550000D03*
D25*
X133275000Y-123525000D03*
X140500000Y-128600000D03*
X149170000Y-130800000D03*
D23*
%TO.N,+3.3V*%
X141800000Y-124850000D03*
D25*
%TO.N,USB_DM*%
X103875000Y-129250000D03*
D26*
%TO.N,GND*%
X106780000Y-135580000D03*
D25*
X109045000Y-152300000D03*
X133025000Y-120475000D03*
X131100000Y-125660000D03*
X132540000Y-125030000D03*
X132400000Y-121675000D03*
D23*
%TO.N,+3.3V*%
X102290000Y-128130000D03*
D25*
%TO.N,MicroSD CS*%
X119025000Y-140100000D03*
X123155000Y-145475000D03*
%TO.N,GND*%
X118725000Y-162750000D03*
D22*
%TO.N,+3.3V*%
X121000000Y-162475000D03*
%TO.N,GND*%
X148715000Y-119575000D03*
D25*
X113975000Y-123400000D03*
D22*
X148050000Y-95475000D03*
D26*
X101925000Y-130800000D03*
D25*
X139075000Y-129355000D03*
D26*
X98900000Y-147400000D03*
X97425000Y-114825000D03*
D22*
X101715000Y-97795000D03*
D25*
X120400000Y-121100000D03*
X135000000Y-129305000D03*
D22*
X155800000Y-119600000D03*
X158550000Y-95650000D03*
D25*
X113750000Y-121650000D03*
X126325000Y-127450000D03*
X155425000Y-139425000D03*
D27*
X164000000Y-142175000D03*
D22*
X157025000Y-115675000D03*
X133900000Y-163400000D03*
D24*
X123625000Y-134500000D03*
D26*
X115875000Y-97225000D03*
D25*
X110210000Y-129390000D03*
X169400000Y-143250000D03*
D24*
X128175000Y-120650000D03*
D26*
X117867500Y-95700000D03*
D27*
X164075000Y-129025000D03*
D25*
X115825000Y-131750000D03*
D26*
X101000000Y-147400000D03*
D27*
X164025000Y-135525000D03*
D24*
X131650000Y-120575000D03*
D25*
X129475000Y-118700000D03*
X118075000Y-115400000D03*
X123025000Y-135125000D03*
D22*
X108100000Y-92475000D03*
D25*
X122875000Y-121100000D03*
X155275000Y-132350000D03*
X122825000Y-123575000D03*
X122625000Y-131550000D03*
X123575000Y-114900000D03*
D27*
X170250000Y-135525000D03*
D22*
X149800000Y-115550000D03*
D23*
X122100000Y-150475000D03*
D27*
X121625000Y-122350000D03*
D26*
X119850000Y-94150000D03*
D27*
X157450000Y-135525000D03*
D25*
X104725000Y-148675000D03*
D26*
X119950000Y-97150000D03*
X97500000Y-125350000D03*
D22*
X140075000Y-119650000D03*
D25*
X114575000Y-119875000D03*
X116975000Y-115425000D03*
X120350000Y-123600000D03*
X118650000Y-130050000D03*
D22*
X143525000Y-90450000D03*
D25*
X114225000Y-118475000D03*
X168825000Y-126875000D03*
X109075000Y-148700000D03*
D26*
X115900000Y-94225000D03*
D24*
X127775000Y-124225000D03*
D25*
X129850000Y-119850000D03*
X155420000Y-116175000D03*
D24*
%TO.N,/RP2040 MCU/QSPI_SD2*%
X114500000Y-131725000D03*
X114500000Y-129875000D03*
D25*
%TO.N,RP2040 Reset*%
X137000000Y-114400000D03*
D24*
%TO.N,SCL0*%
X122462500Y-127387500D03*
X123375000Y-129075000D03*
%TO.N,GPS Reset*%
X128875000Y-111625000D03*
X140300000Y-111625000D03*
D25*
X144600000Y-111875000D03*
D24*
X127562500Y-112937500D03*
%TO.N,GPS UART Tx*%
X127933732Y-115158732D03*
X124332294Y-117082309D03*
%TO.N,RF DIO4*%
X122175000Y-112025000D03*
X124450000Y-114300000D03*
%TO.N,GPS UART Rx*%
X124375000Y-117831032D03*
X126700000Y-116480699D03*
D22*
%TO.N,+3.3V*%
X147350000Y-118050000D03*
X147400000Y-133520000D03*
X117750000Y-114525000D03*
D25*
X124275000Y-115600000D03*
D22*
X125800000Y-128725000D03*
X122250000Y-128850000D03*
X124880000Y-140760000D03*
D25*
X109010000Y-133250000D03*
D28*
X105175000Y-120000000D03*
D22*
X115750000Y-116825000D03*
D25*
X127275000Y-119700000D03*
D22*
X112805000Y-123865000D03*
X118000000Y-126950000D03*
D28*
X101775000Y-117200000D03*
D22*
X119250000Y-109975000D03*
D28*
X101810000Y-123050000D03*
D22*
X142425000Y-106300000D03*
X127300000Y-132825000D03*
X128350000Y-148050000D03*
D28*
X98200000Y-119875000D03*
D22*
X126100000Y-136325000D03*
D23*
X130450000Y-160000000D03*
D22*
X110470000Y-126210000D03*
D25*
X126775000Y-122100000D03*
D22*
X139325000Y-113225000D03*
D24*
%TO.N,RF SCK*%
X131750000Y-102800000D03*
X122450000Y-109275000D03*
X134275000Y-102800000D03*
X120625000Y-114325000D03*
%TO.N,RF MOSI*%
X120175000Y-113675000D03*
X132275000Y-104800000D03*
%TO.N,RF DIO0*%
X125025000Y-113400000D03*
X108975000Y-100475000D03*
X123175000Y-111550000D03*
X114525000Y-100475000D03*
%TO.N,GPS 1PPS*%
X118312500Y-109087500D03*
X145825000Y-107600000D03*
X127050000Y-107600000D03*
X122400000Y-107600000D03*
D25*
%TO.N,USB_DM*%
X108675000Y-124125000D03*
D24*
%TO.N,SWCLK*%
X126899000Y-118240000D03*
%TO.N,SCL1*%
X128450000Y-126325000D03*
X128450000Y-128200000D03*
D22*
%TO.N,+3.3V*%
X116325000Y-135925000D03*
D25*
%TO.N,USB_DP*%
X103200000Y-130975000D03*
X108724971Y-125499971D03*
%TD*%
D29*
%TO.N,RP2040 Reset*%
X137000000Y-121680000D02*
X137000000Y-116050000D01*
%TO.N,MicroSD CS*%
X119025000Y-141345000D02*
X119025000Y-140100000D01*
X123155000Y-145475000D02*
X119025000Y-141345000D01*
%TO.N,/RP2040 MCU/QSPI_SD2*%
X114500000Y-129875000D02*
X114500000Y-131725000D01*
%TO.N,SCL0*%
X123375000Y-128300000D02*
X123375000Y-129075000D01*
X122462500Y-127387500D02*
X123375000Y-128300000D01*
%TO.N,GPS Reset*%
X128875000Y-111625000D02*
X127562500Y-112937500D01*
X140550000Y-111875000D02*
X140300000Y-111625000D01*
X144600000Y-111875000D02*
X140550000Y-111875000D01*
%TO.N,GPS UART Tx*%
X126264603Y-115150000D02*
X124332294Y-117082309D01*
X126264603Y-115150000D02*
X127925000Y-115150000D01*
X127925000Y-115150000D02*
X127933732Y-115158732D01*
%TO.N,RF DIO4*%
X122175000Y-112025000D02*
X124450000Y-114300000D01*
%TO.N,GPS UART Rx*%
X124918968Y-117831032D02*
X126269301Y-116480699D01*
X126269301Y-116480699D02*
X126700000Y-116480699D01*
X124375000Y-117831032D02*
X124918968Y-117831032D01*
D30*
%TO.N,+3.3V*%
X126775000Y-122100000D02*
X126775000Y-122025000D01*
X127150000Y-119825000D02*
X127275000Y-119700000D01*
D29*
%TO.N,RF SCK*%
X134275000Y-102800000D02*
X131750000Y-102800000D01*
%TO.N,RF MOSI*%
X120175000Y-113062189D02*
X120175000Y-113675000D01*
X128437189Y-104800000D02*
X120175000Y-113062189D01*
X132275000Y-104800000D02*
X128437189Y-104800000D01*
%TO.N,RF DIO0*%
X125025000Y-113400000D02*
X123175000Y-111550000D01*
X114525000Y-100475000D02*
X108975000Y-100475000D01*
%TO.N,GPS 1PPS*%
X127050000Y-107600000D02*
X145825000Y-107600000D01*
X122400000Y-107600000D02*
X119775000Y-107600000D01*
X118312500Y-109062500D02*
X118312500Y-109087500D01*
X119775000Y-107600000D02*
X118312500Y-109062500D01*
%TO.N,SWCLK*%
X132845000Y-116375000D02*
X134220000Y-117750000D01*
X126899000Y-118240000D02*
X128764000Y-116375000D01*
X128764000Y-116375000D02*
X132845000Y-116375000D01*
%TO.N,SCL1*%
X128450000Y-126450000D02*
X128450000Y-128200000D01*
X128450000Y-126450000D02*
X128450000Y-126325000D01*
D31*
%TO.N,USB_DP*%
X103249943Y-130975000D02*
X103200000Y-130975000D01*
%TO.N,USB_DM*%
X103875000Y-129250000D02*
X103875000Y-128925000D01*
X103875000Y-128925000D02*
X108675000Y-124125000D01*
%TO.N,USB_DP*%
X108724971Y-125499971D02*
X103249943Y-130975000D01*
D29*
%TO.N,RP2040 Reset*%
X137000000Y-114400000D02*
X137000000Y-116050000D01*
%TD*%
%TA.AperFunction,Conductor*%
%TO.N,GND*%
G36*
X100503963Y-145685956D02*
G01*
X100475000Y-145794048D01*
X100475000Y-145905952D01*
X100503963Y-146014044D01*
X100553590Y-146100000D01*
X99246410Y-146100000D01*
X99296037Y-146014044D01*
X99325000Y-145905952D01*
X99325000Y-145794048D01*
X99296037Y-145685956D01*
X99246410Y-145600000D01*
X100553590Y-145600000D01*
X100503963Y-145685956D01*
G37*
%TD.AperFunction*%
%TA.AperFunction,Conductor*%
G36*
X176443871Y-72023734D02*
G01*
X176510851Y-72043614D01*
X176538917Y-72068531D01*
X178023196Y-73856556D01*
X178992255Y-75023926D01*
X179012748Y-75048612D01*
X179040422Y-75112768D01*
X179041338Y-75127814D01*
X179041338Y-81181866D01*
X179021653Y-81248905D01*
X179005019Y-81269547D01*
X174098663Y-86175902D01*
X174098662Y-86175903D01*
X174068138Y-86249594D01*
X174068138Y-151712961D01*
X174098662Y-151786652D01*
X179005019Y-156693009D01*
X179038504Y-156754332D01*
X179041338Y-156780690D01*
X179041338Y-161983021D01*
X179039409Y-162004809D01*
X178975939Y-162360417D01*
X178973585Y-162370937D01*
X178875386Y-162734818D01*
X178872128Y-162745094D01*
X178742689Y-163099082D01*
X178738550Y-163109037D01*
X178578854Y-163450442D01*
X178573866Y-163459999D01*
X178385125Y-163786237D01*
X178379326Y-163795325D01*
X178162952Y-164103950D01*
X178156385Y-164112499D01*
X177914043Y-164401140D01*
X177906759Y-164409088D01*
X177640239Y-164675612D01*
X177632292Y-164682896D01*
X177343644Y-164925251D01*
X177335094Y-164931818D01*
X177026478Y-165148192D01*
X177017390Y-165153991D01*
X176691156Y-165342737D01*
X176681599Y-165347725D01*
X176340194Y-165507426D01*
X176330239Y-165511565D01*
X175999054Y-165632670D01*
X175957001Y-165640211D01*
X136365824Y-165810177D01*
X136365292Y-165810178D01*
X95293113Y-165810178D01*
X95280171Y-165810176D01*
X95278740Y-165809608D01*
X95240874Y-165810170D01*
X95239951Y-165810170D01*
X95239845Y-165810139D01*
X95235980Y-165810106D01*
X94879559Y-165798631D01*
X94867938Y-165797708D01*
X94517117Y-165753186D01*
X94505634Y-165751177D01*
X94160527Y-165673903D01*
X94149283Y-165670824D01*
X93812956Y-165561483D01*
X93802051Y-165557361D01*
X93477489Y-165416923D01*
X93467020Y-165411796D01*
X93157076Y-165241496D01*
X93147134Y-165235408D01*
X92854556Y-165036757D01*
X92845230Y-165029763D01*
X92572590Y-164804507D01*
X92563962Y-164796667D01*
X92313693Y-164546814D01*
X92305839Y-164538199D01*
X92182049Y-164388877D01*
X92080128Y-164265934D01*
X92073130Y-164256636D01*
X91873979Y-163964371D01*
X91867876Y-163954440D01*
X91798326Y-163828357D01*
X91697056Y-163644772D01*
X91691926Y-163634341D01*
X91550934Y-163309982D01*
X91546804Y-163299110D01*
X91461371Y-163037804D01*
X91448477Y-162998366D01*
X91442338Y-162959832D01*
X91442338Y-161787424D01*
X92548138Y-161787424D01*
X92548138Y-162085131D01*
X92581468Y-162380940D01*
X92581470Y-162380952D01*
X92647714Y-162671190D01*
X92647717Y-162671198D01*
X92746038Y-162952182D01*
X92875201Y-163220392D01*
X92875203Y-163220395D01*
X93033588Y-163472463D01*
X93219200Y-163705212D01*
X93429704Y-163915716D01*
X93662453Y-164101328D01*
X93914521Y-164259713D01*
X93914523Y-164259714D01*
X93927456Y-164265942D01*
X94182737Y-164388879D01*
X94393773Y-164462723D01*
X94463717Y-164487198D01*
X94463725Y-164487201D01*
X94463728Y-164487201D01*
X94463729Y-164487202D01*
X94753963Y-164553446D01*
X95049785Y-164586777D01*
X95049786Y-164586778D01*
X95049789Y-164586778D01*
X95347490Y-164586778D01*
X95347490Y-164586777D01*
X95643313Y-164553446D01*
X95933547Y-164487202D01*
X96214539Y-164388879D01*
X96482755Y-164259713D01*
X96734823Y-164101328D01*
X96967572Y-163915716D01*
X97178076Y-163705212D01*
X97363688Y-163472463D01*
X97522073Y-163220395D01*
X97651239Y-162952179D01*
X97749562Y-162671187D01*
X97810882Y-162402525D01*
X120449500Y-162402525D01*
X120449500Y-162547475D01*
X120482649Y-162671187D01*
X120487017Y-162687488D01*
X120559488Y-162813011D01*
X120559490Y-162813013D01*
X120559491Y-162813015D01*
X120661985Y-162915509D01*
X120661986Y-162915510D01*
X120661988Y-162915511D01*
X120787511Y-162987982D01*
X120787512Y-162987982D01*
X120787515Y-162987984D01*
X120927525Y-163025500D01*
X120927528Y-163025500D01*
X121072472Y-163025500D01*
X121072475Y-163025500D01*
X121212485Y-162987984D01*
X121338015Y-162915509D01*
X121440509Y-162813015D01*
X121512984Y-162687485D01*
X121550500Y-162547475D01*
X121550500Y-162402525D01*
X121512984Y-162262515D01*
X121440509Y-162136985D01*
X121338015Y-162034491D01*
X121338013Y-162034490D01*
X121338011Y-162034488D01*
X121212488Y-161962017D01*
X121212489Y-161962017D01*
X121201006Y-161958940D01*
X121072475Y-161924500D01*
X120927525Y-161924500D01*
X120798993Y-161958940D01*
X120787511Y-161962017D01*
X120661988Y-162034488D01*
X120661982Y-162034493D01*
X120559493Y-162136982D01*
X120559488Y-162136988D01*
X120487017Y-162262511D01*
X120487016Y-162262515D01*
X120449500Y-162402525D01*
X97810882Y-162402525D01*
X97815806Y-162380953D01*
X97815829Y-162380742D01*
X97815856Y-162380514D01*
X97832291Y-162234637D01*
X97849138Y-162085127D01*
X97849138Y-161787429D01*
X97849137Y-161787424D01*
X172548138Y-161787424D01*
X172548138Y-162085131D01*
X172581468Y-162380940D01*
X172581470Y-162380952D01*
X172647714Y-162671190D01*
X172647717Y-162671198D01*
X172746038Y-162952182D01*
X172875201Y-163220392D01*
X172875203Y-163220395D01*
X173033588Y-163472463D01*
X173219200Y-163705212D01*
X173429704Y-163915716D01*
X173662453Y-164101328D01*
X173914521Y-164259713D01*
X173914523Y-164259714D01*
X173927456Y-164265942D01*
X174182737Y-164388879D01*
X174393773Y-164462723D01*
X174463717Y-164487198D01*
X174463725Y-164487201D01*
X174463728Y-164487201D01*
X174463729Y-164487202D01*
X174753963Y-164553446D01*
X175049785Y-164586777D01*
X175049786Y-164586778D01*
X175049789Y-164586778D01*
X175347490Y-164586778D01*
X175347490Y-164586777D01*
X175643313Y-164553446D01*
X175933547Y-164487202D01*
X176214539Y-164388879D01*
X176482755Y-164259713D01*
X176734823Y-164101328D01*
X176967572Y-163915716D01*
X177178076Y-163705212D01*
X177363688Y-163472463D01*
X177522073Y-163220395D01*
X177651239Y-162952179D01*
X177749562Y-162671187D01*
X177815806Y-162380953D01*
X177849138Y-162085127D01*
X177849138Y-161787429D01*
X177815806Y-161491603D01*
X177749562Y-161201369D01*
X177651239Y-160920377D01*
X177522073Y-160652161D01*
X177363688Y-160400093D01*
X177178076Y-160167344D01*
X176967572Y-159956840D01*
X176734823Y-159771228D01*
X176482755Y-159612843D01*
X176482752Y-159612841D01*
X176214542Y-159483678D01*
X175933558Y-159385357D01*
X175933550Y-159385354D01*
X175715871Y-159335671D01*
X175643313Y-159319110D01*
X175643309Y-159319109D01*
X175643300Y-159319108D01*
X175347491Y-159285778D01*
X175347487Y-159285778D01*
X175049789Y-159285778D01*
X175049784Y-159285778D01*
X174753975Y-159319108D01*
X174753963Y-159319110D01*
X174463725Y-159385354D01*
X174463717Y-159385357D01*
X174182733Y-159483678D01*
X173914523Y-159612841D01*
X173662454Y-159771227D01*
X173429704Y-159956839D01*
X173219199Y-160167344D01*
X173033587Y-160400094D01*
X172875201Y-160652163D01*
X172746038Y-160920373D01*
X172647717Y-161201357D01*
X172647714Y-161201365D01*
X172581470Y-161491603D01*
X172581468Y-161491615D01*
X172548138Y-161787424D01*
X97849137Y-161787424D01*
X97815806Y-161491603D01*
X97749562Y-161201369D01*
X97651239Y-160920377D01*
X97522073Y-160652161D01*
X97363688Y-160400093D01*
X97178076Y-160167344D01*
X97074803Y-160064071D01*
X129799499Y-160064071D01*
X129824497Y-160189738D01*
X129824499Y-160189744D01*
X129873533Y-160308124D01*
X129873538Y-160308133D01*
X129944723Y-160414668D01*
X129944726Y-160414672D01*
X130035327Y-160505273D01*
X130035331Y-160505276D01*
X130141866Y-160576461D01*
X130141872Y-160576464D01*
X130141873Y-160576465D01*
X130260256Y-160625501D01*
X130260260Y-160625501D01*
X130260261Y-160625502D01*
X130385928Y-160650500D01*
X130385931Y-160650500D01*
X130514071Y-160650500D01*
X130598615Y-160633682D01*
X130639744Y-160625501D01*
X130758127Y-160576465D01*
X130864669Y-160505276D01*
X130955276Y-160414669D01*
X131026465Y-160308127D01*
X131075501Y-160189744D01*
X131100500Y-160064069D01*
X131100500Y-159935931D01*
X131100500Y-159935928D01*
X131075502Y-159810261D01*
X131075501Y-159810260D01*
X131075501Y-159810256D01*
X131026465Y-159691873D01*
X131026464Y-159691872D01*
X131026461Y-159691866D01*
X130955276Y-159585331D01*
X130955273Y-159585327D01*
X130864672Y-159494726D01*
X130864668Y-159494723D01*
X130758133Y-159423538D01*
X130758124Y-159423533D01*
X130639744Y-159374499D01*
X130639738Y-159374497D01*
X130514071Y-159349500D01*
X130514069Y-159349500D01*
X130385931Y-159349500D01*
X130385929Y-159349500D01*
X130260261Y-159374497D01*
X130260255Y-159374499D01*
X130141875Y-159423533D01*
X130141866Y-159423538D01*
X130035331Y-159494723D01*
X130035327Y-159494726D01*
X129944726Y-159585327D01*
X129944723Y-159585331D01*
X129873538Y-159691866D01*
X129873533Y-159691875D01*
X129824499Y-159810255D01*
X129824497Y-159810261D01*
X129799500Y-159935928D01*
X129799500Y-159935931D01*
X129799500Y-160064069D01*
X129799500Y-160064071D01*
X129799499Y-160064071D01*
X97074803Y-160064071D01*
X96967572Y-159956840D01*
X96734823Y-159771228D01*
X96482755Y-159612843D01*
X96482752Y-159612841D01*
X96214542Y-159483678D01*
X95933558Y-159385357D01*
X95933550Y-159385354D01*
X95715871Y-159335671D01*
X95643313Y-159319110D01*
X95643309Y-159319109D01*
X95643300Y-159319108D01*
X95347491Y-159285778D01*
X95347487Y-159285778D01*
X95049789Y-159285778D01*
X95049784Y-159285778D01*
X94753975Y-159319108D01*
X94753963Y-159319110D01*
X94463725Y-159385354D01*
X94463717Y-159385357D01*
X94182733Y-159483678D01*
X93914523Y-159612841D01*
X93662454Y-159771227D01*
X93429704Y-159956839D01*
X93219199Y-160167344D01*
X93033587Y-160400094D01*
X92875201Y-160652163D01*
X92746038Y-160920373D01*
X92647717Y-161201357D01*
X92647714Y-161201365D01*
X92581470Y-161491603D01*
X92581468Y-161491615D01*
X92548138Y-161787424D01*
X91442338Y-161787424D01*
X91442338Y-158964071D01*
X105599499Y-158964071D01*
X105624497Y-159089738D01*
X105624499Y-159089744D01*
X105673533Y-159208124D01*
X105673538Y-159208133D01*
X105744723Y-159314668D01*
X105744726Y-159314672D01*
X105835327Y-159405273D01*
X105835331Y-159405276D01*
X105941866Y-159476461D01*
X105941872Y-159476464D01*
X105941873Y-159476465D01*
X106060256Y-159525501D01*
X106060260Y-159525501D01*
X106060261Y-159525502D01*
X106185928Y-159550500D01*
X106185931Y-159550500D01*
X106314071Y-159550500D01*
X106398615Y-159533682D01*
X106439744Y-159525501D01*
X106558127Y-159476465D01*
X106664669Y-159405276D01*
X106755276Y-159314669D01*
X106826465Y-159208127D01*
X106875501Y-159089744D01*
X106900500Y-158964069D01*
X106900500Y-158835931D01*
X106900500Y-158835928D01*
X106875502Y-158710261D01*
X106875501Y-158710260D01*
X106875501Y-158710256D01*
X106826465Y-158591873D01*
X106826464Y-158591872D01*
X106826461Y-158591866D01*
X106755276Y-158485331D01*
X106755273Y-158485327D01*
X106664672Y-158394726D01*
X106664668Y-158394723D01*
X106558133Y-158323538D01*
X106558124Y-158323533D01*
X106439744Y-158274499D01*
X106439738Y-158274497D01*
X106314071Y-158249500D01*
X106314069Y-158249500D01*
X106185931Y-158249500D01*
X106185929Y-158249500D01*
X106060261Y-158274497D01*
X106060255Y-158274499D01*
X105941875Y-158323533D01*
X105941866Y-158323538D01*
X105835331Y-158394723D01*
X105835327Y-158394726D01*
X105744726Y-158485327D01*
X105744723Y-158485331D01*
X105673538Y-158591866D01*
X105673533Y-158591875D01*
X105624499Y-158710255D01*
X105624497Y-158710261D01*
X105599500Y-158835928D01*
X105599500Y-158835931D01*
X105599500Y-158964069D01*
X105599500Y-158964071D01*
X105599499Y-158964071D01*
X91442338Y-158964071D01*
X91442338Y-156780689D01*
X91462023Y-156713650D01*
X91478652Y-156693013D01*
X92632594Y-155539071D01*
X142224499Y-155539071D01*
X142249497Y-155664738D01*
X142249499Y-155664744D01*
X142298533Y-155783124D01*
X142298538Y-155783133D01*
X142369723Y-155889668D01*
X142369726Y-155889672D01*
X142460327Y-155980273D01*
X142460331Y-155980276D01*
X142566866Y-156051461D01*
X142566872Y-156051464D01*
X142566873Y-156051465D01*
X142685256Y-156100501D01*
X142685260Y-156100501D01*
X142685261Y-156100502D01*
X142810928Y-156125500D01*
X142810931Y-156125500D01*
X142939071Y-156125500D01*
X143023615Y-156108682D01*
X143064744Y-156100501D01*
X143183127Y-156051465D01*
X143289669Y-155980276D01*
X143380276Y-155889669D01*
X143380676Y-155889071D01*
X146549499Y-155889071D01*
X146574497Y-156014738D01*
X146574499Y-156014744D01*
X146623533Y-156133124D01*
X146623538Y-156133133D01*
X146694723Y-156239668D01*
X146694726Y-156239672D01*
X146785327Y-156330273D01*
X146785331Y-156330276D01*
X146891866Y-156401461D01*
X146891872Y-156401464D01*
X146891873Y-156401465D01*
X147010256Y-156450501D01*
X147010260Y-156450501D01*
X147010261Y-156450502D01*
X147135928Y-156475500D01*
X147135931Y-156475500D01*
X147264071Y-156475500D01*
X147348615Y-156458682D01*
X147389744Y-156450501D01*
X147508127Y-156401465D01*
X147614669Y-156330276D01*
X147705276Y-156239669D01*
X147776465Y-156133127D01*
X147825501Y-156014744D01*
X147850500Y-155889069D01*
X147850500Y-155760931D01*
X147850500Y-155760928D01*
X147825502Y-155635261D01*
X147825501Y-155635260D01*
X147825501Y-155635256D01*
X147776465Y-155516873D01*
X147776464Y-155516872D01*
X147776461Y-155516866D01*
X147705276Y-155410331D01*
X147705273Y-155410327D01*
X147614672Y-155319726D01*
X147614668Y-155319723D01*
X147508133Y-155248538D01*
X147508124Y-155248533D01*
X147389744Y-155199499D01*
X147389738Y-155199497D01*
X147264071Y-155174500D01*
X147264069Y-155174500D01*
X147135931Y-155174500D01*
X147135929Y-155174500D01*
X147010261Y-155199497D01*
X147010255Y-155199499D01*
X146891875Y-155248533D01*
X146891866Y-155248538D01*
X146785331Y-155319723D01*
X146785327Y-155319726D01*
X146694726Y-155410327D01*
X146694723Y-155410331D01*
X146623538Y-155516866D01*
X146623533Y-155516875D01*
X146574499Y-155635255D01*
X146574497Y-155635261D01*
X146549500Y-155760928D01*
X146549500Y-155760931D01*
X146549500Y-155889069D01*
X146549500Y-155889071D01*
X146549499Y-155889071D01*
X143380676Y-155889071D01*
X143451465Y-155783127D01*
X143500501Y-155664744D01*
X143525500Y-155539069D01*
X143525500Y-155410931D01*
X143525500Y-155410928D01*
X143500502Y-155285261D01*
X143500501Y-155285260D01*
X143500501Y-155285256D01*
X143451465Y-155166873D01*
X143451464Y-155166872D01*
X143451461Y-155166866D01*
X143380276Y-155060331D01*
X143380273Y-155060327D01*
X143289672Y-154969726D01*
X143289668Y-154969723D01*
X143183133Y-154898538D01*
X143183124Y-154898533D01*
X143064744Y-154849499D01*
X143064738Y-154849497D01*
X142939071Y-154824500D01*
X142939069Y-154824500D01*
X142810931Y-154824500D01*
X142810929Y-154824500D01*
X142685261Y-154849497D01*
X142685255Y-154849499D01*
X142566875Y-154898533D01*
X142566866Y-154898538D01*
X142460331Y-154969723D01*
X142460327Y-154969726D01*
X142369726Y-155060327D01*
X142369723Y-155060331D01*
X142298538Y-155166866D01*
X142298533Y-155166875D01*
X142249499Y-155285255D01*
X142249497Y-155285261D01*
X142224500Y-155410928D01*
X142224500Y-155410931D01*
X142224500Y-155539069D01*
X142224500Y-155539071D01*
X142224499Y-155539071D01*
X92632594Y-155539071D01*
X93857594Y-154314071D01*
X139049499Y-154314071D01*
X139074497Y-154439738D01*
X139074499Y-154439744D01*
X139123533Y-154558124D01*
X139123538Y-154558133D01*
X139194723Y-154664668D01*
X139194726Y-154664672D01*
X139285327Y-154755273D01*
X139285331Y-154755276D01*
X139391866Y-154826461D01*
X139391872Y-154826464D01*
X139391873Y-154826465D01*
X139510256Y-154875501D01*
X139510260Y-154875501D01*
X139510261Y-154875502D01*
X139635928Y-154900500D01*
X139635931Y-154900500D01*
X139764071Y-154900500D01*
X139848615Y-154883682D01*
X139889744Y-154875501D01*
X140008127Y-154826465D01*
X140064091Y-154789071D01*
X150424499Y-154789071D01*
X150449497Y-154914738D01*
X150449499Y-154914744D01*
X150498533Y-155033124D01*
X150498538Y-155033133D01*
X150569723Y-155139668D01*
X150569726Y-155139672D01*
X150660327Y-155230273D01*
X150660331Y-155230276D01*
X150766866Y-155301461D01*
X150766872Y-155301464D01*
X150766873Y-155301465D01*
X150885256Y-155350501D01*
X150885260Y-155350501D01*
X150885261Y-155350502D01*
X151010928Y-155375500D01*
X151010931Y-155375500D01*
X151139071Y-155375500D01*
X151223615Y-155358682D01*
X151264744Y-155350501D01*
X151383127Y-155301465D01*
X151489669Y-155230276D01*
X151580276Y-155139669D01*
X151651465Y-155033127D01*
X151700501Y-154914744D01*
X151708682Y-154873615D01*
X151725500Y-154789071D01*
X151725500Y-154660928D01*
X151700502Y-154535261D01*
X151700501Y-154535260D01*
X151700501Y-154535256D01*
X151651465Y-154416873D01*
X151651464Y-154416872D01*
X151651461Y-154416866D01*
X151580276Y-154310331D01*
X151580273Y-154310327D01*
X151489672Y-154219726D01*
X151489668Y-154219723D01*
X151383133Y-154148538D01*
X151383124Y-154148533D01*
X151264744Y-154099499D01*
X151264738Y-154099497D01*
X151139071Y-154074500D01*
X151139069Y-154074500D01*
X151010931Y-154074500D01*
X151010929Y-154074500D01*
X150885261Y-154099497D01*
X150885255Y-154099499D01*
X150766875Y-154148533D01*
X150766866Y-154148538D01*
X150660331Y-154219723D01*
X150660327Y-154219726D01*
X150569726Y-154310327D01*
X150569723Y-154310331D01*
X150498538Y-154416866D01*
X150498533Y-154416875D01*
X150449499Y-154535255D01*
X150449497Y-154535261D01*
X150424500Y-154660928D01*
X150424500Y-154660931D01*
X150424500Y-154789069D01*
X150424500Y-154789071D01*
X150424499Y-154789071D01*
X140064091Y-154789071D01*
X140114669Y-154755276D01*
X140205276Y-154664669D01*
X140276465Y-154558127D01*
X140325501Y-154439744D01*
X140350500Y-154314069D01*
X140350500Y-154185931D01*
X140350500Y-154185928D01*
X140325502Y-154060261D01*
X140325501Y-154060260D01*
X140325501Y-154060256D01*
X140276465Y-153941873D01*
X140276464Y-153941872D01*
X140276461Y-153941866D01*
X140205276Y-153835331D01*
X140205273Y-153835327D01*
X140114672Y-153744726D01*
X140114668Y-153744723D01*
X140008133Y-153673538D01*
X140008124Y-153673533D01*
X139889744Y-153624499D01*
X139889738Y-153624497D01*
X139764071Y-153599500D01*
X139764069Y-153599500D01*
X139635931Y-153599500D01*
X139635929Y-153599500D01*
X139510261Y-153624497D01*
X139510255Y-153624499D01*
X139391875Y-153673533D01*
X139391866Y-153673538D01*
X139285331Y-153744723D01*
X139285327Y-153744726D01*
X139194726Y-153835327D01*
X139194723Y-153835331D01*
X139123538Y-153941866D01*
X139123533Y-153941875D01*
X139074499Y-154060255D01*
X139074497Y-154060261D01*
X139049500Y-154185928D01*
X139049500Y-154185931D01*
X139049500Y-154314069D01*
X139049500Y-154314071D01*
X139049499Y-154314071D01*
X93857594Y-154314071D01*
X95457594Y-152714071D01*
X152624499Y-152714071D01*
X152649497Y-152839738D01*
X152649499Y-152839744D01*
X152698533Y-152958124D01*
X152698538Y-152958133D01*
X152769723Y-153064668D01*
X152769726Y-153064672D01*
X152860327Y-153155273D01*
X152860331Y-153155276D01*
X152966866Y-153226461D01*
X152966872Y-153226464D01*
X152966873Y-153226465D01*
X153085256Y-153275501D01*
X153085260Y-153275501D01*
X153085261Y-153275502D01*
X153210928Y-153300500D01*
X153210931Y-153300500D01*
X153339071Y-153300500D01*
X153423615Y-153283682D01*
X153464744Y-153275501D01*
X153583127Y-153226465D01*
X153689669Y-153155276D01*
X153780276Y-153064669D01*
X153851465Y-152958127D01*
X153900501Y-152839744D01*
X153925500Y-152714069D01*
X153925500Y-152585931D01*
X153925500Y-152585928D01*
X153900502Y-152460261D01*
X153900501Y-152460260D01*
X153900501Y-152460256D01*
X153851465Y-152341873D01*
X153851464Y-152341872D01*
X153851461Y-152341866D01*
X153780276Y-152235331D01*
X153780273Y-152235327D01*
X153689672Y-152144726D01*
X153689668Y-152144723D01*
X153583133Y-152073538D01*
X153583124Y-152073533D01*
X153464744Y-152024499D01*
X153464738Y-152024497D01*
X153339071Y-151999500D01*
X153339069Y-151999500D01*
X153210931Y-151999500D01*
X153210929Y-151999500D01*
X153085261Y-152024497D01*
X153085255Y-152024499D01*
X152966875Y-152073533D01*
X152966866Y-152073538D01*
X152860331Y-152144723D01*
X152860327Y-152144726D01*
X152769726Y-152235327D01*
X152769723Y-152235331D01*
X152698538Y-152341866D01*
X152698533Y-152341875D01*
X152649499Y-152460255D01*
X152649497Y-152460261D01*
X152624500Y-152585928D01*
X152624500Y-152585931D01*
X152624500Y-152714069D01*
X152624500Y-152714071D01*
X152624499Y-152714071D01*
X95457594Y-152714071D01*
X96338644Y-151833021D01*
X96338818Y-151832949D01*
X96357628Y-151814071D01*
X136624499Y-151814071D01*
X136649497Y-151939738D01*
X136649499Y-151939744D01*
X136698533Y-152058124D01*
X136698538Y-152058133D01*
X136769723Y-152164668D01*
X136769726Y-152164672D01*
X136860327Y-152255273D01*
X136860331Y-152255276D01*
X136966866Y-152326461D01*
X136966872Y-152326464D01*
X136966873Y-152326465D01*
X137085256Y-152375501D01*
X137085260Y-152375501D01*
X137085261Y-152375502D01*
X137210928Y-152400500D01*
X137210931Y-152400500D01*
X137339071Y-152400500D01*
X137423615Y-152383682D01*
X137464744Y-152375501D01*
X137583127Y-152326465D01*
X137689669Y-152255276D01*
X137780276Y-152164669D01*
X137851465Y-152058127D01*
X137900501Y-151939744D01*
X137921730Y-151833021D01*
X137925500Y-151814071D01*
X137925500Y-151685928D01*
X137900502Y-151560261D01*
X137900501Y-151560260D01*
X137900501Y-151560256D01*
X137851465Y-151441873D01*
X137851464Y-151441872D01*
X137851461Y-151441866D01*
X137780276Y-151335331D01*
X137780273Y-151335327D01*
X137689672Y-151244726D01*
X137689668Y-151244723D01*
X137583133Y-151173538D01*
X137583124Y-151173533D01*
X137464744Y-151124499D01*
X137464738Y-151124497D01*
X137339071Y-151099500D01*
X137339069Y-151099500D01*
X137210931Y-151099500D01*
X137210929Y-151099500D01*
X137085261Y-151124497D01*
X137085255Y-151124499D01*
X136966875Y-151173533D01*
X136966866Y-151173538D01*
X136860331Y-151244723D01*
X136860327Y-151244726D01*
X136769726Y-151335327D01*
X136769723Y-151335331D01*
X136698538Y-151441866D01*
X136698533Y-151441875D01*
X136649499Y-151560255D01*
X136649497Y-151560261D01*
X136624500Y-151685928D01*
X136624500Y-151685931D01*
X136624500Y-151814069D01*
X136624500Y-151814071D01*
X136624499Y-151814071D01*
X96357628Y-151814071D01*
X96366829Y-151804836D01*
X96388614Y-151783052D01*
X96388614Y-151783051D01*
X96394913Y-151776753D01*
X96395114Y-151776449D01*
X96395118Y-151776446D01*
X96421280Y-151712961D01*
X96425508Y-151702702D01*
X96425508Y-151702701D01*
X96425509Y-151702699D01*
X96419646Y-148443290D01*
X96418808Y-147977525D01*
X127799500Y-147977525D01*
X127799500Y-148122475D01*
X127837016Y-148262485D01*
X127837017Y-148262488D01*
X127909488Y-148388011D01*
X127909490Y-148388013D01*
X127909491Y-148388015D01*
X128011985Y-148490509D01*
X128011986Y-148490510D01*
X128011988Y-148490511D01*
X128137511Y-148562982D01*
X128137512Y-148562982D01*
X128137515Y-148562984D01*
X128277525Y-148600500D01*
X128277528Y-148600500D01*
X128422472Y-148600500D01*
X128422475Y-148600500D01*
X128562485Y-148562984D01*
X128609505Y-148535837D01*
X143849500Y-148535837D01*
X143849500Y-148764162D01*
X143885215Y-148989660D01*
X143955770Y-149206803D01*
X144059421Y-149410228D01*
X144193621Y-149594937D01*
X144355063Y-149756379D01*
X144539772Y-149890579D01*
X144635884Y-149939550D01*
X144743196Y-149994229D01*
X144743198Y-149994229D01*
X144743201Y-149994231D01*
X144859592Y-150032049D01*
X144960339Y-150064784D01*
X145185838Y-150100500D01*
X145185843Y-150100500D01*
X145414162Y-150100500D01*
X145639660Y-150064784D01*
X145856799Y-149994231D01*
X146060228Y-149890579D01*
X146244937Y-149756379D01*
X146406379Y-149594937D01*
X146540579Y-149410228D01*
X146644231Y-149206799D01*
X146714784Y-148989660D01*
X146750500Y-148764162D01*
X146750500Y-148535837D01*
X146714784Y-148310339D01*
X146682049Y-148209592D01*
X146644231Y-148093201D01*
X146644229Y-148093198D01*
X146644229Y-148093196D01*
X146540578Y-147889771D01*
X146406379Y-147705063D01*
X146244937Y-147543621D01*
X146060228Y-147409421D01*
X145856803Y-147305770D01*
X145639660Y-147235215D01*
X145414162Y-147199500D01*
X145414157Y-147199500D01*
X145185843Y-147199500D01*
X145185838Y-147199500D01*
X144960339Y-147235215D01*
X144743196Y-147305770D01*
X144539771Y-147409421D01*
X144355061Y-147543622D01*
X144193622Y-147705061D01*
X144059421Y-147889771D01*
X143955770Y-148093196D01*
X143885215Y-148310339D01*
X143849500Y-148535837D01*
X128609505Y-148535837D01*
X128688015Y-148490509D01*
X128790509Y-148388015D01*
X128862984Y-148262485D01*
X128900500Y-148122475D01*
X128900500Y-147977525D01*
X128862984Y-147837515D01*
X128790509Y-147711985D01*
X128688015Y-147609491D01*
X128688013Y-147609490D01*
X128688011Y-147609488D01*
X128562488Y-147537017D01*
X128562489Y-147537017D01*
X128551006Y-147533940D01*
X128422475Y-147499500D01*
X128277525Y-147499500D01*
X128148993Y-147533940D01*
X128137511Y-147537017D01*
X128011988Y-147609488D01*
X128011982Y-147609493D01*
X127909493Y-147711982D01*
X127909488Y-147711988D01*
X127837017Y-147837511D01*
X127837016Y-147837515D01*
X127799500Y-147977525D01*
X96418808Y-147977525D01*
X96418794Y-147969621D01*
X96415693Y-146246037D01*
X96414531Y-145599999D01*
X97600884Y-145599999D01*
X97600885Y-145600000D01*
X98553590Y-145600000D01*
X98503963Y-145685956D01*
X98475000Y-145794048D01*
X98475000Y-145905952D01*
X98503963Y-146014044D01*
X98553590Y-146100000D01*
X97600885Y-146100000D01*
X97602085Y-146107584D01*
X97655591Y-146272255D01*
X97734195Y-146426524D01*
X97835967Y-146566602D01*
X97958397Y-146689032D01*
X98098475Y-146790804D01*
X98252742Y-146869408D01*
X98417415Y-146922914D01*
X98588429Y-146950000D01*
X98650000Y-146950000D01*
X98650000Y-146196409D01*
X98735956Y-146246037D01*
X98844048Y-146275000D01*
X98955952Y-146275000D01*
X99064044Y-146246037D01*
X99150000Y-146196409D01*
X99150000Y-146950000D01*
X99211571Y-146950000D01*
X99382584Y-146922914D01*
X99547257Y-146869408D01*
X99701528Y-146790801D01*
X99827115Y-146699559D01*
X99892921Y-146676079D01*
X99960975Y-146691905D01*
X99972885Y-146699559D01*
X100098471Y-146790801D01*
X100252742Y-146869408D01*
X100417415Y-146922914D01*
X100588429Y-146950000D01*
X100650000Y-146950000D01*
X100650000Y-146196409D01*
X100735956Y-146246037D01*
X100844048Y-146275000D01*
X100955952Y-146275000D01*
X101064044Y-146246037D01*
X101150000Y-146196409D01*
X101150000Y-146950000D01*
X101211571Y-146950000D01*
X101382584Y-146922914D01*
X101547257Y-146869408D01*
X101701524Y-146790804D01*
X101841602Y-146689032D01*
X101964032Y-146566602D01*
X102065804Y-146426524D01*
X102144408Y-146272255D01*
X102197914Y-146107584D01*
X102199115Y-146100000D01*
X101246410Y-146100000D01*
X101296037Y-146014044D01*
X101325000Y-145905952D01*
X101325000Y-145794048D01*
X101296037Y-145685956D01*
X101246410Y-145600000D01*
X102199115Y-145600000D01*
X102199115Y-145599999D01*
X102197914Y-145592415D01*
X102144408Y-145427744D01*
X102065804Y-145273475D01*
X101964032Y-145133397D01*
X101841602Y-145010967D01*
X101701524Y-144909195D01*
X101547251Y-144830588D01*
X101542760Y-144828729D01*
X101543357Y-144827286D01*
X101491362Y-144791727D01*
X101464169Y-144727366D01*
X101476089Y-144658521D01*
X101523337Y-144607049D01*
X101567964Y-144590767D01*
X101600304Y-144585646D01*
X101713342Y-144528050D01*
X101803050Y-144438342D01*
X101860646Y-144325304D01*
X101860646Y-144325302D01*
X101860647Y-144325301D01*
X101875499Y-144231524D01*
X101875500Y-144231519D01*
X101875499Y-143468482D01*
X101860646Y-143374696D01*
X101803050Y-143261658D01*
X101803046Y-143261654D01*
X101803045Y-143261652D01*
X101713347Y-143171954D01*
X101713344Y-143171952D01*
X101713342Y-143171950D01*
X101627753Y-143128340D01*
X101600301Y-143114352D01*
X101506524Y-143099500D01*
X100293482Y-143099500D01*
X100212519Y-143112323D01*
X100199696Y-143114354D01*
X100086658Y-143171950D01*
X100086657Y-143171951D01*
X100086652Y-143171954D01*
X99996954Y-143261652D01*
X99996949Y-143261659D01*
X99936186Y-143380912D01*
X99888212Y-143431707D01*
X99820391Y-143448502D01*
X99754256Y-143425964D01*
X99722600Y-143393507D01*
X99707951Y-143371584D01*
X99707948Y-143371580D01*
X99603419Y-143267051D01*
X99603415Y-143267048D01*
X99480501Y-143184919D01*
X99480488Y-143184912D01*
X99343917Y-143128343D01*
X99343907Y-143128340D01*
X99198920Y-143099500D01*
X99198918Y-143099500D01*
X98601082Y-143099500D01*
X98601080Y-143099500D01*
X98456092Y-143128340D01*
X98456082Y-143128343D01*
X98319511Y-143184912D01*
X98319498Y-143184919D01*
X98196584Y-143267048D01*
X98196580Y-143267051D01*
X98092051Y-143371580D01*
X98092048Y-143371584D01*
X98009919Y-143494498D01*
X98009912Y-143494511D01*
X97953343Y-143631082D01*
X97953340Y-143631092D01*
X97924500Y-143776079D01*
X97924500Y-143776082D01*
X97924500Y-143923918D01*
X97924500Y-143923920D01*
X97924499Y-143923920D01*
X97953340Y-144068907D01*
X97953343Y-144068917D01*
X98009912Y-144205488D01*
X98009919Y-144205501D01*
X98092048Y-144328415D01*
X98092051Y-144328419D01*
X98196580Y-144432948D01*
X98196584Y-144432951D01*
X98319498Y-144515080D01*
X98319510Y-144515087D01*
X98389752Y-144544181D01*
X98406485Y-144551112D01*
X98460889Y-144594952D01*
X98482954Y-144661246D01*
X98465675Y-144728946D01*
X98414538Y-144776556D01*
X98397352Y-144783604D01*
X98252743Y-144830591D01*
X98098475Y-144909195D01*
X97958397Y-145010967D01*
X97835967Y-145133397D01*
X97734195Y-145273475D01*
X97655591Y-145427744D01*
X97602085Y-145592415D01*
X97600884Y-145599999D01*
X96414531Y-145599999D01*
X96408704Y-142360837D01*
X104599500Y-142360837D01*
X104599500Y-142589162D01*
X104635215Y-142814660D01*
X104705770Y-143031803D01*
X104777179Y-143171950D01*
X104809421Y-143235228D01*
X104943621Y-143419937D01*
X105105063Y-143581379D01*
X105289772Y-143715579D01*
X105385884Y-143764550D01*
X105493196Y-143819229D01*
X105493198Y-143819229D01*
X105493201Y-143819231D01*
X105609592Y-143857049D01*
X105710339Y-143889784D01*
X105935838Y-143925500D01*
X105935843Y-143925500D01*
X106164162Y-143925500D01*
X106389660Y-143889784D01*
X106606799Y-143819231D01*
X106810228Y-143715579D01*
X106994937Y-143581379D01*
X107156379Y-143419937D01*
X107290579Y-143235228D01*
X107394231Y-143031799D01*
X107464784Y-142814660D01*
X107500500Y-142589162D01*
X107500500Y-142360837D01*
X107464784Y-142135339D01*
X107394229Y-141918196D01*
X107290578Y-141714771D01*
X107173487Y-141553610D01*
X107156379Y-141530063D01*
X106994937Y-141368621D01*
X106810228Y-141234421D01*
X106743672Y-141200509D01*
X106606803Y-141130770D01*
X106389660Y-141060215D01*
X106164162Y-141024500D01*
X106164157Y-141024500D01*
X105935843Y-141024500D01*
X105935838Y-141024500D01*
X105710339Y-141060215D01*
X105493196Y-141130770D01*
X105289771Y-141234421D01*
X105105061Y-141368622D01*
X104943622Y-141530061D01*
X104809421Y-141714771D01*
X104705770Y-141918196D01*
X104635215Y-142135339D01*
X104599500Y-142360837D01*
X96408704Y-142360837D01*
X96404530Y-140040691D01*
X118574500Y-140040691D01*
X118574500Y-140159309D01*
X118605201Y-140273886D01*
X118664511Y-140376613D01*
X118748387Y-140460489D01*
X118748389Y-140460490D01*
X118750986Y-140462483D01*
X118752623Y-140464725D01*
X118754134Y-140466236D01*
X118753898Y-140466471D01*
X118792189Y-140518911D01*
X118799500Y-140560859D01*
X118799500Y-141290142D01*
X118799499Y-141290156D01*
X118799499Y-141389853D01*
X118799500Y-141389858D01*
X118823772Y-141448457D01*
X118833829Y-141472735D01*
X118833830Y-141472736D01*
X118897264Y-141536170D01*
X118897265Y-141536170D01*
X118914705Y-141553610D01*
X122669669Y-145308574D01*
X122703154Y-145369897D01*
X122704928Y-145412431D01*
X122704500Y-145415683D01*
X122704500Y-145415691D01*
X122704500Y-145534309D01*
X122735201Y-145648886D01*
X122794511Y-145751613D01*
X122878387Y-145835489D01*
X122981114Y-145894799D01*
X123095691Y-145925500D01*
X123095694Y-145925500D01*
X123214306Y-145925500D01*
X123214309Y-145925500D01*
X123328886Y-145894799D01*
X123431613Y-145835489D01*
X123444454Y-145822648D01*
X161224500Y-145822648D01*
X161224500Y-146027351D01*
X161256522Y-146229534D01*
X161319781Y-146424223D01*
X161412715Y-146606613D01*
X161533028Y-146772213D01*
X161677786Y-146916971D01*
X161832749Y-147029556D01*
X161843390Y-147037287D01*
X161959607Y-147096503D01*
X162025776Y-147130218D01*
X162025778Y-147130218D01*
X162025781Y-147130220D01*
X162130137Y-147164127D01*
X162220465Y-147193477D01*
X162321557Y-147209488D01*
X162422648Y-147225500D01*
X162422649Y-147225500D01*
X162627351Y-147225500D01*
X162627352Y-147225500D01*
X162829534Y-147193477D01*
X163024219Y-147130220D01*
X163206610Y-147037287D01*
X163299590Y-146969732D01*
X163372213Y-146916971D01*
X163372215Y-146916968D01*
X163372219Y-146916966D01*
X163516966Y-146772219D01*
X163516968Y-146772215D01*
X163516971Y-146772213D01*
X163586815Y-146676079D01*
X163637287Y-146606610D01*
X163730220Y-146424219D01*
X163793477Y-146229534D01*
X163825500Y-146027352D01*
X163825500Y-145822648D01*
X164324500Y-145822648D01*
X164324500Y-146027351D01*
X164356522Y-146229534D01*
X164419781Y-146424223D01*
X164512715Y-146606613D01*
X164633028Y-146772213D01*
X164777786Y-146916971D01*
X164932749Y-147029556D01*
X164943390Y-147037287D01*
X165059607Y-147096503D01*
X165125776Y-147130218D01*
X165125778Y-147130218D01*
X165125781Y-147130220D01*
X165230137Y-147164127D01*
X165320465Y-147193477D01*
X165421557Y-147209488D01*
X165522648Y-147225500D01*
X165522649Y-147225500D01*
X165727351Y-147225500D01*
X165727352Y-147225500D01*
X165929534Y-147193477D01*
X166124219Y-147130220D01*
X166306610Y-147037287D01*
X166399590Y-146969732D01*
X166472213Y-146916971D01*
X166472215Y-146916968D01*
X166472219Y-146916966D01*
X166616966Y-146772219D01*
X166616968Y-146772215D01*
X166616971Y-146772213D01*
X166686815Y-146676079D01*
X166737287Y-146606610D01*
X166830220Y-146424219D01*
X166893477Y-146229534D01*
X166925500Y-146027352D01*
X166925500Y-145822648D01*
X166897978Y-145648886D01*
X166893477Y-145620465D01*
X166839377Y-145453963D01*
X166830220Y-145425781D01*
X166830218Y-145425778D01*
X166830218Y-145425776D01*
X166770500Y-145308574D01*
X166737287Y-145243390D01*
X166704591Y-145198387D01*
X166616971Y-145077786D01*
X166472213Y-144933028D01*
X166306613Y-144812715D01*
X166306612Y-144812714D01*
X166306610Y-144812713D01*
X166235648Y-144776556D01*
X166124223Y-144719781D01*
X165929534Y-144656522D01*
X165754995Y-144628878D01*
X165727352Y-144624500D01*
X165522648Y-144624500D01*
X165498329Y-144628351D01*
X165320465Y-144656522D01*
X165125776Y-144719781D01*
X164943386Y-144812715D01*
X164777786Y-144933028D01*
X164633028Y-145077786D01*
X164512715Y-145243386D01*
X164419781Y-145425776D01*
X164356522Y-145620465D01*
X164324500Y-145822648D01*
X163825500Y-145822648D01*
X163797978Y-145648886D01*
X163793477Y-145620465D01*
X163739377Y-145453963D01*
X163730220Y-145425781D01*
X163730218Y-145425778D01*
X163730218Y-145425776D01*
X163670500Y-145308574D01*
X163637287Y-145243390D01*
X163604591Y-145198387D01*
X163516971Y-145077786D01*
X163372213Y-144933028D01*
X163206613Y-144812715D01*
X163206612Y-144812714D01*
X163206610Y-144812713D01*
X163135648Y-144776556D01*
X163024223Y-144719781D01*
X162829534Y-144656522D01*
X162654995Y-144628878D01*
X162627352Y-144624500D01*
X162422648Y-144624500D01*
X162398329Y-144628351D01*
X162220465Y-144656522D01*
X162025776Y-144719781D01*
X161843386Y-144812715D01*
X161677786Y-144933028D01*
X161533028Y-145077786D01*
X161412715Y-145243386D01*
X161319781Y-145425776D01*
X161256522Y-145620465D01*
X161224500Y-145822648D01*
X123444454Y-145822648D01*
X123515489Y-145751613D01*
X123574799Y-145648886D01*
X123605500Y-145534309D01*
X123605500Y-145415691D01*
X123574799Y-145301114D01*
X123515489Y-145198387D01*
X123431613Y-145114511D01*
X123328886Y-145055201D01*
X123214309Y-145024500D01*
X123095691Y-145024500D01*
X123095684Y-145024500D01*
X123092431Y-145024928D01*
X123089688Y-145024500D01*
X123087564Y-145024500D01*
X123087564Y-145024168D01*
X123023397Y-145014157D01*
X122988574Y-144989669D01*
X121962976Y-143964071D01*
X140349499Y-143964071D01*
X140374497Y-144089738D01*
X140374499Y-144089744D01*
X140423533Y-144208124D01*
X140423538Y-144208133D01*
X140494723Y-144314668D01*
X140494726Y-144314672D01*
X140585327Y-144405273D01*
X140585331Y-144405276D01*
X140691866Y-144476461D01*
X140691872Y-144476464D01*
X140691873Y-144476465D01*
X140810256Y-144525501D01*
X140810260Y-144525501D01*
X140810261Y-144525502D01*
X140935928Y-144550500D01*
X140935931Y-144550500D01*
X141064071Y-144550500D01*
X141148615Y-144533682D01*
X141189744Y-144525501D01*
X141308127Y-144476465D01*
X141414669Y-144405276D01*
X141505276Y-144314669D01*
X141576465Y-144208127D01*
X141594714Y-144164071D01*
X149524499Y-144164071D01*
X149549497Y-144289738D01*
X149549499Y-144289744D01*
X149598533Y-144408124D01*
X149598538Y-144408133D01*
X149669723Y-144514668D01*
X149669726Y-144514672D01*
X149760327Y-144605273D01*
X149760331Y-144605276D01*
X149866866Y-144676461D01*
X149866872Y-144676464D01*
X149866873Y-144676465D01*
X149985256Y-144725501D01*
X149985260Y-144725501D01*
X149985261Y-144725502D01*
X150110928Y-144750500D01*
X150110931Y-144750500D01*
X150239071Y-144750500D01*
X150355368Y-144727366D01*
X150364744Y-144725501D01*
X150483127Y-144676465D01*
X150589669Y-144605276D01*
X150680276Y-144514669D01*
X150751465Y-144408127D01*
X150800501Y-144289744D01*
X150816737Y-144208124D01*
X150825500Y-144164071D01*
X150825500Y-144035928D01*
X150800502Y-143910261D01*
X150800501Y-143910260D01*
X150800501Y-143910256D01*
X150751465Y-143791873D01*
X150751464Y-143791872D01*
X150751461Y-143791866D01*
X150680276Y-143685331D01*
X150680273Y-143685327D01*
X150589672Y-143594726D01*
X150589668Y-143594723D01*
X150483133Y-143523538D01*
X150483124Y-143523533D01*
X150364744Y-143474499D01*
X150364738Y-143474497D01*
X150239071Y-143449500D01*
X150239069Y-143449500D01*
X150110931Y-143449500D01*
X150110929Y-143449500D01*
X149985261Y-143474497D01*
X149985255Y-143474499D01*
X149866875Y-143523533D01*
X149866866Y-143523538D01*
X149760331Y-143594723D01*
X149760327Y-143594726D01*
X149669726Y-143685327D01*
X149669723Y-143685331D01*
X149598538Y-143791866D01*
X149598533Y-143791875D01*
X149549499Y-143910255D01*
X149549497Y-143910261D01*
X149524500Y-144035928D01*
X149524500Y-144035931D01*
X149524500Y-144164069D01*
X149524500Y-144164071D01*
X149524499Y-144164071D01*
X141594714Y-144164071D01*
X141625501Y-144089744D01*
X141629646Y-144068907D01*
X141642230Y-144005647D01*
X141642230Y-144005646D01*
X141650499Y-143964073D01*
X141650500Y-143964071D01*
X141650500Y-143835928D01*
X141625502Y-143710261D01*
X141625501Y-143710260D01*
X141625501Y-143710256D01*
X141576465Y-143591873D01*
X141576464Y-143591872D01*
X141576461Y-143591866D01*
X141505276Y-143485331D01*
X141505273Y-143485327D01*
X141414672Y-143394726D01*
X141414668Y-143394723D01*
X141308133Y-143323538D01*
X141308124Y-143323533D01*
X141189744Y-143274499D01*
X141189738Y-143274497D01*
X141064071Y-143249500D01*
X141064069Y-143249500D01*
X140935931Y-143249500D01*
X140935929Y-143249500D01*
X140810261Y-143274497D01*
X140810255Y-143274499D01*
X140691875Y-143323533D01*
X140691866Y-143323538D01*
X140585331Y-143394723D01*
X140585327Y-143394726D01*
X140494726Y-143485327D01*
X140494723Y-143485331D01*
X140423538Y-143591866D01*
X140423533Y-143591875D01*
X140374499Y-143710255D01*
X140374497Y-143710261D01*
X140349500Y-143835928D01*
X140349500Y-143835931D01*
X140349500Y-143964069D01*
X140349500Y-143964071D01*
X140349499Y-143964071D01*
X121962976Y-143964071D01*
X119286819Y-141287914D01*
X119253334Y-141226591D01*
X119250500Y-141200233D01*
X119250500Y-140687525D01*
X124329500Y-140687525D01*
X124329500Y-140832475D01*
X124367016Y-140972485D01*
X124367017Y-140972488D01*
X124439488Y-141098011D01*
X124439490Y-141098013D01*
X124439491Y-141098015D01*
X124541985Y-141200509D01*
X124541986Y-141200510D01*
X124541988Y-141200511D01*
X124667511Y-141272982D01*
X124667512Y-141272982D01*
X124667515Y-141272984D01*
X124807525Y-141310500D01*
X124807528Y-141310500D01*
X124952472Y-141310500D01*
X124952475Y-141310500D01*
X125092485Y-141272984D01*
X125218015Y-141200509D01*
X125320509Y-141098015D01*
X125392984Y-140972485D01*
X125430500Y-140832475D01*
X125430500Y-140687525D01*
X125392984Y-140547515D01*
X125376469Y-140518911D01*
X125320511Y-140421988D01*
X125320506Y-140421982D01*
X125218017Y-140319493D01*
X125218011Y-140319488D01*
X125092488Y-140247017D01*
X125092489Y-140247017D01*
X125081006Y-140243940D01*
X124952475Y-140209500D01*
X124807525Y-140209500D01*
X124678993Y-140243940D01*
X124667511Y-140247017D01*
X124541988Y-140319488D01*
X124541982Y-140319493D01*
X124439493Y-140421982D01*
X124439488Y-140421988D01*
X124367017Y-140547511D01*
X124367016Y-140547515D01*
X124329500Y-140687525D01*
X119250500Y-140687525D01*
X119250500Y-140560859D01*
X119270185Y-140493820D01*
X119299014Y-140462483D01*
X119301606Y-140460492D01*
X119301613Y-140460489D01*
X119385489Y-140376613D01*
X119444799Y-140273886D01*
X119475500Y-140159309D01*
X119475500Y-140040691D01*
X119444799Y-139926114D01*
X119385489Y-139823387D01*
X119301613Y-139739511D01*
X119198886Y-139680201D01*
X119084309Y-139649500D01*
X118965691Y-139649500D01*
X118851114Y-139680201D01*
X118851112Y-139680201D01*
X118851112Y-139680202D01*
X118748387Y-139739511D01*
X118748384Y-139739513D01*
X118664513Y-139823384D01*
X118664511Y-139823387D01*
X118611830Y-139914633D01*
X118605201Y-139926114D01*
X118574500Y-140040691D01*
X96404530Y-140040691D01*
X96401625Y-138425837D01*
X102689500Y-138425837D01*
X102689500Y-138654162D01*
X102725215Y-138879660D01*
X102795770Y-139096803D01*
X102899421Y-139300228D01*
X103033621Y-139484937D01*
X103195063Y-139646379D01*
X103379772Y-139780579D01*
X103463782Y-139823384D01*
X103583196Y-139884229D01*
X103583198Y-139884229D01*
X103583201Y-139884231D01*
X103699592Y-139922049D01*
X103800339Y-139954784D01*
X104025838Y-139990500D01*
X104025843Y-139990500D01*
X104254162Y-139990500D01*
X104479660Y-139954784D01*
X104696799Y-139884231D01*
X104900228Y-139780579D01*
X105084937Y-139646379D01*
X105246379Y-139484937D01*
X105380579Y-139300228D01*
X105484231Y-139096799D01*
X105554784Y-138879660D01*
X105590500Y-138654162D01*
X105590500Y-138425837D01*
X105554784Y-138200339D01*
X105484229Y-137983196D01*
X105380578Y-137779771D01*
X105246379Y-137595063D01*
X105084937Y-137433621D01*
X104900228Y-137299421D01*
X104696803Y-137195770D01*
X104479660Y-137125215D01*
X104254162Y-137089500D01*
X104254157Y-137089500D01*
X104025843Y-137089500D01*
X104025838Y-137089500D01*
X103800339Y-137125215D01*
X103583196Y-137195770D01*
X103379771Y-137299421D01*
X103195061Y-137433622D01*
X103033622Y-137595061D01*
X102899421Y-137779771D01*
X102795770Y-137983196D01*
X102725215Y-138200339D01*
X102689500Y-138425837D01*
X96401625Y-138425837D01*
X96400787Y-137959877D01*
X96420351Y-137892804D01*
X96473073Y-137846954D01*
X96542213Y-137836887D01*
X96597673Y-137859338D01*
X96621062Y-137876331D01*
X96789362Y-137962085D01*
X96968997Y-138020451D01*
X97155553Y-138050000D01*
X97200000Y-138050000D01*
X97200000Y-137174993D01*
X97700000Y-137174993D01*
X97700000Y-138050000D01*
X97744447Y-138050000D01*
X97931002Y-138020451D01*
X98110637Y-137962085D01*
X98278940Y-137876329D01*
X98431741Y-137765314D01*
X98431746Y-137765310D01*
X98565310Y-137631746D01*
X98565314Y-137631741D01*
X98676329Y-137478940D01*
X98762085Y-137310637D01*
X98820451Y-137131002D01*
X98825362Y-137100000D01*
X98034615Y-137100000D01*
X98085065Y-137049550D01*
X98127851Y-136975442D01*
X98149999Y-136892786D01*
X98149999Y-136807214D01*
X98127851Y-136724558D01*
X98085065Y-136650450D01*
X98034615Y-136600000D01*
X98825362Y-136600000D01*
X98820451Y-136568997D01*
X98762085Y-136389362D01*
X98676329Y-136221059D01*
X98565314Y-136068258D01*
X98565310Y-136068253D01*
X98431746Y-135934689D01*
X98431741Y-135934685D01*
X98318656Y-135852525D01*
X115774500Y-135852525D01*
X115774500Y-135997475D01*
X115812016Y-136137485D01*
X115812017Y-136137488D01*
X115884488Y-136263011D01*
X115884490Y-136263013D01*
X115884491Y-136263015D01*
X115986985Y-136365509D01*
X115986986Y-136365510D01*
X115986988Y-136365511D01*
X116112511Y-136437982D01*
X116112512Y-136437982D01*
X116112515Y-136437984D01*
X116252525Y-136475500D01*
X116252528Y-136475500D01*
X116397472Y-136475500D01*
X116397475Y-136475500D01*
X116537485Y-136437984D01*
X116663015Y-136365509D01*
X116765509Y-136263015D01*
X116771565Y-136252525D01*
X125549500Y-136252525D01*
X125549500Y-136397475D01*
X125587016Y-136537485D01*
X125587017Y-136537488D01*
X125659488Y-136663011D01*
X125659490Y-136663013D01*
X125659491Y-136663015D01*
X125761985Y-136765509D01*
X125761986Y-136765510D01*
X125761988Y-136765511D01*
X125887511Y-136837982D01*
X125887512Y-136837982D01*
X125887515Y-136837984D01*
X126027525Y-136875500D01*
X126027528Y-136875500D01*
X126172472Y-136875500D01*
X126172475Y-136875500D01*
X126312485Y-136837984D01*
X126438015Y-136765509D01*
X126540509Y-136663015D01*
X126612984Y-136537485D01*
X126650500Y-136397475D01*
X126650500Y-136252525D01*
X126612984Y-136112515D01*
X126587429Y-136068253D01*
X126540511Y-135986988D01*
X126540506Y-135986982D01*
X126438017Y-135884493D01*
X126438011Y-135884488D01*
X126312488Y-135812017D01*
X126312489Y-135812017D01*
X126301006Y-135808940D01*
X126172475Y-135774500D01*
X126027525Y-135774500D01*
X125898993Y-135808940D01*
X125887511Y-135812017D01*
X125761988Y-135884488D01*
X125761982Y-135884493D01*
X125659493Y-135986982D01*
X125659488Y-135986988D01*
X125587017Y-136112511D01*
X125587016Y-136112515D01*
X125549500Y-136252525D01*
X116771565Y-136252525D01*
X116837984Y-136137485D01*
X116875500Y-135997475D01*
X116875500Y-135852525D01*
X116837984Y-135712515D01*
X116818950Y-135679548D01*
X116765511Y-135586988D01*
X116765506Y-135586982D01*
X116663017Y-135484493D01*
X116663011Y-135484488D01*
X116537488Y-135412017D01*
X116537489Y-135412017D01*
X116526006Y-135408940D01*
X116397475Y-135374500D01*
X116252525Y-135374500D01*
X116123993Y-135408940D01*
X116112511Y-135412017D01*
X115986988Y-135484488D01*
X115986982Y-135484493D01*
X115884493Y-135586982D01*
X115884488Y-135586988D01*
X115812017Y-135712511D01*
X115812016Y-135712515D01*
X115774500Y-135852525D01*
X98318656Y-135852525D01*
X98278940Y-135823670D01*
X98110637Y-135737914D01*
X97931002Y-135679548D01*
X97744447Y-135650000D01*
X97700000Y-135650000D01*
X97700000Y-136525007D01*
X97200000Y-136525007D01*
X97200000Y-135650000D01*
X97155553Y-135650000D01*
X96968997Y-135679548D01*
X96789362Y-135737914D01*
X96621061Y-135823669D01*
X96598127Y-135840331D01*
X96532321Y-135863809D01*
X96464267Y-135847982D01*
X96415573Y-135797876D01*
X96401245Y-135739971D01*
X96402168Y-133190691D01*
X108559500Y-133190691D01*
X108559500Y-133309309D01*
X108590201Y-133423886D01*
X108649511Y-133526613D01*
X108733387Y-133610489D01*
X108836114Y-133669799D01*
X108950691Y-133700500D01*
X108950694Y-133700500D01*
X109069306Y-133700500D01*
X109069309Y-133700500D01*
X109183886Y-133669799D01*
X109286613Y-133610489D01*
X109370489Y-133526613D01*
X109429799Y-133423886D01*
X109460500Y-133309309D01*
X109460500Y-133190691D01*
X109449019Y-133147844D01*
X122575000Y-133147844D01*
X122581401Y-133207372D01*
X122581403Y-133207379D01*
X122631645Y-133342086D01*
X122631649Y-133342093D01*
X122717809Y-133457187D01*
X122717812Y-133457190D01*
X122832906Y-133543350D01*
X122832913Y-133543354D01*
X122967620Y-133593596D01*
X122967627Y-133593598D01*
X123027155Y-133599999D01*
X123027172Y-133600000D01*
X123625000Y-133600000D01*
X123625000Y-133253553D01*
X123624999Y-133253552D01*
X124125000Y-133253552D01*
X124125000Y-133600000D01*
X124722828Y-133600000D01*
X124722844Y-133599999D01*
X124782372Y-133593598D01*
X124782379Y-133593596D01*
X124917086Y-133543354D01*
X124917093Y-133543350D01*
X125032187Y-133457190D01*
X125032190Y-133457187D01*
X125039423Y-133447525D01*
X146849500Y-133447525D01*
X146849500Y-133592475D01*
X146878446Y-133700500D01*
X146887017Y-133732488D01*
X146959488Y-133858011D01*
X146959490Y-133858013D01*
X146959491Y-133858015D01*
X147061985Y-133960509D01*
X147061986Y-133960510D01*
X147061988Y-133960511D01*
X147187511Y-134032982D01*
X147187512Y-134032982D01*
X147187515Y-134032984D01*
X147327525Y-134070500D01*
X147327528Y-134070500D01*
X147472472Y-134070500D01*
X147472475Y-134070500D01*
X147612485Y-134032984D01*
X147738015Y-133960509D01*
X147840509Y-133858015D01*
X147912984Y-133732485D01*
X147950500Y-133592475D01*
X147950500Y-133447525D01*
X147912984Y-133307515D01*
X147888732Y-133265510D01*
X147840511Y-133181988D01*
X147840506Y-133181982D01*
X147738017Y-133079493D01*
X147738011Y-133079488D01*
X147612488Y-133007017D01*
X147612489Y-133007017D01*
X147601006Y-133003940D01*
X147472475Y-132969500D01*
X147327525Y-132969500D01*
X147198993Y-133003940D01*
X147187511Y-133007017D01*
X147061988Y-133079488D01*
X147061982Y-133079493D01*
X146959493Y-133181982D01*
X146959488Y-133181988D01*
X146887017Y-133307511D01*
X146887016Y-133307515D01*
X146849500Y-133447525D01*
X125039423Y-133447525D01*
X125118350Y-133342093D01*
X125118354Y-133342086D01*
X125168596Y-133207379D01*
X125168598Y-133207372D01*
X125174999Y-133147844D01*
X125175000Y-133147827D01*
X125175000Y-132900000D01*
X124478553Y-132900000D01*
X124125000Y-133253552D01*
X123624999Y-133253552D01*
X123271446Y-132900000D01*
X122575000Y-132900000D01*
X122575000Y-133147844D01*
X109449019Y-133147844D01*
X109429799Y-133076114D01*
X109370489Y-132973387D01*
X109286613Y-132889511D01*
X109183886Y-132830201D01*
X109069309Y-132799500D01*
X108950691Y-132799500D01*
X108836114Y-132830201D01*
X108836112Y-132830201D01*
X108836112Y-132830202D01*
X108733387Y-132889511D01*
X108733384Y-132889513D01*
X108649513Y-132973384D01*
X108649511Y-132973387D01*
X108630095Y-133007017D01*
X108590201Y-133076114D01*
X108559500Y-133190691D01*
X96402168Y-133190691D01*
X96402373Y-132625136D01*
X123250000Y-132625136D01*
X123250000Y-132674864D01*
X123269030Y-132720807D01*
X123304193Y-132755970D01*
X123350136Y-132775000D01*
X123399864Y-132775000D01*
X123445807Y-132755970D01*
X123480970Y-132720807D01*
X123500000Y-132674864D01*
X123500000Y-132625136D01*
X124250000Y-132625136D01*
X124250000Y-132674864D01*
X124269030Y-132720807D01*
X124304193Y-132755970D01*
X124350136Y-132775000D01*
X124399864Y-132775000D01*
X124445807Y-132755970D01*
X124449252Y-132752525D01*
X126749500Y-132752525D01*
X126749500Y-132897475D01*
X126769840Y-132973384D01*
X126787017Y-133037488D01*
X126859488Y-133163011D01*
X126859490Y-133163013D01*
X126859491Y-133163015D01*
X126961985Y-133265509D01*
X126961986Y-133265510D01*
X126961988Y-133265511D01*
X127087511Y-133337982D01*
X127087512Y-133337982D01*
X127087515Y-133337984D01*
X127227525Y-133375500D01*
X127227528Y-133375500D01*
X127372472Y-133375500D01*
X127372475Y-133375500D01*
X127512485Y-133337984D01*
X127638015Y-133265509D01*
X127740509Y-133163015D01*
X127812984Y-133037485D01*
X127850500Y-132897475D01*
X127850500Y-132752525D01*
X127812984Y-132612515D01*
X127793745Y-132579193D01*
X127740511Y-132486988D01*
X127740506Y-132486982D01*
X127638017Y-132384493D01*
X127638011Y-132384488D01*
X127512488Y-132312017D01*
X127512489Y-132312017D01*
X127501006Y-132308940D01*
X127372475Y-132274500D01*
X127227525Y-132274500D01*
X127098993Y-132308940D01*
X127087511Y-132312017D01*
X126961988Y-132384488D01*
X126961982Y-132384493D01*
X126859493Y-132486982D01*
X126859488Y-132486988D01*
X126787017Y-132612511D01*
X126787016Y-132612515D01*
X126749500Y-132752525D01*
X124449252Y-132752525D01*
X124480970Y-132720807D01*
X124500000Y-132674864D01*
X124500000Y-132625136D01*
X124480970Y-132579193D01*
X124445807Y-132544030D01*
X124399864Y-132525000D01*
X124350136Y-132525000D01*
X124304193Y-132544030D01*
X124269030Y-132579193D01*
X124250000Y-132625136D01*
X123500000Y-132625136D01*
X123480970Y-132579193D01*
X123445807Y-132544030D01*
X123399864Y-132525000D01*
X123350136Y-132525000D01*
X123304193Y-132544030D01*
X123269030Y-132579193D01*
X123250000Y-132625136D01*
X96402373Y-132625136D01*
X96402544Y-132152155D01*
X122575000Y-132152155D01*
X122575000Y-132400000D01*
X123271446Y-132400000D01*
X123271446Y-132399999D01*
X123624999Y-132046446D01*
X124125000Y-132046446D01*
X124478554Y-132400000D01*
X125175000Y-132400000D01*
X125175000Y-132152172D01*
X125174999Y-132152155D01*
X125168598Y-132092627D01*
X125168596Y-132092620D01*
X125118354Y-131957913D01*
X125118350Y-131957906D01*
X125032190Y-131842812D01*
X125032187Y-131842809D01*
X124917093Y-131756649D01*
X124917086Y-131756645D01*
X124782379Y-131706403D01*
X124782372Y-131706401D01*
X124722844Y-131700000D01*
X124125000Y-131700000D01*
X124125000Y-132046446D01*
X123624999Y-132046446D01*
X123625000Y-132046445D01*
X123625000Y-131700000D01*
X123027155Y-131700000D01*
X122967627Y-131706401D01*
X122967620Y-131706403D01*
X122832913Y-131756645D01*
X122832906Y-131756649D01*
X122717812Y-131842809D01*
X122717809Y-131842812D01*
X122631649Y-131957906D01*
X122631645Y-131957913D01*
X122581403Y-132092620D01*
X122581401Y-132092627D01*
X122575000Y-132152155D01*
X96402544Y-132152155D01*
X96402991Y-130915691D01*
X102749500Y-130915691D01*
X102749500Y-131034309D01*
X102780201Y-131148886D01*
X102839511Y-131251613D01*
X102923387Y-131335489D01*
X103026114Y-131394799D01*
X103140691Y-131425500D01*
X103140694Y-131425500D01*
X103259306Y-131425500D01*
X103259309Y-131425500D01*
X103373886Y-131394799D01*
X103476613Y-131335489D01*
X103560489Y-131251613D01*
X103619799Y-131148886D01*
X103650500Y-131034309D01*
X103650500Y-131034306D01*
X103652603Y-131026458D01*
X103654258Y-131026901D01*
X103678557Y-130971964D01*
X103685542Y-130964370D01*
X104824347Y-129825565D01*
X114124500Y-129825565D01*
X114124500Y-129924435D01*
X114150090Y-130019938D01*
X114150091Y-130019939D01*
X114150091Y-130019940D01*
X114199526Y-130105563D01*
X114238181Y-130144218D01*
X114271666Y-130205541D01*
X114274500Y-130231899D01*
X114274500Y-131368100D01*
X114254815Y-131435139D01*
X114238182Y-131455780D01*
X114199526Y-131494436D01*
X114150091Y-131580059D01*
X114150091Y-131580060D01*
X114150090Y-131580062D01*
X114124500Y-131675565D01*
X114124500Y-131774435D01*
X114150090Y-131869938D01*
X114199525Y-131955562D01*
X114269438Y-132025475D01*
X114355062Y-132074910D01*
X114450565Y-132100500D01*
X114450567Y-132100500D01*
X114549432Y-132100500D01*
X114549435Y-132100500D01*
X114644938Y-132074910D01*
X114730562Y-132025475D01*
X114800475Y-131955562D01*
X114849910Y-131869938D01*
X114875500Y-131774435D01*
X114875500Y-131675565D01*
X114849910Y-131580062D01*
X114800475Y-131494438D01*
X114800473Y-131494436D01*
X114761818Y-131455780D01*
X114728333Y-131394457D01*
X114725500Y-131368100D01*
X114725500Y-130231899D01*
X114745185Y-130164860D01*
X114761819Y-130144218D01*
X114800475Y-130105562D01*
X114849910Y-130019938D01*
X114875500Y-129924435D01*
X114875500Y-129825565D01*
X114849910Y-129730062D01*
X114800475Y-129644438D01*
X114730562Y-129574525D01*
X114644938Y-129525090D01*
X114549435Y-129499500D01*
X114450565Y-129499500D01*
X114355062Y-129525090D01*
X114355060Y-129525091D01*
X114355059Y-129525091D01*
X114269436Y-129574526D01*
X114199526Y-129644436D01*
X114150091Y-129730059D01*
X114150091Y-129730060D01*
X114150090Y-129730062D01*
X114124500Y-129825565D01*
X104824347Y-129825565D01*
X105872387Y-128777525D01*
X121699500Y-128777525D01*
X121699500Y-128922475D01*
X121735130Y-129055447D01*
X121737017Y-129062488D01*
X121809488Y-129188011D01*
X121809490Y-129188013D01*
X121809491Y-129188015D01*
X121911985Y-129290509D01*
X121911986Y-129290510D01*
X121911988Y-129290511D01*
X122037511Y-129362982D01*
X122037512Y-129362982D01*
X122037515Y-129362984D01*
X122177525Y-129400500D01*
X122177528Y-129400500D01*
X122322472Y-129400500D01*
X122322475Y-129400500D01*
X122462485Y-129362984D01*
X122588015Y-129290509D01*
X122690509Y-129188015D01*
X122732737Y-129114875D01*
X122767048Y-129055447D01*
X122769466Y-129056843D01*
X122804768Y-129013027D01*
X122871059Y-128990955D01*
X122938761Y-129008226D01*
X122986377Y-129059357D01*
X122999500Y-129114875D01*
X122999500Y-129124435D01*
X123025090Y-129219938D01*
X123074525Y-129305562D01*
X123144438Y-129375475D01*
X123230062Y-129424910D01*
X123325565Y-129450500D01*
X123325567Y-129450500D01*
X123424432Y-129450500D01*
X123424435Y-129450500D01*
X123519938Y-129424910D01*
X123605562Y-129375475D01*
X123675475Y-129305562D01*
X123724910Y-129219938D01*
X123750500Y-129124435D01*
X123750500Y-129025565D01*
X123724910Y-128930062D01*
X123675475Y-128844438D01*
X123675473Y-128844436D01*
X123636818Y-128805780D01*
X123622112Y-128778849D01*
X123605523Y-128753035D01*
X123604631Y-128746835D01*
X123603333Y-128744457D01*
X123600500Y-128718100D01*
X123600500Y-128652525D01*
X125249500Y-128652525D01*
X125249500Y-128797475D01*
X125285027Y-128930062D01*
X125287017Y-128937488D01*
X125359488Y-129063011D01*
X125359490Y-129063013D01*
X125359491Y-129063015D01*
X125461985Y-129165509D01*
X125461986Y-129165510D01*
X125461988Y-129165511D01*
X125587511Y-129237982D01*
X125587512Y-129237982D01*
X125587515Y-129237984D01*
X125727525Y-129275500D01*
X125727528Y-129275500D01*
X125872472Y-129275500D01*
X125872475Y-129275500D01*
X126012485Y-129237984D01*
X126138015Y-129165509D01*
X126240509Y-129063015D01*
X126312984Y-128937485D01*
X126350500Y-128797475D01*
X126350500Y-128652525D01*
X126312984Y-128512515D01*
X126312676Y-128511982D01*
X126240511Y-128386988D01*
X126240506Y-128386982D01*
X126138017Y-128284493D01*
X126138011Y-128284488D01*
X126012488Y-128212017D01*
X126012489Y-128212017D01*
X126001006Y-128208940D01*
X125872475Y-128174500D01*
X125727525Y-128174500D01*
X125598993Y-128208940D01*
X125587511Y-128212017D01*
X125461988Y-128284488D01*
X125461982Y-128284493D01*
X125359493Y-128386982D01*
X125359488Y-128386988D01*
X125287017Y-128512511D01*
X125287016Y-128512515D01*
X125249500Y-128652525D01*
X123600500Y-128652525D01*
X123600500Y-128359297D01*
X123600501Y-128359288D01*
X123600501Y-128255146D01*
X123600501Y-128255145D01*
X123566170Y-128172265D01*
X123566170Y-128172264D01*
X123502736Y-128108830D01*
X123495671Y-128101765D01*
X123495664Y-128101759D01*
X122874319Y-127480414D01*
X122840834Y-127419091D01*
X122838000Y-127392733D01*
X122838000Y-127338067D01*
X122838000Y-127338065D01*
X122812410Y-127242562D01*
X122762975Y-127156938D01*
X122693062Y-127087025D01*
X122607438Y-127037590D01*
X122511935Y-127012000D01*
X122413065Y-127012000D01*
X122317562Y-127037590D01*
X122317560Y-127037591D01*
X122317559Y-127037591D01*
X122231936Y-127087026D01*
X122162026Y-127156936D01*
X122112591Y-127242559D01*
X122112591Y-127242560D01*
X122112590Y-127242562D01*
X122087000Y-127338065D01*
X122087000Y-127436935D01*
X122112590Y-127532438D01*
X122162025Y-127618062D01*
X122231938Y-127687975D01*
X122317562Y-127737410D01*
X122413065Y-127763000D01*
X122413067Y-127763000D01*
X122467733Y-127763000D01*
X122534772Y-127782685D01*
X122555414Y-127799319D01*
X123113181Y-128357086D01*
X123146666Y-128418409D01*
X123149500Y-128444767D01*
X123149500Y-128718100D01*
X123129815Y-128785139D01*
X123125611Y-128791269D01*
X123119953Y-128799009D01*
X123074525Y-128844438D01*
X123028551Y-128924066D01*
X123024611Y-128929458D01*
X123001971Y-128946813D01*
X122981319Y-128966505D01*
X122974594Y-128967800D01*
X122969160Y-128971967D01*
X122940725Y-128974328D01*
X122912712Y-128979727D01*
X122906355Y-128977182D01*
X122899530Y-128977749D01*
X122874331Y-128964361D01*
X122847848Y-128953759D01*
X122843876Y-128948181D01*
X122837828Y-128944968D01*
X122823867Y-128920082D01*
X122807320Y-128896845D01*
X122805817Y-128887907D01*
X122803643Y-128884032D01*
X122804043Y-128877360D01*
X122800500Y-128856289D01*
X122800500Y-128777527D01*
X122800500Y-128777525D01*
X122762984Y-128637515D01*
X122761691Y-128635276D01*
X122690511Y-128511988D01*
X122690506Y-128511982D01*
X122588017Y-128409493D01*
X122588011Y-128409488D01*
X122462488Y-128337017D01*
X122462489Y-128337017D01*
X122451006Y-128333940D01*
X122322475Y-128299500D01*
X122177525Y-128299500D01*
X122048993Y-128333940D01*
X122037511Y-128337017D01*
X121911988Y-128409488D01*
X121911982Y-128409493D01*
X121809493Y-128511982D01*
X121809488Y-128511988D01*
X121737017Y-128637511D01*
X121732583Y-128654055D01*
X121699500Y-128777525D01*
X105872387Y-128777525D01*
X107772388Y-126877525D01*
X117449500Y-126877525D01*
X117449500Y-127022475D01*
X117466797Y-127087026D01*
X117487017Y-127162488D01*
X117559488Y-127288011D01*
X117559490Y-127288013D01*
X117559491Y-127288015D01*
X117661985Y-127390509D01*
X117661986Y-127390510D01*
X117661988Y-127390511D01*
X117787511Y-127462982D01*
X117787512Y-127462982D01*
X117787515Y-127462984D01*
X117927525Y-127500500D01*
X117927528Y-127500500D01*
X118072472Y-127500500D01*
X118072475Y-127500500D01*
X118212485Y-127462984D01*
X118338015Y-127390509D01*
X118440509Y-127288015D01*
X118512984Y-127162485D01*
X118550500Y-127022475D01*
X118550500Y-126877525D01*
X118512984Y-126737515D01*
X118504594Y-126722984D01*
X118440511Y-126611988D01*
X118440506Y-126611982D01*
X118338017Y-126509493D01*
X118338011Y-126509488D01*
X118212488Y-126437017D01*
X118212489Y-126437017D01*
X118201006Y-126433940D01*
X118072475Y-126399500D01*
X117927525Y-126399500D01*
X117798993Y-126433940D01*
X117787511Y-126437017D01*
X117661988Y-126509488D01*
X117661982Y-126509493D01*
X117559493Y-126611982D01*
X117559488Y-126611988D01*
X117487017Y-126737511D01*
X117487016Y-126737515D01*
X117449500Y-126877525D01*
X107772388Y-126877525D01*
X108512388Y-126137525D01*
X109919500Y-126137525D01*
X109919500Y-126282475D01*
X109950857Y-126399500D01*
X109957017Y-126422488D01*
X110029488Y-126548011D01*
X110029490Y-126548013D01*
X110029491Y-126548015D01*
X110131985Y-126650509D01*
X110131986Y-126650510D01*
X110131988Y-126650511D01*
X110257511Y-126722982D01*
X110257512Y-126722982D01*
X110257515Y-126722984D01*
X110397525Y-126760500D01*
X110397528Y-126760500D01*
X110542472Y-126760500D01*
X110542475Y-126760500D01*
X110682485Y-126722984D01*
X110808015Y-126650509D01*
X110910509Y-126548015D01*
X110982984Y-126422485D01*
X111020500Y-126282475D01*
X111020500Y-126275565D01*
X128074500Y-126275565D01*
X128074500Y-126374435D01*
X128100090Y-126469938D01*
X128145165Y-126548011D01*
X128149526Y-126555563D01*
X128188181Y-126594218D01*
X128221666Y-126655541D01*
X128224500Y-126681899D01*
X128224500Y-127843100D01*
X128204815Y-127910139D01*
X128188182Y-127930780D01*
X128149526Y-127969436D01*
X128100091Y-128055059D01*
X128100091Y-128055060D01*
X128100090Y-128055062D01*
X128074500Y-128150565D01*
X128074500Y-128249435D01*
X128100090Y-128344938D01*
X128149525Y-128430562D01*
X128219438Y-128500475D01*
X128305062Y-128549910D01*
X128400565Y-128575500D01*
X128400567Y-128575500D01*
X128499432Y-128575500D01*
X128499435Y-128575500D01*
X128594938Y-128549910D01*
X128680562Y-128500475D01*
X128750475Y-128430562D01*
X128799910Y-128344938D01*
X128825500Y-128249435D01*
X128825500Y-128150565D01*
X128799910Y-128055062D01*
X128750475Y-127969438D01*
X128742768Y-127961731D01*
X128711818Y-127930780D01*
X128678333Y-127869457D01*
X128675500Y-127843100D01*
X128675500Y-126681899D01*
X128695185Y-126614860D01*
X128711819Y-126594218D01*
X128750475Y-126555562D01*
X128799910Y-126469938D01*
X128825500Y-126374435D01*
X128825500Y-126275565D01*
X128799910Y-126180062D01*
X128750475Y-126094438D01*
X128680562Y-126024525D01*
X128594938Y-125975090D01*
X128499435Y-125949500D01*
X128400565Y-125949500D01*
X128305062Y-125975090D01*
X128305060Y-125975091D01*
X128305059Y-125975091D01*
X128219436Y-126024526D01*
X128149526Y-126094436D01*
X128100091Y-126180059D01*
X128100091Y-126180060D01*
X128100090Y-126180062D01*
X128074500Y-126275565D01*
X111020500Y-126275565D01*
X111020500Y-126137525D01*
X110982984Y-125997515D01*
X110970037Y-125975091D01*
X110910511Y-125871988D01*
X110910506Y-125871982D01*
X110808017Y-125769493D01*
X110808011Y-125769488D01*
X110682488Y-125697017D01*
X110682489Y-125697017D01*
X110671006Y-125693940D01*
X110542475Y-125659500D01*
X110397525Y-125659500D01*
X110268993Y-125693940D01*
X110257511Y-125697017D01*
X110131988Y-125769488D01*
X110131982Y-125769493D01*
X110029493Y-125871982D01*
X110029488Y-125871988D01*
X109957017Y-125997511D01*
X109957016Y-125997515D01*
X109919500Y-126137525D01*
X108512388Y-126137525D01*
X108663123Y-125986790D01*
X108724446Y-125953305D01*
X108750804Y-125950471D01*
X108784277Y-125950471D01*
X108784280Y-125950471D01*
X108898857Y-125919770D01*
X109001584Y-125860460D01*
X109085460Y-125776584D01*
X109144770Y-125673857D01*
X109175471Y-125559280D01*
X109175471Y-125440662D01*
X109144770Y-125326085D01*
X109085460Y-125223358D01*
X109001584Y-125139482D01*
X108898857Y-125080172D01*
X108784280Y-125049471D01*
X108665662Y-125049471D01*
X108551085Y-125080172D01*
X108551083Y-125080172D01*
X108551083Y-125080173D01*
X108448358Y-125139482D01*
X108448355Y-125139484D01*
X108364484Y-125223355D01*
X108364482Y-125223358D01*
X108305172Y-125326085D01*
X108274471Y-125440662D01*
X108274471Y-125440664D01*
X108274471Y-125474138D01*
X108254786Y-125541177D01*
X108238152Y-125561819D01*
X104536313Y-129263657D01*
X104474990Y-129297142D01*
X104405298Y-129292158D01*
X104349365Y-129250286D01*
X104329994Y-129212047D01*
X104325500Y-129197266D01*
X104325500Y-129190691D01*
X104294799Y-129076114D01*
X104281840Y-129053669D01*
X104277703Y-129040061D01*
X104277499Y-129018777D01*
X104272481Y-128998093D01*
X104277172Y-128984537D01*
X104277035Y-128970194D01*
X104288371Y-128952178D01*
X104295332Y-128932065D01*
X104308654Y-128916315D01*
X108310900Y-124914071D01*
X141149499Y-124914071D01*
X141174497Y-125039738D01*
X141174499Y-125039744D01*
X141223533Y-125158124D01*
X141223538Y-125158133D01*
X141294723Y-125264668D01*
X141294726Y-125264672D01*
X141385327Y-125355273D01*
X141385331Y-125355276D01*
X141491866Y-125426461D01*
X141491872Y-125426464D01*
X141491873Y-125426465D01*
X141610256Y-125475501D01*
X141610260Y-125475501D01*
X141610261Y-125475502D01*
X141735928Y-125500500D01*
X141735931Y-125500500D01*
X141864071Y-125500500D01*
X141948615Y-125483682D01*
X141989744Y-125475501D01*
X142108127Y-125426465D01*
X142214669Y-125355276D01*
X142305276Y-125264669D01*
X142376465Y-125158127D01*
X142425501Y-125039744D01*
X142428902Y-125022648D01*
X161224500Y-125022648D01*
X161224500Y-125227351D01*
X161256522Y-125429534D01*
X161319781Y-125624223D01*
X161345072Y-125673858D01*
X161397413Y-125776583D01*
X161412715Y-125806613D01*
X161533028Y-125972213D01*
X161677786Y-126116971D01*
X161832749Y-126229556D01*
X161843390Y-126237287D01*
X161959607Y-126296503D01*
X162025776Y-126330218D01*
X162025778Y-126330218D01*
X162025781Y-126330220D01*
X162130137Y-126364127D01*
X162220465Y-126393477D01*
X162321557Y-126409488D01*
X162422648Y-126425500D01*
X162422649Y-126425500D01*
X162627351Y-126425500D01*
X162627352Y-126425500D01*
X162829534Y-126393477D01*
X163024219Y-126330220D01*
X163206610Y-126237287D01*
X163299590Y-126169732D01*
X163372213Y-126116971D01*
X163372215Y-126116968D01*
X163372219Y-126116966D01*
X163516966Y-125972219D01*
X163516968Y-125972215D01*
X163516971Y-125972213D01*
X163589787Y-125871988D01*
X163637287Y-125806610D01*
X163730220Y-125624219D01*
X163793477Y-125429534D01*
X163825500Y-125227352D01*
X163825500Y-125022648D01*
X164324500Y-125022648D01*
X164324500Y-125227351D01*
X164356522Y-125429534D01*
X164419781Y-125624223D01*
X164445072Y-125673858D01*
X164497413Y-125776583D01*
X164512715Y-125806613D01*
X164633028Y-125972213D01*
X164777786Y-126116971D01*
X164932749Y-126229556D01*
X164943390Y-126237287D01*
X165059607Y-126296503D01*
X165125776Y-126330218D01*
X165125778Y-126330218D01*
X165125781Y-126330220D01*
X165230137Y-126364127D01*
X165320465Y-126393477D01*
X165421557Y-126409488D01*
X165522648Y-126425500D01*
X165522649Y-126425500D01*
X165727351Y-126425500D01*
X165727352Y-126425500D01*
X165929534Y-126393477D01*
X166124219Y-126330220D01*
X166306610Y-126237287D01*
X166399590Y-126169732D01*
X166472213Y-126116971D01*
X166472215Y-126116968D01*
X166472219Y-126116966D01*
X166616966Y-125972219D01*
X166616968Y-125972215D01*
X166616971Y-125972213D01*
X166689787Y-125871988D01*
X166737287Y-125806610D01*
X166830220Y-125624219D01*
X166893477Y-125429534D01*
X166925500Y-125227352D01*
X166925500Y-125022648D01*
X166920897Y-124993585D01*
X166893477Y-124820465D01*
X166841423Y-124660261D01*
X166830220Y-124625781D01*
X166830218Y-124625778D01*
X166830218Y-124625776D01*
X166796503Y-124559607D01*
X166737287Y-124443390D01*
X166706936Y-124401615D01*
X166616971Y-124277786D01*
X166472213Y-124133028D01*
X166306613Y-124012715D01*
X166306612Y-124012714D01*
X166306610Y-124012713D01*
X166249653Y-123983691D01*
X166124223Y-123919781D01*
X165929534Y-123856522D01*
X165754995Y-123828878D01*
X165727352Y-123824500D01*
X165522648Y-123824500D01*
X165498329Y-123828351D01*
X165320465Y-123856522D01*
X165125776Y-123919781D01*
X164943386Y-124012715D01*
X164777786Y-124133028D01*
X164633028Y-124277786D01*
X164512715Y-124443386D01*
X164419781Y-124625776D01*
X164356522Y-124820465D01*
X164324500Y-125022648D01*
X163825500Y-125022648D01*
X163820897Y-124993585D01*
X163793477Y-124820465D01*
X163741423Y-124660261D01*
X163730220Y-124625781D01*
X163730218Y-124625778D01*
X163730218Y-124625776D01*
X163696503Y-124559607D01*
X163637287Y-124443390D01*
X163606936Y-124401615D01*
X163516971Y-124277786D01*
X163372213Y-124133028D01*
X163206613Y-124012715D01*
X163206612Y-124012714D01*
X163206610Y-124012713D01*
X163149653Y-123983691D01*
X163024223Y-123919781D01*
X162829534Y-123856522D01*
X162654995Y-123828878D01*
X162627352Y-123824500D01*
X162422648Y-123824500D01*
X162398329Y-123828351D01*
X162220465Y-123856522D01*
X162025776Y-123919781D01*
X161843386Y-124012715D01*
X161677786Y-124133028D01*
X161533028Y-124277786D01*
X161412715Y-124443386D01*
X161319781Y-124625776D01*
X161256522Y-124820465D01*
X161224500Y-125022648D01*
X142428902Y-125022648D01*
X142450500Y-124914069D01*
X142450500Y-124785931D01*
X142450500Y-124785928D01*
X142425502Y-124660261D01*
X142425501Y-124660260D01*
X142425501Y-124660256D01*
X142376465Y-124541873D01*
X142376464Y-124541872D01*
X142376461Y-124541866D01*
X142305276Y-124435331D01*
X142305273Y-124435327D01*
X142214672Y-124344726D01*
X142214668Y-124344723D01*
X142108133Y-124273538D01*
X142108124Y-124273533D01*
X141989744Y-124224499D01*
X141989738Y-124224497D01*
X141864071Y-124199500D01*
X141864069Y-124199500D01*
X141735931Y-124199500D01*
X141735929Y-124199500D01*
X141610261Y-124224497D01*
X141610255Y-124224499D01*
X141491875Y-124273533D01*
X141491866Y-124273538D01*
X141385331Y-124344723D01*
X141385327Y-124344726D01*
X141294726Y-124435327D01*
X141294723Y-124435331D01*
X141223538Y-124541866D01*
X141223533Y-124541875D01*
X141174499Y-124660255D01*
X141174497Y-124660261D01*
X141149500Y-124785928D01*
X141149500Y-124785931D01*
X141149500Y-124914069D01*
X141149500Y-124914071D01*
X141149499Y-124914071D01*
X108310900Y-124914071D01*
X108613152Y-124611819D01*
X108674475Y-124578334D01*
X108700833Y-124575500D01*
X108734306Y-124575500D01*
X108734309Y-124575500D01*
X108848886Y-124544799D01*
X108951613Y-124485489D01*
X109035489Y-124401613D01*
X109094799Y-124298886D01*
X109125500Y-124184309D01*
X109125500Y-124065691D01*
X109094799Y-123951114D01*
X109035489Y-123848387D01*
X108979627Y-123792525D01*
X112254500Y-123792525D01*
X112254500Y-123937475D01*
X112292016Y-124077485D01*
X112292017Y-124077488D01*
X112364488Y-124203011D01*
X112364490Y-124203013D01*
X112364491Y-124203015D01*
X112466985Y-124305509D01*
X112466986Y-124305510D01*
X112466988Y-124305511D01*
X112592511Y-124377982D01*
X112592512Y-124377982D01*
X112592515Y-124377984D01*
X112732525Y-124415500D01*
X112732528Y-124415500D01*
X112877472Y-124415500D01*
X112877475Y-124415500D01*
X113017485Y-124377984D01*
X113143015Y-124305509D01*
X113245509Y-124203015D01*
X113317984Y-124077485D01*
X113355500Y-123937475D01*
X113355500Y-123792525D01*
X113317984Y-123652515D01*
X113245509Y-123526985D01*
X113143015Y-123424491D01*
X113143013Y-123424490D01*
X113143011Y-123424488D01*
X113017488Y-123352017D01*
X113017489Y-123352017D01*
X113006006Y-123348940D01*
X112877475Y-123314500D01*
X112732525Y-123314500D01*
X112603993Y-123348940D01*
X112592511Y-123352017D01*
X112466988Y-123424488D01*
X112466982Y-123424493D01*
X112364493Y-123526982D01*
X112364488Y-123526988D01*
X112292017Y-123652511D01*
X112292016Y-123652515D01*
X112254500Y-123792525D01*
X108979627Y-123792525D01*
X108951613Y-123764511D01*
X108848886Y-123705201D01*
X108734309Y-123674500D01*
X108615691Y-123674500D01*
X108501114Y-123705201D01*
X108501112Y-123705201D01*
X108501112Y-123705202D01*
X108398387Y-123764511D01*
X108398384Y-123764513D01*
X108314513Y-123848384D01*
X108314511Y-123848387D01*
X108263076Y-123937475D01*
X108255201Y-123951114D01*
X108224500Y-124065691D01*
X108224500Y-124065693D01*
X108224500Y-124099167D01*
X108204815Y-124166206D01*
X108188181Y-124186848D01*
X103634541Y-128740487D01*
X103634535Y-128740495D01*
X103594982Y-128809004D01*
X103594977Y-128809015D01*
X103572864Y-128891540D01*
X103540773Y-128947125D01*
X103514511Y-128973387D01*
X103462763Y-129063017D01*
X103455201Y-129076114D01*
X103424500Y-129190691D01*
X103424500Y-129309309D01*
X103455201Y-129423886D01*
X103514511Y-129526613D01*
X103598387Y-129610489D01*
X103701114Y-129669799D01*
X103815691Y-129700500D01*
X103815698Y-129700500D01*
X103817156Y-129700692D01*
X103818302Y-129701198D01*
X103823542Y-129702603D01*
X103823323Y-129703419D01*
X103881054Y-129728956D01*
X103919528Y-129787279D01*
X103920362Y-129857144D01*
X103888657Y-129911313D01*
X103311790Y-130488181D01*
X103250467Y-130521666D01*
X103224109Y-130524500D01*
X103140691Y-130524500D01*
X103026114Y-130555201D01*
X103026112Y-130555201D01*
X103026112Y-130555202D01*
X102923387Y-130614511D01*
X102923384Y-130614513D01*
X102839513Y-130698384D01*
X102839511Y-130698387D01*
X102780201Y-130801114D01*
X102749500Y-130915691D01*
X96402991Y-130915691D01*
X96403300Y-130061432D01*
X96423008Y-129994404D01*
X96475828Y-129948668D01*
X96544990Y-129938750D01*
X96600185Y-129961163D01*
X96621062Y-129976331D01*
X96789362Y-130062085D01*
X96968997Y-130120451D01*
X97155553Y-130150000D01*
X97200000Y-130150000D01*
X97200000Y-129274993D01*
X97700000Y-129274993D01*
X97700000Y-130150000D01*
X97744447Y-130150000D01*
X97931002Y-130120451D01*
X98110637Y-130062085D01*
X98278940Y-129976329D01*
X98431741Y-129865314D01*
X98431746Y-129865310D01*
X98565310Y-129731746D01*
X98565314Y-129731741D01*
X98676329Y-129578940D01*
X98762085Y-129410637D01*
X98820451Y-129231002D01*
X98825362Y-129200000D01*
X98034615Y-129200000D01*
X98085065Y-129149550D01*
X98127851Y-129075442D01*
X98149999Y-128992786D01*
X98149999Y-128907214D01*
X98127851Y-128824558D01*
X98085065Y-128750450D01*
X98034615Y-128700000D01*
X98825362Y-128700000D01*
X98820451Y-128668997D01*
X98762085Y-128489362D01*
X98676329Y-128321059D01*
X98584068Y-128194071D01*
X101639499Y-128194071D01*
X101664497Y-128319738D01*
X101664499Y-128319744D01*
X101713533Y-128438124D01*
X101713538Y-128438133D01*
X101784723Y-128544668D01*
X101784726Y-128544672D01*
X101875327Y-128635273D01*
X101875331Y-128635276D01*
X101981866Y-128706461D01*
X101981872Y-128706464D01*
X101981873Y-128706465D01*
X102100256Y-128755501D01*
X102100260Y-128755501D01*
X102100261Y-128755502D01*
X102225928Y-128780500D01*
X102225931Y-128780500D01*
X102354071Y-128780500D01*
X102438615Y-128763682D01*
X102479744Y-128755501D01*
X102598127Y-128706465D01*
X102704669Y-128635276D01*
X102795276Y-128544669D01*
X102866465Y-128438127D01*
X102915501Y-128319744D01*
X102940500Y-128194069D01*
X102940500Y-128065931D01*
X102940500Y-128065928D01*
X102915502Y-127940261D01*
X102915501Y-127940260D01*
X102915501Y-127940256D01*
X102866465Y-127821873D01*
X102866464Y-127821872D01*
X102866461Y-127821866D01*
X102795276Y-127715331D01*
X102795273Y-127715327D01*
X102704672Y-127624726D01*
X102704668Y-127624723D01*
X102598133Y-127553538D01*
X102598124Y-127553533D01*
X102479744Y-127504499D01*
X102479738Y-127504497D01*
X102354071Y-127479500D01*
X102354069Y-127479500D01*
X102225931Y-127479500D01*
X102225929Y-127479500D01*
X102100261Y-127504497D01*
X102100255Y-127504499D01*
X101981875Y-127553533D01*
X101981866Y-127553538D01*
X101875331Y-127624723D01*
X101875327Y-127624726D01*
X101784726Y-127715327D01*
X101784723Y-127715331D01*
X101713538Y-127821866D01*
X101713533Y-127821875D01*
X101664499Y-127940255D01*
X101664497Y-127940261D01*
X101639500Y-128065928D01*
X101639500Y-128065931D01*
X101639500Y-128194069D01*
X101639500Y-128194071D01*
X101639499Y-128194071D01*
X98584068Y-128194071D01*
X98565314Y-128168258D01*
X98565310Y-128168253D01*
X98431746Y-128034689D01*
X98431741Y-128034685D01*
X98278940Y-127923670D01*
X98110637Y-127837914D01*
X97931002Y-127779548D01*
X97744447Y-127750000D01*
X97700000Y-127750000D01*
X97700000Y-128625007D01*
X97200000Y-128625007D01*
X97200000Y-127750000D01*
X97155553Y-127750000D01*
X96968997Y-127779548D01*
X96789362Y-127837914D01*
X96621061Y-127923669D01*
X96600987Y-127938253D01*
X96535180Y-127961731D01*
X96467126Y-127945904D01*
X96418433Y-127895797D01*
X96404104Y-127837890D01*
X96405870Y-122956379D01*
X100859500Y-122956379D01*
X100859500Y-123143620D01*
X100896025Y-123327243D01*
X100896027Y-123327251D01*
X100967676Y-123500228D01*
X100967681Y-123500237D01*
X101071697Y-123655907D01*
X101071700Y-123655911D01*
X101204088Y-123788299D01*
X101204092Y-123788302D01*
X101359762Y-123892318D01*
X101359768Y-123892321D01*
X101359769Y-123892322D01*
X101532749Y-123963973D01*
X101716379Y-124000499D01*
X101716383Y-124000500D01*
X101716384Y-124000500D01*
X101903617Y-124000500D01*
X101903618Y-124000499D01*
X102087251Y-123963973D01*
X102260231Y-123892322D01*
X102415908Y-123788302D01*
X102548302Y-123655908D01*
X102652322Y-123500231D01*
X102723973Y-123327251D01*
X102760500Y-123143616D01*
X102760500Y-122956384D01*
X102723973Y-122772749D01*
X102652322Y-122599769D01*
X102652321Y-122599768D01*
X102652318Y-122599762D01*
X102548302Y-122444092D01*
X102548299Y-122444088D01*
X102415911Y-122311700D01*
X102415907Y-122311697D01*
X102260237Y-122207681D01*
X102260228Y-122207676D01*
X102143451Y-122159306D01*
X102087251Y-122136027D01*
X102087243Y-122136025D01*
X101903620Y-122099500D01*
X101903616Y-122099500D01*
X101716384Y-122099500D01*
X101716379Y-122099500D01*
X101532756Y-122136025D01*
X101532748Y-122136027D01*
X101359771Y-122207676D01*
X101359762Y-122207681D01*
X101204092Y-122311697D01*
X101204088Y-122311700D01*
X101071700Y-122444088D01*
X101071697Y-122444092D01*
X100967681Y-122599762D01*
X100967676Y-122599771D01*
X100896027Y-122772748D01*
X100896025Y-122772756D01*
X100859500Y-122956379D01*
X96405870Y-122956379D01*
X96406201Y-122040691D01*
X126324500Y-122040691D01*
X126324500Y-122159309D01*
X126355201Y-122273886D01*
X126414511Y-122376613D01*
X126498387Y-122460489D01*
X126601114Y-122519799D01*
X126715691Y-122550500D01*
X126715694Y-122550500D01*
X126834306Y-122550500D01*
X126834309Y-122550500D01*
X126948886Y-122519799D01*
X127051613Y-122460489D01*
X127135489Y-122376613D01*
X127194799Y-122273886D01*
X127225500Y-122159309D01*
X127225500Y-122040691D01*
X127194799Y-121926114D01*
X127135489Y-121823387D01*
X127051613Y-121739511D01*
X127000249Y-121709856D01*
X126948887Y-121680201D01*
X126920241Y-121672525D01*
X126834309Y-121649500D01*
X126715691Y-121649500D01*
X126601114Y-121680201D01*
X126601112Y-121680201D01*
X126601112Y-121680202D01*
X126498387Y-121739511D01*
X126498384Y-121739513D01*
X126414513Y-121823384D01*
X126414511Y-121823387D01*
X126355201Y-121926114D01*
X126324500Y-122040691D01*
X96406201Y-122040691D01*
X96406373Y-121565837D01*
X135549500Y-121565837D01*
X135549500Y-121794162D01*
X135585215Y-122019660D01*
X135655770Y-122236803D01*
X135759421Y-122440228D01*
X135893621Y-122624937D01*
X136055063Y-122786379D01*
X136239772Y-122920579D01*
X136335884Y-122969550D01*
X136443196Y-123024229D01*
X136443198Y-123024229D01*
X136443201Y-123024231D01*
X136559592Y-123062049D01*
X136660339Y-123094784D01*
X136885838Y-123130500D01*
X136885843Y-123130500D01*
X137114162Y-123130500D01*
X137339660Y-123094784D01*
X137556799Y-123024231D01*
X137760228Y-122920579D01*
X137944937Y-122786379D01*
X138106379Y-122624937D01*
X138240579Y-122440228D01*
X138344231Y-122236799D01*
X138414784Y-122019660D01*
X138429600Y-121926114D01*
X138450500Y-121794162D01*
X138450500Y-121565837D01*
X138414784Y-121340339D01*
X138384609Y-121247472D01*
X138344231Y-121123201D01*
X138333696Y-121102525D01*
X142199500Y-121102525D01*
X142199500Y-121247475D01*
X142237016Y-121387485D01*
X142237017Y-121387488D01*
X142309488Y-121513011D01*
X142309490Y-121513013D01*
X142309491Y-121513015D01*
X142411985Y-121615509D01*
X142411986Y-121615510D01*
X142411988Y-121615511D01*
X142537511Y-121687982D01*
X142537512Y-121687982D01*
X142537515Y-121687984D01*
X142677525Y-121725500D01*
X142677528Y-121725500D01*
X142822472Y-121725500D01*
X142822475Y-121725500D01*
X142962485Y-121687984D01*
X143088015Y-121615509D01*
X143190509Y-121513015D01*
X143262984Y-121387485D01*
X143300500Y-121247475D01*
X143300500Y-121102525D01*
X143262984Y-120962515D01*
X143238306Y-120919772D01*
X143190511Y-120836988D01*
X143190506Y-120836982D01*
X143088017Y-120734493D01*
X143088011Y-120734488D01*
X142962490Y-120662018D01*
X142962487Y-120662017D01*
X142962485Y-120662016D01*
X142822475Y-120624500D01*
X142677525Y-120624500D01*
X142548993Y-120658940D01*
X142537511Y-120662017D01*
X142411988Y-120734488D01*
X142411982Y-120734493D01*
X142309493Y-120836982D01*
X142309488Y-120836988D01*
X142237017Y-120962511D01*
X142237016Y-120962515D01*
X142199500Y-121102525D01*
X138333696Y-121102525D01*
X138240579Y-120919772D01*
X138106379Y-120735063D01*
X137944937Y-120573621D01*
X137915901Y-120552525D01*
X150599500Y-120552525D01*
X150599500Y-120697475D01*
X150633805Y-120825500D01*
X150637017Y-120837488D01*
X150709488Y-120963011D01*
X150709490Y-120963013D01*
X150709491Y-120963015D01*
X150811985Y-121065509D01*
X150811986Y-121065510D01*
X150811988Y-121065511D01*
X150937511Y-121137982D01*
X150937512Y-121137982D01*
X150937515Y-121137984D01*
X151077525Y-121175500D01*
X151077528Y-121175500D01*
X151222472Y-121175500D01*
X151222475Y-121175500D01*
X151362485Y-121137984D01*
X151488015Y-121065509D01*
X151590509Y-120963015D01*
X151662984Y-120837485D01*
X151700500Y-120697475D01*
X151700500Y-120552525D01*
X151662984Y-120412515D01*
X151612590Y-120325231D01*
X151590511Y-120286988D01*
X151590506Y-120286982D01*
X151488017Y-120184493D01*
X151488011Y-120184488D01*
X151362488Y-120112017D01*
X151362489Y-120112017D01*
X151351006Y-120108940D01*
X151222475Y-120074500D01*
X151077525Y-120074500D01*
X150948993Y-120108940D01*
X150937511Y-120112017D01*
X150811988Y-120184488D01*
X150811982Y-120184493D01*
X150709493Y-120286982D01*
X150709488Y-120286988D01*
X150637017Y-120412511D01*
X150637016Y-120412515D01*
X150599500Y-120552525D01*
X137915901Y-120552525D01*
X137760228Y-120439421D01*
X137556799Y-120335769D01*
X137339660Y-120265216D01*
X137339654Y-120265214D01*
X137330095Y-120263700D01*
X137266962Y-120233767D01*
X137230034Y-120174453D01*
X137225500Y-120141228D01*
X137225500Y-117977525D01*
X146799500Y-117977525D01*
X146799500Y-118122475D01*
X146829589Y-118234766D01*
X146837017Y-118262488D01*
X146909488Y-118388011D01*
X146909490Y-118388013D01*
X146909491Y-118388015D01*
X147011985Y-118490509D01*
X147011986Y-118490510D01*
X147011988Y-118490511D01*
X147137511Y-118562982D01*
X147137512Y-118562982D01*
X147137515Y-118562984D01*
X147277525Y-118600500D01*
X147277528Y-118600500D01*
X147422472Y-118600500D01*
X147422475Y-118600500D01*
X147562485Y-118562984D01*
X147688015Y-118490509D01*
X147790509Y-118388015D01*
X147862984Y-118262485D01*
X147900500Y-118122475D01*
X147900500Y-117977525D01*
X147862984Y-117837515D01*
X147857490Y-117828000D01*
X147790511Y-117711988D01*
X147790506Y-117711982D01*
X147688017Y-117609493D01*
X147688011Y-117609488D01*
X147562488Y-117537017D01*
X147562489Y-117537017D01*
X147538380Y-117530557D01*
X147422475Y-117499500D01*
X147277525Y-117499500D01*
X147161620Y-117530557D01*
X147137511Y-117537017D01*
X147011988Y-117609488D01*
X147011982Y-117609493D01*
X146909493Y-117711982D01*
X146909488Y-117711988D01*
X146837017Y-117837511D01*
X146837016Y-117837515D01*
X146799500Y-117977525D01*
X137225500Y-117977525D01*
X137225500Y-116263337D01*
X140722000Y-116263337D01*
X140722000Y-116491662D01*
X140757715Y-116717160D01*
X140828270Y-116934303D01*
X140914475Y-117103488D01*
X140931921Y-117137728D01*
X141066121Y-117322437D01*
X141227563Y-117483879D01*
X141412272Y-117618079D01*
X141493475Y-117659454D01*
X141615696Y-117721729D01*
X141615698Y-117721729D01*
X141615701Y-117721731D01*
X141732092Y-117759549D01*
X141832839Y-117792284D01*
X142058338Y-117828000D01*
X142058343Y-117828000D01*
X142286662Y-117828000D01*
X142512160Y-117792284D01*
X142545051Y-117781597D01*
X142729299Y-117721731D01*
X142932728Y-117618079D01*
X143117437Y-117483879D01*
X143278879Y-117322437D01*
X143413079Y-117137728D01*
X143516731Y-116934299D01*
X143587284Y-116717160D01*
X143592569Y-116683793D01*
X143623000Y-116491662D01*
X143623000Y-116263337D01*
X143587284Y-116037839D01*
X143554549Y-115937092D01*
X143516731Y-115820701D01*
X143516729Y-115820698D01*
X143516729Y-115820696D01*
X143413078Y-115617271D01*
X143405094Y-115606282D01*
X143278879Y-115432563D01*
X143117437Y-115271121D01*
X142932728Y-115136921D01*
X142878513Y-115109297D01*
X142729303Y-115033270D01*
X142512160Y-114962715D01*
X142286662Y-114927000D01*
X142286657Y-114927000D01*
X142058343Y-114927000D01*
X142058338Y-114927000D01*
X141832839Y-114962715D01*
X141615696Y-115033270D01*
X141412271Y-115136921D01*
X141227561Y-115271122D01*
X141066122Y-115432561D01*
X140931921Y-115617271D01*
X140828270Y-115820696D01*
X140757715Y-116037839D01*
X140722000Y-116263337D01*
X137225500Y-116263337D01*
X137225500Y-114860859D01*
X137245185Y-114793820D01*
X137274014Y-114762483D01*
X137276606Y-114760492D01*
X137276613Y-114760489D01*
X137360489Y-114676613D01*
X137419799Y-114573886D01*
X137450500Y-114459309D01*
X137450500Y-114340691D01*
X137419799Y-114226114D01*
X137360489Y-114123387D01*
X137276613Y-114039511D01*
X137173886Y-113980201D01*
X137059309Y-113949500D01*
X136940691Y-113949500D01*
X136826114Y-113980201D01*
X136826112Y-113980201D01*
X136826112Y-113980202D01*
X136723387Y-114039511D01*
X136723384Y-114039513D01*
X136639513Y-114123384D01*
X136639511Y-114123387D01*
X136591472Y-114206593D01*
X136580201Y-114226114D01*
X136549500Y-114340691D01*
X136549500Y-114459309D01*
X136580201Y-114573886D01*
X136639511Y-114676613D01*
X136723387Y-114760489D01*
X136723389Y-114760490D01*
X136725986Y-114762483D01*
X136727623Y-114764725D01*
X136729134Y-114766236D01*
X136728898Y-114766471D01*
X136767189Y-114818911D01*
X136774500Y-114860859D01*
X136774500Y-120141228D01*
X136754815Y-120208267D01*
X136702011Y-120254022D01*
X136669905Y-120263700D01*
X136660345Y-120265214D01*
X136443198Y-120335770D01*
X136239771Y-120439421D01*
X136055061Y-120573622D01*
X135893622Y-120735061D01*
X135759421Y-120919771D01*
X135655770Y-121123196D01*
X135585215Y-121340339D01*
X135549500Y-121565837D01*
X96406373Y-121565837D01*
X96407019Y-119781379D01*
X97249500Y-119781379D01*
X97249500Y-119968620D01*
X97286025Y-120152243D01*
X97286027Y-120152251D01*
X97357676Y-120325228D01*
X97357681Y-120325237D01*
X97461697Y-120480907D01*
X97461700Y-120480911D01*
X97594088Y-120613299D01*
X97594092Y-120613302D01*
X97749762Y-120717318D01*
X97749768Y-120717321D01*
X97749769Y-120717322D01*
X97922749Y-120788973D01*
X98106379Y-120825499D01*
X98106383Y-120825500D01*
X98106384Y-120825500D01*
X98293617Y-120825500D01*
X98293618Y-120825499D01*
X98477251Y-120788973D01*
X98650231Y-120717322D01*
X98805908Y-120613302D01*
X98938302Y-120480908D01*
X99042322Y-120325231D01*
X99113973Y-120152251D01*
X99150500Y-119968616D01*
X99150500Y-119906379D01*
X104224500Y-119906379D01*
X104224500Y-120093620D01*
X104261025Y-120277243D01*
X104261027Y-120277251D01*
X104332676Y-120450228D01*
X104332681Y-120450237D01*
X104436697Y-120605907D01*
X104436700Y-120605911D01*
X104569088Y-120738299D01*
X104569092Y-120738302D01*
X104724762Y-120842318D01*
X104724768Y-120842321D01*
X104724769Y-120842322D01*
X104897749Y-120913973D01*
X105081379Y-120950499D01*
X105081383Y-120950500D01*
X105081384Y-120950500D01*
X105268617Y-120950500D01*
X105268618Y-120950499D01*
X105452251Y-120913973D01*
X105625231Y-120842322D01*
X105780908Y-120738302D01*
X105913302Y-120605908D01*
X106017322Y-120450231D01*
X106088973Y-120277251D01*
X106125500Y-120093616D01*
X106125500Y-119906384D01*
X106088973Y-119722749D01*
X106088971Y-119722744D01*
X106071273Y-119680016D01*
X106054984Y-119640691D01*
X126824500Y-119640691D01*
X126824500Y-119759309D01*
X126855201Y-119873886D01*
X126914511Y-119976613D01*
X126998387Y-120060489D01*
X127101114Y-120119799D01*
X127215691Y-120150500D01*
X127215694Y-120150500D01*
X127334306Y-120150500D01*
X127334309Y-120150500D01*
X127448886Y-120119799D01*
X127551613Y-120060489D01*
X127635489Y-119976613D01*
X127694799Y-119873886D01*
X127725500Y-119759309D01*
X127725500Y-119640691D01*
X127694799Y-119526114D01*
X127635489Y-119423387D01*
X127551613Y-119339511D01*
X127448886Y-119280201D01*
X127334309Y-119249500D01*
X127215691Y-119249500D01*
X127101114Y-119280201D01*
X127101112Y-119280201D01*
X127101112Y-119280202D01*
X126998387Y-119339511D01*
X126998384Y-119339513D01*
X126914513Y-119423384D01*
X126914511Y-119423387D01*
X126855201Y-119526114D01*
X126824500Y-119640691D01*
X106054984Y-119640691D01*
X106017323Y-119549772D01*
X106017323Y-119549771D01*
X106017322Y-119549769D01*
X106017320Y-119549766D01*
X106017318Y-119549762D01*
X105913302Y-119394092D01*
X105913299Y-119394088D01*
X105780911Y-119261700D01*
X105780907Y-119261697D01*
X105625237Y-119157681D01*
X105625228Y-119157676D01*
X105452251Y-119086027D01*
X105452243Y-119086025D01*
X105268620Y-119049500D01*
X105268616Y-119049500D01*
X105081384Y-119049500D01*
X105081379Y-119049500D01*
X104897756Y-119086025D01*
X104897748Y-119086027D01*
X104724771Y-119157676D01*
X104724762Y-119157681D01*
X104569092Y-119261697D01*
X104569088Y-119261700D01*
X104436700Y-119394088D01*
X104436697Y-119394092D01*
X104332681Y-119549762D01*
X104332676Y-119549771D01*
X104261027Y-119722748D01*
X104261025Y-119722756D01*
X104224500Y-119906379D01*
X99150500Y-119906379D01*
X99150500Y-119781384D01*
X99113973Y-119597749D01*
X99042322Y-119424769D01*
X99042321Y-119424768D01*
X99042318Y-119424762D01*
X98938302Y-119269092D01*
X98938299Y-119269088D01*
X98805911Y-119136700D01*
X98805907Y-119136697D01*
X98650237Y-119032681D01*
X98650228Y-119032676D01*
X98477251Y-118961027D01*
X98477243Y-118961025D01*
X98293620Y-118924500D01*
X98293616Y-118924500D01*
X98106384Y-118924500D01*
X98106379Y-118924500D01*
X97922756Y-118961025D01*
X97922748Y-118961027D01*
X97749771Y-119032676D01*
X97749762Y-119032681D01*
X97594092Y-119136697D01*
X97594088Y-119136700D01*
X97461700Y-119269088D01*
X97461697Y-119269092D01*
X97357681Y-119424762D01*
X97357676Y-119424771D01*
X97286027Y-119597748D01*
X97286025Y-119597756D01*
X97249500Y-119781379D01*
X96407019Y-119781379D01*
X96407987Y-117106379D01*
X100824500Y-117106379D01*
X100824500Y-117293620D01*
X100861025Y-117477243D01*
X100861027Y-117477251D01*
X100932676Y-117650228D01*
X100932681Y-117650237D01*
X101036697Y-117805907D01*
X101036700Y-117805911D01*
X101169088Y-117938299D01*
X101169092Y-117938302D01*
X101324762Y-118042318D01*
X101324768Y-118042321D01*
X101324769Y-118042322D01*
X101497749Y-118113973D01*
X101664216Y-118147085D01*
X101681379Y-118150499D01*
X101681383Y-118150500D01*
X101681384Y-118150500D01*
X101868617Y-118150500D01*
X101868618Y-118150499D01*
X102052251Y-118113973D01*
X102225231Y-118042322D01*
X102380908Y-117938302D01*
X102513302Y-117805908D01*
X102617322Y-117650231D01*
X102688973Y-117477251D01*
X102725500Y-117293616D01*
X102725500Y-117106384D01*
X102702878Y-116992653D01*
X102700179Y-116979085D01*
X102700178Y-116979083D01*
X102688973Y-116922749D01*
X102621129Y-116758960D01*
X102617323Y-116749771D01*
X102617318Y-116749762D01*
X102513302Y-116594092D01*
X102513299Y-116594088D01*
X102380911Y-116461700D01*
X102380907Y-116461697D01*
X102225237Y-116357681D01*
X102225228Y-116357676D01*
X102052251Y-116286027D01*
X102052243Y-116286025D01*
X101868620Y-116249500D01*
X101868616Y-116249500D01*
X101681384Y-116249500D01*
X101681379Y-116249500D01*
X101497756Y-116286025D01*
X101497748Y-116286027D01*
X101324771Y-116357676D01*
X101324762Y-116357681D01*
X101169092Y-116461697D01*
X101169088Y-116461700D01*
X101036700Y-116594088D01*
X101036697Y-116594092D01*
X100932681Y-116749762D01*
X100932676Y-116749771D01*
X100861027Y-116922748D01*
X100861025Y-116922756D01*
X100824500Y-117106379D01*
X96407987Y-117106379D01*
X96408546Y-115562110D01*
X106785000Y-115562110D01*
X106785000Y-115817889D01*
X106825013Y-116070523D01*
X106904051Y-116313781D01*
X106904052Y-116313784D01*
X107020175Y-116541686D01*
X107097850Y-116648595D01*
X107097850Y-116648596D01*
X107655884Y-116090561D01*
X107656740Y-116092626D01*
X107749762Y-116231844D01*
X107868156Y-116350238D01*
X108007374Y-116443260D01*
X108009437Y-116444114D01*
X107451402Y-117002148D01*
X107558313Y-117079824D01*
X107786215Y-117195947D01*
X107786218Y-117195948D01*
X108029476Y-117274986D01*
X108282111Y-117315000D01*
X108537889Y-117315000D01*
X108790523Y-117274986D01*
X109033781Y-117195948D01*
X109033784Y-117195947D01*
X109261685Y-117079825D01*
X109368595Y-117002148D01*
X109368596Y-117002148D01*
X108810562Y-116444114D01*
X108812626Y-116443260D01*
X108951844Y-116350238D01*
X109070238Y-116231844D01*
X109163260Y-116092626D01*
X109164114Y-116090562D01*
X109722148Y-116648596D01*
X109722148Y-116648595D01*
X109799825Y-116541685D01*
X109915947Y-116313784D01*
X109915948Y-116313781D01*
X109994986Y-116070523D01*
X110035000Y-115817889D01*
X110035000Y-115562110D01*
X111865000Y-115562110D01*
X111865000Y-115817889D01*
X111905013Y-116070523D01*
X111984051Y-116313781D01*
X111984052Y-116313784D01*
X112100175Y-116541686D01*
X112177850Y-116648595D01*
X112177850Y-116648596D01*
X112735884Y-116090561D01*
X112736740Y-116092626D01*
X112829762Y-116231844D01*
X112948156Y-116350238D01*
X113087374Y-116443260D01*
X113089437Y-116444114D01*
X112531402Y-117002148D01*
X112638313Y-117079824D01*
X112866215Y-117195947D01*
X112866218Y-117195948D01*
X113109476Y-117274986D01*
X113362111Y-117315000D01*
X113617889Y-117315000D01*
X113870523Y-117274986D01*
X114113781Y-117195948D01*
X114113784Y-117195947D01*
X114341685Y-117079825D01*
X114448595Y-117002148D01*
X114448596Y-117002148D01*
X114198973Y-116752525D01*
X115199500Y-116752525D01*
X115199500Y-116897475D01*
X115235781Y-117032876D01*
X115237017Y-117037488D01*
X115309488Y-117163011D01*
X115309490Y-117163013D01*
X115309491Y-117163015D01*
X115411985Y-117265509D01*
X115411986Y-117265510D01*
X115411988Y-117265511D01*
X115537511Y-117337982D01*
X115537512Y-117337982D01*
X115537515Y-117337984D01*
X115677525Y-117375500D01*
X115677528Y-117375500D01*
X115822472Y-117375500D01*
X115822475Y-117375500D01*
X115962485Y-117337984D01*
X116088015Y-117265509D01*
X116190509Y-117163015D01*
X116262984Y-117037485D01*
X116264220Y-117032874D01*
X123956794Y-117032874D01*
X123956794Y-117131744D01*
X123982384Y-117227247D01*
X124029216Y-117308363D01*
X124031820Y-117312872D01*
X124107479Y-117388531D01*
X124105461Y-117390548D01*
X124138524Y-117435799D01*
X124142701Y-117505544D01*
X124109530Y-117565464D01*
X124074526Y-117600468D01*
X124025091Y-117686091D01*
X124025091Y-117686092D01*
X124025090Y-117686094D01*
X123999500Y-117781597D01*
X123999500Y-117880467D01*
X124025090Y-117975970D01*
X124074525Y-118061594D01*
X124144438Y-118131507D01*
X124230062Y-118180942D01*
X124325565Y-118206532D01*
X124325567Y-118206532D01*
X124424432Y-118206532D01*
X124424435Y-118206532D01*
X124484025Y-118190565D01*
X126523500Y-118190565D01*
X126523500Y-118289435D01*
X126549090Y-118384938D01*
X126549091Y-118384939D01*
X126549091Y-118384940D01*
X126550868Y-118388017D01*
X126598525Y-118470562D01*
X126668438Y-118540475D01*
X126754062Y-118589910D01*
X126849565Y-118615500D01*
X126849567Y-118615500D01*
X126948432Y-118615500D01*
X126948435Y-118615500D01*
X127043938Y-118589910D01*
X127129562Y-118540475D01*
X127199475Y-118470562D01*
X127248910Y-118384938D01*
X127274500Y-118289435D01*
X127274500Y-118234766D01*
X127294185Y-118167727D01*
X127310819Y-118147085D01*
X127673512Y-117784393D01*
X128430678Y-117027227D01*
X128821087Y-116636819D01*
X128882410Y-116603334D01*
X128908768Y-116600500D01*
X130405952Y-116600500D01*
X130472991Y-116620185D01*
X130518746Y-116672989D01*
X130528094Y-116729088D01*
X130529500Y-116729088D01*
X130529500Y-116735180D01*
X130529500Y-118764820D01*
X130529500Y-118764822D01*
X130529499Y-118764822D01*
X130538231Y-118808717D01*
X130538234Y-118808724D01*
X130571495Y-118858503D01*
X130571496Y-118858504D01*
X130621278Y-118891767D01*
X130621281Y-118891767D01*
X130621282Y-118891768D01*
X130665177Y-118900500D01*
X130665180Y-118900500D01*
X132694822Y-118900500D01*
X132738717Y-118891768D01*
X132738717Y-118891767D01*
X132738722Y-118891767D01*
X132788504Y-118858504D01*
X132821767Y-118808722D01*
X132830500Y-118764820D01*
X132830500Y-117907131D01*
X132850185Y-117840092D01*
X132902989Y-117794337D01*
X132972147Y-117784393D01*
X133035703Y-117813418D01*
X133073477Y-117872196D01*
X133076973Y-117887733D01*
X133097829Y-118019410D01*
X133153787Y-118191636D01*
X133153788Y-118191639D01*
X133236006Y-118352997D01*
X133342441Y-118499494D01*
X133342445Y-118499499D01*
X133470500Y-118627554D01*
X133470505Y-118627558D01*
X133598287Y-118720396D01*
X133617006Y-118733996D01*
X133722484Y-118787740D01*
X133778360Y-118816211D01*
X133778363Y-118816212D01*
X133864476Y-118844191D01*
X133950591Y-118872171D01*
X134033429Y-118885291D01*
X134129449Y-118900500D01*
X134129454Y-118900500D01*
X134310551Y-118900500D01*
X134397259Y-118886765D01*
X134489409Y-118872171D01*
X134661639Y-118816211D01*
X134822994Y-118733996D01*
X134969501Y-118627553D01*
X135097553Y-118499501D01*
X135203996Y-118352994D01*
X135286211Y-118191639D01*
X135342171Y-118019409D01*
X135362653Y-117890090D01*
X135370500Y-117840551D01*
X135370500Y-117659448D01*
X135350085Y-117530557D01*
X135342171Y-117480591D01*
X135310392Y-117382784D01*
X135286212Y-117308363D01*
X135286211Y-117308360D01*
X135244882Y-117227249D01*
X135203996Y-117147006D01*
X135174479Y-117106379D01*
X135097558Y-117000505D01*
X135097554Y-117000500D01*
X134969499Y-116872445D01*
X134969494Y-116872441D01*
X134822997Y-116766006D01*
X134822996Y-116766005D01*
X134822994Y-116766004D01*
X134739105Y-116723260D01*
X134661639Y-116683788D01*
X134661636Y-116683787D01*
X134489410Y-116627829D01*
X134310551Y-116599500D01*
X134310546Y-116599500D01*
X134129454Y-116599500D01*
X134129449Y-116599500D01*
X133950589Y-116627829D01*
X133778363Y-116683787D01*
X133778350Y-116683793D01*
X133656141Y-116746063D01*
X133587472Y-116758960D01*
X133522732Y-116732684D01*
X133512165Y-116723260D01*
X133053610Y-116264705D01*
X133036170Y-116247264D01*
X132972736Y-116183830D01*
X132972735Y-116183829D01*
X132948457Y-116173772D01*
X132948457Y-116173771D01*
X132889858Y-116149500D01*
X132889856Y-116149499D01*
X132889855Y-116149499D01*
X132800145Y-116149499D01*
X132785711Y-116149499D01*
X132785703Y-116149500D01*
X128808854Y-116149500D01*
X128719145Y-116149500D01*
X128719143Y-116149500D01*
X128719141Y-116149501D01*
X128636266Y-116183827D01*
X128636264Y-116183829D01*
X126991913Y-117828181D01*
X126930590Y-117861666D01*
X126904232Y-117864500D01*
X126849565Y-117864500D01*
X126754062Y-117890090D01*
X126754060Y-117890091D01*
X126754059Y-117890091D01*
X126668436Y-117939526D01*
X126598526Y-118009436D01*
X126549091Y-118095059D01*
X126549091Y-118095060D01*
X126549090Y-118095062D01*
X126523500Y-118190565D01*
X124484025Y-118190565D01*
X124519938Y-118180942D01*
X124605562Y-118131507D01*
X124623938Y-118113130D01*
X124642314Y-118094756D01*
X124644219Y-118092851D01*
X124705542Y-118059366D01*
X124731900Y-118056532D01*
X124859671Y-118056532D01*
X124859679Y-118056533D01*
X124874113Y-118056533D01*
X124963821Y-118056533D01*
X124963823Y-118056533D01*
X125022428Y-118032257D01*
X125046704Y-118022202D01*
X125110138Y-117958768D01*
X125110138Y-117958766D01*
X126290905Y-116777999D01*
X126352226Y-116744516D01*
X126421918Y-116749500D01*
X126466265Y-116778001D01*
X126469438Y-116781174D01*
X126555062Y-116830609D01*
X126650565Y-116856199D01*
X126650567Y-116856199D01*
X126749432Y-116856199D01*
X126749435Y-116856199D01*
X126844938Y-116830609D01*
X126930562Y-116781174D01*
X127000475Y-116711261D01*
X127049910Y-116625637D01*
X127075500Y-116530134D01*
X127075500Y-116431264D01*
X127049910Y-116335761D01*
X127000475Y-116250137D01*
X126930562Y-116180224D01*
X126844938Y-116130789D01*
X126749435Y-116105199D01*
X126650565Y-116105199D01*
X126555062Y-116130789D01*
X126555060Y-116130790D01*
X126555059Y-116130790D01*
X126469436Y-116180225D01*
X126430780Y-116218881D01*
X126369457Y-116252366D01*
X126343100Y-116255199D01*
X126224446Y-116255199D01*
X126224444Y-116255199D01*
X126224442Y-116255200D01*
X126141567Y-116289526D01*
X126141565Y-116289528D01*
X126095336Y-116335758D01*
X126078131Y-116352963D01*
X126078130Y-116352964D01*
X125452010Y-116979085D01*
X124861882Y-117569213D01*
X124834954Y-117583916D01*
X124809136Y-117600509D01*
X124802935Y-117601400D01*
X124800559Y-117602698D01*
X124774201Y-117605532D01*
X124731900Y-117605532D01*
X124664861Y-117585847D01*
X124644220Y-117569214D01*
X124599816Y-117524811D01*
X124601832Y-117522794D01*
X124568766Y-117477532D01*
X124564594Y-117407787D01*
X124597763Y-117347876D01*
X124632769Y-117312871D01*
X124682204Y-117227247D01*
X124707794Y-117131744D01*
X124707794Y-117077075D01*
X124727479Y-117010036D01*
X124744113Y-116989394D01*
X126321689Y-115411819D01*
X126383012Y-115378334D01*
X126409370Y-115375500D01*
X127568101Y-115375500D01*
X127635140Y-115395185D01*
X127655782Y-115411819D01*
X127703170Y-115459207D01*
X127788794Y-115508642D01*
X127884297Y-115534232D01*
X127884299Y-115534232D01*
X127983164Y-115534232D01*
X127983167Y-115534232D01*
X128078670Y-115508642D01*
X128164294Y-115459207D01*
X128234207Y-115389294D01*
X128283642Y-115303670D01*
X128309232Y-115208167D01*
X128309232Y-115109297D01*
X128283642Y-115013794D01*
X128234207Y-114928170D01*
X128164294Y-114858257D01*
X128078670Y-114808822D01*
X127983167Y-114783232D01*
X127884297Y-114783232D01*
X127788794Y-114808822D01*
X127788792Y-114808823D01*
X127788791Y-114808823D01*
X127703168Y-114858258D01*
X127673246Y-114888181D01*
X127611923Y-114921666D01*
X127585565Y-114924500D01*
X126323900Y-114924500D01*
X126323892Y-114924499D01*
X126309458Y-114924499D01*
X126219749Y-114924499D01*
X126219747Y-114924499D01*
X126219745Y-114924500D01*
X126171197Y-114944609D01*
X126136868Y-114958828D01*
X126105151Y-114990546D01*
X126073433Y-115022264D01*
X124425207Y-116670490D01*
X124363884Y-116703975D01*
X124337526Y-116706809D01*
X124282859Y-116706809D01*
X124187356Y-116732399D01*
X124187354Y-116732400D01*
X124187353Y-116732400D01*
X124101730Y-116781835D01*
X124031820Y-116851745D01*
X123982385Y-116937368D01*
X123982385Y-116937369D01*
X123982384Y-116937371D01*
X123956794Y-117032874D01*
X116264220Y-117032874D01*
X116300500Y-116897475D01*
X116300500Y-116752525D01*
X116262984Y-116612515D01*
X116257683Y-116603334D01*
X116190511Y-116486988D01*
X116190506Y-116486982D01*
X116088017Y-116384493D01*
X116088011Y-116384488D01*
X115962488Y-116312017D01*
X115962489Y-116312017D01*
X115951006Y-116308940D01*
X115822475Y-116274500D01*
X115677525Y-116274500D01*
X115548993Y-116308940D01*
X115537511Y-116312017D01*
X115411988Y-116384488D01*
X115411982Y-116384493D01*
X115309493Y-116486982D01*
X115309488Y-116486988D01*
X115237017Y-116612511D01*
X115237016Y-116612515D01*
X115199500Y-116752525D01*
X114198973Y-116752525D01*
X113890562Y-116444114D01*
X113892626Y-116443260D01*
X114031844Y-116350238D01*
X114150238Y-116231844D01*
X114243260Y-116092626D01*
X114244114Y-116090562D01*
X114802148Y-116648596D01*
X114802148Y-116648595D01*
X114879825Y-116541685D01*
X114995947Y-116313784D01*
X114995948Y-116313781D01*
X115074986Y-116070523D01*
X115115000Y-115817889D01*
X115115000Y-115562112D01*
X115113392Y-115551958D01*
X115113392Y-115551956D01*
X115111608Y-115540691D01*
X123824500Y-115540691D01*
X123824500Y-115659309D01*
X123855201Y-115773886D01*
X123914511Y-115876613D01*
X123998387Y-115960489D01*
X124101114Y-116019799D01*
X124215691Y-116050500D01*
X124215694Y-116050500D01*
X124334306Y-116050500D01*
X124334309Y-116050500D01*
X124448886Y-116019799D01*
X124551613Y-115960489D01*
X124635489Y-115876613D01*
X124694799Y-115773886D01*
X124725500Y-115659309D01*
X124725500Y-115540691D01*
X124694799Y-115426114D01*
X124635489Y-115323387D01*
X124551613Y-115239511D01*
X124448886Y-115180201D01*
X124334309Y-115149500D01*
X124215691Y-115149500D01*
X124101114Y-115180201D01*
X124101112Y-115180201D01*
X124101112Y-115180202D01*
X123998387Y-115239511D01*
X123998384Y-115239513D01*
X123914513Y-115323384D01*
X123914511Y-115323387D01*
X123855201Y-115426114D01*
X123824500Y-115540691D01*
X115111608Y-115540691D01*
X115074986Y-115309476D01*
X114995948Y-115066218D01*
X114995947Y-115066215D01*
X114879824Y-114838313D01*
X114802148Y-114731403D01*
X114802148Y-114731402D01*
X114244114Y-115289436D01*
X114243260Y-115287374D01*
X114150238Y-115148156D01*
X114031844Y-115029762D01*
X113892626Y-114936740D01*
X113890560Y-114935884D01*
X114373921Y-114452525D01*
X117199500Y-114452525D01*
X117199500Y-114597475D01*
X117237016Y-114737485D01*
X117237017Y-114737488D01*
X117309488Y-114863011D01*
X117309490Y-114863013D01*
X117309491Y-114863015D01*
X117411985Y-114965509D01*
X117411986Y-114965510D01*
X117411988Y-114965511D01*
X117537511Y-115037982D01*
X117537512Y-115037982D01*
X117537515Y-115037984D01*
X117677525Y-115075500D01*
X117677528Y-115075500D01*
X117822472Y-115075500D01*
X117822475Y-115075500D01*
X117962485Y-115037984D01*
X118088015Y-114965509D01*
X118190509Y-114863015D01*
X118262984Y-114737485D01*
X118300500Y-114597475D01*
X118300500Y-114452525D01*
X118262984Y-114312515D01*
X118255859Y-114300175D01*
X118190511Y-114186988D01*
X118190506Y-114186982D01*
X118088017Y-114084493D01*
X118088011Y-114084488D01*
X117962488Y-114012017D01*
X117962489Y-114012017D01*
X117951006Y-114008940D01*
X117822475Y-113974500D01*
X117677525Y-113974500D01*
X117548993Y-114008940D01*
X117537511Y-114012017D01*
X117411988Y-114084488D01*
X117411982Y-114084493D01*
X117309493Y-114186982D01*
X117309488Y-114186988D01*
X117237017Y-114312511D01*
X117237016Y-114312515D01*
X117199500Y-114452525D01*
X114373921Y-114452525D01*
X114448596Y-114377850D01*
X114341686Y-114300175D01*
X114113784Y-114184052D01*
X114113781Y-114184051D01*
X113870523Y-114105013D01*
X113617889Y-114065000D01*
X113362111Y-114065000D01*
X113109476Y-114105013D01*
X112866218Y-114184051D01*
X112866215Y-114184052D01*
X112638310Y-114300177D01*
X112531403Y-114377849D01*
X112531402Y-114377850D01*
X113089437Y-114935885D01*
X113087374Y-114936740D01*
X112948156Y-115029762D01*
X112829762Y-115148156D01*
X112736740Y-115287374D01*
X112735885Y-115289437D01*
X112177850Y-114731402D01*
X112177849Y-114731403D01*
X112100177Y-114838310D01*
X111984052Y-115066215D01*
X111984051Y-115066218D01*
X111905013Y-115309476D01*
X111865000Y-115562110D01*
X110035000Y-115562110D01*
X109994986Y-115309476D01*
X109915948Y-115066218D01*
X109915947Y-115066215D01*
X109799824Y-114838313D01*
X109722148Y-114731403D01*
X109722148Y-114731402D01*
X109164114Y-115289436D01*
X109163260Y-115287374D01*
X109070238Y-115148156D01*
X108951844Y-115029762D01*
X108812626Y-114936740D01*
X108810560Y-114935884D01*
X109368596Y-114377850D01*
X109261686Y-114300175D01*
X109033784Y-114184052D01*
X109033781Y-114184051D01*
X108790523Y-114105013D01*
X108537889Y-114065000D01*
X108282111Y-114065000D01*
X108029476Y-114105013D01*
X107786218Y-114184051D01*
X107786215Y-114184052D01*
X107558310Y-114300177D01*
X107451403Y-114377849D01*
X107451402Y-114377850D01*
X108009437Y-114935885D01*
X108007374Y-114936740D01*
X107868156Y-115029762D01*
X107749762Y-115148156D01*
X107656740Y-115287374D01*
X107655885Y-115289437D01*
X107097850Y-114731402D01*
X107097849Y-114731403D01*
X107020177Y-114838310D01*
X106904052Y-115066215D01*
X106904051Y-115066218D01*
X106825013Y-115309476D01*
X106785000Y-115562110D01*
X96408546Y-115562110D01*
X96409452Y-113057486D01*
X109774500Y-113057486D01*
X109774500Y-113242514D01*
X109781611Y-113287408D01*
X109803445Y-113425265D01*
X109860619Y-113601232D01*
X109860620Y-113601235D01*
X109930297Y-113737982D01*
X109944622Y-113766096D01*
X110053379Y-113915787D01*
X110184213Y-114046621D01*
X110333904Y-114155378D01*
X110382345Y-114180060D01*
X110498764Y-114239379D01*
X110498767Y-114239380D01*
X110515812Y-114244918D01*
X110674736Y-114296555D01*
X110857486Y-114325500D01*
X110857487Y-114325500D01*
X111042513Y-114325500D01*
X111042514Y-114325500D01*
X111124523Y-114312511D01*
X111186865Y-114302637D01*
X111192498Y-114301744D01*
X111225264Y-114296555D01*
X111401235Y-114239379D01*
X111566096Y-114155378D01*
X111715787Y-114046621D01*
X111846621Y-113915787D01*
X111955378Y-113766096D01*
X112026982Y-113625565D01*
X119799500Y-113625565D01*
X119799500Y-113724435D01*
X119825090Y-113819938D01*
X119874525Y-113905562D01*
X119944438Y-113975475D01*
X120030062Y-114024910D01*
X120125565Y-114050500D01*
X120125567Y-114050500D01*
X120148206Y-114050500D01*
X120215245Y-114070185D01*
X120261000Y-114122989D01*
X120270944Y-114192147D01*
X120267980Y-114206593D01*
X120249500Y-114275565D01*
X120249500Y-114374435D01*
X120275090Y-114469938D01*
X120324525Y-114555562D01*
X120394438Y-114625475D01*
X120480062Y-114674910D01*
X120575565Y-114700500D01*
X120575567Y-114700500D01*
X120674432Y-114700500D01*
X120674435Y-114700500D01*
X120769938Y-114674910D01*
X120855562Y-114625475D01*
X120925475Y-114555562D01*
X120974910Y-114469938D01*
X121000500Y-114374435D01*
X121000500Y-114275565D01*
X120974910Y-114180062D01*
X120925475Y-114094438D01*
X120855562Y-114024525D01*
X120769938Y-113975090D01*
X120674435Y-113949500D01*
X120651794Y-113949500D01*
X120584755Y-113929815D01*
X120539000Y-113877011D01*
X120529056Y-113807853D01*
X120532019Y-113793407D01*
X120536817Y-113775500D01*
X120550500Y-113724435D01*
X120550500Y-113625565D01*
X120524910Y-113530062D01*
X120475475Y-113444438D01*
X120456301Y-113425264D01*
X120436818Y-113405780D01*
X120422112Y-113378849D01*
X120405523Y-113353035D01*
X120404631Y-113346835D01*
X120403333Y-113344457D01*
X120400500Y-113318100D01*
X120400500Y-113206956D01*
X120420185Y-113139917D01*
X120436819Y-113119275D01*
X121587819Y-111968275D01*
X121649142Y-111934790D01*
X121718834Y-111939774D01*
X121774767Y-111981646D01*
X121799184Y-112047110D01*
X121799500Y-112055956D01*
X121799500Y-112074435D01*
X121825090Y-112169938D01*
X121874525Y-112255562D01*
X121944438Y-112325475D01*
X122030062Y-112374910D01*
X122125565Y-112400500D01*
X122125567Y-112400500D01*
X122180233Y-112400500D01*
X122247272Y-112420185D01*
X122267914Y-112436819D01*
X124038181Y-114207086D01*
X124071666Y-114268409D01*
X124074500Y-114294767D01*
X124074500Y-114349435D01*
X124100090Y-114444938D01*
X124100091Y-114444939D01*
X124100091Y-114444940D01*
X124108385Y-114459306D01*
X124149525Y-114530562D01*
X124219438Y-114600475D01*
X124305062Y-114649910D01*
X124400565Y-114675500D01*
X124400567Y-114675500D01*
X124499432Y-114675500D01*
X124499435Y-114675500D01*
X124594938Y-114649910D01*
X124680562Y-114600475D01*
X124750475Y-114530562D01*
X124799910Y-114444938D01*
X124825500Y-114349435D01*
X124825500Y-114250565D01*
X124799910Y-114155062D01*
X124750475Y-114069438D01*
X124680562Y-113999525D01*
X124594938Y-113950090D01*
X124499435Y-113924500D01*
X124444767Y-113924500D01*
X124377728Y-113904815D01*
X124357086Y-113888181D01*
X122586819Y-112117914D01*
X122553334Y-112056591D01*
X122550500Y-112030233D01*
X122550500Y-111975567D01*
X122550500Y-111975565D01*
X122524910Y-111880062D01*
X122475475Y-111794438D01*
X122405562Y-111724525D01*
X122319938Y-111675090D01*
X122224435Y-111649500D01*
X122205956Y-111649500D01*
X122184710Y-111643261D01*
X122162622Y-111641682D01*
X122151838Y-111633609D01*
X122138917Y-111629815D01*
X122124417Y-111613081D01*
X122106689Y-111599810D01*
X122101981Y-111587189D01*
X122093162Y-111577011D01*
X122090010Y-111555093D01*
X122082272Y-111534346D01*
X122085134Y-111521185D01*
X122083218Y-111507853D01*
X122086546Y-111500565D01*
X122799500Y-111500565D01*
X122799500Y-111599435D01*
X122825090Y-111694938D01*
X122825091Y-111694939D01*
X122825091Y-111694940D01*
X122828656Y-111701114D01*
X122874525Y-111780562D01*
X122944438Y-111850475D01*
X123030062Y-111899910D01*
X123125565Y-111925500D01*
X123125567Y-111925500D01*
X123180233Y-111925500D01*
X123247272Y-111945185D01*
X123267914Y-111961819D01*
X124613181Y-113307086D01*
X124646666Y-113368409D01*
X124649500Y-113394767D01*
X124649500Y-113449435D01*
X124675090Y-113544938D01*
X124724525Y-113630562D01*
X124794438Y-113700475D01*
X124880062Y-113749910D01*
X124975565Y-113775500D01*
X124975567Y-113775500D01*
X125074432Y-113775500D01*
X125074435Y-113775500D01*
X125169938Y-113749910D01*
X125255562Y-113700475D01*
X125325475Y-113630562D01*
X125374910Y-113544938D01*
X125400500Y-113449435D01*
X125400500Y-113350565D01*
X125374910Y-113255062D01*
X125325475Y-113169438D01*
X125255562Y-113099525D01*
X125169938Y-113050090D01*
X125074435Y-113024500D01*
X125019767Y-113024500D01*
X124990326Y-113015855D01*
X124960340Y-113009332D01*
X124955324Y-113005577D01*
X124952728Y-113004815D01*
X124932086Y-112988181D01*
X124831970Y-112888065D01*
X127187000Y-112888065D01*
X127187000Y-112986935D01*
X127212590Y-113082438D01*
X127262025Y-113168062D01*
X127331938Y-113237975D01*
X127417562Y-113287410D01*
X127513065Y-113313000D01*
X127513067Y-113313000D01*
X127611932Y-113313000D01*
X127611935Y-113313000D01*
X127707438Y-113287410D01*
X127793062Y-113237975D01*
X127862975Y-113168062D01*
X127871945Y-113152525D01*
X138774500Y-113152525D01*
X138774500Y-113297475D01*
X138808742Y-113425265D01*
X138812017Y-113437488D01*
X138884488Y-113563011D01*
X138884490Y-113563013D01*
X138884491Y-113563015D01*
X138986985Y-113665509D01*
X138986986Y-113665510D01*
X138986988Y-113665511D01*
X139112511Y-113737982D01*
X139112512Y-113737982D01*
X139112515Y-113737984D01*
X139252525Y-113775500D01*
X139252528Y-113775500D01*
X139397472Y-113775500D01*
X139397475Y-113775500D01*
X139537485Y-113737984D01*
X139663015Y-113665509D01*
X139765509Y-113563015D01*
X139837984Y-113437485D01*
X139875500Y-113297475D01*
X139875500Y-113152525D01*
X139837984Y-113012515D01*
X139836146Y-113009332D01*
X139765511Y-112886988D01*
X139765506Y-112886982D01*
X139663017Y-112784493D01*
X139663011Y-112784488D01*
X139537488Y-112712017D01*
X139537489Y-112712017D01*
X139518526Y-112706936D01*
X139397475Y-112674500D01*
X139252525Y-112674500D01*
X139131474Y-112706936D01*
X139112511Y-112712017D01*
X138986988Y-112784488D01*
X138986982Y-112784493D01*
X138884493Y-112886982D01*
X138884488Y-112886988D01*
X138812017Y-113012511D01*
X138812016Y-113012515D01*
X138774500Y-113152525D01*
X127871945Y-113152525D01*
X127912410Y-113082438D01*
X127938000Y-112986935D01*
X127938000Y-112920057D01*
X127940381Y-112908083D01*
X127951143Y-112887505D01*
X127957685Y-112865227D01*
X127972244Y-112847159D01*
X127972762Y-112846170D01*
X127973279Y-112845875D01*
X127974319Y-112844585D01*
X128782086Y-112036819D01*
X128843409Y-112003334D01*
X128869767Y-112000500D01*
X128924432Y-112000500D01*
X128924435Y-112000500D01*
X129019938Y-111974910D01*
X129105562Y-111925475D01*
X129175475Y-111855562D01*
X129224910Y-111769938D01*
X129250500Y-111674435D01*
X129250500Y-111575565D01*
X139924500Y-111575565D01*
X139924500Y-111674435D01*
X139950090Y-111769938D01*
X139999525Y-111855562D01*
X140069438Y-111925475D01*
X140155062Y-111974910D01*
X140250565Y-112000500D01*
X140250567Y-112000500D01*
X140305232Y-112000500D01*
X140372271Y-112020185D01*
X140392913Y-112036819D01*
X140422266Y-112066172D01*
X140486365Y-112092721D01*
X140505145Y-112100500D01*
X144139141Y-112100500D01*
X144206180Y-112120185D01*
X144237517Y-112149014D01*
X144239510Y-112151611D01*
X144239511Y-112151613D01*
X144323387Y-112235489D01*
X144426114Y-112294799D01*
X144540691Y-112325500D01*
X144540694Y-112325500D01*
X144659306Y-112325500D01*
X144659309Y-112325500D01*
X144773886Y-112294799D01*
X144876613Y-112235489D01*
X144960489Y-112151613D01*
X145019799Y-112048886D01*
X145050500Y-111934309D01*
X145050500Y-111815691D01*
X145019799Y-111701114D01*
X144960489Y-111598387D01*
X144876613Y-111514511D01*
X144773886Y-111455201D01*
X144659309Y-111424500D01*
X144540691Y-111424500D01*
X144426114Y-111455201D01*
X144426112Y-111455201D01*
X144426112Y-111455202D01*
X144323387Y-111514511D01*
X144323384Y-111514513D01*
X144239512Y-111598385D01*
X144237517Y-111600986D01*
X144235274Y-111602623D01*
X144233764Y-111604134D01*
X144233528Y-111603898D01*
X144181089Y-111642189D01*
X144139141Y-111649500D01*
X140790459Y-111649500D01*
X140723420Y-111629815D01*
X140677665Y-111577011D01*
X140670686Y-111557601D01*
X140649910Y-111480062D01*
X140600475Y-111394438D01*
X140530562Y-111324525D01*
X140444938Y-111275090D01*
X140349435Y-111249500D01*
X140250565Y-111249500D01*
X140155062Y-111275090D01*
X140155060Y-111275091D01*
X140155059Y-111275091D01*
X140069436Y-111324526D01*
X139999526Y-111394436D01*
X139950091Y-111480059D01*
X139950091Y-111480060D01*
X139950090Y-111480062D01*
X139924500Y-111575565D01*
X129250500Y-111575565D01*
X129224910Y-111480062D01*
X129175475Y-111394438D01*
X129105562Y-111324525D01*
X129019938Y-111275090D01*
X128924435Y-111249500D01*
X128825565Y-111249500D01*
X128730062Y-111275090D01*
X128730060Y-111275091D01*
X128730059Y-111275091D01*
X128644436Y-111324526D01*
X128574526Y-111394436D01*
X128525091Y-111480059D01*
X128525091Y-111480060D01*
X128525090Y-111480062D01*
X128499500Y-111575565D01*
X128499500Y-111575567D01*
X128499500Y-111630231D01*
X128479815Y-111697270D01*
X128463181Y-111717912D01*
X127655413Y-112525681D01*
X127594090Y-112559166D01*
X127567732Y-112562000D01*
X127513065Y-112562000D01*
X127417562Y-112587590D01*
X127417560Y-112587591D01*
X127417559Y-112587591D01*
X127331936Y-112637026D01*
X127262026Y-112706936D01*
X127212591Y-112792559D01*
X127212591Y-112792560D01*
X127212590Y-112792562D01*
X127187000Y-112888065D01*
X124831970Y-112888065D01*
X123586819Y-111642914D01*
X123553334Y-111581591D01*
X123550500Y-111555233D01*
X123550500Y-111500567D01*
X123550500Y-111500565D01*
X123524910Y-111405062D01*
X123475475Y-111319438D01*
X123405562Y-111249525D01*
X123319938Y-111200090D01*
X123224435Y-111174500D01*
X123125565Y-111174500D01*
X123030062Y-111200090D01*
X123030060Y-111200091D01*
X123030059Y-111200091D01*
X122944436Y-111249526D01*
X122874526Y-111319436D01*
X122825091Y-111405059D01*
X122825091Y-111405060D01*
X122825090Y-111405062D01*
X122799500Y-111500565D01*
X122086546Y-111500565D01*
X122092417Y-111487709D01*
X122097124Y-111466073D01*
X122110392Y-111448347D01*
X122112243Y-111444297D01*
X122118275Y-111437819D01*
X126005529Y-107550565D01*
X126674500Y-107550565D01*
X126674500Y-107649435D01*
X126700090Y-107744938D01*
X126749525Y-107830562D01*
X126819438Y-107900475D01*
X126905062Y-107949910D01*
X127000565Y-107975500D01*
X127000567Y-107975500D01*
X127099432Y-107975500D01*
X127099435Y-107975500D01*
X127194938Y-107949910D01*
X127280562Y-107900475D01*
X127299891Y-107881145D01*
X127319220Y-107861818D01*
X127380543Y-107828333D01*
X127406900Y-107825500D01*
X145468100Y-107825500D01*
X145535139Y-107845185D01*
X145555780Y-107861818D01*
X145584541Y-107890578D01*
X145594438Y-107900475D01*
X145680062Y-107949910D01*
X145775565Y-107975500D01*
X145775567Y-107975500D01*
X145874432Y-107975500D01*
X145874435Y-107975500D01*
X145969938Y-107949910D01*
X146055562Y-107900475D01*
X146125475Y-107830562D01*
X146174910Y-107744938D01*
X146200500Y-107649435D01*
X146200500Y-107550565D01*
X146174910Y-107455062D01*
X146125475Y-107369438D01*
X146055562Y-107299525D01*
X145969938Y-107250090D01*
X145874435Y-107224500D01*
X145775565Y-107224500D01*
X145680062Y-107250090D01*
X145680060Y-107250091D01*
X145680059Y-107250091D01*
X145594436Y-107299526D01*
X145555780Y-107338182D01*
X145494457Y-107371667D01*
X145468100Y-107374500D01*
X127406900Y-107374500D01*
X127339861Y-107354815D01*
X127319220Y-107338182D01*
X127280563Y-107299526D01*
X127280562Y-107299525D01*
X127194938Y-107250090D01*
X127099435Y-107224500D01*
X127000565Y-107224500D01*
X126905062Y-107250090D01*
X126905060Y-107250091D01*
X126905059Y-107250091D01*
X126819436Y-107299526D01*
X126749526Y-107369436D01*
X126700091Y-107455059D01*
X126700091Y-107455060D01*
X126700090Y-107455062D01*
X126674500Y-107550565D01*
X126005529Y-107550565D01*
X127328569Y-106227525D01*
X141874500Y-106227525D01*
X141874500Y-106372475D01*
X141912016Y-106512485D01*
X141912017Y-106512488D01*
X141984488Y-106638011D01*
X141984490Y-106638013D01*
X141984491Y-106638015D01*
X142086985Y-106740509D01*
X142086986Y-106740510D01*
X142086988Y-106740511D01*
X142212511Y-106812982D01*
X142212512Y-106812982D01*
X142212515Y-106812984D01*
X142352525Y-106850500D01*
X142352528Y-106850500D01*
X142497472Y-106850500D01*
X142497475Y-106850500D01*
X142637485Y-106812984D01*
X142763015Y-106740509D01*
X142865509Y-106638015D01*
X142937984Y-106512485D01*
X142975500Y-106372475D01*
X142975500Y-106227525D01*
X142937984Y-106087515D01*
X142924104Y-106063475D01*
X142865511Y-105961988D01*
X142865506Y-105961982D01*
X142763017Y-105859493D01*
X142763011Y-105859488D01*
X142637488Y-105787017D01*
X142637489Y-105787017D01*
X142626006Y-105783940D01*
X142497475Y-105749500D01*
X142352525Y-105749500D01*
X142223993Y-105783940D01*
X142212511Y-105787017D01*
X142086988Y-105859488D01*
X142086982Y-105859493D01*
X141984493Y-105961982D01*
X141984488Y-105961988D01*
X141912017Y-106087511D01*
X141912016Y-106087515D01*
X141874500Y-106227525D01*
X127328569Y-106227525D01*
X128085434Y-105470660D01*
X152044500Y-105470660D01*
X152044500Y-105629339D01*
X152075453Y-105784948D01*
X152075455Y-105784956D01*
X152136174Y-105931543D01*
X152136179Y-105931553D01*
X152224327Y-106063475D01*
X152224330Y-106063479D01*
X152336520Y-106175669D01*
X152336524Y-106175672D01*
X152468446Y-106263820D01*
X152468450Y-106263822D01*
X152468453Y-106263824D01*
X152615044Y-106324545D01*
X152770660Y-106355499D01*
X152770663Y-106355500D01*
X152770665Y-106355500D01*
X152929337Y-106355500D01*
X152929338Y-106355499D01*
X153084956Y-106324545D01*
X153231547Y-106263824D01*
X153363476Y-106175672D01*
X153475672Y-106063476D01*
X153563824Y-105931547D01*
X153624545Y-105784956D01*
X153655500Y-105629335D01*
X153655500Y-105470665D01*
X153655500Y-105470662D01*
X153655499Y-105470660D01*
X153643318Y-105409421D01*
X153624545Y-105315044D01*
X153563824Y-105168453D01*
X153563822Y-105168450D01*
X153563820Y-105168446D01*
X153475672Y-105036524D01*
X153475669Y-105036520D01*
X153363479Y-104924330D01*
X153363475Y-104924327D01*
X153231553Y-104836179D01*
X153231543Y-104836174D01*
X153084956Y-104775455D01*
X153084948Y-104775453D01*
X152929338Y-104744500D01*
X152929335Y-104744500D01*
X152770665Y-104744500D01*
X152770662Y-104744500D01*
X152615051Y-104775453D01*
X152615043Y-104775455D01*
X152468456Y-104836174D01*
X152468446Y-104836179D01*
X152336524Y-104924327D01*
X152336520Y-104924330D01*
X152224330Y-105036520D01*
X152224327Y-105036524D01*
X152136179Y-105168446D01*
X152136174Y-105168456D01*
X152075455Y-105315043D01*
X152075453Y-105315051D01*
X152044500Y-105470660D01*
X128085434Y-105470660D01*
X128494275Y-105061819D01*
X128555598Y-105028334D01*
X128581956Y-105025500D01*
X131918100Y-105025500D01*
X131985139Y-105045185D01*
X132005780Y-105061818D01*
X132033631Y-105089668D01*
X132044438Y-105100475D01*
X132130062Y-105149910D01*
X132225565Y-105175500D01*
X132225567Y-105175500D01*
X132324432Y-105175500D01*
X132324435Y-105175500D01*
X132419938Y-105149910D01*
X132505562Y-105100475D01*
X132575475Y-105030562D01*
X132624910Y-104944938D01*
X132650500Y-104849435D01*
X132650500Y-104750565D01*
X132647420Y-104739071D01*
X167949499Y-104739071D01*
X167974497Y-104864738D01*
X167974499Y-104864744D01*
X168023533Y-104983124D01*
X168023538Y-104983133D01*
X168094723Y-105089668D01*
X168094726Y-105089672D01*
X168185327Y-105180273D01*
X168185331Y-105180276D01*
X168291866Y-105251461D01*
X168291872Y-105251464D01*
X168291873Y-105251465D01*
X168410256Y-105300501D01*
X168410260Y-105300501D01*
X168410261Y-105300502D01*
X168535928Y-105325500D01*
X168535931Y-105325500D01*
X168664071Y-105325500D01*
X168748615Y-105308682D01*
X168789744Y-105300501D01*
X168908127Y-105251465D01*
X169014669Y-105180276D01*
X169105276Y-105089669D01*
X169176465Y-104983127D01*
X169225501Y-104864744D01*
X169248213Y-104750567D01*
X169250500Y-104739071D01*
X169250500Y-104610928D01*
X169225502Y-104485261D01*
X169225501Y-104485260D01*
X169225501Y-104485256D01*
X169176465Y-104366873D01*
X169176464Y-104366872D01*
X169176461Y-104366866D01*
X169105276Y-104260331D01*
X169105273Y-104260327D01*
X169014672Y-104169726D01*
X169014668Y-104169723D01*
X168908133Y-104098538D01*
X168908124Y-104098533D01*
X168789744Y-104049499D01*
X168789738Y-104049497D01*
X168664071Y-104024500D01*
X168664069Y-104024500D01*
X168535931Y-104024500D01*
X168535929Y-104024500D01*
X168410261Y-104049497D01*
X168410255Y-104049499D01*
X168291875Y-104098533D01*
X168291866Y-104098538D01*
X168185331Y-104169723D01*
X168185327Y-104169726D01*
X168094726Y-104260327D01*
X168094723Y-104260331D01*
X168023538Y-104366866D01*
X168023533Y-104366875D01*
X167974499Y-104485255D01*
X167974497Y-104485261D01*
X167949500Y-104610928D01*
X167949500Y-104610931D01*
X167949500Y-104739069D01*
X167949500Y-104739071D01*
X167949499Y-104739071D01*
X132647420Y-104739071D01*
X132624910Y-104655062D01*
X132575475Y-104569438D01*
X132505562Y-104499525D01*
X132419938Y-104450090D01*
X132324435Y-104424500D01*
X132225565Y-104424500D01*
X132130062Y-104450090D01*
X132130060Y-104450091D01*
X132130059Y-104450091D01*
X132044436Y-104499526D01*
X132005780Y-104538182D01*
X131944457Y-104571667D01*
X131918100Y-104574500D01*
X128496486Y-104574500D01*
X128496478Y-104574499D01*
X128482044Y-104574499D01*
X128392335Y-104574499D01*
X128392333Y-104574499D01*
X128392331Y-104574500D01*
X128343783Y-104594609D01*
X128309454Y-104608828D01*
X128277737Y-104640546D01*
X128246019Y-104672264D01*
X119983830Y-112934452D01*
X119983830Y-112934454D01*
X119949499Y-113017333D01*
X119949499Y-113121477D01*
X119949500Y-113121486D01*
X119949500Y-113318100D01*
X119929815Y-113385139D01*
X119913182Y-113405780D01*
X119874526Y-113444436D01*
X119825091Y-113530059D01*
X119825091Y-113530060D01*
X119825090Y-113530062D01*
X119799500Y-113625565D01*
X112026982Y-113625565D01*
X112039379Y-113601235D01*
X112051798Y-113563015D01*
X112090325Y-113444438D01*
X112096555Y-113425264D01*
X112125500Y-113242514D01*
X112125500Y-113057486D01*
X112096555Y-112874736D01*
X112067967Y-112786750D01*
X112039380Y-112698767D01*
X112039379Y-112698764D01*
X111982732Y-112587590D01*
X111955378Y-112533904D01*
X111846621Y-112384213D01*
X111715787Y-112253379D01*
X111566096Y-112144622D01*
X111513679Y-112117914D01*
X111401235Y-112060620D01*
X111401232Y-112060619D01*
X111225265Y-112003445D01*
X111186858Y-111997362D01*
X111160122Y-111993127D01*
X111042514Y-111974500D01*
X110857486Y-111974500D01*
X110796569Y-111984148D01*
X110674734Y-112003445D01*
X110498767Y-112060619D01*
X110498764Y-112060620D01*
X110333903Y-112144622D01*
X110264584Y-112194986D01*
X110184213Y-112253379D01*
X110184211Y-112253381D01*
X110184210Y-112253381D01*
X110053381Y-112384210D01*
X110053381Y-112384211D01*
X110053379Y-112384213D01*
X110006672Y-112448499D01*
X109944622Y-112533903D01*
X109860620Y-112698764D01*
X109860619Y-112698767D01*
X109803445Y-112874734D01*
X109779485Y-113026013D01*
X109774500Y-113057486D01*
X96409452Y-113057486D01*
X96410384Y-110482110D01*
X106785000Y-110482110D01*
X106785000Y-110737889D01*
X106825013Y-110990523D01*
X106904051Y-111233781D01*
X106904052Y-111233784D01*
X107020175Y-111461686D01*
X107097850Y-111568595D01*
X107097850Y-111568596D01*
X107655884Y-111010561D01*
X107656740Y-111012626D01*
X107749762Y-111151844D01*
X107868156Y-111270238D01*
X108007374Y-111363260D01*
X108009437Y-111364114D01*
X107451402Y-111922148D01*
X107558313Y-111999824D01*
X107786215Y-112115947D01*
X107786218Y-112115948D01*
X108029476Y-112194986D01*
X108282111Y-112235000D01*
X108537889Y-112235000D01*
X108790523Y-112194986D01*
X109033781Y-112115948D01*
X109033784Y-112115947D01*
X109261685Y-111999825D01*
X109368595Y-111922148D01*
X109368596Y-111922148D01*
X108810562Y-111364114D01*
X108812626Y-111363260D01*
X108951844Y-111270238D01*
X109070238Y-111151844D01*
X109163260Y-111012626D01*
X109164114Y-111010562D01*
X109722148Y-111568596D01*
X109722148Y-111568595D01*
X109799825Y-111461685D01*
X109915947Y-111233784D01*
X109915948Y-111233781D01*
X109994986Y-110990523D01*
X110035000Y-110737889D01*
X110035000Y-110482110D01*
X111865000Y-110482110D01*
X111865000Y-110737889D01*
X111905013Y-110990523D01*
X111984051Y-111233781D01*
X111984052Y-111233784D01*
X112100175Y-111461686D01*
X112177850Y-111568595D01*
X112177850Y-111568596D01*
X112735884Y-111010561D01*
X112736740Y-111012626D01*
X112829762Y-111151844D01*
X112948156Y-111270238D01*
X113087374Y-111363260D01*
X113089437Y-111364114D01*
X112531402Y-111922148D01*
X112638313Y-111999824D01*
X112866215Y-112115947D01*
X112866218Y-112115948D01*
X113109476Y-112194986D01*
X113362111Y-112235000D01*
X113617889Y-112235000D01*
X113870523Y-112194986D01*
X114113781Y-112115948D01*
X114113784Y-112115947D01*
X114341685Y-111999825D01*
X114448595Y-111922148D01*
X114448596Y-111922148D01*
X113890562Y-111364114D01*
X113892626Y-111363260D01*
X114031844Y-111270238D01*
X114150238Y-111151844D01*
X114243260Y-111012626D01*
X114244114Y-111010562D01*
X114802148Y-111568596D01*
X114802148Y-111568595D01*
X114879825Y-111461685D01*
X114995947Y-111233784D01*
X114995948Y-111233781D01*
X115074986Y-110990523D01*
X115115000Y-110737889D01*
X115115000Y-110482110D01*
X115074986Y-110229476D01*
X114995948Y-109986218D01*
X114995942Y-109986205D01*
X114977849Y-109950695D01*
X114977847Y-109950693D01*
X114953304Y-109902525D01*
X118699500Y-109902525D01*
X118699500Y-110047475D01*
X118705042Y-110068156D01*
X118737017Y-110187488D01*
X118809488Y-110313011D01*
X118809490Y-110313013D01*
X118809491Y-110313015D01*
X118911985Y-110415509D01*
X118911986Y-110415510D01*
X118911988Y-110415511D01*
X119037511Y-110487982D01*
X119037512Y-110487982D01*
X119037515Y-110487984D01*
X119177525Y-110525500D01*
X119177528Y-110525500D01*
X119322472Y-110525500D01*
X119322475Y-110525500D01*
X119462485Y-110487984D01*
X119588015Y-110415509D01*
X119690509Y-110313015D01*
X119762984Y-110187485D01*
X119800500Y-110047475D01*
X119800500Y-109902525D01*
X119762984Y-109762515D01*
X119760556Y-109758310D01*
X119690511Y-109636988D01*
X119690506Y-109636982D01*
X119588017Y-109534493D01*
X119588011Y-109534488D01*
X119462488Y-109462017D01*
X119462489Y-109462017D01*
X119451006Y-109458940D01*
X119322475Y-109424500D01*
X119177525Y-109424500D01*
X119048993Y-109458940D01*
X119037511Y-109462017D01*
X118911988Y-109534488D01*
X118911982Y-109534493D01*
X118809493Y-109636982D01*
X118809488Y-109636988D01*
X118737017Y-109762511D01*
X118737016Y-109762515D01*
X118699500Y-109902525D01*
X114953304Y-109902525D01*
X114879824Y-109758313D01*
X114802148Y-109651403D01*
X114802148Y-109651402D01*
X114244114Y-110209436D01*
X114243260Y-110207374D01*
X114150238Y-110068156D01*
X114031844Y-109949762D01*
X113892626Y-109856740D01*
X113890560Y-109855884D01*
X114448596Y-109297850D01*
X114341686Y-109220175D01*
X114185164Y-109140423D01*
X114113784Y-109104052D01*
X114113781Y-109104051D01*
X113910694Y-109038065D01*
X117937000Y-109038065D01*
X117937000Y-109136935D01*
X117962590Y-109232438D01*
X118012025Y-109318062D01*
X118081938Y-109387975D01*
X118167562Y-109437410D01*
X118263065Y-109463000D01*
X118263067Y-109463000D01*
X118361932Y-109463000D01*
X118361935Y-109463000D01*
X118457438Y-109437410D01*
X118543062Y-109387975D01*
X118612975Y-109318062D01*
X118662410Y-109232438D01*
X118664252Y-109225565D01*
X122074500Y-109225565D01*
X122074500Y-109324435D01*
X122100090Y-109419938D01*
X122149525Y-109505562D01*
X122219438Y-109575475D01*
X122305062Y-109624910D01*
X122400565Y-109650500D01*
X122400567Y-109650500D01*
X122499432Y-109650500D01*
X122499435Y-109650500D01*
X122594938Y-109624910D01*
X122680562Y-109575475D01*
X122750475Y-109505562D01*
X122799910Y-109419938D01*
X122825500Y-109324435D01*
X122825500Y-109225565D01*
X122799910Y-109130062D01*
X122750475Y-109044438D01*
X122680562Y-108974525D01*
X122594938Y-108925090D01*
X122499435Y-108899500D01*
X122400565Y-108899500D01*
X122305062Y-108925090D01*
X122305060Y-108925091D01*
X122305059Y-108925091D01*
X122219436Y-108974526D01*
X122149526Y-109044436D01*
X122100091Y-109130059D01*
X122100091Y-109130060D01*
X122100090Y-109130062D01*
X122074500Y-109225565D01*
X118664252Y-109225565D01*
X118688000Y-109136935D01*
X118688000Y-109050632D01*
X118688709Y-109044029D01*
X118699637Y-109017634D01*
X118707685Y-108990227D01*
X118714472Y-108981804D01*
X118715437Y-108979474D01*
X118717510Y-108978033D01*
X118724319Y-108969585D01*
X118981905Y-108712000D01*
X119832087Y-107861819D01*
X119893410Y-107828334D01*
X119919768Y-107825500D01*
X122043100Y-107825500D01*
X122110139Y-107845185D01*
X122130780Y-107861818D01*
X122159541Y-107890578D01*
X122169438Y-107900475D01*
X122255062Y-107949910D01*
X122350565Y-107975500D01*
X122350567Y-107975500D01*
X122449432Y-107975500D01*
X122449435Y-107975500D01*
X122544938Y-107949910D01*
X122630562Y-107900475D01*
X122700475Y-107830562D01*
X122749910Y-107744938D01*
X122775500Y-107649435D01*
X122775500Y-107550565D01*
X122749910Y-107455062D01*
X122700475Y-107369438D01*
X122630562Y-107299525D01*
X122544938Y-107250090D01*
X122449435Y-107224500D01*
X122350565Y-107224500D01*
X122255062Y-107250090D01*
X122255060Y-107250091D01*
X122255059Y-107250091D01*
X122169436Y-107299526D01*
X122130780Y-107338182D01*
X122069457Y-107371667D01*
X122043100Y-107374500D01*
X119819854Y-107374500D01*
X119730145Y-107374500D01*
X119730143Y-107374500D01*
X119730141Y-107374501D01*
X119647266Y-107408827D01*
X119647264Y-107408829D01*
X118380414Y-108675681D01*
X118319091Y-108709166D01*
X118292733Y-108712000D01*
X118263065Y-108712000D01*
X118167562Y-108737590D01*
X118167560Y-108737591D01*
X118167559Y-108737591D01*
X118081936Y-108787026D01*
X118012026Y-108856936D01*
X117962591Y-108942559D01*
X117962591Y-108942560D01*
X117962590Y-108942562D01*
X117937000Y-109038065D01*
X113910694Y-109038065D01*
X113870523Y-109025013D01*
X113617889Y-108985000D01*
X113362111Y-108985000D01*
X113109476Y-109025013D01*
X112866218Y-109104051D01*
X112866215Y-109104052D01*
X112638310Y-109220177D01*
X112531403Y-109297849D01*
X112531402Y-109297850D01*
X113089437Y-109855885D01*
X113087374Y-109856740D01*
X112948156Y-109949762D01*
X112829762Y-110068156D01*
X112736740Y-110207374D01*
X112735885Y-110209437D01*
X112177850Y-109651402D01*
X112177849Y-109651403D01*
X112100177Y-109758310D01*
X111984052Y-109986215D01*
X111984051Y-109986218D01*
X111905013Y-110229476D01*
X111865000Y-110482110D01*
X110035000Y-110482110D01*
X109994986Y-110229476D01*
X109915948Y-109986218D01*
X109915947Y-109986215D01*
X109799824Y-109758313D01*
X109722148Y-109651403D01*
X109722148Y-109651402D01*
X109164114Y-110209436D01*
X109163260Y-110207374D01*
X109070238Y-110068156D01*
X108951844Y-109949762D01*
X108812626Y-109856740D01*
X108810560Y-109855884D01*
X109368596Y-109297850D01*
X109261686Y-109220175D01*
X109033784Y-109104052D01*
X109033781Y-109104051D01*
X108790523Y-109025013D01*
X108537889Y-108985000D01*
X108282111Y-108985000D01*
X108029476Y-109025013D01*
X107786218Y-109104051D01*
X107786215Y-109104052D01*
X107558310Y-109220177D01*
X107451403Y-109297849D01*
X107451402Y-109297850D01*
X108009437Y-109855885D01*
X108007374Y-109856740D01*
X107868156Y-109949762D01*
X107749762Y-110068156D01*
X107656740Y-110207374D01*
X107655885Y-110209437D01*
X107097850Y-109651402D01*
X107097849Y-109651403D01*
X107020177Y-109758310D01*
X106904052Y-109986215D01*
X106904051Y-109986218D01*
X106825013Y-110229476D01*
X106785000Y-110482110D01*
X96410384Y-110482110D01*
X96411812Y-106535837D01*
X98249500Y-106535837D01*
X98249500Y-106764162D01*
X98285215Y-106989660D01*
X98355770Y-107206803D01*
X98439773Y-107371667D01*
X98459421Y-107410228D01*
X98593621Y-107594937D01*
X98755063Y-107756379D01*
X98939772Y-107890579D01*
X99035884Y-107939550D01*
X99143196Y-107994229D01*
X99143198Y-107994229D01*
X99143201Y-107994231D01*
X99259592Y-108032049D01*
X99360339Y-108064784D01*
X99585838Y-108100500D01*
X99585843Y-108100500D01*
X99814162Y-108100500D01*
X100039660Y-108064784D01*
X100256799Y-107994231D01*
X100460228Y-107890579D01*
X100644937Y-107756379D01*
X100806379Y-107594937D01*
X100940579Y-107410228D01*
X101044231Y-107206799D01*
X101114784Y-106989660D01*
X101142767Y-106812984D01*
X101150500Y-106764162D01*
X101150500Y-106535837D01*
X101114784Y-106310339D01*
X101082049Y-106209592D01*
X101044231Y-106093201D01*
X101044229Y-106093198D01*
X101044229Y-106093196D01*
X100940578Y-105889771D01*
X100918576Y-105859488D01*
X100806379Y-105705063D01*
X100644937Y-105543621D01*
X100460228Y-105409421D01*
X100256803Y-105305770D01*
X100039660Y-105235215D01*
X99814162Y-105199500D01*
X99814157Y-105199500D01*
X99585843Y-105199500D01*
X99585838Y-105199500D01*
X99360339Y-105235215D01*
X99143196Y-105305770D01*
X98939771Y-105409421D01*
X98755061Y-105543622D01*
X98593622Y-105705061D01*
X98459421Y-105889771D01*
X98355770Y-106093196D01*
X98285215Y-106310339D01*
X98249500Y-106535837D01*
X96411812Y-106535837D01*
X96413182Y-102750565D01*
X131374500Y-102750565D01*
X131374500Y-102849435D01*
X131400090Y-102944938D01*
X131449525Y-103030562D01*
X131519438Y-103100475D01*
X131605062Y-103149910D01*
X131700565Y-103175500D01*
X131700567Y-103175500D01*
X131799432Y-103175500D01*
X131799435Y-103175500D01*
X131894938Y-103149910D01*
X131980562Y-103100475D01*
X131999891Y-103081145D01*
X132019220Y-103061818D01*
X132080543Y-103028333D01*
X132106900Y-103025500D01*
X133918100Y-103025500D01*
X133985139Y-103045185D01*
X134005780Y-103061818D01*
X134044436Y-103100473D01*
X134044438Y-103100475D01*
X134130062Y-103149910D01*
X134225565Y-103175500D01*
X134225567Y-103175500D01*
X134324432Y-103175500D01*
X134324435Y-103175500D01*
X134419938Y-103149910D01*
X134505562Y-103100475D01*
X134575475Y-103030562D01*
X134624910Y-102944938D01*
X134650500Y-102849435D01*
X134650500Y-102750565D01*
X134624910Y-102655062D01*
X134575475Y-102569438D01*
X134505562Y-102499525D01*
X134419938Y-102450090D01*
X134324435Y-102424500D01*
X134225565Y-102424500D01*
X134130062Y-102450090D01*
X134130060Y-102450091D01*
X134130059Y-102450091D01*
X134044436Y-102499526D01*
X134005780Y-102538182D01*
X133944457Y-102571667D01*
X133918100Y-102574500D01*
X132106900Y-102574500D01*
X132039861Y-102554815D01*
X132019220Y-102538182D01*
X131980563Y-102499526D01*
X131980562Y-102499525D01*
X131894938Y-102450090D01*
X131799435Y-102424500D01*
X131700565Y-102424500D01*
X131605062Y-102450090D01*
X131605060Y-102450091D01*
X131605059Y-102450091D01*
X131519436Y-102499526D01*
X131449526Y-102569436D01*
X131400091Y-102655059D01*
X131400091Y-102655060D01*
X131400090Y-102655062D01*
X131374500Y-102750565D01*
X96413182Y-102750565D01*
X96414023Y-100425565D01*
X108599500Y-100425565D01*
X108599500Y-100524435D01*
X108625090Y-100619938D01*
X108674525Y-100705562D01*
X108744438Y-100775475D01*
X108830062Y-100824910D01*
X108925565Y-100850500D01*
X108925567Y-100850500D01*
X109024432Y-100850500D01*
X109024435Y-100850500D01*
X109119938Y-100824910D01*
X109205562Y-100775475D01*
X109224891Y-100756145D01*
X109244220Y-100736818D01*
X109305543Y-100703333D01*
X109331900Y-100700500D01*
X114168100Y-100700500D01*
X114235139Y-100720185D01*
X114255780Y-100736818D01*
X114294436Y-100775473D01*
X114294438Y-100775475D01*
X114380062Y-100824910D01*
X114475565Y-100850500D01*
X114475567Y-100850500D01*
X114574432Y-100850500D01*
X114574435Y-100850500D01*
X114669938Y-100824910D01*
X114755562Y-100775475D01*
X114825475Y-100705562D01*
X114874910Y-100619938D01*
X114900500Y-100524435D01*
X114900500Y-100425565D01*
X114874910Y-100330062D01*
X114825475Y-100244438D01*
X114755562Y-100174525D01*
X114669938Y-100125090D01*
X114574435Y-100099500D01*
X114475565Y-100099500D01*
X114380062Y-100125090D01*
X114380060Y-100125091D01*
X114380059Y-100125091D01*
X114294436Y-100174526D01*
X114255780Y-100213182D01*
X114194457Y-100246667D01*
X114168100Y-100249500D01*
X109331900Y-100249500D01*
X109264861Y-100229815D01*
X109244220Y-100213182D01*
X109205563Y-100174526D01*
X109205562Y-100174525D01*
X109119938Y-100125090D01*
X109024435Y-100099500D01*
X108925565Y-100099500D01*
X108830062Y-100125090D01*
X108830060Y-100125091D01*
X108830059Y-100125091D01*
X108744436Y-100174526D01*
X108674526Y-100244436D01*
X108625091Y-100330059D01*
X108625091Y-100330060D01*
X108625090Y-100330062D01*
X108599500Y-100425565D01*
X96414023Y-100425565D01*
X96416625Y-93234941D01*
X96436334Y-93167911D01*
X96489154Y-93122175D01*
X96558316Y-93112257D01*
X96621862Y-93141304D01*
X96659615Y-93200096D01*
X96663098Y-93215590D01*
X96690013Y-93385523D01*
X96769051Y-93628781D01*
X96769052Y-93628784D01*
X96885175Y-93856686D01*
X96962850Y-93963595D01*
X96962850Y-93963596D01*
X97520884Y-93405561D01*
X97521740Y-93407626D01*
X97614762Y-93546844D01*
X97733156Y-93665238D01*
X97872374Y-93758260D01*
X97874437Y-93759114D01*
X97316402Y-94317148D01*
X97423313Y-94394824D01*
X97651215Y-94510947D01*
X97651218Y-94510948D01*
X97894476Y-94589986D01*
X98147111Y-94630000D01*
X98402889Y-94630000D01*
X98655523Y-94589986D01*
X98898781Y-94510948D01*
X98898784Y-94510947D01*
X99126685Y-94394825D01*
X99233595Y-94317148D01*
X99233596Y-94317148D01*
X98675562Y-93759114D01*
X98677626Y-93758260D01*
X98816844Y-93665238D01*
X98935238Y-93546844D01*
X99028260Y-93407626D01*
X99029114Y-93405562D01*
X99587148Y-93963596D01*
X99587148Y-93963595D01*
X99664825Y-93856685D01*
X99780947Y-93628784D01*
X99780948Y-93628781D01*
X99859986Y-93385523D01*
X99900000Y-93132889D01*
X99900000Y-92877110D01*
X101730000Y-92877110D01*
X101730000Y-93132889D01*
X101770013Y-93385523D01*
X101849051Y-93628781D01*
X101849052Y-93628784D01*
X101965175Y-93856686D01*
X102042850Y-93963595D01*
X102042850Y-93963596D01*
X102600884Y-93405561D01*
X102601740Y-93407626D01*
X102694762Y-93546844D01*
X102813156Y-93665238D01*
X102952374Y-93758260D01*
X102954437Y-93759114D01*
X102396402Y-94317148D01*
X102503313Y-94394824D01*
X102731215Y-94510947D01*
X102731218Y-94510948D01*
X102974476Y-94589986D01*
X103227111Y-94630000D01*
X103482889Y-94630000D01*
X103735523Y-94589986D01*
X103978781Y-94510948D01*
X103978784Y-94510947D01*
X104206685Y-94394825D01*
X104313595Y-94317148D01*
X104313596Y-94317148D01*
X103985519Y-93989071D01*
X129099499Y-93989071D01*
X129124497Y-94114738D01*
X129124499Y-94114744D01*
X129173533Y-94233124D01*
X129173538Y-94233133D01*
X129244723Y-94339668D01*
X129244726Y-94339672D01*
X129335327Y-94430273D01*
X129335331Y-94430276D01*
X129441866Y-94501461D01*
X129441875Y-94501466D01*
X129464767Y-94510948D01*
X129560256Y-94550501D01*
X129560260Y-94550501D01*
X129560261Y-94550502D01*
X129685928Y-94575500D01*
X129685931Y-94575500D01*
X129814071Y-94575500D01*
X129898615Y-94558682D01*
X129939744Y-94550501D01*
X130058127Y-94501465D01*
X130058133Y-94501461D01*
X130132476Y-94451787D01*
X130143580Y-94444367D01*
X130164669Y-94430276D01*
X130255276Y-94339669D01*
X130326465Y-94233127D01*
X130375501Y-94114744D01*
X130383682Y-94073615D01*
X130400500Y-93989071D01*
X130400500Y-93860928D01*
X130375502Y-93735261D01*
X130375501Y-93735260D01*
X130375501Y-93735256D01*
X130331399Y-93628784D01*
X130326466Y-93616875D01*
X130326461Y-93616866D01*
X130255276Y-93510331D01*
X130255273Y-93510327D01*
X130164672Y-93419726D01*
X130164668Y-93419723D01*
X130058133Y-93348538D01*
X130058124Y-93348533D01*
X129939744Y-93299499D01*
X129939738Y-93299497D01*
X129835965Y-93278855D01*
X129814071Y-93274500D01*
X129814069Y-93274500D01*
X129685931Y-93274500D01*
X129685929Y-93274500D01*
X129560261Y-93299497D01*
X129560255Y-93299499D01*
X129441875Y-93348533D01*
X129441866Y-93348538D01*
X129335331Y-93419723D01*
X129335327Y-93419726D01*
X129244726Y-93510327D01*
X129244723Y-93510331D01*
X129173538Y-93616866D01*
X129173533Y-93616875D01*
X129124499Y-93735255D01*
X129124497Y-93735261D01*
X129099500Y-93860928D01*
X129099500Y-93860931D01*
X129099500Y-93989069D01*
X129099500Y-93989071D01*
X129099499Y-93989071D01*
X103985519Y-93989071D01*
X103755562Y-93759114D01*
X103757626Y-93758260D01*
X103896844Y-93665238D01*
X104015238Y-93546844D01*
X104108260Y-93407626D01*
X104109114Y-93405562D01*
X104667148Y-93963596D01*
X104667148Y-93963595D01*
X104744825Y-93856684D01*
X104774450Y-93798544D01*
X104860947Y-93628784D01*
X104860948Y-93628781D01*
X104939986Y-93385523D01*
X104975372Y-93162110D01*
X156035000Y-93162110D01*
X156035000Y-93417889D01*
X156075013Y-93670523D01*
X156154051Y-93913781D01*
X156154052Y-93913784D01*
X156270175Y-94141686D01*
X156347850Y-94248595D01*
X156347850Y-94248596D01*
X156905884Y-93690561D01*
X156906740Y-93692626D01*
X156999762Y-93831844D01*
X157118156Y-93950238D01*
X157257374Y-94043260D01*
X157259437Y-94044114D01*
X156701402Y-94602148D01*
X156808313Y-94679824D01*
X157036215Y-94795947D01*
X157036218Y-94795948D01*
X157279476Y-94874986D01*
X157532111Y-94915000D01*
X157787889Y-94915000D01*
X158040523Y-94874986D01*
X158283781Y-94795948D01*
X158283784Y-94795947D01*
X158511685Y-94679825D01*
X158618595Y-94602148D01*
X158618596Y-94602148D01*
X158060562Y-94044114D01*
X158062626Y-94043260D01*
X158201844Y-93950238D01*
X158320238Y-93831844D01*
X158413260Y-93692626D01*
X158414114Y-93690562D01*
X158972148Y-94248596D01*
X158972148Y-94248595D01*
X159049825Y-94141685D01*
X159165947Y-93913784D01*
X159165948Y-93913781D01*
X159244986Y-93670523D01*
X159285000Y-93417889D01*
X159285000Y-93162110D01*
X161115000Y-93162110D01*
X161115000Y-93417889D01*
X161155013Y-93670523D01*
X161234051Y-93913781D01*
X161234052Y-93913784D01*
X161350175Y-94141686D01*
X161427850Y-94248595D01*
X161427850Y-94248596D01*
X161985884Y-93690561D01*
X161986740Y-93692626D01*
X162079762Y-93831844D01*
X162198156Y-93950238D01*
X162337374Y-94043260D01*
X162339437Y-94044114D01*
X161781402Y-94602148D01*
X161888313Y-94679824D01*
X162116215Y-94795947D01*
X162116218Y-94795948D01*
X162359476Y-94874986D01*
X162612111Y-94915000D01*
X162867889Y-94915000D01*
X163120523Y-94874986D01*
X163363781Y-94795948D01*
X163363784Y-94795947D01*
X163591685Y-94679825D01*
X163698595Y-94602148D01*
X163698596Y-94602148D01*
X163140562Y-94044114D01*
X163142626Y-94043260D01*
X163281844Y-93950238D01*
X163400238Y-93831844D01*
X163493260Y-93692626D01*
X163494114Y-93690562D01*
X164052148Y-94248596D01*
X164052148Y-94248595D01*
X164129825Y-94141685D01*
X164245947Y-93913784D01*
X164245948Y-93913781D01*
X164324986Y-93670523D01*
X164365000Y-93417889D01*
X164365000Y-93162110D01*
X164324986Y-92909476D01*
X164245948Y-92666218D01*
X164245947Y-92666215D01*
X164129824Y-92438313D01*
X164052148Y-92331403D01*
X164052148Y-92331402D01*
X163494114Y-92889436D01*
X163493260Y-92887374D01*
X163400238Y-92748156D01*
X163281844Y-92629762D01*
X163142626Y-92536740D01*
X163140560Y-92535884D01*
X163698596Y-91977850D01*
X163591686Y-91900175D01*
X163363784Y-91784052D01*
X163363781Y-91784051D01*
X163120523Y-91705013D01*
X162867889Y-91665000D01*
X162612111Y-91665000D01*
X162359476Y-91705013D01*
X162116218Y-91784051D01*
X162116215Y-91784052D01*
X161888310Y-91900177D01*
X161781403Y-91977849D01*
X161781402Y-91977850D01*
X162339437Y-92535885D01*
X162337374Y-92536740D01*
X162198156Y-92629762D01*
X162079762Y-92748156D01*
X161986740Y-92887374D01*
X161985885Y-92889437D01*
X161427850Y-92331402D01*
X161427849Y-92331403D01*
X161350177Y-92438310D01*
X161234052Y-92666215D01*
X161234051Y-92666218D01*
X161155013Y-92909476D01*
X161115000Y-93162110D01*
X159285000Y-93162110D01*
X159244986Y-92909476D01*
X159165948Y-92666218D01*
X159165947Y-92666215D01*
X159049824Y-92438313D01*
X158972148Y-92331403D01*
X158972148Y-92331402D01*
X158414114Y-92889436D01*
X158413260Y-92887374D01*
X158320238Y-92748156D01*
X158201844Y-92629762D01*
X158062626Y-92536740D01*
X158060560Y-92535884D01*
X158618596Y-91977850D01*
X158511686Y-91900175D01*
X158283784Y-91784052D01*
X158283781Y-91784051D01*
X158040523Y-91705013D01*
X157787889Y-91665000D01*
X157532111Y-91665000D01*
X157279476Y-91705013D01*
X157036218Y-91784051D01*
X157036215Y-91784052D01*
X156808310Y-91900177D01*
X156701403Y-91977849D01*
X156701402Y-91977850D01*
X157259437Y-92535885D01*
X157257374Y-92536740D01*
X157118156Y-92629762D01*
X156999762Y-92748156D01*
X156906740Y-92887374D01*
X156905885Y-92889437D01*
X156347850Y-92331402D01*
X156347849Y-92331403D01*
X156270177Y-92438310D01*
X156154052Y-92666215D01*
X156154051Y-92666218D01*
X156075013Y-92909476D01*
X156035000Y-93162110D01*
X104975372Y-93162110D01*
X104980000Y-93132889D01*
X104980000Y-92877110D01*
X104939986Y-92624476D01*
X104860948Y-92381218D01*
X104860947Y-92381215D01*
X104744822Y-92153310D01*
X104704636Y-92097998D01*
X104704634Y-92097996D01*
X104667148Y-92046403D01*
X104667148Y-92046402D01*
X104109114Y-92604436D01*
X104108260Y-92602374D01*
X104015238Y-92463156D01*
X103896844Y-92344762D01*
X103757626Y-92251740D01*
X103755560Y-92250884D01*
X104313596Y-91692850D01*
X104206686Y-91615175D01*
X103978784Y-91499052D01*
X103978781Y-91499051D01*
X103735523Y-91420013D01*
X103482889Y-91380000D01*
X103227111Y-91380000D01*
X102974476Y-91420013D01*
X102731218Y-91499051D01*
X102731215Y-91499052D01*
X102503310Y-91615177D01*
X102396403Y-91692849D01*
X102396402Y-91692850D01*
X102954437Y-92250885D01*
X102952374Y-92251740D01*
X102813156Y-92344762D01*
X102694762Y-92463156D01*
X102601740Y-92602374D01*
X102600885Y-92604437D01*
X102042850Y-92046402D01*
X102042849Y-92046403D01*
X101965177Y-92153310D01*
X101849052Y-92381215D01*
X101849051Y-92381218D01*
X101770013Y-92624476D01*
X101730000Y-92877110D01*
X99900000Y-92877110D01*
X99859986Y-92624476D01*
X99780948Y-92381218D01*
X99780947Y-92381215D01*
X99664824Y-92153313D01*
X99587148Y-92046403D01*
X99587148Y-92046402D01*
X99029114Y-92604436D01*
X99028260Y-92602374D01*
X98935238Y-92463156D01*
X98816844Y-92344762D01*
X98677626Y-92251740D01*
X98675560Y-92250884D01*
X99233596Y-91692850D01*
X99126686Y-91615175D01*
X98898784Y-91499052D01*
X98898781Y-91499051D01*
X98655523Y-91420013D01*
X98402889Y-91380000D01*
X98147111Y-91380000D01*
X97894476Y-91420013D01*
X97651218Y-91499051D01*
X97651215Y-91499052D01*
X97423310Y-91615177D01*
X97316403Y-91692849D01*
X97316402Y-91692850D01*
X97874437Y-92250885D01*
X97872374Y-92251740D01*
X97733156Y-92344762D01*
X97614762Y-92463156D01*
X97521740Y-92602374D01*
X97520885Y-92604437D01*
X96962850Y-92046402D01*
X96962849Y-92046403D01*
X96885177Y-92153310D01*
X96769052Y-92381215D01*
X96769051Y-92381218D01*
X96690013Y-92624476D01*
X96663265Y-92793356D01*
X96633336Y-92856491D01*
X96574024Y-92893422D01*
X96504162Y-92892424D01*
X96445929Y-92853814D01*
X96417815Y-92789850D01*
X96416792Y-92773913D01*
X96416798Y-92757064D01*
X96417661Y-90372486D01*
X99639500Y-90372486D01*
X99639500Y-90557513D01*
X99668445Y-90740265D01*
X99725619Y-90916232D01*
X99725620Y-90916235D01*
X99809622Y-91081096D01*
X99918379Y-91230787D01*
X100049213Y-91361621D01*
X100198904Y-91470378D01*
X100255178Y-91499051D01*
X100363764Y-91554379D01*
X100363767Y-91554380D01*
X100451750Y-91582967D01*
X100539736Y-91611555D01*
X100722486Y-91640500D01*
X100722487Y-91640500D01*
X100907513Y-91640500D01*
X100907514Y-91640500D01*
X100982946Y-91628552D01*
X101051865Y-91617637D01*
X101057498Y-91616744D01*
X101090264Y-91611555D01*
X101266235Y-91554379D01*
X101431096Y-91470378D01*
X101580787Y-91361621D01*
X101711621Y-91230787D01*
X101820378Y-91081096D01*
X101904379Y-90916235D01*
X101961555Y-90740264D01*
X101974666Y-90657486D01*
X159024500Y-90657486D01*
X159024500Y-90842513D01*
X159053445Y-91025265D01*
X159110619Y-91201232D01*
X159110620Y-91201235D01*
X159192340Y-91361618D01*
X159194622Y-91366096D01*
X159303379Y-91515787D01*
X159434213Y-91646621D01*
X159583904Y-91755378D01*
X159640178Y-91784051D01*
X159748764Y-91839379D01*
X159748767Y-91839380D01*
X159836750Y-91867967D01*
X159924736Y-91896555D01*
X160107486Y-91925500D01*
X160107487Y-91925500D01*
X160292513Y-91925500D01*
X160292514Y-91925500D01*
X160367946Y-91913552D01*
X160436865Y-91902637D01*
X160442498Y-91901744D01*
X160475264Y-91896555D01*
X160651235Y-91839379D01*
X160816096Y-91755378D01*
X160965787Y-91646621D01*
X161096621Y-91515787D01*
X161205378Y-91366096D01*
X161289379Y-91201235D01*
X161346555Y-91025264D01*
X161375500Y-90842514D01*
X161375500Y-90657486D01*
X161346555Y-90474736D01*
X161289379Y-90298765D01*
X161289379Y-90298764D01*
X161205377Y-90133903D01*
X161096621Y-89984213D01*
X160965787Y-89853379D01*
X160816096Y-89744622D01*
X160651235Y-89660620D01*
X160651232Y-89660619D01*
X160475265Y-89603445D01*
X160436858Y-89597362D01*
X160410122Y-89593127D01*
X160292514Y-89574500D01*
X160107486Y-89574500D01*
X160046569Y-89584148D01*
X159924734Y-89603445D01*
X159748767Y-89660619D01*
X159748764Y-89660620D01*
X159583903Y-89744622D01*
X159514584Y-89794986D01*
X159434213Y-89853379D01*
X159434211Y-89853381D01*
X159434210Y-89853381D01*
X159303381Y-89984210D01*
X159303381Y-89984211D01*
X159303379Y-89984213D01*
X159281909Y-90013764D01*
X159194622Y-90133903D01*
X159110620Y-90298764D01*
X159110619Y-90298767D01*
X159053445Y-90474734D01*
X159024500Y-90657486D01*
X101974666Y-90657486D01*
X101990500Y-90557514D01*
X101990500Y-90372486D01*
X101961555Y-90189736D01*
X101904379Y-90013765D01*
X101904379Y-90013764D01*
X101820377Y-89848903D01*
X101781204Y-89794986D01*
X101711621Y-89699213D01*
X101580787Y-89568379D01*
X101431096Y-89459622D01*
X101266235Y-89375620D01*
X101266232Y-89375619D01*
X101090265Y-89318445D01*
X101051858Y-89312362D01*
X101025122Y-89308127D01*
X100907514Y-89289500D01*
X100722486Y-89289500D01*
X100661569Y-89299148D01*
X100539734Y-89318445D01*
X100363767Y-89375619D01*
X100363764Y-89375620D01*
X100198903Y-89459622D01*
X100129584Y-89509986D01*
X100049213Y-89568379D01*
X100049211Y-89568381D01*
X100049210Y-89568381D01*
X99918381Y-89699210D01*
X99918381Y-89699211D01*
X99918379Y-89699213D01*
X99871672Y-89763499D01*
X99809622Y-89848903D01*
X99725620Y-90013764D01*
X99725619Y-90013767D01*
X99668445Y-90189734D01*
X99639500Y-90372486D01*
X96417661Y-90372486D01*
X96418459Y-88166521D01*
X96438168Y-88099491D01*
X96490988Y-88053755D01*
X96560150Y-88043837D01*
X96623696Y-88072884D01*
X96661449Y-88131676D01*
X96664932Y-88147170D01*
X96690013Y-88305523D01*
X96769051Y-88548781D01*
X96769052Y-88548784D01*
X96885175Y-88776686D01*
X96962850Y-88883595D01*
X96962850Y-88883596D01*
X97520884Y-88325561D01*
X97521740Y-88327626D01*
X97614762Y-88466844D01*
X97733156Y-88585238D01*
X97872374Y-88678260D01*
X97874437Y-88679114D01*
X97316402Y-89237148D01*
X97423313Y-89314824D01*
X97651215Y-89430947D01*
X97651218Y-89430948D01*
X97894476Y-89509986D01*
X98147111Y-89550000D01*
X98402889Y-89550000D01*
X98655523Y-89509986D01*
X98898781Y-89430948D01*
X98898784Y-89430947D01*
X99126685Y-89314825D01*
X99233595Y-89237148D01*
X99233596Y-89237148D01*
X98675562Y-88679114D01*
X98677626Y-88678260D01*
X98816844Y-88585238D01*
X98935238Y-88466844D01*
X99028260Y-88327626D01*
X99029114Y-88325562D01*
X99587148Y-88883596D01*
X99587148Y-88883595D01*
X99664825Y-88776685D01*
X99780947Y-88548784D01*
X99780948Y-88548781D01*
X99859986Y-88305523D01*
X99900000Y-88052889D01*
X99900000Y-87797110D01*
X101730000Y-87797110D01*
X101730000Y-88052889D01*
X101770013Y-88305523D01*
X101849051Y-88548781D01*
X101849052Y-88548784D01*
X101965175Y-88776686D01*
X102042850Y-88883595D01*
X102042850Y-88883596D01*
X102600884Y-88325561D01*
X102601740Y-88327626D01*
X102694762Y-88466844D01*
X102813156Y-88585238D01*
X102952374Y-88678260D01*
X102954437Y-88679114D01*
X102396402Y-89237148D01*
X102503313Y-89314824D01*
X102731215Y-89430947D01*
X102731218Y-89430948D01*
X102974476Y-89509986D01*
X103227111Y-89550000D01*
X103482889Y-89550000D01*
X103735523Y-89509986D01*
X103978781Y-89430948D01*
X103978784Y-89430947D01*
X104109382Y-89364404D01*
X104206685Y-89314825D01*
X104313595Y-89237148D01*
X104313596Y-89237148D01*
X103755562Y-88679114D01*
X103757626Y-88678260D01*
X103896844Y-88585238D01*
X104015238Y-88466844D01*
X104108260Y-88327626D01*
X104109114Y-88325562D01*
X104667148Y-88883596D01*
X104667148Y-88883595D01*
X104744825Y-88776685D01*
X104860947Y-88548784D01*
X104860948Y-88548781D01*
X104939986Y-88305523D01*
X104975372Y-88082110D01*
X156035000Y-88082110D01*
X156035000Y-88337889D01*
X156075013Y-88590523D01*
X156154051Y-88833781D01*
X156154052Y-88833784D01*
X156270175Y-89061686D01*
X156347850Y-89168595D01*
X156347850Y-89168596D01*
X156905884Y-88610561D01*
X156906740Y-88612626D01*
X156999762Y-88751844D01*
X157118156Y-88870238D01*
X157257374Y-88963260D01*
X157259437Y-88964114D01*
X156701402Y-89522148D01*
X156808313Y-89599824D01*
X157036215Y-89715947D01*
X157036218Y-89715948D01*
X157279476Y-89794986D01*
X157532111Y-89835000D01*
X157787889Y-89835000D01*
X158040523Y-89794986D01*
X158283781Y-89715948D01*
X158283784Y-89715947D01*
X158511685Y-89599825D01*
X158618595Y-89522148D01*
X158618596Y-89522148D01*
X158060562Y-88964114D01*
X158062626Y-88963260D01*
X158201844Y-88870238D01*
X158320238Y-88751844D01*
X158413260Y-88612626D01*
X158414114Y-88610562D01*
X158972148Y-89168596D01*
X158972148Y-89168595D01*
X159049825Y-89061685D01*
X159165947Y-88833784D01*
X159165948Y-88833781D01*
X159244986Y-88590523D01*
X159285000Y-88337889D01*
X159285000Y-88082110D01*
X161115000Y-88082110D01*
X161115000Y-88337889D01*
X161155013Y-88590523D01*
X161234051Y-88833781D01*
X161234052Y-88833784D01*
X161350175Y-89061686D01*
X161427850Y-89168595D01*
X161427850Y-89168596D01*
X161985884Y-88610561D01*
X161986740Y-88612626D01*
X162079762Y-88751844D01*
X162198156Y-88870238D01*
X162337374Y-88963260D01*
X162339437Y-88964114D01*
X161781402Y-89522148D01*
X161888313Y-89599824D01*
X162116215Y-89715947D01*
X162116218Y-89715948D01*
X162359476Y-89794986D01*
X162612111Y-89835000D01*
X162867889Y-89835000D01*
X163120523Y-89794986D01*
X163363781Y-89715948D01*
X163363784Y-89715947D01*
X163591685Y-89599825D01*
X163698595Y-89522148D01*
X163698596Y-89522148D01*
X163140562Y-88964114D01*
X163142626Y-88963260D01*
X163281844Y-88870238D01*
X163400238Y-88751844D01*
X163493260Y-88612626D01*
X163494114Y-88610562D01*
X164052148Y-89168596D01*
X164052148Y-89168595D01*
X164129825Y-89061685D01*
X164245947Y-88833784D01*
X164245948Y-88833781D01*
X164324986Y-88590523D01*
X164365000Y-88337889D01*
X164365000Y-88082110D01*
X164324986Y-87829476D01*
X164245948Y-87586218D01*
X164245947Y-87586215D01*
X164129824Y-87358313D01*
X164052148Y-87251403D01*
X164052148Y-87251402D01*
X163494114Y-87809436D01*
X163493260Y-87807374D01*
X163400238Y-87668156D01*
X163281844Y-87549762D01*
X163142626Y-87456740D01*
X163140560Y-87455884D01*
X163698596Y-86897850D01*
X163591686Y-86820175D01*
X163363784Y-86704052D01*
X163363781Y-86704051D01*
X163120523Y-86625013D01*
X162867889Y-86585000D01*
X162612111Y-86585000D01*
X162359476Y-86625013D01*
X162116218Y-86704051D01*
X162116215Y-86704052D01*
X161888310Y-86820177D01*
X161781403Y-86897849D01*
X161781402Y-86897850D01*
X162339437Y-87455885D01*
X162337374Y-87456740D01*
X162198156Y-87549762D01*
X162079762Y-87668156D01*
X161986740Y-87807374D01*
X161985885Y-87809437D01*
X161427850Y-87251402D01*
X161427849Y-87251403D01*
X161350177Y-87358310D01*
X161234052Y-87586215D01*
X161234051Y-87586218D01*
X161155013Y-87829476D01*
X161115000Y-88082110D01*
X159285000Y-88082110D01*
X159244986Y-87829476D01*
X159165948Y-87586218D01*
X159165947Y-87586215D01*
X159049824Y-87358313D01*
X158972148Y-87251403D01*
X158972148Y-87251402D01*
X158414114Y-87809436D01*
X158413260Y-87807374D01*
X158320238Y-87668156D01*
X158201844Y-87549762D01*
X158062626Y-87456740D01*
X158060560Y-87455884D01*
X158618596Y-86897850D01*
X158511686Y-86820175D01*
X158283784Y-86704052D01*
X158283781Y-86704051D01*
X158040523Y-86625013D01*
X157787889Y-86585000D01*
X157532111Y-86585000D01*
X157279476Y-86625013D01*
X157036218Y-86704051D01*
X157036215Y-86704052D01*
X156808310Y-86820177D01*
X156701403Y-86897849D01*
X156701402Y-86897850D01*
X157259437Y-87455885D01*
X157257374Y-87456740D01*
X157118156Y-87549762D01*
X156999762Y-87668156D01*
X156906740Y-87807374D01*
X156905885Y-87809437D01*
X156347850Y-87251402D01*
X156347849Y-87251403D01*
X156270177Y-87358310D01*
X156154052Y-87586215D01*
X156154051Y-87586218D01*
X156075013Y-87829476D01*
X156035000Y-88082110D01*
X104975372Y-88082110D01*
X104979201Y-88057933D01*
X104979215Y-88057842D01*
X104980000Y-88052885D01*
X104980000Y-87797110D01*
X104939986Y-87544476D01*
X104860948Y-87301218D01*
X104860947Y-87301215D01*
X104744822Y-87073310D01*
X104704636Y-87017998D01*
X104704634Y-87017996D01*
X104667148Y-86966403D01*
X104667148Y-86966402D01*
X104109114Y-87524436D01*
X104108260Y-87522374D01*
X104015238Y-87383156D01*
X103896844Y-87264762D01*
X103757626Y-87171740D01*
X103755560Y-87170884D01*
X104313596Y-86612850D01*
X104206686Y-86535175D01*
X103978784Y-86419052D01*
X103978781Y-86419051D01*
X103735523Y-86340013D01*
X103482889Y-86300000D01*
X103227111Y-86300000D01*
X102974476Y-86340013D01*
X102731218Y-86419051D01*
X102731215Y-86419052D01*
X102503310Y-86535177D01*
X102396403Y-86612849D01*
X102396402Y-86612850D01*
X102954437Y-87170885D01*
X102952374Y-87171740D01*
X102813156Y-87264762D01*
X102694762Y-87383156D01*
X102601740Y-87522374D01*
X102600885Y-87524437D01*
X102042850Y-86966402D01*
X102042849Y-86966403D01*
X101965177Y-87073310D01*
X101849052Y-87301215D01*
X101849051Y-87301218D01*
X101770013Y-87544476D01*
X101730000Y-87797110D01*
X99900000Y-87797110D01*
X99859986Y-87544476D01*
X99780948Y-87301218D01*
X99780947Y-87301215D01*
X99664824Y-87073313D01*
X99587148Y-86966403D01*
X99587148Y-86966402D01*
X99029114Y-87524436D01*
X99028260Y-87522374D01*
X98935238Y-87383156D01*
X98816844Y-87264762D01*
X98677626Y-87171740D01*
X98675560Y-87170884D01*
X99233596Y-86612850D01*
X99126686Y-86535175D01*
X98898784Y-86419052D01*
X98898781Y-86419051D01*
X98655523Y-86340013D01*
X98402889Y-86300000D01*
X98147111Y-86300000D01*
X97894476Y-86340013D01*
X97651218Y-86419051D01*
X97651215Y-86419052D01*
X97423310Y-86535177D01*
X97316403Y-86612849D01*
X97316402Y-86612850D01*
X97874437Y-87170885D01*
X97872374Y-87171740D01*
X97733156Y-87264762D01*
X97614762Y-87383156D01*
X97521740Y-87522374D01*
X97520885Y-87524437D01*
X96962850Y-86966402D01*
X96962849Y-86966403D01*
X96885177Y-87073310D01*
X96769052Y-87301215D01*
X96769051Y-87301218D01*
X96690012Y-87544476D01*
X96665107Y-87701723D01*
X96635178Y-87764858D01*
X96575866Y-87801789D01*
X96506003Y-87800791D01*
X96447771Y-87762181D01*
X96419657Y-87698217D01*
X96418634Y-87682291D01*
X96419123Y-86332995D01*
X96419138Y-86332960D01*
X96419138Y-86291960D01*
X96419152Y-86253269D01*
X96419151Y-86253266D01*
X96419138Y-86253199D01*
X96419138Y-86253196D01*
X96403459Y-86215344D01*
X96388655Y-86179566D01*
X96388654Y-86179565D01*
X96388652Y-86179560D01*
X96388617Y-86179507D01*
X96359776Y-86150666D01*
X96332273Y-86123143D01*
X96332238Y-86123128D01*
X92723181Y-82514071D01*
X153124499Y-82514071D01*
X153149497Y-82639738D01*
X153149499Y-82639744D01*
X153198533Y-82758124D01*
X153198538Y-82758133D01*
X153269723Y-82864668D01*
X153269726Y-82864672D01*
X153360327Y-82955273D01*
X153360331Y-82955276D01*
X153466866Y-83026461D01*
X153466872Y-83026464D01*
X153466873Y-83026465D01*
X153585256Y-83075501D01*
X153585260Y-83075501D01*
X153585261Y-83075502D01*
X153710928Y-83100500D01*
X153710931Y-83100500D01*
X153839071Y-83100500D01*
X153923615Y-83083682D01*
X153964744Y-83075501D01*
X154083127Y-83026465D01*
X154189669Y-82955276D01*
X154280276Y-82864669D01*
X154351465Y-82758127D01*
X154400501Y-82639744D01*
X154425500Y-82514069D01*
X154425500Y-82385931D01*
X154425500Y-82385928D01*
X154400502Y-82260261D01*
X154400501Y-82260260D01*
X154400501Y-82260256D01*
X154351465Y-82141873D01*
X154351464Y-82141872D01*
X154351461Y-82141866D01*
X154280276Y-82035331D01*
X154280273Y-82035327D01*
X154189672Y-81944726D01*
X154189668Y-81944723D01*
X154083133Y-81873538D01*
X154083124Y-81873533D01*
X153964744Y-81824499D01*
X153964738Y-81824497D01*
X153839071Y-81799500D01*
X153839069Y-81799500D01*
X153710931Y-81799500D01*
X153710929Y-81799500D01*
X153585261Y-81824497D01*
X153585255Y-81824499D01*
X153466875Y-81873533D01*
X153466866Y-81873538D01*
X153360331Y-81944723D01*
X153360327Y-81944726D01*
X153269726Y-82035327D01*
X153269723Y-82035331D01*
X153198538Y-82141866D01*
X153198533Y-82141875D01*
X153149499Y-82260255D01*
X153149497Y-82260261D01*
X153124500Y-82385928D01*
X153124500Y-82385931D01*
X153124500Y-82514069D01*
X153124500Y-82514071D01*
X153124499Y-82514071D01*
X92723181Y-82514071D01*
X91478657Y-81269547D01*
X91445172Y-81208224D01*
X91442338Y-81181866D01*
X91442338Y-76548219D01*
X91443184Y-76546040D01*
X91442338Y-76508434D01*
X91442338Y-76503324D01*
X91442349Y-76501650D01*
X91444875Y-76314593D01*
X91444886Y-76313802D01*
X93515483Y-76313802D01*
X93529654Y-76568262D01*
X93529656Y-76568276D01*
X93579951Y-76818115D01*
X93579951Y-76818117D01*
X93634252Y-76970817D01*
X93665344Y-77058250D01*
X93784089Y-77283760D01*
X93933762Y-77490044D01*
X94111308Y-77672889D01*
X94313101Y-77828564D01*
X94313103Y-77828565D01*
X94313104Y-77828566D01*
X94535023Y-77953890D01*
X94772534Y-78046306D01*
X94772539Y-78046307D01*
X94874570Y-78069987D01*
X95020801Y-78103927D01*
X95115850Y-78112040D01*
X95123098Y-78115120D01*
X95155363Y-78115413D01*
X95187508Y-78118154D01*
X95187508Y-78118153D01*
X95187510Y-78118154D01*
X95199648Y-78116797D01*
X95199806Y-78118217D01*
X95214808Y-78115953D01*
X97870269Y-78140100D01*
X97874242Y-78140137D01*
X97875118Y-78140500D01*
X97914128Y-78140500D01*
X97953057Y-78140854D01*
X97953058Y-78140853D01*
X97961940Y-78140934D01*
X97966571Y-78140500D01*
X98043771Y-78140500D01*
X98043774Y-78140500D01*
X98253430Y-78110356D01*
X98298696Y-78103848D01*
X98298697Y-78103847D01*
X98298701Y-78103847D01*
X98545817Y-78031287D01*
X98545820Y-78031285D01*
X98545822Y-78031285D01*
X98780080Y-77924303D01*
X98780084Y-77924300D01*
X98780092Y-77924297D01*
X98996756Y-77785056D01*
X99191398Y-77616398D01*
X99360056Y-77421756D01*
X99499297Y-77205092D01*
X99499300Y-77205084D01*
X99499303Y-77205080D01*
X99606285Y-76970822D01*
X99606285Y-76970820D01*
X99606287Y-76970817D01*
X99678847Y-76723701D01*
X99715500Y-76468774D01*
X99715500Y-76365080D01*
X169737781Y-76365080D01*
X169770623Y-76619503D01*
X169835724Y-76852361D01*
X169839697Y-76866569D01*
X169943561Y-77101124D01*
X169943563Y-77101128D01*
X170080069Y-77318327D01*
X170193671Y-77451747D01*
X170243486Y-77510252D01*
X170246379Y-77513649D01*
X170439037Y-77683037D01*
X170654043Y-77822972D01*
X170886931Y-77930549D01*
X171132864Y-78003533D01*
X171386733Y-78040408D01*
X171386942Y-78040408D01*
X171512914Y-78040498D01*
X171514296Y-78040507D01*
X175313926Y-78089852D01*
X175323869Y-78089982D01*
X175325118Y-78090500D01*
X175363698Y-78090500D01*
X175402275Y-78091001D01*
X175402276Y-78091000D01*
X175409866Y-78091099D01*
X175416379Y-78090500D01*
X175493771Y-78090500D01*
X175493774Y-78090500D01*
X175703013Y-78060415D01*
X175748696Y-78053848D01*
X175748697Y-78053847D01*
X175748701Y-78053847D01*
X175995817Y-77981287D01*
X175995820Y-77981285D01*
X175995822Y-77981285D01*
X176230080Y-77874303D01*
X176230084Y-77874300D01*
X176230092Y-77874297D01*
X176446756Y-77735056D01*
X176641398Y-77566398D01*
X176810056Y-77371756D01*
X176949297Y-77155092D01*
X176949300Y-77155084D01*
X176949303Y-77155080D01*
X177056285Y-76920822D01*
X177056285Y-76920820D01*
X177056287Y-76920817D01*
X177128847Y-76673701D01*
X177165500Y-76418774D01*
X177165500Y-76161226D01*
X177138775Y-75975351D01*
X177128848Y-75906303D01*
X177128845Y-75906293D01*
X177095133Y-75791479D01*
X177056287Y-75659183D01*
X177056286Y-75659181D01*
X177056285Y-75659177D01*
X176949303Y-75424919D01*
X176949290Y-75424896D01*
X176810060Y-75208250D01*
X176810056Y-75208244D01*
X176641398Y-75013601D01*
X176446755Y-74844943D01*
X176446749Y-74844939D01*
X176230103Y-74705709D01*
X176230080Y-74705696D01*
X175995822Y-74598714D01*
X175748706Y-74526154D01*
X175748696Y-74526151D01*
X175540502Y-74496218D01*
X175493774Y-74489500D01*
X175493772Y-74489500D01*
X175404859Y-74489500D01*
X175404840Y-74489492D01*
X175366474Y-74489500D01*
X175365000Y-74489500D01*
X175325118Y-74489500D01*
X175313887Y-74489500D01*
X175313772Y-74489510D01*
X171569975Y-74490291D01*
X171566104Y-74490231D01*
X171443130Y-74486415D01*
X171188222Y-74515216D01*
X170940100Y-74580359D01*
X170940090Y-74580363D01*
X170703913Y-74680492D01*
X170484568Y-74813540D01*
X170484567Y-74813541D01*
X170286640Y-74976723D01*
X170286638Y-74976725D01*
X170114211Y-75166675D01*
X169970890Y-75379422D01*
X169970882Y-75379435D01*
X169859629Y-75610577D01*
X169859624Y-75610587D01*
X169782749Y-75855322D01*
X169782748Y-75855326D01*
X169741852Y-76108571D01*
X169741850Y-76108590D01*
X169738582Y-76314593D01*
X169737781Y-76365080D01*
X99715500Y-76365080D01*
X99715500Y-76211226D01*
X99688775Y-76025351D01*
X99678848Y-75956303D01*
X99678845Y-75956293D01*
X99664166Y-75906299D01*
X99606287Y-75709183D01*
X99606286Y-75709181D01*
X99606285Y-75709177D01*
X99499303Y-75474919D01*
X99499290Y-75474896D01*
X99360060Y-75258250D01*
X99360056Y-75258244D01*
X99191398Y-75063601D01*
X98996755Y-74894943D01*
X98996749Y-74894939D01*
X98780103Y-74755709D01*
X98780080Y-74755696D01*
X98545822Y-74648714D01*
X98298706Y-74576154D01*
X98298696Y-74576151D01*
X98090502Y-74546218D01*
X98043774Y-74539500D01*
X98043772Y-74539500D01*
X97953889Y-74539500D01*
X97952966Y-74539128D01*
X97914009Y-74539500D01*
X97875118Y-74539500D01*
X97866398Y-74539500D01*
X97861546Y-74540000D01*
X95263503Y-74564807D01*
X95263504Y-74564808D01*
X95248197Y-74564954D01*
X95243917Y-74563444D01*
X95208499Y-74565333D01*
X95205753Y-74565360D01*
X95172983Y-74565673D01*
X95172458Y-74565783D01*
X95153733Y-74568224D01*
X95076841Y-74572336D01*
X94826877Y-74622050D01*
X94586541Y-74706886D01*
X94360762Y-74825105D01*
X94360754Y-74825110D01*
X94154136Y-74974294D01*
X93970869Y-75151424D01*
X93814728Y-75352851D01*
X93814727Y-75352853D01*
X93688889Y-75574480D01*
X93657485Y-75654640D01*
X93595921Y-75811781D01*
X93573752Y-75906299D01*
X93537723Y-76059910D01*
X93515483Y-76313802D01*
X91444886Y-76313802D01*
X91446267Y-76211516D01*
X91448341Y-76057918D01*
X91448780Y-76049048D01*
X91486681Y-75606824D01*
X91487756Y-75598017D01*
X91557368Y-75159670D01*
X91559077Y-75150948D01*
X91660035Y-74718757D01*
X91662365Y-74710184D01*
X91794155Y-74286355D01*
X91797098Y-74277969D01*
X91959039Y-73864703D01*
X91962568Y-73856572D01*
X92153804Y-73456049D01*
X92157918Y-73448176D01*
X92377469Y-73062448D01*
X92382142Y-73054884D01*
X92628871Y-72685944D01*
X92634079Y-72678732D01*
X92906710Y-72328490D01*
X92912411Y-72321687D01*
X93209515Y-71991981D01*
X93215695Y-71985599D01*
X93392580Y-71815658D01*
X93454558Y-71783410D01*
X93478832Y-71781082D01*
X176443871Y-72023734D01*
G37*
%TD.AperFunction*%
%TD*%
M02*
