%TF.GenerationSoftware,KiCad,Pcbnew,9.0.0*%
%TF.CreationDate,2025-06-10T14:56:09-07:00*%
%TF.ProjectId,og_pcb,6f675f70-6362-42e6-9b69-6361645f7063,rev?*%
%TF.SameCoordinates,Original*%
%TF.FileFunction,Profile,NP*%
%FSLAX46Y46*%
G04 Gerber Fmt 4.6, Leading zero omitted, Abs format (unit mm)*
G04 Created by KiCad (PCBNEW 9.0.0) date 2025-06-10 14:56:09*
%MOMM*%
%LPD*%
G01*
G04 APERTURE LIST*
%TA.AperFunction,Profile*%
%ADD10C,0.100000*%
%TD*%
G04 APERTURE END LIST*
D10*
X95241838Y-166010678D02*
G75*
G02*
X91241794Y-163010690I-60638J4085878D01*
G01*
X179241838Y-80281800D02*
X179241838Y-81316278D01*
X175241838Y-166010678D02*
X95241838Y-166010678D01*
X93405358Y-71525523D02*
X97875000Y-71500000D01*
X174268638Y-86289478D02*
X174268638Y-151673078D01*
X145500000Y-71500000D02*
X170900000Y-71500000D01*
X175365000Y-74690000D02*
X171564975Y-74690793D01*
X179241838Y-80281800D02*
X179241838Y-75010678D01*
X133435000Y-71500000D02*
X97875000Y-71500000D01*
X170900000Y-71500000D02*
X176340000Y-71515000D01*
X171515000Y-77840000D02*
G75*
G02*
X171564975Y-74690793I0J1575000D01*
G01*
X95164802Y-77914991D02*
G75*
G02*
X95214775Y-74765746I134098J1572891D01*
G01*
X91241838Y-156646278D02*
X96218638Y-151669478D01*
X91241838Y-157936278D02*
X91241838Y-156646278D01*
X97915000Y-74740000D02*
G75*
G02*
X97915000Y-77940000I0J-1600000D01*
G01*
X179241838Y-81316278D02*
X174268638Y-86289478D01*
X175365000Y-74690000D02*
G75*
G02*
X175365000Y-77890000I0J-1600000D01*
G01*
X91241838Y-81316278D02*
X91241838Y-76510678D01*
X179241838Y-157468278D02*
X179241838Y-156646278D01*
X91241838Y-76510678D02*
G75*
G02*
X93405359Y-71525524I6488762J145978D01*
G01*
X133435000Y-71500000D02*
X134791838Y-71500000D01*
X179241838Y-157468278D02*
X179241838Y-162010678D01*
X179241838Y-162010678D02*
G75*
G02*
X175241845Y-166010729I-4618638J618578D01*
G01*
X91241838Y-81316278D02*
X96218638Y-86293078D01*
X179241838Y-156646278D02*
X174268638Y-151673078D01*
X176340000Y-71515000D02*
X179241838Y-75010678D01*
X96224938Y-151663178D02*
X96200000Y-137800000D01*
X171515000Y-77840000D02*
X175365000Y-77890000D01*
X96200000Y-137800000D02*
X96218638Y-86293078D01*
X91241838Y-163010678D02*
X91241838Y-157936278D01*
X95214777Y-74765784D02*
X97915000Y-74740000D01*
X95164802Y-77914991D02*
X97915000Y-77940000D01*
X134791838Y-71500000D02*
X144342238Y-71500000D01*
X145500000Y-71500000D02*
X144342238Y-71500000D01*
M02*
